<?xml version="1.0" encoding="utf-8"?>

<!--
 ~   Copyright 2019, WSO2 Inc. (http://www.wso2.com)
 ~
 ~   Licensed under the Apache License, Version 2.0 (the "License");
 ~   you may not use this file except in compliance with the License.
 ~   You may obtain a copy of the License at
 ~
 ~        http://www.apache.org/licenses/LICENSE-2.0
 ~
 ~   Unless required by applicable law or agreed to in writing, software
 ~   distributed under the License is distributed on an "AS IS" BASIS,
 ~   WITHOUT WARRANTIES OR CONDITIONS OF ANY KIND, either express or implied.
 ~   See the License for the specific language governing permissions and
 ~   limitations under the License.
-->

<svg version="1.1" id="attach" xmlns="http://www.w3.org/2000/svg" xmlns:xlink="http://www.w3.org/1999/xlink" x="0px" y="0px"
	 viewBox="0 0 14 14" style="enable-background:new 0 0 14 14;" xml:space="preserve">
<path d="M11.9659233,6.9172654c0.2465334,0.2309241,0.4620295,0.4327769,0.690074,0.6463828
	c-0.0458918,0.0496421-0.0813265,0.091095-0.1199579,0.1293163c-1.7427034,1.724227-3.491353,3.4424906-5.2269487,5.1738405
	c-1.5491719,1.5453835-3.9334359,1.4466801-5.4437795,0.089345c-0.6815587-0.6125145-1.1290247-1.3613243-1.2807083-2.2595606
	C0.3636121,9.3879309,0.7072648,8.2405119,1.6647888,7.2959304C3.8315549,5.158452,5.9982061,3.020854,8.1627407,0.8811167
	c1.2783346-1.2636886,3.2751398-1.0786184,4.3894253-0.0124492c0.6520395,0.6238838,0.9370604,1.4232666,0.9275036,2.319386
	c-0.0087824,0.8234849-0.3303394,1.5160565-0.9176645,2.0955482c-1.8301239,1.8057165-3.6607513,3.6110086-5.4784207,5.429225
	c-0.8469424,0.8471966-2.0541058,0.8641205-2.9041405,0.2714138c-1.1730342-0.8179264-1.3225942-2.3779411-0.3082078-3.3954682
	c1.4337428-1.4381824,2.8871896-2.8567209,4.3324499-4.2834187C8.225378,3.2839384,8.250102,3.2655923,8.2467813,3.2684095
	c0.22787,0.2092643,0.4487314,0.4120927,0.70926,0.6513495C8.8919868,3.9609601,8.8362865,3.9847791,8.7961159,4.0243592
	c-1.4428816,1.4217-2.8841448,2.8450418-4.326035,4.2677484C3.940124,8.8150158,4.0266032,9.7236929,4.6520863,10.1946878
	c0.5379181,0.4050579,1.271842,0.3669558,1.7513819-0.1064806c1.8443584-1.8208752,3.6863251-3.6441798,5.5258064-5.4699817
	c0.6311073-0.626415,0.7823496-1.3789601,0.5037909-2.2076268c-0.2967548-0.8827983-0.9497252-1.3501425-1.8574724-1.4638786
	C9.848671,0.855641,9.2316103,1.0948713,8.7105083,1.6097497C6.5932784,3.7016943,4.4830561,5.8009129,2.3487318,7.8753114
	C0.9728843,9.2125282,1.1916455,11.2701912,2.6315603,12.40485c1.0292611,0.8110638,2.3726821,0.9001617,3.4673486,0.2330818
	c0.2058234-0.1254272,0.3904333-0.2934837,0.5635724-0.4635162c1.7342901-1.7031641,3.4642591-3.4107285,5.1944876-5.1180258
	C11.9010611,7.0128818,11.9341984,6.9582691,11.9659233,6.9172654z"/>
</svg>
