<?xml version="1.0" encoding="utf-8"?>

<!--
 ~   Copyright 2019, WSO2 Inc. (http://www.wso2.com)
 ~
 ~   Licensed under the Apache License, Version 2.0 (the "License");
 ~   you may not use this file except in compliance with the License.
 ~   You may obtain a copy of the License at
 ~
 ~        http://www.apache.org/licenses/LICENSE-2.0
 ~
 ~   Unless required by applicable law or agreed to in writing, software
 ~   distributed under the License is distributed on an "AS IS" BASIS,
 ~   WITHOUT WARRANTIES OR CONDITIONS OF ANY KIND, either express or implied.
 ~   See the License for the specific language governing permissions and
 ~   limitations under the License.
-->

<svg version="1.1" id="link" xmlns="http://www.w3.org/2000/svg" xmlns:xlink="http://www.w3.org/1999/xlink" x="0px" y="0px"
	 viewBox="0 0 14 14" style="enable-background:new 0 0 14 14;" xml:space="preserve">
<path d="M3.7444098,9.5338707l0.7193601,0.7420664l5.6452122-5.6630878l0.0521765-0.0521765L9.4335861,3.8302009L3.79562,9.4826603
	L3.7444098,9.5338707z M13.9990339,3.1702642c-0.0135279-0.0806804-0.0241556-0.1608777-0.0347843-0.2410748
	c-0.029953-0.2236829-0.0618391-0.4555786-0.1362391-0.6734641c-0.4106483-1.2329125-1.2551355-1.9706309-2.5131702-2.1928644
	c-0.9903879-0.1618439-1.8967142,0.112083-2.615591,0.7932768C8.0953541,1.4276643,7.2170486,2.3190136,6.4426136,3.1050436
	C6.1165104,3.4359782,5.8126302,3.7451725,5.5614095,3.996876L5.509233,4.0490527l0.7285395,0.7304716l0.0521765-0.053143
	c0.6106586-0.6198378,2.1223292-2.1522825,2.9677825-2.990006c0.5053396-0.5053395,1.1131001-0.7203262,1.8097534-0.6333653
	c0.992321,0.1144985,1.8068542,0.9899051,1.8532333,1.991888c0.0202913,0.6430275-0.195179,1.1957126-0.6406116,1.6416287
	L11.565094,5.4520221c-0.7237072,0.7251573-1.5817223,1.5831718-2.1556635,2.1662927l-0.0512104,0.05266l0.7179098,0.7188768
	l0.0521774-0.0512104c0.8183985-0.8106689,2.1131496-2.103488,2.899663-2.9020786C13.6734133,4.7906361,14,4.0321436,14,3.181859
	L13.9990339,3.1702642z M0.0009662,10.847331c0.0135273,0.0806808,0.0241558,0.1608782,0.0347844,0.2410755
	c0.0299532,0.2236824,0.0618389,0.4555779,0.1362388,0.6734638c0.4106487,1.2329121,1.2551359,1.9706306,2.5131702,2.1928644
	c0.9903882,0.1618433,1.8967142-0.1120834,2.615591-0.7932768c0.6038952-0.5715265,1.4822006-1.4628763,2.2566357-2.2489061
	c0.3261032-0.3309345,0.6299839-0.6401291,0.8812037-0.8918324l0.0521765-0.0521765l-0.728539-0.7304716L7.7100511,9.291214
	c-0.6106586,0.6198378-2.1223292,2.1522827-2.9677825,2.9900064c-0.5053396,0.5053396-1.1130998,0.7203255-1.8097534,0.6333647
	c-0.9923205-0.1144981-1.8068545-0.9899044-1.8532336-1.991888c-0.0202909-0.6430273,0.1951789-1.1957121,0.640612-1.6416283
	l0.715012-0.7154951C3.1586137,7.840416,4.0166278,6.9824018,4.59057,6.3992805L4.6417804,6.346621L3.9238696,5.6277442
	L3.8716931,5.6789546c-0.818399,0.8106689-2.1131501,2.1034875-2.8996634,2.9020791C0.3265865,9.2269592,0,9.9854517,0,10.8357363
	L0.0009662,10.847331z"/>
</svg>
