<?xml version="1.0" encoding="utf-8"?>
<!-- Generator: Adobe Illustrator 19.2.1, SVG Export Plug-In . SVG Version: 6.00 Build 0)  -->
<svg version="1.1" id="dmg-resource" xmlns="http://www.w3.org/2000/svg" xmlns:xlink="http://www.w3.org/1999/xlink" x="0px"
	 y="0px" viewBox="0 0 14 14" style="enable-background:new 0 0 14 14;" xml:space="preserve">
<style type="text/css">
	.st0{fill:#FFFFFF;}
</style>
<path class="st0" d="M0,7.8653646V6.6141009C0.2132496,6.6001983,0.3739171,6.561965,0.4820025,6.499402
	c0.1080854-0.0625634,0.2015647-0.1677041,0.2804378-0.3154225c0.0788731-0.1477189,0.1329158-0.3328013,0.1621281-0.5552483
	c0.0233698-0.1668353,0.0350547-0.4570589,0.0350547-0.8706708c0-0.6742916,0.026291-1.1443846,0.0788732-1.4102781
	s0.147522-0.479651,0.2848197-0.6412725c0.1372976-0.1616213,0.3374017-0.2893546,0.6003121-0.3831992
	c0.178195-0.0625632,0.4586327-0.0938449,0.8413134-0.0938449H2.997179v1.2460499
	c-0.3242562,0-0.5323935,0.0217233-0.6244123,0.0651698C2.2807481,3.5841322,2.2128296,3.650171,2.1690111,3.7388022
	C2.1251929,3.8274333,2.1032836,3.9794965,2.1032836,4.1949921c0,0.2189708-0.0131457,0.6343207-0.0394366,1.2460494
	C2.0492408,5.7851391,2.011265,6.0640664,1.9499192,6.2778239s-0.1394887,0.390151-0.2344285,0.52918
	c-0.0949399,0.1390295-0.240271,0.2832723-0.4359932,0.4327288c0.1723524,0.118175,0.3133017,0.2563353,0.4228476,0.4144812
	C1.8118912,7.8123593,1.8958764,8.0043936,1.954301,8.2303162s0.0964006,0.5283117,0.113928,0.9071655
	c0.0204484,0.576972,0.0306728,0.9453993,0.0306728,1.1052828c0,0.2293987,0.0233698,0.3892822,0.0701094,0.4796515
	c0.0467398,0.0903692,0.1175795,0.1590147,0.2125194,0.2059364c0.0949399,0.0469227,0.3001561,0.070384,0.6156485,0.070384V12.25
	H2.7649415c-0.3943655,0-0.6967125-0.037364-0.9070411-0.112093c-0.2103283-0.074728-0.3877928-0.1989851-0.5323937-0.3727722
	c-0.1446007-0.1737862-0.2417315-0.3884125-0.2913923-0.6438789c-0.049661-0.2554665-0.0744914-0.6577826-0.0744914-1.2069473
	c0-0.639535-0.0233698-1.0548849-0.0701095-1.2460499c-0.064267-0.278059-0.1613978-0.4770451-0.2913924-0.5969572
	C0.4681265,7.9513888,0.2687529,7.8827429,0,7.8653646z M14,7.8653646
	c-0.2137842,0.0139027-0.3748541,0.0521359-0.4832096,0.1146989c-0.1083565,0.0625639-0.2013378,0.1677046-0.278944,0.315423
	c-0.0776072,0.1477184-0.1325169,0.3328009-0.164731,0.5552483c-0.023428,0.1668348-0.0351429,0.4553204-0.0351429,0.8654566
	c0,0.6742916-0.0256243,1.1452541-0.0768738,1.4128847c-0.0512495,0.2676315-0.1456957,0.4822578-0.2833366,0.6438799
	c-0.1376419,0.1616211-0.3397112,0.2893543-0.6062088,0.3831987C11.8929119,12.2187185,11.6117716,12.25,11.2281322,12.25
	h-0.2328196v-1.2512636c0.3133545,0,0.5183525-0.0234613,0.614994-0.070384
	c0.0966425-0.0469217,0.1676598-0.1146984,0.2130518-0.20333c0.045393-0.0886307,0.068821-0.2389565,0.0702848-0.4509764
	c0.0014648-0.212019,0.0139112-0.6169415,0.0373392-1.2147675c0.0146427-0.3614759,0.0541782-0.6508312,0.1186066-0.8680649
	c0.0644274-0.2172327,0.1500874-0.4014463,0.2569799-0.5526404c0.1068916-0.1511946,0.2438011-0.2841411,0.4107285-0.3988404
	c-0.216713-0.1668353-0.3748541-0.3301945-0.4744244-0.490078c-0.1376419-0.2293983-0.2313557-0.5213599-0.2811403-0.8758845
	c-0.0322142-0.2433014-0.0556431-0.778564-0.0702858-1.6057878c-0.0029278-0.2606802-0.0226955-0.4344666-0.0593023-0.5213599
	s-0.1025-0.1538012-0.1976776-0.2007234c-0.0951777-0.0469224-0.3082294-0.0703835-0.6391544-0.0703835V2.2294657h0.2328196
	c0.3953533,0,0.6984577,0.0364952,0.9093132,0.1094856c0.2108545,0.0729904,0.388032,0.1972477,0.5315304,0.3727722
	c0.1434994,0.1755245,0.2408733,0.3910198,0.2921228,0.646486s0.0768738,0.6577821,0.0768738,1.2069478
	c0,0.6360588,0.0219641,1.0514088,0.0658922,1.2460499c0.0644283,0.2780585,0.1625347,0.4770441,0.2943192,0.5969567
	S13.7305737,6.5967226,14,6.6141009V7.8653646z"/>
<path class="st0" d="M7.1210938,7.4047852c0.8564453,0,1.5117188-0.1767578,1.9658203-0.53125
	s0.6806641-0.8276367,0.6806641-1.4194336c0-0.3120117-0.0693359-0.5961914-0.2089844-0.8535156
	C9.4199219,4.34375,9.2294922,4.1342773,8.9882812,3.9716797C8.7460938,3.809082,8.4609375,3.6938477,8.1318359,3.6254883
	c-0.3300781-0.0683594-0.9335938-0.1025391-1.8125-0.1025391H4.6723633v7.1401367h0.9443359V7.4047852h0.3295898
	l2.8330078,3.2583008h1.1855469L7.1210938,7.4047852z M5.6166992,6.5854492V4.3422852h1.3178711
	c0.6367188,0,1.1054688,0.0893555,1.4052734,0.2680664C8.640625,4.7895508,8.7900391,5.0756836,8.7900391,5.46875
	c0,0.3935547-0.1533203,0.6796875-0.4609375,0.8583984C8.0214844,6.5063477,7.5458984,6.5922852,6.9013672,6.5854492H5.6166992z"/>
</svg>

