<?xml version="1.0" encoding="utf-8"?>

<!--
 ~   Copyright (c) WSO2 Inc. (http://wso2.com) All Rights Reserved.
 ~
 ~   Licensed under the Apache License, Version 2.0 (the "License");
 ~   you may not use this file except in compliance with the License.
 ~   You may obtain a copy of the License at
 ~
 ~        http://www.apache.org/licenses/LICENSE-2.0
 ~
 ~   Unless required by applicable law or agreed to in writing, software
 ~   distributed under the License is distributed on an "AS IS" BASIS,
 ~   WITHOUT WARRANTIES OR CONDITIONS OF ANY KIND, either express or implied.
 ~   See the License for the specific language governing permissions and
 ~   limitations under the License.
-->

<svg version="1.1" id="import" xmlns="http://www.w3.org/2000/svg" xmlns:xlink="http://www.w3.org/1999/xlink" x="0px" y="0px"
	 viewBox="0 0 14 14" style="enable-background:new 0 0 14 14;" xml:space="preserve">
<path d="M0.0125732,0L0,1.1048868c0,0,1.8726807,0.0341617,3.7625122,1.2455599
	C6.041626,3.8118961,7.3563843,6.290205,7.6943359,9.7129622L6.184021,8.4470892L5.4140625,9.2400064l2.9403076,2.651618
	l2.8918457-3.12854L10.43396,8.0132961L8.812561,9.7684755C7.9475708,0.2059461,0.0125732,0,0.0125732,0z M1.3239746,12.6389008
	c3.8269653,0,7.5960083,0,11.3427124,0L12.6813965,1.318385c-1.3780518,0.0123227-5.6578369,0.0092114-5.6578369,0.0092114
	l0.0037842-1.3232776L14,0.007369V14H0V7.2035913l1.3265381,0.0015249
	C1.3265381,7.2051163,1.3239746,12.2780066,1.3239746,12.6389008z"/>
</svg>
