<?xml version="1.0" encoding="utf-8"?>
<!-- Generator: Adobe Illustrator 21.0.0, SVG Export Plug-In . SVG Version: 6.00 Build 0)  -->
<svg version="1.1" id="resource" xmlns="http://www.w3.org/2000/svg" xmlns:xlink="http://www.w3.org/1999/xlink" x="0px" y="0px"
	 viewBox="0 0 14 14" style="enable-background:new 0 0 14 14;" xml:space="preserve">
<style type="text/css">
	.st0{fill:#FFFFFF;}
</style>
<path class="st0" d="M0,8.4l1.4,0.2C1.6,9,1.8,9.4,2,9.8L1.1,11l1.9,1.9L4.1,12c0.4,0.3,0.9,0.4,1.4,0.6L5.6,14h2.6l0.2-1.4
	c0.5-0.1,1-0.3,1.4-0.6l1.2,0.9l1.8-1.9L12,9.8c0.2-0.4,0.4-0.9,0.5-1.3L14,8.3l0-2.6l-1.6-0.2c-0.1-0.4-0.3-0.8-0.5-1.2l1-1.2
	L11,1.1l-1.2,1C9.4,1.9,9,1.7,8.5,1.6L8.4,0L5.7,0L5.5,1.5C5,1.7,4.6,1.8,4.2,2.1l-1.2-1L1.1,3L2,4.2C1.8,4.6,1.6,5.1,1.5,5.5L0,5.7
	V8.4z M7,4.2c1.5,0,2.8,1.2,2.8,2.8S8.5,9.7,7,9.7S4.2,8.5,4.2,7S5.5,4.2,7,4.2z"/>
</svg>
