<?xml version="1.0" encoding="utf-8"?>

<!--
 ~   Copyright 2017, WSO2 Inc. (http://www.wso2.com)
 ~
 ~   Licensed under the Apache License, Version 2.0 (the "License");
 ~   you may not use this file except in compliance with the License.
 ~   You may obtain a copy of the License at
 ~
 ~        http://www.apache.org/licenses/LICENSE-2.0
 ~
 ~   Unless required by applicable law or agreed to in writing, software
 ~   distributed under the License is distributed on an "AS IS" BASIS,
 ~   WITHOUT WARRANTIES OR CONDITIONS OF ANY KIND, either express or implied.
 ~   See the License for the specific language governing permissions and
 ~   limitations under the License.
-->

<svg version="1.1" id="facebook" xmlns="http://www.w3.org/2000/svg" xmlns:xlink="http://www.w3.org/1999/xlink" x="0px" y="0px"
	 viewBox="0 0 14 14" style="enable-background:new 0 0 14 14;" xml:space="preserve">
<path d="M13.2,0H0.8C0.3,0,0,0.3,0,0.8v12.5C0,13.7,0.3,14,0.8,14h6.7V8.6H5.7V6.5h1.8V4.9c0-1.8,1.1-2.8,2.7-2.8
	c0.8,0,1.4,0.1,1.6,0.1v1.9l-1.1,0c-0.9,0-1,0.4-1,1v1.3h2.1l-0.3,2.1H9.7V14h3.6c0.4,0,0.8-0.3,0.8-0.8V0.8C14,0.3,13.7,0,13.2,0z"
	/>
</svg>
