<?xml version="1.0" encoding="utf-8"?>

<!--
 ~   Copyright (c) WSO2 Inc. (http://wso2.com) All Rights Reserved.
 ~
 ~   Licensed under the Apache License, Version 2.0 (the "License");
 ~   you may not use this file except in compliance with the License.
 ~   You may obtain a copy of the License at
 ~
 ~        http://www.apache.org/licenses/LICENSE-2.0
 ~
 ~   Unless required by applicable law or agreed to in writing, software
 ~   distributed under the License is distributed on an "AS IS" BASIS,
 ~   WITHOUT WARRANTIES OR CONDITIONS OF ANY KIND, either express or implied.
 ~   See the License for the specific language governing permissions and
 ~   limitations under the License.
-->

<svg version="1.1" id="connector" xmlns="http://www.w3.org/2000/svg" xmlns:xlink="http://www.w3.org/1999/xlink" x="0px" y="0px"
	 viewBox="0 0 14 14" style="enable-background:new 0 0 14 14;" xml:space="preserve">
<path d="M6.9999981-0.0003146C3.1404185-0.0003146,0,3.1401002,0,6.9996834c0,2.3668547,1.1802638,4.4623642,2.9829202,5.7299147
	l0.4686928-0.5983524c-1.625554-1.1277685-2.6925998-3.0075893-2.6925998-5.1315622
	c0-3.4408612,2.8001275-6.2409849,6.2409849-6.2409849c3.441494,0,6.2409887,2.8001237,6.2409887,6.2409849
	c0,3.2637548-2.5173969,5.9500313-5.7128396,6.2188482v-2.5028458h1.4743829V7.537951h1.073369V5.6669822H8.7324467V3.8586316
	H7.8684382v1.8083506H6.3289046V3.8586316H5.4648967v1.8083506H4.0752678V7.537951h1.0733733v3.1777349H6.664135v2.5161266
	v0.7602797c0.1113224,0.0056934,0.223278,0.0082226,0.3358631,0.0082226c0.1777353,0,0.3542085-0.0069571,0.5281491-0.0196075
	C11.1429453,13.7093611,14,10.6821604,14,6.9996834C14,3.1401002,10.8602142-0.0003146,6.9999981-0.0003146z"/>
</svg>
