<?xml version="1.0" encoding="utf-8"?>

<!--
 ~   Copyright (c) WSO2 Inc. (http://wso2.com) All Rights Reserved.
 ~
 ~   Licensed under the Apache License, Version 2.0 (the "License");
 ~   you may not use this file except in compliance with the License.
 ~   You may obtain a copy of the License at
 ~
 ~        http://www.apache.org/licenses/LICENSE-2.0
 ~
 ~   Unless required by applicable law or agreed to in writing, software
 ~   distributed under the License is distributed on an "AS IS" BASIS,
 ~   WITHOUT WARRANTIES OR CONDITIONS OF ANY KIND, either express or implied.
 ~   See the License for the specific language governing permissions and
 ~   limitations under the License.
-->

<svg version="1.1" id="constant" xmlns="http://www.w3.org/2000/svg" xmlns:xlink="http://www.w3.org/1999/xlink" x="0px" y="0px"
	 viewBox="0 0 14 14" style="enable-background:new 0 0 14 14;" xml:space="preserve">
<path d="M0.0002601,5.4545922c0.0023683-0.1162481,0.0226024-0.288991,0.0844576-0.4921513
	c0.0295625-0.1024423,0.262278-0.6453147,0.2939155-0.7133942C0.9177965,3.08884,1.880311,2.2483785,3.1484191,2.0081065
	c0.4734993-0.0893199,3.7885234-0.2300261,4.2548676-0.2472092c0.4663439-0.0156463,3.0867481-0.0975364,3.7973728-0.1188847
	c0.6913347-0.0205603,1.3988256-0.0944834,2.0864859,0.0076935c0.4478817,0.0665491,0.8552732,0.4100671,0.672534,0.9083805
	c-0.1977997,0.5393822-0.904768,0.4770164-1.3644981,0.492624c-0.653944,0.0222011-1.3037434-0.0363011-1.9546108-0.0389214
	C8.720767,3.004061,6.7975521,2.893501,4.8789468,2.8274441C4.162221,2.8027675,3.4115689,2.7143672,2.7133775,2.9248183
	C1.8730723,3.1781061,1.2782446,3.7571161,0.8322949,4.4933491c-0.0349227,0.059988-0.4434158,0.8048673-0.4875093,0.8721552
	c-0.044777,0.0671148-0.0869053,0.1237741-0.1245539,0.1690631C0.0941176,5.6862745,0.0386568,5.6891985,0.0210545,5.6658244
	C-0.0078431,5.6274509-0.0017342,5.57201,0.0002601,5.4545922z M4.6884813,2.9994395
	C4.5372705,2.9710906,4.5383124,3.1418214,4.5341516,3.2393377C4.4936824,4.2324367,4.3031354,5.225841,4.0631485,6.1808028
	C3.8235474,7.1342406,3.5546966,8.0962305,3.1804194,9.0065889c-0.2680197,0.651907-0.5930052,1.2888947-1.0304368,1.8446198
	c-0.2091815,0.2657499-0.4408551,0.5042324-0.7071737,0.711978c-0.2409104,0.1879263-0.4707769,0.4106445-0.5271628,0.7242794
	c-0.0563282,0.3133183,0.0521808,0.6406622,0.284879,0.8579369c0.0675424,0.0630655,0.1441764,0.1162653,0.2270716,0.1571293
	c0.7774341,0.3832474,1.3607891-0.4238157,1.7477167-0.9812174c0.4636903-0.667985,0.7916093-1.4234505,1.0236506-2.200532
	c0.3662786-1.2266273,0.5504599-2.536994,0.6587939-3.810739c0.0631609-0.7426167,0.1176443-1.4907784,0.0833855-2.2363372
	c-0.0138879-0.3022394,0.0035524-0.674454-0.1203294-0.9567511C4.7948232,3.0593503,4.7479892,3.010596,4.6884813,2.9994395z
	 M9.3008823,3.2254107C9.2039013,3.1588743,9.0674486,3.155669,8.9674511,3.2175791
	c-0.112565,0.0696905-0.1669388,0.2020941-0.2122889,0.3264766C8.5059776,4.2276344,8.3481894,4.946322,8.2078953,5.6619081
	C8.0262909,6.5881953,7.899869,7.5253024,7.8296437,8.466609c-0.0680714,0.9124365-0.1401467,1.8643265,0.0490742,2.766777
	c0.0921078,0.4392881,0.2599235,0.8687525,0.5368352,1.2219915c0.2689981,0.3431435,0.637085,0.606164,1.0458565,0.757863
	c0.6947756,0.2578382,1.5054226,0.1810894,2.1394644-0.2025566c0.4227476-0.2557964,0.7469711-0.64149,0.9529009-1.0884686
	c0.194562-0.4223042,0.3775063-1.0327282,0.3175411-1.5009832c-0.0299978,0.0342922-0.0529633,0.0783539-0.0771341,0.1190462
	c-0.0555639,0.0926342-0.1323338,0.2284336-0.2343779,0.3943033c-0.1009531,0.1657667-0.2280531,0.3620319-0.3864031,0.560626
	c-0.5422525,0.6574821-1.4400702,1.0202894-2.2479382,0.599617c-0.2568207-0.1337309-0.4507246-0.3414955-0.5532665-0.5853081
	c-0.2469978-0.5598717-0.2100306-1.2532539-0.2121716-1.8510904c-0.002449-0.6838465,0.0268536-1.3672638,0.056118-2.0503297
	C9.265996,6.444437,9.2781134,5.2717733,9.3775072,4.1112223c0.0163956-0.1914487,0.0280485-0.3309531,0.0396204-0.4373028
	c0.0053587-0.0530732,0.0114603-0.1076849,0.011898-0.1609104C9.4299345,3.4024081,9.4063845,3.2977934,9.3008823,3.2254107z"/>
</svg>
