<?xml version="1.0" encoding="utf-8"?>

<!--
 ~   Copyright (c) WSO2 Inc. (http://wso2.com) All Rights Reserved.
 ~
 ~   Licensed under the Apache License, Version 2.0 (the "License");
 ~   you may not use this file except in compliance with the License.
 ~   You may obtain a copy of the License at
 ~
 ~        http://www.apache.org/licenses/LICENSE-2.0
 ~
 ~   Unless required by applicable law or agreed to in writing, software
 ~   distributed under the License is distributed on an "AS IS" BASIS,
 ~   WITHOUT WARRANTIES OR CONDITIONS OF ANY KIND, either express or implied.
 ~   See the License for the specific language governing permissions and
 ~   limitations under the License.
-->

<svg version="1.1" id="if" xmlns="http://www.w3.org/2000/svg" xmlns:xlink="http://www.w3.org/1999/xlink" x="0px" y="0px"
	 viewBox="0 0 14 14" style="enable-background:new 0 0 14 14;" xml:space="preserve">
<path d="M10.6094637,6.5313087c-1.1605291-0.7685995-2.862412-1.8982849-4.1308174-2.7372122
	c0.0053768-1.090755,0.0087051-2.5057383,0.0084047-3.5643687C6.48703,0.1553939,6.4823623,0.0810599,6.47963,0
	C6.1789927,0,5.8952188,0,5.5847712,0c0,0.0974388,0,0.1733087,0,0.2491787
	c0.0000024,1.0705206-0.0010581,2.4469428,0.002924,3.5425868c-1.1860757,0.7866652-3.587455,2.3949668-5.0200291,3.3484957
	c1.5004432,0.996408,3.7657948,2.5081315,5.0233698,3.3532462c-0.0037389,1.0735893-0.0059261,2.2941093-0.005681,3.2521038
	C5.5853758,13.8279238,5.5900435,13.9102383,5.5927758,14h0.8948588v-0.2759256
	c-0.0000019-0.9707146,0.00069-2.1675053-0.0012417-3.2356071c1.2254553-0.8216686,2.966279-1.9746943,4.1025219-2.7620001
	C11.1231461,7.7351885,13.9324398,7.7503042,14,7.7568312V6.5426965
	C13.9319544,6.5426965,10.7152815,6.5391445,10.6094637,6.5313087z M9.329874,7.2485342
	C8.2768688,7.9504652,7.2228074,8.6496029,6.171608,9.356307C6.0727687,9.4227533,6.0012941,9.4241419,5.9009404,9.3565569
	C4.8759775,8.6662798,3.8475993,7.9850173,2.8203411,7.3007941C2.7482152,7.2527533,2.6773839,7.2012572,2.5810719,7.1339898
	C3.4987731,6.5226607,4.3859468,5.93185,5.2729716,5.340642c0.2231493-0.1487303,0.4440222-0.3038917,0.6701293-0.4440904
	c0.0492263-0.0305233,0.127274-0.0388107,0.173717-0.0080829c1.1170349,0.7390385,2.2315726,1.484786,3.3670144,2.2429743
	C9.4226837,7.1781864,9.377552,7.216753,9.329874,7.2485342z"/>
</svg>
