<?xml version="1.0" encoding="utf-8"?>

<!--
 ~   Copyright (c) WSO2 Inc. (http://wso2.com) All Rights Reserved.
 ~
 ~   Licensed under the Apache License, Version 2.0 (the "License");
 ~   you may not use this file except in compliance with the License.
 ~   You may obtain a copy of the License at
 ~
 ~        http://www.apache.org/licenses/LICENSE-2.0
 ~
 ~   Unless required by applicable law or agreed to in writing, software
 ~   distributed under the License is distributed on an "AS IS" BASIS,
 ~   WITHOUT WARRANTIES OR CONDITIONS OF ANY KIND, either express or implied.
 ~   See the License for the specific language governing permissions and
 ~   limitations under the License.
-->

<svg version="1.1" id="if" xmlns="http://www.w3.org/2000/svg" xmlns:xlink="http://www.w3.org/1999/xlink" x="0px" y="0px"
	 viewBox="0 0 14 14" style="enable-background:new 0 0 14 14;" xml:space="preserve">
<g>
	<path d="M6.346283,3.751755C6.346283,3.3517306,6.3562927,1.75,6.3562927,1.75V0H6.346283H6.3362732H5.4562683v3.7417452
		L4.4468002,3.7317355L5.886261,5.3800049L7.3411765,3.75L6.346283,3.751755z"/>
	<path d="M13.7176466,8.776062l-1.2920732-1.387208l-0.0152035,0.9172373c0,0-1.994812-0.0031128-2.0158691-0.0061035
		c-1-0.6100464-4.5082397-2.9199829-4.5082397-2.9199829S1.4363098,8.2000122,0.5362854,8.7700195
		c1.4699707,0.9199829,3.6900024,2.3099976,4.9299927,3.0899658c0,0.1700439,0,0.6970215,0,0.8170166l-1.1603956-0.0099487
		L5.8500061,14l1.5735235-1.3029785L6.346283,12.6870117c0-0.1300049,0-0.6569824,0-0.8370361
		c1.2000122-0.75,2.8959351-1.8907471,4.0059814-2.6207886c0.1062012,0.0020142,1.96875,0.0205688,2.0478516,0.020752
		l-0.0097046,0.9500608L13.7176466,8.776062z M9.136261,8.8699951c-0.9777832,0.6017456-2.2355957,1.3953247-3.2396851,2.0290527
		c-0.9746704-0.6211548-2.2075195-1.3909912-3.1502686-1.9790649C2.6763,8.8699951,2.6062927,8.8200073,2.5162659,8.7600098
		c0.9000244-0.5599976,3.3357544-2.0961914,3.373291-2.1248169c0.0464478,0.0272217,2.2967529,1.4348145,3.3967285,2.1248169
		C9.2262878,8.7999878,9.1763,8.8400269,9.136261,8.8699951z"/>
</g>
</svg>
