<?xml version="1.0" encoding="utf-8"?>

<!--
 ~   Copyright (c) WSO2 Inc. (http://wso2.com) All Rights Reserved.
 ~
 ~   Licensed under the Apache License, Version 2.0 (the "License");
 ~   you may not use this file except in compliance with the License.
 ~   You may obtain a copy of the License at
 ~
 ~        http://www.apache.org/licenses/LICENSE-2.0
 ~
 ~   Unless required by applicable law or agreed to in writing, software
 ~   distributed under the License is distributed on an "AS IS" BASIS,
 ~   WITHOUT WARRANTIES OR CONDITIONS OF ANY KIND, either express or implied.
 ~   See the License for the specific language governing permissions and
 ~   limitations under the License.
-->

<svg version="1.1" id="while" xmlns="http://www.w3.org/2000/svg" xmlns:xlink="http://www.w3.org/1999/xlink" x="0px" y="0px"
	 viewBox="0 0 14 14" style="enable-background:new 0 0 14 14;" xml:space="preserve">
<path d="M7.647059,4.0235295L6.039978,5.3800049L4.4468293,4.0287943l1.163156,0.0100098V0h0.8800049H6.5h0.0100098v1.75
	C6.5100098,1.75,6.5,3.6487894,6.5,4.0488138L7.647059,4.0235295z M13.3099976,1.289978v6.9299927V9.25
	c-0.0700073,0-2.2700195-0.0200195-2.789978-0.0300293C9.4099731,9.9500122,7.7000122,11.0999756,6.5,11.8499756
	c0,0.1800537,0,0.7070312,0,0.8370361l1.170588,0.0100098L6.0037231,14l-1.5919585-1.3329468l1.2082305,0.0099487
	c0-0.1199951,0-0.6469727,0-0.8170166c-1.2399902-0.7799683-3.460022-2.1699829-4.9299927-3.0899658
	C1.5900269,8.2000122,6.039978,5.3800049,6.039978,5.3800049s3.5,2.2799683,4.5,2.8900146
	c0.0700073,0.0100098,1.1600342,0.0100098,1.9400024,0.0100098L12.5,2.2199707H7.8035707L7.793561,3.1413724L6.5100098,1.75
	l1.3135195-1.3736373L7.8135805,1.289978h4.6164122H13.3099976z M9.4400024,8.7600098
	C8.3400269,8.0700073,6.0897217,6.6624146,6.0432739,6.6351929c-0.0375366,0.0286255-2.4732666,1.5648193-3.373291,2.1248169
	c0.0900269,0.0599976,0.1600342,0.1099854,0.2300415,0.1599731c0.942749,0.5880737,2.1755981,1.3579102,3.1502686,1.9790649
	c1.0040894-0.633728,2.2619019-1.4273071,3.2396851-2.0290527C9.3300171,8.8400269,9.3800049,8.7999878,9.4400024,8.7600098z"/>
</svg>
