<?xml version="1.0" encoding="utf-8"?>

<!--
 ~   Copyright (c) WSO2 Inc. (http://wso2.com) All Rights Reserved.
 ~
 ~   Licensed under the Apache License, Version 2.0 (the "License");
 ~   you may not use this file except in compliance with the License.
 ~   You may obtain a copy of the License at
 ~
 ~        http://www.apache.org/licenses/LICENSE-2.0
 ~
 ~   Unless required by applicable law or agreed to in writing, software
 ~   distributed under the License is distributed on an "AS IS" BASIS,
 ~   WITHOUT WARRANTIES OR CONDITIONS OF ANY KIND, either express or implied.
 ~   See the License for the specific language governing permissions and
 ~   limitations under the License.
-->

<svg version="1.1" id="dgm-if-else" xmlns="http://www.w3.org/2000/svg" xmlns:xlink="http://www.w3.org/1999/xlink" x="0px" y="0px"
	 viewBox="0 0 14 14" style="enable-background:new 0 0 14 14;" xml:space="preserve">
<path d="M0,6.4568095c1.0582688,0,1.2069361-0.5813198,1.2069361-1.1031728c0-0.4168754-0.0594668-0.8343573-0.1189338-1.2518396
	S0.9684616,3.2820029,0.9684616,2.8645208c0-1.3707737,0.8944313-1.9520934,2.1614413-1.9520934h0.3131115v0.8197942h-0.268208
	c-0.8798678,0-1.1778094,0.4769492-1.1778094,1.2815733c0,0.3428452,0.0449036,0.7002535,0.1043705,1.058269
	c0.0594668,0.3725781,0.1043706,0.7299867,0.1043706,1.1329055C2.2209082,6.1588678,1.803426,6.6358171,1.1329058,6.814218
	v0.0303402C1.803426,7.0083957,2.2209082,7.5150781,2.2057381,8.4695835c0,0.4017048-0.0449038,0.7742834-0.1043706,1.1322985
	C2.0419006,9.9744606,1.996997,10.3179131,1.996997,10.6747141c0,0.8349648,0.3428451,1.2973509,1.1778094,1.2973509h0.268208
	v0.8191872H3.1299028c-1.2372764,0-2.1614413-0.5364161-2.1614413-2.0412941c0-0.4029188,0.0600738-0.8204012,0.1195408-1.222106
	c0.059467-0.4029188,0.1189338-0.8058376,0.1189338-1.2075434c0-0.4623852-0.1486673-1.1031718-1.2069361-1.1031718V6.4568095z
	 M14.016942,7.2171369c-1.0582695,0-1.2075434,0.6407866-1.2075434,1.1031718c0,0.4017057,0.0594673,0.8046246,0.1189337,1.2075434
	c0.0606804,0.4017048,0.1201477,0.8191872,0.1201477,1.222106c0,1.504878-0.9393349,2.0412941-2.1614408,2.0412941h-0.3131123
	V11.972065h0.2536449c0.8349648-0.0157776,1.1917658-0.4623861,1.1917658-1.2973509
	c0-0.356801-0.0594664-0.7002535-0.1043701-1.0728321c-0.0594673-0.3580151-0.1189337-0.7305937-0.1189337-1.1322985
	c0-0.9545054,0.4174814-1.4611878,1.0728321-1.6250253V6.814218c-0.6553507-0.178401-1.0728321-0.6553502-1.0728321-1.6092486
	c0-0.4029188,0.0594664-0.7603273,0.1189337-1.1329055c0.0449038-0.3580155,0.1043701-0.7154238,0.1043701-1.058269
	c0-0.8046241-0.3131113-1.26701-1.1772022-1.2815733h-0.2682085V0.9124274h0.2985487
	c1.2670097,0,2.1760044,0.5813197,2.1760044,1.9520934c0,0.4174821-0.0594673,0.8197942-0.1201477,1.2372763
	c-0.0594664,0.4174824-0.1189337,0.8349643-0.1189337,1.2518396c0,0.521853,0.1492739,1.1031728,1.2075434,1.1031728V7.2171369z
	 M5.2897949,3.8879395c0.012207,0.3598633-0.2519531,0.6479492-0.6713867,0.6479492
	c-0.3720703,0-0.6357422-0.2880859-0.6357422-0.6479492c0-0.371582,0.2758789-0.659668,0.659668-0.659668
	C5.0378418,3.2282715,5.2897949,3.5163574,5.2897949,3.8879395z M4.114502,11.3234863V5.5192871H5.170166v5.8041992H4.114502z
	 M7.0310059,11.3234863V6.3225098h-0.815918V5.5192871h0.815918V5.2434082c0-0.8154297,0.1796875-1.559082,0.6708984-2.0268555
	c0.3964844-0.3837891,0.9238281-0.5400391,1.4150391-0.5400391c0.3720703,0,0.6962891,0.0839844,0.9003906,0.1679688
	l-0.1445312,0.815918C9.7175293,3.5881348,9.501709,3.5280762,9.2009277,3.5280762
	c-0.8994141,0-1.1269531,0.7919922-1.1269531,1.6791992v0.3120117h1.4033203v0.8032227H8.0739746v5.0009766H7.0310059z"/>
</svg>
