<?xml version="1.0" encoding="utf-8"?>

<!--
 ~   Copyright (c) WSO2 Inc. (http://wso2.com) All Rights Reserved.
 ~
 ~   Licensed under the Apache License, Version 2.0 (the "License");
 ~   you may not use this file except in compliance with the License.
 ~   You may obtain a copy of the License at
 ~
 ~        http://www.apache.org/licenses/LICENSE-2.0
 ~
 ~   Unless required by applicable law or agreed to in writing, software
 ~   distributed under the License is distributed on an "AS IS" BASIS,
 ~   WITHOUT WARRANTIES OR CONDITIONS OF ANY KIND, either express or implied.
 ~   See the License for the specific language governing permissions and
 ~   limitations under the License.
-->

<svg version="1.1" id="while" xmlns="http://www.w3.org/2000/svg" xmlns:xlink="http://www.w3.org/1999/xlink" x="0px" y="0px"
	 viewBox="0 0 14 14" style="enable-background:new 0 0 14 14;" xml:space="preserve">
<path d="M12.4282017,1.2941476H6.4928684V0H5.6114669v5.6832037C4.4469566,6.4090142,2.0944991,7.8897262,0.6903967,8.7680893
	c1.4718263,0.9185514,3.6939521,2.31213,4.9275069,3.0911579c-0.0036311,0.9897604-0.0057764,1.023119-0.0055566,1.9062376
	c0,0.0758972,0.0046215,0.1517248,0.0072622,0.2345152h0.8778253v-0.2543678c0-0.894907,0.0006599-0.9063444-0.0012655-1.8910036
	c1.202086-0.757452,2.909708-1.8203516,4.0242643-2.5461626c0.5240221,0.0080652,2.7228765,0.0219898,2.7891703,0.0279875V9.325079
	V8.217165V1.2941476H12.4282017z M9.2853937,8.8679056C8.2524796,9.514925,7.218576,10.159462,6.1874228,10.8109608
	c-0.0969367,0.0612144-0.1670814,0.0625238-0.2655039,0.0002069c-1.0054059-0.6363335-2.014168-1.2643261-3.0218296-1.8951454
	C2.8293395,8.8717661,2.759855,8.8242702,2.6653936,8.7622986c0.9001617-0.5636082,1.7704499-1.1081905,2.640518-1.653255
	c0.2189064-0.1371107,0.4355569-0.2801495,0.6573787-0.4093328C6.011539,6.6715169,6.08812,6.6639338,6.1336727,6.6921968
	c1.0957413,0.6813483,2.1890068,1.368763,3.3027935,2.0677576C9.3764439,8.8030386,9.3322115,8.8386087,9.2853937,8.8679056z
	 M10.5405693,8.206687C9.4034014,7.4989367,7.7367659,6.4591298,6.4928684,5.6860299V4.6518064
	c0.0025854-0.7720656,0.0041809-1.5876291,0.0039611-2.2532601h5.7987304V8.215786
	C11.5092802,8.214201,10.6053772,8.211236,10.5405693,8.206687z"/>
</svg>
