<?xml version="1.0" encoding="utf-8"?>

<!--
 ~   Copyright (c) WSO2 Inc. (http://wso2.com) All Rights Reserved.
 ~
 ~   Licensed under the Apache License, Version 2.0 (the "License");
 ~   you may not use this file except in compliance with the License.
 ~   You may obtain a copy of the License at
 ~
 ~        http://www.apache.org/licenses/LICENSE-2.0
 ~
 ~   Unless required by applicable law or agreed to in writing, software
 ~   distributed under the License is distributed on an "AS IS" BASIS,
 ~   WITHOUT WARRANTIES OR CONDITIONS OF ANY KIND, either express or implied.
 ~   See the License for the specific language governing permissions and
 ~   limitations under the License.
-->

<svg version="1.1" id="while" xmlns="http://www.w3.org/2000/svg" xmlns:xlink="http://www.w3.org/1999/xlink" x="0px" y="0px"
	 viewBox="0 0 14 14" style="enable-background:new 0 0 14 14;" xml:space="preserve">
<path d="M7.6,4L6,5.4L4.4,4l1.2,0V0h0.9h0h0v1.8c0,0,0,1.9,0,2.3L7.6,4z M13.3,1.3v6.9v1c-0.1,0-2.3,0-2.8,0c-1.1,0.7-2.8,1.9-4,2.6
	c0,0.2,0,0.7,0,0.8l1.2,0L6,14l-1.6-1.3l1.2,0c0-0.1,0-0.6,0-0.8c-1.2-0.8-3.5-2.2-4.9-3.1C1.6,8.2,6,5.4,6,5.4s3.5,2.3,4.5,2.9
	c0.1,0,1.2,0,1.9,0l0-6.1H7.8l0,0.9L6.5,1.8l1.3-1.4l0,0.9h4.6H13.3z M9.4,8.8C8.3,8.1,6.1,6.7,6,6.6c0,0-2.5,1.6-3.4,2.1
	c0.1,0.1,0.2,0.1,0.2,0.2c0.9,0.6,2.2,1.4,3.2,2c1-0.6,2.3-1.4,3.2-2C9.3,8.8,9.4,8.8,9.4,8.8z"/>
</svg>
