<?xml version="1.0" encoding="utf-8"?>

<!--
 ~   Copyright (c) WSO2 Inc. (http://wso2.com) All Rights Reserved.
 ~
 ~   Licensed under the Apache License, Version 2.0 (the "License");
 ~   you may not use this file except in compliance with the License.
 ~   You may obtain a copy of the License at
 ~
 ~        http://www.apache.org/licenses/LICENSE-2.0
 ~
 ~   Unless required by applicable law or agreed to in writing, software
 ~   distributed under the License is distributed on an "AS IS" BASIS,
 ~   WITHOUT WARRANTIES OR CONDITIONS OF ANY KIND, either express or implied.
 ~   See the License for the specific language governing permissions and
 ~   limitations under the License.
-->

<svg version="1.1" id="main-function" xmlns="http://www.w3.org/2000/svg" xmlns:xlink="http://www.w3.org/1999/xlink" x="0px"
	 y="0px" viewBox="0 0 14 14" style="enable-background:new 0 0 14 14;" xml:space="preserve">
<path class="st0" d="M8.5406523,2.0175211c0,0.1971412-0.0663805,0.3666906-0.1979408,0.5042496
	c-0.249526,0.261122-0.708189,0.278317-0.9609137,0.0455863C7.2606339,2.4557903,7.1962533,2.3122332,7.1962533,2.1526806
	c0-0.1019695,0.03439-0.2135363,0.1055684-0.341898c0.0179949-0.0327902,0.0303912-0.0571829,0.0391884-0.0755774
	C7.324615,1.7324061,7.3018217,1.7300068,7.271831,1.7300068c-0.212337,0-0.3978815,0.0659803-0.5670309,0.20114
	c-0.249126,0.1971412-0.4778576,0.515846-0.6809969,0.9485171c-0.0951719,0.207938-0.2687201,0.7157865-0.5162463,1.5103493
	h0.8945332L6.1797566,5.2053699H5.2848234L4.6474137,7.7386146c-0.3019099,1.1932435-0.6106181,2.1305642-0.9173265,2.7863688
	c-0.4442675,0.9429188-0.9345212,1.6071205-1.4575651,1.9750109c-0.4106776,0.2899132-0.8313521,0.4370699-1.2500272,0.4370699
	c-0.2947121,0-0.5506358-0.0911732-0.7605731-0.2707195C0.0919726,12.5291853,0,12.3360434,0,12.1109104
	c0-0.188344,0.077177-0.3582935,0.2231334-0.4922533c0.2563235-0.2359295,0.6841959-0.275918,0.9413192-0.039588
	c0.1175649,0.1079674,0.1799463,0.2431269,0.1799463,0.3906832c0,0.0775766-0.0191942,0.1839447-0.0987705,0.2947121
	c0.1067681-0.0183945,0.2195345-0.0615816,0.3370994-0.1283617c0.1663504-0.0947714,0.3187048-0.2407284,0.4526649-0.4338703
	c0.1399584-0.2023401,0.2759178-0.5042496,0.4038796-0.8973322c0.0555835-0.1659508,0.2051387-0.7189856,0.4578633-1.6918955
	L3.902036,5.2053699H2.842752l0.1727486-0.8153567h0.1659505c0.3930826,0,0.5686302-0.0323901,0.6466069-0.0595822
	c0.0991704-0.0343895,0.1943419-0.1051683,0.2827156-0.2095375c0.0699792-0.0827751,0.1983409-0.2723186,0.4126773-0.7057893
	C4.770977,2.9116542,5.0133047,2.513773,5.2436357,2.2322569C5.56394,1.8471719,5.9054384,1.554859,6.2605324,1.3613168
	C7.019906,0.9466405,7.7520876,0.9854289,8.1843586,1.3465213C8.4210882,1.544862,8.5406523,1.7703948,8.5406523,2.0175211z
	 M5.6344533,7.2128701l0.0585122,0.2011003c0.2544999-0.0437422,0.4101539-0.0653291,0.4663939-0.0653291
	c0.1340666,0,0.2442741,0.0318122,0.3306222,0.0948691C6.5763302,7.5071354,6.619504,7.5781455,6.619504,7.6576767
	c0,0.0329485-0.0153379,0.083508-0.0454464,0.1522455L6.4184036,8.265522l-1.1986489,3.516984h0.958919
	c0.4061775-1.0782156,0.6635175-1.7167377,0.7714529-1.9155655c0.2243915-0.4232197,0.540812-0.8668909,0.9492617-1.3298759
	c0.4078817-0.462985,0.7419128-0.765204,1.0009575-0.9060874C9.0599756,7.5440607,9.2116537,7.5003185,9.353673,7.5003185
	c0.0693064,0,0.1278181,0.0238595,0.1749687,0.0710101c0.047719,0.0465827,0.071578,0.1192966,0.071578,0.2170067
	c0,0.1192966-0.0607843,0.3561864-0.1812172,0.7106681L8.3106785,11.782506h0.9782333
	c0.2982426-0.8538246,0.6180716-1.5536985,0.9594879-2.1001921c0.5180883-0.8288288,1.0753756-1.4724636,1.6712914-1.9320402
	c0.203372-0.155654,0.3953838-0.2334809,0.5771694-0.2334809c0.0647612,0,0.1227055,0.0255637,0.1749687,0.0761228
	c0.0471506,0.050559,0.0710096,0.1210012,0.0710096,0.2113256c0,0.0653296-0.0062485,0.1323628-0.0193148,0.2011003
	c-0.0090895,0.0431747-0.0800991,0.2658615-0.2141657,0.6674938l-0.5896673,1.7423019
	c-0.1766729,0.5243378-0.2652931,0.8737068-0.2652931,1.0469713c0,0.1266823,0.050559,0.2334814,0.1522446,0.3203974
	c0.101119,0.086916,0.2278004,0.1300907,0.3789101,0.1300907c0.164175,0,0.343688-0.044879,0.5379715-0.1357718
	c0.1942835-0.0903244,0.4283323-0.2618847,0.7027149-0.5152483S13.892065,10.8093853,14,10.6645241l-0.2141666-0.1141834
	c-0.2158699,0.2607489-0.4470787,0.4703703-0.6930571,0.6300001c-0.107935,0.068738-0.1834898,0.1028233-0.2266645,0.1028233
	c-0.0431738,0-0.0778265-0.0124979-0.1039581-0.0380621c-0.0386295-0.0357885-0.0579443-0.0795307-0.0579443-0.1300898
	s0.0772591-0.3056269,0.232913-0.7652044l0.7129402-2.1109848c0.0778275-0.2351856,0.116457-0.4578729,0.116457-0.6674943
	c0-0.239162-0.0636253-0.4152665-0.1908751-0.5294509c-0.1278181-0.113616-0.2908573-0.1709919-0.4891176-0.1709919
	c-0.3414154,0-0.687376,0.1232734-1.036746,0.3692522c-0.6311369,0.4448066-1.2986307,1.2191-2.0024815,2.3228788
	l0.460144-1.3787298c0.0994148-0.2857442,0.1488371-0.5175209,0.1488371-0.6947622
	c0-0.1806493-0.0710096-0.328918-0.2135973-0.4448066c-0.1425886-0.1158881-0.3221016-0.1738324-0.5379725-0.1738324
	c-0.2505236,0-0.4902525,0.0579443-0.7191887,0.1738324c-0.388567,0.2028046-0.788496,0.5283146-1.1986494,0.977098
	c-0.2635889,0.2891521-0.5834184,0.7214613-0.958919,1.2969265l0.8418946-2.4478569L5.6344533,7.2128701z"/>
</svg>
