<?xml version="1.0" encoding="utf-8"?>

<!--
 ~   Copyright (c) WSO2 Inc. (http://wso2.com) All Rights Reserved.
 ~
 ~   Licensed under the Apache License, Version 2.0 (the "License");
 ~   you may not use this file except in compliance with the License.
 ~   You may obtain a copy of the License at
 ~
 ~        http://www.apache.org/licenses/LICENSE-2.0
 ~
 ~   Unless required by applicable law or agreed to in writing, software
 ~   distributed under the License is distributed on an "AS IS" BASIS,
 ~   WITHOUT WARRANTIES OR CONDITIONS OF ANY KIND, either express or implied.
 ~   See the License for the specific language governing permissions and
 ~   limitations under the License.
-->

<svg version="1.1" id="rest-service" xmlns="http://www.w3.org/2000/svg" xmlns:xlink="http://www.w3.org/1999/xlink" x="0px"
	 y="0px" viewBox="0 0 14 14" style="enable-background:new 0 0 14 14;" xml:space="preserve">
<path d="M0,7.6256318V6.3743682c0.2132496-0.0139027,0.3739171-0.0521359,0.4820025-0.1146989
	c0.1080854-0.0625634,0.2015647-0.1677041,0.2804378-0.3154225c0.0788731-0.1477189,0.1329158-0.3328013,0.1621281-0.5552483
	c0.0233698-0.1668353,0.0350547-0.4570589,0.0350547-0.8706708c0-0.6742918,0.026291-1.1443846,0.0788732-1.4102781
	s0.147522-0.479651,0.2848197-0.6412725c0.1372976-0.1616213,0.3374017-0.2893546,0.6003121-0.3831992
	C2.1018231,2.0210147,2.3822608,1.989733,2.7649415,1.989733H2.997179v1.2460499
	c-0.3242562,0-0.5323935,0.0217233-0.6244123,0.0651698C2.2807481,3.3443995,2.2128296,3.4104383,2.1690111,3.4990695
	C2.1251929,3.5877006,2.1032836,3.7397637,2.1032836,3.9552591c0,0.218971-0.0131457,0.634321-0.0394366,1.2460496
	C2.0492408,5.5454063,2.011265,5.8243337,1.9499192,6.0380912s-0.1394887,0.390151-0.2344285,0.52918
	C1.6205508,6.7063007,1.4752197,6.8505435,1.2794975,7c0.1723524,0.118175,0.3133017,0.2563353,0.4228476,0.4144812
	C1.8118912,7.5726266,1.8958764,7.7646608,1.954301,7.9905834s0.0964006,0.5283117,0.113928,0.9071655
	c0.0204484,0.576972,0.0306728,0.9453993,0.0306728,1.1052828c0,0.2293987,0.0233698,0.3892822,0.0701094,0.4796515
	c0.0467398,0.0903692,0.1175795,0.1590147,0.2125194,0.2059364c0.0949399,0.0469227,0.3001561,0.070384,0.6156485,0.070384
	v1.2512636H2.7649415c-0.3943655,0-0.6967125-0.037364-0.9070411-0.112093
	c-0.2103283-0.074728-0.3877928-0.1989851-0.5323937-0.3727722c-0.1446007-0.1737862-0.2417315-0.3884125-0.2913923-0.6438789
	C0.9844534,10.6260567,0.959623,10.2237406,0.959623,9.6745758c0-0.639535-0.0233698-1.0548849-0.0701095-1.2460499
	c-0.064267-0.278059-0.1613978-0.4770446-0.2913924-0.5969572S0.2687529,7.6430101,0,7.6256318z M14,7.6256318
	c-0.2137842,0.0139027-0.3748541,0.0521359-0.4832096,0.1146989c-0.1083565,0.0625634-0.2013378,0.1677041-0.278944,0.315423
	c-0.0776072,0.1477184-0.1325169,0.3328009-0.164731,0.5552483c-0.023428,0.1668348-0.0351429,0.4553204-0.0351429,0.8654566
	c0,0.6742916-0.0256243,1.1452541-0.0768738,1.4128847c-0.0512495,0.2676315-0.1456957,0.4822578-0.2833366,0.6438799
	c-0.1376419,0.1616211-0.3397112,0.2893543-0.6062088,0.3831987c-0.1786413,0.0625639-0.4597816,0.0938454-0.843421,0.0938454
	h-0.2328196v-1.2512636c0.3133545,0,0.5183525-0.0234613,0.614994-0.070384
	c0.0966425-0.0469217,0.1676598-0.1146984,0.2130518-0.20333c0.045393-0.0886307,0.068821-0.2389565,0.0702848-0.4509764
	c0.0014648-0.212019,0.0139112-0.6169415,0.0373392-1.2147675c0.0146427-0.3614759,0.0541782-0.6508312,0.1186066-0.8680644
	c0.0644274-0.2172332,0.1500874-0.4014468,0.2569799-0.5526409C12.4134607,7.2476459,12.5503702,7.1146994,12.7172976,7
	c-0.216713-0.1668353-0.3748541-0.3301945-0.4744244-0.490078c-0.1376419-0.2293983-0.2313557-0.5213599-0.2811403-0.8758845
	c-0.0322142-0.2433014-0.0556431-0.778564-0.0702858-1.6057878c-0.0029278-0.26068-0.0226955-0.4344666-0.0593023-0.5213599
	s-0.1025-0.1538012-0.1976776-0.2007234c-0.0951777-0.0469224-0.3082294-0.0703835-0.6391544-0.0703835V1.989733h0.2328196
	c0.3953533,0,0.6984577,0.0364952,0.9093132,0.1094856c0.2108545,0.0729904,0.388032,0.1972477,0.5315304,0.3727722
	c0.1434994,0.1755245,0.2408733,0.3910198,0.2921228,0.646486s0.0768738,0.6577821,0.0768738,1.2069478
	c0,0.6360588,0.0219641,1.0514088,0.0658922,1.2460499c0.0644283,0.2780585,0.1625347,0.4770441,0.2943192,0.5969567
	S13.7305737,6.3569899,14,6.3743682V7.6256318z M8.4452906,4.7917223L7.9114647,4.730382
	C7.8665314,4.5596318,7.7991204,4.3966222,7.7135196,4.2435203L8.050416,3.8195333L7.3604641,3.1261508L6.9391179,3.4556677
	C6.7781844,3.3612654,6.6062384,3.2893407,6.4258513,3.240571L6.3648496,2.707377H5.3896189L5.3205104,3.2403905
	C5.1354971,3.2897921,4.9594207,3.3649664,4.7945833,3.4625058L4.3578906,3.126828L3.6757019,3.8278384l0.3469617,0.4319758
	C3.9372661,4.4141579,3.8724957,4.5783634,3.82921,4.7494745L3.2710333,4.8161407l0.0020311,0.9781694l0.573591,0.0709767
	C3.8925138,6.0228124,3.9561107,6.1744022,4.0370851,6.316762L3.6750247,6.7767448L4.368114,7.4669452l0.4550858-0.3592615
	c0.1473246,0.0846982,0.3042407,0.1509805,0.4673629,0.1978998l0.0691261,0.5804291l0.978147-0.0020537l0.0690131-0.5655117
	C6.5830832,7.272634,6.7512155,7.2046137,6.9097114,7.1152439l0.4502788,0.3525138l0.6883726-0.6949396l-0.348474-0.4397845
	C7.789732,6.177381,7.8599868,6.0117087,7.90659,5.8379345l0.5387006-0.069622V4.7917223z M5.8616486,6.3153362
	c-0.562007,0-1.0176144-0.4556074-1.0176144-1.0176144S5.2996416,4.280107,5.8616486,4.280107
	s1.0176148,0.4556074,1.0176148,1.0176148S6.423656,6.3153362,5.8616486,6.3153362z M10.9053364,8.9305439l-0.407505-0.0468254
	c-0.0343008-0.1303453-0.0857601-0.2547808-0.1511049-0.3716545l0.2571754-0.323657l-0.5266867-0.5293055L9.7555733,7.9106436
	C9.6327219,7.8385801,9.5014639,7.7836752,9.3637629,7.7464461l-0.046567-0.407023H8.5727367L8.5199823,7.7463083
	C8.3787489,7.7840199,8.244338,7.8414054,8.1185064,7.915864L7.7851496,7.6596184L7.2643895,8.194747l0.2648592,0.3297558
	C7.4640589,8.6423235,7.4146152,8.7676725,7.3815722,8.8982935L6.9554787,8.9491844l0.0015502,0.7467022l0.4378605,0.0541811
	c0.035007,0.1202497,0.0835547,0.2359686,0.1453676,0.3446407l-0.2763844,0.3511362l0.5290813,0.5268764l0.3473973-0.2742491
	c0.112463,0.0646563,0.2322474,0.1152544,0.3567696,0.1510706l0.0527687,0.4430799l0.746685-0.0015669l0.0526819-0.4316931
	c0.134532-0.0349722,0.2628784-0.0868969,0.3838692-0.1551189l0.3437281,0.2690973l0.5254803-0.5304937l-0.2660131-0.3357172
	c0.0685835-0.1188202,0.1222134-0.2452888,0.1577892-0.3779421l0.4112263-0.0531473V8.9305439z M8.9330692,10.0936203
	c-0.429018,0-0.7768135-0.3477955-0.7768135-0.7768135s0.3477955-0.7768135,0.7768135-0.7768135
	s0.7768135,0.3477955,0.7768135,0.7768135S9.3620872,10.0936203,8.9330692,10.0936203z M6.2086396,9.1404152L5.887372,9.1034994
	c-0.0270414-0.1027613-0.0676107-0.2008638-0.1191273-0.293004l0.2027512-0.2551641L5.5557685,8.1380396L5.3021936,8.3363495
	C5.2053404,8.2795362,5.1018596,8.2362509,4.993299,8.2068996L4.9565868,7.8860126H4.3696728L4.3280821,8.2067909
	C4.2167373,8.2365217,4.1107707,8.281764,4.0115681,8.3404646L3.7487571,8.1384468L3.338202,8.5603294L3.5470109,8.820302
	C3.4956167,8.9131889,3.4566367,9.0120106,3.4305863,9.1149893L3.0946639,9.1551104l0.0012224,0.5886831l0.3451991,0.0427151
	c0.0275984,0.0948019,0.0658724,0.1860323,0.1146045,0.2717066L3.3377945,10.335043l0.4171152,0.4153767L4.02879,10.5342083
	c0.0886631,0.0509739,0.1830983,0.0908632,0.2812686,0.1191006l0.0416017,0.3493147l0.5886693-0.001236l0.0415335-0.3403368
	c0.1060615-0.0275717,0.2072473-0.0685072,0.3026333-0.1222925l0.270987,0.2121506l0.4142766-0.4182291l-0.2097187-0.2646713
	c0.0540695-0.0936747,0.0963502-0.1933804,0.1243973-0.2979612l0.3242011-0.0418997V9.1404152z M4.6537499,10.0573578
	c-0.3382273,0-0.6124215-0.2741947-0.6124215-0.612422s0.2741942-0.612422,0.6124215-0.612422
	c0.3382277,0,0.612422,0.2741947,0.612422,0.612422S4.9919777,10.0573578,4.6537499,10.0573578z"/>
</svg>
