<?xml version="1.0" encoding="utf-8"?>
<!-- Generator: Adobe Illustrator 22.0.1, SVG Export Plug-In . SVG Version: 6.00 Build 0)  -->
<svg version="1.1" id="ballerina-package-fill" xmlns="http://www.w3.org/2000/svg" xmlns:xlink="http://www.w3.org/1999/xlink"
	 x="0px" y="0px" viewBox="0 0 14 14" style="enable-background:new 0 0 14 14;" xml:space="preserve">
<path d="M13.6300049,3.6500244c-0.9100342-1.1700439-1.8300171-2.3300171-2.7399902-3.5100098
	C10.8099976,0.039978,10.7199707,0,10.5900269,0C8.2000122,0,5.8099976,0.0100098,3.4199829,0
	C3.2800293,0,3.1900024,0.039978,3.1099854,0.1500244C2.2000122,1.3099976,1.289978,2.460022,0.3900146,3.6199951
	C0.3400269,3.6900024,0.2999878,3.7999878,0.2999878,3.8900146V14h13.4000244V3.8300171
	C13.7000122,3.7700195,13.6699829,3.7000122,13.6300049,3.6500244z M1.539978,3.3699951
	C2.2000122,2.539978,2.8599854,1.710022,3.5200195,0.8800049c0.0299683-0.0499878,0.0999756-0.0999756,0.1599731-0.0999756
	h2.9199829v2.6899414H1.4899902C1.5100098,3.4299927,1.5200195,3.4000244,1.539978,3.3699951z M7.4000244,3.460022V0.789978
	c0.0599976,0,0.1099854-0.0099487,0.1699829-0.0099487h2.6900024c0.0700073,0,0.1699829,0.039978,0.2199707,0.0999756
	c0.6700439,0.8300171,1.3300171,1.6599731,1.9899902,2.5C12.4899902,3.4000244,12.5,3.4299927,12.5200195,3.460022H7.4000244z
	 M4.4028525,7.8209167l1.5110426,0.5785213L4.4028525,8.9778862V7.8209167z M6.6340742,10.2410641l-1.0861406,3.4589481h-1.145081
	V9.8042727l2.2312217-0.8382025V10.2410641z M6.6340742,7.8445506L4.4028525,7.0064192V4.4210525h2.2312217V7.8445506z
	 M9.5971479,13.7000122H8.4638834l-1.0861406-3.4589481V8.9660702l2.2194052,0.8382025V13.7000122z M9.5971479,8.9778862
	L8.0861044,8.3994379l1.5110435-0.5785213V8.9778862z M9.5971479,7.0064192L7.3777428,7.8445506V4.4210525h2.2194052V7.0064192z"/>
</svg>
