<?xml version="1.0" encoding="utf-8"?>

<!--
 ~   Copyright 2017, WSO2 Inc. (http://www.wso2.com)
 ~
 ~   Licensed under the Apache License, Version 2.0 (the "License");
 ~   you may not use this file except in compliance with the License.
 ~   You may obtain a copy of the License at
 ~
 ~        http://www.apache.org/licenses/LICENSE-2.0
 ~
 ~   Unless required by applicable law or agreed to in writing, software
 ~   distributed under the License is distributed on an "AS IS" BASIS,
 ~   WITHOUT WARRANTIES OR CONDITIONS OF ANY KIND, either express or implied.
 ~   See the License for the specific language governing permissions and
 ~   limitations under the License.
-->

<svg version="1.1" id="unmute" xmlns="http://www.w3.org/2000/svg" xmlns:xlink="http://www.w3.org/1999/xlink" x="0px" y="0px"
	 viewBox="0 0 14 14" style="enable-background:new 0 0 14 14;" xml:space="preserve">
<path d="M3.5,9.3999996c-1,0-2.5,0-3.5,0V4.4999995c0.9,0,2.7,0,3.5999999,0l4.1999998-3.5999999V13L3.5,9.3999996z
	 M11.3741074,2.4809551c0.1552992,0.207346,0.3116207,0.4149752,0.4509974,0.6330194
	c0.6874256,1.0754161,1.0677843,2.2530394,1.1473732,3.5262747c0.0436392,0.6981311-0.0110664,1.3897591-0.1642284,2.0730858
	c-0.2038326,0.9093914-0.5672865,1.7500257-1.0884552,2.5220156c-0.1124144,0.1665163-0.2379961,0.3240843-0.3537455,0.4884272
	l0.8538628,0.5458527c0.6348162-0.8204098,1.1084127-1.7242746,1.4116249-2.7165461
	c0.2037649-0.6668234,0.3231544-1.348608,0.3544531-2.0455017C13.9901829,7.4142175,13.995307,7.3208947,14,7.2275524
	c0-0.0885758,0-0.1771512,0-0.2657266c-0.0020618-0.027627-0.0046358-0.0552268-0.0061016-0.0828853
	c-0.0079021-0.149025-0.0131989-0.2982302-0.0236912-0.4470692c-0.0309124-0.4384785-0.1005564-0.8711734-0.2029276-1.2984576
	c-0.2325649-0.9706907-0.624155-1.8726482-1.1797466-2.7019553c-0.1335983-0.1994159-0.2775307-0.3923118-0.4240274-0.5825715
	L11.3741074,2.4809551z M10.0277195,3.7642999c0.0751534,0.1152809,0.1587191,0.2251275,0.2326145,0.3411674
	c0.514348,0.8076892,0.800024,1.6906452,0.8607693,2.6456776c0.0298386,0.4691148-0.0007143,0.9351773-0.0897751,1.397078
	c-0.1077328,0.5587406-0.297389,1.0882168-0.5679092,1.5887232c-0.1234131,0.2283335-0.2653437,0.4448481-0.4153519,0.6565552
	l0.8310165,0.5730228c0.8360167-1.1557531,1.2537899-2.4484396,1.2610073-3.8740344
	c0-0.0531259,0.0008793-0.1062708-0.0002441-0.1593728c-0.001152-0.054358-0.0041656-0.1086788-0.0065346-0.1630082
	c-0.0208015-0.4767742-0.0960951-0.9449744-0.2213631-1.4052892C11.6971598,4.5755453,11.345047,3.8526692,10.86131,3.1935668
	L10.0277195,3.7642999z M8.5972929,5.1838222c0.4307384,0.6921306,0.6120548,1.4432287,0.5372448,2.2555461
	C9.1026678,7.7854156,9.0176296,8.1183071,8.8870964,8.4399815C8.8051395,8.6419487,8.6978416,8.8306284,8.590107,9.0195656
	L9.4952755,9.473423c0.4394979-0.7323141,0.6640043-1.5245528,0.6689711-2.4318995
	c-0.003335-0.069593-0.0058088-0.1923919-0.015686-0.3145924c-0.0369978-0.457768-0.1401615-0.9003153-0.3107166-1.3270535
	c-0.1048717-0.2623911-0.2328148-0.5129185-0.383172-0.7520247L8.5972929,5.1838222z"/>
</svg>
