<?xml version="1.0" encoding="utf-8"?>

<!--
 ~   Copyright 2017, WSO2 Inc. (http://www.wso2.com)
 ~
 ~   Licensed under the Apache License, Version 2.0 (the "License");
 ~   you may not use this file except in compliance with the License.
 ~   You may obtain a copy of the License at
 ~
 ~        http://www.apache.org/licenses/LICENSE-2.0
 ~
 ~   Unless required by applicable law or agreed to in writing, software
 ~   distributed under the License is distributed on an "AS IS" BASIS,
 ~   WITHOUT WARRANTIES OR CONDITIONS OF ANY KIND, either express or implied.
 ~   See the License for the specific language governing permissions and
 ~   limitations under the License.
-->

<svg version="1.1" id="analytics-extensions" xmlns="http://www.w3.org/2000/svg" xmlns:xlink="http://www.w3.org/1999/xlink"
	 x="0px" y="0px" viewBox="0 0 14 14" style="enable-background:new 0 0 14 14;" xml:space="preserve">
<path d="M10.9442139,4.2029419h1.4644165v2.2356567c-0.1366577-0.1171265-0.2928467-0.2147827-0.4686279-0.2733154
	c-0.3416748-0.1171875-0.6931152-0.0976562-0.9957886,0.0390015V4.2029419z M13.6680908,8.6547852
	c-0.5272217-0.0097656-1.50354-0.0488281-1.6304321-0.0683594c-0.0976562-0.0097046-0.1464233-0.0487671-0.1464233-0.0975952
	c0-0.0390625,0.0195312-0.078125,0.0585327-0.1268921c0.078125-0.1171875,0.1952515-0.2245483,0.2538452-0.3515015
	c0.078125-0.1659546,0.1757202-0.3514404,0.1854858-0.5369263c0-0.0097656,0-0.0292969,0-0.0390625
	c0-0.3710327-0.2537842-0.6931763-0.6052856-0.8103638c-0.3026123-0.0975952-0.6052856-0.0390015-0.8395996,0.1464844
	c-0.0585938,0.0488281-0.1074219,0.0975952-0.156189,0.156189c-0.1269531,0.156189-0.1854858,0.3417358-0.1854858,0.5272217
	c-0.0097656,0.1757202,0.0390015,0.3416748,0.1366577,0.4978638c0.0683594,0.1074219,0.1464233,0.2050171,0.2050171,0.312439
	c0.0195312,0.0195312,0.0390625,0.0488281,0.0488281,0.0683594c0.0390625,0.0487671,0.0585327,0.0975952,0.0585327,0.1366577
	c0,0.0585938-0.0487671,0.0878906-0.1659546,0.1074219c-0.156189,0.0292358-1.6206055,0.0097046-1.6206055,0.0097046
	s0,0.4100952,0,0.8494263c0,0.0292358,0,0.0487671,0,0.078064c-0.0097656,0.4002686-0.0195312,0.8103638-0.0390625,0.9177246
	c-0.0390625,0.1757202-0.1757202,0-0.3417358-0.0878906c-0.1268921-0.0585327-0.234314-0.1268921-0.3514404-0.1952515
	c-0.2050171-0.1268921-0.4295654-0.1464233-0.6541138-0.078064c-0.3612061,0.1073608-0.5759888,0.3514404-0.6345825,0.7126465
	c-0.0097656,0.0585938-0.0195312,0.1074219-0.0195312,0.1660156c0,0.2830811,0.1268921,0.5271606,0.3612061,0.7028809
	c0.2929077,0.2148438,0.6151123,0.2440796,0.9470215,0.078125c0.1268921-0.0683594,0.2440796-0.1464233,0.3709717-0.2147827
	c0.1269531-0.0683594,0.3026733-0.2733765,0.3319702-0.1268921c0.0097656,0.0390625,0.0097656,0.4002686,0.0097656,0.8395996
	C9.2357178,12.9602661,9.2265625,14,9.2265625,14s1.0040283,0,1.6483765,0.0097656c0.0390625,0,0.0682983,0,0.0975952-0.0097656
	c0.1269531-0.0195312,0.1864624-0.1416016,0.1864624-0.2294312c0-0.0390625-0.0097656-0.078125-0.0292969-0.1269531
	c-0.078125-0.1366577-0.1854858-0.2635498-0.2440796-0.4100342c-0.078064-0.1854858-0.156189-0.3807373-0.156189-0.5662231
	c0-0.4100342,0.2929077-0.7322388,0.673645-0.829834c0.3612061-0.0976562,0.7614746,0.0585327,0.9762573,0.3709717
	c0.1074219,0.156189,0.15625,0.3319092,0.15625,0.5076904c0,0.1952515-0.0683594,0.3905029-0.1952515,0.5662231
	c-0.0976562,0.1268921-0.1855469,0.2538452-0.2538452,0.3905029c-0.0195312,0.0390625-0.0410767,0.1318359-0.0410767,0.1611328
	c-0.0097656,0.078064,0.0488281,0.1268921,0.156189,0.156189C12.2601929,14,12.3285522,14,12.3968506,14
	C12.8947754,14.0097656,14,14,14,14V8.6743164C14,8.6743164,13.8633423,8.6743164,13.6680908,8.6547852z M5.8967896,2.4553833
	l2.3528442,1.9135132l3.2315674-2.6164551l-0.0878906,1.3082275h0.9567871l0.0878296-2.7824707L9.7336426,0.1903687
	L9.645752,1.1471558l1.3082275,0.0878296L8.2496338,3.3242798L5.8967896,1.4985962L2.4993286,4.4567261l0.5271606,0.6151123
	L5.8967896,2.4553833z M8.7768555,9.4358521c0-0.4295654,0-0.8396606,0-0.8494263V8.0983276h0.4881592
	c0.0390015,0,0.078064,0,0.1171265,0V5.4721069H7.9177246v2.9874268H6.3556519V4.2029419H4.8814697v4.2565918H3.8173218V5.989502
	H2.3528442v2.4700317H0.9763184V0.0048828H0v8.4546509v0.9763184h0.9763184h1.3765259h1.4644775h1.0641479h1.4741821h1.5620728
	H8.7768555z"/>
</svg>
