<?xml version="1.0" encoding="utf-8"?>

<!--
 ~   Copyright 2017, WSO2 Inc. (http://www.wso2.com)
 ~
 ~   Licensed under the Apache License, Version 2.0 (the "License");
 ~   you may not use this file except in compliance with the License.
 ~   You may obtain a copy of the License at
 ~
 ~        http://www.apache.org/licenses/LICENSE-2.0
 ~
 ~   Unless required by applicable law or agreed to in writing, software
 ~   distributed under the License is distributed on an "AS IS" BASIS,
 ~   WITHOUT WARRANTIES OR CONDITIONS OF ANY KIND, either express or implied.
 ~   See the License for the specific language governing permissions and
 ~   limitations under the License.
-->

<svg version="1.1" id="arduino" xmlns="http://www.w3.org/2000/svg" xmlns:xlink="http://www.w3.org/1999/xlink" x="0px" y="0px"
	 viewBox="0 0 14 14" style="enable-background:new 0 0 14 14;" xml:space="preserve">
<path d="M2.5111101,6.6784101c0.69049,0,1.3525999,0,2.0329001,0c0,0.21136,0,0.4140601,0,0.6409302
	c-0.6693699,0-1.34253,0-2.0329001,0C2.5111101,7.1090102,2.5111101,6.90625,2.5111101,6.6784101z M11.1160898,10.2808199
	C9.4558697,10.50103,8.2302303,9.7844801,7.2343197,8.5402794C7.1615095,8.4492798,7.0933895,8.3544893,7.0226498,8.2617798
	c-0.0048199-0.0063496-0.01337-0.0098305-0.0296001-0.0213604c-0.20544,0.2454205-0.3979502,0.5050001-0.6201801,0.7358999
	c-1.1037693,1.1472206-2.4263394,1.6480103-3.9898696,1.1909208C0.80151,9.7048998-0.13452,8.2523203,0.01575,6.6248798
	c0.1347-1.4594097,1.36932-2.6912799,2.9024701-2.91046c1.4587998-0.2086201,2.5982099,0.3764601,3.55756,1.4134498
	C6.6563101,5.323,6.8139,5.5393701,6.9999399,5.7678199C7.4489098,5.1354299,7.96173,4.59448,8.6166401,4.2002497
	C10.4435997,3.1004,12.8241596,3.75281,13.677,5.6223798C14.75665,7.9890099,12.9323702,10.0399199,11.1160898,10.2808199z
	 M6.2466402,6.85571C6.0391798,6.5447402,5.8454599,6.2186298,5.5980201,5.9414701
	c-0.5662799-0.6339703-1.2435303-1.0785503-2.23224-1.0878301c-0.10376,0.0157499-0.3040199,0.0313101-0.4967,0.0780001
	C1.83557,5.18188,1.09351,6.1525898,1.18866,7.1187701c0.13843,1.4060102,1.5168501,2.33746,2.88379,1.9381099
	c1.0476699-0.3060904,1.6998901-1.06567,2.20508-1.9794903C6.3071299,7.0239301,6.2849102,6.9130902,6.2466402,6.85571z
	 M12.2814903,5.6248798C11.6209707,4.88342,10.5308208,4.6449599,9.6051006,5.0410199
	C8.7351007,5.4132099,8.1585703,6.08741,7.7183208,6.8954496C7.6849399,6.9567299,7.70123,7.0736098,7.7383399,7.1402001
	c0.2818599,0.5057397,0.62781,0.9625802,1.0778203,1.3330102C9.3200703,8.8880701,9.88659,9.1424599,10.5537701,9.1493607
	c0.1727896-0.0235596,0.3479004-0.0364399,0.5180702-0.0723896C12.6801796,8.7370005,13.3494301,6.82373,12.2814903,5.6248798z
	 M10.7709999,5.9850502h-0.6688204v0.68396H9.4259596v0.6750498H10.10217v0.6778603h0.6688299V7.3440599H11.45856V6.6690102
	h-0.6875601V5.9850502z"/>
</svg>
