<?xml version="1.0" encoding="utf-8"?>

<!--
 ~   Copyright 2018, WSO2 Inc. (http://www.wso2.com)
 ~
 ~   Licensed under the Apache License, Version 2.0 (the "License");
 ~   you may not use this file except in compliance with the License.
 ~   You may obtain a copy of the License at
 ~
 ~        http://www.apache.org/licenses/LICENSE-2.0
 ~
 ~   Unless required by applicable law or agreed to in writing, software
 ~   distributed under the License is distributed on an "AS IS" BASIS,
 ~   WITHOUT WARRANTIES OR CONDITIONS OF ANY KIND, either express or implied.
 ~   See the License for the specific language governing permissions and
 ~   limitations under the License.
-->

<svg version="1.1" id="ballerina-logo" xmlns="http://www.w3.org/2000/svg" xmlns:xlink="http://www.w3.org/1999/xlink" x="0px"
	 y="0px" viewBox="0 0 64.0160446 14" style="enable-background:new 0 0 64.0160446 14;" xml:space="preserve">
<path d="M6.9360609,5.7382202c1.21521-0.1966553,2.072998-1.0900879,2.072998-2.3589478
	c0-1.8406982-1.21521-3.0557251-4.0567017-3.0557251h-5.0037842v11.2584229H5.238307
	c2.6270142,0,4.1103516-1.1437378,4.1103516-3.0916138C9.3486586,6.881958,8.2942152,5.9884644,6.9360609,5.7382202z
	 M2.1288712,2.128418H4.809413c1.340332,0,1.9121704,0.6074829,1.9121704,1.4474487S6.149745,5.0055542,4.809413,5.0055542
	H2.1288712V2.128418z M4.9881849,9.7770386H2.1288712V6.7033081h2.8593137c1.3938599,0,2.072998,0.6074829,2.072998,1.5546265
	C7.061183,9.1873779,6.3820448,9.7770386,4.9881849,9.7770386z M17.3584251,9.6697388V6.5245361
	c0-2.072998-1.340332-3.0379639-3.3776865-3.0379639c-2.0908203,0-3.3238525,1.1259155-3.59198,2.7341919l1.9480591,0.1785889
	c0.1785889-0.7682495,0.6611328-1.3045044,1.5545654-1.3045044c0.911499,0,1.3760376,0.5362549,1.3760376,1.4118652v0.2322388
	l-2.1622925,0.4110718C11.2823744,7.489624,10.102809,8.1149902,10.102809,9.616272
	c0,1.3579712,1.0007935,2.1622925,2.5019531,2.1622925c1.3046265,0,2.3054199-0.607666,2.7521362-1.5369263
	c0.1607666,0.9472656,0.8399668,1.519104,1.7333994,1.519104c0.7148438,0,1.1437378-0.2324219,1.4833374-0.5005493v-1.1437378
	c-0.2322998,0.1073608-0.4468994,0.1610107-0.6611938,0.1610107C17.5728416,10.2774658,17.3584251,10.0808105,17.3584251,9.6697388z
	 M15.2674208,8.1686401c0,1.340332-0.8577881,2.1802979-1.9835205,2.1802979c-0.6970215,0-1.0900879-0.4110718-1.0900879-0.9650879
	c0-0.732666,0.6075439-0.9829712,1.5904541-1.1793823l1.4831543-0.303772V8.1686401z M31.0656395,3.4865723
	c-2.3587646,0-4.1279907,1.7871094-4.1279907,4.2711182c0,2.4839478,1.7512207,4.0386963,4.1816406,4.0386963
	c2.0195312,0,3.4133301-1.0543823,3.8063965-2.8414307l-1.7333984-0.1786499
	c-0.3037109,0.9292603-0.9470825,1.3938599-2.0015259,1.3938599c-1.1615601,0-2.072937-0.7863159-2.1444702-2.0730591h5.9152832
	V7.4181519C34.9615746,5.2736816,33.6390038,3.4865723,31.0656395,3.4865723z M29.082119,6.9712524
	c0.125-1.0542603,0.7863159-1.9120483,1.9656982-1.9120483c1.1973877,0,1.7870483,0.8934326,1.822876,1.9120483H29.082119z
	 M40.7022362,3.4865723c0.4824219,0,0.8756104,0.1251831,1.1079102,0.3215942l-0.1607666,2.0015259
	c-0.4110718-0.2322998-0.7684937-0.3394165-1.2866821-0.3394165c-1.1080933,0-1.8585815,0.7861328-1.8585815,2.2157593v3.8959351
	h-2.1444702V3.7010498h2.1444702v1.5010986C38.7900658,4.3085327,39.6120262,3.4865723,40.7022362,3.4865723z M42.7128563,0.3235474
	h2.1981812v2.0908203h-2.1981812V0.3235474z M42.7486839,3.7010498h2.1444702v7.8809204h-2.1444702V3.7010498z
	 M54.2538719,6.6674805v4.9144897h-2.1444702V7.0963745c0-1.21521-0.4825439-1.9119873-1.5369873-1.9119873
	c-1.0900269,0-1.769043,0.8577271-1.769043,2.1801147v4.2174683h-2.1444702V3.7010498h2.1444702v1.2866821
	c0.3930664-0.8936157,1.3938599-1.5011597,2.5733643-1.5011597C53.4854393,3.4865723,54.2538719,4.9162598,54.2538719,6.6674805z
	 M63.3308983,10.2774658c-0.3395996,0-0.5540161-0.1966553-0.5540161-0.6077271V6.5245361
	c0-2.072998-1.3401489-3.0379639-3.3775635-3.0379639c-2.0907593,0-3.3239746,1.1259155-3.5919189,2.7341919l1.947876,0.1785889
	c0.1785889-0.7682495,0.6611328-1.3045044,1.5547485-1.3045044c0.9112549,0,1.3760376,0.5362549,1.3760376,1.4118652v0.2322388
	l-2.1623535,0.4110718C56.7008324,7.489624,55.52145,8.1149902,55.52145,9.616272
	c0,1.3579712,1.0007935,2.1622925,2.5018921,2.1622925c1.3045044,0,2.3052979-0.607666,2.7520142-1.5369263
	c0.1607666,0.9472656,0.8399658,1.519104,1.7333984,1.519104c0.7148438,0,1.1437378-0.2324219,1.4832764-0.5005493v-1.1437378
	C63.7597923,10.2238159,63.5453148,10.2774658,63.3308983,10.2774658z M60.6860619,8.1686401
	c0,1.340332-0.8578491,2.1802979-1.9837036,2.1802979c-0.6968384,0-1.0900879-0.4110718-1.0900879-0.9650879
	c0-0.732666,0.6075439-0.9829712,1.5904541-1.1793823l1.4833374-0.303772V8.1686401z M19.5073509,0h2.7219238v4.291626
	l-2.7219238-1.0409546V0z M21.370388,4.980835l-1.8630371,0.7124634V4.2683716L21.370388,4.980835z M19.5073509,6.7109375
	l2.7219238-1.0409546v1.5745239l-1.3231812,4.3374634h-1.3987427V6.7109375z M23.1725121,0h2.7219238v3.2506714L23.1725121,4.291626
	V0z M24.0313988,4.980835l1.8630371-0.7124634v1.4249268L24.0313988,4.980835z M23.1725121,5.6699829l2.7219238,1.0409546v4.8710327
	h-1.3987427l-1.3231812-4.3374634V5.6699829z"/>
</svg>
