<?xml version="1.0" encoding="utf-8"?>

<!--
 ~   Copyright 2018, WSO2 Inc. (http://www.wso2.com)
 ~
 ~   Licensed under the Apache License, Version 2.0 (the "License");
 ~   you may not use this file except in compliance with the License.
 ~   You may obtain a copy of the License at
 ~
 ~        http://www.apache.org/licenses/LICENSE-2.0
 ~
 ~   Unless required by applicable law or agreed to in writing, software
 ~   distributed under the License is distributed on an "AS IS" BASIS,
 ~   WITHOUT WARRANTIES OR CONDITIONS OF ANY KIND, either express or implied.
 ~   See the License for the specific language governing permissions and
 ~   limitations under the License.
-->

<svg version="1.1" id="ballerina-logo" xmlns="http://www.w3.org/2000/svg" xmlns:xlink="http://www.w3.org/1999/xlink" x="0px"
	 y="0px" viewBox="0 0 76 14" style="enable-background:new 0 0 76 14;" xml:space="preserve">
<path d="M8.3,6.8c1.4-0.2,2.5-1.3,2.5-2.8c0-2.2-1.4-3.6-4.8-3.6H0v13.4h6.3c3.1,0,4.9-1.4,4.9-3.7C11.2,8.2,9.9,7.1,8.3,6.8z
	 M2.6,2.5h3.2C7.4,2.5,8,3.2,8,4.2c0,1-0.7,1.7-2.3,1.7H2.6V2.5z M6,11.6H2.6V8H6c1.7,0,2.5,0.7,2.5,1.8C8.4,10.9,7.6,11.6,6,11.6z
	 M20.7,11.5V7.7c0-2.5-1.6-3.6-4-3.6c-2.5,0-3.9,1.3-4.3,3.2l2.3,0.2C14.9,6.7,15.5,6,16.5,6c1.1,0,1.6,0.6,1.6,1.7V8l-2.6,0.5
	c-2.2,0.4-3.6,1.1-3.6,2.9c0,1.6,1.2,2.6,3,2.6c1.5,0,2.7-0.7,3.3-1.8c0.2,1.1,1,1.8,2.1,1.8c0.8,0,1.4-0.3,1.8-0.6V12
	c-0.3,0.1-0.5,0.2-0.8,0.2C20.9,12.2,20.7,12,20.7,11.5z M18.2,9.7c0,1.6-1,2.6-2.4,2.6c-0.8,0-1.3-0.5-1.3-1.1
	c0-0.9,0.7-1.2,1.9-1.4l1.8-0.4V9.7z M36.9,4.1c-2.8,0-4.9,2.1-4.9,5.1c0,2.9,2.1,4.8,5,4.8c2.4,0,4.1-1.3,4.5-3.4l-2.1-0.2
	c-0.4,1.1-1.1,1.7-2.4,1.7c-1.4,0-2.5-0.9-2.5-2.5h7V8.8C41.6,6.3,40,4.1,36.9,4.1z M34.6,8.3C34.7,7,35.5,6,36.9,6
	c1.4,0,2.1,1.1,2.2,2.3H34.6z M48.4,4.1c0.6,0,1,0.1,1.3,0.4l-0.2,2.4C49,6.6,48.6,6.5,48,6.5c-1.3,0-2.2,0.9-2.2,2.6v4.6h-2.5V4.4
	h2.5v1.8C46.1,5.1,47.1,4.1,48.4,4.1z M50.8,0.4h2.6v2.5h-2.6V0.4z M50.8,4.4h2.5v9.4h-2.5V4.4z M64.4,7.9v5.8h-2.5V8.4
	c0-1.4-0.6-2.3-1.8-2.3c-1.3,0-2.1,1-2.1,2.6v5h-2.5V4.4H58v1.5c0.5-1.1,1.7-1.8,3.1-1.8C63.5,4.1,64.4,5.8,64.4,7.9z M75.2,12.2
	c-0.4,0-0.7-0.2-0.7-0.7V7.7c0-2.5-1.6-3.6-4-3.6c-2.5,0-3.9,1.3-4.3,3.2l2.3,0.2C68.8,6.7,69.4,6,70.5,6c1.1,0,1.6,0.6,1.6,1.7V8
	l-2.6,0.5C67.4,8.9,66,9.6,66,11.4c0,1.6,1.2,2.6,3,2.6c1.5,0,2.7-0.7,3.3-1.8c0.2,1.1,1,1.8,2.1,1.8c0.8,0,1.4-0.3,1.8-0.6V12
	C75.7,12.1,75.5,12.2,75.2,12.2z M72.1,9.7c0,1.6-1,2.6-2.4,2.6c-0.8,0-1.3-0.5-1.3-1.1c0-0.9,0.7-1.2,1.9-1.4l1.8-0.4V9.7z M23.2,0
	h3.2v5.1l-3.2-1.2V0z M25.4,5.9l-2.2,0.8V5.1L25.4,5.9z M23.2,8l3.2-1.2v1.9l-1.6,5.1h-1.7V8z M27.6,0h3.2v3.9l-3.2,1.2V0z
	 M28.6,5.9l2.2-0.8v1.7L28.6,5.9z M27.6,6.7L30.8,8v5.8h-1.7l-1.6-5.1V6.7z"/>
</svg>
