<?xml version="1.0" encoding="utf-8"?>

<!--
 ~   Copyright 2017, WSO2 Inc. (http://www.wso2.com)
 ~
 ~   Licensed under the Apache License, Version 2.0 (the "License");
 ~   you may not use this file except in compliance with the License.
 ~   You may obtain a copy of the License at
 ~
 ~        http://www.apache.org/licenses/LICENSE-2.0
 ~
 ~   Unless required by applicable law or agreed to in writing, software
 ~   distributed under the License is distributed on an "AS IS" BASIS,
 ~   WITHOUT WARRANTIES OR CONDITIONS OF ANY KIND, either express or implied.
 ~   See the License for the specific language governing permissions and
 ~   limitations under the License.
-->

<svg version="1.1" id="bug" xmlns="http://www.w3.org/2000/svg" xmlns:xlink="http://www.w3.org/1999/xlink" x="0px" y="0px"
	 viewBox="0 0 14 14" style="enable-background:new 0 0 14 14;" xml:space="preserve">
<path d="M2.199646,0.3766448C2.1981812,0.0520598,2.3995361-0.057071,2.7027588,0.0498015
	c1.2942505,0.4205322,2.5234985,1.616394,3.0482788,2.9945068c0.3725586-0.199707,0.7870483-0.3205566,1.2301025-0.3294067
	v-0.005188c0.0065308,0,0.0123291,0.0025024,0.0188599,0.0025635c0.0065308-0.000061,0.0123291-0.0025635,0.0188599-0.0025635
	v0.005188c0.4430542,0.0088501,0.8575439,0.1296997,1.2301025,0.3294067
	c0.5247803-1.3781129,1.7540283-2.5739746,3.0482788-2.9945068c0.3032227-0.1068726,0.5045776,0.0022583,0.5031128,0.3268433
	c-0.0014038,0.324646-0.2032471,0.3237305-0.4055786,0.4310913C10.182312,1.1268889,9.1955566,2.0855682,8.887085,3.3826263
	C8.868042,3.4191864,8.8654175,3.4557464,8.8675537,3.4926116c0.6000366,0.5689085,0.9047852,1.3925779,0.9006348,2.3191526
	l0.0091553,0.2914429c-0.9447632-0.0042114-4.6099243-0.0042114-5.5546875,0l0.0091553-0.2914429
	C4.2276611,4.8851895,4.5324097,4.0615201,5.1324463,3.4926116C5.1345825,3.4557464,5.131958,3.4191864,5.112915,3.3826263
	C4.8044434,2.0855682,3.817688,1.1268889,2.6052246,0.8077361C2.4028931,0.7003753,2.2010498,0.7012908,2.199646,0.3766448z
	 M13.5949707,9.3740816c-1.0529175-0.4544067-1.3140869-0.5690308-2.3670044-1.0234985
	c-0.1519775-0.0614014-0.2032471-0.0438843-0.3996582,0.0939331c-0.0258179,0.0186768-0.0646362,0.043335-0.0933228,0.0633545
	c0.0006714-0.1509399,0.0013428-0.3076782,0.0018921-0.4307251c0.0007935-0.1882329,0.1005859-0.2819219,0.2996826-0.3751836
	c0.4976196-0.1859741,1.0941162-0.2774658,1.5916748-0.463501c0.1206055-0.0513306,0.2468262-0.1765747,0.2993164-0.2810059
	c0.3010254-0.6575317,0.5214844-1.4289551,0.9326172-2.286377c0.1005859-0.2818604,0.0730591-0.4387207-0.2246094-0.5341187
	c-0.2976074-0.09552-0.3986816,0.0718384-0.4992676,0.3537598c-0.2012329,0.5638428-0.5013428,1.2418213-0.7025757,1.8056641
	c-0.0626221,0.1812134-0.0893555,0.222168-0.2992554,0.2810059c-0.3978271,0.0924072-0.8760986,0.1876831-1.2739868,0.2799683
	c-0.1296997,0.039917-0.1246948-0.0933228-0.1246948-0.0946045c0.000061-0.0946045-0.0470581-0.1828613-0.1496582-0.1889648
	c-0.0558472-0.0032959-7.116394-0.0032959-7.1722412,0C3.3112793,6.5798917,3.2641602,6.6681485,3.2642212,6.762753
	c0,0.0012817,0.0050049,0.1345215-0.1246948,0.0946045c-0.3978882-0.0922852-0.8761597-0.187561-1.2739868-0.2799683
	C1.6556396,6.5185513,1.6289062,6.4775968,1.5662842,6.2963834C1.3650513,5.7325406,1.0649414,5.0545621,0.8637085,4.4907193
	C0.7631226,4.2087979,0.6620483,4.0414395,0.3644409,4.1369596C0.0667725,4.2323575,0.0392456,4.3892179,0.1398315,4.6710782
	c0.4111328,0.8574219,0.6315918,1.6288452,0.9326172,2.286377C1.124939,7.0618863,1.2511597,7.1871305,1.3717651,7.238461
	c0.4975586,0.1860352,1.0940552,0.2775269,1.5916748,0.463501c0.1990967,0.0932617,0.2988892,0.1869507,0.2996826,0.3751836
	c0.0005493,0.1230469,0.0012207,0.2797852,0.0018921,0.4307251C3.2363281,8.4878511,3.1975098,8.4631929,3.1716919,8.4445162
	C2.9752808,8.3066988,2.9240112,8.2891817,2.7720337,8.3505831C1.7191162,8.8050508,1.4579468,8.9196749,0.4050293,9.3740816
	c-0.3691406,0.1238403-0.4172974,0.3933105-0.2536011,0.642334c0.1091919,0.1660156,0.1793213,0.3743286,0.6661377,0.1565552
	c0.8956909-0.3510132,1.5529785-0.7176514,1.9191895-0.8480225c0.1109619-0.0529175,0.2133789-0.1157837,0.347229-0.0371704
	C3.1528931,9.3297091,3.230957,9.3861055,3.303772,9.4342623c0.0177612,0.1540527,0.0391846,0.31604,0.0617065,0.4047241
	c0.0383911,0.1515503,0.0582275,0.1850586,0.0809326,0.2399902c-0.4337158,0.1935425-0.9074707,0.4122314-1.2248535,0.5325317
	c-0.2230225,0.0883789-0.2658691,0.1216431-0.2980347,0.2823486c-0.1986694,1.1294556-0.2485962,1.4017944-0.4472656,2.53125
	c-0.0993652,0.3764648,0.0993652,0.5647583,0.3973999,0.5647583c0.1987305,0,0.3973999-0.1882935,0.4967651-0.4706421
	c0.1987305-0.9412231,0.149231-1.1193848,0.3479004-2.0606079c0.0167236-0.1218262,0.0205078-0.2419434,0.159668-0.3106079
	c0.2504272-0.1185913,0.5457764-0.2364502,0.8353882-0.3544312c0.3380127,0.7735596,0.8528442,1.4661865,1.5577393,1.9807739
	c0.5709839,0.4465942,1.1600342,0.633667,1.7293701,0.647644v0.0027466c0.0046387-0.000061,0.0093384-0.0012817,0.0139771-0.0014038
	c0.0015869,0.000061,0.0031738,0.0004883,0.0047607,0.0004883v-0.0009155
	c0.5689697-0.0140381,1.1387329-0.2019653,1.7096558-0.6485596c0.704895-0.5145874,1.2197266-1.2072144,1.5577393-1.9807739
	c0.2896118,0.117981,0.5849609,0.2358398,0.8353882,0.3544312c0.1391602,0.0686646,0.1429443,0.1887817,0.159668,0.3106079
	c0.1986694,0.9412231,0.1491699,1.1193848,0.3479004,2.0606079c0.0993652,0.2823486,0.2980347,0.4706421,0.4967651,0.4706421
	c0.2980347,0,0.4967651-0.1882935,0.3973999-0.5647583c-0.1986694-1.1294556-0.2485962-1.4017944-0.4472656-2.53125
	c-0.0321655-0.1607056-0.0750122-0.1939697-0.2980347-0.2823486c-0.3173828-0.1203003-0.7911377-0.3389893-1.2248535-0.5325317
	c0.0227051-0.0549316,0.0425415-0.0884399,0.0809326-0.2399902c0.022522-0.0886841,0.0439453-0.2506714,0.0617065-0.4047241
	c0.0728149-0.0481567,0.1508789-0.1045532,0.2197876-0.1464844c0.1338501-0.0786133,0.2362671-0.0157471,0.347229,0.0371704
	c0.3662109,0.1303711,1.0234985,0.4970093,1.9191895,0.8480225c0.4868164,0.2177734,0.5569458,0.0094604,0.6661377-0.1565552
	C14.0122681,9.7673922,13.9641113,9.4979219,13.5949707,9.3740816z"/>
</svg>
