<?xml version="1.0" encoding="utf-8"?>

<!--
 ~   Copyright 2017, WSO2 Inc. (http://www.wso2.com)
 ~
 ~   Licensed under the Apache License, Version 2.0 (the "License");
 ~   you may not use this file except in compliance with the License.
 ~   You may obtain a copy of the License at
 ~
 ~        http://www.apache.org/licenses/LICENSE-2.0
 ~
 ~   Unless required by applicable law or agreed to in writing, software
 ~   distributed under the License is distributed on an "AS IS" BASIS,
 ~   WITHOUT WARRANTIES OR CONDITIONS OF ANY KIND, either express or implied.
 ~   See the License for the specific language governing permissions and
 ~   limitations under the License.
-->

<svg width="14" height="14" xmlns="http://www.w3.org/2000/svg" xmlns:svg="http://www.w3.org/2000/svg">
 <g>
  <title>Layer 1</title>
  <path id="svg_1" d="m7,1c3.4,0 6,2.6 6,6s-2.6,6 -6,6s-6,-2.6 -6,-6s2.6,-6 6,-6zm0,-1c-3.9,0 -7,3.1 -7,7s3.1,7 7,7s7,-3.1 7,-7s-3.1,-7 -7,-7l0,0z" fill="black"/>
  <path fill="black" d="m2.5,7c0,-2.48619 2.01381,-4.5 4.5,-4.5c2.48619,0 4.5,2.01381 4.5,4.5c0,2.48619 -2.01381,4.5 -4.5,4.5c-2.48619,0 -4.5,-2.01381 -4.5,-4.5z" id="svg_2"/>
 </g>

</svg>
