<?xml version="1.0" encoding="utf-8"?>

<!--
 ~   Copyright 2017, WSO2 Inc. (http://www.wso2.com)
 ~
 ~   Licensed under the Apache License, Version 2.0 (the "License");
 ~   you may not use this file except in compliance with the License.
 ~   You may obtain a copy of the License at
 ~
 ~        http://www.apache.org/licenses/LICENSE-2.0
 ~
 ~   Unless required by applicable law or agreed to in writing, software
 ~   distributed under the License is distributed on an "AS IS" BASIS,
 ~   WITHOUT WARRANTIES OR CONDITIONS OF ANY KIND, either express or implied.
 ~   See the License for the specific language governing permissions and
 ~   limitations under the License.
-->

<svg version="1.1" id="compare" xmlns="http://www.w3.org/2000/svg" xmlns:xlink="http://www.w3.org/1999/xlink" x="0px" y="0px"
	 viewBox="0 0 14 14" style="enable-background:new 0 0 14 14;" xml:space="preserve">
<path d="M8.6168451,8.9202652v1.1760254L7.9768553,9.6002941l-1.632031-1.2640133l1.632031-1.3680177l0.6399899-0.5359864v1.3120117
	l2.3439941,0.008008l0.008008,1.1679688H8.6168451z M9.0297279,9.2949247v1.3120117l-2.3359866,0.008008l-0.008008,1.1680174
	h2.3439946v1.1759768l2.2799797-1.7600098L9.0297279,9.2949247z M10.4164791,0H4.8094969v2h0.9600101V0.9600098h4.3589845V3.047998
	h2.0879879v7.1919923h-1.4375l1.1520023,0.9600096h1.2455072V2.6080079L10.4164791,0z M8.7354736,13.2479982v-0.8560057H7.967505
	v0.6479979H1.7834717V3.7600098H5.879468v2.0879884h2.088037v0.3760252L8.927515,5.4160156v-0.008008L6.1755128,2.8H0.8235108V14
	h7.9142089l-0.0022459-0.1040039V13.2479982z"/>
</svg>
