<?xml version="1.0" encoding="utf-8"?>

<!--
 ~   Copyright 2018, WSO2 Inc. (http://www.wso2.com)
 ~
 ~   Licensed under the Apache License, Version 2.0 (the "License");
 ~   you may not use this file except in compliance with the License.
 ~   You may obtain a copy of the License at
 ~
 ~        http://www.apache.org/licenses/LICENSE-2.0
 ~
 ~   Unless required by applicable law or agreed to in writing, software
 ~   distributed under the License is distributed on an "AS IS" BASIS,
 ~   WITHOUT WARRANTIES OR CONDITIONS OF ANY KIND, either express or implied.
 ~   See the License for the specific language governing permissions and
 ~   limitations under the License.
-->

<svg version="1.1" id="composer" xmlns="http://www.w3.org/2000/svg" xmlns:xlink="http://www.w3.org/1999/xlink" x="0px" y="0px"
	 viewBox="0 0 64.9530029 14.0009069" style="enable-background:new 0 0 64.9530029 14.0009069;" xml:space="preserve">
<path d="M6.140564,8.3097448l1.1162109,0.1220703L7.2489014,8.5179968c-0.182251,1.9765625-1.5145874,3.2043457-3.4772949,3.2043457
	C1.515625,11.7223425,0,10.1391516,0,7.7825847s1.515625-3.9397583,3.7716064-3.9397583
	c1.9480591,0,3.2791748,1.2153931,3.4735107,3.1717529l0.0089111,0.0900879L6.1373291,7.1857829L6.1289062,7.1005168
	c-0.1401367-1.3925171-1.0338745-2.223999-2.3909912-2.223999c-1.4865723,0-2.4853516,1.1677856-2.4853516,2.9060669
	s0.9987793,2.9061275,2.4853516,2.9061275c1.3682861,0,2.2633667-0.855957,2.3944092-2.2897339L6.140564,8.3097448z
	 M14.7687988,6.3662028c0.1226196,0.4628296,0.1841431,0.9348145,0.1841431,1.4163818
	c0,0.4816279-0.0615234,0.953918-0.1841431,1.4164424c-0.1227417,0.4628296-0.3236084,0.8760376-0.6019287,1.239502
	c-0.2787476,0.3636475-0.6444702,0.6585083-1.0978394,0.8851318c-0.4532471,0.2267456-1.0056763,0.3400879-1.6571655,0.3400879
	c-0.6516113,0-1.2040405-0.1133423-1.6572876-0.3400879c-0.4532471-0.2266235-0.8192749-0.5214844-1.0976562-0.8851318
	c-0.2786865-0.3634644-0.4794922-0.7766724-0.6021118-1.239502C7.9320679,8.7365026,7.8706665,8.2642126,7.8706665,7.7825847
	c0-0.4815674,0.0614014-0.9535522,0.1841431-1.4163818c0.1226196-0.4625244,0.3234253-0.8758545,0.6021118-1.2393799
	C8.9353027,4.7633586,9.3013306,4.4681315,9.7545776,4.241569c0.4532471-0.2266235,1.0056763-0.3399658,1.6572876-0.3399658
	c0.6514893,0,1.2039185,0.1133423,1.6571655,0.3399658c0.4533691,0.2265625,0.8190918,0.5217896,1.0978394,0.8852539
	C14.4451904,5.4903483,14.6460571,5.9036784,14.7687988,6.3662028z M13.6357422,7.7825847
	c0-0.7142334-0.0899658-1.2734985-0.2692871-1.6775513c-0.1795044-0.4040527-0.3918457-0.7049561-0.6373291-0.9023438
	c-0.2457275-0.1973877-0.4910889-0.3170776-0.7365723-0.359375c-0.2455444-0.0422974-0.4389648-0.0635986-0.5806885-0.0635986
	c-0.1416626,0-0.3352661,0.0213013-0.5807495,0.0635986c-0.2457275,0.0422974-0.4910889,0.1619873-0.7366333,0.359375
	c-0.2456665,0.1973877-0.4580078,0.498291-0.6373291,0.9023438c-0.1795044,0.4040527-0.269104,0.9633179-0.269104,1.6775513
	c0,0.714416,0.0895996,1.2735591,0.269104,1.6776118c0.1793213,0.4042358,0.3916626,0.7049561,0.6373291,0.9023438
	c0.2455444,0.1973877,0.4909058,0.3173828,0.7366333,0.3596802c0.2454834,0.0422974,0.4390869,0.0632324,0.5807495,0.0632324
	c0.1417236,0,0.335144-0.0209351,0.5806885-0.0632324c0.2454834-0.0422974,0.4908447-0.1622925,0.7365723-0.3596802
	c0.2454834-0.1973877,0.4578247-0.4981079,0.6373291-0.9023438C13.5457764,9.0561438,13.6357422,8.4970007,13.6357422,7.7825847z
	 M26.567627,5.0206218c-0.151123-0.302124-0.3823853-0.5641479-0.6939087-0.7861328
	c-0.3117065-0.2218018-0.741394-0.3328857-1.2890015-0.3328857c-0.3777466,0-0.7059937,0.0543823-0.984375,0.1628418
	c-0.2786865,0.1086426-0.5169678,0.2432861-0.7153931,0.4036865c-0.1982422,0.1606445-0.3636475,0.3282471-0.4957275,0.5027466
	c-0.1323853,0.1748657-0.2315674,0.3328857-0.2974243,0.4745483c-0.0474854-0.1887817-0.1229248-0.3753052-0.2266235-0.5594482
	c-0.1040039-0.1841431-0.2386475-0.3492432-0.4036865-0.4957275c-0.1654053-0.1463013-0.3660889-0.2642212-0.6019897-0.354187
	c-0.2362061-0.0895386-0.5099487-0.1344604-0.8215332-0.1344604c-0.2267456,0-0.4511108,0.0306396-0.6729126,0.09198
	c-0.2219849,0.0615845-0.4319458,0.1511841-0.6303711,0.269104c-0.1982422,0.1182861-0.3777466,0.2598267-0.538147,0.4250488
	c-0.1607666,0.1652222-0.288147,0.3517456-0.3823853,0.5594482l0.0140991-0.0848999v-0.977478h-1.246521v7.1955562h1.246521
	V7.0884929c0-0.3491821,0.0494995-0.6677856,0.1487427-0.9559937c0.0991821-0.2879639,0.2359009-0.53125,0.4107666-0.7294922
	c0.1746826-0.1982422,0.3775635-0.3516235,0.6091309-0.4603271c0.2312622-0.1084595,0.4744263-0.1629639,0.7293701-0.1629639
	c0.2833862,0,0.5146484,0.0591431,0.6940918,0.177063c0.1791992,0.1181641,0.3208618,0.2715454,0.4248657,0.4603271
	c0.1038818,0.1890869,0.1746826,0.4060669,0.2125244,0.6516113c0.0376587,0.2457275,0.0567627,0.5006714,0.0567627,0.7649536
	v4.5466914h1.2463379V7.0884929c0-0.4625244,0.059021-0.8426514,0.177124-1.1401367
	c0.1179199-0.2974243,0.269104-0.5333252,0.4532471-0.7081909c0.1841431-0.1746826,0.3895874-0.2950439,0.6162109-0.3612671
	c0.2266235-0.065979,0.4437866-0.0991821,0.6514893-0.0991821c0.3209839,0,0.5737305,0.0708618,0.7578735,0.2125244
	s0.3232422,0.3165283,0.4177856,0.5240479c0.0942383,0.2078857,0.1533813,0.4298706,0.177124,0.6657715
	c0.0233765,0.2360229,0.0354004,0.4485474,0.0354004,0.6373291v4.5609736h1.2463989V6.734489
	c0-0.1982422-0.0165405-0.4578857-0.0495605-0.7790527C26.810791,5.6343913,26.7186279,5.3228679,26.567627,5.0206218z
	 M35.5054932,6.0403361c0.1700439,0.4910889,0.2549438,1.0718994,0.2549438,1.7422485
	c0,0.6989131-0.0897217,1.2938228-0.269043,1.7847285c-0.1795044,0.4910278-0.4202271,0.892334-0.7223511,1.2041016
	c-0.3024292,0.3115234-0.6469727,0.538147-1.0339966,0.6798096c-0.3873901,0.1416626-0.7840576,0.2125244-1.1898193,0.2125244
	c-0.0756226,0-0.2102661-0.0096436-0.4036865-0.0283813c-0.1936035-0.019104-0.4085693-0.0732422-0.6444702-0.1629639
	c-0.2362061-0.0897827-0.4744873-0.2216797-0.7153931-0.3965454c-0.2407227-0.1746826-0.4415283-0.4177856-0.6019897-0.7294922
	v3.654541h-1.246521V4.1848063h1.1616211v0.9915771h0.0424805c0.1793213-0.2737427,0.3753052-0.4932861,0.5878296-0.6586914
	c0.2123413-0.1651001,0.4248657-0.2950439,0.6373901-0.3894653c0.2125244-0.0943604,0.4177856-0.1559448,0.6160278-0.1841431
	c0.1984253-0.0283813,0.3775635-0.0424805,0.5383301-0.0424805c0.4437866,0,0.8615723,0.0756836,1.2536011,0.2266235
	c0.3916626,0.151123,0.7365723,0.3848267,1.0340576,0.7011719C35.1019287,5.1457438,35.3356323,5.5494914,35.5054932,6.0403361z
	 M34.4432373,7.7825847c0-0.925354-0.1889648-1.6572876-0.5665283-2.1954346
	C33.4987793,5.04882,32.9559937,4.779716,32.2478027,4.779716c-0.1607666,0-0.3636475,0.0307617-0.6091919,0.0921631
	c-0.2455444,0.0615234-0.4816284,0.1959839-0.7081909,0.4036865c-0.2266235,0.2077026-0.4226685,0.512207-0.5878906,0.9135132
	c-0.1652222,0.4014893-0.2477417,0.9420776-0.2477417,1.6218872c0,0.5572505,0.0708008,1.0247188,0.2123413,1.4023433
	c0.1416626,0.3777466,0.3234253,0.6846313,0.5453491,0.9205322c0.2218018,0.2362671,0.4625244,0.4036865,0.7225342,0.5029297
	c0.2595825,0.0991821,0.5073853,0.1486816,0.7435913,0.1486816c0.2550049,0,0.5073853-0.0494995,0.7577515-0.1486816
	c0.2501831-0.0992432,0.4767456-0.2642822,0.6798096-0.4957275c0.203064-0.2313843,0.3682861-0.5383301,0.4959106-0.9207153
	C34.3794556,8.8379431,34.4432373,8.3587561,34.4432373,7.7825847z M43.8764038,6.3662028
	c0.1226196,0.4628296,0.1841431,0.9348145,0.1841431,1.4163818c0,0.4816279-0.0615234,0.953918-0.1841431,1.4164424
	c-0.1227417,0.4628296-0.3235474,0.8760376-0.6019287,1.239502c-0.2787476,0.3636475-0.6444092,0.6585083-1.0978394,0.8851318
	c-0.453186,0.2267456-1.0056763,0.3400879-1.6571045,0.3400879c-0.6516724,0-1.2041016-0.1133423-1.6573486-0.3400879
	c-0.453186-0.2266235-0.8192749-0.5214844-1.0975952-0.8851318c-0.2787476-0.3634644-0.4795532-0.7766724-0.6021729-1.239502
	c-0.1227417-0.4625244-0.1841431-0.9348145-0.1841431-1.4164424c0-0.4815674,0.0614014-0.9535522,0.1841431-1.4163818
	c0.1226196-0.4625244,0.3234253-0.8758545,0.6021729-1.2393799c0.2783203-0.3634644,0.6444092-0.6586914,1.0975952-0.8852539
	c0.4532471-0.2266235,1.0056763-0.3399658,1.6573486-0.3399658c0.6514282,0,1.2039185,0.1133423,1.6571045,0.3399658
	c0.4534302,0.2265625,0.8190918,0.5217896,1.0978394,0.8852539C43.5528564,5.4903483,43.7536621,5.9036784,43.8764038,6.3662028z
	 M42.7433472,7.7825847c0-0.7142334-0.0899048-1.2734985-0.2692261-1.6775513
	c-0.1795044-0.4040527-0.3918457-0.7049561-0.6373901-0.9023438c-0.2457275-0.1973877-0.4910278-0.3170776-0.7365723-0.359375
	S40.6611938,4.779716,40.5195312,4.779716c-0.1417236,0-0.3352661,0.0213013-0.5808105,0.0635986
	c-0.2457275,0.0422974-0.4910889,0.1619873-0.7365723,0.359375c-0.2457275,0.1973877-0.4580688,0.498291-0.6373901,0.9023438
	c-0.1795044,0.4040527-0.269104,0.9633179-0.269104,1.6775513c0,0.714416,0.0895996,1.2735591,0.269104,1.6776118
	c0.1793213,0.4042358,0.3916626,0.7049561,0.6373901,0.9023438c0.2454834,0.1973877,0.4908447,0.3173828,0.7365723,0.3596802
	c0.2455444,0.0422974,0.4390869,0.0632324,0.5808105,0.0632324c0.1416626,0,0.335083-0.0209351,0.5806274-0.0632324
	s0.4908447-0.1622925,0.7365723-0.3596802c0.2455444-0.1973877,0.4578857-0.4981079,0.6373901-0.9023438
	C42.6534424,9.0561438,42.7433472,8.4970007,42.7433472,7.7825847z M50.5953979,7.8604655
	c-0.2321167-0.1463013-0.5046387-0.2642212-0.8171997-0.3540039c-0.312439-0.0897217-0.6535645-0.177063-1.0228882-0.2620239
	c-0.2558594-0.0567627-0.5044556-0.1109009-0.7460327-0.1630249c-0.2417603-0.0517578-0.4547729-0.1203613-0.6394043-0.2052612
	c-0.1846924-0.085144-0.331543-0.203064-0.4405518-0.354187c-0.1088257-0.151001-0.1633301-0.3540039-0.1633301-0.6090088
	c0-0.2833862,0.071167-0.5029297,0.2133789-0.6586914c0.142395-0.1557617,0.3012085-0.269104,0.4768066-0.3399048
	c0.1751709-0.0708618,0.343689-0.1109009,0.5049438-0.1203613c0.1611328-0.0092773,0.2608643-0.0142822,0.2988281-0.0142822
	c0.3604126,0,0.6495972,0.0474243,0.8677979,0.1416626c0.2182007,0.0946045,0.3864746,0.2102661,0.505127,0.3469849
	c0.1186523,0.1370239,0.1990967,0.2786865,0.2419434,0.4250488c0.0426025,0.1464844,0.0687866,0.2714844,0.078186,0.3753052
	h1.1898193c-0.0189209-0.1982422-0.0661621-0.4224243-0.1414795-0.6727905
	c-0.0758057-0.2501831-0.2175293-0.4862061-0.4250488-0.7081909c-0.2078857-0.2218018-0.4981079-0.4083862-0.8710327-0.5595093
	c-0.373291-0.1509399-0.8665771-0.2266235-1.4802246-0.2266235c-0.3306274,0-0.6564331,0.0332031-0.977417,0.0990601
	c-0.3210449,0.0662231-0.6138306,0.177124-0.8781128,0.3328857c-0.2644653,0.1557617-0.4769287,0.3682861-0.6373901,0.6373291
	C45.5713501,5.2401652,45.491272,5.573051,45.491272,5.9695354c0,0.3779297,0.0608521,0.6870728,0.1831055,0.9277344
	c0.1218872,0.2409058,0.2860718,0.4368896,0.4926147,0.5878906c0.2062988,0.151123,0.4454956,0.269043,0.7176514,0.354187
	c0.2723389,0.0848999,0.5584717,0.1605835,0.8588257,0.2266231l0.7601318,0.1698608
	c0.347168,0.085083,0.621521,0.1724243,0.8234253,0.2620239c0.2018433,0.0899048,0.3543701,0.1841431,0.4573364,0.2833252
	c0.1031494,0.0992432,0.166748,0.2032471,0.1901855,0.3115845c0.0235596,0.1086426,0.0352173,0.2195435,0.0352173,0.3328857
	c0,0.0758057-0.007019,0.1890869-0.0209961,0.3400879c-0.0142212,0.151123-0.0726929,0.3022461-0.1758423,0.453186
	c-0.1030273,0.1511841-0.2668457,0.2832031-0.4917603,0.3964844c-0.2247314,0.1133423-0.5435181,0.1700439-0.9556274,0.1700439
	c-0.234375,0-0.4663086-0.0259399-0.6958618-0.0778809c-0.2294922-0.0517578-0.4354858-0.1392212-0.6182861-0.2620239
	c-0.1829224-0.1225586-0.3302612-0.2833252-0.442688-0.4815674c-0.1124878-0.1982422-0.1733398-0.4391479-0.1826172-0.7224731
	h-1.2463989c0.0092773,0.3306274,0.0801392,0.642334,0.2123413,0.9349976
	c0.1322632,0.2927856,0.3305054,0.5501709,0.5949097,0.7717896c0.2642822,0.2219849,0.5925293,0.3966675,0.9844971,0.5241089
	c0.3917236,0.1275635,0.8569946,0.1913452,1.3953247,0.1913452c0.0565186,0,0.1674194-0.0050049,0.3328247-0.0142822
	c0.1651001-0.0094604,0.3587036-0.0378418,0.5806274-0.0849609c0.2218018-0.0474243,0.4532471-0.118103,0.6941528-0.2124634
	c0.2407227-0.0942383,0.4602661-0.2288818,0.6586914-0.4037476c0.1982422-0.1744995,0.3632812-0.3916626,0.4956665-0.6514282
	c0.1320801-0.2596436,0.1982422-0.5784302,0.1982422-0.9561768c0-0.3682861-0.0639648-0.6704102-0.1918945-0.9064331
	C51.0072021,8.1981726,50.8273315,8.0069494,50.5953979,7.8604655z M59.3014526,8.0659704h-5.538269
	c0,0.3115234,0.0424194,0.6280518,0.1273804,0.9489136c0.085083,0.321167,0.2171631,0.6115723,0.3966675,0.8712158
	c0.1793213,0.2597656,0.4129639,0.4745483,0.7011719,0.6444092c0.2879639,0.1700439,0.6395874,0.2549438,1.0551758,0.2549438
	c0.2926025,0,0.5570679-0.0400391,0.793335-0.1203003c0.2359009-0.0801392,0.4365234-0.1888428,0.6019287-0.3258667
	c0.1650391-0.1368408,0.2974243-0.2950439,0.3966675-0.4745483c0.098999-0.1791382,0.1674805-0.3682861,0.2052612-0.5665283
	h1.1898193c-0.0473022,0.2550049-0.1344604,0.5218506-0.2620239,0.8002319
	c-0.1273804,0.2786865-0.3115234,0.5336914-0.5524292,0.7649536c-0.2407227,0.2313843-0.5502319,0.4227905-0.9277954,0.5737305
	c-0.3777466,0.1508179-0.8452148,0.2266235-1.4022827,0.2266235c-0.5949097,0-1.0976562-0.0805054-1.5084229-0.2409058
	s-0.7506714-0.3658447-1.0199585-0.6160278c-0.269043-0.2501831-0.4793701-0.5263062-0.6303101-0.8287354
	c-0.151123-0.302124-0.2620239-0.5949097-0.3328857-0.8781128c-0.0706177-0.2833252-0.1132812-0.5405273-0.1273804-0.7719727
	c-0.0140991-0.2312622-0.0213013-0.4037471-0.0213013-0.5170283c0-0.1604004,0.0092773-0.3705444,0.0283203-0.6303101
	c0.0189209-0.2596436,0.06604-0.5333862,0.1417236-0.8215332c0.0754395-0.2879639,0.1887817-0.5783691,0.3399048-0.8712158
	c0.1509399-0.2924805,0.3564453-0.5570679,0.6162109-0.7931519c0.2596436-0.2359009,0.5828857-0.427063,0.9702759-0.5737305
	c0.3870239-0.1461792,0.8591309-0.2194214,1.4163818-0.2194214c0.7175293,0,1.2912598,0.1251831,1.7209473,0.3753662
	c0.4296875,0.2503662,0.7601318,0.56427,0.9915771,0.9418945c0.2312012,0.3777466,0.3870239,0.7910767,0.4674683,1.2393188
	c0.0801392,0.4487305,0.1296387,0.8665161,0.1487427,1.2536011c0,0.0567017,0.0021973,0.1156616,0.007019,0.177063
	C59.2990112,7.9504313,59.3014526,8.0092077,59.3014526,8.0659704z M57.9842529,7.187675
	c-0.0096436-0.2359009-0.0426636-0.4956665-0.0992432-0.7790527c-0.0567017-0.2833252-0.1582031-0.5453491-0.3045044-0.7860718
	c-0.1464844-0.2409058-0.3471069-0.4413452-0.6021118-0.6019287c-0.2548218-0.1606445-0.5854492-0.2409058-0.991394-0.2409058
	c-0.4532471,0-0.8264771,0.0828857-1.1189575,0.2479248c-0.2928467,0.1652222-0.5220337,0.3707275-0.6870728,0.6160278
	c-0.1652222,0.2457275-0.276123,0.5077515-0.3328857,0.7863159c-0.0565796,0.2785034-0.0848999,0.5310669-0.0848999,0.7576904
	H57.9842529z M64.5847168,3.9157023c-0.2549438,0.0094604-0.5053101,0.0519409-0.7506714,0.1274414
	c-0.2456665,0.0758057-0.4745483,0.1818848-0.6870728,0.3187866c-0.2125244,0.1370239-0.4014282,0.3068848-0.5665283,0.5099487
	c-0.1654053,0.203064-0.2904053,0.4368896-0.3753052,0.7011719h-0.0283813V4.1848063h-1.246582v7.1955562h1.246582V8.0659704
	c0-0.1322627,0-0.2596431,0-0.3825679c0-0.1226196,0.0046387-0.25,0.0140991-0.3823853
	c0.0283813-0.4532471,0.1109009-0.8356323,0.2479248-1.1473389c0.1368408-0.3115845,0.3209839-0.5665283,0.5524292-0.7647705
	c0.2312622-0.1984253,0.5099487-0.3447266,0.8356323-0.4391479c0.3258057-0.0944214,0.7011719-0.1509399,1.1261597-0.1700439
	V3.9016032L64.5847168,3.9157023z"/>
</svg>
