<?xml version="1.0" encoding="utf-8"?>

<!--
 ~   Copyright 2017, WSO2 Inc. (http://www.wso2.com)
 ~
 ~   Licensed under the Apache License, Version 2.0 (the "License");
 ~   you may not use this file except in compliance with the License.
 ~   You may obtain a copy of the License at
 ~
 ~        http://www.apache.org/licenses/LICENSE-2.0
 ~
 ~   Unless required by applicable law or agreed to in writing, software
 ~   distributed under the License is distributed on an "AS IS" BASIS,
 ~   WITHOUT WARRANTIES OR CONDITIONS OF ANY KIND, either express or implied.
 ~   See the License for the specific language governing permissions and
 ~   limitations under the License.
-->

<svg version="1.1" id="data-mapper" xmlns="http://www.w3.org/2000/svg" xmlns:xlink="http://www.w3.org/1999/xlink" x="0px" y="0px"
	 viewBox="0 0 14 14" style="enable-background:new 0 0 14 14;" xml:space="preserve">
<path d="M11.1025248,4.7808552v4.2744732H14V4.7808552H11.1025248z M13.6750612,8.7330837h-2.2475977V5.1030998
	h2.2475977V8.7330837z M9.7187586,5.9100585l1.0100708,1.0913053L9.6781492,8.089941L9.4452715,7.8651781l0.6905193-0.7175922
	L9.1311417,7.153007V6.8307624l0.9911127-0.0054212L9.4804592,6.1294007L9.7187586,5.9100585z M8.5083208,6.5843315
	c-0.0216684-0.0704093-0.04603-0.1381073-0.0785246-0.203095c-0.016263-0.0433197-0.0379143-0.0866561-0.0622931-0.127265
	l0.0622931-0.0785408l0.2030954-0.2599511l-0.2030954-0.203095L8.1264925,5.4117918L7.7934222,5.6744699
	C7.6851149,5.6121926,7.5686593,5.5634351,7.4495096,5.5282474L7.4007688,5.1030998L6.6831765,5.1058106L6.6317253,5.5201159
	c-0.1272817,0.0324936-0.2518358,0.0839453-0.365581,0.1489329l-0.3303599-0.257257L5.6406126,5.7096744L5.4321127,5.9181905
	l0.2084999,0.2626615l0.0460467,0.0595665C5.6704121,6.2675076,5.6541653,6.2972913,5.6406126,6.3270745
	C5.5972929,6.416441,5.5620885,6.5085177,5.5350156,6.6032887L5.3156738,6.6330719L5.1396513,6.6547403v0.1895585v0.3222446
	v0.203095l0.1760225,0.0216517l0.2166309,0.0243783C5.5593777,7.515861,5.5945821,7.6106486,5.6406126,7.7027087
	c0.0108423,0.0216684,0.021668,0.0460305,0.0352044,0.0676985L5.6406126,7.8137436L5.4294024,8.0818262l0.2112103,0.2112103
	l0.2951717,0.2951717l0.3087082-0.2410097C6.3609319,8.4176073,6.4881968,8.469059,6.6181889,8.5042629l0.04603,0.3899431h0.7121878
	l0.0514512-0.3899431c0.135397-0.0352039,0.2653723-0.089366,0.384522-0.1624861l0.3195343,0.2464314l0.2978821-0.3032875
	l0.2030954-0.2085161L8.4297962,7.8245692L8.3783455,7.7595816c0.0189409-0.0352044,0.0351877-0.0704088,0.0514507-0.1056132
	c0.037899-0.0812349,0.0676985-0.1651802,0.0893497-0.2545466l0.235589-0.0270724l0.1733122-0.0216684V7.1557012V6.8334565
	V6.6357827L8.754735,6.6141148L8.5083208,6.5843315z M7.0324941,7.7433343c-0.3520284,0-0.6472001-0.2437205-0.7230139-0.5713863
	C6.3067698,7.1692543,6.3067698,7.1638331,6.3067698,7.158412c-0.0135365-0.0514517-0.0189576-0.1056137-0.0189576-0.159759
	c0-0.0514512,0.0054212-0.1029029,0.0162468-0.1489496c0-0.0054045,0-0.0108256,0.0027108-0.0135365
	c0.0731196-0.3330703,0.3709855-0.5821953,0.7257242-0.5821953c0.3520279,0,0.6471996,0.2437038,0.7230134,0.5740805
	c0.0027103,0.0027103,0.0027103,0.0081148,0.0027103,0.013536c0.0135365,0.0487409,0.0189576,0.1029029,0.0189576,0.1570649
	c0,0.0514512-0.0054212,0.1029029-0.0162468,0.1516438c0,0.0054045-0.0027108,0.0108256-0.0027108,0.0135365
	C7.6824045,7.4969034,7.3872323,7.7433343,7.0324941,7.7433343z M8.4297962,8.5746717l0.3249388-0.333087v3.2136889H5.3156738
	V8.2551212l0.3249388,0.3276663v2.5502415h2.7891836V8.5746717z M5.6406126,5.4199233L5.3156738,5.7475891V2.7825866H8.754735
	v2.9676967L8.4297962,5.4280386V3.1048312H5.6406126V5.4199233z M3.956286,6.8524141l0.9802704-0.0054049v0.3222451
	L3.9698224,7.1746588l0.6417789,0.6959405L4.373302,8.089941L3.3659587,6.9986529l1.0479689-1.0885944l0.2328782,0.2247634
	L3.956286,6.8524141z M0,9.0553284h2.897475V5.1030998H0V9.0553284z M0.3249387,5.4253445h2.2475975v3.3077393H0.3249387V5.4253445z
	"/>
</svg>
