<?xml version="1.0" encoding="utf-8"?>

<!--
 ~   Copyright 2017, WSO2 Inc. (http://www.wso2.com)
 ~
 ~   Licensed under the Apache License, Version 2.0 (the "License");
 ~   you may not use this file except in compliance with the License.
 ~   You may obtain a copy of the License at
 ~
 ~        http://www.apache.org/licenses/LICENSE-2.0
 ~
 ~   Unless required by applicable law or agreed to in writing, software
 ~   distributed under the License is distributed on an "AS IS" BASIS,
 ~   WITHOUT WARRANTIES OR CONDITIONS OF ANY KIND, either express or implied.
 ~   See the License for the specific language governing permissions and
 ~   limitations under the License.
-->

<svg version="1.1" id="devices" xmlns="http://www.w3.org/2000/svg" xmlns:xlink="http://www.w3.org/1999/xlink" x="0px" y="0px"
	 viewBox="0 0 14 14" style="enable-background:new 0 0 14 14;" xml:space="preserve">
<path d="M13.3,2.3c0,0-1.1,0-1.5,0c0,0.3,0,0.5,0,0.7c0.2,0,0.7,0,0.7,0l0,7.1l-11.2,0l0-7.1c0,0,0.7,0,0.9,0c0-0.3,0-0.5,0-0.7
	c-0.2,0-1.7,0-1.7,0v9.8l1.3,0h4.2v0.9H3.7l0,1.1h6.6v-1.1H7.8l0-0.9l5.6,0V2.3z M7,10.7c0.3,0,0.4,0.2,0.4,0.5
	c0,0.3-0.2,0.5-0.5,0.5c-0.3,0-0.4-0.2-0.4-0.5C6.5,10.9,6.7,10.7,7,10.7z M7.9,6.8l3.3,0c0,0,0-2.1,0-2.8c0-0.7,0-2.8,0-2.8l-3.3,0
	L7.9,6.8z M9.5,6.5c-0.2,0-0.3-0.2-0.3-0.3c0-0.2,0.1-0.3,0.3-0.3c0.2,0,0.3,0.1,0.3,0.3C9.8,6.4,9.7,6.5,9.5,6.5z M10.6,1.8
	c0,0,0,2.8,0,3.9c0,0,0,0,0,0c-0.7,0-1.5,0-2.2,0c0-0.1,0-0.1,0-0.2c0-1,0-3.7,0-3.7L10.6,1.8z M3,8.4l5.9,0l0-1.1H3.6l0-6.6l5.3,0
	L9,0L3,0L3,8.4z M6,7.5c0.2,0,0.3,0.1,0.3,0.3C6.3,8,6.2,8.2,6,8.2C5.8,8.2,5.7,8,5.7,7.9C5.7,7.7,5.8,7.5,6,7.5z"/>
</svg>
