<?xml version="1.0" encoding="utf-8"?>

<!--
 ~   Copyright 2017, WSO2 Inc. (http://www.wso2.com)
 ~
 ~   Licensed under the Apache License, Version 2.0 (the "License");
 ~   you may not use this file except in compliance with the License.
 ~   You may obtain a copy of the License at
 ~
 ~        http://www.apache.org/licenses/LICENSE-2.0
 ~
 ~   Unless required by applicable law or agreed to in writing, software
 ~   distributed under the License is distributed on an "AS IS" BASIS,
 ~   WITHOUT WARRANTIES OR CONDITIONS OF ANY KIND, either express or implied.
 ~   See the License for the specific language governing permissions and
 ~   limitations under the License.
-->

<svg version="1.1" id="github" xmlns="http://www.w3.org/2000/svg" xmlns:xlink="http://www.w3.org/1999/xlink" x="0px" y="0px"
	 viewBox="0 0 14 14" style="enable-background:new 0 0 14 14;" xml:space="preserve">
<path d="M13.1,3.7c-0.6-1.1-1.5-1.9-2.5-2.5C9.4,0.5,8.3,0.2,7,0.2c-1.3,0-2.4,0.3-3.5,0.9C2.4,1.7,1.6,2.6,0.9,3.7
	C0.3,4.7,0,5.9,0,7.2c0,1.5,0.4,2.9,1.3,4.1c0.9,1.2,2,2.1,3.4,2.5c0.2,0,0.3,0,0.4-0.1c0.1-0.1,0.1-0.2,0.1-0.3c0,0,0-0.2,0-0.5
	c0-0.3,0-0.6,0-0.8l-0.2,0c-0.1,0-0.3,0-0.5,0c-0.2,0-0.4,0-0.6-0.1c-0.2,0-0.4-0.1-0.6-0.3c-0.2-0.1-0.3-0.3-0.4-0.6l-0.1-0.2
	c-0.1-0.1-0.2-0.3-0.3-0.5c-0.1-0.2-0.3-0.3-0.4-0.3l-0.1,0c0,0-0.1-0.1-0.1-0.1c0,0-0.1-0.1-0.1-0.1c0,0,0-0.1,0-0.1s0.1,0,0.3,0
	l0.2,0c0.1,0,0.3,0.1,0.5,0.2c0.2,0.1,0.3,0.3,0.4,0.5c0.1,0.2,0.3,0.4,0.5,0.6c0.2,0.1,0.4,0.2,0.6,0.2c0.2,0,0.4,0,0.5,0
	c0.1,0,0.3-0.1,0.4-0.1c0.1-0.4,0.2-0.7,0.4-0.9c-0.3,0-0.7-0.1-0.9-0.2C4.5,10,4.2,9.9,3.9,9.7C3.6,9.6,3.4,9.4,3.2,9.1
	C3,8.9,2.8,8.6,2.7,8.2C2.6,7.8,2.5,7.3,2.5,6.8c0-0.7,0.2-1.4,0.7-1.9C3,4.4,3.1,3.8,3.3,3.1c0.2-0.1,0.4,0,0.8,0.1
	c0.3,0.1,0.6,0.3,0.8,0.4C5,3.6,5.2,3.7,5.2,3.8C5.8,3.6,6.4,3.6,7,3.6s1.2,0.1,1.8,0.2l0.3-0.2c0.2-0.1,0.5-0.3,0.8-0.4
	C10.3,3,10.5,3,10.7,3.1c0.3,0.7,0.3,1.3,0.1,1.9c0.5,0.5,0.7,1.1,0.7,1.9c0,0.5-0.1,1-0.2,1.4c-0.1,0.4-0.3,0.7-0.5,1
	c-0.2,0.2-0.4,0.4-0.7,0.6C9.8,9.9,9.5,10,9.2,10.1c-0.3,0.1-0.6,0.1-0.9,0.2c0.3,0.3,0.5,0.7,0.5,1.3v1.9c0,0.1,0,0.2,0.1,0.3
	c0.1,0.1,0.2,0.1,0.4,0.1c1.4-0.5,2.6-1.3,3.4-2.5c0.9-1.2,1.3-2.6,1.3-4.1C14,5.9,13.7,4.7,13.1,3.7z"/>
</svg>
