<?xml version="1.0" encoding="utf-8"?>

<!--
 ~   Copyright 2017, WSO2 Inc. (http://www.wso2.com)
 ~
 ~   Licensed under the Apache License, Version 2.0 (the "License");
 ~   you may not use this file except in compliance with the License.
 ~   You may obtain a copy of the License at
 ~
 ~        http://www.apache.org/licenses/LICENSE-2.0
 ~
 ~   Unless required by applicable law or agreed to in writing, software
 ~   distributed under the License is distributed on an "AS IS" BASIS,
 ~   WITHOUT WARRANTIES OR CONDITIONS OF ANY KIND, either express or implied.
 ~   See the License for the specific language governing permissions and
 ~   limitations under the License.
-->

<svg version="1.1" id="google-docs" xmlns="http://www.w3.org/2000/svg" xmlns:xlink="http://www.w3.org/1999/xlink" x="0px"
	 y="0px" viewBox="0 0 14 14" style="enable-background:new 0 0 14 14;" xml:space="preserve">
<path d="M7.6,3.3V0H2.3C2.1,0,2,0.1,2,0.3v13.4C2,13.9,2.1,14,2.3,14h9.5c0.2,0,0.3-0.1,0.3-0.3V4.2H8.5C8,4.2,7.6,3.8,7.6,3.3z
	 M7.4,11.6H4.2v-0.7h3.2V11.6z M9.8,9.8H4.2V9.2h5.6V9.8z M9.8,8.1H4.2V7.4h5.6V8.1z M9.8,6.4H4.2V5.7h5.6V6.4z M8.2,3.3V0.7l3,2.8
	H8.5C8.4,3.5,8.2,3.4,8.2,3.3z"/>
</svg>
