<?xml version="1.0" encoding="utf-8"?>

<!--
 ~   Copyright 2017, WSO2 Inc. (http://www.wso2.com)
 ~
 ~   Licensed under the Apache License, Version 2.0 (the "License");
 ~   you may not use this file except in compliance with the License.
 ~   You may obtain a copy of the License at
 ~
 ~        http://www.apache.org/licenses/LICENSE-2.0
 ~
 ~   Unless required by applicable law or agreed to in writing, software
 ~   distributed under the License is distributed on an "AS IS" BASIS,
 ~   WITHOUT WARRANTIES OR CONDITIONS OF ANY KIND, either express or implied.
 ~   See the License for the specific language governing permissions and
 ~   limitations under the License.
-->

<svg version="1.1" id="is-connector" xmlns="http://www.w3.org/2000/svg" xmlns:xlink="http://www.w3.org/1999/xlink" x="0px"
	 y="0px" viewBox="0 0 14 14" style="enable-background:new 0 0 14 14;" xml:space="preserve">
<path d="M13.5705566,0.1008301H11.041626c-0.190918,0-0.3817749,0-0.3817749,0v6.6802368H14V0.1008301H13.5705566z
	 M13.6182861,3.2977905H11.041626V2.9638062h2.5766602V3.2977905z M13.6182861,2.6774902H11.041626V2.3911743h2.5766602V2.6774902z
	 M13.6182861,2.1525879H11.041626V1.866333h2.5766602V2.1525879z M13.6182861,1.5800171H11.041626V1.2937012h2.5766602V1.5800171z
	 M13.6182861,1.0074463H11.041626V0.7211304h2.5766602V1.0074463z M11.041626,7.4205322c-0.190918,0-0.3817749,0-0.3817749,0
	v6.6802979H14V7.4205322h-0.4294434H11.041626z M13.6182861,10.6175537H11.041626v-0.3340454h2.5766602V10.6175537z
	 M13.6182861,9.9971924H11.041626V9.7109375h2.5766602V9.9971924z M13.6182861,9.4723511H11.041626V9.1860352h2.5766602V9.4723511z
	 M13.6182861,8.8997192H11.041626V8.6134644h2.5766602V8.8997192z M13.6182861,8.3271484H11.041626V8.0408325h2.5766602V8.3271484z
	 M8.90625,0.2712402L9.6105957,1.161499c-2.0054932-0.0958862-3.9414062,0.8335571-5.111084,2.4743042H0.0008545L0,9.3699341
	h9.1453857l0.0007935-5.7341309H5.2541504c1.0383911-1.2272949,2.588501-1.9262695,4.1986084-1.8867188L8.7177734,2.4025879
	l0.3984375,0.4482422l1.5244141-1.3544922l-1.2636719-1.597168L8.90625,0.2712402z M8.4924927,8.7166748H0.6533203
	l0.0007935-4.4275513h7.8392334L8.4924927,8.7166748z M9.3740234,11.1193848l1.2626953,1.5976562l-1.5244141,1.3544922
	l-0.3984375-0.4492188l0.7380371-0.6555176c-0.0463257,0.0010376-0.0910034,0.0109863-0.1374512,0.0109863
	c-1.6171875,0-3.1274414-0.6396484-4.2529297-1.8017578c-0.0187988-0.0194702-0.0346069-0.0412598-0.0531006-0.0609741H2.2471924
	v-0.6686401h0.6686401V9.5953979h3.3431396v0.8510132h0.6685791v0.6686401H5.9133911
	c0.9552612,0.8035278,2.1344604,1.2631226,3.401062,1.2631226c0.0919189,0,0.1807251-0.0170288,0.2720947-0.0216675
	l-0.6832275-0.8640747L9.3740234,11.1193848z"/>
</svg>
