<?xml version="1.0" encoding="utf-8"?>

<!--
 ~   Copyright 2017, WSO2 Inc. (http://www.wso2.com)
 ~
 ~   Licensed under the Apache License, Version 2.0 (the "License");
 ~   you may not use this file except in compliance with the License.
 ~   You may obtain a copy of the License at
 ~
 ~        http://www.apache.org/licenses/LICENSE-2.0
 ~
 ~   Unless required by applicable law or agreed to in writing, software
 ~   distributed under the License is distributed on an "AS IS" BASIS,
 ~   WITHOUT WARRANTIES OR CONDITIONS OF ANY KIND, either express or implied.
 ~   See the License for the specific language governing permissions and
 ~   limitations under the License.
-->

<svg version="1.1" id="jaggery" xmlns="http://www.w3.org/2000/svg" xmlns:xlink="http://www.w3.org/1999/xlink" x="0px" y="0px"
	 viewBox="0 0 14 14" style="enable-background:new 0 0 14 14;" xml:space="preserve">
<path d="M1.0867251,9.4471512H0V8.1504393h1.0867251V9.4471512z M3.6989052,4.4944577v4.4053302
	c0,0.5790863-0.0379729,0.9882441-0.1129694,1.2265234C3.50999,10.3645916,3.3647437,10.5506582,3.1492476,10.685462
	c-0.2154963,0.1338549-0.4898503,0.2012568-0.8240118,0.2012568c-0.1205637,0-0.2496717-0.0113916-0.3873234-0.0322771
	c-0.1386011-0.0218344-0.2876446-0.0531616-0.4480801-0.0968304L1.6996326,9.730444
	c0.0569593,0.0113926,0.1110706,0.0208855,0.1604354,0.0275307c0.0503141,0.0075951,0.0968308,0.0113916,0.1395503,0.0113916
	c0.1224626,0,0.2230908-0.0265808,0.3018845-0.0797424C2.3802967,9.6374111,2.43156,9.5738058,2.4581411,9.4997587
	C2.4837728,9.4247627,2.496114,9.2026215,2.496114,8.8314362V4.4944577H3.6989052z M2.496114,3.8778732V2.7647929h1.2027912
	v1.1130803H2.496114z M5.8567142,5.8818922L4.7649941,5.6849079c0.1224623-0.4395361,0.3341613-0.7651539,0.6341472-0.976378
	c0.2990365-0.2112241,0.7442684-0.3165989,1.3356962-0.3165989c0.5363669,0,0.9360313,0.0636048,1.1980443,0.1903391
	c0.2629628,0.1272092,0.4480805,0.2885938,0.5544047,0.4836798c0.1072731,0.1955605,0.1604347,0.5544043,0.1604347,1.0770059
	L8.6353807,7.5470033c0,0.3996649,0.0189857,0.6939549,0.0579081,0.8838191
	C8.7312622,8.6206865,8.8034105,8.824791,8.9087849,9.0412369H7.7192845
	c-0.0313277-0.0797434-0.07025-0.1984091-0.1158175-0.3550472c-0.0199356-0.0711985-0.0341754-0.1186647-0.0427194-0.141449
	c-0.2060027,0.199358-0.4252963,0.3493509-0.6588297,0.4490299C6.6674356,9.0943985,6.4177637,9.1437635,6.1519537,9.1437635
	c-0.4680161,0-0.8363528-0.1272097-1.1059604-0.3806782C4.7763858,8.508667,4.6406326,8.1877956,4.6406326,7.7995229
	c0-0.2563167,0.0617061-0.4855781,0.1841688-0.6868343c0.1234117-0.2012563,0.295239-0.3555212,0.5164309-0.4623199
	C5.5624247,6.5430951,5.8813968,6.4495869,6.2981491,6.369844c0.5619988-0.1058497,0.951221-0.2041044,1.1686158-0.2957139
	V5.9545155c0-0.2311602-0.0569596-0.3958673-0.1718273-0.494597C7.1810188,5.3616638,6.9655228,5.3122988,6.6493983,5.3122988
	c-0.2145467,0-0.3816276,0.0422449-0.5012422,0.1262598C6.0285416,5.5225739,5.9307613,5.6706681,5.8567142,5.8818922z
	 M7.4667649,6.8577952C7.3120251,6.909059,7.0689988,6.9707646,6.7348375,7.0419641
	C6.4006763,7.113163,6.182332,7.1829381,6.0798049,7.2517643C5.9222178,7.3628349,5.8443732,7.5042839,5.8443732,7.6761112
	c0,0.1680298,0.0626554,0.3132763,0.1879659,0.4357386c0.1253104,0.1234121,0.2857461,0.1841688,0.4794078,0.1841688
	c0.2173948,0,0.4243469-0.0711994,0.6208568-0.2135973c0.145246-0.108223,0.2411275-0.241128,0.286695-0.3987155
	c0.0313277-0.1025267,0.0474663-0.2976127,0.0474663-0.5862064V6.8577952z M9.7233038,9.3412218l1.3736687,0.1670809
	c0.0227842,0.1594868,0.0759459,0.2696075,0.1585369,0.3294153c0.1139193,0.0854387,0.2942905,0.1281586,0.5392151,0.1281586
	c0.3142262,0,0.5496578-0.0465174,0.7072449-0.141449c0.1053753-0.0626554,0.1851177-0.1642332,0.2392292-0.3037834
	c0.0370235-0.099679,0.0560102-0.2838478,0.0560102-0.5525055V8.3045626
	c-0.3597927,0.4907999-0.8135691,0.7366743-1.3613281,0.7366743c-0.6113634,0-1.0945683-0.2582159-1.4515133-0.7746477
	C9.7043171,7.8583808,9.5647669,7.350019,9.5647669,6.7419782c0-0.7618313,0.183219-1.3442402,0.5496578-1.7467527
	c0.3673878-0.4020381,0.8230619-0.6032944,1.3679733-0.6032944c0.5619984,0,1.0262165,0.2468238,1.3917055,0.7404714V4.4944577H14
	v4.0797124c0,0.5373163-0.0446186,0.9379301-0.132905,1.2037401c-0.0882874,0.2648611-0.2126484,0.473712-0.3721342,0.6246538
	c-0.1604357,0.1509428-0.3730841,0.2696075-0.639843,0.3550472c-0.2677088,0.0863876-0.6047182,0.1291075-1.0129271,0.1291075
	c-0.7708492,0-1.3176594-0.1319561-1.6394796-0.3958673c-0.3227692-0.2648611-0.4841537-0.5990219-0.4841537-1.0043831
	C9.7185574,9.4465971,9.7204561,9.3981819,9.7233038,9.3412218z M10.7979364,6.6736269
	c0,0.4822559,0.0930338,0.8354034,0.2800503,1.0594435s0.4177017,0.3360605,0.6911058,0.3360605
	c0.2942905,0,0.5430126-0.1139188,0.7452183-0.3446045c0.2031546-0.2287865,0.3037834-0.5700679,0.3037834-1.0209956
	c0-0.4708638-0.0968313-0.8202147-0.290493-1.0485263c-0.1946106-0.228312-0.4395361-0.3427057-0.7366743-0.3427057
	c-0.2885933,0-0.5259237,0.11202-0.7129402,0.33606S10.7979364,6.2141552,10.7979364,6.6736269z"/>
</svg>
