<?xml version="1.0" encoding="utf-8"?>

<!--
 ~   Copyright 2017, WSO2 Inc. (http://www.wso2.com)
 ~
 ~   Licensed under the Apache License, Version 2.0 (the "License");
 ~   you may not use this file except in compliance with the License.
 ~   You may obtain a copy of the License at
 ~
 ~        http://www.apache.org/licenses/LICENSE-2.0
 ~
 ~   Unless required by applicable law or agreed to in writing, software
 ~   distributed under the License is distributed on an "AS IS" BASIS,
 ~   WITHOUT WARRANTIES OR CONDITIONS OF ANY KIND, either express or implied.
 ~   See the License for the specific language governing permissions and
 ~   limitations under the License.
-->

<svg version="1.1" id="javaee" xmlns="http://www.w3.org/2000/svg" xmlns:xlink="http://www.w3.org/1999/xlink" x="0px" y="0px"
	 viewBox="0 0 14 14" style="enable-background:new 0 0 14 14;" xml:space="preserve">
<path d="M3.6594822,7.431705c0,0-0.5840001-1.256-0.563-2.1739998
	c0.016-0.6560001,1.3429999-1.3050005,1.8639998-2.2460005c0.52-0.9419999-0.0650001-1.8589998-0.0650001-1.8589998
	s0.1300001,0.677-0.217,1.376c-0.3460002,0.6999998-1.6259997,1.1109998-2.1239998,2.319
	C2.0564823,6.0547047,3.6594822,7.431705,3.6594822,7.431705z M5.8494821,3.6147046c0,0-1.9939997,0.8460002-1.9939997,1.8120003
	c0,0.967,0.5409997,1.2799997,0.6289999,1.5939999c0.0869999,0.3150001-0.152,0.8460002-0.152,0.8460002
	s0.7800002-0.6030002,0.6500001-1.3049998c-0.1300001-0.6999998-0.737-0.9180002-0.3899999-1.618
	C4.824482,4.4747047,5.8494821,3.6147046,5.8494821,3.6147046z M3.4434824,8.7077045
	c1.8429999-0.073,2.5149999-0.7209997,2.5149999-0.7209997c-1.1920004,0.3619995-4.3569999,0.3379993-4.3789997,0.073
	c-0.021-0.2659998,0.9749999-0.4829998,0.9749999-0.4829998s-1.5599999,0-1.691,0.4339991
	C0.7334822,8.4457045,1.6024823,8.7797041,3.4434824,8.7077045z M6.1094823,9.7267046c0,0,1.8039999-0.4289999,1.625-1.5209999
	c-0.2160001-1.329-1.474-0.5799999-1.474-0.5799999s0.8899999,0,0.9759998,0.6029997
	C7.323482,8.8327045,6.1094823,9.7267046,6.1094823,9.7267046z M5.2214823,9.1467047c0,0-0.454,0.1339998-1.1279998,0.2180004
	C3.1904824,9.4767046,2.0994823,9.3877039,2.0114822,9.2187042C1.9264823,9.0497046,2.1634824,8.9537048,2.1634824,8.9537048
	c-1.084,0.29-0.4909999,0.7959995,0.78,0.8929996C4.0324821,9.9297047,5.653482,9.484705,5.653482,9.484705L5.2214823,9.1467047z
	 M2.4254823,10.201704c0,0-0.492,0.0150003-0.521,0.3050003c-0.028,0.2880001,0.3030001,0.5469999,1.5170001,0.6269999
	s2.0669997-0.3699999,2.0669997-0.3699999L4.9394822,10.392704c0,0-0.3470001,0.0799999-0.882,0.1610003
	c-0.5349998,0.0799999-1.6319997-0.0649996-1.6759999-0.1759996C2.3384824,10.2647047,2.4254823,10.201704,2.4254823,10.201704z
	 M7.1494823,11.5067043c0.1880002-0.2259998-0.0580001-0.4040003-0.0580001-0.4040003s0.086,0.1129999-0.0279999,0.2410002
	c-0.1149998,0.1280003-1.171,0.4499998-2.862,0.5469999c-1.6899998,0.0970001-3.5259998-0.177-3.5839999-0.4189997
	c-0.056-0.2410002,0.9400001-0.434,0.9400001-0.434c-0.115,0.0159998-1.502,0.0480003-1.5470001,0.4680004
	c-0.043,0.4180002,0.607,0.7559996,3.2090003,0.7559996C5.8204823,12.2627039,6.962482,11.7307043,7.1494823,11.5067043z
	 M6.1384821,12.4557047c-1.1419997,0.257-4.6090002,0.0950003-4.6090002,0.0950003s2.2539999,0.5970001,4.8260002,0.0970001
	c1.2290001-0.2390003,1.3010001-0.9020004,1.3010001-0.9020004S7.2804823,12.1967039,6.1384821,12.4557047z M10.5774822,7.7567048
	H8.862483v1.5809999h1.9099998V9.812705H8.2934828V5.4277048h2.3809996v0.4749999H8.862483v1.3860002h1.7139997v0.4679999
	H10.5774822z M13.7954826,7.7567048h-1.7139997v1.5809999h1.9099998V9.812705h-2.4790001V5.4277048h2.3809996v0.4749999h-1.8120003
	v1.3860002h1.7139997C13.7954817,7.2887049,13.7954817,7.7567048,13.7954826,7.7567048z"/>
</svg>
