<?xml version="1.0" encoding="utf-8"?>

<!--
 ~   Copyright 2017, WSO2 Inc. (http://www.wso2.com)
 ~
 ~   Licensed under the Apache License, Version 2.0 (the "License");
 ~   you may not use this file except in compliance with the License.
 ~   You may obtain a copy of the License at
 ~
 ~        http://www.apache.org/licenses/LICENSE-2.0
 ~
 ~   Unless required by applicable law or agreed to in writing, software
 ~   distributed under the License is distributed on an "AS IS" BASIS,
 ~   WITHOUT WARRANTIES OR CONDITIONS OF ANY KIND, either express or implied.
 ~   See the License for the specific language governing permissions and
 ~   limitations under the License.
-->

<svg version="1.1" id="modulus" xmlns="http://www.w3.org/2000/svg" xmlns:xlink="http://www.w3.org/1999/xlink" x="0px" y="0px"
	 viewBox="0 0 14 14" style="enable-background:new 0 0 14 14;" xml:space="preserve">
<path d="M0,3.4864893c0-0.9298291,0.2339379-1.7204801,0.7018138-2.3719528s1.1459997-0.977209,2.0343716-0.977209
	c0.817302,0,1.4939454,0.2916821,2.0299299,0.8750463s0.8039761,1.440643,0.8039761,2.5718365
	c0,1.1015813-0.2709532,1.9499762-0.81286,2.5451853S3.547565,7.0222092,2.7539527,7.0222092
	c-0.7876897,0-1.4436042-0.2931623-1.9677436-0.879488S0,4.6709852,0,3.4864893z M2.7806039,1.2389085
	c-0.396806,0-0.7269843,0.171752-0.9905347,0.5152557S1.3947438,2.7284122,1.3947438,3.6463962
	c0,0.8350697,0.1332557,1.4228759,0.3997673,1.7634182c0.2665117,0.3405428,0.5952091,0.5108137,0.9860928,0.5108137
	c0.4027286,0,0.735868-0.171752,0.9994183-0.5152555c0.2635503-0.343504,0.3953257-0.9712868,0.3953257-1.8833485
	c0-0.840992-0.133256-1.4317591-0.3997674-1.7723018S3.1774099,1.2389085,2.7806039,1.2389085z M2.7894876,13.8626728
	L9.9134893,0.1373275h1.2970228L4.1131616,13.8626728H2.7894876z M8.4217653,10.3269529
	c0-0.9357519,0.2339373-1.7278833,0.7010736-2.3763952c0.4678755-0.6485114,1.1489601-0.9727669,2.0432549-0.9727669
	c0.8173018,0,1.4939451,0.2916818,2.0299301,0.8750463C13.732008,8.4362011,14,9.2934799,14,10.4246731
	c0,1.1015816-0.2709532,1.9499769-0.8128605,2.545186c-0.5419064,0.5952091-1.2126274,0.8928137-2.0121622,0.8928137
	c-0.7876892,0-1.4436045-0.2946434-1.9677439-0.8839302C8.683835,12.3894558,8.4217653,11.5055256,8.4217653,10.3269529z
	 M11.2105122,8.0793715c-0.4027281,0-0.7358675,0.171752-0.9994183,0.5152559
	c-0.2635498,0.343504-0.3953257,0.9742479-0.3953257,1.8922319c0,0.8291473,0.133256,1.415473,0.3997679,1.758976
	c0.266511,0.343504,0.5952091,0.5152559,0.9860926,0.5152559c0.4086514,0,0.7447519-0.171752,1.0083017-0.5152559
	c0.2635508-0.343503,0.3953257-0.9712858,0.3953257-1.8833475c0-0.840992-0.133256-1.4317598-0.3997669-1.7723026
	C11.9389772,8.2496433,11.6073189,8.0793715,11.2105122,8.0793715z"/>
</svg>
