<?xml version="1.0" encoding="utf-8"?>

<!--
	~   Copyright (c) 2017, WSO2 Inc. (http://www.wso2.org) All Rights Reserved.
	~
	~   WSO2 Inc. licenses this file to you under the Apache License,
	~   Version 2.0 (the "License"); you may not use this file except
	~   in compliance with the License.
	~   You may obtain a copy of the License at
  	~
    ~   http://www.apache.org/licenses/LICENSE-2.0
    ~
    ~   Unless required by applicable law or agreed to in writing,
    ~   software distributed under the License is distributed on an
    ~   "AS IS" BASIS, WITHOUT WARRANTIES OR CONDITIONS OF ANY
    ~   KIND, either express or implied.  See the License for the
    ~   specific language governing permissions and limitations
    ~   under the License.
-->

<svg version="1.1" id="open-lock" xmlns="http://www.w3.org/2000/svg" xmlns:xlink="http://www.w3.org/1999/xlink" x="0px" y="0px"
	 viewBox="0 0 14.8973436 14.0170383" style="enable-background:new 0 0 14.8973436 14.0170383;" xml:space="preserve">
<path d="M7.3999996,5.8000002h-1.5v-2c0-1.2-1-2.2-2.1999996-2.2s-2.1999998,1-2.1999998,2.2v2H0v-2
	C0,1.7,1.6000001,0,3.7,0s3.6999996,1.7,3.6999996,3.7V5.8000002z M14.8973436,6.5170388H4.2777352l0.0235295,7.4999995h10.5882359
	L14.8973436,6.5170388z M10.0953827,9.8170385v2.0999994h-1V9.8170385c-0.1999998-0.1999998-0.4000006-0.5-0.4000006-0.8000002
	c0-0.5,0.4000006-0.8999996,0.9000006-0.8999996s0.8999996,0.3999996,0.8999996,0.8999996
	C10.4953823,9.3170385,10.2953825,9.6170387,10.0953827,9.8170385z"/>
</svg>
