<?xml version="1.0" encoding="utf-8"?>

<!--
 ~   Copyright 2017, WSO2 Inc. (http://www.wso2.com)
 ~
 ~   Licensed under the Apache License, Version 2.0 (the "License");
 ~   you may not use this file except in compliance with the License.
 ~   You may obtain a copy of the License at
 ~
 ~        http://www.apache.org/licenses/LICENSE-2.0
 ~
 ~   Unless required by applicable law or agreed to in writing, software
 ~   distributed under the License is distributed on an "AS IS" BASIS,
 ~   WITHOUT WARRANTIES OR CONDITIONS OF ANY KIND, either express or implied.
 ~   See the License for the specific language governing permissions and
 ~   limitations under the License.
-->

<svg version="1.1" id="pinterest" xmlns="http://www.w3.org/2000/svg" xmlns:xlink="http://www.w3.org/1999/xlink" x="0px" y="0px"
	 viewBox="0 0 14 14" style="enable-background:new 0 0 14 14;" xml:space="preserve">
<path d="M7,0C3.1,0,0,3.1,0,7c0,3.9,3.1,7,7,7s7-3.1,7-7C14,3.1,10.9,0,7,0z M7.6,9.4C7,9.3,6.8,9.1,6.4,8.8
	c-0.2,1.2-0.5,2.3-1.3,2.9C4.8,10,5.4,8.6,5.7,7.2C5.2,6.3,5.8,4.6,6.8,5c1.3,0.5-1.1,3.1,0.5,3.4c1.7,0.3,2.4-2.9,1.3-4
	c-1.5-1.5-4.4,0-4.1,2.2c0.1,0.5,0.6,0.7,0.2,1.4c-1-0.2-1.3-1-1.2-2c0.1-1.7,1.5-2.8,2.9-3c1.8-0.2,3.5,0.7,3.8,2.4
	C10.6,7.4,9.5,9.5,7.6,9.4z"/>
</svg>
