<?xml version="1.0" encoding="utf-8"?>

<!--
 ~   Copyright 2017, WSO2 Inc. (http://www.wso2.com)
 ~
 ~   Licensed under the Apache License, Version 2.0 (the "License");
 ~   you may not use this file except in compliance with the License.
 ~   You may obtain a copy of the License at
 ~
 ~        http://www.apache.org/licenses/LICENSE-2.0
 ~
 ~   Unless required by applicable law or agreed to in writing, software
 ~   distributed under the License is distributed on an "AS IS" BASIS,
 ~   WITHOUT WARRANTIES OR CONDITIONS OF ANY KIND, either express or implied.
 ~   See the License for the specific language governing permissions and
 ~   limitations under the License.
-->

<svg version="1.1" id="question" xmlns="http://www.w3.org/2000/svg" xmlns:xlink="http://www.w3.org/1999/xlink" x="0px" y="0px"
	 viewBox="0 0 14 14" style="enable-background:new 0 0 14 14;" xml:space="preserve">
<path d="M5.60255,10.0945702C5.60887,9.1908903,5.71314,8.5447197,5.91536,8.1560698
	c0.20222-0.3878598,0.6509099-0.87604,1.3460498-1.4637499c0.4921303-0.4802799,0.8839407-0.9400201,1.1746302-1.37922
	c0.2907-0.4391999,0.4360399-0.9242201,0.4360399-1.45506c0-0.6129899-0.1658897-1.0885301-0.4976597-1.42662
	C8.0426598,2.0933299,7.5710702,1.92428,6.9580798,1.92428c-0.5245199,0-0.9700398,0.1437701-1.3365703,0.4313
	S5.0717201,3.0681,5.0717201,3.6305399H2.85358l-0.02844-0.05688C2.80619,2.4488001,3.1837699,1.57197,3.9579101,0.94318
	S5.7321,0,6.9580798,0C8.28438,0,9.31919,0.33809,10.0617294,1.01428c0.7425404,0.67618,1.1138096,1.6146301,1.1138096,2.81532
	c0,0.8025699-0.2322397,1.54669-0.6967201,2.2323499s-1.0506191,1.3128705-1.758399,1.8816304
	C8.3602104,8.2587605,8.1342897,8.5589399,8.0426598,8.8433104c-0.09163,0.28438-0.1374502,0.7014599-0.1374502,1.2512598H5.60255z
	 M7.94313,14H5.59307v-2.2086601h2.35005V14H7.94313z"/>
</svg>
