<?xml version="1.0" encoding="utf-8"?>

<!--
 ~   Copyright 2018, WSO2 Inc. (http://www.wso2.com)
 ~
 ~   Licensed under the Apache License, Version 2.0 (the "License");
 ~   you may not use this file except in compliance with the License.
 ~   You may obtain a copy of the License at
 ~
 ~        http://www.apache.org/licenses/LICENSE-2.0
 ~
 ~   Unless required by applicable law or agreed to in writing, software
 ~   distributed under the License is distributed on an "AS IS" BASIS,
 ~   WITHOUT WARRANTIES OR CONDITIONS OF ANY KIND, either express or implied.
 ~   See the License for the specific language governing permissions and
 ~   limitations under the License.
-->

<svg version="1.1" id="records" xmlns="http://www.w3.org/2000/svg" xmlns:xlink="http://www.w3.org/1999/xlink" x="0px" y="0px"
	 viewBox="0 0 14 14" style="enable-background:new 0 0 14 14;" xml:space="preserve">
<path d="M13.9400024,3.3900146c-0.0499878-0.0500488-0.1099854-0.0800171-0.1799927-0.0800171h-0.3699951l0.0999756-0.8200073
	C13.5,2.4199829,13.4699707,2.3499756,13.4299927,2.2999878C13.3800049,2.25,13.3099976,2.2199707,13.25,2.2199707h-0.6900024
	l0.0800171-0.8299561c0.0100098-0.0600586-0.0100098-0.1300049-0.0599976-0.1800537
	c-0.0499878-0.0599976-0.1100464-0.0799561-0.1799927-0.0799561H11.460022l0.0599976-0.8300171
	c0.0100098-0.0700073-0.0100098-0.1400146-0.0599976-0.1900024c-0.0500488-0.0499878-0.1100464-0.0800171-0.1799927-0.0800171
	H2.7199707c-0.0699463,0-0.1299438,0.0300293-0.1799927,0.0800171C2.4899902,0.1599731,2.4699707,0.2299805,2.4799805,0.2999878
	l0.0700073,0.8300171H1.5999756c-0.0699463,0-0.1300049,0.0199585-0.1799927,0.0799561
	C1.3699951,1.2600098,1.3499756,1.3299561,1.3599854,1.3999634l0.0900269,0.8200073H0.75
	c-0.0700073,0-0.1300049,0.0300293-0.1799927,0.0800171C0.5300293,2.3499756,0.5,2.4199829,0.5100098,2.4899902l0.1099854,0.8200073
	H0.2399902c-0.0700073,0-0.1300049,0.0299683-0.1799927,0.0800171C0.0100098,3.4400024-0.0100098,3.5100098,0,3.5799561
	L1.3900146,13.75c0.0199585,0.1300049,0.1199951,0.2199707,0.25,0.2199707h10.789978
	c0.1300049,0,0.2299805-0.0999756,0.25-0.2199707L14,3.5799561C14.0100098,3.5100098,13.9899902,3.4400024,13.9400024,3.3900146z
	 M11.0200195,0.5199585l-0.0500488,0.6100464H3.039978L2.9799805,0.5199585H11.0200195z M12.1300049,1.6099854l-0.0599976,0.6099854
	H1.9400024L1.8699951,1.6099854H12.1300049z M5.4799805,11.9199829c-0.6099854-0.3300171-1.1199951-0.789978-1.4599609-1.3400269
	C3.9099731,10.4099731,3.8200073,10.2299805,3.75,10.0599976C3.6199951,9.7699585,3.5300293,9.4500122,3.4899902,9.1199951
	c-0.0499878-0.4000244-0.039978-0.8099976,0.0300293-1.2000122C3.5900269,7.5700073,3.710022,7.2399902,3.8699951,6.9299927
	c0.5100098-0.9799805,1.4799805-1.7200317,2.5900269-2c0.2299805-0.0599976,0.4699707-0.0900269,0.6999512-0.1099854h0.3300171
	c0.0599976,0,0.1300049,0.0099487,0.1900024,0.0099487l0.1000366,0.0200195
	c0.1699829,0.0499878,0.3599854,0.1099854,0.539978,0.1900024c0.1599731,0.0800171,0.3099976,0.1799927,0.4500122,0.2800293
	C8.8900146,5.4299927,9.0100098,5.539978,9.1099854,5.6499634C9.1799927,5.7199707,9.2299805,5.7999878,9.289978,5.8699951
	c0.3500366,0.4899902,0.5500488,1.0999756,0.6100464,1.8099976c0.0199585,0.3800049,0,0.6799927-0.0599976,0.960022
	C9.8099976,8.8099976,9.7600098,8.9799805,9.6799927,9.1599731c-0.0599976,0.1400146-0.1300049,0.25-0.2000122,0.3699951
	c-0.0599976,0.0900269-0.1399536,0.1799927-0.1999512,0.25C9.2299805,9.8399658,9.1699829,9.9099731,9.1099854,9.9599609
	c-0.3599854,0.3300171-0.8099976,0.5-1.2399902,0.5100098C8.1599731,10.25,8.3900146,9.9799805,8.5499878,9.6699829
	c0.1500244-0.3300171,0.2300415-0.6900024,0.2300415-1.0900269C8.7700195,8.2199707,8.6900024,7.8699951,8.5499878,7.5700073
	C8.3800049,7.2299805,8.1199951,6.9199829,7.789978,6.7000122c-0.0799561-0.0500488-0.1599731-0.1000366-0.25-0.1400146
	L7.4099731,6.5C7.3099976,6.4699707,7.2000122,6.4400024,7.0800171,6.4299927
	c-0.3099976-0.039978-0.6300049-0.0100098-0.9299927,0.0899658C5.9500122,6.5899658,5.75,6.7000122,5.5599976,6.8299561
	C5.2999878,7.0299683,5.0900269,7.2699585,4.9199829,7.539978C4.710022,7.8900146,4.5800171,8.3099976,4.5300293,8.7600098
	C4.5,9,4.5,9.2299805,4.5100098,9.4599609c0.0200195,0.3900146,0.0800171,0.7400513,0.1699829,1.0599976
	c0.1600342,0.5500488,0.4400024,1.0300293,0.7999878,1.3900146V11.9199829z M11.2999878,9.1199951
	C11.25,9.4899902,11.1400146,9.8499756,10.960022,10.2199707c-0.1900024,0.4000244-0.460022,0.7600098-0.8000488,1.0800171
	c-0.3599854,0.3499756-0.7799683,0.6199951-1.25,0.8099976C8.5800171,12.25,8.2299805,12.3399658,7.8800049,12.3800049
	c-0.1400146,0.0199585-0.2999878,0.0299683-0.4700317,0.0299683l-0.0699463,0.0100098
	C7.1199951,12.3900146,6.9000244,12.3399658,6.6699829,12.25c-0.3800049-0.1500244-0.7299805-0.3900146-1.0100098-0.7000122
	c-0.1799927-0.1900024-0.3199463-0.4199829-0.4400024-0.6799927C5.0599976,10.5,4.9500122,10.0700073,4.9099731,9.5899658
	C4.8900146,9.2199707,4.9000244,8.9199829,4.9400024,8.6499634c0.0900269-0.539978,0.3200073-0.9899902,0.6500244-1.3299561
	C5.6599731,7.2600098,5.7299805,7.2099609,5.789978,7.1499634C5.8499756,7.0999756,5.9299927,7.0499878,6.0200195,7
	c0.0999756-0.0499878,0.2099609-0.1000366,0.3299561-0.1400146s0.25-0.0599976,0.3800049-0.0700073h0.1400146
	C6.6300049,6.9699707,6.4400024,7.1900024,6.289978,7.4299927C6.0800171,7.789978,5.9799805,8.2299805,5.9899902,8.7000122
	C5.9899902,9,6.0499878,9.289978,6.1599731,9.5700073C6.2600098,9.789978,6.3800049,9.9899902,6.539978,10.1799927
	c0.1300049,0.1400146,0.2900391,0.2700195,0.4500122,0.3800049c0.0800171,0.0599976,0.1799927,0.1099854,0.2800293,0.1599731
	c0.0899658,0.0400391,0.1799927,0.0599976,0.2799683,0.0900269c0.5200195,0.1199951,1.1099854-0.0300293,1.6099854-0.3900146
	c0.2700195-0.1799927,0.5-0.4299927,0.6800537-0.710022c0.2299805-0.3599854,0.3799438-0.7799683,0.4400024-1.2299805
	c0.0199585-0.2199707,0.0299683-0.4699707,0.0099487-0.75c-0.0199585-0.3699951-0.0799561-0.7000122-0.1699829-1.0100098
	c-0.1500244-0.5299683-0.4199829-1-0.7799683-1.3800049c0.5799561,0.3200073,1.0599976,0.75,1.4099731,1.2700195
	c0.0999756,0.1699829,0.1900024,0.3400269,0.2800293,0.5100098c0.1199951,0.289978,0.2099609,0.5899658,0.25,0.8900146
	C11.3499756,8.3699951,11.3499756,8.75,11.2999878,9.1199951z M12.9000244,3.3099976H1.1099854L1.0300293,2.7000122h11.9399414
	L12.9000244,3.3099976z"/>
</svg>
