<?xml version="1.0" encoding="UTF-8" standalone="no"?>
<svg
   xmlns:dc="http://purl.org/dc/elements/1.1/"
   xmlns:cc="http://creativecommons.org/ns#"
   xmlns:rdf="http://www.w3.org/1999/02/22-rdf-syntax-ns#"
   xmlns:svg="http://www.w3.org/2000/svg"
   xmlns="http://www.w3.org/2000/svg"
   xml:space="preserve"
   style="enable-background:new 0 0 14 14;"
   viewBox="0 0 14 14"
   y="0px"
   x="0px"
   id="api"
   version="1.1"><metadata
     id="metadata9"><rdf:RDF><cc:Work
         rdf:about=""><dc:format>image/svg+xml</dc:format><dc:type
           rdf:resource="http://purl.org/dc/dcmitype/StillImage" /><dc:title></dc:title></cc:Work></rdf:RDF></metadata><defs
     id="defs7" /><path
     style="fill:#000000;stroke-width:0.87527359"
     id="path2"
     d="M 11.942464,2.0562502 C 10.672921,0.7875002 8.930582,1.8e-7 6.995622,1.8e-7 3.1257037,1.8e-7 0,3.1325002 0,7.0000002 0,10.8675 3.1257037,14 6.995622,14 c 3.265791,0 5.988742,-2.23125 6.767979,-5.2499998 H 11.942464 C 11.224515,10.78875 9.280801,12.25 6.995622,12.25 4.097561,12.25 1.7423391,9.89625 1.7423391,7.0000002 c 0,-2.89625 2.3552219,-5.25 5.2532829,-5.25 1.453409,0 2.749219,0.60375 3.69481,1.5575 l -2.819263,2.8175 h 6.12883 V 1.8e-7 Z" /></svg>