<?xml version="1.0" encoding="utf-8"?>

<!--
 ~   Copyright 2017, WSO2 Inc. (http://www.wso2.com)
 ~
 ~   Licensed under the Apache License, Version 2.0 (the "License");
 ~   you may not use this file except in compliance with the License.
 ~   You may obtain a copy of the License at
 ~
 ~        http://www.apache.org/licenses/LICENSE-2.0
 ~
 ~   Unless required by applicable law or agreed to in writing, software
 ~   distributed under the License is distributed on an "AS IS" BASIS,
 ~   WITHOUT WARRANTIES OR CONDITIONS OF ANY KIND, either express or implied.
 ~   See the License for the specific language governing permissions and
 ~   limitations under the License.
-->

<svg version="1.1" id="schema" xmlns="http://www.w3.org/2000/svg" xmlns:xlink="http://www.w3.org/1999/xlink" x="0px" y="0px"
	 viewBox="0 0 14 14" style="enable-background:new 0 0 14 14;" xml:space="preserve">
<polygon points="11.5,10.8 11.5,9.1 7.3,9.1 7.3,8.4 9.6,8.4 9.6,6.6 11.2,8.4 11.6,8 10.6,6.8 13.8,6.8 13.8,1 11.6,1 11.6,0 
	2.4,0 2.4,3.4 11.6,3.4 11.6,2.1 11.6,1.5 13.3,1.5 13.3,6.3 10.6,6.3 11.6,5.2 11.2,4.8 9.6,6.5 9.6,4.7 4.2,4.7 4.2,8.4 6.7,8.4 
	6.7,9.1 2.6,9.1 2.6,10.8 0.2,10.8 0.2,14 5.6,14 5.6,10.8 3.3,10.8 3.3,9.8 10.8,9.8 10.8,10.8 8.4,10.8 8.4,14 13.8,14 13.8,10.8 
	"/>
</svg>
