<?xml version="1.0" encoding="utf-8"?>

<!--
 ~   Copyright 2017, WSO2 Inc. (http://www.wso2.com)
 ~
 ~   Licensed under the Apache License, Version 2.0 (the "License");
 ~   you may not use this file except in compliance with the License.
 ~   You may obtain a copy of the License at
 ~
 ~        http://www.apache.org/licenses/LICENSE-2.0
 ~
 ~   Unless required by applicable law or agreed to in writing, software
 ~   distributed under the License is distributed on an "AS IS" BASIS,
 ~   WITHOUT WARRANTIES OR CONDITIONS OF ANY KIND, either express or implied.
 ~   See the License for the specific language governing permissions and
 ~   limitations under the License.
-->

<svg version="1.1" id="security-policy" xmlns="http://www.w3.org/2000/svg" xmlns:xlink="http://www.w3.org/1999/xlink" x="0px"
	 y="0px" viewBox="0 0 14 14" style="enable-background:new 0 0 14 14;" xml:space="preserve">
<path d="M8.7924194,4.9431152H5.0563965V4.4130859h3.7360229V4.9431152z M5.0563965,6.0031128h2.1459961V5.4730835H5.0563965
	V6.0031128z M8.2614136,8.3900757c0,0.1470337,0.117981,0.2650146,0.2659912,0.2650146
	c0.1459961,0,0.2650146-0.117981,0.2650146-0.2650146c0-0.1469727-0.1190186-0.2659912-0.2650146-0.2650146
	C8.3793945,8.125061,8.2614136,8.2440796,8.2614136,8.3900757z M5.0563965,7.5941162h3.7360229V7.0640869H5.0563965V7.5941162z
	 M9.1234131,11.3150635h1.9749756V9.9890747l-0.3059692,0.3209839v0.684021H9.4293823V9.5661011h1.0640259l0.3059692-0.3209839
	H9.1234131V11.3150635z M9.7653809,9.9960938l-0.2160034,0.2269897l0.519043,0.5449829l1.2990112-1.3619995l-0.2160034-0.2269897
	l-1.0830078,1.1350098L9.7653809,9.9960938z M5.0563965,8.6550903h2.6760254V8.125061H5.0563965V8.6550903z M3.4716187,11.25
	H3.121582H2.7216187H2.081604L2.0916138,14h0.6300049H3.121582h2.8500366v-0.7000122V13.25v-2H4.3215942H3.4716187z
	 M4.3215942,12.3099976c-0.0199585,0.0599976-0.0700073,0.1099854-0.1099854,0.1500244v0.7699585H3.8516235V12.460022
	c-0.0800171-0.0700073-0.1500244-0.1799927-0.1500244-0.2900391c0-0.1799927,0.1500244-0.3299561,0.3300171-0.3299561
	c0.1300049,0,0.25,0.0799561,0.289978,0.1900024c0.0300293,0.039978,0.0400391,0.0899658,0.0400391,0.1399536
	S4.3516235,12.2700195,4.3215942,12.3099976z M9.7816162,0H2.7216187v8.9199829
	c0.0200195-0.0199585,0.0299683-0.0299683,0.0499878-0.0499878C2.9716187,8.6699829,3.2116089,8.5300293,3.4716187,8.460022V0.75
	H9.541626v2.5599976h2.5599976V13.25H6.4716187v0.0499878V14h6.3800049V2.9699707L9.7816162,0z M3.121582,11h0.1000366v-0.7299805
	c0-0.2200317,0.0999756-0.4299927,0.25-0.5700073V9.6900024C3.621582,9.5499878,3.8115845,9.460022,4.0316162,9.460022
	c0.0999756,0,0.2000122,0.0199585,0.289978,0.0499878c0,0,0.4899902,0.1300049,0.5100098,0.7600098V11h0.5499878v-0.7700195
	c0-0.6399536-0.4400024-1.1900024-1.0599976-1.3299561c-0.0899658-0.0200195-0.1900024-0.0300293-0.289978-0.0300293
	c-0.2000122,0-0.3900146,0.039978-0.5599976,0.1199951c-0.1300049,0.0599976-0.25,0.1400146-0.3500366,0.2399902
	C2.9216309,9.4000244,2.7816162,9.6400146,2.7216187,9.9099731c-0.0100098,0-0.0100098,0,0,0.0100098
	c-0.0400391,0.1100464-0.0499878,0.2300415-0.0499878,0.3500366V11h0.0499878H3.121582z"/>
</svg>
