<?xml version="1.0" encoding="utf-8"?>

<!--
 ~   Copyright 2017, WSO2 Inc. (http://www.wso2.com)
 ~
 ~   Licensed under the Apache License, Version 2.0 (the "License");
 ~   you may not use this file except in compliance with the License.
 ~   You may obtain a copy of the License at
 ~
 ~        http://www.apache.org/licenses/LICENSE-2.0
 ~
 ~   Unless required by applicable law or agreed to in writing, software
 ~   distributed under the License is distributed on an "AS IS" BASIS,
 ~   WITHOUT WARRANTIES OR CONDITIONS OF ANY KIND, either express or implied.
 ~   See the License for the specific language governing permissions and
 ~   limitations under the License.
-->

<svg version="1.1" id="shortcut" xmlns="http://www.w3.org/2000/svg" xmlns:xlink="http://www.w3.org/1999/xlink" x="0px" y="0px"
	 viewBox="0 0 14 14" style="enable-background:new 0 0 14 14;" xml:space="preserve">
<path d="M13.9511108,10.9133301H12.406189l0.0039062,3.1074219H9.3729858l-0.0039062-3.0986328H7.8319702l3.0595703-3.0585938
	l0.0996094,0.0771484L13.9511108,10.9133301z M12.3671265,10.286377L10.890564,8.8117676l-1.4907227,1.4863281h0.6298828
	l0.0039062,3.0683594h1.7241211l-0.0039062-3.0800781H12.3671265z M9.3349171,2.3431859L9.3260117,2.2147536h0.9927721
	l0.0206242,0.6388803c0.2826452-0.4631062,0.7438765-0.7457509,1.2529173-0.7457509
	c0.1087456,0,0.1790562,0.0145307,0.2470217,0.0285926l0.0956211,0.0196867l0.0220308,0.1021833v1.001678l-0.164525-0.0656223
	c-0.054841-0.0220304-0.1349945-0.0220304-0.2460833-0.0220304c-0.5254478,0-0.9248066,0.3838906-1.0429268,1.0021467
	c-0.0032806,0.0285926-0.0089054,0.0665598-0.0149994,0.1059332c-0.0140619,0.0909338-0.0285931,0.18468-0.0285931,0.2840509
	v2.654892H9.3649158V3.8314066C9.3649158,3.267992,9.3649158,2.781918,9.3349171,2.3431859z M5.2447715,6.9939342
	l0.0899963-0.0426545L5.0877466,6.0255361L4.956502,6.0911584C4.6377649,6.2505269,4.113255,6.353179,3.6201501,6.353179
	c-1.5219693,0-2.4303699-0.9487114-2.4303699-2.5372405c0-1.6119657,0.9430866-2.6136436,2.4613061-2.6136436
	c0.4766994,0,0.9355869,0.0937462,1.2922912,0.2634268l0.1256199,0.0599976l0.2831135-0.9304309L5.2653956,0.5488839
	C5.1313386,0.4776368,4.618547,0.2446775,3.6356182,0.2446775c-2.1453815,0-3.586729,1.4474411-3.586729,3.6017284
	c0,2.1046019,1.3302584,3.464859,3.3884559,3.464859C4.2791858,7.311265,4.9232221,7.1472092,5.2447715,6.9939342z
	 M8.5854168,7.1668959L8.5441685,6.2706823L8.3983936,6.3123994C8.3079281,6.3381796,8.1532469,6.3686471,7.9273186,6.3686471
	c-0.3131123,0-0.5216975-0.1378069-0.5216975-0.8113732v-2.445838H8.642602V2.2147536H7.4056211V0.8188729L6.3106656,1.1127672
	v1.1019864H5.5775704v0.8966823h0.7330952v2.4763055c0,0.6435676,0.1171827,1.0677691,0.3679538,1.3340082
	C6.916266,7.1767392,7.2687516,7.311265,7.6981091,7.311265c0.3163934,0,0.60185-0.0403109,0.8043418-0.1139016L8.5854168,7.1668959
	z M12.6329079,0v7.2193937h1.0954247V0H12.6329079z M4.8456421,10.5625V8.6826172H3.8822632V10.5625H2.0775757v0.9384766h1.8046875
	v1.8964844h0.9633789v-1.8964844h1.8125V10.5625H4.8456421z"/>
</svg>
