<?xml version="1.0" encoding="utf-8"?>

<!--
 ~   Copyright 2017, WSO2 Inc. (http://www.wso2.com)
 ~
 ~   Licensed under the Apache License, Version 2.0 (the "License");
 ~   you may not use this file except in compliance with the License.
 ~   You may obtain a copy of the License at
 ~
 ~        http://www.apache.org/licenses/LICENSE-2.0
 ~
 ~   Unless required by applicable law or agreed to in writing, software
 ~   distributed under the License is distributed on an "AS IS" BASIS,
 ~   WITHOUT WARRANTIES OR CONDITIONS OF ANY KIND, either express or implied.
 ~   See the License for the specific language governing permissions and
 ~   limitations under the License.
-->


<svg version="1.1" id="speed-alert" xmlns="http://www.w3.org/2000/svg" xmlns:xlink="http://www.w3.org/1999/xlink" x="0px"
	 y="0px" viewBox="0 0 14 14" style="enable-background:new 0 0 14 14;" xml:space="preserve">
<path d="M14,7.0453491c0,0.048645,0,0.097229-0.0096436,0.145813c-0.0289917,1.7394409-0.6855469,3.3623657-1.8538208,4.6256714
	c-0.0482788,0.0679932-0.1062012,0.1262817-0.1641235,0.1846313c-0.0579224,0.0582886-0.1254883,0.1263428-0.1834717,0.1651611
	l-0.3378906-0.3400879l-0.4924316-0.5053101l-0.3379517-0.3401489c0.0579834-0.048584,0.1159058-0.1068726,0.1641846-0.1652222
	c0.0579224-0.0582886,0.1158447-0.1262817,0.1641235-0.1943359l0.3379517,0.3401489l0.5117188,0.5150146
	c1.0717163-1.1758423,1.6799927-2.6723633,1.7089233-4.2855225h-0.8013916h-0.4827271
	c0.0096436-0.048584,0.0096436-0.097168,0.0096436-0.145813v-0.097168c0-0.0776978-0.0096436-0.1651611-0.0192871-0.2429199
	h0.4827271h0.791748c-0.0579224-1.545105-0.6661987-2.993103-1.737915-4.1300659L11.248291,3.0805054l-0.3379517,0.3401489
	c-0.0482788-0.0680542-0.1062012-0.1360474-0.1641235-0.1943359c-0.0579224-0.0583496-0.1158447-0.1166382-0.1738281-0.1652222
	l0.3379517-0.3401489l0.4924316-0.4956055C10.2731323,1.1563721,8.8151855,0.553894,7.2703247,0.5053101v0.602478V1.593689
	c-0.0772095-0.0097046-0.1641235-0.0097046-0.241333-0.0097046c-0.0772705,0-0.1641846,0-0.241394,0.0097046V1.1077881V0.4956055
	c-1.5834351,0.048584-3.0317383,0.651062-4.161377,1.7103271l0.4827271,0.4956055L3.4468994,3.041626
	C3.3889771,3.09021,3.3310547,3.1485596,3.2731323,3.2068481C3.2151489,3.2651367,3.1668701,3.3234863,3.1089478,3.3914795
	L2.7710571,3.0513916L2.2689819,2.5460205C1.187561,3.6732788,0.5696411,5.1309814,0.5020752,6.7052612h0.8110352h0.4730835
	C1.7765503,6.78302,1.7765503,6.8704834,1.7765503,6.9481812L1.7669067,7.0259399c0,0.0582886,0,0.1068726,0.0096436,0.1652222
	H1.2938232H0.4924316c0.0289307,1.6033936,0.6179199,3.0999756,1.6896362,4.2563477l0.5117188-0.5053101l0.3379517-0.3498535
	c0.0482788,0.0680542,0.1062012,0.1263428,0.1641235,0.194397c0.0579224,0.0679932,0.1158447,0.1263428,0.1737671,0.1749268
	l-0.3475342,0.3400879l-0.4924316,0.4956055l-0.3572388,0.3498535c-0.0579224-0.048584-0.1158447-0.1068726-0.1738281-0.1652222
	c-0.0579224-0.0582886-0.1158447-0.1165771-0.1641235-0.1846313c-1.1489258-1.2536011-1.7958374-2.8764648-1.8248291-4.6062012
	C0,7.1425781,0,7.0939941,0,7.0453491c0-0.0291138,0-0.0776978,0.0096436-0.1262817c0-0.0680542,0-0.145813,0.0193481-0.2138062
	c0.0675659-1.7006226,0.7337646-3.2846069,1.9020386-4.4993286C1.9889526,2.1378784,2.046875,2.0795898,2.1047974,2.0213013
	C2.1627808,1.9629517,2.2303467,1.9046631,2.288269,1.8657837C3.5144653,0.699646,5.0979614,0.0582886,6.7875977,0.0097046
	C6.8551636,0,6.9324341,0,7,0c0.0869141,0,0.1834717,0,0.2703247,0.0194092
	c1.6993408,0.0582886,3.2634888,0.7191162,4.4800415,1.8560791c0.0675659,0.048645,0.1254883,0.1069336,0.1834106,0.1652222
	s0.1159058,0.1166382,0.1641846,0.1846313c1.1585693,1.2244263,1.805481,2.7987671,1.8827515,4.4799194
	c0.0096436,0.0679932,0.0096436,0.145752,0.0096436,0.2138062C14,6.9676514,14,7.0162354,14,7.0453491z M10.3059082,3.6470337
	C10.1682129,3.5189209,7.3268433,5.8349609,7,6.0823364C6.7196045,6.2945557,6.270813,6.5117798,6.270813,6.9375
	s0.3451538,0.770813,0.770874,0.770813S7.8233643,7.105896,7.9592285,6.9375
	C8.1194458,6.7388916,10.4570313,3.7877808,10.3059082,3.6470337z M6.619812,12.921875v0.84375h0.84375v-0.84375H6.619812z
	 M6.317627,8.5176392l0.3021851,4.1176147h0.84375l0.324646-4.1176147H6.317627z"/>
</svg>
