<?xml version="1.0" encoding="utf-8"?>

<!--
 ~   Copyright 2017, WSO2 Inc. (http://www.wso2.com)
 ~
 ~   Licensed under the Apache License, Version 2.0 (the "License");
 ~   you may not use this file except in compliance with the License.
 ~   You may obtain a copy of the License at
 ~
 ~        http://www.apache.org/licenses/LICENSE-2.0
 ~
 ~   Unless required by applicable law or agreed to in writing, software
 ~   distributed under the License is distributed on an "AS IS" BASIS,
 ~   WITHOUT WARRANTIES OR CONDITIONS OF ANY KIND, either express or implied.
 ~   See the License for the specific language governing permissions and
 ~   limitations under the License.
-->

<svg version="1.1" id="sync" xmlns="http://www.w3.org/2000/svg" xmlns:xlink="http://www.w3.org/1999/xlink" x="0px" y="0px"
	 viewBox="0 0 14 14" style="enable-background:new 0 0 14 14;" xml:space="preserve">
<path transform="translate(4,4.47400773704214)" d="M-3.3,2.5L0.3,4l-1.5,0.8c0.8,1.5,2.4,2.6,4.3,2.6c2,0,3.7-1.2,4.4-2.8h1.4
	C8.1,7,5.8,8.7,3.1,8.7c-2.4,0-4.4-1.3-5.4-3.3L-4,6.3L-3.3,2.5z M3.1-3.6c2.3,0,4.3,1.3,5.4,3.2L10-1.3L9.4,2.5L5.7,1.1l1.6-0.9
	C6.5-1.3,4.9-2.3,3.1-2.3c-2,0-3.7,1.2-4.4,2.8h-1.4C-1.9-1.9,0.4-3.6,3.1-3.6z"/>
</svg>
