<?xml version="1.0" encoding="utf-8"?>

<!--
 ~   Copyright 2018, WSO2 Inc. (http://www.wso2.com)
 ~
 ~   Licensed under the Apache License, Version 2.0 (the "License");
 ~   you may not use this file except in compliance with the License.
 ~   You may obtain a copy of the License at
 ~
 ~        http://www.apache.org/licenses/LICENSE-2.0
 ~
 ~   Unless required by applicable law or agreed to in writing, software
 ~   distributed under the License is distributed on an "AS IS" BASIS,
 ~   WITHOUT WARRANTIES OR CONDITIONS OF ANY KIND, either express or implied.
 ~   See the License for the specific language governing permissions and
 ~   limitations under the License.
-->

<svg version="1.1" id="uneditable" xmlns="http://www.w3.org/2000/svg" xmlns:xlink="http://www.w3.org/1999/xlink" x="0px" y="0px"
	 viewBox="0 0 14 14" style="enable-background:new 0 0 14 14;" xml:space="preserve">
<path d="M14,12.6V14v0h-1.2h-0.2L7.9,9.3L4.7,6.1L0.2,1.6L0,1.4V0h1.4l4.7,4.7C7,3.8,7.8,3,8.7,2.1c1.1,1.1,2.2,2.2,3.2,3.2
	C11,6.2,10.2,7.1,9.3,7.9L14,12.6z M14,3.2L10.7,0L9.1,1.7c1.1,1.1,2.1,2.1,3.2,3.2C12.4,4.8,14,3.2,14,3.2z M1.2,9.6
	c1,1,2.1,2.1,3.2,3.2c1-1,2-2,3-3L4.2,6.6C3.2,7.6,2.2,8.6,1.2,9.6z M0,14c0,0,2.7-0.4,3.9-0.6c-1.1-1.1-2.1-2.1-3.2-3.2
	C0.5,11.4,0.2,12.7,0,14z"/>
</svg>
