<?xml version="1.0" encoding="utf-8"?>

<!--
 ~   Copyright 2017, WSO2 Inc. (http://www.wso2.com)
 ~
 ~   Licensed under the Apache License, Version 2.0 (the "License");
 ~   you may not use this file except in compliance with the License.
 ~   You may obtain a copy of the License at
 ~
 ~        http://www.apache.org/licenses/LICENSE-2.0
 ~
 ~   Unless required by applicable law or agreed to in writing, software
 ~   distributed under the License is distributed on an "AS IS" BASIS,
 ~   WITHOUT WARRANTIES OR CONDITIONS OF ANY KIND, either express or implied.
 ~   See the License for the specific language governing permissions and
 ~   limitations under the License.
-->

<svg version="1.1" id="used-by" xmlns="http://www.w3.org/2000/svg" xmlns:xlink="http://www.w3.org/1999/xlink" x="0px" y="0px"
	 viewBox="0 0 14 14" style="enable-background:new 0 0 14 14;" xml:space="preserve">
<path d="M11.2459717,8.4918823c-0.7973633,0-1.5097046,0.3440552-2.0126343,0.8856812L7.3622437,7.0145264
	c0.0496826-0.071228,0.0853882-0.1530762,0.0853882-0.246521c0-0.0841064-0.0299683-0.1582642-0.0709229-0.2250977
	l1.7887573-2.0028687c0.5050659,0.5877686,1.244751,0.9680176,2.0805054,0.9680176C12.7669678,5.5080566,14,4.2750244,14,2.7540283
	S12.7669678,0,11.2459717,0S8.4919434,1.2330322,8.4919434,2.7540283c0,0.5943604,0.1925659,1.1412354,0.5127563,1.5912476
	L7.1934204,6.3724365C7.1365356,6.3455811,7.074707,6.328064,7.0076294,6.328064
	c-0.2069702,0-0.3726196,0.1459351-0.4194946,0.3384399H5.604187V4.2817993L3.9057617,2.6387329H0v7.7451782h5.604187V6.9165039
	h0.9934692c0.0613403,0.1691284,0.2196655,0.2915039,0.4099731,0.2915039c0.0576782,0,0.1121826-0.0126953,0.1626587-0.0328979
	l1.901001,2.3988647c-0.3579712,0.4647827-0.5793457,1.039978-0.5793457,1.6719971C8.4919434,12.7669678,9.7249756,14,11.2459717,14
	S14,12.7669678,14,11.2459717C14,9.7249146,12.7669678,8.4918823,11.2459717,8.4918823z M9.9335327,4.5787964h2.6248169
	c-0.3704834,0.267334-0.8215942,0.4292603-1.3123779,0.4292603S10.3040161,4.8461304,9.9335327,4.5787964z M12.3707886,1.7921143
	v2.5911865h-2.2496948V1.1247559h1.5823364v0.6673584H12.3707886z M13.5,2.7540283
	c0,0.7484131-0.3706055,1.407959-0.9337158,1.8181763V1.7034912l-0.800293-0.774231H9.9335327
	C10.3040161,0.6619263,10.755188,0.5,11.2459717,0.5C12.4888306,0.5,13.5,1.5111694,13.5,2.7540283z M9.9255981,0.9358521v3.6363525
	C9.3625488,4.1619873,8.9919434,3.5024414,8.9919434,2.7540283S9.3625488,1.3460693,9.9255981,0.9358521z M5.18927,9.9689331
	H0.414917V3.0536499h3.3580933v1.4162598H5.18927V9.9689331z M8.9919434,11.2459717
	c0-0.7484131,0.3706055-1.40802,0.9336548-1.8182373v3.6364136C9.3625488,12.6539307,8.9919434,11.9943848,8.9919434,11.2459717z
	 M9.9335327,13.0707397h2.6248169C12.1878662,13.3380737,11.7367554,13.5,11.2459717,13.5
	S10.3040161,13.3380737,9.9335327,13.0707397z M12.3707886,10.2840576v2.5911255h-2.2496948V9.6166992h1.5823364v0.6673584
	H12.3707886z M12.5662842,13.0641479v-2.8687744l-0.800293-0.7741699H9.9334717
	c0.3705444-0.267334,0.8217163-0.4293213,1.3125-0.4293213c1.2428589,0,2.2540283,1.0111694,2.2540283,2.2540894
	C13.5,11.9943848,13.1293945,12.6539307,12.5662842,13.0641479z"/>
</svg>
