<?xml version="1.0" encoding="utf-8"?>

<!--
 ~   Copyright 2017, WSO2 Inc. (http://www.wso2.com)
 ~
 ~   Licensed under the Apache License, Version 2.0 (the "License");
 ~   you may not use this file except in compliance with the License.
 ~   You may obtain a copy of the License at
 ~
 ~        http://www.apache.org/licenses/LICENSE-2.0
 ~
 ~   Unless required by applicable law or agreed to in writing, software
 ~   distributed under the License is distributed on an "AS IS" BASIS,
 ~   WITHOUT WARRANTIES OR CONDITIONS OF ANY KIND, either express or implied.
 ~   See the License for the specific language governing permissions and
 ~   limitations under the License.
-->

<svg version="1.1" id="web-app" xmlns="http://www.w3.org/2000/svg" xmlns:xlink="http://www.w3.org/1999/xlink" x="0px" y="0px"
	 viewBox="0 0 14 14" style="enable-background:new 0 0 14 14;" xml:space="preserve">
<path d="M7.0900269,13.7564087H14V7.7716064H7.0900269V13.7564087z M13.2193604,8.2438354V8.0799561H13.24823h0.5011597v0.5300903
	h-0.5300293V8.2438354z M12.5254517,8.0799561h0.5300903v0.5300903h-0.5300903V8.0799561z M11.8219604,8.0799561h0.5300293
	v0.5300903h-0.5300293V8.0799561z M7.3406372,8.9376831h6.418457v0.3373413h-6.418457V8.9376831z M7.3309326,9.6026611h6.418457
	v3.758606h-6.418457V9.6026611z M12.0725098,11.7229004l0.5975342,0.7999268l-0.3469238,0.2891235l-0.6456909-0.8384399
	l-0.4433594,0.2987671l-0.3951416-1.9852905l1.6769409,1.1468506l-0.4337158,0.2794189L12.0725098,11.7229004z M3.8300171,7.6599731
	C3.8200073,7.5499878,3.8099976,7.4500122,3.8099976,7.3400269h10.1799927C14.0058594,7.2647095,14,6.8200073,14,6.75
	c-0.0100098-0.0300293-0.0100098-0.0599976-0.0100098-0.0900269c-0.0800171-1.75-0.7999878-3.3699951-2.039978-4.6099854
	C10.6400146,0.7399902,8.8900146,0.0100098,7.0300293,0H6.9699707C3.2299805,0.0200195,0.1900024,2.9699707,0.0100098,6.6599731
	c-0.0080566,0.0615845-0.0119629,0.598877,0,0.6800537c0.1699829,3.5899658,3.0499878,6.4699707,6.6499634,6.6399536v-0.7999878
	c-0.9699707-0.8300171-1.7199707-1.8599854-2.2099609-3C5.1699829,9.9500122,5.9099731,9.8200073,6.6599731,9.789978V9.1099854
	C5.8300171,9.1400146,5.0100098,9.2800293,4.210022,9.539978C4.0100098,8.9299927,3.8800049,8.2999878,3.8300171,7.6599731z
	 M12.1300049,3.3300171c0.6799927,0.9500122,1.1099854,2.0899658,1.1799927,3.3299561h-2.4299927
	c-0.039978-0.8299561-0.1900024-1.6499634-0.4500122-2.4299927C11.0200195,4,11.5900269,3.7000122,12.1300049,3.3300171z
	 M11.7000122,2.7999878c-0.4800415,0.3200073-0.9800415,0.5800171-1.5100098,0.7900391
	C9.8499756,2.7700195,9.3800049,2,8.789978,1.3099976C8.6500244,1.1400146,8.5100098,0.9799805,8.3499756,0.8300171
	C9.6699829,1.1199951,10.8300171,1.8200073,11.7000122,2.7999878z M7.3400269,0.6900024c0.0099487,0,0.0099487,0,0.0199585,0
	L7.3400269,0.710022V0.6900024z M7.3400269,0.8200073C7.6699829,1.0999756,7.9799805,1.4099731,8.2600098,1.75
	c0.539978,0.6300049,0.9699707,1.3300171,1.289978,2.0700073C8.8300171,4.0499878,8.0900269,4.1699829,7.3400269,4.2000122
	V0.8200073z M7.3400269,4.8900146C8.1699829,4.8599854,8.9899902,4.710022,9.789978,4.460022
	c0.2300415,0.7099609,0.3699951,1.4400024,0.4000244,2.1999512H7.3400269V4.8900146z M6.6599731,6.6599731H3.8099976
	c0-0.1099854,0.0100098-0.2099609,0.0200195-0.3199463C3.8800049,5.7000122,4.0100098,5.0700073,4.210022,4.460022
	c0.7999878,0.25,1.6199951,0.3999634,2.4499512,0.4299927V6.6599731z M6.6599731,0.6900024V0.710022L6.6400146,0.6900024
	C6.6500244,0.6900024,6.6500244,0.6900024,6.6599731,0.6900024z M6.6599731,0.8200073v3.3800049
	c-0.75-0.0300293-1.4899902-0.1500244-2.2099609-0.3800049C4.9400024,2.6799927,5.6900024,1.6500244,6.6599731,0.8200073z
	 M5.6500244,0.8300171C4.8599854,1.6300049,4.2399902,2.5700073,3.8099976,3.5900269
	C3.2800293,3.3800049,2.7800293,3.1099854,2.289978,2.789978C3.1599731,1.8200073,4.3300171,1.1199951,5.6500244,0.8300171z
	 M1.8599854,3.3300171C2.4099731,3.6900024,2.9799805,4,3.5700073,4.2299805
	C3.3499756,4.8900146,3.210022,5.5800171,3.1500244,6.289978c-0.0100098,0.1199951-0.0200195,0.25-0.0200195,0.3699951H0.6900024
	C0.7600098,5.4199829,1.1799927,4.2800293,1.8599854,3.3300171z M1.8599854,10.6699829
	C1.1799927,9.7199707,0.7600098,8.5800171,0.6900024,7.3400269h2.4400024c0,0.1199951,0.0100098,0.25,0.0200195,0.3699951
	C3.210022,8.4199829,3.3499756,9.1099854,3.5700073,9.7700195C2.9799805,10,2.4099731,10.2999878,1.8599854,10.6699829z
	 M5.6500244,13.1699829c-1.3200073-0.289978-2.4900513-0.9899902-3.3600464-1.9699707
	c0.4900513-0.3200073,0.9900513-0.5800171,1.5200195-0.7900391C4.2399902,11.4299927,4.8599854,12.3699951,5.6500244,13.1699829z"/>
</svg>
