<?xml version="1.0" encoding="utf-8"?>

<!--
 ~   Copyright 2017, WSO2 Inc. (http://www.wso2.com)
 ~
 ~   Licensed under the Apache License, Version 2.0 (the "License");
 ~   you may not use this file except in compliance with the License.
 ~   You may obtain a copy of the License at
 ~
 ~        http://www.apache.org/licenses/LICENSE-2.0
 ~
 ~   Unless required by applicable law or agreed to in writing, software
 ~   distributed under the License is distributed on an "AS IS" BASIS,
 ~   WITHOUT WARRANTIES OR CONDITIONS OF ANY KIND, either express or implied.
 ~   See the License for the specific language governing permissions and
 ~   limitations under the License.
-->

<svg version="1.1" id="wifi" xmlns="http://www.w3.org/2000/svg" xmlns:xlink="http://www.w3.org/1999/xlink" x="0px" y="0px"
	 viewBox="0 0 14 14" style="enable-background:new 0 0 14 14;" xml:space="preserve">
<path d="M1.4,6.3C0.9,5.9,0.5,5.4,0,4.9c3.7-3.8,10.2-3.9,14,0c-0.5,0.5-0.9,0.9-1.4,1.4C9.5,3.2,4.4,3.3,1.4,6.3z M10.1,8.8
	c0.5-0.5,0.9-0.9,1.4-1.4c-2.6-2.6-6.8-2.2-8.9,0C3,7.9,3.4,8.4,3.9,8.8C6,7.2,8,7.2,10.1,8.8z M5.1,10c0.6,0.7,1.3,1.3,1.9,1.9
	c0.6-0.6,1.3-1.3,1.9-1.9C7.8,8.9,6,9,5.1,10z"/>
</svg>
