<?xml version="1.0" encoding="utf-8"?>

<!--
 ~   Copyright 2017, WSO2 Inc. (http://www.wso2.com)
 ~
 ~   Licensed under the Apache License, Version 2.0 (the "License");
 ~   you may not use this file except in compliance with the License.
 ~   You may obtain a copy of the License at
 ~
 ~        http://www.apache.org/licenses/LICENSE-2.0
 ~
 ~   Unless required by applicable law or agreed to in writing, software
 ~   distributed under the License is distributed on an "AS IS" BASIS,
 ~   WITHOUT WARRANTIES OR CONDITIONS OF ANY KIND, either express or implied.
 ~   See the License for the specific language governing permissions and
 ~   limitations under the License.
-->

<svg version="1.1" id="xq" xmlns="http://www.w3.org/2000/svg" xmlns:xlink="http://www.w3.org/1999/xlink" x="0px" y="0px"
	 viewBox="0 0 14 14" style="enable-background:new 0 0 14 14;" xml:space="preserve">
<path d="M12.0700073,5.2000122V2.9699707L8.9899902,0H1.9299927v5.2000122H1.8499756H0.9500122V9.5h0.8999634h0.0800171V14
	h10.1400146V9.5h0.9799805V5.2000122H12.0700073z M2.6799927,0.75h6.0800171v2.5599976h2.5599976v1.8900146H2.6799927V0.75z
	 M9.2700195,8.460022L9.0999756,8.7800293C9.0300293,8.7600098,8.960022,8.7299805,8.9000244,8.7000122
	c-0.0200195-0.0100098-0.1199951-0.0800171-0.3099976-0.210022c-0.1500244,0.0700073-0.3200073,0.1000366-0.5,0.1000366
	c-0.3500366,0-0.6300049-0.1000366-0.8300171-0.3099976c-0.2000122-0.210022-0.2999878-0.5-0.2999878-0.8700562
	c0-0.3799438,0.0999756-0.6699829,0.2999878-0.8799438C7.460022,6.3300171,7.7299805,6.2199707,8.0800171,6.2199707
	c0.3399658,0,0.6099854,0.1100464,0.7999878,0.3100586c0.2000122,0.2099609,0.2999878,0.5,0.2999878,0.8799438
	c0,0.1900024-0.0200195,0.3700562-0.0800171,0.5200195C9.0599976,8.039978,8.9899902,8.1500244,8.9000244,8.2600098
	C9.0100098,8.3400269,9.1400146,8.4099731,9.2700195,8.460022z M4.7600098,6.2600098h0.539978L5.7600098,7L6.210022,6.2600098H6.75
	L6.039978,7.3699951l0.7800293,1.1799927H6.2600098L5.75,7.7600098l-0.5100098,0.789978H4.6900024l0.7799683-1.1900024
	L4.7600098,6.2600098z M11.3200073,13.25H2.6799927V9.5h8.6400146V13.25z M10.7399902,11.710022l-1.5,0.7999878v-0.4500122l1-0.5
	l-1-0.4500122V10.710022l1.5,0.6999512V11.710022z M8.539978,12.6099854H8.1400146l0.5999756-2.3999634h0.4000244
	L8.539978,12.6099854z M8.5300293,6.8099976C8.6500244,6.9400024,8.710022,7.1400146,8.710022,7.4099731
	c0,0.1300049-0.0200195,0.2400513-0.0500488,0.3400269C8.6300049,7.8499756,8.5900269,7.9299927,8.5300293,8
	C8.3900146,7.9000244,8.2399902,7.8200073,8.0900269,7.7700195L7.960022,8.0300293
	C8.0599976,8.0599976,8.1500244,8.1099854,8.25,8.1699829C8.1900024,8.2000122,8.1300049,8.210022,8.0599976,8.210022
	c-0.1799927,0-0.3300171-0.0700073-0.4500122-0.2000122C7.5,7.8800049,7.4400024,7.6699829,7.4400024,7.4099731
	c0-0.2699585,0.0599976-0.4599609,0.1699829-0.5999756c0.1199951-0.1300049,0.2700195-0.1900024,0.460022-0.1900024
	S8.4099731,6.6799927,8.5300293,6.8099976z M7.9400024,12.5100098l-1.5-0.7999878v-0.3000488l1.5-0.6999512v0.3999634l-1,0.4500122
	l1,0.5V12.5100098z"/>
</svg>
