<?xml version="1.0" encoding="utf-8"?>

<!--
 ~   Copyright 2017, WSO2 Inc. (http://www.wso2.com)
 ~
 ~   Licensed under the Apache License, Version 2.0 (the "License");
 ~   you may not use this file except in compliance with the License.
 ~   You may obtain a copy of the License at
 ~
 ~        http://www.apache.org/licenses/LICENSE-2.0
 ~
 ~   Unless required by applicable law or agreed to in writing, software
 ~   distributed under the License is distributed on an "AS IS" BASIS,
 ~   WITHOUT WARRANTIES OR CONDITIONS OF ANY KIND, either express or implied.
 ~   See the License for the specific language governing permissions and
 ~   limitations under the License.
-->

<svg version="1.1" id="oauth2" xmlns="http://www.w3.org/2000/svg" xmlns:xlink="http://www.w3.org/1999/xlink" x="0px" y="0px"
	 viewBox="0 0 14 14" style="enable-background:new 0 0 14 14;" xml:space="preserve">
<path d="M7,0c3.865633,0,7,3.1343672,7,7s-3.134367,7-7,7s-7-3.134367-7-7S3.1343672,0,7,0z M13.6004963,7
	c0-3.6389577-2.9615383-6.6004963-6.6004963-6.6004963S0.3995037,3.3610423,0.3995037,7S3.3610423,13.6004963,7,13.6004963
	S13.6004963,10.638958,13.6004963,7z M10.3245659,7.0651364L9.8442926,7.5454092l0.4741936,0.4750624l0.481142-0.4802732
	L10.3245659,7.0651364z M10.3184862,8.0812654L9.8442926,8.555459l0.4802732,0.4811411l0.4750624-0.4741936L10.3184862,8.0812654z
	 M10.3184862,5.0267992L9.838213,5.507072l0.4802732,0.4802728l0.4802732-0.4802728L10.3184862,5.0267992z M10.3184862,6.0490074
	L9.8442926,6.523201l0.4802732,0.4802728l0.4741936-0.4741936L10.3184862,6.0490074z M10.3176174,11.1513643
	c-0.0173693-0.0260544-0.0434237-0.0521088-0.069478-0.0781631c-0.0260553-0.0260544-0.0521097-0.0434246-0.0781641-0.0521097
	c-0.0260544-0.0173693-0.0607939-0.0173693-0.0868483-0.0173693c-0.0347395,0-0.0607948,0.0173693-0.0955343,0.0347395
	c-0.0521088,0.0434246-0.0781631,0.0955334-0.0781631,0.1563272c0.0086842,0.0607939,0.0347395,0.1302729,0.0868483,0.1997519
	c0.0173702,0.0260544,0.0434246,0.0521097,0.069479,0.0781641s0.0521088,0.0434246,0.0781641,0.0521088
	c0.0260544,0.0086851,0.0607939,0.0173702,0.0868483,0.0173702s0.0607939-0.0173702,0.0868483-0.0347395
	c0.0347395-0.0347395,0.0607948-0.0607939,0.069479-0.0868492c0.0086851-0.0260544,0.0173702-0.0607939,0.0086851-0.0868483
	c0-0.0347395-0.0086851-0.0607939-0.0260544-0.0955334C10.3523569,11.2121592,10.3349876,11.1774197,10.3176174,11.1513643z
	 M9.8138962,6.5544667l-0.481142,0.4802728l0.481142,0.4802728l0.4802723-0.4802728L9.8138962,6.5544667z M9.8138962,8.5867243
	l-0.481142,0.4802732l0.481142,0.4811411l0.4802723-0.4811411L9.8138962,8.5867243z M9.8130274,4.5213399L9.3327541,5.0016131
	L9.8078165,5.476675l0.4802732-0.4811416L9.8130274,4.5213399z M9.8078165,5.5374689L9.3327541,6.0116625l0.481142,0.4811416
	l0.4741936-0.4750619L9.8078165,5.5374689z M9.8138962,7.5766749L9.3397026,8.050868l0.4741936,0.4741936l0.4741936-0.4741936
	L9.8138962,7.5766749z M8.8377171,4.4735732l0.0486355,0.0816379l0.4160051,0.4160047L9.78263,4.490943L9.3023577,4.0098014
	L8.8377171,4.4735732z M9.3023577,7.0651364L8.8281641,7.53933l0.4802723,0.4802728L9.78263,7.5454092L9.3023577,7.0651364z
	 M8.5545902,11.9156332l0.2171221,0.3039694l-0.0173702-0.3734484L8.5545902,11.9156332z M8.1585608,4.1435485
	C8.3522329,4.272953,8.5076923,4.4362283,8.6232014,4.6264267c0.0086842,0.0130272,0.0165005,0.0260549,0.0234489,0.0390821
	c0.1241932,0.2162528,0.1988831,0.4655085,0.222332,0.7382135c0.0008688,0.0191064,0.0026054,0.0382133,0.0034742,0.0573201
	C8.8741932,5.4914393,8.875062,5.5227046,8.875062,5.5539703c0.0008688,0.0104218,0.0008688,0.0199752,0.0008688,0.0303969
	s0,0.0208435-0.0008688,0.0312653c-0.0008688,0.069479-0.0052109,0.1372209-0.013896,0.2040944l0.2588091,0.0286603
	C9.1225805,5.8336229,9.1234493,5.8197269,9.125186,5.8040943l0.1771717,0.1771712L9.7765512,5.507072L9.3023577,5.0320101
	L9.1095533,5.2239456C9.1078167,5.2065759,9.1043425,5.1892061,9.1008682,5.1718364l0.171092-0.1702232L8.9488831,4.6794043
	C8.9297771,4.6368484,8.9089327,4.5951614,8.8863525,4.5552111L8.8377171,4.4735732
	C8.8307695,4.4614143,8.8229532,4.4492555,8.8133993,4.4370966l0.4576921-0.4576921L8.7968979,3.5052109L8.3452854,3.9568238
	C8.3339949,3.948139,8.3218365,3.9394541,8.3096771,3.9316378l0.4568243-0.4576924l-0.4802732-0.480273l-0.4811416,0.480273
	L8.1863527,3.855211c-0.041688-0.0243177-0.0851116-0.0468984-0.129405-0.0677421l-0.282258-0.282258L7.6435485,3.6363523
	C7.6270471,3.63201,7.6105461,3.6276674,7.5940447,3.6233251l0.1493797-0.1493797L7.2692308,2.9997518L6.7950373,3.4739454
	l0.069479,0.069479c-0.0199752,0-0.0399504,0.0008683-0.0599256,0.0017369l0.0043421,0.2596774
	C6.8349876,3.8039703,6.861042,3.8039703,6.8870969,3.8039703c0.062531,0,0.1233249,0.0017369,0.1823821,0.0060792
	c0.0217123,0,0.0434241,0.0017371,0.0651364,0.003474c0.0825062,0.006948,0.1615386,0.0165012,0.2388339,0.0303972
	c0.0182381,0.0026054,0.0356078,0.0052109,0.0529776,0.0095532c0.2666254,0.0512407,0.4993796,0.1415634,0.6947889,0.2657568
	C8.1333742,4.1270471,8.1464024,4.1357322,8.1585608,4.1435485z M8.2862282,10.1143923l-0.4741936,0.4741936l0.4802732,0.4802723
	l0.4741936-0.4741936L8.2862282,10.1143923z M7.27531,10.1143923l-0.4802728,0.4802723l0.4750619,0.4750624l0.4802732-0.4811411
	L7.27531,10.1143923z M9.3023577,9.0366001l0.4811411-0.4802723L9.3084364,8.0812654L9.1738214,8.2158813H9.1130276
	L9.2780399,8.050868L8.7977667,7.5705957L8.3166256,8.050868L8.481638,8.2158813H8.4208441L8.2862282,8.0812654L8.1516132,8.2158813
	H8.0899506L8.2549629,8.050868L7.9970222,7.7929282c0.0104222-0.0104222,0.020844-0.020844,0.0303969-0.0312657l0.2588091,0.2588091
	L8.7665014,7.53933L8.4825058,7.2553349C8.4911909,7.2440448,8.499876,7.2327542,8.5085611,7.2205954l0.2883368,0.2883377
	l0.4750624-0.4741936L8.8776674,6.6404467c0.0069475-0.013896,0.013896-0.0277915,0.0199757-0.0416875l0.4047146,0.4047146
	L9.78263,6.523201L9.3023577,6.0429282L9.0053349,6.3399506c0.0104218-0.0303974,0.0208435-0.0607944,0.0303974-0.0911913
	l0.236228-0.2362285l-0.152854-0.1528535C9.1199751,5.8562036,9.1199751,5.851861,9.1199751,5.8483872L8.861166,5.8197269
	C8.8368483,6.0220842,8.7812653,6.2157569,8.7004967,6.4024816C8.694417,6.4163771,8.6883373,6.4311414,8.6822577,6.4450374
	c-0.0538454,0.118114-0.1181135,0.2336226-0.1901979,0.3465261C8.4495039,6.8584366,8.4034739,6.9253101,8.3539705,6.9904466
	C8.3444166,7.0052109,8.333127,7.0199752,8.3218365,7.0338712v0.0008683
	C8.3131514,7.0460296,8.3044662,7.0573201,8.2957821,7.0686102C8.1611662,7.2423077,8.0083122,7.4107943,7.8433003,7.5775433
	c-0.0104218,0.0095534-0.020844,0.0199752-0.0312657,0.0303974c-0.1415629,0.1406946-0.2918115,0.2796526-0.4472704,0.416873
	L7.3187346,8.0630274l-0.0338712,0.027791L7.0955334,8.2488832L6.8436723,8.4590569v0.0173702h0.0251861h0.8016133h0.0616622
	h0.0972705h0.062531h0.7894545h0.0607939H8.851613h0.0625305h0.0660057v0.2379646v0.0607948v0.3838701H9.240695V9.0982628
	l0.0312653-0.0312653L9.240695,9.0357323V8.9749384L9.3023577,9.0366001z M6.2531018,10.1143923l-0.4741936,0.4741936
	l0.4802728,0.4802723l0.4750624-0.4741936L6.2531018,10.1143923z M6.2531018,6.0490074L5.7789083,6.523201l0.4741936,0.4741936
	L6.7272954,6.523201L6.2531018,6.0490074z M5.7485113,6.5544667L5.2673697,7.0347395l0.4741936,0.4741936l0.4811416-0.4811416
	L5.7485113,6.5544667z M5.7415633,5.5374689L5.2673697,6.0116625l0.4811416,0.4811416l0.4741936-0.4741936L5.7415633,5.5374689z
	 M5.2369728,6.0429282L4.7558312,6.523201l0.4811416,0.4811416L5.7172456,6.523201L5.2369728,6.0429282z M5.2369728,10.1083126
	l-0.4811416,0.4802732l0.4811416,0.4802723l0.4802728-0.4802723L5.2369728,10.1083126z M5.2534738,3.016253L5.1970224,3.0397022
	l-0.435112,0.4342432l0.4733253,0.473325l0.0086851-0.0052109l0.4672456-0.4681141L5.2534738,3.016253z M5.2369728,7.0651364
	L4.7627792,7.53933l0.4741936,0.4741931L5.7111664,7.53933L5.2369728,7.0651364z M6.0220842,7.789454
	c0.1806455-0.1676178,0.344789-0.3230767,0.4924321-0.4689827C6.5249381,7.3091812,6.5353599,7.2996278,6.5449133,7.289206
	c0.1763024-0.1754341,0.3291564-0.337841,0.4576921-0.490695C7.0121589,6.787221,7.0217123,6.7759304,7.0303969,6.7646403
	C7.2023573,6.5588088,7.3291564,6.3694787,7.414268,6.1870966c0.0060792-0.0138955,0.0121589-0.0277915,0.0182381-0.0425558
	c0.0529776-0.1233249,0.0859804-0.243176,0.0990076-0.3638954C7.5349874,5.7580647,7.5367246,5.7354836,7.5367246,5.712903
	c0.0008683-0.0078163,0.0017371-0.0165009,0.0017371-0.0243173c0-0.2596774-0.0885859-0.4898267-0.2831268-0.6409431
	C7.243176,5.0389576,7.2310176,5.030273,7.2188587,5.0215883C7.0712161,4.9225807,6.8705955,4.8635235,6.6091809,4.8635235
	c-0.0712156,0-0.1406946,0.0052109-0.2093048,0.0156326C6.3755584,4.8817616,6.3512406,4.8861041,6.3269229,4.891315
	C6.2861042,4.898263,6.2452855,4.9069481,6.2062035,4.9182382C6.189702,4.9217119,6.1740694,4.9260545,6.1584368,4.9312654
	C5.914392,5.0033498,5.6955333,5.1240697,5.5148883,5.2491317c-0.0121589,0.009553-0.0234489,0.0173697-0.0356078,0.0260544
	C5.4523573,5.2942929,5.4271712,5.3133993,5.4019852,5.3325062L5.3142681,5.1101737l-0.0399504-0.101613L5.2699752,4.9990072
	L5.2534738,4.9547148L5.0936723,4.5517368L4.8513646,4.6472707L4.7254343,4.5213399L4.2512407,4.9955335L4.7323823,5.476675
	l0.319603-0.3204718L5.069355,5.2004962L4.7627792,5.507072l0.4741936,0.4741936L5.7111664,5.507072L5.6668735,5.462779
	C5.6790323,5.4532256,5.6911912,5.444541,5.7033501,5.437593l0.0382133,0.0382133L5.897891,5.3203473
	c0.0408187-0.0225806,0.0816374-0.0425558,0.1215878-0.0599256L5.7728286,5.507072l0.4802732,0.4802728L6.7342434,5.507072
	L6.3738213,5.1466503C6.391191,5.1431761,6.4085608,5.1405706,6.4259305,5.1379652l0.3387098,0.337841l0.2640195-0.2640195
	c0.013896,0.0060792,0.0269232,0.0138955,0.0399504,0.0217118L6.7950373,5.507072l0.4359803,0.4359803
	C7.226675,5.9578166,7.2214642,5.9725804,7.2145162,5.9873447L6.7646403,5.5374689L6.2843671,6.0186105l0.4741936,0.4733248
	l0.4229531-0.4229527c-0.0182385,0.0408187-0.0399504,0.0825062-0.0642681,0.125062L6.7889576,6.523201l0.0564518,0.0564518
	C6.8367248,6.5909429,6.8271713,6.6022334,6.8176179,6.6135235L6.7585607,6.5535979L6.2834988,7.0277915l0.0008683,0.0008683
	l0.0755587,0.0755587C6.3503723,7.1155086,6.3399506,7.125062,6.3295283,7.1354837L6.2531018,7.0590572L5.7719603,7.53933
	l0.0660052,0.0660048c-0.0104222,0.0095534-0.020844,0.0191069-0.0321341,0.0286603L5.7424316,7.5705957L5.7415633,7.5697269
	L5.2673697,8.0447893l0.0425558,0.0425558L5.2777915,8.1160049l0.1745658,0.1928043l0.0095534-0.0086851l0.0321341-0.0286598
	l0.1858559-0.1684866c0.108561-0.0981388,0.2119107-0.1928039,0.3100495-0.2848635
	C6.0003724,7.8094292,6.0116625,7.7990074,6.0220842,7.789454z M5.2456574,2.1538463l0.1997519-0.069479L5.2282877,1.7803971
	L5.2456574,2.1538463z M4.7315135,7.5705957L4.2512407,8.050868l0.4741936,0.4741936l0.4811416-0.4811411L4.7315135,7.5705957z
	 M4.7254343,6.5535979L4.2512407,7.0286598l0.4811416,0.4802732l0.4741936-0.4741936L4.7254343,6.5535979z M4.7315135,5.5374689
	L4.2512407,6.0186105l0.4741936,0.4741936l0.4802728-0.4811416L4.7315135,5.5374689z M5.1657567,11.0593052
	c0.0191069,0.0086851,0.0382137,0.0165014,0.0573201,0.0234489c0.0147643,0.0060797,0.0295286,0.0121593,0.0442929,0.0173702
	l0.4811416-0.4802732l0.4802728,0.4802732l-0.2093053,0.2093048c0.0165014,0.0034742,0.0338712,0.0069485,0.0512409,0.0095539
	l0.1884613-0.1884623l0.2388339,0.2388344c0.0217123,0.0026054,0.0442929,0.0034733,0.0668736,0.0052109l-0.2744417-0.2744417
	l0.4741936-0.4750624l0.4741936,0.4750624l-0.2770472,0.2770472c0.0208435,0,0.041687-0.0008688,0.062531-0.0017376h0.0008683
	l0.2449131-0.2440443l0.1988835,0.1980152c0.0173697-0.0026054,0.0347395-0.0052109,0.0521092-0.0086851l-0.2205958-0.2205954
	l0.4802732-0.4802732l0.4802732,0.4802732L8.217618,11.143548c0.0208435-0.0069475,0.0425558-0.0147638,0.0642681-0.0225801
	l0.0104218,0.009553l0.0217123-0.0217123c0.0043421-0.0017366,0.0086842-0.0034733,0.0130272-0.0052109l-0.004343-0.0034733
	l0.4750624-0.4741936l0.1728287,0.1728287c0.0130272-0.0078163,0.0251865-0.0156326,0.0382137-0.0225811l-0.180645-0.180645
	l0.4802723-0.4811411l0.2353601,0.2353592l0.0312653-0.0303965l-0.2353592-0.2353601l0.4741936-0.4750614l0.2388334,0.2388334
	l0.0303974-0.0303974L9.8442926,9.578536l0.481142-0.4802732l0.1849871,0.184988
	c0.0078163-0.0130272,0.0156326-0.0260544,0.0225811-0.0390825l-0.1771717-0.1771708l0.4741936-0.4741936l0.0112906,0.0112906
	c0.0052109-0.0121593,0.009553-0.0243177,0.013896-0.0364771l0.0052109-0.0052109l-0.0017376-0.0026054
	c0.0104218-0.0295286,0.0208445-0.0590563,0.0312662-0.0885849l-0.059926,0.0599251L10.3497515,8.050868l0.4802732-0.4802723
	L11.0627794,7.80335c0.0026054-0.0173697,0.0060787-0.0347395,0.0086842-0.0529776L10.8604221,7.53933l0.2614145-0.2614145
	c0.0008678-0.0208435,0.0017366-0.041687,0.0017366-0.062531l-0.2935486,0.2935486l-0.4741936-0.4741936l0.4741936-0.4741936
	l0.2926798,0.2918115c-0.0017366-0.0217123-0.0026054-0.0434246-0.0043421-0.0651364l-0.2579403-0.2579408l0.2049627-0.2040939
	c-0.0026054-0.0173697-0.0060797-0.0356083-0.0095539-0.052978l-0.2258062,0.226675l-0.4802732-0.4802728l0.4802732-0.4811416
	l0.0364761,0.0364766c-0.0069475-0.0173697-0.0130272-0.0356083-0.0199747-0.0529776
	c-0.0052109-0.0147643-0.0112906-0.0303974-0.0165014-0.0451617l-0.4802732-0.4802728l0.1632757-0.1632752
	c-0.0078163-0.0130277-0.0156326-0.0260549-0.0234489-0.0382137l-0.1702232,0.171092L9.8442926,4.4900746l0.2414398-0.2414393
	L10.055335,4.2182384L9.8138962,4.4596772l-0.481142-0.4811413l0.2388344-0.2379651L9.5411911,3.7093053L9.3023577,3.948139
	L8.8281641,3.4739454l0.1545906-0.1545906C8.9697275,3.312407,8.9566994,3.3045905,8.9436722,3.2967741L8.7977667,3.4435484
	L8.384367,3.030149C8.3522329,3.016253,8.3200989,3.0040944,8.2879648,2.9919355H8.287097
	C8.2853594,2.9910669,8.2836227,2.9901986,8.2818861,2.9901986c-0.013896-0.0052111-0.0269232-0.0095534-0.0408192-0.013896
	L7.7746897,3.4435484L7.3004961,2.9693549l0.1841192-0.1849875c-0.0173697-0.003474-0.0347395-0.0060794-0.0521092-0.0086849
	L7.2700992,2.9389579L7.0703473,2.7392058C7.048635,2.737469,7.0269232,2.7366004,7.0043426,2.7348635l0.2344913,0.2344913
	L6.7646403,3.4435484l-0.4802732-0.480273L6.5058312,2.740943C6.4832506,2.7418115,6.4615383,2.7435484,6.4398265,2.7461538
	L6.2531018,2.9320099l-0.145906-0.1459057C6.0889578,2.7887096,6.071588,2.7921836,6.0550866,2.7956576l0.1676183,0.1676178
	l-0.4811416,0.480273L5.2977667,2.9997518C5.2830024,3.0049627,5.2682381,3.0110421,5.2534738,3.016253L5.1970224,3.0397022
	c-0.0347395,0.0130274-0.069479,0.0269232-0.1033502,0.0416875L4.7315135,3.4435484l-0.118114-0.1181142
	c-0.0130272,0.006948-0.0251861,0.0147643-0.0382133,0.0225806l0.1259303,0.1259305L4.2208438,3.9550869L4.0150123,3.7492557
	C4.0037222,3.7579405,3.9924319,3.7674937,3.9811413,3.7770472l0.2084367,0.2084367L3.7153847,4.4596772L3.5086849,4.2529778
	C3.4991314,4.2642679,3.4895782,4.2755585,3.4808934,4.2868485L3.6849875,4.490943L3.2038462,4.9712157L3.0813897,4.8487592
	C3.0744417,4.8617864,3.0666254,4.8739452,3.058809,4.8869729l0.11464,0.1146402L2.8295286,5.3455334
	C2.8138957,5.3802729,2.8,5.4150124,2.7869728,5.4497519l0.4168735-0.4177418L3.6789081,5.507072L3.2038462,5.9812655
	L2.7539701,5.5313897C2.7478907,5.5452852,2.7426798,5.5600495,2.7366004,5.5748138L3.173449,6.0116625L2.6931763,6.4928041
	L2.5368485,6.3364763C2.5333748,6.3538461,2.5307693,6.3712158,2.5281637,6.3894539L2.6619108,6.523201L2.4925559,6.6925559
	C2.4899504,6.7151365,2.4882133,6.7377172,2.487345,6.7602978l0.2058313-0.2058311L3.173449,7.0347395L2.6992555,7.5089331
	l-0.216253-0.2162533C2.4847395,7.3152604,2.4856079,7.337841,2.4882133,7.3595533l0.1806452,0.180645L2.5229528,7.6852355
	C2.5255582,7.703474,2.5281637,7.7217121,2.5307693,7.7390819l0.1684861-0.1684861L3.173449,8.0447893L2.7227046,8.4955339
	L2.6931763,8.5250616L2.6619108,8.5563278l0.0303969,0.0303965l0.1059554,0.1050873v0.0008688l0.375186,0.375186
	L3.0440447,9.1972704C3.0509925,9.2094297,3.058809,9.2224569,3.0666254,9.2354841l0.1372209-0.1372213l0.4750619,0.4741936
	L3.4426799,9.8078165L3.4739454,9.838213l0.2353599-0.2353592l0.4802728,0.4811411l-0.2327542,0.2318859l0.0303969,0.0312653
	l0.233623-0.2327538l0.4741936,0.4741936l-0.1545906,0.1545906c0.0121589,0.0069475,0.0251861,0.0147638,0.0382133,0.0225801
	l0.1467743-0.1467743l0.4394541,0.4403229H5.1657567z M7,0.6774194c3.4826307,0,6.3225803,2.8399503,6.3225803,6.3225808
	S10.4826307,13.3225803,7,13.3225803S0.6774194,10.4826307,0.6774194,7S3.5173697,0.6774194,7,0.6774194z M10.6736975,11.342432
	c0.0173693-0.069479,0.0086851-0.1302729-0.0086851-0.1997519c-0.0173693-0.0607939-0.0521088-0.1302729-0.0955334-0.1910677
	c-0.0521097-0.0607939-0.1042185-0.1129026-0.1650124-0.1563272c-0.0607939-0.0347395-0.1215878-0.0607939-0.1910667-0.069479
	s-0.1302729,0-0.1997519,0.0173702c-0.0607948,0.0173693-0.1302738,0.0521088-0.1910677,0.0955334
	s-0.1129026,0.0955334-0.1476421,0.1563272c-0.0347395,0.0521097-0.0607939,0.1129036-0.069479,0.1823826
	c-0.0173702,0.0607939-0.0086851,0.1302729,0.0086851,0.1997519c0.0173693,0.069479,0.0521088,0.138958,0.1042175,0.208436
	c0.0434246,0.0521097,0.0955343,0.1042185,0.1476431,0.138958c0.0607939,0.0347395,0.1129036,0.0607939,0.1823826,0.0781641
	c0.069478,0.0086851,0.138957,0.0086851,0.208436-0.0086851c0.069479-0.0173693,0.1476431-0.0521088,0.1997519-0.1129026
	c0.0607939-0.0434246,0.1129036-0.0955343,0.1476431-0.1563282C10.638958,11.4727049,10.6563272,11.411911,10.6736975,11.342432z
	 M10.083127,3.2741935l0.5645161-0.8424318l-0.277916-0.1823821l-0.1910667,0.2866006L9.9181137,2.362283l0.1910677-0.2866006
	l-0.277916-0.1823821L9.2667494,2.7357321l0.277916,0.1823821l0.2171211-0.3213401l0.2605457,0.1736975L9.8052111,3.0918114
	L10.083127,3.2741935z M9.0062037,1.8064516l0.0781631-0.251861l-0.8858557-0.260546L8.1116629,1.5372208L8.398263,1.6240695
	L8.189826,2.3362284l0.3213406,0.0955334l0.208436-0.7121588L9.0062037,1.8064516z M9.0235729,12.4540939l0.0173702-1.0769224
	L8.7282877,11.48139l0.0086851,0.138957l-0.3126554,0.1042185l-0.0781631-0.1129026l-0.3126554,0.1042185l0.6687346,0.8424311
	L9.0235729,12.4540939z M7.5818858,12.8014889l-0.0173697-0.5732012c0-0.0868483-0.0086846-0.1563272-0.0347395-0.2171211
	c-0.0260544-0.0521097-0.0521092-0.1042185-0.0955334-0.138958s-0.0955334-0.0607939-0.1563277-0.0781641
	c-0.0607939-0.0086851-0.1302729-0.0173693-0.2084365-0.0173693c-0.1650124,0.0086842-0.2866006,0.0434237-0.3647642,0.1215878
	c-0.0781641,0.0781641-0.1129036,0.1910667-0.1129036,0.3560791l0.0086851,0.5732012l0.3300247-0.0086851l-0.0086846-0.6079397
	c0-0.0607948,0.0086846-0.1042185,0.0347395-0.138958c0.0260544-0.0347395,0.0694785-0.0521097,0.1215878-0.0521097
	c0.0260549-0.0086842,0.0607944,0,0.0781641,0.0086851c0.0260544,0.0086851,0.0434241,0.0173702,0.0521088,0.0347395
	c0.0173697,0.0173702,0.0260549,0.0434246,0.0260549,0.0607939c0.0086846,0.0260544,0.0086846,0.0521097,0.0086846,0.0781641
	l0.0086851,0.6079407L7.5818858,12.8014889z M7.4081888,1.7456576L7.3995037,1.1724566L7.069479,1.1811415l0.0086846,0.6079404
	c0,0.060794-0.0086846,0.1042184-0.0347395,0.1389577C7.0173697,1.9627792,6.9739456,1.9801489,6.9218364,1.9801489
	c-0.0260549,0.0086849-0.0607944,0-0.0781641-0.0086849C6.8176179,1.9627792,6.8002481,1.9540943,6.7915635,1.9367245
	c-0.0173697-0.0173697-0.0260549-0.0434242-0.0260549-0.060794C6.756824,1.8498759,6.756824,1.8238213,6.756824,1.7977668
	L6.7481389,1.1898263L6.4181142,1.1985111l0.0173697,0.5732011c0,0.0868486,0.0086846,0.1563275,0.0347395,0.2171216
	c0.0260544,0.0521091,0.0521092,0.1042184,0.0955334,0.1389579c0.0434241,0.0347393,0.0955334,0.0607939,0.1563277,0.0781636
	C6.7828784,2.2146401,6.8523574,2.223325,6.930521,2.223325c0.1650124-0.0086849,0.2866006-0.0434244,0.3647642-0.121588
	C7.3734493,2.0235732,7.4081888,1.9106699,7.4081888,1.7456576z M5.9665012,2.2841191L5.2977667,1.4416873L4.9764266,1.5459057
	l-0.0173697,1.076923l0.3126554-0.1042182l-0.0086851-0.138958l0.312655-0.1042182l0.0781641,0.1129031L5.9665012,2.2841191z
	 M5.8014889,12.7059555l0.0868487-0.2431765L5.601737,12.3759308l0.2084365-0.7121592l-0.3213396-0.0955334l-0.208437,0.7121592
	l-0.2866006-0.0868492l-0.0781636,0.2518616L5.8014889,12.7059555z M4.1687346,12.1066999l0.5645161-0.842432l-0.2779155-0.1823816
	l-0.2171216,0.3213396l-0.260546-0.1736975l0.2171214-0.3213396l-0.2779155-0.1823826l-0.5645161,0.842432l0.2779155,0.1823816
	l0.191067-0.2866001l0.260546,0.1736975l-0.191067,0.2866001L4.1687346,12.1066999z M4.3945408,2.8225806
	c0.0173697-0.0607939,0.0086851-0.1302729-0.0086846-0.1997519C4.3684864,2.55335,4.3337469,2.483871,4.2816377,2.414392
	C4.2382135,2.362283,4.1861043,2.3101737,4.1339951,2.2754343C4.0732012,2.2406948,4.0210919,2.2146401,3.9516129,2.1972704
	C3.882134,2.1885855,3.812655,2.1885855,3.7431762,2.2059553C3.6650124,2.223325,3.5955336,2.2580645,3.5434244,2.3188586
	C3.4826303,2.362283,3.430521,2.414392,3.3957818,2.4751861c-0.0347395,0.0521092-0.0607941,0.1129031-0.069479,0.1823821
	C3.308933,2.7270472,3.3176179,2.7878411,3.3349876,2.8573201c0.0173697,0.0607941,0.0521092,0.1302729,0.0955334,0.191067
	c0.0521092,0.0607941,0.1042185,0.1129034,0.1650126,0.1563275c0.0607939,0.0347395,0.121588,0.0607941,0.191067,0.069479
	c0.0694788,0.0086849,0.1302729,0,0.1997519-0.0173697C4.0471463,3.239454,4.1166253,3.2047145,4.1774192,3.1612904
	C4.2382135,3.117866,4.2903228,3.0657568,4.3250618,3.0049627C4.3598013,2.9528537,4.3858562,2.8920596,4.3945408,2.8225806z
	 M5.3872209,4.1600494C5.4002481,4.1539702,5.414144,4.1470222,5.4280396,4.1400743
	c0.2066998-0.104218,0.4420595-0.1910667,0.7000003-0.2492554C6.1445408,3.885608,6.1610422,3.882134,6.1775436,3.8795285
	C6.2383375,3.8656328,6.3000002,3.8543425,6.3633995,3.844789c0.0234489-0.0043423,0.0468984-0.0078163,0.0712161-0.0104218
	C6.555335,3.8178661,6.680397,3.8074441,6.8089328,3.8048387L6.8045907,3.5451612L6.7646403,3.5052109L6.7220845,3.5477667
	c-0.0217123,0-0.0434246,0.0017371-0.0642681,0.003474l0.076427-0.0764267L6.2531018,2.9936724L5.7728286,3.4748139
	l0.1884618,0.1884615c-0.0156326,0.003474-0.0321341,0.0078163-0.0477667,0.0130272l-0.171092-0.1710918l-0.375186,0.3743176
	c-0.0416875,0.0191066-0.0825062,0.0399504-0.1233249,0.062531L5.2352357,3.9472704
	C5.2222085,3.9533498,5.2083125,3.9602978,5.1952853,3.9681141L4.7315135,3.5043423L4.2512407,3.9854839l0.4741936,0.4741933
	l0.0373449-0.0373449L4.780149,4.467494L4.7566996,4.490943l0.0547147,0.0547147l0.0399504,0.101613l0.2423077-0.0955338
	L5.0285358,4.3858562C5.1344914,4.3059554,5.2543426,4.2303972,5.3872209,4.1600494z M4.6898265,9.5837469v0.0607939
	l-0.4385858,0.4394541l0.4741936,0.4741936l0.4811416-0.4802732L4.9512405,9.8225803h0.0616627l0.2240696,0.2240696
	l0.2240696-0.2240696h0.0607939l-0.2544665,0.254467l0.4811416,0.4811411l0.4741936-0.4750614L5.9612904,9.8225803H6.022953
	l0.2301488,0.2301493l0.2301488-0.2301493h0.0616627l-0.2605462,0.2614145l0.4802732,0.4802732l0.4802728-0.4802732
	L6.9843674,9.8225803h0.0616622l0.2301493,0.2301493l0.2301488-0.2301493h0.0607939L7.3065758,10.083127l0.4741936,0.4750614
	l0.4750624-0.4741936l-0.261415-0.2614145h0.0607944l0.2310171,0.2310181l0.2310171-0.2310181h0.059926l-0.2605457,0.2614145
	l0.4802723,0.4802732l0.481142-0.4802732L9.0166254,9.8225803h0.0616627l0.2301483,0.2301493L9.78263,9.578536L9.3023577,9.0973949
	L9.240695,9.1590567H8.9801493v0.2006207v0.0607939v0.1415634H8.8385859H8.7560797h-0.928412H7.733871H6.805459H6.7229528h-0.939702
	H5.7007446H4.9503722V9.3848639V9.3223324V8.8116627V8.7630272l0.006948-0.0060797l0.4950371-0.4481382L5.2777915,8.1160049
	L5.2369728,8.0751858L4.7558312,8.555459L4.773201,8.5728292L4.7401986,8.6014891L4.7254343,8.5867243L4.2512407,9.0609179
	l0.4385858,0.4385862v0.0616617V9.5837469z M4.2208438,5.0267992L3.7397022,5.507072l0.4811416,0.4811416L4.7011166,5.507072
	L4.2208438,5.0267992z M4.219975,7.0590572L3.7397022,7.53933l0.4811416,0.4811416l0.4802728-0.4802732L4.219975,7.0590572z
	 M4.219975,4.0158811L3.7457817,4.4900746l0.4750621,0.4750619L4.6950374,4.490943L4.219975,4.0158811z M4.2208438,8.0812654
	L3.7466502,8.5563278l0.4741936,0.4741936L4.6950374,8.555459L4.2208438,8.0812654z M4.2208438,6.0490074L3.7457817,6.523201
	L4.219975,6.9973946L4.6950374,6.523201L4.2208438,6.0490074z M4.2208438,9.0921841L4.219975,9.0913153L3.7397022,9.5724564
	l0.4811416,0.4802732l0.4689827-0.4689827V9.5611658L4.2208438,9.0921841z M3.7093053,5.5374689L3.2351117,6.0125308
	l0.480273,0.4802732l0.4750621-0.4741936L3.7093053,5.5374689z M3.7093053,7.5697269L3.2351117,8.0447893l0.480273,0.4802723
	L4.1904469,8.050868L3.7093053,7.5697269z M3.7153847,4.5213399L3.2342432,5.0016131L3.7093053,5.476675l0.4802728-0.4811416
	L3.7153847,4.5213399z M3.7153847,6.5535979l-0.480273,0.4811416l0.4741936,0.4741936l0.4802728-0.4811416L3.7153847,6.5535979z
	 M3.7153847,8.5867243l-0.480273,0.4802732l0.4741936,0.4750624l0.4802728-0.481142L3.7153847,8.5867243z M4.0037222,2.605459
	C3.9863524,2.5794044,3.9602978,2.55335,3.9342432,2.5272954S3.882134,2.483871,3.8560793,2.4751861
	S3.7952855,2.4578164,3.7692308,2.4578164S3.7084367,2.4751861,3.6823821,2.4925559
	C3.6476426,2.5272954,3.621588,2.55335,3.6129031,2.5794044C3.6042182,2.605459,3.5955336,2.6401985,3.6042182,2.6662531
	c0.0086849,0.0260546,0.0086849,0.0607941,0.0260546,0.0955336c0.0173697,0.0260544,0.0347395,0.0607939,0.0521092,0.0868485
	s0.0434244,0.0521092,0.069479,0.0781639s0.0521092,0.0434244,0.0781636,0.0521092
	c0.0260546,0.0173695,0.0607941,0.0173695,0.0868487,0.0173695c0.0347395,0,0.0607941-0.0173695,0.0955334-0.0347393
	c0.0521092-0.0434244,0.0781641-0.0955336,0.0781641-0.1563277C4.0818858,2.744417,4.0558314,2.674938,4.0037222,2.605459z
	 M3.2047145,6.0429282L2.7235732,6.523201l0.4811413,0.4811416l0.480273-0.4811416L3.2047145,6.0429282z M3.2038462,8.0751858
	L2.7235732,8.555459l0.0338709,0.0338707l0.4472704,0.4472704l0.480273-0.4802723L3.2038462,8.0751858z M3.2047145,7.0651364
	L2.7296526,7.53933l0.4741936,0.4741931L3.6789081,7.53933L3.2047145,7.0651364z"/>
</svg>
