<?xml version="1.0" encoding="utf-8"?>

<!--
 ~   Copyright 2017, WSO2 Inc. (http://www.wso2.com)
 ~
 ~   Licensed under the Apache License, Version 2.0 (the "License");
 ~   you may not use this file except in compliance with the License.
 ~   You may obtain a copy of the License at
 ~
 ~        http://www.apache.org/licenses/LICENSE-2.0
 ~
 ~   Unless required by applicable law or agreed to in writing, software
 ~   distributed under the License is distributed on an "AS IS" BASIS,
 ~   WITHOUT WARRANTIES OR CONDITIONS OF ANY KIND, either express or implied.
 ~   See the License for the specific language governing permissions and
 ~   limitations under the License.
-->

<svg version="1.1" id="actioninvoke" xmlns="http://www.w3.org/2000/svg" xmlns:xlink="http://www.w3.org/1999/xlink" x="0px"
	 y="0px" viewBox="0 0 14 14" style="enable-background:new 0 0 14 14;" xml:space="preserve">
<path d="M11.9710331,3.4364922l2.0574675,2.1364105l-2.0748034,2.0596342l-0.5361929-0.539907l1.1444397-1.1355L5.5050921,6.0267467
	L5.4964242,5.2657995l7.1124597-0.0702748l-1.1864262-1.2315083L11.9710331,3.4364922z M7.7582712,10.035984L6.5718455,8.8044748
	l7.0806041-0.0702744l-0.0086679-0.7609468L6.6187854,8.0428705l1.1444392-1.1355004L7.2270322,6.3674626L5.1522284,8.4270973
	l2.0574675,2.1364107L7.7582712,10.035984z M2.6356235,4.3643765C1.1800088,4.3643765,0,5.5443854,0,7
	s1.1800088,2.6356239,2.6356235,2.6356239S5.2712469,8.455615,5.2712469,7S4.091238,4.3643765,2.6356235,4.3643765z
	 M3.3022249,8.4274044L3.2607765,8.0677271H3.2429638C3.0840209,8.2917547,2.7770965,8.4921455,2.3701475,8.4921455
	c-0.5778811,0-0.8728163-0.4069481-0.8728163-0.8197207c0-0.6902375,0.6131637-1.0677271,1.7161734-1.0615611V6.5516024
	c0-0.2356739-0.0647418-0.6604352-0.6487889-0.6604352c-0.2654757,0-0.5425985,0.0825543-0.74299,0.2123804L1.703546,5.7613406
	C1.9395627,5.6078787,2.2817698,5.507854,2.6414468,5.507854c0.8728163,0,1.085197,0.5956936,1.085197,1.1677518v1.0677266
	c0,0.2476635,0.0119894,0.4895034,0.047272,0.684072H3.3022249z M3.2254939,6.9705405
	c-0.5662346-0.0116463-1.2092001,0.088378-1.2092001,0.6429658c0,0.336041,0.2240274,0.495327,0.4895034,0.495327
	c0.3716664,0,0.6076829-0.2360168,0.6902375-0.4778571c0.0174699-0.0527525,0.0294592-0.1120138,0.0294592-0.1651087V6.9705405z"/>
</svg>
