<?xml version="1.0" encoding="utf-8"?>

<!--
 ~   Copyright 2017, WSO2 Inc. (http://www.wso2.com)
 ~
 ~   Licensed under the Apache License, Version 2.0 (the "License");
 ~   you may not use this file except in compliance with the License.
 ~   You may obtain a copy of the License at
 ~
 ~        http://www.apache.org/licenses/LICENSE-2.0
 ~
 ~   Unless required by applicable law or agreed to in writing, software
 ~   distributed under the License is distributed on an "AS IS" BASIS,
 ~   WITHOUT WARRANTIES OR CONDITIONS OF ANY KIND, either express or implied.
 ~   See the License for the specific language governing permissions and
 ~   limitations under the License.
-->

<svg version="1.1" id="android-logcat" xmlns="http://www.w3.org/2000/svg" xmlns:xlink="http://www.w3.org/1999/xlink" x="0px"
	 y="0px" viewBox="0 0 14 14" style="enable-background:new 0 0 14 14;" xml:space="preserve">
<path d="M12.456604,9.4961548c0.4495239-0.020874,0.8989258-0.0447998,1.3485718-0.0613403
	c0.144043-0.0053101,0.2086182-0.0593872,0.1923828-0.2306519c-0.0232544-0.2457886-0.0337524-0.4935303-0.0397949-0.7407227
	c-0.0043335-0.1786499-0.0731201-0.2570801-0.2382813-0.2479858c-0.3674927,0.0201416-0.7354736,0.0300293-1.1029663,0.0495605
	c-0.1308594,0.006958-0.2025146-0.0283813-0.2073364-0.1942139c-0.0181885-0.6234131-0.1891479-1.189209-0.5328369-1.6928101
	c-0.0584717-0.0856323-0.0906982-0.2212524-0.0824585-0.3288574c0.0371704-0.4850464,0.1092529-0.9671631,0.1389771-1.4525146
	c0.0499268-0.8158569,0.0797729-1.6347046-0.1001587-2.4390869c-0.118103-0.52771-0.3742065-0.6665039-0.8174438-0.4238892
	c-0.260437,0.1424561-0.5198364,0.3108521-0.7368164,0.5211182C9.7108765,2.8046875,9.1602173,3.3764648,8.6176147,3.9562988
	C8.4594116,4.1254272,8.3094482,4.1660156,8.0936279,4.1570435c-0.6864624-0.0285645-1.3756104-0.0484009-2.06073-0.0089111
	C5.7713623,4.163208,5.6046753,4.1151123,5.4315186,3.90802C4.8347168,3.1942749,4.1860962,2.5411377,3.4589844,1.9884033
	C3.3084106,1.8739624,3.1525879,1.7582397,2.984375,1.6835938C2.5979614,1.512085,2.3139648,1.6756592,2.2462158,2.12854
	C2.1800537,2.5709839,2.1521606,3.0209961,2.119812,3.46875C2.055603,4.3585205,2.203186,5.2328491,2.3012085,6.1096191
	c0.0195923,0.1748047-0.0175171,0.3024292-0.1045532,0.4356079c-0.28302,0.4329224-0.421814,0.9258423-0.4366455,1.4514771
	c-0.0067749,0.2407837-0.0880737,0.288208-0.281311,0.2756348C1.0704346,8.2457275,0.6609497,8.2438354,0.2526245,8.218689
	C0.0811768,8.2081299,0.0263062,8.2768555,0.0294189,8.4604492c0.0037842,0.2243042-0.0195923,0.4490967-0.0280151,0.6738281
	c-0.0100708,0.2694092,0.0291138,0.3062134,0.27771,0.3128662c0.5179443,0.013855,1.0358887,0.0303955,1.5534058,0.0560303
	c0.0681763,0.0033569,0.1339722,0.0661011,0.2008057,0.1013794c-0.0518188,0.0530396-0.09552,0.1312256-0.1567383,0.1550293
	c-0.4043579,0.1573486-0.8127441,0.3023071-1.2192993,0.4528198c-0.1724854,0.0638428-0.343811,0.1314697-0.520752,0.1992798
	c0.013916,0.0822754,0.0180664,0.1420898,0.0343018,0.1976929c0.0894165,0.3058472,0.1817627,0.6107178,0.281189,0.9431152
	c0.1112671-0.034668,0.1968994-0.0571289,0.2799683-0.0879517c0.6000366-0.2229614,1.2026367-0.4384766,1.7974854-0.6771851
	c0.1878662-0.0753784,0.3132935-0.0427856,0.4553223,0.1017456c0.4091797,0.4165039,0.87854,0.7353516,1.3978271,0.9580688
	c1.0669556,0.4575806,2.1811523,0.5891724,3.3138428,0.5175171c1.276001-0.0807495,2.4490356-0.4938354,3.4346924-1.4285889
	c0.1553345-0.1472778,0.3057861-0.163147,0.4890137-0.0917969c0.5457153,0.2125244,1.0934448,0.4186401,1.6412354,0.6244507
	c0.0869141,0.0326538,0.1782837,0.0509644,0.2844849,0.0806274c0.1137695-0.3890991,0.2206421-0.7544556,0.3306885-1.1305542
	c-0.1321411-0.0524292-0.2269287-0.0922241-0.3230591-0.1278076c-0.4388428-0.1625977-0.8789063-0.321167-1.315979-0.4893188
	c-0.052063-0.0200806-0.0882568-0.0897827-0.1318359-0.1364746c0.055603-0.0541992,0.1045532-0.1238403,0.1690063-0.1577148
	C12.3254395,9.480896,12.3953247,9.4989624,12.456604,9.4961548z M7.0941162,11.7427368
	c-2.5655518,0-4.6453857-1.5497437-4.6453857-3.4614868s2.079834-3.4614868,4.6453857-3.4614868
	S11.739502,6.3695068,11.739502,8.28125S9.659668,11.7427368,7.0941162,11.7427368z M4.0625,6.625h1.234375v0.75H4.0625V6.625z
	 M6,6.625h4.171875v0.75H6V6.625z M4.0625,8.046875h1.234375v0.75H4.0625V8.046875z M6,8.046875h4.171875v0.75H6V8.046875z
	 M4.0625,9.578125h1.234375v0.75H4.0625V9.578125z M6,9.578125h4.171875v0.75H6V9.578125z"/>
</svg>
