<?xml version="1.0" encoding="utf-8"?>

<!--
 ~   Copyright 2017, WSO2 Inc. (http://www.wso2.com)
 ~
 ~   Licensed under the Apache License, Version 2.0 (the "License");
 ~   you may not use this file except in compliance with the License.
 ~   You may obtain a copy of the License at
 ~
 ~        http://www.apache.org/licenses/LICENSE-2.0
 ~
 ~   Unless required by applicable law or agreed to in writing, software
 ~   distributed under the License is distributed on an "AS IS" BASIS,
 ~   WITHOUT WARRANTIES OR CONDITIONS OF ANY KIND, either express or implied.
 ~   See the License for the specific language governing permissions and
 ~   limitations under the License.
-->

<svg version="1.1" id="calendar" xmlns="http://www.w3.org/2000/svg" xmlns:xlink="http://www.w3.org/1999/xlink" x="0px" y="0px"
	 viewBox="0 0 14 14" style="enable-background:new 0 0 14 14;" xml:space="preserve">
<path d="M14,1.4008303h-3.4284048V0.42869C10.5715952,0.1932502,10.3542442,0,10.089469,0h-0.0382204
	C9.7857933,0,9.5690937,0.1932502,9.5690937,0.42869v0.9721398H4.4974313V0.42869C4.4974308,0.1932502,4.2807298,0,4.0152659,0
	H3.9777045C3.7122798,0,3.495579,0.1932502,3.495579,0.42869v0.9721398H0c0,0,0,0.4194403,0,0.9347601v1.6138997l14-0.0004702
	V1.4008303z M3.9744196,3.46455c-0.5243092,0-0.9491546-0.3783002-0.9491546-0.8438802
	c0-0.3109698,0.1890345-0.5821099,0.470314-0.7285099v0.63131c0,0.23599,0.2167008,0.4286599,0.4821255,0.4286599h0.0375614
	c0.2654638,0,0.4821649-0.1926699,0.4821649-0.4286599V1.9161801C4.7542987,2.0672603,4.923574,2.3261099,4.923574,2.6206703
	C4.923574,3.0862498,4.4987288,3.46455,3.9744196,3.46455z M10.0479641,3.46455
	c-0.5236607,0-0.9491539-0.3783002-0.9491539-0.8438802c0-0.3109698,0.1890326-0.5821099,0.4702835-0.7285099v0.63131
	c0,0.23599,0.2167006,0.4286599,0.4821644,0.4286599h0.0382118c0.2647753,0,0.4821253-0.1926699,0.4821253-0.4286599V1.91675
	c0.2562485,0.1510801,0.4255333,0.4099302,0.4255333,0.7039099C10.997118,3.0862498,10.5722723,3.46455,10.0479641,3.46455z
	 M0,4.4155884V14h13.9781227H14V4.4369507h-0.0218773V4.4155884H0z M9.7347641,5.4369507v1.8543701H7.4882798V5.4369507H9.7347641z
	 M7.4882798,8.2913208h2.2464843v1.8543091H7.4882798V8.2913208z M6.4898424,10.1456299H4.2433586V8.2913208h2.2464838V10.1456299z
	 M6.4898424,5.4369507v1.8543701H4.2433586V5.4369507H6.4898424z M0.9984373,5.4369507h2.2464838v1.8543701H0.9984373V5.4369507z
	 M0.9984373,8.2913208h2.2464838v1.8543091H0.9984373V8.2913208z M0.9984373,13v-1.8543701h2.2464838V13H0.9984373z M4.2433586,13
	v-1.8543701h2.2464838V13H4.2433586z M7.4882798,13v-1.8543701h2.2464843V13H7.4882798z M12.9796848,13H10.733201v-1.8543701
	h2.2464838V13z M12.9796848,10.1456299H10.733201V8.2913208h2.2464838V10.1456299z M12.9796848,7.2913208H10.733201V5.4369507
	h2.2464838V7.2913208z"/>
</svg>
