<?xml version="1.0" encoding="utf-8"?>

<!--
 ~   Copyright 2017, WSO2 Inc. (http://www.wso2.com)
 ~
 ~   Licensed under the Apache License, Version 2.0 (the "License");
 ~   you may not use this file except in compliance with the License.
 ~   You may obtain a copy of the License at
 ~
 ~        http://www.apache.org/licenses/LICENSE-2.0
 ~
 ~   Unless required by applicable law or agreed to in writing, software
 ~   distributed under the License is distributed on an "AS IS" BASIS,
 ~   WITHOUT WARRANTIES OR CONDITIONS OF ANY KIND, either express or implied.
 ~   See the License for the specific language governing permissions and
 ~   limitations under the License.
-->

<svg version="1.1" id="chat" xmlns="http://www.w3.org/2000/svg" xmlns:xlink="http://www.w3.org/1999/xlink" x="0px" y="0px"
	 viewBox="0 0 14 14" style="enable-background:new 0 0 14 14;" xml:space="preserve">
<path d="M13.1533203,11.085022l0.6300049,1.6300049l-1.710022-0.8900146
	c-1.5200195-0.8300171-1.7600098-0.8499756-2.1400146-1.0100098c-0.2099609,0.0700073-0.3499756,0.1100464-0.6199951,0.1700439
	c-0.3099976,0.0700073-0.6300049,0.1199951-0.9400024,0.1499634c0.0499878-0.039978,0.0800171-0.0899658,0.1199951-0.1400146
	c0.2399902-0.3099976,0.4100342-0.6399536,0.5400391-0.9699707c0.0100098,0,0.0299683-0.0100098,0.039978-0.0100098
	c0.3099976-0.0700073,0.4299927-0.0999756,0.6900024-0.2000122l0.1799927-0.0700073l0.1799927,0.0700073
	c0.0300293,0.0100098,0.9700317,0.5500488,2.1400146,1.1300049C12.043335,10.3450317,11.5933228,9.3850098,11.7733154,8.875
	c0.0999756-0.2799683,0.2600098-0.4799805,0.3999634-0.6499634l0.1100464-0.1300049
	c0.4599609-0.6099854,0.6999512-1.3099976,0.6999512-2.0100098c0-2.25-2.4499512-4.0900269-5.4699707-4.0900269
	c-2.75,0-5.0300293,1.5300293-5.4099731,3.5C1.7233276,5.6550293,1.3632812,5.8550415,1.043335,6.0950317V6.085022
	c0-2.8099976,2.8999634-5.0900269,6.4699707-5.0900269s6.4699707,2.2800293,6.4699707,5.0900269
	c0,0.9199829-0.3099976,1.8200073-0.9099731,2.6099854l-0.1199951,0.1500244
	c-0.1099854,0.1400146-0.1900024,0.2399902-0.2299805,0.3599854c-0.0100098,0.0499878-0.0100098,0.1099854-0.0100098,0.1799927
	C12.7133179,9.7550049,12.8433228,10.3250122,13.1533203,11.085022z M8.5733032,8.1950073
	c-0.25-0.8099976-0.7799683-1.3899536-1.4699707-1.8299561C6.2532959,5.8250122,5.333313,5.5750122,4.3632812,5.5750122
	c-0.289978,0-0.5799561,0.0200195-0.8800049,0.0599976c-0.5099487,0.0800171-1,0.2200317-1.4399414,0.4299927
	C1.7033081,6.2350464,1.3833008,6.4450073,1.0933228,6.7050171C1.0133057,6.7750244,0.9332886,6.8450317,0.8533325,6.9250488
	c-0.9899902,1.0199585-1.1199951,2.4799805-0.2900391,3.6300049c0.3200073,0.4599609,0.4100342,0.9499512,0.2999878,1.4799805
	c-0.0599976,0.3200073-0.1699829,0.6400146-0.2599487,0.9699707c0.0499878-0.0199585,0.0899658-0.0299683,0.1399536-0.0499878
	c0.6300049-0.2700195,1.25-0.5499878,1.8800049-0.8099976C2.6732788,12.125,2.7332764,12.1150513,2.793335,12.1150513
	c0.0299683,0,0.0699463,0.0099487,0.0999756,0.0099487c0.5,0.1400146,1,0.210022,1.4899902,0.210022
	c0.4400024,0,0.8800049-0.0499878,1.3099976-0.1599731c0.7399902-0.1800537,1.4100342-0.4900513,1.9500122-0.9900513
	C7.8032837,11.0450439,7.9533081,10.875,8.0933228,10.6950073C8.2332764,10.5150146,8.3533325,10.3250122,8.4332886,10.125
	C8.7233276,9.5250244,8.7833252,8.8850098,8.5733032,8.1950073z"/>
</svg>
