<?xml version="1.0" encoding="utf-8"?>

<!--
 ~   Copyright 2017, WSO2 Inc. (http://www.wso2.com)
 ~
 ~   Licensed under the Apache License, Version 2.0 (the "License");
 ~   you may not use this file except in compliance with the License.
 ~   You may obtain a copy of the License at
 ~
 ~        http://www.apache.org/licenses/LICENSE-2.0
 ~
 ~   Unless required by applicable law or agreed to in writing, software
 ~   distributed under the License is distributed on an "AS IS" BASIS,
 ~   WITHOUT WARRANTIES OR CONDITIONS OF ANY KIND, either express or implied.
 ~   See the License for the specific language governing permissions and
 ~   limitations under the License.
-->

<svg version="1.1" id="clean" xmlns="http://www.w3.org/2000/svg" xmlns:xlink="http://www.w3.org/1999/xlink" x="0px" y="0px"
	 viewBox="0 0 14.599 14" style="enable-background:new 0 0 14.599 14;" xml:space="preserve">
<path d="M8.3691797,3.7643297L4.2879996,8.1981544L3.4304962,6.9938502
	C3.0683806,6.2853627,3.6416278,5.7314887,3.6416278,5.7314887l0.6099634-0.6869626L0.0041739,1.108979L1.0314802,0
	l4.2495694,3.9375155L6.049377,3.0889299c0.6342559-0.571279,1.3217716-0.0589175,1.3217716-0.0589175L8.3691797,3.7643297z
	 M14.2946415,7.6255231c-0.0895452,0.2055349-0.1907749,0.4244161-0.294342,0.6268134
	c-1.2361002,2.4378233-3.2807503,4.112978-4.4482164,4.926692C8.5683804,13.9346256,8.0435343,14,8.0435343,14l-1.1696801-2.1334562
	c-0.9218946-1.4883757-2.0872693-3.1099634-2.0872693-3.1099634l4.1999998-4.6695571
	c0.7297668,0.6468019,2.1528912,1.3589177,3.2534447,1.8564577l-0.0200491-0.0143294l2.3748455,0.9642067
	c0,0-0.1128531,0.2963715-0.269557,0.6608853c-0.0130377,0.0328412-0.0236778,0.0564575-0.0236778,0.0564575
	C14.2994385,7.6158061,14.2967949,7.6204181,14.2946415,7.6255231z M13.5383072,7.3450184
	c0,0.0309348-3.7884378-1.7603931-4.4348087-2.200984L5.75565,8.7856092c0,0,2.3198037,3.5236778,2.6135297,4.2579947
	l0.9400997-0.5575027c-0.2546749-0.397233-0.5118704-0.7929888-0.7737398-1.1855478
	c-0.0730019-0.1094704-0.1463718-0.2186346-0.221034-0.3269978c-0.0846243-0.122818-0.1942186-0.2766304-0.117588-0.4327803
	c0.0659285-0.1343784,0.2276745-0.0512304,0.3201103,0.0071344c0,0,1.4096556,1.1749067,1.6154366,1.2918196l0.9401598-0.8512297
	L9.6320343,9.1962481c0,0-0.205843-0.411623,0.2347469-0.2647591c0,0,1.1749086,0.9400978,1.9671593,1.2038736L12.5682583,9.13727
	c0,0-1.3389921-1.3929892-1.4916363-1.6051664c0,0-0.1453257-0.24016,0.1408978-0.2160516
	c0,0,1.4928665,0.8821025,1.9091635,0.9101472C13.1266832,8.2261992,13.5672741,7.4039364,13.5383072,7.3450184z"/>
</svg>
