<?xml version="1.0" encoding="utf-8"?>

<!--
 ~   Copyright 2017, WSO2 Inc. (http://www.wso2.com)
 ~
 ~   Licensed under the Apache License, Version 2.0 (the "License");
 ~   you may not use this file except in compliance with the License.
 ~   You may obtain a copy of the License at
 ~
 ~        http://www.apache.org/licenses/LICENSE-2.0
 ~
 ~   Unless required by applicable law or agreed to in writing, software
 ~   distributed under the License is distributed on an "AS IS" BASIS,
 ~   WITHOUT WARRANTIES OR CONDITIONS OF ANY KIND, either express or implied.
 ~   See the License for the specific language governing permissions and
 ~   limitations under the License.
-->

<svg version="1.1" id="dial-up" xmlns="http://www.w3.org/2000/svg" xmlns:xlink="http://www.w3.org/1999/xlink" x="0px" y="0px"
	 viewBox="0 0 14 14" style="enable-background:new 0 0 14 14;" xml:space="preserve">
<path d="M0.0075734,4.0124216c0.1315918-0.7144775,0.3591919-1.3943481,0.7069702-2.0320435
	c0.0369873-0.0681152,0.114624-0.1311035,0.1879883-0.1600342c1.5256348-0.6010132,3.1112673-0.9468383,4.743103-1.0807495
	c2.170105-0.1782837,4.3164058-0.0488892,6.424438,0.5307006c0.2891235,0.0794678,0.5761108,0.1680298,0.8601685,0.2642822
	c0.0760498,0.0258179,0.1606445,0.0811768,0.2017822,0.147583c0.4081421,0.6568604,0.6653442,1.3734131,0.8170776,2.1296387
	c0.0040894,0.0204468,0.0014038,0.0421753,0.0020142,0.0715942c-0.8696289,0.2216187-1.7382812,0.2653809-2.6062012,0.0222168
	c-0.3145142-0.0880127-0.6202393-0.2077637-0.927002-0.3219604c-0.0430908-0.0159302-0.0978394-0.0819092-0.0970459-0.1238403
	C10.3297167,3.0065012,10.03864,2.7962961,9.6710863,2.657197C9.080327,2.4338083,8.4579515,2.3953562,7.8354545,2.379487
	C6.9175467,2.3559275,5.9997001,2.3747873,5.0949759,2.5458078C4.7546439,2.610261,4.4173026,2.7184763,4.0972953,2.8511057
	C3.7761281,2.9844065,3.5614674,3.224824,3.5950367,3.6139841C3.5983937,3.653718,3.5578663,3.7157297,3.5202687,3.7379465
	C2.4689381,4.3558664,1.3609669,4.605134,0.1595509,4.2516794C0.0243581,4.2118845-0.0194042,4.1588449,0.0075734,4.0124216z
	 M2.970525,6.0937204c0.6243286-0.4110107,0.7075806-1.0289307,0.6497803-1.7341309
	C3.0579884,4.686738,2.4835865,4.8981638,1.864507,4.9848948C1.2382863,5.0726633,0.6289113,4.985322,0.0273488,4.8072824
	c-0.0408325,0.3101807,0.0085449,0.8042603,0.0949097,1.0545044C0.216985,6.136323,0.3997243,6.3171701,0.6845143,6.3800974
	c0.6950073,0.1530151,1.3768311,0.1045532,2.0407715-0.1559448C2.8109791,6.1905222,2.8933766,6.1445627,2.970525,6.0937204z
	 M10.3377123,4.1419382c0.0171509,0.256958,0.0185547,0.4750366,0.0488281,0.6889648
	c0.0609131,0.4309082,0.2793579,0.7676392,0.6619263,0.9813232c0.151001,0.0844116,0.3156128,0.1559448,0.4829102,0.1980591
	c0.5578613,0.1409302,1.1240234,0.1564941,1.6882935,0.0430908c0.4716797-0.0948486,0.6912842-0.3295288,0.7485352-0.8063354
	c0.0303955-0.2528076,0.0216675-0.5101929,0.0317993-0.7973022C12.7284594,4.8313303,11.5295458,4.7288523,10.3377123,4.1419382z
	 M6.8828096,6.1284733H3.6252072V9.386076h3.2576025V6.1284733z M5.6786513,8.7279205H5.3082581V7.3314624
	c-0.1356239,0.1262708-0.294631,0.2207398-0.4788923,0.280601V7.2758102
	c0.0972748-0.0318017,0.2020326-0.0916634,0.3152084-0.1805201C5.2586851,7.0073686,5.336318,6.9044814,5.3784084,6.7866287
	h0.3002429V8.7279205z M10.3747931,6.1284733H7.1171904V9.386076h3.2576027V6.1284733z M9.3951149,8.3832483v0.3442039H8.0968676
	C8.110898,8.5974407,8.1529884,8.4739761,8.2231379,8.357995c0.0701504-0.1169176,0.2095156-0.2712479,0.417161-0.4639273
	c0.1664896-0.1552658,0.2693768-0.2609591,0.3067904-0.316144C8.9985323,7.5012264,9.0237865,7.4254642,9.0237865,7.350637
	c0-0.0818419-0.0224485-0.1454449-0.0664091-0.1894054C8.9124813,7.1163349,8.8516846,7.0938869,8.7731161,7.0938869
	c-0.0776329,0-0.1384296,0.0233836-0.1842613,0.0701504S8.5168343,7.2884369,8.5093517,7.3955331L8.1398935,7.359055
	C8.1623411,7.1556191,8.2315559,7.0087714,8.347538,6.9199142c0.1159821-0.0888567,0.2609587-0.1328177,0.4349318-0.1328177
	c0.1908083,0,0.3404627,0.0514436,0.4498968,0.1543307c0.1084995,0.1028872,0.1627483,0.2310281,0.1627483,0.3830204
	c0,0.0869861-0.0149651,0.1702313-0.0467663,0.2487993C9.317482,7.6518154,9.267909,7.7341251,9.2005653,7.8201761
	C9.1556692,7.8772316,9.074295,7.9595413,8.9573774,8.0671053C8.8404608,8.1737337,8.7665691,8.2457542,8.7357025,8.2803621
	C8.7048368,8.3159046,8.6795826,8.349577,8.6599407,8.3832483H9.3951149z M6.8828096,9.6564846H3.6252072v3.2576027h3.2576025
	V9.6564846z M4.6118999,11.726531l0.3582339-0.0439615c0.0112243,0.0916634,0.0420899,0.1618137,0.0925984,0.2095156
	c0.0495729,0.0486374,0.1103697,0.0729561,0.1814551,0.0729561c0.0766978,0,0.1412358-0.0289946,0.193615-0.0869856
	c0.0523787-0.057991,0.078568-0.1365595,0.078568-0.2347698c0-0.0935335-0.0252538-0.1674252-0.0757623-0.2216749
	c-0.0495725-0.0542498-0.1113048-0.0813742-0.1833258-0.0813742c-0.0467668,0-0.1038222,0.0084181-0.1702313,0.0271244
	l0.0411549-0.3021135c0.100081,0.0028057,0.1767788-0.0187063,0.2291574-0.064538
	c0.0533142-0.0467672,0.0795035-0.107564,0.0795035-0.1842613c0-0.0650063-0.0196419-0.1164494-0.057991-0.1547985
	c-0.0383487-0.0392838-0.0897923-0.057991-0.1543303-0.057991c-0.0636029,0-0.1169171,0.021513-0.1618133,0.0654736
	c-0.0448961,0.0439615-0.072021,0.1084995-0.0823097,0.1922121l-0.3413978-0.057991
	c0.0243187-0.1164494,0.0598612-0.2099829,0.1075635-0.2801332c0.0477023-0.0692148,0.1150465-0.1244001,0.2001619-0.1646194
	c0.086051-0.0402193,0.1823907-0.0598612,0.288084-0.0598612c0.1823907,0,0.3283033,0.057991,0.4377375,0.1739721
	c0.0907278,0.0944691,0.136559,0.202033,0.136559,0.3217564c0,0.168828-0.0935335,0.3044519-0.2787304,0.405468
	c0.1113052,0.0243187,0.1992269,0.0766983,0.265636,0.1599426c0.0664086,0.0823097,0.100081,0.1823912,0.100081,0.2993078
	c0,0.1692963-0.0626674,0.3142729-0.186132,0.4339962c-0.1243997,0.1187878-0.2787304,0.1786499-0.4629917,0.1786499
	c-0.1749082,0-0.3198853-0.0505085-0.4349318-0.1505899C4.6970153,12.0202265,4.6296711,11.8883438,4.6118999,11.726531z
	 M10.3747931,9.6564846H7.1171904v3.2576027h3.2576027V9.6564846z M8.8418636,12.2554636v-0.3891001H8.0515041v-0.3245621
	l0.8380613-1.2266941h0.3114672v1.2257595h0.2394466v0.3254967H9.2010326v0.3891001H8.8418636z M8.8418636,11.5408669v-0.6603479
	l-0.4442854,0.6603479H8.8418636z"/>
</svg>
