<?xml version="1.0" encoding="utf-8"?>

<!--
 ~   Copyright 2017, WSO2 Inc. (http://www.wso2.com)
 ~
 ~   Licensed under the Apache License, Version 2.0 (the "License");
 ~   you may not use this file except in compliance with the License.
 ~   You may obtain a copy of the License at
 ~
 ~        http://www.apache.org/licenses/LICENSE-2.0
 ~
 ~   Unless required by applicable law or agreed to in writing, software
 ~   distributed under the License is distributed on an "AS IS" BASIS,
 ~   WITHOUT WARRANTIES OR CONDITIONS OF ANY KIND, either express or implied.
 ~   See the License for the specific language governing permissions and
 ~   limitations under the License.
-->

<svg version="1.1" id="docker" xmlns="http://www.w3.org/2000/svg" xmlns:xlink="http://www.w3.org/1999/xlink" x="0px" y="0px"
	 viewBox="0 0 14 14" style="enable-background:new 0 0 14 14;" xml:space="preserve">
<path d="M2.8,10.1c-0.4,0-0.8-0.3-0.8-0.7s0.3-0.7,0.8-0.7c0.4,0,0.8,0.3,0.8,0.7S3.2,10.1,2.8,10.1z M12.2,6.1
	c-0.1-0.6-0.4-1-0.9-1.4l-0.2-0.1l-0.1,0.2c-0.3,0.3-0.4,0.9-0.4,1.3c0,0.3,0.1,0.7,0.3,0.9c-0.1,0.1-0.3,0.1-0.5,0.2
	c-0.3,0.1-0.7,0.1-1,0.1H0.1l0,0.2C0,8.3,0.1,9,0.3,9.6l0.1,0.3v0C1.4,11.4,2.9,12,4.6,12c3.3,0,5.9-1.4,7.2-4.5
	c0.8,0,1.7-0.2,2.1-1L14,6.4l-0.2-0.1C13.4,6,12.7,6,12.2,6.1L12.2,6.1z M7.5,5.6H6.1V7h1.4L7.5,5.6L7.5,5.6z M7.5,3.8H6.1v1.4h1.4
	L7.5,3.8L7.5,3.8z M7.5,2H6.1v1.4h1.4L7.5,2L7.5,2z M9.2,5.6H7.8V7h1.4L9.2,5.6L9.2,5.6z M4,5.6H2.6V7H4L4,5.6L4,5.6z M5.7,5.6H4.3
	V7h1.4L5.7,5.6L5.7,5.6z M2.2,5.6H0.8V7h1.4L2.2,5.6L2.2,5.6z M5.7,3.8H4.3v1.4h1.4L5.7,3.8L5.7,3.8z M4,3.8H2.6v1.4H4L4,3.8L4,3.8z
	"/>
</svg>
