<?xml version="1.0" encoding="utf-8"?>

<!--
 ~   Copyright 2017, WSO2 Inc. (http://www.wso2.com)
 ~
 ~   Licensed under the Apache License, Version 2.0 (the "License");
 ~   you may not use this file except in compliance with the License.
 ~   You may obtain a copy of the License at
 ~
 ~        http://www.apache.org/licenses/LICENSE-2.0
 ~
 ~   Unless required by applicable law or agreed to in writing, software
 ~   distributed under the License is distributed on an "AS IS" BASIS,
 ~   WITHOUT WARRANTIES OR CONDITIONS OF ANY KIND, either express or implied.
 ~   See the License for the specific language governing permissions and
 ~   limitations under the License.
-->

<svg version="1.1" id="ebook" xmlns="http://www.w3.org/2000/svg" xmlns:xlink="http://www.w3.org/1999/xlink" x="0px" y="0px"
	 viewBox="0 0 14 14" style="enable-background:new 0 0 14 14;" xml:space="preserve">
<path d="M11.5914946,7.2870293c0.0000038-2.1501913-0.0058899-4.3004122,0.0051918-6.4505448
	C11.5988016,0.426203,11.4642267,0.142777,11.0720148,0c-2.7161446,0-5.432292,0-8.1484375,0
	C2.6750591,0.096828,2.4786911,0.2446835,2.421103,0.5235801C2.4092536,0.5809712,2.4048142,0.6408558,2.4048042,0.6995904
	C2.4040766,4.8998165,2.404634,9.1000414,2.4032888,13.3002663C2.403172,13.666935,2.6042981,13.8752356,2.9235778,14
	c2.716145,0,5.4322925,0,8.1484375,0c0.0759888-0.0382366,0.1575375-0.0684042,0.2269211-0.1162243
	c0.2075272-0.1430273,0.2940054-0.3459291,0.2937384-0.5971699C11.5905504,11.2867489,11.5914927,9.2868881,11.5914946,7.2870293z
	 M7.4307437,13.5612488c-0.1451602,0.0044889-0.2905641,0.001029-0.435863,0.001029
	c-0.1407557,0.0001802-0.2815833,0.0029411-0.4222507-0.0006037c-0.1382675-0.0034828-0.229845-0.0931797-0.2300406-0.2172918
	c-0.0001969-0.1248894,0.0896668-0.2159891,0.2289791-0.2177935c0.2860093-0.0037003,0.5721307-0.0040092,0.8581352-0.0002584
	c0.1342707,0.0017605,0.2274218,0.1011953,0.223702,0.2236614C7.6498241,13.4679279,7.5603476,13.5572376,7.4307437,13.5612488z
	 M10.7836771,12.6814737c-2.6238089,0-4.8628306,0-7.4837618,0c0-3.7863264,0-7.5664835,0-11.3578873
	c1.2674403,0,2.3028493,0,3.5720472,0l0.0029674,5.0112219l-0.000968,0.1285076l1.6556716-1.4919853l1.6526699,1.4919853
	L10.184845,6.317462c0,0,0.001297-1.7855501,0.0012884-2.6783276c-0.0000067-0.8658543,0.0013876-2.0182211,0.0016127-2.3155477
	c0.2460718,0,0.3496952,0,0.5959311,0C10.7836771,5.1033764,10.7836771,8.8867941,10.7836771,12.6814737z M8.9882355,3.1500001
	c0,0,0.1023989,0.5951774,0.1023989,0.614779C8.9662714,3.6994622,8.532423,3.4813898,8.532423,3.4813898
	S8.0927782,3.6996891,7.9621544,3.7683656c0.0184832-0.11058,0.1004028-0.5862818,0.1004028-0.5862818L7.645505,2.6836278
	l0.5986128-0.0895102c0,0,0.2710781-0.5426922,0.2850952-0.5689411c0.0132465,0.0236604,0.2770367,0.5591984,0.2770367,0.5591984
	S9.4291821,2.6865568,9.4413118,2.689152C9.3867798,2.7445521,8.9882355,3.1500001,8.9882355,3.1500001z"/>
</svg>
