<?xml version="1.0" encoding="utf-8"?>

<!--
 ~   Copyright 2017, WSO2 Inc. (http://www.wso2.com)
 ~
 ~   Licensed under the Apache License, Version 2.0 (the "License");
 ~   you may not use this file except in compliance with the License.
 ~   You may obtain a copy of the License at
 ~
 ~        http://www.apache.org/licenses/LICENSE-2.0
 ~
 ~   Unless required by applicable law or agreed to in writing, software
 ~   distributed under the License is distributed on an "AS IS" BASIS,
 ~   WITHOUT WARRANTIES OR CONDITIONS OF ANY KIND, either express or implied.
 ~   See the License for the specific language governing permissions and
 ~   limitations under the License.
-->

<svg version="1.1" id="ellipsis" xmlns="http://www.w3.org/2000/svg" xmlns:xlink="http://www.w3.org/1999/xlink" x="0px" y="0px"
	 viewBox="0 0 14 14" style="enable-background:new 0 0 14 14;" xml:space="preserve">
<path d="M1.9,8.8L1.9,8.8C0.8,8.8,0,8,0,6.9v0c0-1,0.8-1.9,1.9-1.9h0c1,0,1.8,0.8,1.8,1.8v0C3.7,8,2.9,8.8,1.9,8.8z M7,5.1L7,5.1
	c-1,0-1.9,0.8-1.9,1.9v0c0,1,0.8,1.9,1.9,1.9h0c1,0,1.9-0.8,1.9-1.9v0C8.8,5.9,8,5.1,7,5.1z M12.1,5.1L12.1,5.1
	c-1,0-1.9,0.8-1.9,1.9v0c0,1,0.8,1.9,1.9,1.9h0c1,0,1.9-0.8,1.9-1.9v0C14,5.9,13.2,5.1,12.1,5.1z"/>
</svg>
