<?xml version="1.0" encoding="utf-8"?>

<!--
 ~   Copyright 2017, WSO2 Inc. (http://www.wso2.com)
 ~
 ~   Licensed under the Apache License, Version 2.0 (the "License");
 ~   you may not use this file except in compliance with the License.
 ~   You may obtain a copy of the License at
 ~
 ~        http://www.apache.org/licenses/LICENSE-2.0
 ~
 ~   Unless required by applicable law or agreed to in writing, software
 ~   distributed under the License is distributed on an "AS IS" BASIS,
 ~   WITHOUT WARRANTIES OR CONDITIONS OF ANY KIND, either express or implied.
 ~   See the License for the specific language governing permissions and
 ~   limitations under the License.
-->

<svg version="1.1" id="extension" xmlns="http://www.w3.org/2000/svg" xmlns:xlink="http://www.w3.org/1999/xlink" x="0px" y="0px"
	 viewBox="0 0 14 14" style="enable-background:new 0 0 14 14;" xml:space="preserve">
<path d="M5.1892362,13.9866562C3.7130694,13.9866629,0,13.980072,0,13.980072s0.0017702-2.5277147,0.0037083-3.4193544
	c0.0002568-0.1183872,0.0004473-0.2399302,0.0257542-0.3544703c0.0578825-0.2619839,0.220198-0.3525229,0.4607405-0.2291288
	c0.2447908,0.1255751,0.474495,0.2838945,0.6998686,0.4433374c0.6133257,0.4339008,1.3292208,0.4564686,1.9129052,0.0497551
	c0.5587394-0.3893318,0.8191302-1.1007586,0.6421673-1.7545137C3.5605452,8.0337296,2.9859178,7.5330944,2.2528305,7.5320001
	c-0.3350629-0.0005026-0.681728,0.156456-1.0020646,0.2918468C0.9901447,7.9339991,0.76964,8.1355104,0.5154282,8.2653446
	C0.2359831,8.4080648,0.0624174,8.3015671,0.0123036,7.9894123C0.0029489,7.9311442,0.0031748,7.8709416,0.003153,7.8116302
	c-0.0004219-1.14923,0.0014881-4.2005887,0.0014881-4.2005887s4.2805367,0.0398099,4.492322-0.0074329
	c0.253561-0.056565-0.1215882-0.3679152-0.2423644-0.593168C4.1332388,2.7840991,3.9883499,2.5703504,3.8675265,2.3437493
	C3.5576634,1.7626072,3.6060143,1.1894281,3.982089,0.6651805c0.370944-0.5170932,0.9040484-0.7420412,1.533319-0.641938
	c0.6505532,0.1034894,1.0930815,0.4863913,1.2903824,1.1244767c0.1252775,0.4051491,0.1020985,0.7980127-0.1261902,1.1704056
	c-0.1240039,0.2022798-0.2424002,0.409626-0.3430777,0.6241868c-0.1421542,0.302949-0.4643517,0.54567-0.1374035,0.6129827
	c0.3761721,0.0774474,4.1592994,0.0780463,4.1592994,0.0780463s0.0139475,3.8522141,0.0638514,4.1429319
	c0.0541525,0.3154631,0.1828051,0.3590689,0.4473534,0.1835256c0.2226057-0.1477108,0.4318476-0.3157573,0.6560297-0.4608603
	c0.5860596-0.3793335,1.2989645-0.3554354,1.832901,0.0522413c0.5534115,0.4225488,0.7736597,1.1183181,0.5623217,1.7763791
	c-0.2069187,0.6442881-0.8146753,1.1314421-1.4972801,1.0979023c-0.3280554-0.01612-0.6609201-0.1729517-0.9670591-0.3179035
	c-0.2279329-0.1079226-0.4106188-0.3078041-0.6240158-0.4509869C10.5913067,9.4947271,10.4692926,9.5418577,10.4284,9.8295765
	c-0.0444708,0.3129206-0.066803,4.1565695-0.066803,4.1565695S6.6654038,13.9866505,5.1892362,13.9866562z"/>
</svg>
