<?xml version="1.0" encoding="utf-8"?>

<!--
 ~   Copyright 2017, WSO2 Inc. (http://www.wso2.com)
 ~
 ~   Licensed under the Apache License, Version 2.0 (the "License");
 ~   you may not use this file except in compliance with the License.
 ~   You may obtain a copy of the License at
 ~
 ~        http://www.apache.org/licenses/LICENSE-2.0
 ~
 ~   Unless required by applicable law or agreed to in writing, software
 ~   distributed under the License is distributed on an "AS IS" BASIS,
 ~   WITHOUT WARRANTIES OR CONDITIONS OF ANY KIND, either express or implied.
 ~   See the License for the specific language governing permissions and
 ~   limitations under the License.
-->

<svg version="1.1" id="function-invoke" xmlns="http://www.w3.org/2000/svg" xmlns:xlink="http://www.w3.org/1999/xlink" x="0px"
	 y="0px" viewBox="0 0 14 14" style="enable-background:new 0 0 14 14;" xml:space="preserve">
<path class="st0" d="M11.7841797,10.2001343l0.0050659,0.4422607l-3.5527344,0.0408936l0.6895752,0.7157593l-0.3187866,0.3065796
	L7.411438,10.4639282l1.2059326-1.1970825l0.3116455,0.3137817l-0.6652222,0.6599731L11.7841797,10.2001343z M11.3746948,7.5632935
	L11.0558472,7.869873l0.6895752,0.7157593L8.192688,8.6265259l0.0050659,0.4422607l3.5203857-0.0404663l-0.6652222,0.6599731
	l0.3116455,0.3137817l1.2059326-1.1970825L11.3746948,7.5632935z M7.0673828,3.8944092H5.7587891l0.2609253-0.9998779
	C6.1989746,2.204895,6.394165,1.6810303,6.6032715,1.3225098C6.812439,0.9639893,7.0454712,0.784729,7.3043823,0.784729
	c0.0916748,0,0.1553955,0.0228882,0.1932373,0.0687256C7.52948,0.9042358,7.5454102,0.9450684,7.5454102,0.977417
	c0,0.0228882-0.0378418,0.0996094-0.1135254,0.2305298C7.3562012,1.3384399,7.3183594,1.4658813,7.3183594,1.5894165
	c0,0.178772,0.067688,0.3345947,0.2071533,0.4675293c0.1373901,0.1334839,0.3007202,0.199707,0.4899902,0.199707
	c0.1931763,0,0.3604736-0.0682373,0.5018921-0.2041626c0.1394653-0.135437,0.2091675-0.3162231,0.2091675-0.5422363
	c0-0.3824463-0.135437-0.6702881-0.4103394-0.8639526C8.043335,0.453064,7.6907959,0.3565063,7.2625732,0.3565063
	c-0.5338135,0-1.0536499,0.2185669-1.5595703,0.65625C5.2827148,1.3812866,4.9401245,1.866272,4.6702881,2.4672852
	c-0.2698975,0.6010132-0.4456787,1.0770874-0.5283813,1.427124h-1.045166L2.9642944,4.4744873h1.041687L3.4234009,6.9304199
	c-0.5825806,2.7297363-0.9660034,4.374939-1.1502686,4.9346313c-0.1842651,0.5646973-0.4536133,0.8465576-0.8081665,0.8465576
	c-0.0692139,0-0.1279907-0.0139771-0.1762695-0.0418701c-0.0482788-0.0268555-0.0726929-0.0667114-0.0726929-0.1165161
	c0-0.0418091,0.0383301-0.1195068,0.1140137-0.2320557c0.0761719-0.1124878,0.1140137-0.2270508,0.1140137-0.3415527
	c0-0.2171021-0.0722046-0.3884277-0.2175903-0.5148926c-0.1448975-0.1275024-0.3096924-0.1902466-0.4939575-0.1902466
	c-0.1887207,0-0.3580322,0.0687256-0.5079346,0.2071533C0.074707,11.6200562,0,11.8013306,0,12.0274048
	c0,0.3137207,0.1254883,0.5806274,0.3764648,0.8016968c0.2514648,0.2210693,0.5935669,0.331604,1.0262451,0.331604
	c1.1054688,0,1.9669189-0.7249756,2.5843506-2.177002c0.4371948-1.0317383,0.9949341-3.2018433,1.670105-6.5092163h1.2787476
	L7.0673828,3.8944092z M14,9.6344604c0,2.2105713-1.7984619,4.0090332-4.0090332,4.0090332
	s-4.0090332-1.7984619-4.0090332-4.0090332s1.7984619-4.0090332,4.0090332-4.0090332S14,7.4238892,14,9.6344604z
	 M13.5172119,9.6344604c0-1.9475098-1.5787354-3.5262451-3.5262451-3.5262451S6.4647217,7.6869507,6.4647217,9.6344604
	s1.5787354,3.5262451,3.5262451,3.5262451S13.5172119,11.5819702,13.5172119,9.6344604z"/>
</svg>
