<?xml version="1.0" encoding="utf-8"?>

<!--
 ~   Copyright 2017, WSO2 Inc. (http://www.wso2.com)
 ~
 ~   Licensed under the Apache License, Version 2.0 (the "License");
 ~   you may not use this file except in compliance with the License.
 ~   You may obtain a copy of the License at
 ~
 ~        http://www.apache.org/licenses/LICENSE-2.0
 ~
 ~   Unless required by applicable law or agreed to in writing, software
 ~   distributed under the License is distributed on an "AS IS" BASIS,
 ~   WITHOUT WARRANTIES OR CONDITIONS OF ANY KIND, either express or implied.
 ~   See the License for the specific language governing permissions and
 ~   limitations under the License.
-->

<svg version="1.1" id="gadget" xmlns="http://www.w3.org/2000/svg" xmlns:xlink="http://www.w3.org/1999/xlink" x="0px" y="0px"
	 viewBox="0 0 14 14" style="enable-background:new 0 0 14 14;" xml:space="preserve">
<path d="M14,5.5999999l-1.3999996-0.1999998C12.3999996,5,12.1999998,4.5999999,12,4.0999999L12.8999996,3L11,1.1L9.8999996,2
	C9.5,1.8,9,1.6,8.5,1.4L8.3999996,0H5.6999998L5.5,1.4C5,1.6,4.5999999,1.8,4.0999999,2L2.9000001,1.1L1.1,3L2,4.1999998
	C1.8,4.5999999,1.6,5.0999999,1.5,5.5L0,5.6999998v2.5999994L1.5,8.499999C1.7,9,1.8,9.3999996,2.0999999,9.8000002l-1,1.1999998
	L3,12.8999996l1.1999998-1C4.5999999,12.0999994,5,12.2999992,5.5,12.3999996L5.5999999,14h2.5999999l0.1999998-1.5
	c0.5-0.1000004,0.8999996-0.3000002,1.3999996-0.5l1.1999998,1l1.8999996-1.8999996L12,9.8000002
	C12.1999998,9.4000006,12.3999996,8.9000006,12.6000004,8.5L14,8.3000002V5.5999999z M6.9999995,11.4526091
	c-2.4978051,0-4.4526091-1.9548035-4.4526091-4.4526086s1.9548039-4.45261,4.4526091-4.45261
	s4.4526095,1.9548039,4.4526095,4.4526091S9.4978056,11.4526091,6.9999995,11.4526091z M4.0476308,9.1242781
	c-0.2284386,0.2284384-0.2284386,0.5986328,0,0.8270712c0.1142192,0.1142206,0.2641325,0.1713295,0.4140458,0.1713295
	c0.1499128,0,0.2998261-0.0571089,0.4140458-0.1713295L6.7960367,8.030015L5.9689651,7.2039633L4.0476308,9.1242781z
	 M8.8489275,5.5640984l0.8362484-0.4324017l0.4385223-0.8464479L9.7157717,3.877322l-0.846447,0.4385207L8.4359026,5.1520929
	l-1.0187984,1.017776l0.4130263,0.4130259L8.8489275,5.5640984z M9.0314741,7.7842388L8.9529495,7.7771006
	c-0.1427755,0-0.27841,0.0295744-0.4038477,0.0764856L6.1474333,5.4508986
	c0.0469112-0.1264572,0.0754662-0.2610731,0.0754662-0.4038472L6.2157612,4.9685249
	c-0.0418124-0.60883-0.5425429-1.0912035-1.162591-1.0912035c-0.1805077,0-0.3487773,0.0438523-0.50175,0.1172788
	l0.7771001,0.7771001C5.3693132,4.8124928,5.3978677,4.8604245,5.416225,4.9124351
	C5.467216,5.0501108,5.4396801,5.2122617,5.3285203,5.323421C5.2530546,5.3988881,5.1531124,5.4366212,5.0531702,5.4366212
	c-0.0458918,0-0.0917835-0.0101981-0.1356354-0.026515C4.8665438,5.3907294,4.8186121,5.3631945,4.7767997,5.322402
	L4.0007195,4.5453014c-0.072407,0.1529727-0.1172791,0.3212428-0.1172791,0.50175
	c0,0.6190286,0.4823728,1.1207781,1.0912037,1.1625905l0.078526,0.0081587c0.1427741,0,0.27841-0.0295749,0.4038472-0.0754666
	l2.4006481,2.4016685C7.8127937,8.6684198,7.7832189,8.8040552,7.7832189,8.9468298l0.0081587,0.0785255
	C7.83217,9.6341858,8.3339205,10.116559,8.9529495,10.116559c0.1805067,0,0.3497963-0.0438519,0.501749-0.1172781
	L8.677599,9.2221794C8.6368055,9.1813879,8.6082516,9.1324358,8.5888758,9.0824652
	C8.5378847,8.9447899,8.5654192,8.7826395,8.677599,8.6714792c0.0754662-0.0764856,0.1754084-0.1142197,0.2753515-0.1142197
	c0.0458918,0,0.0917826,0.0101976,0.1356354,0.026515C9.1395769,8.6031513,9.1885281,8.6306858,9.228301,8.6714792
	l0.7770996,0.7771006c0.0734262-0.1529722,0.1172791-0.3212423,0.1172791-0.50175
	C10.1236982,8.3278008,9.6403055,7.8260512,9.0314741,7.7842388z"/>
</svg>
