<?xml version="1.0" encoding="utf-8"?>

<!--
 ~   Copyright 2017, WSO2 Inc. (http://www.wso2.com)
 ~
 ~   Licensed under the Apache License, Version 2.0 (the "License");
 ~   you may not use this file except in compliance with the License.
 ~   You may obtain a copy of the License at
 ~
 ~        http://www.apache.org/licenses/LICENSE-2.0
 ~
 ~   Unless required by applicable law or agreed to in writing, software
 ~   distributed under the License is distributed on an "AS IS" BASIS,
 ~   WITHOUT WARRANTIES OR CONDITIONS OF ANY KIND, either express or implied.
 ~   See the License for the specific language governing permissions and
 ~   limitations under the License.
-->

<svg version="1.1" id="geo-fence-outbound" xmlns="http://www.w3.org/2000/svg" xmlns:xlink="http://www.w3.org/1999/xlink" x="0px"
	 y="0px" viewBox="0 0 14 14" style="enable-background:new 0 0 14 14;" xml:space="preserve">
<path d="M9.5,9.5l1.5-2L9.5,5l1.3,0.7l0.7,0.4L14,7.4c0.1,0,0.1,0.1,0,0.1l-2.5,1.1L10.8,9L9.5,9.5z M7.3,12.3v-1H6.6v1
	C4,12.1,1.9,10,1.7,7.4h0.9V6.6H1.7C1.9,4,4,1.9,6.6,1.8v1h0.8v-1c2,0.1,3.8,1.5,4.5,3.3l0.7-0.3C11.7,2.7,9.7,1.2,7.3,1V0H6.6v1
	C3.6,1.2,1.2,3.6,1,6.6H0v0.8h1c0.2,3,2.6,5.4,5.6,5.6v1h0.8v-1c2.3-0.1,4.2-1.6,5.1-3.6l-0.7-0.4C11,10.9,9.3,12.1,7.3,12.3z"/>
</svg>
