<?xml version="1.0" encoding="utf-8"?>

<!--
 ~   Copyright 2017, WSO2 Inc. (http://www.wso2.com)
 ~
 ~   Licensed under the Apache License, Version 2.0 (the "License");
 ~   you may not use this file except in compliance with the License.
 ~   You may obtain a copy of the License at
 ~
 ~        http://www.apache.org/licenses/LICENSE-2.0
 ~
 ~   Unless required by applicable law or agreed to in writing, software
 ~   distributed under the License is distributed on an "AS IS" BASIS,
 ~   WITHOUT WARRANTIES OR CONDITIONS OF ANY KIND, either express or implied.
 ~   See the License for the specific language governing permissions and
 ~   limitations under the License.
-->

<svg version="1.1" id="google-sheets" xmlns="http://www.w3.org/2000/svg" xmlns:xlink="http://www.w3.org/1999/xlink" x="0px"
	 y="0px" viewBox="0 0 14 14" style="enable-background:new 0 0 14 14;" xml:space="preserve">
<path d="M11.7,14c0.2,0,0.3-0.1,0.3-0.3V4.2H8.5C8,4.2,7.6,3.8,7.6,3.3V0H2.3C2.1,0,2,0.1,2,0.3v13.4C2,13.9,2.1,14,2.3,14H11.7z
	 M3.6,6h6.8v5.5H3.6V6z M7.3,9.9h2.6v1.1H7.3C7.3,10.9,7.3,9.9,7.3,9.9z M4.2,8.2h2.6v1.1H4.2V8.2z M4.2,9.9h2.6v1.1H4.2V9.9z
	 M7.3,6.6h2.6v1.1H7.3C7.3,7.6,7.3,6.6,7.3,6.6z M7.3,8.2h2.6v1.1H7.3C7.3,9.3,7.3,8.2,7.3,8.2z M4.2,6.6h2.6v1.1H4.2V6.6z M8.2,3.3
	V0.7l3,2.8H8.5C8.4,3.5,8.2,3.4,8.2,3.3z"/>
</svg>
