<?xml version="1.0" encoding="utf-8"?>

<!--
 ~   Copyright 2017, WSO2 Inc. (http://www.wso2.com)
 ~
 ~   Licensed under the Apache License, Version 2.0 (the "License");
 ~   you may not use this file except in compliance with the License.
 ~   You may obtain a copy of the License at
 ~
 ~        http://www.apache.org/licenses/LICENSE-2.0
 ~
 ~   Unless required by applicable law or agreed to in writing, software
 ~   distributed under the License is distributed on an "AS IS" BASIS,
 ~   WITHOUT WARRANTIES OR CONDITIONS OF ANY KIND, either express or implied.
 ~   See the License for the specific language governing permissions and
 ~   limitations under the License.
-->

<svg version="1.1" id="import" xmlns="http://www.w3.org/2000/svg" xmlns:xlink="http://www.w3.org/1999/xlink" x="0px" y="0px"
	 viewBox="0 0 14 14" style="enable-background:new 0 0 14 14;" xml:space="preserve">
<path d="M0.0125732-0.0036864L0,1.1017823c0,0,1.8726807,0.0341797,3.7625122,1.2462158
	C6.041626,3.8102174,7.3563843,6.2898316,7.6943359,9.7143917L6.184021,8.4478512l-0.7699585,0.793335l2.9403076,2.6530151
	l2.8918457-3.130188L10.43396,8.0138302L8.812561,9.7699337C7.9475708,0.2023682,0.0125732-0.0036864,0.0125732-0.0036864z
	 M1.3239746,12.6418705c3.8269653,0,7.5960083,0,11.3427124,0L12.6813965,1.315393
	c-1.3780518,0.0123291-5.6578369,0.0092163-5.6578369,0.0092163l0.0037842-1.3239746
	C8.7247925-0.0024781,12.3025513-0.0086426,14,0.0036865v14H0V7.2036986l1.3265381,0.0015259
	C1.3265381,7.2052245,1.3239746,12.2807865,1.3239746,12.6418705z"/>
</svg>
