<?xml version="1.0" encoding="utf-8"?>

<!--
 ~   Copyright 2017, WSO2 Inc. (http://www.wso2.com)
 ~
 ~   Licensed under the Apache License, Version 2.0 (the "License");
 ~   you may not use this file except in compliance with the License.
 ~   You may obtain a copy of the License at
 ~
 ~        http://www.apache.org/licenses/LICENSE-2.0
 ~
 ~   Unless required by applicable law or agreed to in writing, software
 ~   distributed under the License is distributed on an "AS IS" BASIS,
 ~   WITHOUT WARRANTIES OR CONDITIONS OF ANY KIND, either express or implied.
 ~   See the License for the specific language governing permissions and
 ~   limitations under the License.
-->

<svg version="1.1" id="in-sequence" xmlns="http://www.w3.org/2000/svg" xmlns:xlink="http://www.w3.org/1999/xlink" x="0px" y="0px"
	 viewBox="0 0 14 14" style="enable-background:new 0 0 14 14;" xml:space="preserve">
<path d="M12.1875095,8.8309288l0.0073719,0.5987568l-0.3303471,0.0044193l-0.3908176,0.0044289L10.5460892,9.450325
	l-0.3908186,0.0044289L9.227643,9.4650784L8.6952534,9.4724503L7.7056785,9.484251l1.1871886,1.2845201l-0.4394789,0.4070377
	L6.5877995,9.1583233l0.2875819-0.2993736l0.6429982-0.6680756l0.3908176-0.4055619L8.525651,7.1437902l0.3111744,0.2978978
	l0.1209326,0.1165128L8.8368254,7.6835527l-0.927628,0.9659729L7.682086,8.8854942l0.2271113-0.0029516l0.927628-0.0103245
	L9.227643,8.8663216l0.9276276-0.0103245l0.3908186-0.0058956l0.9276276-0.0103245l0.3908176-0.0044289L12.1875095,8.8309288z
	 M14,9.1598005c0,2.5410271-2.0676317,4.6086597-4.6086597,4.6086597s-4.6086588-2.0676327-4.6086588-4.6086597
	c0-0.7418146,0.175498-1.4423304,0.489625-2.0632033V0.9777739c0-0.0781672,0.0634141-0.1415813,0.1415811-0.1415813h0.6459503
	c0.0781584,0,0.1415725,0.0634141,0.1415725,0.1415813v4.8593636C6.325295,5.7176809,6.4550757,5.6070733,6.5907521,5.5008941
	V1.5809501c0-0.0781581,0.0648899-0.1415722,0.1415811-0.1415722h0.644474c0.0781584,0,0.1415725,0.0634141,0.1415725,0.1415722
	V4.947855c0.1268373-0.0560422,0.2566085-0.1076555,0.3908181-0.1533732v-2.60887
	c0-0.0781672,0.0634136-0.1415813,0.1415806-0.1415813h0.644475c0.0781574,0,0.141572,0.0634141,0.141572,0.1415813v2.3979702
	C8.9666061,4.5688376,9.0963869,4.5585132,9.227643,4.5540934V2.7887881c0-0.0781584,0.0634146-0.1415722,0.141572-0.1415722
	h0.6444836c0.0781584,0,0.141572,0.0634139,0.141572,0.1415722v1.8257673
	c0.1327333,0.0221252,0.2625141,0.0501461,0.3908186,0.0825868V3.6884036c0-0.0781672,0.0634136-0.1415811,0.141572-0.1415811
	h0.6444836c0.0781574,0,0.141572,0.0634139,0.141572,0.1415811v1.3597345
	c0.1342087,0.067843,0.2654572,0.1430573,0.3908176,0.2241683v-2.01159c0-0.0781672,0.0634146-0.1415813,0.141572-0.1415813
	h0.644475c0.078167,0,0.1415806,0.0634141,0.1415806,0.1415813v2.7932167C13.5428247,6.8739057,14,7.9637632,14,9.1598005z
	 M13.7050457,9.1598005c0-0.9984226-0.3406715-1.9172025-0.9128838-2.6486921
	c-0.2625046-0.3391953-0.5751553-0.6371021-0.9276276-0.8819098c-0.1253605-0.0899591-0.2551413-0.1710696-0.3908176-0.2448082
	c-0.2905254-0.16223-0.6017094-0.2905345-0.9276276-0.3804936c-0.1283045-0.036869-0.2580853-0.0663662-0.3908186-0.0884914
	C9.9075108,4.8696876,9.6523781,4.8460956,9.3913403,4.8460956c-0.0545654,0-0.1091309,0.0014758-0.1636972,0.0044193
	C9.0949106,4.8534675,8.9651299,4.8652682,8.8368254,4.8829646c-0.3214989,0.0398216-0.631197,0.1165037-0.9276276,0.2256351
	C7.7764645,5.15727,7.6452169,5.2133117,7.5183797,5.27525C7.1821365,5.4360037,6.8709621,5.6409988,6.5907521,5.8843307
	c-0.138629,0.1150365-0.2684097,0.2403884-0.3893418,0.3760738C5.7825804,6.7190561,5.4610724,7.2706194,5.2723064,7.8782244
	C5.1454782,8.2837858,5.0776353,8.7144165,5.0776353,9.1598005c0,2.3788061,1.9348989,4.3137054,4.313705,4.3137054
	S13.7050457,11.5386066,13.7050457,9.1598005z M4.8814883,7.5095315V0.3731124c0-0.0781582-0.0634141-0.1415723-0.1400962-0.1415723
	H4.0954418c-0.0766907,0-0.140105,0.0634141-0.140105,0.1415723v7.1364193c0,0.078167,0.0634143,0.1415811,0.140105,0.1415811
	h0.6459503C4.8180742,7.6511126,4.8814883,7.5876985,4.8814883,7.5095315z M3.4229467,1.1311468H2.7769964
	c-0.0781672,0-0.1415813,0.0634141-0.1415813,0.1415813v7.134943c0,0.0781584,0.0634141,0.141572,0.1415813,0.141572h0.644474
	c0.0781584,0,0.1415725-0.0634136,0.1415725-0.141572l0.001476-7.134943
	C3.5645189,1.1945609,3.5011048,1.1311468,3.4229467,1.1311468z M2.104501,1.4393779H1.4600269
	c-0.0781672,0-0.1415812,0.0634141-0.1415812,0.1415722v7.1364188c0,0.0781584,0.063414,0.1415815,0.1415812,0.1415815H2.104501
	c0.0766821,0,0.1415722-0.0634232,0.1415722-0.1415815V1.5809501C2.2460732,1.502792,2.1811831,1.4393779,2.104501,1.4393779z
	 M0.7860554,1.7490762H0.1415813C0.0634141,1.7490762,0,1.8124903,0,1.8906575v7.134943
	c0,0.0781584,0.0634141,0.141572,0.1415813,0.141572h0.6444742c0.0781582,0,0.1415723-0.0634136,0.1415723-0.141572v-7.134943
	C0.9276277,1.8124903,0.8642136,1.7490762,0.7860554,1.7490762z"/>
</svg>
