<?xml version="1.0" encoding="utf-8"?>

<!--
 ~   Copyright 2017, WSO2 Inc. (http://www.wso2.com)
 ~
 ~   Licensed under the Apache License, Version 2.0 (the "License");
 ~   you may not use this file except in compliance with the License.
 ~   You may obtain a copy of the License at
 ~
 ~        http://www.apache.org/licenses/LICENSE-2.0
 ~
 ~   Unless required by applicable law or agreed to in writing, software
 ~   distributed under the License is distributed on an "AS IS" BASIS,
 ~   WITHOUT WARRANTIES OR CONDITIONS OF ANY KIND, either express or implied.
 ~   See the License for the specific language governing permissions and
 ~   limitations under the License.
-->

<svg version="1.1" id="incoming-call" xmlns="http://www.w3.org/2000/svg" xmlns:xlink="http://www.w3.org/1999/xlink" x="0px"
	 y="0px" viewBox="0 0 14 14" style="enable-background:new 0 0 14 14;" xml:space="preserve">
<path d="M2.9304938,13.9363422c-0.7049668-0.174345-1.3697714-0.4426479-1.9850364-0.8281679
	c-0.0656414-0.0411491-0.1238797-0.1223373-0.1483101-0.1973562C0.28966,11.3520193,0.0402966,9.7489862,0.0053166,8.1124544
	c-0.046825-2.1762233,0.2121008-4.3102484,0.9178696-6.3786941C1.0199209,1.4500958,1.1256629,1.1689603,1.238808,0.8914649
	C1.2692844,0.8170014,1.3294969,0.735875,1.3982846,0.6987358c0.6801044-0.3673823,1.4107972-0.5807786,2.1745577-0.6864588
	c0.0206056-0.0029613,0.0421979,0.0011722,0.0715022,0.0022826c0.168669,0.8811622,0.159785,1.7506027-0.1352928,2.6020288
	C3.402199,2.9251771,3.2641916,3.2229695,3.1317983,3.5221193C3.1132288,3.5642557,3.0441325,3.6149673,3.0023046,3.6115127
	c-0.4519017-0.0361521-0.6792407,0.2414668-0.840198,0.5999036C1.9035509,4.7874441,1.827545,5.4062257,1.7740571,6.0263028
	C1.6950283,6.9409647,1.6583825,7.8579702,1.7744273,8.7710896c0.0436786,0.3434458,0.1313446,0.6866436,0.244428,1.0141106
	c0.1134534,0.328516,0.3405457,0.5572739,0.7308161,0.5472794c0.0398536-0.0011101,0.0993259,0.0432472,0.1192527,0.0820522
	c0.5530784,1.0864143,0.7347646,2.2071314,0.309514,3.3847284C3.1306262,13.931654,3.0750406,13.9721241,2.9304938,13.9363422z
	 M4.7827668,13.9336891c0.2797165-0.07798,0.4712734-0.249301,0.5512276-0.5296965
	c0.1947651-0.6843615,0.1874852-1.3676119-0.0322657-2.045866c-0.0283785-0.0876036-0.0692196-0.172617-0.1152425-0.2526331
	c-0.3725028-0.6479006-0.9840045-0.7683249-1.6912541-0.7532721c0.2924254,0.5809641,0.468744,1.1668625,0.5179753,1.7899008
	c0.0496011,0.6302567-0.0744021,1.2330599-0.2883537,1.8225985C4.0319619,14.0241928,4.5279741,14.0048838,4.7827668,13.9336891z
	 M3.6838896,3.6358814c0.2575686-0.0015423,0.4752219,0.010241,0.6905925-0.0069714
	C4.8081226,3.5940535,5.1574287,3.3964505,5.393713,3.0276494c0.0933418-0.1455958,0.1746535-0.3055041,0.2269073-0.4699161
	c0.1742215-0.5482047,0.2239461-1.1121411,0.1448555-1.6822469C5.6994023,0.3992159,5.4784794,0.1660161,5.0062189,0.0798308
	C4.7557449,0.0343013,4.4984231,0.0274534,4.2125993,0C4.5164375,1.2919147,4.341723,2.4820359,3.6838896,3.6358814z
	 M14.0019531,6.3686523L6.0836792,6.347229l1.8235474-1.8096313L7.0615234,3.6860352L3.7880859,6.934082l3.2460938,3.3706055
	l0.8652344-0.8320312l-1.8548584-1.925354l7.9534912,0.0210571L14.0019531,6.3686523z"/>
</svg>
