<?xml version="1.0" encoding="utf-8"?>

<!--
 ~   Copyright 2017, WSO2 Inc. (http://www.wso2.com)
 ~
 ~   Licensed under the Apache License, Version 2.0 (the "License");
 ~   you may not use this file except in compliance with the License.
 ~   You may obtain a copy of the License at
 ~
 ~        http://www.apache.org/licenses/LICENSE-2.0
 ~
 ~   Unless required by applicable law or agreed to in writing, software
 ~   distributed under the License is distributed on an "AS IS" BASIS,
 ~   WITHOUT WARRANTIES OR CONDITIONS OF ANY KIND, either express or implied.
 ~   See the License for the specific language governing permissions and
 ~   limitations under the License.
-->

<svg version="1.1" id="jquery" xmlns="http://www.w3.org/2000/svg" xmlns:xlink="http://www.w3.org/1999/xlink" x="0px" y="0px"
	 viewBox="0 0 14 14" style="enable-background:new 0 0 14 14;" xml:space="preserve">
<path d="M0,5.8855171c0.0358133-0.2521758,0.0630591-0.5060792,0.1090242-0.7562099
	C0.254947,4.3352289,0.5520476,3.6108618,1.0352947,2.9746988c0.2494676-0.3284082,0.496683-0.6586919,0.755082-1.0016199
	c0,0.0310453,0.0041951,0.0462164-0.000594,0.0570215C1.125056,3.5298212,1.1026198,5.0694275,1.5956787,6.6127043
	c0.7243184,2.2671194,2.1897926,3.8614836,4.2383165,4.858984c1.7871923,0.8702488,3.6403527,0.9833727,5.516314,0.3220263
	c0.8874245-0.31285,1.6345348-0.8586111,2.2348948-1.6167583c0.0140295-0.0177164,0.0302916-0.0334949,0.0649643-0.0394888
	c-0.0195494,0.0462751-0.0368967,0.0937347-0.0589638,0.1386528c-0.9543972,1.9427023-2.4450274,3.1512356-4.497695,3.571722
	c-0.3958769,0.0810957-0.8048668,0.0919476-1.2077656,0.1356192C7.8494086,13.987401,7.8133769,13.9944153,7.7772045,14
	c-0.1014814,0-0.2029638,0-0.3044457,0c-0.0818286-0.0092506-0.1637983-0.0173168-0.2454634-0.0279493
	c-0.4657574-0.0606403-0.9450178-0.0682535-1.394599-0.193017c-1.3343205-0.3702946-2.4990432-1.0778151-3.491596-2.0846987
	c-1.1787477-1.1957684-1.9506851-2.6264944-2.2424111-4.3271055C0.0557169,7.1167226,0.0324071,6.8625183,0,6.6100249
	C0,6.3685226,0,6.1270199,0,5.8855171z M5.3179564,0.7481155c-0.0957594,0.3498681-0.233532,0.7307611-0.3014069,1.1248527
	C4.8341036,2.932277,5.014905,3.9455316,5.4996319,4.8850307c0.9437389,1.8291578,2.4111476,2.9179811,4.3740263,3.2175379
	c1.296195,0.197813,2.4938564-0.10252,3.5198183-1.0015149c0.1093359-0.0958056,0.2108994-0.202415,0.3086958-0.3112745
	C13.7997913,6.681118,13.8881416,6.5633283,14,6.4570889c-0.0218248,0.0565519-0.0412703,0.114264-0.0658216,0.169488
	c-0.6510868,1.4645619-1.7375116,2.3531537-3.2456303,2.6749673C9.8962564,9.4706078,9.0941448,9.4640665,8.310585,9.2871008
	C7.5135274,9.1070871,6.8019352,8.701479,6.1625447,8.167655C5.1363893,7.3109236,4.4320421,6.2338028,4.1691713,4.8757982
	c-0.2380009-1.229527-0.0509601-2.3801711,0.6644449-3.4126127C5.0066915,1.2134103,5.1747437,0.9598186,5.3179564,0.7481155z
	 M13.5259733,3.8683078c-0.389637,0.7555611-0.9614258,1.2758825-1.7744522,1.4557221
	C9.6479673,5.7893324,7.9130821,4.1898513,7.6000018,2.541065C7.449801,1.7500521,7.5840254,1.0164274,8.032649,0.353355
	C8.1149139,0.2317654,8.199873,0.112174,8.2989731,0C8.2549038,0.1392753,8.2023258,0.2763055,8.1681709,0.4181974
	c-0.1934652,0.8037148-0.0370417,1.554577,0.3535452,2.2531953c0.6320906,1.1305823,1.5858316,1.7562478,2.8247023,1.9137084
	c0.3553162,0.0451598,0.7086449,0.0414133,1.0586157-0.0407715C12.8250237,4.4457016,13.066783,4.2944708,13.5259733,3.8683078z"/>
</svg>
