<?xml version="1.0" encoding="utf-8"?>

<!--
 ~   Copyright 2017, WSO2 Inc. (http://www.wso2.com)
 ~
 ~   Licensed under the Apache License, Version 2.0 (the "License");
 ~   you may not use this file except in compliance with the License.
 ~   You may obtain a copy of the License at
 ~
 ~        http://www.apache.org/licenses/LICENSE-2.0
 ~
 ~   Unless required by applicable law or agreed to in writing, software
 ~   distributed under the License is distributed on an "AS IS" BASIS,
 ~   WITHOUT WARRANTIES OR CONDITIONS OF ANY KIND, either express or implied.
 ~   See the License for the specific language governing permissions and
 ~   limitations under the License.
-->

<svg version="1.1" id="layout" xmlns="http://www.w3.org/2000/svg" xmlns:xlink="http://www.w3.org/1999/xlink" x="0px" y="0px"
	 viewBox="0 0 14 14" style="enable-background:new 0 0 14 14;" xml:space="preserve">
<path d="M13.9679565,4.9254761c0-0.2424927-0.1533813-0.4459839-0.3673706-0.5274658v-3.024231
	c0.2139893-0.0814819,0.3673706-0.2850342,0.3673706-0.5275269c0-0.3136597-0.2542725-0.5679321-0.5679321-0.5679321
	c-0.2426758,0-0.4462891,0.1536255-0.5275879,0.3676758H9.6213379C9.539978,0.4319458,9.3363647,0.2783203,9.09375,0.2783203
	S8.647522,0.4319458,8.5661621,0.6459961H5.9058228C5.8137817,0.2781372,5.4963379,0,5.0999756,0
	C4.7692871,0,4.4901733,0.1946411,4.3510132,0.4711914H1.5952759C1.4561157,0.1946411,1.177002,0,0.8462524,0
	C0.3789062,0,0,0.3789062,0,0.8462524c0,0.3317871,0.1956177,0.6118164,0.4735718,0.7505493l0.0079346,2.6472778
	C0.1989136,4.3811035,0,4.6647949,0,5c0,0.3733521,0.2456055,0.6802368,0.5810547,0.7926636v2.8503418
	C0.4107056,8.7410278,0.2908325,8.9174805,0.2908325,9.1281128s0.119873,0.3870239,0.2902222,0.4851074v3.1704102
	c-0.1703491,0.0980225-0.2902222,0.2744751-0.2902222,0.4851074c0,0.3137207,0.2543335,0.5679932,0.5679932,0.5679932
	c0.2427368,0,0.4462891-0.1538086,0.5276489-0.367981h3.1270752c0.0812988,0.2141724,0.2849121,0.367981,0.5276489,0.367981
	s0.4462891-0.1538086,0.5275879-0.367981h3.0185547c0.0923462,0.1888428,0.2821045,0.3217773,0.5064087,0.3217773
	s0.4140625-0.1329346,0.5064087-0.3217773h3.2722168c0.0812988,0.2141724,0.2849121,0.367981,0.5276489,0.367981
	c0.3136597,0,0.5679321-0.2542725,0.5679321-0.5679932c0-0.2424927-0.1533813-0.4459839-0.3673706-0.5274658V9.6556396
	c0.2139893-0.0814819,0.3673706-0.2849731,0.3673706-0.5275269c0-0.2424927-0.1533813-0.4459839-0.3673706-0.5274658v-3.147644
	C13.8145752,5.371521,13.9679565,5.1680298,13.9679565,4.9254761z M12.8724976,13.0683594H9.6306152
	c-0.0496216-0.1719971-0.1708374-0.3103638-0.3366699-0.3734131V9.6557007
	C9.4454346,9.5981445,9.5638428,9.4796143,9.6213989,9.328125h3.2509766
	c0.0575562,0.1516113,0.1761475,0.2701416,0.3278198,0.3276367v3.0853882
	C13.048645,12.798584,12.9300537,12.9168701,12.8724976,13.0683594z M0.9814453,12.7255249V9.6713867
	C1.1677856,9.6289673,1.3197021,9.5039062,1.3864746,9.328125h3.1270752
	c0.0574951,0.1514282,0.1758423,0.2699585,0.3272705,0.3275146v3.0856323
	c-0.1513672,0.0574951-0.2696533,0.1757202-0.3271484,0.3270874H1.3863525
	C1.3195801,12.8927002,1.1677246,12.7678833,0.9814453,12.7255249z M1.5953369,1.2211914h2.7556152
	C4.4542236,1.4263916,4.6359863,1.576355,4.859375,1.6439209v2.5583496C4.6360474,4.2698364,4.4542847,4.4197998,4.3510132,4.625
	H1.5952759C1.5155029,4.4665527,1.3887939,4.3400879,1.2317505,4.2580566L1.2233276,1.593811
	C1.3845825,1.5120239,1.5140381,1.3826904,1.5953369,1.2211914z M13.2001953,1.3739014v3.0239868
	c-0.1749268,0.0663452-0.2995605,0.2168579-0.3427734,0.4019165H9.6427002
	c-0.034668-0.1992798-0.1641846-0.3630981-0.3487549-0.4332275V1.3738403
	C9.4454346,1.3162842,9.5637817,1.197876,9.6213379,1.0463867h3.2510986
	C12.9300537,1.197998,13.048584,1.3164062,13.2001953,1.3739014z M5.5686646,8.9277344
	C5.5111084,8.7763062,5.3926392,8.65802,5.2412109,8.6005249V5.817749c0.3297119-0.0576782,0.5842896-0.2962036,0.6646729-0.6175537
	h2.7218018c0.0652466,0.098938,0.1535645,0.178833,0.2658691,0.2214966v3.178894
	C8.7421875,8.6581421,8.6237793,8.7763062,8.5662231,8.9277344H5.5686646z M8.8935547,1.3738403v2.9927368
	C8.7089844,4.4367065,8.5794678,4.6005249,8.5447998,4.7998047h-2.638916
	C5.8591309,4.612915,5.7571411,4.4559937,5.609375,4.3415527V1.5046387c0.1477661-0.1144409,0.2498169-0.2713623,0.2965088-0.458252
	h2.6602783C8.6237183,1.197876,8.7420654,1.3162842,8.8935547,1.3738403z M1.5952759,5.375h2.7557373
	c0.1005249,0.199707,0.2745361,0.3484497,0.4898071,0.4188843V8.600647C4.6894531,8.6581421,4.571167,8.7763672,4.5136719,8.9277344
	H1.3863525C1.3195801,8.7520752,1.1677246,8.6272583,0.9814453,8.5848999V5.8189697
	C1.2514038,5.7738037,1.4762573,5.6114502,1.5952759,5.375z M5.2412109,12.7411499V9.6557617
	C5.3927612,9.5982056,5.5112305,9.4796753,5.5687866,9.328125h2.9973145
	c0.0575562,0.1514893,0.1759644,0.2700195,0.3274536,0.3275757v3.0392456
	c-0.1658325,0.0630493-0.2870483,0.201416-0.3366699,0.3734131H5.5686646
	C5.5111084,12.9169312,5.3926392,12.798645,5.2412109,12.7411499z M12.8724976,8.9277344H9.6212769
	C9.5637207,8.7763062,9.4453125,8.6581421,9.2939453,8.6005859v-3.178894
	C9.40625,5.3790283,9.4945679,5.2991333,9.5598145,5.2001953h3.3530273c0.0649414,0.114563,0.1628418,0.2056885,0.2873535,0.2529297
	v3.1473999C13.048645,8.657959,12.9300537,8.7762451,12.8724976,8.9277344z"/>
</svg>
