<?xml version="1.0" encoding="utf-8"?>

<!--
 ~   Copyright 2017, WSO2 Inc. (http://www.wso2.com)
 ~
 ~   Licensed under the Apache License, Version 2.0 (the "License");
 ~   you may not use this file except in compliance with the License.
 ~   You may obtain a copy of the License at
 ~
 ~        http://www.apache.org/licenses/LICENSE-2.0
 ~
 ~   Unless required by applicable law or agreed to in writing, software
 ~   distributed under the License is distributed on an "AS IS" BASIS,
 ~   WITHOUT WARRANTIES OR CONDITIONS OF ANY KIND, either express or implied.
 ~   See the License for the specific language governing permissions and
 ~   limitations under the License.
-->

<svg version="1.1" id="loader5" xmlns="http://www.w3.org/2000/svg" xmlns:xlink="http://www.w3.org/1999/xlink" x="0px" y="0px"
	 viewBox="0 0 14 14" style="enable-background:new 0 0 14 14;" xml:space="preserve">
<path d="M7.3,12.5c0.4,0,0.8,0.3,0.8,0.8c0,0.4-0.3,0.8-0.8,0.8c-0.4,0-0.8-0.3-0.8-0.8C6.6,12.8,6.9,12.5,7.3,12.5z M11.6,10.1
	c0.4,0,0.8,0.3,0.8,0.8c0,0.4-0.3,0.8-0.8,0.8c-0.4,0-0.8-0.3-0.8-0.8C10.9,10.5,11.2,10.1,11.6,10.1z M2.3,10.1
	c0.4,0,0.8,0.3,0.8,0.8c0,0.4-0.3,0.8-0.8,0.8c-0.4,0-0.8-0.3-0.8-0.8C1.6,10.5,1.9,10.1,2.3,10.1z M13.1,6.5c0.4,0,0.8,0.3,0.8,0.8
	c0,0.4-0.3,0.8-0.8,0.8c-0.4,0-0.8-0.3-0.8-0.8C12.4,6.9,12.7,6.5,13.1,6.5z M1.1,6.3c0.5,0,1,0.4,1,1c0,0.5-0.4,1-1,1
	c-0.5,0-1-0.4-1-1C0.1,6.7,0.6,6.3,1.1,6.3z M2.8,2.1C3.5,2.1,4,2.7,4,3.3C4,4,3.5,4.5,2.8,4.5C2.1,4.5,1.6,4,1.6,3.3
	C1.6,2.7,2.1,2.1,2.8,2.1z M11.6,2.1c0.7,0,1.2,0.5,1.2,1.2c0,0.7-0.5,1.2-1.2,1.2c-0.7,0-1.2-0.5-1.2-1.2C10.4,2.7,11,2.1,11.6,2.1
	z M7.3,0C8,0,8.6,0.6,8.6,1.3C8.6,2,8,2.6,7.3,2.6C6.6,2.6,6,2,6,1.3C6,0.6,6.6,0,7.3,0z"/>
</svg>
