<?xml version="1.0" encoding="utf-8"?>

<!--
 ~   Copyright 2017, WSO2 Inc. (http://www.wso2.com)
 ~
 ~   Licensed under the Apache License, Version 2.0 (the "License");
 ~   you may not use this file except in compliance with the License.
 ~   You may obtain a copy of the License at
 ~
 ~        http://www.apache.org/licenses/LICENSE-2.0
 ~
 ~   Unless required by applicable law or agreed to in writing, software
 ~   distributed under the License is distributed on an "AS IS" BASIS,
 ~   WITHOUT WARRANTIES OR CONDITIONS OF ANY KIND, either express or implied.
 ~   See the License for the specific language governing permissions and
 ~   limitations under the License.
-->

<svg version="1.1" id="mute" xmlns="http://www.w3.org/2000/svg" xmlns:xlink="http://www.w3.org/1999/xlink" x="0px" y="0px"
	 viewBox="0 0 14 14" style="enable-background:new 0 0 14 14;" xml:space="preserve">
<path d="M14,6.9C14,7,14,7,14,6.9c0,0.2,0,0.3,0,0.3c0,0.1,0,0.2,0,0.3c0,0.7-0.2,1.4-0.4,2c-0.3,1-0.8,1.9-1.4,2.7l-0.9-0.5
	c0.1-0.2,0.2-0.3,0.4-0.5c0.5-0.8,0.9-1.6,1.1-2.5C13,8.1,13,7.4,13,6.7c-0.1-1-0.3-2-0.8-2.9L13,3.1c0.4,0.6,0.6,1.3,0.8,2.1
	C13.9,5.6,13.9,6,14,6.5C14,6.6,14,6.8,14,6.9z M7.8,5.5V1L3.6,4.5c-0.9,0-2.7,0-3.6,0v4.9c0.9,0,2.2,0,3.2,0L7.8,5.5z M4.6,10.3
	L7.8,13V7.6L4.6,10.3z M12.1,7c0-0.1,0-0.1,0-0.2c0-0.5-0.1-0.9-0.2-1.4c-0.1-0.4-0.2-0.7-0.4-1l-0.8,0.7c0.2,0.6,0.4,1.1,0.4,1.7
	c0,0.5,0,0.9-0.1,1.4c-0.1,0.6-0.3,1.1-0.6,1.6c-0.1,0.2-0.3,0.4-0.4,0.7l0.8,0.6c0.8-1.2,1.3-2.4,1.3-3.9C12.1,7.1,12.1,7,12.1,7z
	 M10.1,6.8c0-0.4-0.1-0.7-0.2-1L9.1,6.5c0.1,0.3,0.1,0.7,0.1,1c0,0.3-0.1,0.7-0.2,1C8.8,8.7,8.7,8.9,8.6,9.1l0.9,0.5
	c0.4-0.7,0.7-1.5,0.7-2.4C10.2,7,10.2,6.9,10.1,6.8z M0.5,12.8L0,12.2L13.5,0.6L14,1.2L0.5,12.8z"/>
</svg>
