<?xml version="1.0" encoding="utf-8"?>

<!--
 ~   Copyright 2017, WSO2 Inc. (http://www.wso2.com)
 ~
 ~   Licensed under the Apache License, Version 2.0 (the "License");
 ~   you may not use this file except in compliance with the License.
 ~   You may obtain a copy of the License at
 ~
 ~        http://www.apache.org/licenses/LICENSE-2.0
 ~
 ~   Unless required by applicable law or agreed to in writing, software
 ~   distributed under the License is distributed on an "AS IS" BASIS,
 ~   WITHOUT WARRANTIES OR CONDITIONS OF ANY KIND, either express or implied.
 ~   See the License for the specific language governing permissions and
 ~   limitations under the License.
-->

<svg version="1.1" id="namespace" xmlns="http://www.w3.org/2000/svg" xmlns:xlink="http://www.w3.org/1999/xlink" x="0px" y="0px"
	 viewBox="0 0 14 14" style="enable-background:new 0 0 14 14;" xml:space="preserve">
<path d="M0,6.6943359l3.2568359-2.7068481v0.7814941L0.512207,6.9889526v0.0220947l2.7446289,2.2199707v0.7814941L0,7.3056641
	V6.6943359z M5.6201172,4.982605c-0.6268311,0-1.0655518,0.3526611-1.2536011,0.7129517H4.350708L4.3114624,5.0687256H3.7004395
	C3.723877,5.3826904,3.7315063,5.7037354,3.7315063,6.0956421v2.765625h0.6895142V6.5807495
	c0-0.1166382,0.0158081-0.234375,0.0474243-0.3204956c0.1171875-0.3842773,0.4698486-0.7053223,0.9243774-0.7053223
	c0.6502686,0,0.8775635,0.5090942,0.8775635,1.1206665v2.1856689h0.6895142V6.5971069
	C6.9598999,5.2960205,6.1450195,4.982605,5.6201172,4.982605z M9.3063354,6.6592407
	c-0.4927368-0.1875-0.7216187-0.3292236-0.7216187-0.6420898c0-0.2823486,0.2288818-0.5172729,0.6343994-0.5172729
	c0.3532104,0,0.6279297,0.1253662,0.7761841,0.2196655l0.1722412-0.5014648
	C9.9560547,5.0927124,9.6203003,4.982605,9.2365723,4.982605c-0.8153687,0-1.3092041,0.5014648-1.3092041,1.1130371
	c0,0.4545898,0.3215942,0.8306885,1.0018311,1.0726929c0.5101318,0.1885376,0.7063599,0.3684082,0.7063599,0.6976318
	c0,0.3139648-0.2354736,0.5646973-0.7369385,0.5646973c-0.3444214,0-0.7041626-0.1417236-0.9085693-0.2747192L7.8178101,8.6813965
	C8.083252,8.8372803,8.46698,8.9397583,8.8833618,8.9397583c0.9004517,0,1.4171753-0.4698486,1.4171753-1.1359253
	C10.3005371,7.2391357,9.9647827,6.9099731,9.3063354,6.6592407z M10.7441406,3.9874878v0.7814941l2.765625,2.2199707v0.0220947
	l-2.765625,2.2199707v0.7814941L14,7.3167114V6.6832886L10.7441406,3.9874878z"/>
</svg>
