<?xml version="1.0" encoding="utf-8"?>

<!--
 ~   Copyright 2017, WSO2 Inc. (http://www.wso2.com)
 ~
 ~   Licensed under the Apache License, Version 2.0 (the "License");
 ~   you may not use this file except in compliance with the License.
 ~   You may obtain a copy of the License at
 ~
 ~        http://www.apache.org/licenses/LICENSE-2.0
 ~
 ~   Unless required by applicable law or agreed to in writing, software
 ~   distributed under the License is distributed on an "AS IS" BASIS,
 ~   WITHOUT WARRANTIES OR CONDITIONS OF ANY KIND, either express or implied.
 ~   See the License for the specific language governing permissions and
 ~   limitations under the License.
-->

<svg version="1.1" id="paste" xmlns="http://www.w3.org/2000/svg" xmlns:xlink="http://www.w3.org/1999/xlink" x="0px" y="0px"
	 viewBox="0 0 14 14" style="enable-background:new 0 0 14 14;" xml:space="preserve">
<path d="M10.7176466,2.75V2.2199707H9.2700195H9.210022V2.210022C9.210022,0.9899902,8.2199707,0,7,0
	S4.789978,0.9899902,4.789978,2.210022v0.0099487H3.3058825V2.75h-2.155858V14h11.6999512V2.75H10.7176466z M6.1099854,2.210022
	c0-0.5,0.4000244-0.9000244,0.8900146-0.9000244S7.8900146,1.710022,7.8900146,2.210022v0.0099487
	C7.8800049,2.710022,7.4899902,3.0999756,7,3.0999756S6.1199951,2.710022,6.1099854,2.2199707V2.210022z M11.3499756,12.5H2.6500244
	V4.25h0.655858v0.5200195h7.4117641V4.25h0.632329V12.5z"/>
</svg>
