<?xml version="1.0" encoding="utf-8"?>

<!--
 ~   Copyright 2017, WSO2 Inc. (http://www.wso2.com)
 ~
 ~   Licensed under the Apache License, Version 2.0 (the "License");
 ~   you may not use this file except in compliance with the License.
 ~   You may obtain a copy of the License at
 ~
 ~        http://www.apache.org/licenses/LICENSE-2.0
 ~
 ~   Unless required by applicable law or agreed to in writing, software
 ~   distributed under the License is distributed on an "AS IS" BASIS,
 ~   WITHOUT WARRANTIES OR CONDITIONS OF ANY KIND, either express or implied.
 ~   See the License for the specific language governing permissions and
 ~   limitations under the License.
-->

<svg version="1.1" id="pdf" xmlns="http://www.w3.org/2000/svg" xmlns:xlink="http://www.w3.org/1999/xlink" x="0px" y="0px"
	 viewBox="0 0 14 14" style="enable-background:new 0 0 14 14;" xml:space="preserve">
<path d="M13.7734528,8.5894976c-0.2801828-0.2752848-0.9003067-0.4212542-1.8446989-0.4339895
	c-0.6397181-0.0068569-1.4087505,0.0489836-2.2179499,0.1626244C9.3483295,8.1084852,8.9750786,7.8812037,8.6821604,7.6068993
	C7.8925557,6.8701949,7.2352037,5.8484097,6.8247271,4.7237601C6.8511777,4.618937,6.8746896,4.5268483,6.8952622,4.4328012
	c0,0,0.4437861-2.5236034,0.3262272-3.3768871C7.2058144,0.9393345,7.1960177,0.9050464,7.1636887,0.8139381l-0.039186-0.0989457
	C7.004004,0.4357894,6.7669268,0.1409118,6.3956356,0.1565863L6.1781511,0.1497287H6.1722736
	c-0.4143958,0-0.7523789,0.2116065-0.840548,0.5290163C5.0623188,1.67212,5.3405423,3.1572843,5.8440876,5.0823154
	L5.7147722,5.3958068c-0.3605146,0.8787546-0.8121376,1.7643676-1.2108593,2.545156L4.4519911,8.0428476
	c-0.4192944,0.8209553-0.8003821,1.5184727-1.1452227,2.1082277l-0.3565962,0.1880951
	c-0.0254712,0.0137148-0.6367786,0.3370028-0.779809,0.423213c-1.2147782,0.7249479-2.0200586,1.5488424-2.1542718,2.2022753
	c-0.0421254,0.2086678-0.0107763,0.4751348,0.2057285,0.5995522L0.56666,13.7366304
	c0.149888,0.0754337,0.3076132,0.1136408,0.4682773,0.1136408c0.8650396,0,1.8701706-1.0776262,3.2544298-3.4934664
	c1.5978251-0.5201998,3.4170532-0.9532089,5.0119395-1.1912661c1.2147779,0.684782,2.7097387,1.1599169,3.6521711,1.1599169
	c0.1675215,0,0.3125114-0.016654,0.4290905-0.0470238c0.1812382-0.0480032,0.3340635-0.1508684,0.4271317-0.2909594
	c0.183197-0.2752838,0.2194443-0.6544123,0.1704607-1.0433369C13.9644871,8.8295135,13.8723993,8.6864834,13.7734528,8.5894976z
	 M0.8478225,13.1938982c0.1577253-0.4310503,0.7827482-1.2843342,1.7065673-2.0416117
	c0.0577998-0.0470238,0.2008302-0.1812372,0.3321047-0.3056536C1.9195702,12.3876381,1.2729949,13.000906,0.8478225,13.1938982z
	 M6.3182425,0.5964536c0.2782235,0,0.4359488,0.7014363,0.4496641,1.358788
	c0.0127354,0.6563721-0.1410713,1.1177917-0.3311248,1.459693C6.2780766,2.9094303,6.201663,2.1129668,6.201663,1.5917879
	C6.201663,1.5917879,6.1908865,0.5964536,6.3182425,0.5964536z M4.6861296,9.5740557
	c0.1939726-0.3467999,0.3957825-0.7122126,0.601511-1.1011372C5.790206,7.5236278,6.1076159,6.780066,6.3437138,6.1697378
	C6.8139505,7.024981,7.3988075,7.7518888,8.0865288,8.333807C8.172739,8.4063015,8.2628679,8.4797764,8.3588743,8.5522699
	C6.9599199,8.8275547,5.7500401,9.1645575,4.6861296,9.5740557z M13.5050268,9.4947033
	c-0.0852299,0.0529013-0.3291655,0.0842505-0.4859114,0.0842505c-0.506484,0-1.1334658-0.2311993-2.0122213-0.6083689
	c0.3370028-0.0254707,0.6475554-0.0382061,0.924799-0.0382061c0.5074635,0,0.6593122-0.0019588,1.1559992,0.1244164
	C13.5833998,9.1841516,13.5902576,9.4418011,13.5050268,9.4947033z"/>
</svg>
