<?xml version="1.0" encoding="utf-8"?>

<!--
 ~   Copyright 2017, WSO2 Inc. (http://www.wso2.com)
 ~
 ~   Licensed under the Apache License, Version 2.0 (the "License");
 ~   you may not use this file except in compliance with the License.
 ~   You may obtain a copy of the License at
 ~
 ~        http://www.apache.org/licenses/LICENSE-2.0
 ~
 ~   Unless required by applicable law or agreed to in writing, software
 ~   distributed under the License is distributed on an "AS IS" BASIS,
 ~   WITHOUT WARRANTIES OR CONDITIONS OF ANY KIND, either express or implied.
 ~   See the License for the specific language governing permissions and
 ~   limitations under the License.
-->

<svg version="1.1" id="php" xmlns="http://www.w3.org/2000/svg" xmlns:xlink="http://www.w3.org/1999/xlink" x="0px" y="0px"
	 viewBox="0 0 14 14" style="enable-background:new 0 0 14 14;" xml:space="preserve">
<path d="M13.9865723,6.7797852c-0.0355835-0.295166-0.1391602-0.5662231-0.2924194-0.8193359
	c-0.1837158-0.3034668-0.4221802-0.55896-0.6923828-0.7861938c-0.3511963-0.2953491-0.7405396-0.5308228-1.1520386-0.7311401
	c-0.5261841-0.2561035-1.0759277-0.4472656-1.6412354-0.595459C9.84375,3.7520752,9.4754639,3.6728516,9.102417,3.618103
	C8.8457642,3.5803833,8.5883789,3.5463867,8.3303833,3.5195312C7.7922974,3.4634399,7.2524414,3.4436646,6.7116089,3.4581299
	c-0.2003784,0.0053101-0.401001,0.0109253-0.6008911,0.0247803C5.8781738,3.4990845,5.645752,3.5197754,5.4142456,3.5471191
	C5.1820068,3.5745239,4.9503174,3.6083374,4.7196045,3.6469727C4.3586426,3.7073364,4.0018311,3.7879639,3.6491699,3.8859253
	C3.1425171,4.0267334,2.6489258,4.2027588,2.1748657,4.4315186C1.7901001,4.6171875,1.4241333,4.8334961,1.0892944,5.1002197
	c-0.2767334,0.2203369-0.524231,0.468689-0.7216797,0.763916c-0.1664429,0.2488403-0.2858276,0.5176392-0.338623,0.8135986
	C-0.026001,6.986145-0.0021362,7.2893066,0.0958252,7.5866089c0.1123657,0.3408813,0.3047485,0.633606,0.5446167,0.8969727
	c0.2833252,0.3110962,0.614624,0.5628662,0.9724731,0.781189c0.4437256,0.2706299,0.9157104,0.4807129,1.4052734,0.6526489
	c0.4367065,0.1533203,0.8826294,0.2732544,1.3357544,0.3670654c0.3131104,0.0648804,0.6280518,0.1187134,0.9454346,0.1564331
	c0.2278442,0.0270996,0.4562988,0.0501099,0.6851196,0.0670166c0.2252808,0.0166016,0.4512329,0.0231323,0.6769409,0.0342407
	c0.0144653,0.0006714,0.0288696,0.0028076,0.0432739,0.0042725c0.1968384,0,0.3937378,0,0.5906372,0
	c0.0189819-0.0015259,0.0379028-0.0040283,0.0568848-0.0044556c0.310791-0.0066528,0.6212158-0.0223999,0.9302368-0.0557251
	c0.2687988-0.0289917,0.5378418-0.0587158,0.8048706-0.1005859c0.8444824-0.1322632,1.666626-0.3469238,2.4534302-0.6862793
	c0.4561157-0.1966553,0.8901367-0.4325562,1.2868042-0.7335815c0.2979126-0.2260742,0.5654907-0.4824219,0.7796021-0.7911377
	c0.1774902-0.2559204,0.3062134-0.5332031,0.3619995-0.8413696c0.012085-0.0670776,0.0174561-0.135376,0.026062-0.203125
	C13.99646,7.1204834,13.9984131,7.1108398,14,7.1011353c0-0.0674438,0-0.1348877,0-0.2023315
	C13.9955444,6.8591309,13.991333,6.819397,13.9865723,6.7797852z M4.8074951,7.8597412
	C4.6294556,7.982605,4.4283447,8.0502319,4.2156982,8.0853271C4.041748,8.1140747,3.8665771,8.1247559,3.6904907,8.1246338
	c-0.2296143-0.0002441-0.4592896-0.000061-0.6889038-0.000061c-0.0100098,0-0.0200195,0-0.0333252,0
	C2.9520874,8.2072144,2.9362793,8.2874756,2.9206543,8.3677368C2.871582,8.6196289,2.8223267,8.8713989,2.7738647,9.1233521
	c-0.0031738,0.0164185-0.0077515,0.0227051-0.0256958,0.022644C2.4830322,9.1453857,2.2178345,9.1455688,1.9526367,9.1455078
	c-0.0053101,0-0.0106201-0.0009766-0.019165-0.00177c0.2487183-1.2793579,0.4971924-2.557373,0.7459717-3.8370972
	c0.0103149,0,0.0183716,0,0.0264893,0c0.5339966,0.000061,1.0679932-0.0003662,1.6020508,0.0003052
	C4.5074463,5.307251,4.7040405,5.3300781,4.894043,5.3945923c0.2290039,0.0777588,0.416626,0.2099609,0.5447998,0.4187012
	C5.5310669,5.963562,5.5775146,6.1290894,5.5817261,6.3035889C5.5973511,6.9575195,5.3518677,7.4842529,4.8074951,7.8597412z
	 M8.3109131,8.1040039C8.3096924,8.1101685,8.3076172,8.1161499,8.305603,8.123291c-0.2797241,0-0.5592041,0-0.8416138,0
	c0.013916-0.0719604,0.0274048-0.1422729,0.0410156-0.2125244c0.078064-0.4021606,0.156311-0.8042603,0.2341309-1.2064819
	c0.0231934-0.119751,0.048645-0.2391968,0.0663452-0.3598022C7.8143311,6.2839966,7.8137817,6.2207031,7.8076172,6.159668
	C7.7973022,6.0574951,7.7355347,5.9943848,7.6386719,5.9633789C7.5562134,5.9369507,7.4712524,5.927063,7.3855591,5.9264526
	C7.1522217,5.9248657,6.9188843,5.9255371,6.6856079,5.925415c-0.0036011,0-0.0071411,0.0006714-0.0134277,0.0012817
	c-0.1424561,0.7327881-0.2844849,1.463623-0.4268799,2.196106c-0.2762451,0-0.5518188,0-0.8295898,0
	C5.4320679,8.0374756,5.447937,7.9536133,5.4642944,7.869873c0.0539551-0.2769775,0.1081543-0.553894,0.1620483-0.8308716
	c0.078125-0.4011841,0.1561279-0.8023682,0.2340088-1.2036133c0.085022-0.4378052,0.1697998-0.8756714,0.2547607-1.3134766
	c0.013855-0.0714722,0.0284424-0.1427612,0.0418091-0.2143555c0.0026855-0.0144043,0.0059814-0.0222778,0.0233765-0.0222168
	c0.2661133,0.0005493,0.5322876,0.0004272,0.7984009,0.0004883c0.0026245,0,0.0053101,0.0008545,0.012085,0.0020142
	c-0.0657349,0.338501-0.1314697,0.6765747-0.197937,1.0187988c0.0118408,0,0.0213623,0,0.0308228,0
	c0.2788696,0.0006714,0.5578003-0.001709,0.8366699,0.0029297C7.859314,5.3129272,8.0563354,5.3369751,8.2451782,5.4055786
	c0.1190186,0.0432129,0.2263794,0.1046143,0.3065796,0.2057495C8.6427002,5.7261353,8.6761475,5.8605347,8.6829834,6.003479
	C8.6898193,6.1448364,8.664978,6.2827148,8.6379395,6.4205933c-0.078064,0.3983765-0.1549072,0.796936-0.2322388,1.1954346
	C8.3740845,7.7786865,8.3425903,7.9413452,8.3109131,8.1040039z M11.8686523,7.3012695
	c-0.1904907,0.3178711-0.4530029,0.5585938-0.8011475,0.6975098c-0.1575928,0.0628662-0.3231201,0.0930176-0.491333,0.1088257
	c-0.3345947,0.0314941-0.670166,0.0113525-1.0053101,0.0169067c-0.0235596,0.0003662-0.0471802,0.000061-0.0736084,0.000061
	C9.4307861,8.4660645,9.3649902,8.8044434,9.2989502,9.1439819c-0.2782593,0-0.5548706,0-0.8363647,0
	c0.2487183-1.2792358,0.4972534-2.5576172,0.7460327-3.8373413c0.0118408,0,0.020874,0,0.0299072,0
	c0.5248413,0,1.0497437,0,1.574646,0c0.2078247,0,0.4126587,0.020813,0.6106567,0.0881348
	c0.2279663,0.0775757,0.4151001,0.2089844,0.5429688,0.4168701c0.086792,0.1409912,0.1317139,0.2957153,0.1415405,0.460022
	C12.1303101,6.6383057,12.0579224,6.9852905,11.8686523,7.3012695z M4.7025757,6.3098755
	c0.024353,0.1749268-0.0068359,0.3447876-0.0505981,0.5130615C4.6252441,6.9255371,4.5861816,7.0234375,4.532959,7.1154785
	c-0.1089478,0.1884766-0.2745361,0.298645-0.4821167,0.352478c-0.149353,0.0386963-0.3013916,0.0508423-0.454895,0.0509644
	c-0.1640015,0.0001221-0.328064,0-0.4921265,0c-0.0044556,0-0.0089111-0.0003662-0.0178833-0.0007935
	c0.0170898-0.088623,0.0336304-0.1743774,0.050293-0.2600708C3.2139282,6.8577271,3.291687,6.4573975,3.3694458,6.0570068
	C3.3772583,6.0168457,3.385498,5.9767456,3.3925781,5.9364014c0.0029297-0.0166626,0.008667-0.024292,0.0278931-0.0241699
	c0.2224121,0.0015259,0.4448242-0.0006714,0.6671143,0.0037842c0.1286621,0.0025024,0.2553711,0.0227051,0.3756714,0.0734253
	C4.6061401,6.0496826,4.6815796,6.1594849,4.7025757,6.3098755z M11.2340698,6.3344727
	c0.0185547,0.3080444-0.045166,0.5981445-0.2225952,0.8554688c-0.104126,0.151001-0.2573242,0.2318726-0.4312744,0.277832
	c-0.1481323,0.0391235-0.2993774,0.0509033-0.4519043,0.0510864c-0.1640015,0.0001831-0.3280029,0.000061-0.4919434,0
	c-0.0062256,0-0.0123901-0.0008545-0.0213013-0.0015869C9.7191162,6.9819946,9.822876,6.4484253,9.9267578,5.9140625
	c0.0084839-0.0005493,0.0147095-0.0013428,0.0209351-0.0012817c0.2213745,0.0006714,0.4428101-0.0009155,0.6641235,0.0029907
	c0.1278076,0.0021973,0.2536621,0.0219116,0.3735352,0.0703735C11.1422729,6.0495605,11.2241821,6.1708374,11.2340698,6.3344727z"/>
</svg>
