<?xml version="1.0" encoding="utf-8"?>

<!--
 ~   Copyright 2017, WSO2 Inc. (http://www.wso2.com)
 ~
 ~   Licensed under the Apache License, Version 2.0 (the "License");
 ~   you may not use this file except in compliance with the License.
 ~   You may obtain a copy of the License at
 ~
 ~        http://www.apache.org/licenses/LICENSE-2.0
 ~
 ~   Unless required by applicable law or agreed to in writing, software
 ~   distributed under the License is distributed on an "AS IS" BASIS,
 ~   WITHOUT WARRANTIES OR CONDITIONS OF ANY KIND, either express or implied.
 ~   See the License for the specific language governing permissions and
 ~   limitations under the License.
-->

<svg version="1.1" id="raspberry" xmlns="http://www.w3.org/2000/svg" xmlns:xlink="http://www.w3.org/1999/xlink" x="0px" y="0px"
	 viewBox="0 0 14 14" style="enable-background:new 0 0 14 14;" xml:space="preserve">
<path d="M11.5365696,6.3561401l-0.0991697-0.17663c0.0039101-1.2684999-0.57586-1.7856798-1.2518702-2.1786499
	c0.2046003-0.05477,0.4158602-0.0997601,0.4737501-0.3607001c0.3514996-0.0913501,0.4250498-0.2564399,0.4602604-0.4315
	c0.0919304-0.0622001,0.3996201-0.2368801,0.3673496-0.5373299c0.1723299-0.1206901,0.2683697-0.27561,0.21947-0.49508
	c0.1850395-0.20499,0.2339401-0.37439,0.1553097-0.5306799c0.2222099-0.2803,0.12362-0.4254401,0.0287504-0.57254
	c0.16646-0.30651,0.0195599-0.63513-0.4457798-0.58016c-0.1850405-0.276-0.5885801-0.21341-0.6509695-0.21204
	c-0.0698299-0.08861-0.1619596-0.1645-0.44559-0.12773c-0.18367-0.16646-0.38906-0.1381-0.6008997-0.05633
	C9.4956303-0.10176,9.3291702,0.05746,9.13904,0.11751C8.8344803,0.01814,8.7648497,0.15429,8.6152096,0.20984
	c-0.33214-0.07022-0.4330692,0.08274-0.5922899,0.24392L7.8376799,0.45004C7.33673,0.7454,7.0877299,1.3465,6.9995098,1.65556
	C6.9112902,1.3465,6.6630702,0.74521,6.1621299,0.45004L5.9768901,0.45376c-0.15942-0.16118-0.2603502-0.31414-0.5924902-0.24392
	c-0.1496401-0.05555-0.21908-0.1917-0.5238299-0.09233C4.7357702,0.078,4.62115-0.00396,4.48598,0.00015l0.0001998,0.00019
	C4.41537,0.0025,4.3390899,0.02871,4.2526302,0.09678C4.0407901,0.01521,3.8354001-0.01315,3.6517301,0.15311
	C3.3680999,0.11634,3.27597,0.19223,3.20614,0.28084c-0.0622001-0.00137-0.46593-0.06396-0.65097,0.21204
	C2.0900199,0.43791,1.94292,0.76653,2.10958,1.07304c-0.0950601,0.1471-0.19345,0.29243,0.0287499,0.5727301
	C2.0597,1.80187,2.1084001,1.97126,2.2934501,2.17645C2.24474,2.39592,2.34078,2.5508399,2.5129199,2.67153
	C2.48084,2.9719801,2.7885201,3.1464601,2.88026,3.2088599c0.0353999,0.17507,0.1089499,0.3401599,0.4602599,0.4315
	C3.3986199,3.9010999,3.60987,3.9462898,3.81428,4.00106C3.1382599,4.3940301,2.55849,4.9110098,2.5624001,6.1797099
	l-0.0989702,0.17663c-0.77518,0.4714103-1.4725199,1.9865603-0.38202,3.2180905
	c0.0711999,0.38554,0.1907101,0.6623201,0.2971201,0.9688301c0.15903,1.2348499,1.19749,1.8130598,1.4713399,1.8815298
	c0.40119,0.3057299,0.8287799,0.5956202,1.4071801,0.7988501C5.8022099,13.7860098,6.39294,14.0003901,6.9868002,14
	c0.0088,0,0.0176101,0,0.0264101,0c0.5938601,0.0003901,1.1845798-0.2139902,1.7299299-0.7763596
	c0.5782099-0.2032299,1.0058002-0.4931202,1.4069901-0.7988501c0.2738504-0.0684605,1.3123198-0.6466703,1.4713402-1.8815298
	c0.10641-0.30651,0.2259197-0.5832901,0.2971201-0.9688301C13.0090904,8.3427095,12.3117599,6.8275499,11.5365696,6.3561401z
	 M10.8355198,6.13941c-0.0404902,0.51092-2.6633596-1.7794199-2.2105293-1.8555102
	C9.8539801,4.0763602,10.8767996,4.80656,10.8355198,6.13941z M7.9560199,0.80037
	c0.0226898,0.11482,0.0483098,0.18739,0.0776496,0.20871C8.1795998,0.85044,8.2987204,0.6879,8.4864998,0.53532
	c0.0005903,0.08959-0.0445995,0.187,0.06709,0.258c0.1007404-0.13732,0.23668-0.26015,0.4172297-0.36422
	C8.8839703,0.58149,8.9559498,0.62765,9.0026999,0.69083c0.1379004-0.1201,0.26896-0.24177,0.5234404-0.33585
	C9.4565096,0.44085,9.3594904,0.52476,9.4623804,0.62374C9.6045799,0.53357,9.74757,0.44359,10.0847902,0.37962
	c-0.0758896,0.08607-0.23316,0.17213-0.1379004,0.2582c0.1783895-0.06924,0.3757601-0.11932,0.5942497-0.14866
	c-0.1046495,0.08743-0.1918898,0.17291-0.1062098,0.24059c0.1909103-0.05966,0.4539995-0.13986,0.7108297-0.07081l-0.16255,0.16626
	c-0.0181904,0.0223,0.3804502,0.01741,0.6435404,0.02132c-0.0960398,0.13536-0.19384,0.26602-0.2509604,0.4985999
	c0.0260201,0.0268,0.1562901,0.01193,0.2793303,0c-0.1261702,0.2693501-0.3450499,0.33742-0.3961,0.45263
	c0.0770702,0.05927,0.1838703,0.04382,0.3006401,0.00352c-0.0907602,0.1897399-0.2810802,0.3198199-0.4315004,0.4739499
	c0.0379496,0.02738,0.1044502,0.0436201,0.2617197,0.0246501c-0.1388798,0.1500299-0.3067102,0.2869501-0.50564,0.4101801
	c0.0352097,0.0414701,0.1562901,0.03971,0.2687597,0.04245C10.9726486,2.93168,10.740859,3.02439,10.5233488,3.1415601
	c0.1083603,0.07511,0.1858196,0.0576999,0.2687597,0.05653c-0.1535501,0.12832-0.4150696,0.19502-0.6576204,0.27228
	c0.0461597,0.0729599,0.09233,0.09272,0.1909103,0.11326C10.0685682,3.7279902,9.7006388,3.66187,9.5969687,3.73562
	c0.0250216,0.0725701,0.0956316,0.11971,0.1803312,0.15922C9.3637896,3.9192901,8.2327995,3.87958,8.0160704,3.01071
	C8.4393606,2.5385201,9.2118006,1.98437,10.54074,1.29916C9.5067797,1.65047,8.5739403,2.1187501,7.7932801,2.7630701
	C6.8752999,2.3292201,7.50808,1.235,7.9560199,0.80037z M6.9946198,3.93396
	c0.65098-0.00723,1.4568706,0.4856901,1.4537406,0.9500599c-0.0029402,0.40979-0.5660806,0.7417302-1.4486504,0.73528
	c-0.8643799-0.01017-1.4464998-0.4168301-1.4443502-0.8141098C5.5569201,4.4783301,6.2610998,3.9147899,6.9946198,3.93396z
	 M3.70454,3.5836301c0.0985899-0.02053,0.1447499-0.0402901,0.1909101-0.11325
	c-0.2425501-0.07727-0.50407-0.14397-0.6576202-0.27228c0.0829401,0.0011699,0.1603999,0.01858,0.26876-0.05653
	C3.2890799,3.0244,3.0572901,2.93168,2.87694,2.7525101C2.9894099,2.7497699,3.1104901,2.7515299,3.1457,2.7100599
	c-0.19893-0.12323-0.36676-0.26015-0.50564-0.4101799c0.15727,0.01897,0.2237699,0.0027399,0.2617199-0.0246501
	c-0.15042-0.15413-0.34074-0.28421-0.43151-0.4739499C2.58705,1.84157,2.69385,1.85703,2.7709098,1.79776
	c-0.0510499-0.1152101-0.2699299-0.18328-0.3961-0.45263c0.12304,0.01193,0.25331,0.0268,0.27932,0
	c-0.0569201-0.2325701-0.1549201-0.36324-0.2509601-0.4986c0.2630901-0.00391,0.6617301,0.00098,0.6437399-0.02112
	L2.8841701,0.65914C3.1412001,0.5899,3.4040899,0.67029,3.595,0.72976c0.08568-0.06748-0.00156-0.15316-0.10602-0.2404
	C3.7072799,0.5185,3.90465,0.56877,4.0830402,0.63782c0.0952601-0.08607-0.06181-0.17213-0.1378999-0.258
	c0.33742,0.06396,0.4804101,0.15394,0.6224198,0.24392c0.1030798-0.09878,0.0058699-0.1827-0.06357-0.26876
	c0.2542901,0.09428,0.3853402,0.21595,0.5232401,0.33605c0.0467501-0.06318,0.1189299-0.10954,0.0318799-0.26172
	c0.1807399,0.10406,0.31668,0.22671,0.4174199,0.36422c0.11169-0.0712,0.0665002-0.16842,0.06709-0.2582
	c0.1877799,0.15277,0.3069,0.31512,0.45263,0.47395C6.0255899,0.98776,6.0514102,0.91519,6.0741,0.80056
	C6.5218401,1.235,7.15482,2.3294101,6.2368498,2.7632699C5.4559898,2.1193299,4.52354,1.65125,3.49035,1.29994
	c1.32816,0.68481,2.1004102,1.2387701,2.5235002,1.71076c-0.2167201,0.86888-1.3477101,0.9085901-1.76122,0.88414
	c0.0847001-0.03951,0.1553102-0.0866499,0.1803498-0.15922C4.3293099,3.66188,3.96137,3.7279899,3.70454,3.5836301z
	 M5.2290902,4.2447801c0.4528298,0.0760899-2.1700399,2.3664298-2.21053,1.8555102
	C2.9772799,4.7676301,3.9999101,4.03724,5.2290902,4.2447801z M2.4753599,9.3483105
	C1.83788,8.8356304,1.6325001,7.3341699,2.8143401,6.6593299C3.52654,6.46842,3.05474,9.6057301,2.4753599,9.3483105z
	 M4.95994,12.0355396C4.6006098,12.25247,3.7274299,12.16327,3.1069698,11.2716999
	c-0.4186001-0.7479897-0.36461-1.5092897-0.0708101-1.7328701c0.4395201-0.2675896,1.11847,0.0938902,1.6409299,0.7002697
	C5.1324601,10.7877703,5.3400002,11.7515202,4.95994,12.0355396z M4.2536101,8.7638502
	C3.5940299,8.3315601,3.4751,7.3519702,3.9879701,6.57581c0.5130699-0.77636,1.4635203-1.0552897,2.1232903-0.6230001
	C6.7708502,6.3849001,6.88978,7.36449,6.3769002,8.1408396C5.8638301,8.9169998,4.9131899,9.19594,4.2536101,8.7638502z
	 M6.9969702,13.5634098C6.20614,13.59764,5.4307604,12.91576,5.4409304,12.6794701
	c-0.0117402-0.3466101,0.9629602-0.6171303,1.5984802-0.6012897c0.0348201-0.0015697,0.07022-0.0023499,0.1062102-0.0023499
	c0.6243701,0,1.3915305,0.2251396,1.39329,0.5187502C8.54949,12.8958101,7.7606101,13.5767097,6.9969702,13.5634098z
	 M8.6244001,10.1463804c0.0046902,0.8107796-0.70437,1.4715395-1.5836201,1.4758396
	c-0.87924,0.0043001-1.5957499-0.6496096-1.60044-1.4603901c0-0.0050898,0-0.01017,0-0.0154495
	c-0.0044999-0.8107805,0.70438-1.47153,1.5836201-1.4756403c0.87925-0.0043001,1.5957499,0.6494102,1.60044,1.4601898
	C8.6244001,10.1360197,8.6244001,10.1413002,8.6244001,10.1463804z M7.62603,8.0626001
	c-0.5128698-0.77636-0.39394-1.75595,0.2656403-2.1880403C8.5514507,5.4422698,9.5018902,5.72121,10.0149603,6.49756
	c0.5128803,0.7761598,0.3939505,1.7557502-0.2656298,2.1880403C9.0897503,9.1176996,8.1391096,8.8387604,7.62603,8.0626001z
	 M10.8505802,11.3147297c-0.6814899,0.94555-1.60396,0.9823303-1.9476395,0.7190399
	c-0.3593302-0.3389797-0.0850897-1.39153,0.4076405-1.9685698v-0.0002003
	c0.5637302-0.6365004,1.1663895-1.0521603,1.58636-0.7274599C11.1795902,9.6192303,11.3452702,10.6798,10.8505802,11.3147297z
	 M11.38381,9.3093901c-0.57938,0.2574196-1.0511799-2.8800898-0.3389797-2.6891799
	c0.6128302,0.3499398,0.8526402,0.92208,0.8526402,1.4635205C11.89746,8.5864296,11.6907101,9.0625401,11.38381,9.3093901z"/>
</svg>
