<?xml version="1.0" encoding="utf-8"?>

<!--
 ~   Copyright 2018, WSO2 Inc. (http://www.wso2.com)
 ~
 ~   Licensed under the Apache License, Version 2.0 (the "License");
 ~   you may not use this file except in compliance with the License.
 ~   You may obtain a copy of the License at
 ~
 ~        http://www.apache.org/licenses/LICENSE-2.0
 ~
 ~   Unless required by applicable law or agreed to in writing, software
 ~   distributed under the License is distributed on an "AS IS" BASIS,
 ~   WITHOUT WARRANTIES OR CONDITIONS OF ANY KIND, either express or implied.
 ~   See the License for the specific language governing permissions and
 ~   limitations under the License.
-->

<svg version="1.1" id="record" xmlns="http://www.w3.org/2000/svg" xmlns:xlink="http://www.w3.org/1999/xlink" x="0px" y="0px"
	 viewBox="0 0 14 14" style="enable-background:new 0 0 14 14;" xml:space="preserve">
<path d="M0,13.7L3.1,0.3h6.2c1.2,0,2.1,0.1,2.8,0.3c0.6,0.2,1.1,0.5,1.5,1S14,2.8,14,3.6c0,1.1-0.4,2-1.2,2.7C12.1,7,10.8,7.5,9,7.7
	C9.6,8,10,8.4,10.3,8.7c0.6,0.8,1.1,1.6,1.5,2.4l1.1,2.5h-2.2l-1.1-2.5c-0.4-0.9-0.8-1.7-1.3-2.3C8,8.4,7.6,8.1,7.3,8
	S6.4,7.8,5.6,7.8H3.3l-1.4,6H0z M3.7,6.3h2.7c1.3,0,2.1,0,2.5,0c0.7-0.1,1.3-0.2,1.8-0.5c0.5-0.2,0.8-0.6,1.1-1
	C12,4.4,12.1,4,12.1,3.5c0-0.4-0.1-0.7-0.3-1S11.4,2,11.1,1.9s-0.8-0.2-1.6-0.2H4.7L3.7,6.3z"/>
</svg>
