<?xml version="1.0" encoding="utf-8"?>

<!--
 ~   Copyright 2017, WSO2 Inc. (http://www.wso2.com)
 ~
 ~   Licensed under the Apache License, Version 2.0 (the "License");
 ~   you may not use this file except in compliance with the License.
 ~   You may obtain a copy of the License at
 ~
 ~        http://www.apache.org/licenses/LICENSE-2.0
 ~
 ~   Unless required by applicable law or agreed to in writing, software
 ~   distributed under the License is distributed on an "AS IS" BASIS,
 ~   WITHOUT WARRANTIES OR CONDITIONS OF ANY KIND, either express or implied.
 ~   See the License for the specific language governing permissions and
 ~   limitations under the License.
-->

<svg version="1.1" id="rename" xmlns="http://www.w3.org/2000/svg" xmlns:xlink="http://www.w3.org/1999/xlink" x="0px" y="0px"
	 viewBox="0 0 14 14" style="enable-background:new 0 0 14 14;" xml:space="preserve">
<path d="M6.7303343,12.4608984L6.4908404,12.440155c-0.2295933-0.018858-0.4464574-0.0367727-0.6553068-0.0829744
	c-0.7788258-0.1716051-1.1687098-0.6449347-1.1578665-1.4049025c0.035358-2.5853987,0.0358295-5.2547145,0.0009427-7.9339304
	C4.6687098,2.2494223,5.0199351,1.8246512,5.8171473,1.641731c0.171134-0.0391299,0.3526402-0.0518588,0.5445175-0.0650593
	c0.107018-0.0075431,0.2140355-0.0150862,0.3196392-0.0268723c0.1749058-0.0198007,0.6383352-0.0721309,0.6218343-0.5695043
	C7.2979527,0.8247187,7.2465653,0.7002574,7.149919,0.6102116C6.9849138,0.4565209,6.7468348,0.4650069,6.6233163,0.4701928
	C5.8114896,0.5008366,4.8978314,0.6323695,4.1746364,1.3376497C3.491514,0.6611276,2.6259429,0.51828,1.7844154,0.4711356
	C1.61611,0.4607639,1.0946929,0.4320058,1.0470771,0.9520085C0.9999326,1.4611679,1.4643049,1.5215129,1.6392107,1.5446136
	l0.0697737,0.0094289c0.0528017,0.008486,0.1056035,0.0075431,0.1598195,0.0047144
	C1.8886045,1.5573425,1.9192483,1.5554568,1.9296201,1.557814c0.1140894,0.0282866,0.2295932,0.0532732,0.3455685,0.0782597
	C2.574084,1.7006615,2.8560076,1.7614778,3.1105874,1.8746244c0.3375537,0.1499192,0.5270743,0.4304284,0.5341458,0.7906114
	C3.6489763,2.8811572,3.6503906,3.3577871,3.650862,3.6491394L0,3.6463108v6.7081766h3.6447332
	c-0.0014143,0.2706079-0.002357,0.6854792,0.0042431,0.8155975c0.0245152,0.4969025-0.1942348,0.8316269-0.6505928,0.9956894
	c-0.2932382,0.1065464-0.6081626,0.1584053-0.9414735,0.214036c-0.1428475,0.023572-0.2861665,0.0471439-0.4686153,0.0829744
	c-0.1664197,0.0311146-0.5567753,0.1027746-0.542632,0.5393314c0.0066001,0.1989498,0.0909886,0.3177528,0.160291,0.3818693
	c0.1074892,0.099946,0.2569369,0.1489763,0.4549434,0.1489763c0.0179148,0,0.0367726,0,0.0556303-0.0009422
	c0.8650997-0.0367727,1.7556574-0.1753778,2.4566946-0.8948011c0.7401671,0.7316809,1.6717401,0.8646288,2.4991245,0.893858
	c0.0136719,0,0.0268722,0.0009432,0.0396013,0.0009432c0.4926586,0,0.575633-0.3337822,0.5878906-0.4799299
	C7.3135104,12.8927412,7.2856951,12.5174723,6.7303343,12.4608984z M3.6235182,4.7141314V9.291852H1.0574489V4.7141314H3.6235182z
	 M14,3.6675258v6.6662173H5.0892377l-0.049973-1.007947h7.9160156V4.7042308H5.0807514v-1.036705H14z"/>
</svg>
