<?xml version="1.0" encoding="utf-8"?>

<!--
 ~   Copyright 2017, WSO2 Inc. (http://www.wso2.com)
 ~
 ~   Licensed under the Apache License, Version 2.0 (the "License");
 ~   you may not use this file except in compliance with the License.
 ~   You may obtain a copy of the License at
 ~
 ~        http://www.apache.org/licenses/LICENSE-2.0
 ~
 ~   Unless required by applicable law or agreed to in writing, software
 ~   distributed under the License is distributed on an "AS IS" BASIS,
 ~   WITHOUT WARRANTIES OR CONDITIONS OF ANY KIND, either express or implied.
 ~   See the License for the specific language governing permissions and
 ~   limitations under the License.
-->

<svg version="1.1" id="rest-api" xmlns="http://www.w3.org/2000/svg" xmlns:xlink="http://www.w3.org/1999/xlink" x="0px" y="0px"
	 viewBox="0 0 14 14" style="enable-background:new 0 0 14 14;" xml:space="preserve">
<path d="M11.1801414,6.1639714L10.3441133,6.044539c-0.1194324-0.2388654-0.2388649-0.4777303-0.3582983-0.7763119
	l0.537447-0.6568794L9.3886528,3.4767377L8.7317724,4.0141845c-0.2388649-0.1194327-0.537446-0.2388651-0.8360276-0.3582978
	L7.8360281,2.8198583H6.2236876L6.1042552,3.6558867C5.8056736,3.7753193,5.5668087,3.8947518,5.2682271,4.0141845
	L4.5516315,3.4767377L3.4767377,4.6113477l0.5374467,0.7165956C3.8947518,5.5668087,3.7753193,5.8653898,3.7156029,6.1042552
	L2.8198583,6.2236876v1.5526237l0.8957446,0.1194324c0.1194327,0.2985826,0.1791489,0.5374475,0.3582978,0.7763133
	l-0.597163,0.7165956l1.1346099,1.1346092l0.7165956-0.5971632c0.2388654,0.1194324,0.4777303,0.2388649,0.7763119,0.2985821
	l0.0597162,0.9554605h1.5526242l0.1194324-0.8957443c0.2985811-0.0597162,0.537447-0.1791487,0.8360281-0.2985821
	l0.7165956,0.5971632l1.1346092-1.1346092L9.985815,8.6720572c0.1194334-0.2388659,0.2388659-0.537447,0.3582983-0.7763124
	l0.8360281-0.1194324V6.1639714z M6.9999995,9.6589336c-1.4915967,0-2.6589336-1.1673365-2.6589336-2.6589332
	s1.1673369-2.6589346,2.6589336-2.6589346s2.6589341,1.1673369,2.6589341,2.6589336S8.4915972,9.6589336,6.9999995,9.6589336z
	 M6.779563,7.9528952h-0.418714L6.1946464,7.520185H5.4327383L5.2755752,7.9528952H4.8673577l0.742372-1.9057903h0.4067588
	L6.779563,7.9528952z M6.0710149,7.1988602L5.8085895,6.4917698L5.5511212,7.1988602H6.0710149z M6.9836712,7.9528952V6.0471048
	h0.6175742c0.23385,0,0.3866396,0.0096226,0.4577861,0.0285754C8.1680841,6.104547,8.2596407,6.1666541,8.3331203,6.2622938
	c0.0734787,0.0959306,0.110218,0.2195621,0.110218,0.3711858c0,0.1169248-0.0209942,0.2154803-0.0635653,0.2947907
	C8.3372021,7.0081644,8.2835512,7.0705633,8.218236,7.1160502C8.152338,7.1615372,8.0858574,7.1918621,8.0182095,7.2070241
	C7.9266524,7.2245193,7.7936902,7.23385,7.6193233,7.23385H7.3685617v0.7190452H6.9836712z M7.3685617,6.3695965v0.5411792
	h0.2105231c0.1516232,0,0.2530947-0.0104971,0.3044133-0.0303249C7.9342337,6.8606229,7.974472,6.8294234,8.0036306,6.7868524
	S8.047368,6.6950035,8.047368,6.6387281c0-0.069397-0.0204105-0.1265473-0.0612326-0.1717429
	C7.9453139,6.4220815,7.8934121,6.3937979,7.8310132,6.3827176C7.7855263,6.37397,7.6928024,6.3695965,7.5545921,6.3695965
	H7.3685617z M8.7477522,7.9528952V6.0471048h0.3848896v1.9057903H8.7477522z M0,7.6256318V6.3743682
	c0.2132496-0.0139027,0.3739171-0.0521359,0.4820025-0.1146989c0.1080854-0.0625634,0.2015647-0.1677041,0.2804378-0.3154225
	c0.0788731-0.1477189,0.1329158-0.3328013,0.1621281-0.5552483c0.0233698-0.1668353,0.0350547-0.4570589,0.0350547-0.8706708
	c0-0.6742918,0.026291-1.1443846,0.0788732-1.4102781s0.147522-0.479651,0.2848197-0.6412725
	c0.1372976-0.1616213,0.3374017-0.2893546,0.6003121-0.3831992C2.1018231,2.0210147,2.3822608,1.989733,2.7649415,1.989733H2.997179
	v1.2460499c-0.3242562,0-0.5323935,0.0217233-0.6244123,0.0651698C2.2807481,3.3443995,2.2128296,3.4104383,2.1690111,3.4990695
	C2.1251929,3.5877006,2.1032836,3.7397637,2.1032836,3.9552591c0,0.218971-0.0131457,0.634321-0.0394366,1.2460496
	C2.0492408,5.5454063,2.011265,5.8243337,1.9499192,6.0380912s-0.1394887,0.390151-0.2344285,0.52918
	C1.6205508,6.7063007,1.4752197,6.8505435,1.2794975,7c0.1723524,0.118175,0.3133017,0.2563353,0.4228476,0.4144812
	C1.8118912,7.5726266,1.8958764,7.7646608,1.954301,7.9905834s0.0964006,0.5283117,0.113928,0.9071655
	c0.0204484,0.576972,0.0306728,0.9453993,0.0306728,1.1052828c0,0.2293987,0.0233698,0.3892822,0.0701094,0.4796515
	c0.0467398,0.0903692,0.1175795,0.1590147,0.2125194,0.2059364c0.0949399,0.0469227,0.3001561,0.070384,0.6156485,0.070384
	v1.2512636H2.7649415c-0.3943655,0-0.6967125-0.037364-0.9070411-0.112093
	c-0.2103283-0.074728-0.3877928-0.1989851-0.5323937-0.3727722c-0.1446007-0.1737862-0.2417315-0.3884125-0.2913923-0.6438789
	c-0.049661-0.2554665-0.0744914-0.6577826-0.0744914-1.2069473c0-0.639535-0.0233698-1.0548849-0.0701095-1.2460499
	c-0.064267-0.278059-0.1613978-0.4770446-0.2913924-0.5969572S0.2687529,7.6430101,0,7.6256318z M14,7.6256318
	c-0.2137842,0.0139027-0.3748541,0.0521359-0.4832096,0.1146989c-0.1083565,0.0625634-0.2013378,0.1677041-0.278944,0.315423
	c-0.0776072,0.1477184-0.1325169,0.3328009-0.164731,0.5552483c-0.023428,0.1668348-0.0351429,0.4553204-0.0351429,0.8654566
	c0,0.6742916-0.0256243,1.1452541-0.0768738,1.4128847c-0.0512495,0.2676315-0.1456957,0.4822578-0.2833366,0.6438799
	c-0.1376419,0.1616211-0.3397112,0.2893543-0.6062088,0.3831987c-0.1786413,0.0625639-0.4597816,0.0938454-0.843421,0.0938454
	h-0.2328196v-1.2512636c0.3133545,0,0.5183525-0.0234613,0.614994-0.070384
	c0.0966425-0.0469217,0.1676598-0.1146984,0.2130518-0.20333c0.045393-0.0886307,0.068821-0.2389565,0.0702848-0.4509764
	c0.0014648-0.212019,0.0139112-0.6169415,0.0373392-1.2147675c0.0146427-0.3614759,0.0541782-0.6508312,0.1186066-0.8680644
	c0.0644274-0.2172332,0.1500874-0.4014468,0.2569799-0.5526409C12.4134607,7.2476459,12.5503702,7.1146994,12.7172976,7
	c-0.216713-0.1668353-0.3748541-0.3301945-0.4744244-0.490078c-0.1376419-0.2293983-0.2313557-0.5213599-0.2811403-0.8758845
	c-0.0322142-0.2433014-0.0556431-0.778564-0.0702858-1.6057878c-0.0029278-0.26068-0.0226955-0.4344666-0.0593023-0.5213599
	s-0.1025-0.1538012-0.1976776-0.2007234c-0.0951777-0.0469224-0.3082294-0.0703835-0.6391544-0.0703835V1.989733h0.2328196
	c0.3953533,0,0.6984577,0.0364952,0.9093132,0.1094856c0.2108545,0.0729904,0.388032,0.1972477,0.5315304,0.3727722
	c0.1434994,0.1755245,0.2408733,0.3910198,0.2921228,0.646486s0.0768738,0.6577821,0.0768738,1.2069478
	c0,0.6360588,0.0219641,1.0514088,0.0658922,1.2460499c0.0644283,0.2780585,0.1625347,0.4770441,0.2943192,0.5969567
	S13.7305737,6.3569899,14,6.3743682V7.6256318z"/>
</svg>
