<?xml version="1.0" encoding="utf-8"?>

<!--
 ~   Copyright 2017, WSO2 Inc. (http://www.wso2.com)
 ~
 ~   Licensed under the Apache License, Version 2.0 (the "License");
 ~   you may not use this file except in compliance with the License.
 ~   You may obtain a copy of the License at
 ~
 ~        http://www.apache.org/licenses/LICENSE-2.0
 ~
 ~   Unless required by applicable law or agreed to in writing, software
 ~   distributed under the License is distributed on an "AS IS" BASIS,
 ~   WITHOUT WARRANTIES OR CONDITIONS OF ANY KIND, either express or implied.
 ~   See the License for the specific language governing permissions and
 ~   limitations under the License.
-->

<svg version="1.1" id="security" xmlns="http://www.w3.org/2000/svg" xmlns:xlink="http://www.w3.org/1999/xlink" x="0px" y="0px"
	 viewBox="0 0 14 14" style="enable-background:new 0 0 14 14;" xml:space="preserve">
<path id="XMLID_1_" d="M13,2c0,0,0.1000004,0.0999999,0.1000004,0.2c0,2.1000001-0.6000004,4.5-1.5,6.6000004
	C10.8999996,10.5,9.3000002,12.8000002,7.0999999,14H7H6.9000001c-2.2000003-1.1000004-3.7-3.3999996-4.5-5.1000004
	C1.4,6.8000002,0.9,4.4000001,0.9,2.3c0-0.0999999,0-0.2,0.1-0.2L6.9000001,0C7,0,7,0,7.0999999,0L13,2z M9.1499996,9.1599998
	l0.0100002-3.04H4.8400002l0.0099998,3.04H9.1499996z M8.5100002,5.8400002V4.98c0-0.8099999-0.6500001-1.5-1.5100002-1.5
	c-0.8499999,0-1.5,0.6900001-1.5,1.54v0.8200002h0.6100001V5.02C6.1100001,4.54,6.52,4.1300001,7,4.1300001
	C7.4899998,4.1300001,7.9000001,4.54,7.9000001,5.02v0.8200002H8.5100002z M7,6.77
	c-0.1999998,0-0.3600001,0.1599998-0.3600001,0.3600001c0,0.1300001,0.0799999,0.25,0.1600003,0.3299999v0.8500004H7.21V7.46
	C7.29,7.3800001,7.3699999,7.2600002,7.3699999,7.1300001C7.3699999,6.9299998,7.21,6.77,7,6.77z"/>
</svg>
