<?xml version="1.0" encoding="utf-8"?>

<!--
 ~   Copyright 2017, WSO2 Inc. (http://www.wso2.com)
 ~
 ~   Licensed under the Apache License, Version 2.0 (the "License");
 ~   you may not use this file except in compliance with the License.
 ~   You may obtain a copy of the License at
 ~
 ~        http://www.apache.org/licenses/LICENSE-2.0
 ~
 ~   Unless required by applicable law or agreed to in writing, software
 ~   distributed under the License is distributed on an "AS IS" BASIS,
 ~   WITHOUT WARRANTIES OR CONDITIONS OF ANY KIND, either express or implied.
 ~   See the License for the specific language governing permissions and
 ~   limitations under the License.
-->

<svg version="1.1" id="swagger" xmlns="http://www.w3.org/2000/svg" xmlns:xlink="http://www.w3.org/1999/xlink" x="0px" y="0px"
	 viewBox="0 0 14 14" style="enable-background:new 0 0 14 14;" xml:space="preserve">
<path d="M6.3169994,0.0349998c1.5769997-0.1609993,3.2049999,0.2399998,4.5270004,1.1159992
	c1.0259991,0.6709995,1.8640003,1.6189995,2.4139996,2.7129993c0.5249996,1.0480003,0.7810001,2.2299995,0.7380009,3.401001
	c-0.0550003,1.3799992-0.5219994,2.7439995-1.3400002,3.8579998c-0.8570004,1.177-2.0879993,2.0799999-3.4750004,2.5270004
	c-1.2950001,0.4300003-2.7159996,0.4650002-4.0300007,0.1009998c-1.3610001-0.368-2.6019993-1.1639996-3.507-2.2439995
	c-0.8519993-1.0090008-1.4090004-2.2630005-1.5809994-3.573c-0.2310009-1.6749992,0.1739998-3.4309998,1.1219997-4.8319988
	C2.323,1.382,4.2600002,0.2199993,6.3169994,0.0349998z M4.0470009,3.6539993
	C3.7050018,3.8739986,3.6220016,4.3079987,3.6040001,4.6849995C3.5160007,5.2209988,3.6849995,5.802,3.4319992,6.3059998
	C3.3069992,6.539999,3.0269985,6.573,2.7909985,6.5919991c-0.007,0.2719994-0.007,0.5450001,0,0.8169994
	C3.039999,7.4039993,3.3309994,7.4779987,3.447998,7.7229977C3.6739979,8.211998,3.5229988,8.7619972,3.6009979,9.277998
	c0.0249996,0.3659992,0.0760002,0.7889996,0.3899994,1.0289993c0.3330002,0.2520008,0.7730007,0.2240009,1.1679993,0.2210007
	c0-0.2399998,0-0.4799995,0-0.7199993C4.9319973,9.8059978,4.6359959,9.8359985,4.4879971,9.6249981
	c-0.1509991-0.434-0.0769997-0.9029999-0.0990009-1.3530006C4.350996,7.9919968,4.3139954,7.7019978,4.1699963,7.4529972
	c-0.1019993-0.191-0.2670002-0.3400002-0.4489994-0.4540005C3.876997,6.8999958,4.0269966,6.7819977,4.1249962,6.6219959
	C4.3029957,6.3609962,4.3499966,6.041996,4.3879967,5.7359962C4.4119968,5.284996,4.3369961,4.8169956,4.4849968,4.3819962
	c0.1410007-0.2269993,0.4449997-0.1779995,0.6730003-0.1819992c0-0.2399998,0-0.4799995,0-0.7199993
	C4.7849998,3.4829998,4.375,3.4330006,4.0470009,3.6539993z M8.8449993,3.4799995
	C8.8389988,3.7199993,8.8389988,3.9599991,8.8439999,4.1999989c0.1970005,0.007,0.4190006-0.0359993,0.5890007,0.0900002
	c0.1149998,0.073,0.1280003,0.2210007,0.1410007,0.3430004c0.0919991,0.5849991-0.0489998,1.2019997,0.184,1.7630005
	c0.0949993,0.2590008,0.2940006,0.4629993,0.5240002,0.6089993C10.0070019,7.1509991,9.8080006,7.4169998,9.717001,7.7119999
	C9.5390015,8.2520008,9.6640015,8.8260002,9.5710011,9.3789997C9.5560017,9.5009995,9.5420017,9.6459999,9.427002,9.7169991
	c-0.177,0.1019993-0.3880005,0.0909996-0.5849991,0.0900002c-0.0020008,0.2399998-0.0039997,0.4799995,0.0020008,0.7199993
	c0.3929996,0.0030003,0.8290005,0.0289993,1.1630001-0.2169991c0.3339996-0.2639999,0.3810005-0.7310009,0.3859997-1.1259995
	c0.0410004-0.4750004-0.0400009-0.9769993,0.1420002-1.4290009c0.1000004-0.2630005,0.4060001-0.3500004,0.6620007-0.3460007
	c0-0.2730007,0-0.5459995,0-0.8190002c-0.177-0.0259991-0.3780003-0.0189991-0.5200005-0.1450005
	c-0.1459999-0.1299992-0.191-0.3320007-0.2320004-0.5149994c-0.059-0.4960003-0.0270004-0.9969997-0.0739994-1.4939995
	c-0.0450001-0.3059998-0.1580009-0.6380005-0.4440002-0.7989998C9.6030006,3.4349995,9.2089996,3.4839993,8.8449993,3.4799995z
	 M5.1159992,6.552C4.8209991,6.6560001,4.7169991,7.0690002,4.9200001,7.3050003
	C5.0440006,7.4810009,5.2819996,7.5,5.4759998,7.453001c0.2679996-0.0930004,0.3999996-0.4519997,0.2439995-0.6930008
	C5.6100006,6.5510006,5.3330002,6.4559994,5.1159992,6.552z M6.7980003,6.559
	C6.6750011,6.6070004,6.5810013,6.7159996,6.5419998,6.8409996C6.421999,7.125,6.6690006,7.4979992,6.9820004,7.4720001
	C7.2509995,7.5090008,7.5100002,7.25,7.4710007,6.9810009C7.4950008,6.6490002,7.0869999,6.4080009,6.7980003,6.559z
	 M8.5170002,6.5499992C8.3490009,6.6199989,8.2059994,6.7909985,8.2199993,6.980999
	C8.1889992,7.2459984,8.4329987,7.5059986,8.7019997,7.4729996c0.3390007,0.0359993,0.6049995-0.3859997,0.4349995-0.6779995
	C9.0419998,6.5629997,8.7460003,6.4519997,8.5170002,6.5499992z"/>
</svg>
