<?xml version="1.0" encoding="utf-8"?>

<!--
 ~   Copyright 2017, WSO2 Inc. (http://www.wso2.com)
 ~
 ~   Licensed under the Apache License, Version 2.0 (the "License");
 ~   you may not use this file except in compliance with the License.
 ~   You may obtain a copy of the License at
 ~
 ~        http://www.apache.org/licenses/LICENSE-2.0
 ~
 ~   Unless required by applicable law or agreed to in writing, software
 ~   distributed under the License is distributed on an "AS IS" BASIS,
 ~   WITHOUT WARRANTIES OR CONDITIONS OF ANY KIND, either express or implied.
 ~   See the License for the specific language governing permissions and
 ~   limitations under the License.
-->

<svg version="1.1" id="table" xmlns="http://www.w3.org/2000/svg" xmlns:xlink="http://www.w3.org/1999/xlink" x="0px" y="0px"
	 viewBox="0 0 14 14" style="enable-background:new 0 0 14 14;" xml:space="preserve">
<path d="M14,1c0,3.6,0,7.8,0,11.3c-4.7,0-9.3,0-14,0C0,8.8,0,4.6,0,1C4.7,1,9.2,1,14,1z M3.8,5.2c1.2,0,3.6,0,4.8,0
	c0-0.6,0-1.8,0-2.4c-1.2,0-3.6,0-4.8,0C3.8,3.4,3.8,4.6,3.8,5.2z M8.7,6.4c-1.2,0-3.6,0-4.8,0c0,0.6,0,1.2,0,1.8c1.2,0,3.6,0,4.8,0
	C8.7,7.6,8.7,7,8.7,6.4z M3.9,11.1c1.2,0,3.6,0,4.8,0c0-0.6,0-1.2,0-1.8c-1.2,0-3.6,0-4.8,0C3.9,10,3.9,10.5,3.9,11.1z M1.2,2.8
	c0,0.6,0,1.9,0,2.4c1,0,0.5,0,1.5,0c0-0.6,0-1.8,0-2.4C1.7,2.8,2.2,2.8,1.2,2.8z M9.9,5.2c1,0,2,0,2.9,0c0-0.6,0-1.8,0-2.4
	c-1,0-2,0-2.9,0C9.9,3.4,9.9,4.6,9.9,5.2z M2.6,8.2c0-0.6,0-1.2,0-1.8c-1,0-0.5,0-1.5,0c0,0.6,0,1.2,0,1.8C2.2,8.2,1.7,8.2,2.6,8.2z
	 M9.9,8.2c1,0,2,0,2.9,0c0-0.6,0-1.2,0-1.8c-1,0-2,0-2.9,0C9.9,7,9.9,7.6,9.9,8.2z M1.2,9.4c0,0.6,0,1.2,0,1.8c1,0,0.5,0,1.5,0
	c0-0.6,0-1.2,0-1.8C1.7,9.4,2.2,9.4,1.2,9.4z M12.8,9.4c-1,0-2,0-2.9,0c0,0.6,0,1.2,0,1.8c1,0,2,0,2.9,0C12.8,10.6,12.8,10,12.8,9.4
	z"/>
</svg>
