<?xml version="1.0" encoding="utf-8"?>

<!--
 ~   Copyright 2017, WSO2 Inc. (http://www.wso2.com)
 ~
 ~   Licensed under the Apache License, Version 2.0 (the "License");
 ~   you may not use this file except in compliance with the License.
 ~   You may obtain a copy of the License at
 ~
 ~        http://www.apache.org/licenses/LICENSE-2.0
 ~
 ~   Unless required by applicable law or agreed to in writing, software
 ~   distributed under the License is distributed on an "AS IS" BASIS,
 ~   WITHOUT WARRANTIES OR CONDITIONS OF ANY KIND, either express or implied.
 ~   See the License for the specific language governing permissions and
 ~   limitations under the License.
-->

<svg version="1.1" id="theme" xmlns="http://www.w3.org/2000/svg" xmlns:xlink="http://www.w3.org/1999/xlink" x="0px" y="0px"
	 viewBox="0 0 14 14" style="enable-background:new 0 0 14 14;" xml:space="preserve">
<path d="M13.8709717,7.5285645c-2.4402466-2.4404907-4.8807373-4.8807373-7.3215942-7.3206177
	C6.3465576,0.005188,6.1802368,0.0080566,5.9730835,0.2151489C5.0835571,1.104187,4.194397,1.9934692,3.3052979,2.8828735
	c-0.2197266,0.2197876-0.2209473,0.3771973-0.0027466,0.59552c0.9448242,0.9456177,1.8901367,1.890686,2.8352661,2.8359375
	c1.4918213,1.4920044,2.9829102,2.9846802,4.4776001,4.4738159c0.0674438,0.0671997,0.1669312,0.1021729,0.2672729,0.161499
	c0.0973511-0.0591431,0.1912231-0.0943604,0.2560425-0.1588135c0.9152222-0.9092407,1.8271484-1.8218994,2.7382812-2.7352905
	C14.0440674,7.8880615,14.039856,7.6973877,13.8709717,7.5285645z M13.4249878,8.0237427
	c-0.3155518,0.3226318-0.6375732,0.638916-0.9660034,0.9666748c-0.0443726-0.0725708-0.0768433-0.1450806-0.126709-0.2025146
	c-0.0725098-0.0834961-0.1500244-0.1665039-0.2388916-0.2312012c-0.1604004-0.1168213-0.3407593-0.1091919-0.4683228,0.0773315
	c-0.1639404,0.2398682-0.4254761,0.2232056-0.5814819-0.0177612c-0.0801392-0.1237183-0.0734253-0.211853,0.0396729-0.3065796
	c0.0924072-0.0773926,0.1970825-0.1400146,0.2932739-0.2132568c0.1759033-0.1339111,0.190918-0.3356934,0.0410156-0.510498
	c-0.12146-0.1416626-0.2962036-0.1426392-0.4506226,0.012146c-0.0879517,0.0881958-0.1567993,0.1954346-0.2348633,0.2936401
	c-0.0491333,0.0618286-0.0946655,0.1275024-0.1500854,0.1832886c-0.1292114,0.130188-0.2459106,0.1244507-0.3709106-0.0110474
	c-0.1148071-0.1245117-0.1096802-0.2259521,0.0294189-0.3447876c0.0952759-0.0814209,0.2012939-0.1502075,0.300415-0.227356
	c0.1720581-0.1339111,0.3220825-0.2870483,0.255249-0.5287476c-0.072876-0.2631836-0.317749-0.2402344-0.6079102-0.3042603
	c-0.1872559-0.041687-0.3973389,0.2050781-0.5715332,0.2481689C9.3404541,6.9751587,9.4902344,6.4974365,9.5084229,6.3723755
	c0.005249-0.0360107,0.0078735-0.0790405-0.0202026-0.1021729C9.4213867,6.21521,9.2816162,6.3371582,9.2327881,6.3744507
	c-0.190918,0.1456909-0.3046265,0.1275635-0.4939575-0.0667114C8.5870972,6.1520996,8.5766602,6.010376,8.7107544,5.8363037
	c0.0709839-0.092041,0.1553345-0.1738892,0.2240601-0.267395c0.1126709-0.1533203,0.090332-0.2827148-0.0587769-0.399292
	c-0.234436-0.1832886-0.4173584-0.1690674-0.6154175,0.0523071c-0.1303101,0.1456909-0.2520752,0.2991943-0.3864136,0.440918
	C7.8081055,5.732605,7.7297974,5.8044434,7.6427612,5.8359985C7.5779419,5.8595581,7.4663696,5.845459,7.4193115,5.8014526
	C7.3717041,5.756897,7.3469849,5.6447754,7.367981,5.5805054c0.0300293-0.092041,0.1004639-0.1779785,0.171875-0.2479248
	c0.1595459-0.1560669,0.3338013-0.2970581,0.4951782-0.451355C8.1276855,4.7926025,8.2451172,4.697937,8.199707,4.550415
	c-0.0447998-0.1455688-0.1744995-0.208252-0.3187256-0.2387695C7.4627075,4.2230835,7.1869507,4.4800415,7,4.1411743
	c0-0.3127441,0.2189331-0.6300659,0.3469849-0.9057617C7.4525146,3.0082397,7.3840332,2.7514038,7.1549072,2.630249
	C6.9151611,2.50354,6.6312256,2.5709229,6.3848267,2.6401367C6.2349243,2.682251,6.0006714,2.7855225,5.8435059,2.7298584
	c-0.3041992-0.1078491-0.4093018-0.326416-0.3321533-0.6419678c0.0297241-0.121521,0.0787354-0.2381592,0.1123047-0.3588257
	C5.685791,1.5056152,5.631958,1.4111938,5.4125366,1.3438721C5.3955078,1.338623,5.3798828,1.3287964,5.359314,1.3190308
	C5.588623,1.0866089,5.8087769,0.8530884,6.0409546,0.6323242c0.1286621-0.1223145,0.3093262-0.0933838,0.4611206,0.0574341
	C6.8884888,1.0736694,7.2728271,1.4597778,7.65802,1.8449707c1.8535767,1.8536377,3.7071533,3.7071533,5.5606689,5.560791
	c0.0658569,0.0658569,0.1341553,0.1296387,0.1957397,0.1993408C13.5265503,7.7319336,13.5365601,7.909668,13.4249878,8.0237427z
	 M6.2514648,7.5437012c0.2213745,0.2214966,0.2192993,0.3831177-0.0045166,0.6069946
	C6.0133667,8.3843384,5.7792358,8.6174316,5.5167236,8.8793335c0.0501099,0.0342407,0.098938,0.0571899,0.1340942,0.0933228
	c0.282959,0.2913818,0.2819824,0.6957397-0.0059204,0.9859009C5.1594238,10.447937,4.6706543,10.93396,4.1832886,11.4213867
	c-0.7442627,0.7443237-1.4884644,1.4887085-2.2327881,2.2329712c-0.3820801,0.382019-0.7467041,0.383667-1.1256714,0.005249
	C0.6237793,13.4588623,0.4221802,13.258728,0.22229,13.0567627c-0.2925415-0.2955933-0.2980957-0.7035522-0.0062866-0.9959717
	c1.2533569-1.2561646,2.5081787-2.5108643,3.7641602-3.7642822c0.2942505-0.2936401,0.694397-0.2902832,0.996582-0.000061
	c0.0233765,0.0224609,0.0471802,0.0444336,0.072998,0.0686646c0.1786499-0.1785889,0.3494263-0.3493042,0.550415-0.550354
	c-0.09375-0.0811768-0.1973267-0.1604004-0.2888184-0.251709C3.828186,6.0823364,2.3464966,4.6002197,0.8649292,3.117981
	c-0.2171631-0.2172241-0.2164917-0.3804932,0.0001831-0.59729C1.5762329,1.809082,2.2875366,1.0977173,2.9992065,0.3866577
	C3.2106323,0.175415,3.3745728,0.175415,3.5865479,0.385376C3.755249,0.5525513,3.9232178,0.720459,4.0916138,0.8879395
	c0.0031738,0.0032349,0.0076904,0.005127,0.0249023,0.0161743c0.0360107-0.0339966,0.0751343-0.0706177,0.1139526-0.1075439
	C4.3396606,0.692688,4.3806152,0.6947632,4.49646,0.8104858c0.1276855,0.1275024,0.1317139,0.1629028,0.0205688,0.2750854
	c-0.2163086,0.2184448-0.43396,0.4354858-0.6519165,0.6522827C3.7443237,1.8580322,3.7124634,1.8572998,3.5900269,1.737915
	C3.4595337,1.6107178,3.4578247,1.578186,3.574585,1.4522095c0.015686-0.0169067,0.0306396-0.0344238,0.0480347-0.0540161
	C3.5110474,1.2896729,3.4019775,1.1836548,3.3044434,1.0888672C2.7277832,1.6654663,2.1461792,2.2470093,1.5210571,2.8720703
	c0.0348511,0.020752,0.1005249,0.0441895,0.1451416,0.0886841C3.1959229,4.4871216,4.7238159,6.0152588,6.2514648,7.5437012z"/>
</svg>
