<?xml version="1.0" encoding="utf-8"?>

<!--
 ~   Copyright 2017, WSO2 Inc. (http://www.wso2.com)
 ~
 ~   Licensed under the Apache License, Version 2.0 (the "License");
 ~   you may not use this file except in compliance with the License.
 ~   You may obtain a copy of the License at
 ~
 ~        http://www.apache.org/licenses/LICENSE-2.0
 ~
 ~   Unless required by applicable law or agreed to in writing, software
 ~   distributed under the License is distributed on an "AS IS" BASIS,
 ~   WITHOUT WARRANTIES OR CONDITIONS OF ANY KIND, either express or implied.
 ~   See the License for the specific language governing permissions and
 ~   limitations under the License.
-->

<svg version="1.1" id="throw" xmlns="http://www.w3.org/2000/svg" xmlns:xlink="http://www.w3.org/1999/xlink" x="0px" y="0px"
	 viewBox="0 0 14 14" style="enable-background:new 0 0 14 14;" xml:space="preserve">
<path d="M13.3847132,3.040741L11.920785,1.7996521c0,0.7849731,0.0106201,6.4708862,0.0106201,7.1392212
	c0.0106201,0.2333984,0.0106201,0.4880371,0.0212402,0.7319946c0.0211792,0.6895142,0.0424194,1.4002686-0.0318604,2.1004639
	c-0.0424194,0.4667358-0.1802979,0.8592529-0.4031372,1.1668701c-0.2839966,0.3847656-1.0262451,0.7067261-1.5494385,0.8336792
	c0.000061-0.0001221,0.0001221-0.0003052,0.0001831-0.0004272c-0.1860352,0.0440063-0.3775024,0.0731812-0.5767212,0.0731812
	c-1.387207,0-2.5156255-1.1289062-2.5156255-2.515625V9.7870178h0.7998047V11.32901
	c0,0.9453125,0.7695317,1.7148438,1.7158208,1.7148438c0.4672241,0,0.8905029-0.1889038,1.2001953-0.4929199
	c0.005127-0.0048828,0.0110474-0.0098877,0.0160522-0.0147705c0.0616455-0.0620728,0.1154175-0.1314087,0.1670532-0.2022705
	c0.1115723-0.1661377,0.1819458-0.3817139,0.2016602-0.6580811c0.0636597-0.6470947,0.0530396-1.3260498,0.0318604-1.9837036
	c-0.0106201-0.2439575-0.0212402-0.4985962-0.0212402-0.7532349c0-0.6470947-0.0106201-6.3223877-0.0212402-7.0968628
	L9.6506433,3.040741L9.0141687,2.3300476l2.4186401-2.1746826l2.5671997,2.1640625L13.3847132,3.040741z M4.9406209,9.4056702
	c-0.2758179,0-0.477417,0.2015381-0.477417,0.4879761c0,0.2970581,0.2015991,0.5091553,0.477417,0.5197754
	c0.286438,0,0.4879761-0.2121582,0.4879761-0.5091553C5.428597,9.6072083,5.2270589,9.4056702,4.9406209,9.4056702z
	 M4.951241,5.4064026c-0.4243164,0-0.7532349,0.381897-0.7001343,0.7956543
	c0.0848389,0.7000732,0.1696777,1.3896484,0.2651978,2.0897217c0.0211792,0.1803589,0.0424194,0.3607178,0.0848389,0.5304565
	C4.6436238,8.9919739,4.760262,9.098053,4.951241,9.098053c0.1802979,0,0.286438-0.1060791,0.3394165-0.2758179
	C5.3118978,8.7479553,5.333077,8.6736755,5.333077,8.5994568c0.1061401-0.7955933,0.2015991-1.6018066,0.3076782-2.3973999
	C5.6937947,5.7882996,5.3649373,5.4064026,4.951241,5.4064026z M0.7291952,10.8695984
	c1.3896483-2.4611206,2.7793579-4.9116211,4.1796265-7.40448c1.4214478,2.4822998,2.8217163,4.9328003,4.2326055,7.40448
	c-0.3394165,0-0.6682739,0-1.0077515,0c0,0.2758179,0.0106201,0.4879761,0.0318604,0.6576538c0.3818359,0,0.774353,0,1.15625,0
	c0.2651978,0,0.4667358-0.0742188,0.5834351-0.3287964c0-0.0742798,0-0.1379395,0-0.2121582
	c-0.0424194-0.095459-0.0848389-0.190979-0.1379395-0.2758179c-1.4214478-2.4929199-2.842957-4.99646-4.2644048-7.4893188
	C5.3861775,3.0195618,5.237679,2.8604431,5.0042195,2.7755432c-0.0635986,0-0.1378784,0-0.2015381,0
	C4.5905843,2.8604431,4.4420247,3.0195618,4.3359456,3.2105408c-1.4108276,2.503479-2.8217773,4.9963989-4.2220459,7.4893188
	c-0.2651978,0.4667969-0.0530396,0.8273926,0.4879761,0.8273926c1.8458251,0,3.7022705,0,5.5480957,0
	c-0.0212402-0.2227173-0.0317993-0.4454956-0.0317993-0.6576538C4.3253865,10.8695984,2.5326009,10.8695984,0.7291952,10.8695984z"
	/>
</svg>
