<?xml version="1.0" encoding="utf-8"?>

<!--
 ~   Copyright 2017, WSO2 Inc. (http://www.wso2.com)
 ~
 ~   Licensed under the Apache License, Version 2.0 (the "License");
 ~   you may not use this file except in compliance with the License.
 ~   You may obtain a copy of the License at
 ~
 ~        http://www.apache.org/licenses/LICENSE-2.0
 ~
 ~   Unless required by applicable law or agreed to in writing, software
 ~   distributed under the License is distributed on an "AS IS" BASIS,
 ~   WITHOUT WARRANTIES OR CONDITIONS OF ANY KIND, either express or implied.
 ~   See the License for the specific language governing permissions and
 ~   limitations under the License.
-->

<svg version="1.1" id="transaction" xmlns="http://www.w3.org/2000/svg" xmlns:xlink="http://www.w3.org/1999/xlink" x="0px"
	 y="0px" viewBox="0 0 14 14" style="enable-background:new 0 0 14 14;" xml:space="preserve">
<path d="M10.97997,6.7349854c0.0800171,0.1300049,0.2200317,0.2200317,0.3800049,0.2399902
	c0.0200195,0.0100098,0.039978,0.0100098,0.0599976,0.0100098c0.1400146,0,0.289978-0.0599976,0.4000244-0.1699829l1.9899902-2
	c0.1199951-0.1199951,0.1900024-0.2600098,0.1900024-0.4000244c0-0.1399536-0.0700073-0.2799683-0.1900024-0.3999634
	l-2.0300293-2.0200195c-0.1599731-0.1500244-0.3900146-0.1900024-0.5899658-0.0899658
	c-0.210022,0.1099854-0.3200073,0.3399658-0.2700195,0.5699463c0.0200195,0.1000366,0.0800171,0.210022,0.1599731,0.2900391
	c0.3800049,0.3699951,0.75,0.75,1.1300049,1.1300049h-0.6399536c-0.4900513,0-1.2900391,0-2.2400513,0
	C8.6799822,3.4050293,7.8699851,3.1149902,6.99999,3.1149902c-0.8800049,0-1.6799927,0.2900391-2.3300171,0.7800293
	c-1.5300295,0-2.8300171,0-3.3499756,0c-0.1199951,0-0.5400391-0.0100098-0.6000367,0.4899902v0.0200195v0.0299683
	c0.0100098,0.2000122,0.1000366,0.3200073,0.1699829,0.3800049c0.1600342,0.1400146,0.3800049,0.1300049,0.4500123,0.1199951
	H3.700002C3.3099873,5.5349731,3.0899556,6.2550049,3.0899556,7.0150146c0,0.75,0.210022,1.4400024,0.5800171,2.039978H1.7899679
	L2.9199727,7.914978c0.1900024-0.1799927,0.2199707-0.4400024,0.0900269-0.6499634
	C2.9299824,7.1350098,2.7899678,7.0349731,2.6399434,7.0250244c-0.0199585-0.0100098-0.039978-0.0100098-0.0699463-0.0100098
	c-0.1400146,0-0.2800293,0.0599976-0.3900146,0.1699829l-2,2C0.0599874,9.3049927-0.0000102,9.4450073-0.0000102,9.585022
	c0,0.1399536,0.0599976,0.2799683,0.1799927,0.3999634l2.0299683,2.0200195
	c0.1600342,0.1500244,0.3900146,0.1900024,0.5900269,0.0899658c0.2199707-0.1099854,0.3300171-0.3399658,0.2799683-0.5699463
	c-0.0299683-0.1000366-0.0899658-0.210022-0.1699829-0.2900391c-0.3699951-0.3699951-0.75-0.75-1.1300048-1.1300049h0.6500243
	c0.4799805,0,1.2600098,0,2.1799929,0c0.6599731,0.5100098,1.4899902,0.8200073,2.3900146,0.8200073
	c0.8999634,0,1.7199702-0.2999878,2.3800044-0.8200073c1.5,0,2.7799683,0,3.289978,0
	c0.1300049,0,0.5499878,0.0100098,0.5999756-0.4899902V9.5949707V9.5650024
	c-0.0099487-0.2000122-0.0999756-0.3200073-0.1699829-0.3800049C12.939992,9.0349731,12.72997,9.0549927,12.6499529,9.0650024
	h-2.3299561c0.3699951-0.5999756,0.5799561-1.2999878,0.5799561-2.0499878c0-0.7600098-0.2199707-1.4700317-0.5999756-2.0700073
	h1.9099731l-1.1399536,1.1300049C10.8899431,6.2650146,10.8499651,6.5250244,10.97997,6.7349854z M9.3999529,9.0650024
	c-0.4400024,0.5100098-1.039978,0.8900146-1.7199702,1.039978c-0.2200317,0.0400391-0.4500122,0.0700073-0.6799927,0.0700073
	c-0.2300415,0-0.460022-0.0299683-0.6799927-0.0700073C5.6399436,9.9550171,5.0299582,9.5750122,4.5999656,9.0549927
	c-0.4799805-0.5499878-0.76001-1.2600098-0.76001-2.039978c0-0.7999878,0.299988-1.5200195,0.7900393-2.0800171
	C5.1199851,4.375,5.8199973,3.9849854,6.5999656,3.8950195C6.7299705,3.875,6.8599753,3.8649902,6.99999,3.8649902
	c0.1399536,0,0.2699585,0.0100098,0.3999634,0.0300293C8.189992,3.9949951,8.8799944,4.375,9.3699846,4.9450073
	c0.4899902,0.5599976,0.7799683,1.2799683,0.7799683,2.0700073C10.1499529,7.7949829,9.8699846,8.5150146,9.3999529,9.0650024z
	 M9.1211443,5.5386353c0.0595703,0.0751953,0.0888672,0.1542969,0.0888672,0.2421875
	C9.2246599,5.8540649,9.1885271,5.956604,9.1123552,6.0337524L6.3223166,8.8233032
	C6.2607932,8.8867798,6.1777854,8.921936,6.0898948,8.921936c-0.0869141,0-0.1699219-0.0351562-0.2333984-0.1005859
	L4.6123557,7.5674438C4.553762,7.5176392,4.5166526,7.437561,4.5137229,7.3496704
	C4.5107932,7.2578735,4.546926,7.1680298,4.6133323,7.1026001L4.897512,6.796936
	c0.0595703-0.0610352,0.140625-0.0795898,0.2255859-0.09375c0.0830078,0,0.1640625,0.0332031,0.2226562,0.0908203
	l0.703125,0.7041016l2.3105464-2.2993164C8.507863,5.0806274,8.6768084,5.1016235,8.773488,5.2002563L9.1211443,5.5386353z"/>
</svg>
