<?xml version="1.0" encoding="utf-8"?>

<!--
 ~   Copyright 2017, WSO2 Inc. (http://www.wso2.com)
 ~
 ~   Licensed under the Apache License, Version 2.0 (the "License");
 ~   you may not use this file except in compliance with the License.
 ~   You may obtain a copy of the License at
 ~
 ~        http://www.apache.org/licenses/LICENSE-2.0
 ~
 ~   Unless required by applicable law or agreed to in writing, software
 ~   distributed under the License is distributed on an "AS IS" BASIS,
 ~   WITHOUT WARRANTIES OR CONDITIONS OF ANY KIND, either express or implied.
 ~   See the License for the specific language governing permissions and
 ~   limitations under the License.
-->

<svg version="1.1" id="view" xmlns="http://www.w3.org/2000/svg" xmlns:xlink="http://www.w3.org/1999/xlink" x="0px" y="0px"
	 viewBox="0 0 14 14" style="enable-background:new 0 0 14 14;" xml:space="preserve">
<path d="M7,2.4260933c-3.0873437,0-5.7486873,1.8199685-6.9719367,4.4467869c-0.0374177,0.0796294-0.0374177,0.1726904,0,0.2542386
	C1.2503173,9.7539368,3.9116609,11.5739069,7,11.5739069s5.7486868-1.8199692,6.9719362-4.4467874
	c0.0374184-0.0796294,0.0374184-0.1726904,0-0.2542386C12.7496243,4.2460618,10.0882807,2.4260933,7,2.4260933z M7,10.1559229
	c-1.7432332,0-3.1554451-1.4131851-3.1554451-3.1554437c0-1.743217,1.4132075-3.1554434,3.1554451-3.1554434
	c1.7432327,0,3.1554451,1.4131858,3.1554451,3.1554434S8.742238,10.1559229,7,10.1559229z M7,4.9790382
	c1.1153297,0,2.0195036,0.9041705,2.0195036,2.0195222S8.1153297,9.0180826,7,9.0180826s-2.0195036-0.904171-2.0195036-2.0195222
	S5.8846703,4.9790382,7,4.9790382z"/>
</svg>
