<?xml version="1.0" encoding="utf-8"?>

<!--
 ~   Copyright 2017, WSO2 Inc. (http://www.wso2.com)
 ~
 ~   Licensed under the Apache License, Version 2.0 (the "License");
 ~   you may not use this file except in compliance with the License.
 ~   You may obtain a copy of the License at
 ~
 ~        http://www.apache.org/licenses/LICENSE-2.0
 ~
 ~   Unless required by applicable law or agreed to in writing, software
 ~   distributed under the License is distributed on an "AS IS" BASIS,
 ~   WITHOUT WARRANTIES OR CONDITIONS OF ANY KIND, either express or implied.
 ~   See the License for the specific language governing permissions and
 ~   limitations under the License.
-->

<svg version="1.1" id="vpn" xmlns="http://www.w3.org/2000/svg" xmlns:xlink="http://www.w3.org/1999/xlink" x="0px" y="0px"
	 viewBox="0 0 14 14" style="enable-background:new 0 0 14 14;" xml:space="preserve">
<path d="M9.1999998,3.4000001H8.3000002V2.2c0-0.7-0.5999999-1.3-1.3000002-1.3S5.6999998,1.5,5.6999998,2.2v1.2H4.9000001V2.2
	C4.9000001,1,5.8000002,0,7,0s2.1999998,1,2.1999998,2.2V3.4000001z M10.1000004,3.8H3.9000001v4.3999996h6.2000003V3.8z
	 M7.3000002,5.6999998v1.1999998H6.6999998V5.6999998C6.5999999,5.5999999,6.5,5.4000001,6.5,5.1999998
	c0-0.3000002,0.1999998-0.5,0.5-0.5s0.5,0.1999998,0.5,0.5C7.5,5.4000001,7.4000001,5.5999999,7.3000002,5.6999998z M1.902832,14
	L0.1220703,9.0185547h1.0908203l1.2607422,3.6865234l1.2202148-3.6865234h1.0668945L2.9765625,14H1.902832z M5.2739258,14V9.0185547
	h1.6142578c0.612793,0,1.0112305,0.0244141,1.1967773,0.0742188c0.2851562,0.0751953,0.5234375,0.2373047,0.7167969,0.4882812
	c0.1933594,0.25,0.2890625,0.5732422,0.2890625,0.9697266c0,0.3056641-0.0566406,0.5634766-0.1660156,0.7714844
	c-0.1113281,0.2080078-0.2519531,0.3720703-0.4238281,0.4912109s-0.3457031,0.1972656-0.5214844,0.2363281
	c-0.2402344,0.046875-0.5878906,0.0712891-1.0439453,0.0712891H6.2797852V14H5.2739258z M6.2797852,9.8613281v1.4130859h0.550293
	c0.3969727,0,0.6611328-0.0253906,0.7958984-0.078125c0.1328125-0.0517578,0.2382812-0.1337891,0.3144531-0.2441406
	c0.0761719-0.1113281,0.1132812-0.2402344,0.1132812-0.3876953c0-0.1816406-0.0527344-0.3310547-0.1601562-0.4482422
	C7.7880859,9.9980469,7.6533203,9.9248047,7.4892578,9.8945312C7.3701172,9.8720703,7.128418,9.8613281,6.765625,9.8613281
	H6.2797852z M9.9267578,14V9.0185547h0.9785156l2.0390625,3.3261719V9.0185547h0.9335938V14h-1.0097656l-2.0078125-3.2490234V14
	H9.9267578z"/>
</svg>
