<?xml version="1.0" encoding="utf-8"?>

<!--
 ~   Copyright 2017, WSO2 Inc. (http://www.wso2.com)
 ~
 ~   Licensed under the Apache License, Version 2.0 (the "License");
 ~   you may not use this file except in compliance with the License.
 ~   You may obtain a copy of the License at
 ~
 ~        http://www.apache.org/licenses/LICENSE-2.0
 ~
 ~   Unless required by applicable law or agreed to in writing, software
 ~   distributed under the License is distributed on an "AS IS" BASIS,
 ~   WITHOUT WARRANTIES OR CONDITIONS OF ANY KIND, either express or implied.
 ~   See the License for the specific language governing permissions and
 ~   limitations under the License.
-->

<svg version="1.1" id="web-service" xmlns="http://www.w3.org/2000/svg" xmlns:xlink="http://www.w3.org/1999/xlink" x="0px"
	 y="0px" viewBox="0 0 14 14" style="enable-background:new 0 0 14 14;" xml:space="preserve">
<path d="M13.289978,10.0599976c-0.039978-0.1300049-0.0999756-0.25-0.1599731-0.3599854l0.4000244-0.5100098l-0.460022-0.460022
	L12.710022,8.3699951l-0.5,0.3900146c-0.1900024-0.1099854-0.3900146-0.1900024-0.6100464-0.25l-0.0699463-0.6300049h-0.6900024
	h-0.460022l-0.0800171,0.6300049c-0.0899658,0.0200195-0.1699829,0.0499878-0.25,0.0899658
	C9.9199829,8.6400146,9.789978,8.7000122,9.6699829,8.7700195L9.1599731,8.3800049L8.3499756,9.2000122V9.210022
	l0.4100342,0.5099487C8.7199707,9.789978,8.6799927,9.8699951,8.6500244,9.9500122
	c-0.0500488,0.1099854-0.0900269,0.2299805-0.1199951,0.3499756l-0.6600342,0.0700073l0.0100098,1.1600342l0.6699829,0.0899658
	c0.0300293,0.0800171,0.0599976,0.1600342,0.0900269,0.2399902c0.039978,0.1000366,0.0799561,0.2000122,0.1400146,0.2900391
	l-0.4300537,0.539978l0.2600098,0.2600098l0.1199951,0.1199951l0.4400024,0.4400024l0.5400391-0.4299927
	c0.1199951,0.0700073,0.2599487,0.1399536,0.3999634,0.1900024c0.0499878,0.0199585,0.1000366,0.0299683,0.1500244,0.0499878
	l0.0800171,0.6900024L11.5,14l0.0800171-0.6699829c0.2099609-0.0499878,0.4099731-0.1300049,0.5999756-0.2399902
	l0.5300293,0.4199829l0.8099976-0.8200073l-0.4100342-0.5200195c0.1099854-0.1900024,0.1900024-0.3800049,0.25-0.5899658
	L13.9899902,11.5v-1.1500244l-0.6300049-0.0799561C13.3400269,10.2000122,13.3200073,10.1300049,13.289978,10.0599976z
	 M9.789978,11.2999878C9.75,11.1900024,9.7299805,11.0700073,9.7299805,10.9400024
	c0-0.5200195,0.3400269-0.9700317,0.8099976-1.1300049c0.1199951-0.0499878,0.2600098-0.0700073,0.4000244-0.0700073
	c0.5599976,0,1.0299683,0.3900146,1.1599731,0.9100342c0.0300293,0.0899658,0.0400391,0.1900024,0.0400391,0.289978
	c0,0.6699829-0.5400391,1.210022-1.2000122,1.210022c-0.0900269,0-0.1799927-0.0100098-0.2600098-0.0200195
	C10.25,12.0300293,9.9099731,11.710022,9.789978,11.2999878z M7.789978,12.8400269
	C7.6500244,12.9799805,7.5,13.1199951,7.3400269,13.25V9.789978V9.1099854V7.3400269h5.9699707
	c-0.0200195,0.2799683-0.0499878,0.5599976-0.0999756,0.8299561l0.5599976,0.5599976
	C13.9299927,8.1599731,14,7.5700073,14,6.9699707c-0.0100098-1.8599854-0.7399902-3.6099854-2.0499878-4.9199829
	C10.6300049,0.7399902,8.8900146,0.0100098,7.0300293,0H6.960022C3.0999756,0.0200195-0.0199585,3.1799927,0,7.0300293
	c0,0.2099609,0.0100098,0.4199829,0.0300293,0.6299438C0.039978,7.789978,0.0599976,7.9199829,0.0800171,8.0499878
	C0.1099854,8.210022,0.1400146,8.3599854,0.1699829,8.5200195c0,0.0100098,0,0.0100098,0,0.0199585
	C0.210022,8.6900024,0.25,8.8499756,0.2999878,9c0.0014648-0.0018311,0.0037231-0.0028076,0.005188-0.0046387
	c0.3222046,1.0916138,0.8997192,2.0994873,1.7248535,2.9246216c0.9299927,0.9500122,2.0999756,1.6000366,3.3699951,1.8900146
	C5.5,13.8300171,5.5900269,13.8499756,5.6900024,13.8699951c0.1799927,0.039978,0.3599854,0.0599976,0.539978,0.0800171
	C6.4799805,13.9799805,6.7399902,14,7,14c0.0100098,0,0.0300293,0,0.039978,0c0.5800171,0,1.1500244-0.0800171,1.7000122-0.2199707
	L8,13.0499878L7.789978,12.8400269z M12.1300049,3.3300171c0.6799927,0.9500122,1.1099854,2.0899658,1.1799927,3.3299561h-2.4400024
	c-0.0299683-0.8299561-0.1799927-1.6499634-0.4400024-2.4299927C11.0200195,4,11.5900269,3.7000122,12.1300049,3.3300171z
	 M11.7000122,2.7999878c-0.4800415,0.3200073-0.9899902,0.5800171-1.5100098,0.7900391
	C9.8400269,2.7700195,9.3699951,2,8.789978,1.3099976C8.6500244,1.1400146,8.5100098,0.9799805,8.3499756,0.8300171
	C9.6699829,1.1199951,10.8300171,1.8200073,11.7000122,2.7999878z M7.3400269,0.6900024c0.0099487,0,0.0099487,0,0.0199585,0
	L7.3400269,0.710022V0.6900024z M7.3400269,0.8200073C7.6699829,1.0999756,7.9799805,1.4099731,8.2600098,1.75
	c0.539978,0.6300049,0.9699707,1.3300171,1.289978,2.0700073C8.8300171,4.0499878,8.0900269,4.1699829,7.3400269,4.2000122
	V0.8200073z M7.3400269,4.8900146C8.1699829,4.8599854,8.9899902,4.710022,9.789978,4.460022
	c0.2300415,0.7099609,0.3699951,1.4400024,0.4000244,2.1999512H7.3400269V4.8900146z M6.6599731,0.6900024V0.710022
	L6.6400146,0.6900024C6.6400146,0.6900024,6.6500244,0.6900024,6.6599731,0.6900024z M5.8400269,9.1900024
	c-0.2900391,0.039978-0.5800171,0.0800171-0.8700562,0.1500244C4.8300171,9.3699951,4.6900024,9.4000244,4.5599976,9.4400024
	C4.4400024,9.460022,4.3099976,9.5,4.1900024,9.539978C4.0999756,9.2700195,4.0300293,8.9899902,3.9699707,8.7000122
	L3.9799805,8.710022C3.9299927,8.5,3.8900146,8.289978,3.8699951,8.0700073C3.8599854,8.039978,3.8599854,8,3.8499756,7.960022
	c-0.0199585-0.2000122-0.039978-0.4100342-0.039978-0.6199951h2.8499756v1.7699585
	C6.3900146,9.1199951,6.1099854,9.1500244,5.8400269,9.1900024z M3.8099976,6.6599731
	c0-0.1099854,0.0100098-0.2099609,0.0200195-0.3199463C3.8800049,5.7000122,4.0100098,5.0700073,4.210022,4.460022
	c0.7999878,0.25,1.6199951,0.3999634,2.4499512,0.4299927v1.7699585H3.8099976z M6.6599731,0.8200073v3.3800049
	c-0.75-0.0300293-1.4899902-0.1500244-2.2099609-0.3800049C4.9400024,2.6799927,5.6900024,1.6500244,6.6599731,0.8200073z
	 M5.6500244,0.8300171C4.8599854,1.6300049,4.2399902,2.5700073,3.8099976,3.5900269
	C3.2800293,3.3800049,2.7700195,3.1099854,2.289978,2.789978C3.1599731,1.8200073,4.3200073,1.1199951,5.6500244,0.8300171z
	 M1.8599854,3.3300171C2.4000244,3.6900024,2.9799805,4,3.5700073,4.2299805
	C3.3499756,4.8900146,3.210022,5.5800171,3.1500244,6.289978c-0.0100098,0.1199951-0.0200195,0.25-0.0200195,0.3699951H0.6900024
	C0.7600098,5.4199829,1.1799927,4.2800293,1.8599854,3.3300171z M1.8599854,10.6699829
	C1.3300171,9.9400024,0.9799805,9.0900269,0.8099976,8.2000122C0.789978,8.0700073,0.7700195,7.9400024,0.75,7.8099976H0.7399902
	C0.710022,7.6599731,0.7000122,7.5,0.6900024,7.3400269h2.4299927c0,0.1399536,0.0100098,0.2799683,0.0300293,0.4199829
	c0,0,0,0.0100098,0,0.0200195C3.1599731,7.9400024,3.1799927,8.0999756,3.210022,8.25
	c0.0599976,0.5200195,0.1799927,1.0300293,0.3399658,1.5200195C2.960022,10.0100098,2.4000244,10.3099976,1.8599854,10.6699829z
	 M5.4000244,13.1099854c-1.0900269-0.2799683-2.0800171-0.8499756-2.8900146-1.6699829
	c-0.0700073-0.0700073-0.1500244-0.1599731-0.2200317-0.2299805c0.4800415-0.3200073,0.9800415-0.5800171,1.4900513-0.7900391
	c0.3899536,0.9400024,0.9299927,1.7999878,1.6199951,2.5499878C5.4500122,13.0300293,5.5,13.0900269,5.5599976,13.1500244
	C5.5100098,13.1400146,5.4500122,13.1300049,5.4000244,13.1099854z M5.8800049,12.4899902
	c-0.039978-0.0499878-0.0900269-0.1099854-0.1500244-0.1699829c-0.1099854-0.1300049-0.2199707-0.2700195-0.3299561-0.4199829
	c-0.3900146-0.5300293-0.7200317-1.1100464-0.9700317-1.7200317c0.1199951-0.039978,0.2399902-0.0700073,0.3699951-0.0999756
	c0.1199951-0.0300293,0.2399902-0.0599976,0.3599854-0.0900269C5.4299927,9.9400024,5.710022,9.8900146,5.9799805,9.8599854
	C6.1400146,9.8400269,6.460022,9.8099976,6.460022,9.8099976C6.5300293,9.7999878,6.5900269,9.789978,6.6599731,9.789978V13.25
	l-0.0099487-0.0100098c-0.0599976-0.0499878-0.1100464-0.0999756-0.1700439-0.1499634
	c-0.0199585-0.0200195-0.039978-0.0300293-0.0499878-0.0500488c-0.0299683-0.0299683-0.0700073-0.0599976-0.0999756-0.0899658
	c-0.0100098-0.0100098-0.0200195-0.0200195-0.0300293-0.0300293C6.1599731,12.789978,6.0200195,12.6400146,5.8800049,12.4899902z"/>
</svg>
