<?xml version="1.0" encoding="utf-8"?>

<!--
 ~   Copyright 2017, WSO2 Inc. (http://www.wso2.com)
 ~
 ~   Licensed under the Apache License, Version 2.0 (the "License");
 ~   you may not use this file except in compliance with the License.
 ~   You may obtain a copy of the License at
 ~
 ~        http://www.apache.org/licenses/LICENSE-2.0
 ~
 ~   Unless required by applicable law or agreed to in writing, software
 ~   distributed under the License is distributed on an "AS IS" BASIS,
 ~   WITHOUT WARRANTIES OR CONDITIONS OF ANY KIND, either express or implied.
 ~   See the License for the specific language governing permissions and
 ~   limitations under the License.
-->

<svg version="1.1" id="worker-receive" xmlns="http://www.w3.org/2000/svg" xmlns:xlink="http://www.w3.org/1999/xlink" x="0px"
	 y="0px" viewBox="0 0 14 14" style="enable-background:new 0 0 14 14;" xml:space="preserve">
<path d="M8.7196045,12.4949951H0.0696411H0.0196533c-0.039978-0.1799927-0.0100098-0.2900391,0.0199585-0.4500122
	c0.0700073-0.289978,0.2900391-0.6400146,0.5500488-0.8599854c0.6799927-0.6000366,1.4400024-1,2.2699585-1.3300171
	c0.9200439-0.3599854,1.0300293-1.039978,0.4100342-1.6500244C2.6496582,7.5849609,2.489624,6.7550049,2.5396118,5.8649902
	c1.5900269,0,3.1600342,0,4.75,0c0.0200195,0.9599609-0.2399902,1.789978-0.8800049,2.5
	C6.3096313,8.4749756,6.239624,8.5849609,6.1896362,8.6950073C6.1396484,8.7949829,6.1096191,8.8949585,6.0996094,8.9949951
	c0,0.0299683,0,0.0599976,0,0.0899658c0.0200195,0.1300049,0.0700073,0.2399902,0.1500244,0.3500366
	c0.1099854,0.1399536,0.2800293,0.25,0.5,0.3499756c0.0200195,0.0100098,0.039978,0.0200195,0.0599976,0.0300293
	C7.0096436,10.9649658,7.7296143,11.9450073,8.7196045,12.4949951z M13.9996338,9.1149902
	c0,1.8599854-1.5200195,3.3800049-3.3800049,3.3800049c-0.3099976,0-0.6099854-0.0400391-0.9000244-0.1199951
	c-1.1199951-0.3099976-2-1.1799927-2.3399658-2.2900391C7.2896118,9.7749634,7.239624,9.4549561,7.239624,9.1149902
	c0-1.8699951,1.5100098-3.3800049,3.3800049-3.3800049C12.4796143,5.7349854,13.9996338,7.2449951,13.9996338,9.1149902z
	 M13.3996582,9.1149902c0-1.5400391-1.2400513-2.7900391-2.7800293-2.7900391s-2.789978,1.25-2.789978,2.7900391
	c0,0.5100098,0.1399536,0.9899902,0.3800049,1.3999634c0.2999878,0.5200195,0.7799683,0.9400024,1.3399658,1.1700439
	c0.3300171,0.1399536,0.6900024,0.2099609,1.0700073,0.2099609C12.1596069,11.8949585,13.3996582,10.6549683,13.3996582,9.1149902z
	 M8.0396118,4.5749512c-0.0199585-0.0099487-0.0299683-0.0199585-0.039978-0.0199585
	C7.6596069,4.3850098,7.6496582,4.125,7.5896606,3.8449707C7.3896484,2.914978,6.7896118,2.3649902,5.8496094,2.0149536
	C5.699646,2.5749512,5.5696411,3.0749512,5.4296265,3.5749512C5.3696289,3.0249634,5.3596191,2.4849854,5.3696289,1.9549561
	C5.3796387,1.5949707,5.199646,1.5050049,4.8896484,1.5050049c-0.3200073,0-0.4800415,0.1099854-0.4700317,0.4599609
	c0.0200195,0.5400391,0.0100098,1.0700073,0.0100098,1.6099854c-0.0299683,0-0.0499878,0.0100098-0.0700073,0.0100098
	C4.2296143,3.0749512,4.0896606,2.5749512,3.949646,2.0149536C2.9696045,2.375,2.3796387,2.9549561,2.1896362,3.914978
	C2.1496582,4.0949707,2.0796509,4.3649902,1.949646,4.4249878c-0.3800049,0.2000122-0.4299927,0.5-0.4299927,0.8800049
	c2.2699585,0,4.5,0,6.8599854,0C8.3996582,4.9549561,8.2096558,4.6749878,8.0396118,4.5749512z M13.0396729,8.789978
	L9.1196899,8.8399658l0.7399902-0.7399902L9.5196533,7.7600098L8.1796875,9.0899658l1.3300171,1.3800049l0.3499756-0.3399658
	L9.0896606,9.3300171l3.960022-0.0500488L13.0396729,8.789978z"/>
</svg>
