<?xml version="1.0" encoding="utf-8"?>

<!--
 ~   Copyright 2017, WSO2 Inc. (http://www.wso2.com)
 ~
 ~   Licensed under the Apache License, Version 2.0 (the "License");
 ~   you may not use this file except in compliance with the License.
 ~   You may obtain a copy of the License at
 ~
 ~        http://www.apache.org/licenses/LICENSE-2.0
 ~
 ~   Unless required by applicable law or agreed to in writing, software
 ~   distributed under the License is distributed on an "AS IS" BASIS,
 ~   WITHOUT WARRANTIES OR CONDITIONS OF ANY KIND, either express or implied.
 ~   See the License for the specific language governing permissions and
 ~   limitations under the License.
-->

<svg version="1.1" id="wso2" xmlns="http://www.w3.org/2000/svg" xmlns:xlink="http://www.w3.org/1999/xlink" x="0px" y="0px"
	 viewBox="0 0 14 14" style="enable-background:new 0 0 14 14;" xml:space="preserve">
<path d="M5.3204131,4.3179789C4.9170995,5.305932,4.517118,6.295218,4.1151366,7.2838378
	C3.7131555,6.2932181,3.3098416,5.3032646,2.9085279,4.312645C2.5018802,5.3012643,2.1025662,6.2932181,1.6999187,7.2831702
	c-0.4039807-0.987287-0.8032951-1.976573-1.2052758-2.9651928c-0.1646587-0.0006661-0.329318,0-0.4946429,0
	c0.5653062,1.4026003,1.1319462,2.804534,1.6992525,4.2058005c0.4033138-0.9939523,0.8039614-1.9899058,1.208609-2.9838581
	C3.3031764,6.5225391,3.7024901,7.5044932,4.0991387,8.487113C4.1058054,8.5257778,4.13447,8.492445,4.1364703,8.4724474
	c0.5599732-1.3852687,1.122613-2.7692018,1.6832528-4.1538033C5.6537309,4.3179789,5.4864044,4.3186464,5.3204131,4.3179789z
	 M7.5696387,6.3925481c-0.207324-0.1426606-0.4386463-0.243988-0.666635-0.3473167
	c-0.178658-0.0933285-0.3573155-0.189991-0.5206418-0.3086519C6.1490393,5.5599217,6.1510396,5.1799397,6.3450303,4.9746161
	c0.1806583-0.195991,0.4699779-0.2639875,0.725966-0.2106566c0.1299939,0.0259986,0.243988,0.1026611,0.331984,0.1999898
	c0.0673299,0.0679965,0.1099954,0.1539936,0.1739912,0.2233224c0.1199946-0.0799971,0.2426553-0.1553259,0.3626499-0.2339888
	C7.7669625,4.6346307,7.4556446,4.38131,7.0909948,4.3279791C6.7736764,4.290648,6.4323587,4.3426447,6.1670389,4.5313029
	C5.9663811,4.6706295,5.8137217,4.8832865,5.7650576,5.1252756C5.7157269,5.3659306,5.7343926,5.6332507,5.8683863,5.8439074
	C5.9523821,5.9772348,6.085043,6.0678968,6.2117028,6.1558928c0.1593261,0.1093278,0.3306513,0.1999898,0.5059767,0.2793202
	C6.9463353,6.5378747,7.1669912,6.6598692,7.375648,6.7985296c0.1006613,0.0659971,0.1819916,0.1639924,0.2159891,0.280653
	c0.0506644,0.1686587,0.0306649,0.3526492-0.0306649,0.5159755c-0.0979948,0.243988-0.3253183,0.4346461-0.5859718,0.4806437
	c-0.2219896,0.0419979-0.470644,0.0120001-0.6519694-0.1319933C6.1323738,7.7964816,6.0303788,7.5658269,5.9757142,7.3371711
	c-0.1479931,0.0453315-0.2966523,0.090662-0.445312,0.1353259c0.0619974,0.2686539,0.1826582,0.5319748,0.385982,0.7233
	c0.1953235,0.1879902,0.4599786,0.294652,0.7286325,0.3153181c0.2946525,0.0306644,0.6053038-0.0246658,0.8559594-0.1886587
	C7.7856293,8.1391325,8.0049524,7.84448,8.0616159,7.5071621C8.1036139,7.2538414,8.0902805,6.976521,7.9576211,6.7505312
	C7.8676252,6.5965381,7.7142992,6.4945431,7.5696387,6.3925481z M12.1847534,7.3964992
	c0.217989-0.4099803,0.2899866-0.8926244,0.2086563-1.3492694c-0.1159945-0.6826344-0.5966387-1.2879381-1.2332754-1.5579257
	c-0.3113184-0.1386604-0.6566353-0.189991-0.9959517-0.1679926C9.570878,4.3613091,9.0035715,4.6692944,8.6449213,5.1446061
	c-0.3006525,0.3899808-0.4553118,0.889957-0.4266453,1.381268c0.0186653,0.4126468,0.1659918,0.8186283,0.4139805,1.148612
	C8.8662453,7.9898043,9.190896,8.2371254,9.5575457,8.3777857c0.3793154,0.1473274,0.8012953,0.1799917,1.1992769,0.0973291
	C11.3621264,8.3517876,11.8994341,7.9438071,12.1847534,7.3964992z M10.8501492,8.0204706
	c-0.40798,0.1386595-0.8686247,0.1086607-1.2552729-0.0793295C9.1115656,7.713151,8.7562494,7.2411747,8.6669197,6.715199l0,0
	c0.371315,0,0.7419653,0,1.1132812,0c0.1753244-0.3879824,0.34865-0.777297,0.5253077-1.1652775
	c0.2419891,0.5833054,0.479311,1.1672773,0.7206326,1.7505832c0.1486588-0.2646537,0.2959862-0.5313091,0.4433126-0.796629
	c0.1746578,0,0.3499832,0,0.524642,0c0.0046663-0.0546646,0.0026665-0.1093278-0.0019999-0.1633258
	c-0.2066565,0-0.4133139,0-0.6199703,0c-0.1093283,0.1933246-0.2159901,0.3873143-0.3239851,0.5813055
	c-0.2466555-0.5959711-0.4893093-1.1939435-0.7366314-1.7899146c-0.2146568,0.47331-0.4239798,0.9486217-0.6413031,1.4212656
	c-0.3399839-0.0033326-0.6806335,0-1.0212841-0.0019999l0,0H8.6442556C8.62959,6.2345543,8.6909199,5.9112372,8.8429127,5.631917
	c0.2179899-0.4106469,0.6153049-0.7219658,1.0672827-0.8332939c0.28932-0.0739965,0.5973053-0.0673299,0.8832922,0.0179996
	c0.3553171,0.1046615,0.6733017,0.3313174,0.8879576,0.6333036c0.1859913,0.2586546,0.2939863,0.572639,0.3106518,0.8906245
	c0.0046663,0.053997,0.0066671,0.1086617,0.0020008,0.1633263c-0.0133333,0.3153181-0.1173286,0.6259699-0.2993193,0.8839583
	C11.4907856,7.6804862,11.1908007,7.9078083,10.8501492,8.0204706z M12.4474077,9.3557405
	c0.2839861-0.3066521,0.5693064-0.6133041,0.8526258-0.9192896c0.1753254-0.1913252,0.3493156-0.3879824,0.4879761-0.6093044
	c0.1686573-0.2719874,0.2146559-0.6193042,0.1119938-0.9232893c-0.1039934-0.291986-0.3453178-0.5386415-0.6446352-0.6266375
	c-0.2193222-0.0639973-0.456646-0.0633297-0.6766338-0.0026665c0.0133324,0.1153283-0.0006666,0.2313228-0.008667,0.3466506
	c0.2779865-0.1226606,0.6333036-0.0753303,0.8479595,0.1473269c0.1659927,0.155992,0.2366552,0.397315,0.1913233,0.6199708
	c-0.048665,0.2839866-0.2593212,0.495976-0.4373112,0.7079663c-0.4879761,0.5326414-0.9826193,1.0592833-1.4719305,1.5905914
	c0.7666311,0.0006657,1.5332603,0,2.2998915,0c0-0.1099958,0-0.2206564,0-0.3313179
	C13.4820242,9.3557405,12.9647179,9.3550739,12.4474077,9.3557405z"/>
</svg>
