<?xml version="1.0" encoding="utf-8"?>

<!--
 ~   Copyright 2017, WSO2 Inc. (http://www.wso2.com)
 ~
 ~   Licensed under the Apache License, Version 2.0 (the "License");
 ~   you may not use this file except in compliance with the License.
 ~   You may obtain a copy of the License at
 ~
 ~        http://www.apache.org/licenses/LICENSE-2.0
 ~
 ~   Unless required by applicable law or agreed to in writing, software
 ~   distributed under the License is distributed on an "AS IS" BASIS,
 ~   WITHOUT WARRANTIES OR CONDITIONS OF ANY KIND, either express or implied.
 ~   See the License for the specific language governing permissions and
 ~   limitations under the License.
-->

<svg version="1.1" id="xacml" xmlns="http://www.w3.org/2000/svg" xmlns:xlink="http://www.w3.org/1999/xlink" x="0px" y="0px"
	 viewBox="0 0 14 14" style="enable-background:new 0 0 14 14;" xml:space="preserve">
<path d="M12.0700073,5.2000122V2.9699707L8.9899902,0H1.9299927v5.2000122H1.8499756H0.9500122V9.5h0.8999634h0.0800171V14
	h10.1400146V9.5h0.9799805V5.2000122H12.0700073z M2.6799927,0.75h6.0800171v2.5599976h2.5599976v1.8900146H2.6799927V0.75z
	 M9.6500244,8.5499878H9.210022L8.75,6.75v1.7999878H8.3200073v-2.289978h0.7000122l0.4099731,1.5599976l0.4100342-1.5599976
	h0.6999512v2.289978h-0.4299927V6.75L9.6500244,8.5499878z M6.5700073,8.0100098
	c0.0999756,0.1199951,0.2399902,0.1900024,0.4099731,0.1900024c0.1199951,0,0.2300415-0.0400391,0.3099976-0.1199951
	C7.3800049,8,7.4500122,7.8800049,7.4799805,7.710022l0.4500122,0.1399536C7.8599854,8.0999756,7.75,8.289978,7.5900269,8.4099731
	C7.4299927,8.5300293,7.2299805,8.5900269,6.9799805,8.5900269c-0.2999878,0-0.5499878-0.1000366-0.75-0.3099976
	c-0.1900024-0.210022-0.289978-0.4900513-0.289978-0.8500366c0-0.3800049,0.0999756-0.6799927,0.289978-0.8900146
	c0.2000122-0.2099609,0.460022-0.3200073,0.7800293-0.3200073c0.2799683,0,0.5100098,0.0900269,0.6799927,0.25
	C7.7999878,6.5700073,7.8800049,6.710022,7.9299927,6.8900146L7.4699707,7
	C7.4400024,6.8800049,7.3900146,6.789978,7.2999878,6.7199707C7.210022,6.6500244,7.1099854,6.6199951,6.9899902,6.6199951
	c-0.1699829,0-0.3099976,0.0599976-0.4199829,0.1799927C6.4699707,6.9199829,6.4099731,7.1199951,6.4099731,7.3900146
	C6.4099731,7.6799927,6.4699707,7.8900146,6.5700073,8.0100098z M5.7700195,8.5499878h-0.5L5.0700073,8.0300293H4.1599731
	L3.9699707,8.5499878H3.4799805l0.8900146-2.289978h0.4899902L5.7700195,8.5499878z M1.9000244,8.5499878H1.3400269
	l0.5899658-0.8999634l0.1900024-0.2900391l-0.1900024-0.289978L1.4099731,6.2600098h0.5200195H1.960022L2.4099731,7
	l0.2700195-0.4400024l0.1799927-0.2999878h0.5400391l-0.710022,1.1099854l0.7799683,1.1799927H2.9099731L2.6799927,8.1900024
	L2.4099731,7.7600098L1.9299927,8.5L1.9000244,8.5499878z M11.3200073,13.25H2.6799927V9.5h8.6400146V13.25z M12.6199951,8.5499878
	h-0.5499878h-0.75h-0.3099976V6.2800293h0.3099976h0.1499634v1.8899536h0.6000366h0.5499878V8.5499878z M10.7399902,11.710022
	l-1.5,0.7999878v-0.4500122l1-0.5l-1-0.4500122V10.710022l1.5,0.6999512V11.710022z M8.539978,12.6099854H8.1400146
	l0.5999756-2.3999634h0.4000244L8.539978,12.6099854z M7.9400024,12.5100098l-1.5-0.7999878v-0.3000488l1.5-0.6999512v0.3999634
	l-1,0.4500122l1,0.5V12.5100098z M4.2999878,7.6500244l0.3099976-0.8500366l0.3099976,0.8500366H4.2999878z"/>
</svg>
