<?xml version="1.0" encoding="utf-8"?>

<!--
 ~   Copyright 2017, WSO2 Inc. (http://www.wso2.com)
 ~
 ~   Licensed under the Apache License, Version 2.0 (the "License");
 ~   you may not use this file except in compliance with the License.
 ~   You may obtain a copy of the License at
 ~
 ~        http://www.apache.org/licenses/LICENSE-2.0
 ~
 ~   Unless required by applicable law or agreed to in writing, software
 ~   distributed under the License is distributed on an "AS IS" BASIS,
 ~   WITHOUT WARRANTIES OR CONDITIONS OF ANY KIND, either express or implied.
 ~   See the License for the specific language governing permissions and
 ~   limitations under the License.
-->

<svg version="1.1" id="youtube" xmlns="http://www.w3.org/2000/svg" xmlns:xlink="http://www.w3.org/1999/xlink" x="0px" y="0px"
	 viewBox="0 0 14 14" style="enable-background:new 0 0 14 14;" xml:space="preserve">
<path d="M13.5,2.9c-0.5-0.6-1.4-0.8-3.2-0.8H3.8C1.9,2.1,1,2.3,0.5,3C0,3.6,0,4.5,0,5.8v2.4c0,2.5,0.6,3.7,3.8,3.7
	h6.5c1.5,0,2.4-0.2,3-0.7c0.6-0.5,0.8-1.4,0.8-3V5.8C14,4.4,14,3.5,13.5,2.9z M9,7.3L6.1,8.9C6,8.9,5.9,8.9,5.8,8.9
	c-0.1,0-0.2,0-0.2-0.1C5.5,8.8,5.4,8.6,5.4,8.5V5.4c0-0.2,0.1-0.3,0.2-0.4C5.7,4.9,5.9,4.9,6,5L9,6.5c0.1,0.1,0.2,0.2,0.2,0.4
	C9.2,7.1,9.1,7.3,9,7.3z"/>
</svg>
