<?xml version="1.0" encoding="utf-8"?>

<!--
 ~   Copyright 2018, WSO2 Inc. (http://www.wso2.com)
 ~
 ~   Licensed under the Apache License, Version 2.0 (the "License");
 ~   you may not use this file except in compliance with the License.
 ~   You may obtain a copy of the License at
 ~
 ~        http://www.apache.org/licenses/LICENSE-2.0
 ~
 ~   Unless required by applicable law or agreed to in writing, software
 ~   distributed under the License is distributed on an "AS IS" BASIS,
 ~   WITHOUT WARRANTIES OR CONDITIONS OF ANY KIND, either express or implied.
 ~   See the License for the specific language governing permissions and
 ~   limitations under the License.
-->

<svg version="1.1" id="ballerina" xmlns="http://www.w3.org/2000/svg" xmlns:xlink="http://www.w3.org/1999/xlink" x="0px" y="0px"
	 viewBox="0 0 224.5 83.3" style="enable-background:new 0 0 224.5 83.3;" xml:space="preserve">
<style type="text/css">
	.color{fill:#444;}
</style>
<g>
	<path class="color" d="M23.6,20.2c4.3-0.7,7.3-3.8,7.3-8.3c0-6.5-4.3-10.8-14.3-10.8H-1v39.6h18.6c9.3,0,14.5-4,14.5-10.9
		C32.1,24.2,28.4,21.1,23.6,20.2z M6.7,7.5h9.4c4.7,0,6.7,2.1,6.7,5.1s-2,5-6.7,5H6.7V7.5z M16.7,34.4h-10V23.6h10.1
		c4.9,0,7.3,2.1,7.3,5.5C24,32.4,21.7,34.4,16.7,34.4z M60.3,34.1V23c0-7.3-4.7-10.7-11.9-10.7c-7.4,0-11.7,4-12.6,9.6l6.9,0.6
		c0.6-2.7,2.3-4.6,5.5-4.6s4.8,1.9,4.8,5v0.8l-7.6,1.4c-6.4,1.2-10.6,3.4-10.6,8.7c0,4.8,3.5,7.6,8.8,7.6c4.6,0,8.1-2.1,9.7-5.4
		c0.6,3.3,3,5.4,6.1,5.4c2.5,0,4-0.8,5.2-1.8v-4c-0.8,0.4-1.6,0.6-2.3,0.6C61.1,36.2,60.3,35.5,60.3,34.1z M52.9,28.8
		c0,4.7-3,7.7-7,7.7c-2.5,0-3.8-1.4-3.8-3.4c0-2.6,2.1-3.5,5.6-4.2l5.2-1.1V28.8z M108.6,12.3c-8.3,0-14.5,6.3-14.5,15
		s6.2,14.2,14.7,14.2c7.1,0,12-3.7,13.4-10l-6.1-0.6c-1.1,3.3-3.3,4.9-7,4.9c-4.1,0-7.3-2.8-7.6-7.3h20.8v-2.4
		C122.3,18.6,117.6,12.3,108.6,12.3z M101.6,24.6c0.4-3.7,2.8-6.7,6.9-6.7c4.2,0,6.3,3.1,6.4,6.7C114.9,24.6,101.6,24.6,101.6,24.6z
		 M142.5,12.3c1.7,0,3.1,0.4,3.9,1.1l-0.6,7c-1.4-0.8-2.7-1.2-4.5-1.2c-3.9,0-6.5,2.8-6.5,7.8v13.7h-7.6V13h7.6v5.3
		C135.8,15.2,138.7,12.3,142.5,12.3z M149.6,1.1h7.7v7.4h-7.7V1.1z M149.7,13h7.6v27.8h-7.6V13z M190.2,23.5v17.3h-7.6V25
		c0-4.3-1.7-6.7-5.4-6.7c-3.8,0-6.2,3-6.2,7.7v14.9h-7.6V13h7.6v4.5c1.4-3.1,4.9-5.3,9.1-5.3C187.5,12.3,190.2,17.3,190.2,23.5z
		 M222.2,36.2c-1.2,0-2-0.7-2-2.1V23c0-7.3-4.7-10.7-11.9-10.7c-7.4,0-11.7,4-12.6,9.6l6.9,0.6c0.6-2.7,2.3-4.6,5.5-4.6
		s4.8,1.9,4.8,5v0.8l-7.6,1.4c-6.4,1.2-10.6,3.4-10.6,8.7c0,4.8,3.5,7.6,8.8,7.6c4.6,0,8.1-2.1,9.7-5.4c0.6,3.3,3,5.4,6.1,5.4
		c2.5,0,4-0.8,5.2-1.8v-4C223.7,36,223,36.2,222.2,36.2z M212.9,28.8c0,4.7-3,7.7-7,7.7c-2.5,0-3.8-1.4-3.8-3.4
		c0-2.6,2.1-3.5,5.6-4.2l5.2-1.1V28.8z M67.9,0h9.6v15.1l-9.6-3.7V0z M74.4,17.5L67.8,20v-5L74.4,17.5z M67.9,23.6l9.6-3.7v5.5
		l-4.7,15.3h-4.9V23.6z M80.8,0h9.6v11.4l-9.6,3.7V0z M83.8,17.5l6.6-2.5v5L83.8,17.5z M80.8,20l9.6,3.7v17.2h-4.9l-4.7-15.3V20z"/>
	<path class="color" d="M66.5,63.8c0-2,0.3-3.7,0.9-5.3s1.4-3,2.4-4.1s2.2-2,3.5-2.6s2.8-0.9,4.3-0.9c1.2,0,2.4,0.2,3.4,0.5
		c1,0.4,1.9,0.8,2.7,1.5c0.8,0.6,1.5,1.4,2,2.3c0.6,0.9,1,1.9,1.2,2.9h-2.1c-0.5-1.6-1.4-2.9-2.6-3.8c-1.2-0.9-2.8-1.4-4.6-1.4
		c-1.3,0-2.5,0.3-3.6,0.8s-2,1.2-2.8,2.2s-1.4,2.1-1.8,3.4c-0.4,1.3-0.7,2.8-0.7,4.5c0,1.7,0.2,3.2,0.7,4.6c0.4,1.3,1,2.5,1.8,3.4
		s1.7,1.7,2.8,2.2c1.1,0.5,2.3,0.8,3.6,0.8c1.9,0,3.4-0.5,4.6-1.4s2.1-2.2,2.6-3.8h2.1c-0.2,1.1-0.6,2.1-1.2,3s-1.2,1.6-2,2.3
		C82.9,75.5,82,76,81,76.4s-2.1,0.5-3.4,0.5c-1.5,0-3-0.3-4.3-0.9s-2.5-1.5-3.5-2.6s-1.8-2.5-2.3-4.1C66.8,67.5,66.5,65.7,66.5,63.8
		z M106.1,67.3c0,1.4-0.2,2.7-0.6,3.8c-0.4,1.2-0.9,2.2-1.6,3s-1.5,1.5-2.5,1.9c-1,0.5-2.1,0.7-3.3,0.7c-1.2,0-2.3-0.2-3.3-0.7
		s-1.8-1.1-2.6-1.9c-0.7-0.8-1.3-1.8-1.6-3c-0.4-1.2-0.6-2.4-0.6-3.8s0.2-2.7,0.6-3.8c0.4-1.2,0.9-2.2,1.6-3s1.6-1.5,2.6-1.9
		c1-0.5,2.1-0.7,3.3-0.7c1.2,0,2.3,0.2,3.3,0.7s1.8,1.1,2.5,1.9c0.7,0.8,1.2,1.8,1.6,3C105.9,64.6,106.1,65.9,106.1,67.3z
		 M104.1,67.3c0-1.1-0.1-2.2-0.4-3.1s-0.7-1.7-1.2-2.4s-1.1-1.2-1.9-1.6c-0.7-0.4-1.6-0.6-2.5-0.6s-1.8,0.2-2.5,0.6
		c-0.7,0.4-1.4,0.9-1.9,1.6c-0.5,0.7-0.9,1.5-1.2,2.4c-0.3,0.9-0.4,2-0.4,3.1s0.1,2.2,0.4,3.1s0.7,1.7,1.2,2.4
		c0.5,0.7,1.1,1.2,1.9,1.6c0.7,0.4,1.6,0.6,2.5,0.6s1.7-0.2,2.5-0.6c0.7-0.4,1.4-0.9,1.9-1.6s0.9-1.5,1.2-2.4
		C103.9,69.4,104.1,68.4,104.1,67.3z M123,61.3c0.2-0.4,0.6-0.9,0.9-1.3c0.4-0.4,0.8-0.8,1.3-1.1s1-0.6,1.6-0.8s1.2-0.3,1.8-0.3
		c1.9,0,3.2,0.6,4.1,1.8s1.4,2.7,1.4,4.5v12.3h-2V64.5c0-1.4-0.3-2.5-0.9-3.4c-0.6-0.8-1.6-1.3-2.9-1.3c-1.1,0-2.1,0.4-2.9,1.1
		c-0.8,0.7-1.5,1.6-1.8,2.7v12.8h-2V64.5c0-1.4-0.3-2.5-0.9-3.4c-0.6-0.8-1.6-1.3-2.9-1.3c-1.1,0-2.1,0.4-3,1.1
		c-0.8,0.7-1.5,1.6-1.8,2.7v12.8h-2V58.2h2V61c0.5-0.8,1.1-1.6,2-2.2c0.9-0.6,2-0.9,3.2-0.9c1.3,0,2.4,0.3,3.3,1
		C122,59.4,122.6,60.2,123,61.3z M141.8,83.3h-2V58.2h2v2.7c0.2-0.4,0.6-0.8,0.9-1.1c0.4-0.4,0.8-0.7,1.3-1s1-0.5,1.6-0.7
		s1.2-0.3,1.8-0.3c1.3,0,2.5,0.3,3.5,0.8s1.8,1.2,2.5,2.1c0.7,0.9,1.2,1.9,1.5,3c0.3,1.2,0.5,2.4,0.5,3.6c0,1.3-0.2,2.5-0.5,3.6
		s-0.8,2.1-1.5,3s-1.5,1.5-2.5,2.1c-1,0.5-2.1,0.8-3.5,0.8c-0.6,0-1.2-0.1-1.8-0.3c-0.6-0.2-1.1-0.4-1.6-0.7c-0.5-0.3-0.9-0.6-1.3-1
		c-0.4-0.4-0.7-0.7-0.9-1.1V83.3z M141.8,71.2c0.6,1.1,1.4,2,2.3,2.6c1,0.6,2,0.9,3.1,0.9c1,0,1.8-0.2,2.6-0.6
		c0.7-0.4,1.4-0.9,1.9-1.6s0.9-1.5,1.2-2.4s0.4-1.9,0.4-3s-0.1-2.1-0.4-3c-0.3-0.9-0.7-1.7-1.2-2.4s-1.2-1.2-1.9-1.6
		c-0.8-0.4-1.6-0.6-2.6-0.6c-1.1,0-2.2,0.3-3.1,0.9c-1,0.6-1.7,1.5-2.3,2.6V71.2z M174.6,67.3c0,1.4-0.2,2.7-0.6,3.8
		c-0.4,1.2-0.9,2.2-1.6,3c-0.7,0.8-1.5,1.5-2.5,1.9c-1,0.5-2.1,0.7-3.3,0.7s-2.3-0.2-3.3-0.7s-1.8-1.1-2.6-1.9
		c-0.7-0.8-1.3-1.8-1.6-3c-0.4-1.2-0.6-2.4-0.6-3.8s0.2-2.7,0.6-3.8c0.4-1.2,0.9-2.2,1.6-3c0.7-0.8,1.6-1.5,2.6-1.9s2.1-0.7,3.3-0.7
		s2.3,0.2,3.3,0.7s1.8,1.1,2.5,1.9c0.7,0.8,1.2,1.8,1.6,3C174.4,64.6,174.6,65.9,174.6,67.3z M172.5,67.3c0-1.1-0.1-2.2-0.4-3.1
		c-0.3-0.9-0.7-1.7-1.2-2.4s-1.1-1.2-1.9-1.6c-0.7-0.4-1.6-0.6-2.5-0.6s-1.8,0.2-2.5,0.6c-0.7,0.4-1.4,0.9-1.9,1.6
		c-0.5,0.7-0.9,1.5-1.2,2.4s-0.4,2-0.4,3.1s0.1,2.2,0.4,3.1c0.3,0.9,0.7,1.7,1.2,2.4c0.5,0.7,1.1,1.2,1.9,1.6
		c0.7,0.4,1.6,0.6,2.5,0.6s1.7-0.2,2.5-0.6c0.7-0.4,1.4-0.9,1.9-1.6s0.9-1.5,1.2-2.4C172.4,69.5,172.5,68.4,172.5,67.3z M179.5,71.7
		c0.4,1.1,1,1.9,1.8,2.5c0.9,0.5,1.9,0.8,3.2,0.8c0.6,0,1.2-0.1,1.7-0.2s1-0.3,1.4-0.6c0.4-0.3,0.7-0.6,0.9-1s0.3-0.9,0.3-1.5
		c0-0.8-0.3-1.4-0.8-1.9s-1.4-1-2.6-1.3l-3.4-0.9c-1.3-0.4-2.3-0.9-3.1-1.6s-1.2-1.7-1.2-3c0-0.8,0.2-1.5,0.5-2.1s0.8-1.2,1.3-1.6
		c0.6-0.4,1.2-0.7,2-1c0.7-0.2,1.5-0.3,2.4-0.3c1.9,0,3.4,0.4,4.5,1.3c1.1,0.9,1.9,2.1,2.2,3.6h-2c-0.4-1.1-0.9-1.9-1.7-2.4
		s-1.8-0.8-3-0.8c-1.1,0-2.1,0.3-2.9,0.8c-0.8,0.5-1.2,1.3-1.2,2.4c0,0.9,0.3,1.5,0.8,1.9s1.3,0.7,2.4,1.1l3.2,0.9
		c1.6,0.4,2.7,1.1,3.5,1.9s1.1,1.8,1.1,3c0,0.8-0.2,1.6-0.5,2.2c-0.3,0.7-0.8,1.2-1.4,1.6c-0.6,0.4-1.3,0.8-2,1
		c-0.8,0.2-1.6,0.4-2.5,0.4s-1.8-0.1-2.6-0.3c-0.8-0.2-1.5-0.6-2.1-1s-1.1-1-1.5-1.6s-0.7-1.3-0.9-2.1L179.5,71.7z M209.2,71.1
		c-0.4,1.7-1.1,3.1-2.4,4.1c-1.2,1-2.8,1.6-4.7,1.5c-1.2,0-2.3-0.2-3.3-0.7s-1.8-1.1-2.5-1.9s-1.3-1.8-1.7-3s-0.6-2.4-0.6-3.9
		c0-1.3,0.2-2.6,0.6-3.7c0.4-1.2,0.9-2.2,1.6-3c0.7-0.8,1.5-1.5,2.5-2s2.1-0.7,3.3-0.7s2.3,0.2,3.2,0.7c0.9,0.4,1.7,1.1,2.3,1.8
		c0.6,0.8,1.1,1.7,1.4,2.8c0.3,1.1,0.5,2.3,0.5,3.6v0.7H196c0,1.1,0.1,2.2,0.4,3.1s0.7,1.7,1.3,2.4c0.5,0.6,1.2,1.1,1.9,1.5
		s1.5,0.5,2.4,0.5c1.3,0,2.4-0.3,3.3-1c0.9-0.7,1.5-1.6,1.8-2.8L209.2,71.1z M202.1,59.7c-0.8,0-1.5,0.1-2.2,0.4
		c-0.7,0.3-1.3,0.7-1.8,1.2s-0.9,1.2-1.3,1.9c-0.3,0.8-0.5,1.6-0.6,2.5h11.2c0-0.8-0.1-1.6-0.4-2.3c-0.2-0.7-0.5-1.4-1-2
		c-0.4-0.6-1-1-1.6-1.4C203.8,59.8,203,59.7,202.1,59.7z M222.5,60.1c-0.2-0.1-0.5-0.2-0.8-0.2c-0.3-0.1-0.6-0.1-0.9-0.1
		c-1.1,0-2.1,0.4-2.9,1.1c-0.8,0.7-1.5,1.7-1.9,2.8v12.7h-2V58.2h2v2.9c0.4-0.9,1.1-1.7,1.9-2.3c0.9-0.6,1.8-0.9,3-0.9
		c0.4,0,0.7,0,0.9,0.1c0.3,0.1,0.5,0.1,0.7,0.2V60.1z"/>
</g>
</svg>
