<?xml version="1.0" encoding="utf-8"?>

<!--
 ~   Copyright 2018, WSO2 Inc. (http://www.wso2.com)
 ~
 ~   Licensed under the Apache License, Version 2.0 (the "License");
 ~   you may not use this file except in compliance with the License.
 ~   You may obtain a copy of the License at
 ~
 ~        http://www.apache.org/licenses/LICENSE-2.0
 ~
 ~   Unless required by applicable law or agreed to in writing, software
 ~   distributed under the License is distributed on an "AS IS" BASIS,
 ~   WITHOUT WARRANTIES OR CONDITIONS OF ANY KIND, either express or implied.
 ~   See the License for the specific language governing permissions and
 ~   limitations under the License.
-->

<svg version="1.1" id="Ballerina-composer" xmlns="http://www.w3.org/2000/svg" xmlns:xlink="http://www.w3.org/1999/xlink" x="0px"
	 y="0px" viewBox="0 0 280 109" style="enable-background:new 0 0 280 109;" xml:space="preserve">
<style type="text/css">
	.st0{fill:#464646;}
	.st1{fill:#41C4BF;}
</style>
<path class="st0" d="M31.5,32.6c5.2-0.8,8.9-4.7,8.9-10.1c0-7.9-5.2-13.1-17.4-13.1H1.5v48.3h22.7c11.3,0,17.6-4.9,17.6-13.3
	C41.9,37.5,37.3,33.7,31.5,32.6z M10.9,17.1h11.5c5.8,0,8.2,2.6,8.2,6.2c0,3.6-2.5,6.1-8.2,6.1H10.9V17.1z M23.2,49.9H10.9V36.7
	h12.3c6,0,8.9,2.6,8.9,6.7C32,47.4,29.1,49.9,23.2,49.9z M76.2,49.5V36c0-8.9-5.8-13-14.5-13c-9,0-14.3,4.8-15.4,11.7l8.4,0.8
	c0.8-3.3,2.8-5.6,6.7-5.6c3.9,0,5.9,2.3,5.9,6.1v1L58,38.7c-7.8,1.5-12.9,4.1-12.9,10.6c0,5.8,4.3,9.3,10.7,9.3
	c5.6,0,9.9-2.6,11.8-6.6c0.7,4.1,3.6,6.5,7.4,6.5c3.1,0,4.9-1,6.4-2.1v-4.9c-1,0.5-1.9,0.7-2.8,0.7C77.2,52.1,76.2,51.2,76.2,49.5z
	 M67.3,43c0,5.8-3.7,9.4-8.5,9.4c-3,0-4.7-1.8-4.7-4.1c0-3.1,2.6-4.2,6.8-5.1l6.4-1.3V43z M135,22.9c-10.1,0-17.7,7.7-17.7,18.3
	c0,10.7,7.5,17.3,17.9,17.3c8.7,0,14.6-4.5,16.3-12.2l-7.4-0.8c-1.3,4-4.1,6-8.6,6c-5,0-8.9-3.4-9.2-8.9h25.4v-2.9
	C151.8,30.6,146.1,22.9,135,22.9z M126.5,37.9c0.5-4.5,3.4-8.2,8.4-8.2c5.1,0,7.7,3.8,7.8,8.2H126.5z M176.4,22.9
	c2.1,0,3.8,0.5,4.8,1.4l-0.7,8.6c-1.8-1-3.3-1.5-5.5-1.5c-4.8,0-8,3.4-8,9.5v16.7h-9.2V23.9h9.2v6.4
	C168.2,26.5,171.7,22.9,176.4,22.9z M185.2,23.9h9.2v33.8h-9.2V23.9z M185,9.4h9.4v9H185V9.4z M234.5,36.6v21.1h-9.2V38.4
	c0-5.2-2.1-8.2-6.6-8.2c-4.7,0-7.6,3.7-7.6,9.4v18.1h-9.2V23.9h9.2v5.5c1.7-3.8,6-6.4,11-6.4C231.2,22.9,234.5,29.1,234.5,36.6z
	 M273.5,52.1c-1.5,0-2.4-0.8-2.4-2.6V36c0-8.9-5.8-13-14.5-13c-9,0-14.3,4.8-15.4,11.7l8.4,0.8c0.8-3.3,2.8-5.6,6.7-5.6
	c3.9,0,5.9,2.3,5.9,6.1v1l-9.3,1.8C245,40.1,240,42.8,240,49.2c0,5.8,4.3,9.3,10.7,9.3c5.6,0,9.9-2.6,11.8-6.6
	c0.7,4.1,3.6,6.5,7.4,6.5c3.1,0,4.9-1,6.4-2.1v-4.9C275.3,51.8,274.4,52.1,273.5,52.1z M262.1,43c0,5.8-3.7,9.4-8.5,9.4
	c-3,0-4.7-1.8-4.7-4.1c0-3.1,2.6-4.2,6.8-5.1l6.4-1.3V43z M85.5,8h11.7v18.4l-11.7-4.5V8z M93.4,29.3l-8,3.1v-6.1L93.4,29.3z
	 M85.5,36.8l11.7-4.5v6.8l-5.7,18.6h-6V36.8z M101.2,8h11.7v13.9l-11.7,4.5V8z M104.9,29.3l8-3.1v6.1L104.9,29.3z M101.2,32.3
	l11.7,4.5v20.9h-6l-5.7-18.6V32.3z"/>
<path class="st1" d="M131.7,82.5l2.7,0.3l0,0.2c-0.4,4.8-3.7,7.9-8.5,7.9c-5.5,0-9.2-3.9-9.2-9.7s3.7-9.7,9.2-9.7c4.8,0,8,3,8.5,7.8
	l0,0.2l-2.7,0.2l0-0.2c-0.3-3.4-2.5-5.5-5.9-5.5c-3.6,0-6.1,2.9-6.1,7.1s2.4,7.1,6.1,7.1c3.4,0,5.5-2.1,5.9-5.6L131.7,82.5z
	 M153.9,78.4c0.3,1.1,0.5,2.3,0.5,3.5s-0.2,2.3-0.5,3.5c-0.3,1.1-0.8,2.1-1.5,3c-0.7,0.9-1.6,1.6-2.7,2.2c-1.1,0.6-2.5,0.8-4.1,0.8
	c-1.6,0-3-0.3-4.1-0.8c-1.1-0.6-2-1.3-2.7-2.2c-0.7-0.9-1.2-1.9-1.5-3c-0.3-1.1-0.5-2.3-0.5-3.5s0.2-2.3,0.5-3.5
	c0.3-1.1,0.8-2.1,1.5-3c0.7-0.9,1.6-1.6,2.7-2.2c1.1-0.6,2.5-0.8,4.1-0.8c1.6,0,3,0.3,4.1,0.8c1.1,0.6,2,1.3,2.7,2.2
	C153.1,76.3,153.6,77.3,153.9,78.4z M151.1,81.9c0-1.8-0.2-3.1-0.7-4.1c-0.4-1-1-1.7-1.6-2.2c-0.6-0.5-1.2-0.8-1.8-0.9
	c-0.6-0.1-1.1-0.2-1.4-0.2c-0.3,0-0.8,0.1-1.4,0.2c-0.6,0.1-1.2,0.4-1.8,0.9c-0.6,0.5-1.1,1.2-1.6,2.2c-0.4,1-0.7,2.4-0.7,4.1
	c0,1.8,0.2,3.1,0.7,4.1c0.4,1,1,1.7,1.6,2.2c0.6,0.5,1.2,0.8,1.8,0.9c0.6,0.1,1.1,0.2,1.4,0.2c0.3,0,0.8-0.1,1.4-0.2
	c0.6-0.1,1.2-0.4,1.8-0.9c0.6-0.5,1.1-1.2,1.6-2.2C150.9,85,151.1,83.6,151.1,81.9z M182.8,75.1c-0.4-0.7-0.9-1.4-1.7-1.9
	c-0.8-0.5-1.8-0.8-3.2-0.8c-0.9,0-1.7,0.1-2.4,0.4c-0.7,0.3-1.3,0.6-1.8,1c-0.5,0.4-0.9,0.8-1.2,1.2c-0.3,0.4-0.6,0.8-0.7,1.2
	c-0.1-0.5-0.3-0.9-0.6-1.4c-0.3-0.5-0.6-0.9-1-1.2c-0.4-0.4-0.9-0.6-1.5-0.9c-0.6-0.2-1.3-0.3-2-0.3c-0.6,0-1.1,0.1-1.6,0.2
	c-0.5,0.2-1.1,0.4-1.5,0.7c-0.5,0.3-0.9,0.6-1.3,1c-0.4,0.4-0.7,0.9-0.9,1.4l0-0.2v-2.4h-3.1v17.6h3.1V80.2c0-0.9,0.1-1.6,0.4-2.3
	c0.2-0.7,0.6-1.3,1-1.8c0.4-0.5,0.9-0.9,1.5-1.1c0.6-0.3,1.2-0.4,1.8-0.4c0.7,0,1.3,0.1,1.7,0.4c0.4,0.3,0.8,0.7,1,1.1
	c0.3,0.5,0.4,1,0.5,1.6c0.1,0.6,0.1,1.2,0.1,1.9v11.1h3.1V80.2c0-1.1,0.1-2.1,0.4-2.8c0.3-0.7,0.7-1.3,1.1-1.7
	c0.5-0.4,1-0.7,1.5-0.9c0.6-0.2,1.1-0.2,1.6-0.2c0.8,0,1.4,0.2,1.9,0.5s0.8,0.8,1,1.3c0.2,0.5,0.4,1.1,0.4,1.6
	c0.1,0.6,0.1,1.1,0.1,1.6v11.2h3.1V79.3c0-0.5,0-1.1-0.1-1.9C183.4,76.6,183.2,75.9,182.8,75.1z M204.8,77.6
	c0.4,1.2,0.6,2.6,0.6,4.3c0,1.7-0.2,3.2-0.7,4.4c-0.4,1.2-1,2.2-1.8,3c-0.7,0.8-1.6,1.3-2.5,1.7c-0.9,0.3-1.9,0.5-2.9,0.5
	c-0.2,0-0.5,0-1-0.1c-0.5,0-1-0.2-1.6-0.4c-0.6-0.2-1.2-0.5-1.8-1c-0.6-0.4-1.1-1-1.5-1.8v9h-3.1V73.1h2.8v2.4h0.1
	c0.4-0.7,0.9-1.2,1.4-1.6c0.5-0.4,1-0.7,1.6-1c0.5-0.2,1-0.4,1.5-0.5c0.5-0.1,0.9-0.1,1.3-0.1c1.1,0,2.1,0.2,3.1,0.6
	c1,0.4,1.8,0.9,2.5,1.7S204.3,76.4,204.8,77.6z M202.2,81.9c0-2.3-0.5-4.1-1.4-5.4c-0.9-1.3-2.3-2-4-2c-0.4,0-0.9,0.1-1.5,0.2
	c-0.6,0.2-1.2,0.5-1.7,1c-0.6,0.5-1,1.3-1.4,2.2c-0.4,1-0.6,2.3-0.6,4c0,1.4,0.2,2.5,0.5,3.4c0.3,0.9,0.8,1.7,1.3,2.3
	c0.5,0.6,1.1,1,1.8,1.2c0.6,0.2,1.2,0.4,1.8,0.4c0.6,0,1.2-0.1,1.9-0.4c0.6-0.2,1.2-0.6,1.7-1.2c0.5-0.6,0.9-1.3,1.2-2.3
	C202,84.5,202.2,83.3,202.2,81.9z M225.3,78.4c0.3,1.1,0.5,2.3,0.5,3.5s-0.2,2.3-0.5,3.5c-0.3,1.1-0.8,2.1-1.5,3
	c-0.7,0.9-1.6,1.6-2.7,2.2c-1.1,0.6-2.5,0.8-4.1,0.8c-1.6,0-3-0.3-4.1-0.8c-1.1-0.6-2-1.3-2.7-2.2c-0.7-0.9-1.2-1.9-1.5-3
	c-0.3-1.1-0.5-2.3-0.5-3.5s0.2-2.3,0.5-3.5c0.3-1.1,0.8-2.1,1.5-3c0.7-0.9,1.6-1.6,2.7-2.2s2.5-0.8,4.1-0.8c1.6,0,3,0.3,4.1,0.8
	c1.1,0.6,2,1.3,2.7,2.2C224.5,76.3,225,77.3,225.3,78.4z M222.5,81.9c0-1.8-0.2-3.1-0.7-4.1c-0.4-1-1-1.7-1.6-2.2
	c-0.6-0.5-1.2-0.8-1.8-0.9c-0.6-0.1-1.1-0.2-1.4-0.2c-0.3,0-0.8,0.1-1.4,0.2c-0.6,0.1-1.2,0.4-1.8,0.9c-0.6,0.5-1.1,1.2-1.6,2.2
	c-0.4,1-0.7,2.4-0.7,4.1c0,1.8,0.2,3.1,0.7,4.1c0.4,1,1,1.7,1.6,2.2c0.6,0.5,1.2,0.8,1.8,0.9c0.6,0.1,1.1,0.2,1.4,0.2
	c0.3,0,0.8-0.1,1.4-0.2c0.6-0.1,1.2-0.4,1.8-0.9c0.6-0.5,1.1-1.2,1.6-2.2C222.3,85,222.5,83.6,222.5,81.9z M241.8,82.1
	c-0.6-0.4-1.2-0.6-2-0.9c-0.8-0.2-1.6-0.4-2.5-0.6c-0.6-0.1-1.2-0.3-1.8-0.4c-0.6-0.1-1.1-0.3-1.6-0.5c-0.5-0.2-0.8-0.5-1.1-0.9
	c-0.3-0.4-0.4-0.9-0.4-1.5c0-0.7,0.2-1.2,0.5-1.6c0.3-0.4,0.7-0.7,1.2-0.8c0.4-0.2,0.8-0.3,1.2-0.3c0.4,0,0.6,0,0.7,0
	c0.9,0,1.6,0.1,2.1,0.3c0.5,0.2,0.9,0.5,1.2,0.9c0.3,0.3,0.5,0.7,0.6,1c0.1,0.4,0.2,0.7,0.2,0.9h2.9c0-0.5-0.2-1-0.3-1.6
	c-0.2-0.6-0.5-1.2-1-1.7c-0.5-0.5-1.2-1-2.1-1.4c-0.9-0.4-2.1-0.6-3.6-0.6c-0.8,0-1.6,0.1-2.4,0.2c-0.8,0.2-1.5,0.4-2.2,0.8
	c-0.6,0.4-1.2,0.9-1.6,1.6c-0.4,0.7-0.6,1.5-0.6,2.4c0,0.9,0.1,1.7,0.4,2.3c0.3,0.6,0.7,1.1,1.2,1.4c0.5,0.4,1.1,0.7,1.8,0.9
	c0.7,0.2,1.4,0.4,2.1,0.6l1.9,0.4c0.9,0.2,1.5,0.4,2,0.6c0.5,0.2,0.9,0.5,1.1,0.7c0.3,0.2,0.4,0.5,0.5,0.8c0.1,0.3,0.1,0.5,0.1,0.8
	c0,0.2,0,0.5-0.1,0.8c0,0.4-0.2,0.7-0.4,1.1c-0.3,0.4-0.7,0.7-1.2,1c-0.6,0.3-1.3,0.4-2.3,0.4c-0.6,0-1.1-0.1-1.7-0.2
	c-0.6-0.1-1.1-0.3-1.5-0.6c-0.4-0.3-0.8-0.7-1.1-1.2s-0.4-1.1-0.4-1.8h-3.1c0,0.8,0.2,1.6,0.5,2.3c0.3,0.7,0.8,1.3,1.5,1.9
	c0.6,0.5,1.5,1,2.4,1.3c1,0.3,2.1,0.5,3.4,0.5c0.1,0,0.4,0,0.8,0c0.4,0,0.9-0.1,1.4-0.2c0.5-0.1,1.1-0.3,1.7-0.5
	c0.6-0.2,1.1-0.6,1.6-1c0.5-0.4,0.9-1,1.2-1.6c0.3-0.6,0.5-1.4,0.5-2.3c0-0.9-0.2-1.6-0.5-2.2C242.8,82.9,242.3,82.4,241.8,82.1z
	 M263.1,82.6h-13.6c0,0.8,0.1,1.5,0.3,2.3c0.2,0.8,0.5,1.5,1,2.1c0.4,0.6,1,1.2,1.7,1.6c0.7,0.4,1.6,0.6,2.6,0.6
	c0.7,0,1.4-0.1,1.9-0.3c0.6-0.2,1.1-0.5,1.5-0.8c0.4-0.3,0.7-0.7,1-1.2c0.2-0.4,0.4-0.9,0.5-1.4h2.9c-0.1,0.6-0.3,1.3-0.6,2
	c-0.3,0.7-0.8,1.3-1.4,1.9c-0.6,0.6-1.3,1-2.3,1.4c-0.9,0.4-2.1,0.6-3.4,0.6c-1.5,0-2.7-0.2-3.7-0.6c-1-0.4-1.8-0.9-2.5-1.5
	c-0.7-0.6-1.2-1.3-1.5-2c-0.4-0.7-0.6-1.5-0.8-2.2c-0.2-0.7-0.3-1.3-0.3-1.9c0-0.6-0.1-1-0.1-1.3c0-0.4,0-0.9,0.1-1.5
	c0-0.6,0.2-1.3,0.3-2c0.2-0.7,0.5-1.4,0.8-2.1c0.4-0.7,0.9-1.4,1.5-1.9c0.6-0.6,1.4-1,2.4-1.4c0.9-0.4,2.1-0.5,3.5-0.5
	c1.8,0,3.2,0.3,4.2,0.9c1.1,0.6,1.9,1.4,2.4,2.3c0.6,0.9,0.9,1.9,1.1,3c0.2,1.1,0.3,2.1,0.4,3.1c0,0.1,0,0.3,0,0.4
	C263.1,82.3,263.1,82.4,263.1,82.6z M259.9,80.4c0-0.6-0.1-1.2-0.2-1.9c-0.1-0.7-0.4-1.3-0.7-1.9c-0.4-0.6-0.9-1.1-1.5-1.5
	c-0.6-0.4-1.4-0.6-2.4-0.6c-1.1,0-2,0.2-2.7,0.6c-0.7,0.4-1.3,0.9-1.7,1.5c-0.4,0.6-0.7,1.2-0.8,1.9c-0.1,0.7-0.2,1.3-0.2,1.9H259.9
	z M276.1,72.4c-0.6,0-1.2,0.1-1.8,0.3c-0.6,0.2-1.2,0.4-1.7,0.8c-0.5,0.3-1,0.8-1.4,1.3c-0.4,0.5-0.7,1.1-0.9,1.7h-0.1v-3.4h-3.1
	v17.6h3.1v-8.1c0-0.3,0-0.6,0-0.9c0-0.3,0-0.6,0-0.9c0.1-1.1,0.3-2,0.6-2.8c0.3-0.8,0.8-1.4,1.4-1.9c0.6-0.5,1.3-0.8,2-1.1
	c0.8-0.2,1.7-0.4,2.8-0.4v-2.2L276.1,72.4z"/>
</svg>