<?xml version="1.0" encoding="utf-8"?>

<!--
 ~   Copyright (c) WSO2 Inc. (http://wso2.com) All Rights Reserved.
 ~
 ~   Licensed under the Apache License, Version 2.0 (the "License");
 ~   you may not use this file except in compliance with the License.
 ~   You may obtain a copy of the License at
 ~
 ~        http://www.apache.org/licenses/LICENSE-2.0
 ~
 ~   Unless required by applicable law or agreed to in writing, software
 ~   distributed under the License is distributed on an "AS IS" BASIS,
 ~   WITHOUT WARRANTIES OR CONDITIONS OF ANY KIND, either express or implied.
 ~   See the License for the specific language governing permissions and
 ~   limitations under the License.
-->

<svg version="1.1" id="export" xmlns="http://www.w3.org/2000/svg" xmlns:xlink="http://www.w3.org/1999/xlink" x="0px" y="0px"
	 viewBox="0 0 14 14" style="enable-background:new 0 0 14 14;" xml:space="preserve">
<style type="text/css">
	.st0{fill:#FFFFFF;}
</style>
<path class="st0" d="M11.8757324,2.4336548l-1.7561035-1.6213989L10.869812,0L14,2.8918457l-2.6530151,2.9403076l-0.793335-0.7699585
	l1.2665405-1.5103149c-3.4245605,0.3379517-5.9041748,1.65271-7.366394,3.9318237
	c-1.2120361,1.8898315-1.2462158,3.7625122-1.2462158,3.7625122l-1.1054688-0.0125732
	C2.1021118,11.2336426,2.3081665,3.298645,11.8757324,2.4336548z M12.6760254,12.6455688c-3.8269653,0-7.5960083,0-11.3427124,0
	L1.3186035,1.3190918c1.3780518,0.0123291,5.6578369,0.0092163,5.6578369,0.0092163L6.9726562,0.0043335
	C5.2752075,0.0012207,1.6974487-0.0049438,0,0.0073853v14h14V7.2073975l-1.3265381,0.0015259
	C12.6734619,7.2089233,12.6760254,12.2844849,12.6760254,12.6455688z"/>
</svg>