<?xml version="1.0" encoding="utf-8"?>

<!--
 ~   Copyright 2017, WSO2 Inc. (http://www.wso2.com)
 ~
 ~   Licensed under the Apache License, Version 2.0 (the "License");
 ~   you may not use this file except in compliance with the License.
 ~   You may obtain a copy of the License at
 ~
 ~        http://www.apache.org/licenses/LICENSE-2.0
 ~
 ~   Unless required by applicable law or agreed to in writing, software
 ~   distributed under the License is distributed on an "AS IS" BASIS,
 ~   WITHOUT WARRANTIES OR CONDITIONS OF ANY KIND, either express or implied.
 ~   See the License for the specific language governing permissions and
 ~   limitations under the License.
-->

<svg version="1.1" id="lock" xmlns="http://www.w3.org/2000/svg" xmlns:xlink="http://www.w3.org/1999/xlink" x="0px" y="0px"
	 viewBox="0 0 14 14" style="enable-background:new 0 0 14 14;" xml:space="preserve">
<path d="M10.6999998,5.8000002h-1.5v-2c0-1.2-1-2.2-2.1999998-2.2s-2.1999998,1-2.1999998,2.2v2H3.3v-2C3.3,1.7,4.9000001,0,7,0
	s3.6999998,1.7,3.6999998,3.7V5.8000002z M12.3019609,6.5H1.6823529L1.7058823,14h10.5882359L12.3019609,6.5z M7.5,9.8000002
	v2.0999994h-1V9.8000002C6.3000002,9.6000004,6.0999999,9.3000002,6.0999999,9C6.0999999,8.5,6.5,8.1000004,7,8.1000004
	S7.9000001,8.5,7.9000001,9C7.9000001,9.3000002,7.6999998,9.6000004,7.5,9.8000002z"/>
</svg>
