<?xml version="1.0" encoding="utf-8"?>
<!-- Generator: Adobe Illustrator 16.0.0, SVG Export Plug-In . SVG Version: 6.00 Build 0)  -->
<!DOCTYPE svg PUBLIC "-//W3C//DTD SVG 1.1//EN" "http://www.w3.org/Graphics/SVG/1.1/DTD/svg11.dtd">
<svg version="1.1" id="Layer_1" xmlns="http://www.w3.org/2000/svg" xmlns:xlink="http://www.w3.org/1999/xlink" x="0px" y="0px"
	 width="660.444px" height="121.649px" viewBox="147.39 88.001 660.444 121.649"
	 enable-background="new 147.39 88.001 660.444 121.649" xml:space="preserve">
<g>
	<g>
		<g>
			<g>
				<path fill="#464646" d="M201.94,207.439h-54.55V91.338h51.603c29.303,0,41.834,12.53,41.834,31.513
					c0,13.085-8.847,22.298-21.377,24.325c14.006,2.581,24.879,11.795,24.879,28.382
					C244.328,195.645,229.031,207.439,201.94,207.439z M169.875,139.621h27.642c13.822,0,19.719-6.081,19.719-14.744
					c0-8.662-5.896-14.926-19.719-14.926h-27.642V139.621z M169.875,157.129v31.697h29.484c14.374,0,21.378-6.081,21.378-15.666
					c0-9.766-7.004-16.031-21.378-16.031H169.875z"/>
				<path fill="#464646" d="M326.928,187.72c0,4.238,2.211,6.267,5.714,6.267c2.209,0,4.423-0.553,6.818-1.66v11.795
					c-3.502,2.767-7.925,5.162-15.296,5.162c-9.213,0-16.219-5.896-17.876-15.666c-4.606,9.583-14.927,15.851-28.382,15.851
					c-15.479,0-25.801-8.295-25.801-22.299c0-15.481,12.165-21.931,30.961-25.433l22.298-4.239v-2.395
					c0-9.029-4.79-14.56-14.188-14.56c-9.213,0-14.19,5.53-16.032,13.452l-20.09-1.842c2.765-16.585,15.481-28.196,37.042-28.196
					c21.01,0,34.832,9.951,34.832,31.328V187.72L326.928,187.72z M305.365,169.477l-15.294,3.132
					c-10.136,2.024-16.4,4.606-16.4,12.162c0,5.714,4.053,9.953,11.241,9.953c11.608,0,20.453-8.663,20.453-22.485V169.477z"/>
				<path fill="#464646" d="M508.09,180.348c-4.053,18.429-18.428,29.302-39.253,29.302c-25.063,0-43.124-16.034-43.124-41.648
					c0-25.616,18.246-44.046,42.57-44.046c26.537,0,40.176,18.43,40.176,40.544v7.002h-61c0.735,13.269,10.137,21.377,22.114,21.377
					c10.873,0,17.507-4.791,20.642-14.374L508.09,180.348z M486.898,159.892c-0.37-10.504-6.451-19.718-18.799-19.718
					c-12.161,0-18.982,8.846-20.271,19.718H486.898z"/>
				<path fill="#464646" d="M577.427,147.913c-4.239-2.395-7.925-3.5-13.27-3.5c-11.427,0-19.167,8.107-19.167,22.851v40.175
					h-22.113v-81.271h22.113v15.48c2.947-9.215,11.428-17.692,22.669-17.692c4.975,0,9.028,1.291,11.427,3.317L577.427,147.913z"/>
				<path fill="#464646" d="M588.394,91.338h22.671V112.9h-22.671V91.338z M610.879,126.168v81.271h-22.115v-81.271H610.879z"/>
				<path fill="#464646" d="M651.203,207.439h-22.115v-81.271h22.115v13.27c4.053-9.215,14.372-15.48,26.536-15.48
					c21.746,0,29.67,14.744,29.67,32.804v50.679h-22.113v-46.256c0-12.532-4.978-19.718-15.852-19.718
					c-11.24,0-18.241,8.847-18.241,22.482V207.439L651.203,207.439z"/>
				<path fill="#464646" d="M795.305,187.72c0,4.238,2.209,6.267,5.712,6.267c2.211,0,4.425-0.553,6.817-1.66v11.795
					c-3.5,2.767-7.925,5.162-15.298,5.162c-9.211,0-16.218-5.896-17.875-15.666c-4.606,9.583-14.927,15.851-28.38,15.851
					c-15.479,0-25.8-8.295-25.8-22.299c0-15.481,12.16-21.931,30.961-25.433l22.298-4.239v-2.395c0-9.029-4.793-14.56-14.189-14.56
					c-9.215,0-14.19,5.53-16.033,13.452l-20.086-1.842c2.763-16.585,15.479-28.196,37.041-28.196
					c21.011,0,34.832,9.951,34.832,31.328V187.72L795.305,187.72z M773.74,169.477l-15.297,3.132
					c-10.137,2.024-16.4,4.606-16.4,12.162c0,5.714,4.056,9.953,11.239,9.953c11.609,0,20.458-8.663,20.458-22.485V169.477z"/>
			</g>
			<g>
				<polygon fill="#464646" points="349.089,121.523 349.089,88.001 377.159,88.001 377.159,132.259 				"/>
				<polygon fill="#464646" points="349.089,132.018 368.302,139.367 349.089,146.713 				"/>
				<polygon fill="#464646" points="377.159,146.474 377.159,162.71 363.514,207.439 349.089,207.439 349.089,157.207 				"/>
			</g>
			<g>
				<polygon fill="#464646" points="414.955,121.523 414.955,88.001 386.885,88.001 386.885,132.259 				"/>
				<polygon fill="#464646" points="414.955,132.018 395.743,139.367 414.955,146.713 				"/>
				<polygon fill="#464646" points="386.885,146.474 386.885,162.71 400.531,207.439 414.955,207.439 414.955,157.207 				"/>
			</g>
		</g>
	</g>
</g>
</svg>
