<?xml version="1.0" encoding="utf-8"?>

<!--
 ~   Copyright (c) WSO2 Inc. (http://wso2.com) All Rights Reserved.
 ~
 ~   Licensed under the Apache License, Version 2.0 (the "License");
 ~   you may not use this file except in compliance with the License.
 ~   You may obtain a copy of the License at
 ~
 ~        http://www.apache.org/licenses/LICENSE-2.0
 ~
 ~   Unless required by applicable law or agreed to in writing, software
 ~   distributed under the License is distributed on an "AS IS" BASIS,
 ~   WITHOUT WARRANTIES OR CONDITIONS OF ANY KIND, either express or implied.
 ~   See the License for the specific language governing permissions and
 ~   limitations under the License.
-->

<svg version="1.1" id="import" xmlns="http://www.w3.org/2000/svg" xmlns:xlink="http://www.w3.org/1999/xlink" x="0px" y="0px"
	 viewBox="0 0 14 14" style="enable-background:new 0 0 14 14;" xml:space="preserve">
<path d="M10.6601343,9.302331c0.0390787,0.0080853,0.0420189,0.0287275,0.0260324,0.0616198
	c-0.1424103,0.2937021-0.3003178,0.5783386-0.4884834,0.8455801c-0.3345566,0.4751911-0.7324486,0.890172-1.1920815,1.2451258
	c-0.3037472,0.2345943-0.6304646,0.432744-0.9765368,0.5994101c-0.3430099,0.1650734-0.6993728,0.2923546-1.0678635,0.3852739
	c-0.3018489,0.0761356-0.6085362,0.1263618-0.9193277,0.1461468c-0.1700349,0.0107803-0.3407435,0.0191717-0.510962,0.0168438
	c-0.2873936-0.0039196-0.573194-0.029891-0.8573413-0.0772991c-0.2875156-0.0478992-0.5692739-0.1171141-0.8452129-0.2092981
	c-0.2919259-0.0975122-0.5742965-0.2181787-0.8462543-0.3633451C2.6029549,11.7500744,2.249716,11.510519,1.926613,11.2272291
	c-0.4200034-0.3683071-0.7828588-0.785737-1.0774798-1.2612963c-0.2349618-0.3793325-0.426006-0.7788773-0.5656601-1.203475
	C0.1745675,8.4313316,0.0910201,8.0946913,0.0521865,7.748374c-0.024562-0.2188525-0.0468576-0.43893-0.051084-0.658885
	C-0.0040426,6.8207774,0.008759,6.5518208,0.0441012,6.2842731c0.0459388-0.3470526,0.1201147-0.68749,0.2292654-1.0197806
	c0.1154596-0.3515849,0.26228-0.6895723,0.4453616-1.0120015c0.2382693-0.4195135,0.5222325-0.8041744,0.8581372-1.1503694
	C1.8949457,2.774302,2.2472048,2.488869,2.6351733,2.2471082C2.986881,2.0279493,3.3572092,1.8491554,3.7481792,1.711339
	c0.2764289-0.0974516,0.5585549-0.172485,0.8461931-0.2251003C4.9253154,1.425722,5.2594438,1.39871,5.5964513,1.3973012
	c0.4079976-0.0016538,0.8104219,0.0405487,1.2085586,0.1266687C7.203146,1.6100286,7.5875621,1.7387185,7.9561753,1.9119385
	c0.4113669,0.1933719,0.796824,0.4287623,1.1501241,0.7167069C9.4132938,2.8788588,9.6924791,3.1554718,9.9428148,3.462527
	c0.380374,0.4666159,0.6759138,0.9808242,0.8913355,1.5427482c0.1248312,0.3256145,0.2162189,0.6599264,0.2800436,1.0020785
	c0.0203962,0.109457,0.0324631,0.2204452,0.0483274,0.3307595c-0.0042877,0.0022664-0.0085754,0.0045328-0.0129242,0.0067992
	c-0.0812197-0.0489402-0.1628075-0.0975127-0.243782-0.1469431c-0.3212042-0.196312-0.6552095-0.3683681-0.9965658-0.5265813
	c-0.0681734-0.0316062-0.1380615-0.059782-0.2045202-0.094573c-0.022418-0.0116987-0.0445299-0.0358319-0.0535336-0.0594139
	c-0.129303-0.3365784-0.2882509-0.6580892-0.4944859-0.9542413C8.8540039,4.1283951,8.4866772,3.7575767,8.0514832,3.4534004
	C7.7242761,3.2247477,7.3708534,3.048465,6.9947066,2.9194689C6.7292414,2.8284488,6.457406,2.7554977,6.1763215,2.7309358
	C5.9602256,2.7120702,5.7432103,2.6908159,5.5266852,2.6921635C5.1800618,2.6942461,4.8382769,2.7441661,4.5020046,2.8335938
	c-0.3378034,0.0898564-0.659559,0.2179337-0.9656954,0.3849673C3.2149825,3.393925,2.9207904,3.6072648,2.6545289,3.8593771
	c-0.3017261,0.2856781-0.561311,0.6041262-0.7696896,0.9643476C1.7159681,5.1155896,1.5785192,5.4206233,1.4819251,5.7441549
	C1.381166,6.0815296,1.3196692,6.4246011,1.3020899,6.7771049C1.2870833,7.0791373,1.3038663,7.3776784,1.3494989,7.6760969
	c0.0431212,0.2818809,0.1144795,0.5560436,0.2140136,0.8224888c0.1631135,0.4368477,0.388765,0.8385363,0.6836923,1.2012691
	c0.2151773,0.2646084,0.4560192,0.5026321,0.7249146,0.7114401c0.2984798,0.2317762,0.6238492,0.4182882,0.9724941,0.5651083
	c0.2706718,0.1139898,0.5503473,0.1969242,0.837863,0.2529087c0.256155,0.0499201,0.5152497,0.0803013,0.7766113,0.077055
	c0.1835713-0.0022669,0.3683066-0.0042267,0.5502243-0.0257263C6.52074,11.231946,6.918509,11.127573,7.3012714,10.9651947
	c0.4163284-0.176589,0.7929039-0.4150429,1.1351175-0.7084379c0.2021923-0.1734037,0.3852739-0.3659801,0.5505924-0.5752153
	C9.1396208,9.4883528,9.276947,9.28512,9.3941221,9.0685949c0.017395-0.0320959,0.0392618-0.0477762,0.0761356-0.0412836
	c0.106823,0.0189266,0.2150545,0.0318508,0.3204689,0.0569639c0.2776546,0.0660906,0.5540838,0.1373262,0.8309422,0.2066631
	C10.634654,9.2941847,10.6470881,9.2996359,10.6601343,9.302331z M13.9248533,10.1996698
	c-0.027441-0.1400833-0.0632114-0.278512-0.1064558-0.4145517c-0.0458164-0.144248-0.1000242-0.2857399-0.161582-0.4239235
	c-0.0515738-0.1158886-0.1083546-0.2294493-0.1696672-0.3404989c-0.2712231-0.4913616-0.6299133-0.9326191-1.0388298-1.3158717
	c-0.9420519-0.8828826-2.150733-1.5742927-3.3643141-1.9993801C8.7816658,5.5995398,8.4757128,5.5001893,8.16535,5.4218483
	c-0.360589-0.0909586-0.7277932-0.1553955-1.0918126-0.2326956C7.014307,5.1765962,6.7471881,5.1127105,6.533113,5.0600343
	C6.4732089,4.5740628,6.3496642,3.5659199,6.3083191,3.2980046C6.020987,3.43576,5.7247734,3.6500797,5.6073542,3.7455714
	C5.3014627,3.9943759,5.0024929,4.2518783,4.705483,4.5113411C4.3807263,4.7949977,4.0600729,5.0834322,3.7400327,5.3724794
	c-0.4528344,0.408978-0.9038923,0.8200388-1.329592,1.2578049C2.2534523,6.7917442,1.8477819,7.2288365,1.675542,7.4702911
	c0.334006,0.227428,1.0213732,0.6860199,1.2899622,0.860465c0.3642642,0.2366152,0.7329385,0.4664316,1.0986114,0.7009039
	c0.3839874,0.2462931,0.76577,0.4960775,1.1502471,0.7416363c0.3365173,0.2148714,0.6733408,0.4294968,1.014513,0.6368341
	c0.0801172,0.0486956,0.3959312,0.2023144,0.5962248,0.2918653c0.0019598-0.2086239-0.0213156-1.2946787-0.0412841-1.9447441
	c0.1978436-0.0680504,0.4652686-0.1462688,0.816915-0.1564369C7.8443298,8.593771,8.085845,8.5505276,8.3291368,8.5353365
	c0.392931-0.0245008,0.7842684,0.0007353,1.1751156,0.0474091c0.2791853,0.0333214,0.5561047,0.0791988,0.8272667,0.1496992
	c0.2888021,0.0750952,0.574235,0.1650124,0.8574629,0.2593403c0.3557501,0.1184607,0.6931868,0.2816353,1.026825,0.4514256
	c0.4616547,0.2350225,0.8921928,0.5243759,1.3290405,0.8012953c0.1505566,0.0954304,0.3048496,0.1849194,0.455162,0.2807169
	C13.9807148,10.438735,13.9386349,10.2702932,13.9248533,10.1996698z"/>
</svg>
