<?xml version="1.0" encoding="utf-8"?>
<!-- Generator: Adobe Illustrator 22.1.0, SVG Export Plug-In . SVG Version: 6.00 Build 0)  -->
<svg version="1.1" id="ElectronSplash" xmlns="http://www.w3.org/2000/svg" xmlns:xlink="http://www.w3.org/1999/xlink" x="0px"
	 y="0px" viewBox="0 0 1280 800" style="enable-background:new 0 0 1280 800;" xml:space="preserve">
<style type="text/css">
	.st0{fill:#57595D;}
	.st1{fill:none;stroke:#C4C6C7;stroke-miterlimit:10;}
	.st2{fill:#16B7AF;}
	.st3{fill:#FFFFFF;}
</style>
<g>
	<rect class="st0" width="1280" height="800"/>
	<path class="st1" d="M1280,728l-18.9,25.5l-46.5-1l2.4-24.9l0.1-0.6l-0.5,0.1L1087,700.8l-0.3-0.1l-48.1,48.3l-84.1,10.4l-21.5-1.3
		l-35.6-60.8l-0.2-0.3l-94.6,29.7l-47.7-19.9l-1.1-0.4l12,31.9l-88.5,27.8l-95.6-81.4l0-0.3l-0.2,0.1l-1.1-0.9l0.3,1.2l-66.4,28.7
		L432,645.6l-0.2-0.2l-107.5,41.2l-22.4-30.4l0.6-1.3l-49.6,29.6l-45-35.4l-0.3-0.2l-148,99.9L24,662l0.7-1.2l-1,0.5l-0.7-1.6
		l-0.1,1.9L0,672.6v1.2l22.1-10.6L0.3,699.7L0,699.5v2.6l0.5-0.9l20.3,16.8L19.7,746L0,744.5v1l19.7,1.5l-1.9,51H0v1h17.7l0,1h1l0-1
		h21.9l-0.4,1h1.1l0.4-1h112.8l1.2,1h1.5l-1.2-1h76.1l-0.5,1h1.1l0.5-1h83.2l-2.3,1h2.6l2.3-1h77.5l1.3,1h1.7l-1.3-1h8l0.7,1h1.3
		l-0.7-1h13.4l-0.1,1h1l0.1-1h54.1l-5.8,1h5.7l5.8-1h130.9l0.3,1h1.1l-0.3-1h57.2l-0.2,1h1l0.2-1h116.7l0.4,1h1.1l-0.4-1h12.1l3.9,1
		h4l-3.9-1h18.1l-1,1h1.4l1-1h83.5l0.9,1h1.4l-0.9-1h45.9l0.6,1h1.2l-0.6-1h31.9l-1,1h1.4l1-1h53.1l2.3,1h2.3l-2.3-1h146.9l-0.5,1
		h1.1l0.5-1h15.5l-0.1,1h1l0.1-1h17.2l-0.7,1h1.3l0.7-1h8.3l-2,1h2.1l2-1h40.8v-1h-38.8l38.8-19.1v-1.1l-40.9,20.2h-9.6l32.2-43.5
		l18.3,0.4v-1l-17.6-0.4l17.6-23.8V728z M1087.1,701.7l126.5,25.7l-173.3,21.4L1087.1,701.7z M1037.5,750.2l-31.4,31.6l-49.7-21.6
		L1037.5,750.2z M896.7,698.3l35,59.7l-63.8-4l-63.8-26.6L896.7,698.3z M755.6,708.2l45.5,19L766.7,738L755.6,708.2z M766.1,739.3
		l20.5,54.9l-107.9-27.5L766.1,739.3z M580.9,685.8l11.8,92.3l-77.5-63.9L580.9,685.8z M591.8,778.7l-168.3-4.4l1.4-21l89.2-38.6
		L591.8,778.7z M386,770l37.9-16.4l-1.4,20.6l-34-0.9L386,770z M387.2,773.3l-8.3-0.2l6.1-2.7L387.2,773.3z M432,646.9l81.3,67
		L425,752.1L432,646.9z M431,646.7l-7.1,105.9l-38.6,16.7l-60.5-81.8L431,646.7z M384.4,769.6l-7.9,3.4l-11.9-0.3L278.8,705
		l45.1-17.3L384.4,769.6z M374.4,773.9l-5.2,2.3l-3.2-2.5L374.4,773.9z M278.1,705.7l84.8,66.9l-115.6-3L278.1,705.7z M246.3,769.5
		l-127-3.3L277,705.7L246.3,769.5z M323.4,687l-44.5,17.1l22.5-46.8L323.4,687z M300.2,657.6l-22.5,46.6l-24-18.9L300.2,657.6z
		 M276.8,704.8l-154.7,59.3l130.7-78.2L276.8,704.8z M207.5,650.2l44.4,35l-135.3,80.8l-56.1-16.8L207.5,650.2z M23.8,664.3
		l34.3,83.5l-36.3-30.2L23.8,664.3z M1,700.4l21.8-36.5l-2,52.9L1,700.4z M21.7,718.9l36.2,30l-37.2-2.8L21.7,718.9z M40.9,798H18.7
		l1.9-51l38,2.9L40.9,798z M42,798l17.6-47.8l57.1,17h0.1l0,0l36.5,30.8H42z M232.6,798h-77.7l-36.5-30.8l127.4,3.3L232.6,798z
		 M318.6,798h-85l13.2-27.4l117.5,3.1l3.8,3L318.6,798z M321.2,798l47.7-20.6l26.2,20.6H321.2z M396.9,798l-26.8-21.1l6.7-2.9
		l11.1,0.3l17.5,23.7H396.9z M420.9,798h-14.2l-17.5-23.7l33.2,0.9L420.9,798z M421.9,798l1.5-22.8l164.7,4.4L481.7,798H421.9z
		 M487.4,798L593,779.8l1.8,0l-1.1-0.9l-11.1-87.4L612.2,798H487.4z M671,798h-57.7l-31-111.5l93.8,80l-1,0.3l1.4,0.3L671,798z
		 M671.9,798l5.5-30.6l109.7,27.9l1,2.7H671.9z M789.2,798l-0.9-2.4l9.4,2.4H789.2z M824.7,798h-23l-13.8-3.5L767.1,739l35.5-11.1
		l64.3,26.9L824.7,798z M826,798l41.7-42.7l39.8,42.7H826z M909,798l-40-42.9l63.3,3.9l22.9,39H909z M989.9,798h-33.4l-22.8-38.9
		l20.8,1.3l50.9,22.1L989.9,798z M991.3,798l15-15.1l34.8,15.1H991.3z M1193.1,798h-149.7l-36.4-15.8l32.1-32.2l176.9-21.9
		l-2.4,24.8L1193.1,798z M1209.3,798h-15.1l19.1-41.9L1209.3,798z M1228.1,798h-17.8l4.2-44.5l45.9,0.9L1228.1,798z"/>
	<g>
		<g>
			<g>
				<path class="st2" d="M679.5,368.3c-0.6,5.9-3.3,12.8-8,17.2c-5.4,5.2-11.5,5.8-17.8,5.8c-6.4,0-13.4-0.6-19.8-6.5
					c-5.7-5.2-9.3-14.2-9.3-26c0-10.1,2.9-18.5,7.9-23.6c3.7-4,10.2-7.7,20.8-7.7c9.7,0,15.4,3.1,18.7,6.2c3.3,3,6.2,7.8,6.9,14h-8
					c-0.6-5.1-3.3-8.3-4.2-9.3c-3.5-3.8-8.1-5-12.8-5c-7.4,0-11.7,3-14,5.2c-4.1,4.1-6.4,10.9-6.4,20c0,12,3.9,18.5,7.4,21.9
					c2.9,2.8,7.1,5,13.1,5c6.5,0,10.3-2.4,12.2-4.4c3-3,5.1-8.3,5.4-12.8H679.5z"/>
				<path class="st2" d="M697.1,334.4c6.3-5.8,13.9-6.9,20.1-6.9c6.3,0,13.8,1,20.1,6.9c7,6.5,9.3,16.8,9.3,25
					c0,7.5-1.7,18.3-9.8,25.4c-6,5.4-12.8,6.5-19.5,6.5s-13.9-1.2-19.8-6.5c-4.4-3.8-9.7-11.6-9.7-25.4
					C687.8,345.4,693.2,338,697.1,334.4z M704,381c4.2,3.7,9.1,4.5,13.2,4.5s9.1-0.8,13.1-4.4c4.4-3.8,7.5-11.1,7.5-21.8
					c0-7.2-1.6-15.5-6.4-20.6c-2.4-2.4-6.8-5.5-14.1-5.5c-6.4,0-10.9,2.3-13.7,4.9c-3.7,3.5-7,10-7,21.2
					C696.5,370.5,699.7,377.1,704,381z"/>
				<path class="st2" d="M767.8,329.8v8.5c1.7-3,4.1-5.6,6.9-7.5c3.4-2.3,7.1-3.4,12-3.4c3.7,0,7.9,0.7,11.5,3.4
					c1.8,1.4,4.7,4.2,5.9,9c0.6-1.3,2.9-5.2,7-8.3c3.6-2.7,8.1-4.1,13.4-4.1c7,0,11.5,2.6,14,5c5.4,5.1,5.7,11.8,5.7,16.7V389h-8.3
					v-38.2c0-4.8-0.2-10.7-4.5-14.4c-2.2-1.9-5.2-3-8.8-3c-4.5,0-8.5,1.6-11.2,4.3c-4.7,4.5-5.3,10.7-5.3,15.4v36h-8.3v-38.1
					c0-2.6-0.2-10.2-4.4-14.4c-2.7-2.7-5.8-3.1-8.5-3.1c-4.5,0-7.9,1.5-10.8,4.2c-3.1,2.9-6.3,7.8-6.3,15.8V389h-8.3v-59.2H767.8z"
					/>
				<path class="st2" d="M868.2,329.8v8.7h0.2c2.7-4.1,5.8-6.4,7.6-7.6c4.1-2.6,8.5-3.5,13.1-3.5c9.2,0,15,3.5,18.1,6.4
					c4,3.7,8.9,11.1,8.9,24.9c0,19.2-9.3,32.5-26.1,32.5c-5.3,0-10-1.2-13.7-3.3c-3.3-2-6-5-7.9-8.2v30.6h-8.3v-80.7H868.2z
					 M875.1,380c2.8,2.8,7.3,5.5,13.7,5.5c4.6,0,8.6-1.5,11.8-4.8c4.2-4.3,6.9-11.9,6.9-21.7c0-12.1-3.9-18.2-7.3-21.2
					c-2.3-2.1-6.3-4.5-12.3-4.5c-5,0-9.3,1.9-12.5,4.7c-6.6,5.9-7.4,15.5-7.4,21.7C868.1,365.4,869.1,374,875.1,380z"/>
				<path class="st2" d="M935.3,334.4c6.3-5.8,13.9-6.9,20.1-6.9c6.3,0,13.8,1,20.1,6.9c7,6.5,9.3,16.8,9.3,25
					c0,7.5-1.7,18.3-9.8,25.4c-6,5.4-12.8,6.5-19.5,6.5c-6.6,0-13.9-1.2-19.8-6.5c-4.4-3.8-9.7-11.6-9.7-25.4
					C926,345.4,931.5,338,935.3,334.4z M942.2,381c4.2,3.7,9.1,4.5,13.2,4.5s9.1-0.8,13.1-4.4c4.4-3.8,7.5-11.1,7.5-21.8
					c0-7.2-1.6-15.5-6.4-20.6c-2.4-2.4-6.8-5.5-14.1-5.5c-6.4,0-10.9,2.3-13.7,4.9c-3.7,3.5-7,10-7,21.2
					C934.7,370.5,938,377.1,942.2,381z"/>
				<path class="st2" d="M1001.5,371.8c0,4.8,2.3,8,4.2,9.8c2.3,2.1,6.4,4,13.3,4c6.2,0,9.6-1.6,11.5-3.1c2.5-2,4.1-5.5,4.1-9.2
					c0-2.6-1-5-3.3-6.9c-1.5-1.2-4.1-2.6-10.2-3.8l-6.8-1.4c-5.6-1.2-11.6-2.7-15-5.9c-2.5-2.4-4.1-6.2-4.1-10.3
					c0-5.6,2.9-10.8,7.6-13.9c5-3.1,11.6-3.5,15.2-3.5c4.6,0,12.7,0.7,18.1,5.8c2.5,2.3,5.1,6.3,5.2,11.9h-8.1
					c0-3.4-1.5-6.5-3.4-8.4c-2.5-2.3-6.8-3.5-12-3.5c-3.1,0-8.1,0.5-11.2,3.5c-1.3,1.3-2.8,3.6-2.8,7.2c0,2.6,0.8,4.8,3.1,6.8
					c2.7,2.2,6.4,3.1,9.8,3.8l6.4,1.4c5.1,1.2,10.6,2.3,14.4,5.1c3.1,2.3,5.4,5.9,5.4,11.3c0,6.4-3.1,11.8-7.3,14.7
					c-5.6,4-13.7,4.2-17.3,4.2c-10.6,0-16.6-3.1-19.7-6.3c-3.5-3.5-5.4-9-5.9-13.3H1001.5z"/>
				<path class="st2" d="M1107.5,371.9c-1.1,5.1-3.6,9.6-6.6,12.6c-5.9,5.9-12.9,6.9-19.6,6.9c-6.4,0-14-0.6-20.8-6.9
					c-7.5-7-9.1-16.7-9.1-25.3c0-6.3,0.8-16.8,8.5-24.2c6.6-6.5,15.1-7.5,20.8-7.5c5.3,0,13.4,0.8,19.6,7c6.6,6.6,7.6,15.7,8,26.4
					h-48.1c0.4,9.3,3,15.1,6.5,18.8c3.4,3.6,8.2,5.8,15,5.8c6.4,0,10.3-2.3,12.7-4.4c3.9-3.5,5-7.9,5.2-9.2H1107.5z M1099.4,355.1
					c0-4.8-1.8-12.9-5.9-17c-2.4-2.4-6.6-4.8-12.9-4.8c-6.9,0-11.8,2.6-14.7,5.7c-3.4,3.7-5.7,10.2-5.7,16.1H1099.4z"/>
				<path class="st2" d="M1153.1,335.2h-1.2c-7.6,0-12.3,1.6-16.3,5.6c-5.1,5-6,10.8-6,17.7V389h-8.3v-59.2h8.3v11.8h0.2
					c1.9-4.7,5.1-7.6,7.6-9.2c5-3.3,10-3.7,14.4-3.7h1.3V335.2z"/>
			</g>
		</g>
		<g>
			<path class="st3" d="M180.1,344.6c9.2-1.5,15.8-8.3,15.8-18c0-14-9.2-23.3-30.9-23.3h-38.1V389h40.3c20,0,31.3-8.7,31.3-23.5
				C198.4,353.4,190.4,346.6,180.1,344.6z M143.5,317.2h20.4c10.2,0,14.6,4.6,14.6,11s-4.4,10.9-14.6,10.9h-20.4V317.2z
				 M165.2,375.4h-21.8V352h21.8c10.6,0,15.8,4.6,15.8,11.8C181,370.9,175.8,375.4,165.2,375.4z M259.4,374.6v-23.9
				c0-15.8-10.2-23.1-25.7-23.1c-15.9,0-25.3,8.6-27.3,20.8l14.8,1.4c1.4-5.8,5-9.9,11.8-9.9c6.9,0,10.5,4.1,10.5,10.7v1.8
				l-16.5,3.1c-13.9,2.6-22.9,7.3-22.9,18.8c0,10.3,7.6,16.5,19,16.5c9.9,0,17.5-4.6,20.9-11.7c1.2,7.2,6.4,11.6,13.2,11.6
				c5.4,0,8.7-1.8,11.3-3.8V378c-1.8,0.8-3.4,1.2-5,1.2C261,379.2,259.4,377.7,259.4,374.6z M243.5,363.1c0,10.2-6.5,16.6-15.1,16.6
				c-5.3,0-8.3-3.1-8.3-7.3c0-5.6,4.6-7.5,12.1-9l11.3-2.3V363.1z M363.7,327.5c-18,0-31.4,13.6-31.4,32.5s13.3,30.7,31.8,30.7
				c15.4,0,26-8,29-21.6l-13.2-1.4c-2.3,7.1-7.2,10.6-15.2,10.6c-8.8,0-15.8-6-16.3-15.8h45v-5.2
				C393.4,341.1,383.3,327.5,363.7,327.5z M348.6,354c1-8,6-14.6,15-14.6c9.1,0,13.6,6.8,13.9,14.6H348.6z M437.1,327.5
				c3.7,0,6.7,1,8.4,2.4l-1.2,15.2c-3.1-1.8-5.8-2.6-9.8-2.6c-8.4,0-14.1,6-14.1,16.9v29.7H404v-60h16.3v11.4
				C422.5,333.8,428.8,327.5,437.1,327.5z M452.4,303.4h16.7v15.9h-16.7V303.4z M452.6,329.1H469v60h-16.3v-60H452.6z M540.2,351.7
				v37.4h-16.3V355c0-9.2-3.7-14.6-11.7-14.6c-8.3,0-13.5,6.5-13.5,16.6v32.1h-16.3v-60h16.3v9.8c3-6.8,10.6-11.4,19.6-11.4
				C534.4,327.5,540.2,338.4,540.2,351.7z M609.3,379.2c-2.6,0-4.2-1.5-4.2-4.6v-23.9c0-15.8-10.2-23.1-25.7-23.1
				c-15.9,0-25.3,8.6-27.3,20.8l14.8,1.4c1.4-5.8,5-9.9,11.8-9.9c6.9,0,10.5,4.1,10.5,10.7v1.8l-16.5,3.1
				c-13.9,2.6-22.9,7.3-22.9,18.8c0,10.3,7.6,16.5,19,16.5c9.9,0,17.5-4.6,20.9-11.7c1.2,7.2,6.4,11.6,13.2,11.6
				c5.4,0,8.7-1.8,11.3-3.8V378C612.6,378.8,610.9,379.2,609.3,379.2z M589.2,363.1c0,10.2-6.5,16.6-15.1,16.6
				c-5.3,0-8.3-3.1-8.3-7.3c0-5.6,4.6-7.5,12.1-9l11.3-2.3V363.1z M275.7,301h20.7v32.7l-20.7-7.9V301z M289.9,338.9l-14.2,5.4
				v-10.8L289.9,338.9z M275.7,352.1l20.7-7.9v12l-10.1,33h-10.6V352.1z M303.6,301h20.7v24.7l-20.7,7.9V301z M310.2,338.9l14.2-5.4
				v10.8L310.2,338.9z M303.6,344.1l20.7,7.9v37.1h-10.6l-10.1-33V344.1z"/>
		</g>
	</g>
</g>
</svg>
