<?xml version="1.0" encoding="utf-8"?>
<!-- Generator: Adobe Illustrator 22.0.1, SVG Export Plug-In . SVG Version: 6.00 Build 0)  -->
<svg version="1.1" xmlns="http://www.w3.org/2000/svg" xmlns:xlink="http://www.w3.org/1999/xlink" x="0px" y="0px"
	 viewBox="0 0 1280 800" style="enable-background:new 0 0 1280 800;" xml:space="preserve">
<style type="text/css">
	.st0{fill:#57595D;}
	.st1{fill:#20B6B0;}
	.st2{fill:#FFFFFF;}
	.st3{opacity:0.5;}
	.st4{clip-path:url(#SVGID_36_);}
	.st5{clip-path:url(#SVGID_37_);}
	.st6{clip-path:url(#SVGID_38_);}
	.st7{clip-path:url(#SVGID_39_);}
	.st8{clip-path:url(#SVGID_40_);}
	.st9{clip-path:url(#SVGID_41_);}
	.st10{clip-path:url(#SVGID_42_);}
	.st11{clip-path:url(#SVGID_43_);}
	.st12{clip-path:url(#SVGID_44_);}
	.st13{clip-path:url(#SVGID_45_);}
	.st14{clip-path:url(#SVGID_46_);}
	.st15{clip-path:url(#SVGID_47_);}
	.st16{clip-path:url(#SVGID_48_);}
	.st17{clip-path:url(#SVGID_49_);}
	.st18{clip-path:url(#SVGID_50_);}
	.st19{clip-path:url(#SVGID_51_);}
	.st20{clip-path:url(#SVGID_52_);}
	.st21{clip-path:url(#SVGID_53_);}
	.st22{clip-path:url(#SVGID_54_);}
	.st23{clip-path:url(#SVGID_55_);}
	.st24{clip-path:url(#SVGID_56_);}
	.st25{clip-path:url(#SVGID_57_);}
	.st26{clip-path:url(#SVGID_58_);}
	.st27{clip-path:url(#SVGID_59_);}
	.st28{clip-path:url(#SVGID_60_);}
	.st29{clip-path:url(#SVGID_61_);}
	.st30{clip-path:url(#SVGID_62_);}
	.st31{clip-path:url(#SVGID_63_);}
	.st32{clip-path:url(#SVGID_64_);}
	.st33{clip-path:url(#SVGID_65_);}
	.st34{clip-path:url(#SVGID_66_);}
	.st35{clip-path:url(#SVGID_67_);}
	.st36{clip-path:url(#SVGID_68_);}
	.st37{clip-path:url(#SVGID_69_);}
	.st38{clip-path:url(#SVGID_70_);}
	.st39{fill:#606060;}
</style>
<g id="Layer_1">
	<rect class="st0" width="1280" height="800"/>
	<g>
		<g>
			<g>
				<path class="st1" d="M1031.6895752,361.8617249c-1.8222656-1.2008362-3.9736328-2.1893921-6.4541016-2.9650269
					c-2.4817505-0.7743225-5.1564331-1.5119019-8.0239868-2.2094421c-2.7141113-0.6975403-5.194519-1.317627-7.4420166-1.8609924
					c-2.2494507-0.5413513-4.1484985-1.2589111-5.6984253-2.1513367c-1.5519409-0.889801-2.7528076-2.0345459-3.6051636-3.4302979
					c-0.8537598-1.3950806-1.2789307-3.256073-1.2789307-5.5819702c0-1.5499573,0.2703247-3.0414734,0.8136597-4.4769287
					c0.5419922-1.4338074,1.4137573-2.7130737,2.6166382-3.8377991c1.2014771-1.1227417,2.7514038-2.0148621,4.6517944-2.6746826
					c1.8990479-0.6575012,4.2446289-0.9882507,7.0354614-0.9882507c3.2560425,0,5.9107056,0.4649353,7.9659424,1.3954163
					c2.0532837,0.9301758,3.6813354,2.0549011,4.8840942,3.3722229c1.2008057,1.3193054,2.0352783,2.7727966,2.5004883,4.3611145
					c0.4645996,1.5896606,0.7355957,3.0050964,0.8137207,4.2442932h5.2331543
					c-0.15625-1.6280212-0.5233154-3.4486389-1.1047363-5.4654846c-0.5814209-2.0151978-1.6480713-3.9138794-3.197998-5.6981201
					c-1.5518799-1.7825623-3.7032471-3.2744141-6.4539795-4.4772644c-2.7528076-1.2008362-6.3780518-1.8022461-10.8729858-1.8022461
					c-4.6517944,0-8.335083,0.6394653-11.0477905,1.9187317c-2.7147217,1.2789307-4.749939,2.790802-6.1049805,4.5353394
					c-1.357666,1.7441711-2.2094116,3.488678-2.5585327,5.2328796c-0.3491211,1.7445068-0.5233154,3.1215515-0.5233154,4.1281433
					c0,2.7911682,0.4251709,5.137085,1.2789307,7.0354614c0.852417,1.9010315,2.0732422,3.4890137,3.663269,4.7679749
					c1.5879517,1.2795715,3.4689941,2.3075256,5.6403809,3.0818481c2.1693726,0.7756348,4.5349731,1.4738159,7.0935059,2.0932617
					c1.0847168,0.2322998,2.1513672,0.465271,3.197998,0.6975403c1.0466309,0.2329712,2.1113281,0.5053101,3.197998,0.8143616
					c1.9364014,0.4645691,3.7593384,0.9878845,5.4655151,1.5699463c1.7041626,0.5814209,3.197937,1.3190002,4.4768677,2.2094421
					c1.2796631,0.8917847,2.3062744,1.9964905,3.0819092,3.3141479c0.774292,1.3189697,1.1627197,2.9470215,1.1627197,4.8840942
					c0,1.3950806-0.2523193,2.8889465-0.7556152,4.4769287c-0.505249,1.5899963-1.3956299,3.0438232-2.6745605,4.3607788
					c-1.2796631,1.3196716-3.0058594,2.4043579-5.1751709,3.256073c-2.1713867,0.8544006-4.9241943,1.2796021-8.2563477,1.2796021
					c-3.0237427,0-5.6403809-0.4071655-7.8497925-1.2215271c-2.2094116-0.8136902-4.0697632-1.918396-5.581665-3.3141479
					c-1.5119019-1.3950806-2.6365967-3.0030823-3.3728638-4.8260193c-0.7376099-1.820282-1.1047363-3.7393494-1.1047363-5.7558594
					h-5.2325439c0,2.4817505,0.4452515,4.8654175,1.3370361,7.1516113c0.8904419,2.2875061,2.2474365,4.3227234,4.0704346,6.10495
					c1.8202515,1.7842407,4.1464844,3.2180176,6.977356,4.3027039c2.8288574,1.0846863,6.1810913,1.6280518,10.0585938,1.6280518
					c4.0303345,0,7.5006714-0.4652405,10.4083862-1.3950806c2.9068604-0.9305115,5.2912598-2.1893921,7.1514893-3.7793884
					c1.861084-1.5879822,3.2160645-3.4890442,4.0704346-5.6984558c0.8518066-2.2094421,1.2789307-4.5930786,1.2789307-7.1516113
					c0-2.7908325-0.505249-5.0970459-1.5118408-6.9193115
					C1034.9256592,364.5764465,1033.510498,363.0652466,1031.6895752,361.8617249z"/>
			</g>
			<g>
				<path class="st1" d="M658.8844604,332.9267273c11.5990601,0,21.8101807,7.4083557,25.4094849,18.4352722l0.2150879,0.6582031
					h5.2985229l-0.354248-1.2206726c-3.9237671-13.5211487-16.4942627-22.9644165-30.5688477-22.9644165
					c-17.5471191,0-31.8224487,14.2753906-31.8224487,31.8224792c0,17.5471191,14.2753296,31.8224792,31.8224487,31.8224792
					c14.074585,0,26.6450806-9.443573,30.5688477-22.964386l0.354248-1.2207031h-5.2985229l-0.2150879,0.6582031
					c-3.5993042,11.0266113-13.8104248,18.4352722-25.4094849,18.4352722c-14.739624,0-26.730896-11.9912109-26.730896-26.7308655
					C632.1535645,344.9182739,644.1448364,332.9267273,658.8844604,332.9267273z"/>
			</g>
			<g>
				<path class="st1" d="M986.302124,359.6575928c0-2.6325989-0.3272705-5.18927-0.9328003-7.6373901h0.0455322
					l-0.3543091-1.2207031c-0.7884521-2.717041-1.9312134-5.265686-3.3600464-7.6098328
					c-0.0098267-0.0162354-0.0198975-0.0323181-0.0297241-0.0484619c-0.2362671-0.3860779-0.4802246-0.7663574-0.7320557-1.1408997
					c-0.0463867-0.0692444-0.0922852-0.1387329-0.1392212-0.2076111c-0.2147217-0.3139954-0.4354248-0.6230774-0.6607666-0.9285583
					c-0.0760498-0.1035461-0.1499634-0.2085876-0.2271729-0.3111877c-0.1757812-0.2322693-0.3577881-0.4591064-0.5395508-0.6862488
					c-4.793396-6.016449-11.7138062-10.2612915-19.6159058-11.5860291c-0.0307007-0.005249-0.0612183-0.011322-0.0919189-0.0164795
					c-0.3099365-0.0509949-0.6219482-0.0949707-0.9348755-0.1369629c-0.1976929-0.0269165-0.395752-0.0525818-0.5944214-0.0757446
					c-0.2444458-0.0281067-0.4891357-0.0543213-0.7352295-0.0768433c-0.2957764-0.0275269-0.5926514-0.0487366-0.8900757-0.0679321
					c-0.1793823-0.0113525-0.3579102-0.0253906-0.5380859-0.0337219c-0.491394-0.0231934-0.984375-0.0378723-1.4797363-0.0378723
					c-0.0020752,0-0.0040283,0.0001831-0.0061035,0.0001831c-0.0020142,0-0.0039673-0.0001831-0.0060425-0.0001831
					c-0.4954224,0-0.9884033,0.014679-1.4797363,0.0378723c-0.1801758,0.0083313-0.3587036,0.0223694-0.5380859,0.0337219
					c-0.2974854,0.0191956-0.5943604,0.0404053-0.8900757,0.0679321c-0.2460938,0.022522-0.4908447,0.0487366-0.7352905,0.0768433
					c-0.1986084,0.0231628-0.3966675,0.0488281-0.5944214,0.0757446c-0.3128662,0.0419922-0.624939,0.085968-0.9348755,0.1369629
					c-0.0307007,0.0051575-0.0611572,0.0112305-0.0918579,0.0164795
					c-7.9020996,1.3247375-14.8225708,5.5695801-19.6159058,11.5860291
					c-0.1818237,0.2271423-0.3637695,0.4539795-0.5395508,0.6862488c-0.0772705,0.1026001-0.1511841,0.2076416-0.2271729,0.3111877
					c-0.2253418,0.305481-0.446106,0.614563-0.6608276,0.9285583c-0.046875,0.0688782-0.0928345,0.1383667-0.1391602,0.2076111
					c-0.2518311,0.3745422-0.4957886,0.7548218-0.7320557,1.1408997c-0.0098877,0.0161438-0.0199585,0.0322266-0.0297852,0.0484619
					c-1.428833,2.3441467-2.5715942,4.8927917-3.3600464,7.6098328l-0.354248,1.2207031h0.0454712
					c-0.6055298,2.4481201-0.9327393,5.0047913-0.9327393,7.6373901c0,2.6325684,0.3272095,5.1892395,0.9327393,7.6373901
					h-0.0454712l0.354248,1.2207031c0.788269,2.716156,1.930603,5.2640991,3.3588257,7.6076355
					c0.0108643,0.0179443,0.0218506,0.0356445,0.0328369,0.0535278c0.2349243,0.3837891,0.477478,0.7617798,0.7277832,1.1341553
					c0.0477905,0.0713806,0.0950928,0.1430969,0.1434326,0.2140808c0.2129517,0.3113403,0.4318848,0.6178589,0.6553345,0.9208069
					c0.0776367,0.1057129,0.1530762,0.2131042,0.2319336,0.3177795c0.1721802,0.2275391,0.350647,0.449646,0.5286255,0.6722717
					c4.7947998,6.0243835,11.7212524,10.2748413,19.6309814,11.5995483c0.0284424,0.0048218,0.0565796,0.010498,0.085022,0.0151978
					c0.31073,0.051178,0.6235352,0.0952759,0.9371948,0.1372986c0.1975098,0.0269165,0.3952637,0.0525208,0.593689,0.0757141
					c0.2444458,0.0281067,0.4891968,0.0543213,0.7352905,0.0768433c0.2957153,0.0274963,0.5925903,0.0487366,0.8900757,0.0679016
					c0.1793823,0.0113831,0.3579102,0.0253906,0.5380859,0.0337524c0.491333,0.0231628,0.984314,0.0378418,1.4797363,0.0378418
					c0.0020752,0,0.0040283-0.0001526,0.0060425-0.0001526c0.0020752,0,0.0040283,0.0001526,0.0061035,0.0001526
					c0.4953613,0,0.9883423-0.014679,1.4797363-0.0378418c0.1801758-0.0083618,0.3587036-0.0223694,0.5380859-0.0337524
					c0.2974243-0.019165,0.5942993-0.0404053,0.8900757-0.0679016c0.2460938-0.022522,0.4907837-0.0487366,0.7352295-0.0768433
					c0.1984253-0.0231934,0.3962402-0.0487976,0.59375-0.0757141c0.3136597-0.0420227,0.6264648-0.0861206,0.9371948-0.1372986
					c0.0284424-0.0046997,0.0565186-0.010376,0.0849609-0.0151978c7.90979-1.324707,14.8362427-5.5751648,19.6309814-11.5995483
					c0.1780396-0.2226257,0.3564453-0.4447327,0.5286255-0.6722717c0.0789185-0.1046753,0.1543579-0.2120667,0.2319336-0.3177795
					c0.2234497-0.302948,0.4424438-0.6094666,0.6553345-0.9208069c0.0484009-0.0709839,0.0956421-0.1427002,0.1434937-0.2140808
					c0.2503052-0.3723755,0.4928589-0.7503662,0.7277832-1.1341553c0.0109253-0.0178833,0.0219116-0.0355835,0.0327759-0.0535278
					c1.4282837-2.3435364,2.5706177-4.8914795,3.3588257-7.6076355l0.3543091-1.2207031h-0.0455322
					C985.9748535,364.8468323,986.302124,362.2901611,986.302124,359.6575928z M979.3642578,369.4002075
					c-0.1837158,0.4676208-0.3796387,0.9287415-0.588562,1.3831177c-0.0860596,0.188446-0.1714478,0.3771667-0.2615356,0.5629883
					c-2.9697266,6.0817871-8.1813965,10.8727112-14.5516968,13.2984924c-0.1720581,0.065033-0.343689,0.1307373-0.517334,0.1922607
					c-0.3156738,0.1127319-0.6326904,0.2223511-0.9536743,0.3233337c-0.4647217,0.1452026-0.9333496,0.2808533-1.4077148,0.4009094
					c-0.2281494,0.0581665-0.4597778,0.1073914-0.6901855,0.159668c-0.4152832,0.0934753-0.833252,0.1787109-1.2549438,0.2525635
					c-0.1710815,0.0301819-0.3405151,0.0648804-0.5126953,0.0917969c-0.579895,0.0899658-1.1657715,0.1586304-1.7557983,0.2106628
					c-0.1613159,0.0144043-0.3235474,0.0256348-0.4857788,0.0371094c-0.619751,0.0434265-1.2425537,0.0739746-1.8713379,0.0744629
					c-0.0091553,0-0.0181885,0.0007019-0.0273438,0.0007019s-0.0181885-0.0007019-0.0273438-0.0007019
					c-0.6287231-0.0004883-1.2515869-0.0310364-1.8713379-0.0744629c-0.1621704-0.0114746-0.3244019-0.0227051-0.4857788-0.0371094
					c-0.5899658-0.0520325-1.1758423-0.120697-1.7557983-0.2106628c-0.1721802-0.0269165-0.3416138-0.061615-0.5126953-0.0917969
					c-0.4216309-0.0738525-0.8395996-0.1590881-1.2549438-0.2525635c-0.2304077-0.0522766-0.4620361-0.1015015-0.6901855-0.159668
					c-0.4743652-0.1200562-0.9429321-0.2557068-1.4077148-0.4009094c-0.3209839-0.1009827-0.6380005-0.2106018-0.9536743-0.3233337
					c-0.173584-0.0615234-0.3452148-0.1272278-0.5172729-0.1922607
					c-6.3703003-2.4257812-11.5819702-7.2167053-14.5517578-13.2984924
					c-0.0900269-0.1858215-0.1754761-0.3745422-0.2615356-0.5629883c-0.2089233-0.4543762-0.4048462-0.9154968-0.588501-1.3831177
					c-0.1265259-0.3237915-0.2492065-0.6498718-0.3638916-0.9805603c-0.9560547-2.7469482-1.4824219-5.6934204-1.4824219-8.7620544
					c0-3.0693054,0.5266113-6.0164185,1.4830933-8.763916c0.1141357-0.328949,0.236145-0.6532898,0.3619385-0.9754639
					c0.1853027-0.4718933,0.3831177-0.9372559,0.5941162-1.3956909c0.0842285-0.1843872,0.1678467-0.3691711,0.2559814-0.5510254
					c2.9699707-6.0838318,8.1832886-10.8765564,14.5558472-13.3022766c0.1704102-0.0643921,0.3405151-0.1294861,0.5124512-0.1903992
					c0.3168945-0.1131897,0.6352539-0.2232361,0.9573975-0.3246155c0.4638672-0.1448669,0.9315186-0.2802429,1.4048462-0.4000244
					c0.2287598-0.0583496,0.4609375-0.1077271,0.6920166-0.1601562c0.4151001-0.0934143,0.8328247-0.1785889,1.2542114-0.2524109
					c0.1710815-0.0302124,0.3405151-0.0648804,0.5126953-0.0917969c0.579834-0.0899353,1.1656494-0.1585999,1.7555542-0.2106628
					c0.1617432-0.0144043,0.3243408-0.0256042,0.4868774-0.0370789c0.6194458-0.043396,1.2419434-0.0739746,1.8704224-0.0744629
					c0.0091553,0,0.0182495-0.0007019,0.0274048-0.0007019s0.0182495,0.0007019,0.0274048,0.0007019
					c0.628479,0.0004883,1.2509766,0.0310669,1.8704224,0.0744629c0.1625977,0.0114746,0.3251343,0.0226746,0.4868774,0.0370789
					c0.5899658,0.052063,1.1757202,0.1207275,1.7555542,0.2106628c0.1721802,0.0269165,0.3416138,0.0615845,0.5126953,0.0917969
					c0.4213867,0.073822,0.8391724,0.1589966,1.2542725,0.2524109c0.2310791,0.0524292,0.4631958,0.1018066,0.6919556,0.1601562
					c0.4733887,0.1197815,0.94104,0.2551575,1.4048462,0.4000244c0.3221436,0.1013794,0.640564,0.2114258,0.9573975,0.3246155
					c0.171936,0.0609131,0.342041,0.1260071,0.5125122,0.1903992c6.3724976,2.4257202,11.5858765,7.2184448,14.5558472,13.3022766
					c0.0880737,0.1818542,0.1716919,0.3666382,0.2559814,0.5510254c0.2109985,0.4584351,0.4087524,0.9237976,0.5940552,1.3956909
					c0.1257935,0.3221741,0.2478638,0.6465149,0.3619385,0.9754639c0.9564819,2.7474976,1.4830933,5.6946106,1.4830933,8.763916
					c0,3.068634-0.5263062,6.0151062-1.4823608,8.7620544C979.6134033,368.7503357,979.4907837,369.076416,979.3642578,369.4002075z
					"/>
			</g>
			<g>
				<path class="st1" d="M916.7852783,359.6565552c0-2.6351929-0.3283081-5.1905518-0.9316406-7.6394348h0.0443726
					l-0.3549194-1.2155762c-0.7897339-2.7150574-1.9342651-5.2704163-3.362793-7.612854
					c-0.0088501-0.0177612-0.0177612-0.0354614-0.0266113-0.044342c-0.239563-0.3904114-0.479126-0.7719421-0.7364502-1.1445923
					c-0.0443726-0.0709839-0.0887451-0.1419678-0.1331177-0.2041016c-0.2218018-0.319397-0.4436035-0.6299133-0.6654053-0.9316101
					c-0.079895-0.1064758-0.1508789-0.204071-0.2307129-0.3105469c-0.1685791-0.2306824-0.3549194-0.4613953-0.5323486-0.6832275
					c-4.8002319-6.0157471-11.7209473-10.2657776-19.6176758-11.5878296
					c-0.0355225-0.0088806-0.0621338-0.0088806-0.0976562-0.0177612c-0.3016357-0.0532227-0.6210327-0.0975952-0.9316406-0.1330566
					c-0.1951904-0.0355225-0.3903809-0.0532227-0.5944824-0.0798645c-0.239563-0.0266113-0.4879761-0.0532532-0.7364502-0.079895
					c-0.2927856-0.0265808-0.5944214-0.044342-0.8872681-0.0620728c-0.1774292-0.0177612-0.3548584-0.0266418-0.5411987-0.0355225
					c-0.4880371-0.0265808-0.9848633-0.0354614-1.4729004-0.0354614c-0.0088501,0-0.0088501,0-0.0088501,0h-0.0089111
					c-0.4968262,0-0.9848633,0.0088806-1.4817505,0.0354614c-0.1774292,0.0088806-0.3549194,0.0177612-0.5323486,0.0355225
					c-0.3016357,0.0177307-0.5944824,0.0354919-0.8961792,0.0620728c-0.239502,0.0266418-0.4879761,0.0532837-0.7275391,0.079895
					c-0.2041016,0.0266418-0.399231,0.044342-0.5944824,0.0798645c-0.319397,0.0354614-0.6300049,0.079834-0.9404907,0.1330566
					c-0.0266113,0.0088806-0.0621338,0.0088806-0.0887451,0.0177612c-1.3664551,0.2307129-2.6973267,0.5501099-4.0015869,0.9494019
					c-6.2287598,1.8898926-11.6499634,5.6608276-15.6161499,10.6384277
					c-0.1774292,0.2218323-0.3637695,0.4525452-0.5411987,0.6832275c-0.0709839,0.1064758-0.1508179,0.204071-0.2218628,0.3105469
					c-0.2306519,0.3016968-0.4525146,0.6122131-0.6654053,0.9316101c-0.0443726,0.0621338-0.0887451,0.1331177-0.1419678,0.2041016
					c-0.2041016,0.3016663-0.399292,0.6121826-0.5944824,0.9316406v-11.9249878h-4.7647095v75.3919067h4.7647095v-30.0165405
					c0.1951904,0.3105164,0.3903809,0.6299133,0.5944824,0.9316101c0.0532227,0.0709534,0.0975952,0.1419373,0.1419678,0.2129517
					c0.2128906,0.3105164,0.4347534,0.6122131,0.6565552,0.9227295c0.079895,0.1064758,0.1508789,0.2129517,0.2307129,0.3105774
					c0.1774292,0.2306519,0.3549194,0.4524841,0.5324097,0.6742859c2.6262817,3.3007202,5.8914795,6.0690002,9.6002808,8.1008606
					c3.0788574,1.7036133,6.4505005,2.9013977,10.0262451,3.5047607c0.0354614,0,0.0621338,0.0088806,0.0887451,0.0088806
					c0.3104858,0.0532227,0.6210938,0.0975952,0.9404907,0.1419373c0.1952515,0.0266418,0.3903809,0.0532837,0.5944824,0.0709839
					c0.239563,0.0266418,0.4880371,0.0532532,0.7275391,0.079895c0.3016968,0.0265808,0.5945435,0.044342,0.8961792,0.0709229
					c0.1774292,0.0089111,0.3549194,0.0177917,0.5323486,0.0266724c0.4968872,0.0266418,0.9849243,0.044342,1.4817505,0.044342
					h0.0089111c0,0,0,0,0.0088501,0c0.4880371,0,0.9848633-0.0177002,1.4729004-0.044342
					c0.1863403-0.0088806,0.3637695-0.0177612,0.5411987-0.0266724c0.2928467-0.0265808,0.5944824-0.044342,0.8872681-0.0709229
					c0.2484741-0.0266418,0.4968872-0.0532532,0.7364502-0.079895c0.1951904-0.0177002,0.399292-0.044342,0.5944824-0.0709839
					c0.3106079-0.044342,0.6300049-0.0887146,0.9404907-0.1419373c0.0266724,0,0.0532837-0.0088806,0.079895-0.0088806
					c7.9144897-1.3309326,14.8352661-5.5809631,19.635437-11.6056213c0.1774292-0.2218018,0.3549194-0.443634,0.5234985-0.6742859
					c0.079834-0.0976257,0.159668-0.2041016,0.2307129-0.3105774c0.2306519-0.3105164,0.4436035-0.6122131,0.6565552-0.9227295
					c0.0532227-0.0710144,0.0975952-0.1419983,0.1419678-0.2129517c0.2573242-0.3726807,0.4968872-0.7542114,0.7364502-1.1357422
					c0.0088501-0.0177002,0.0177612-0.0354614,0.0266113-0.0532227c1.4285278-2.3424377,2.5730591-4.888916,3.362793-7.612854
					l0.3549194-1.2155762h-0.0443726C916.4569702,364.847168,916.7852783,362.2918091,916.7852783,359.6565552z
					 M910.2105103,368.4228516c-0.1153564,0.3283081-0.239502,0.6565857-0.3637695,0.9759827
					c-0.1863403,0.4702759-0.3815308,0.9317017-0.5944214,1.3841553c-0.079895,0.1863403-0.1685791,0.3815918-0.2573853,0.5589905
					c-2.9723511,6.0867615-8.1806641,10.8780212-14.5512695,13.3003235
					c-0.1686401,0.0709534-0.3460693,0.1330566-0.5146484,0.1951904c-0.319397,0.1153564-0.638855,0.2218018-0.958313,0.319397
					c-0.4613037,0.1508789-0.9315796,0.2839355-1.4107056,0.4081726c-0.2218018,0.0532227-0.4525146,0.1064758-0.6832275,0.1596985
					c-0.4169922,0.0887146-0.8340454,0.1774597-1.2599487,0.2484741c-0.1685791,0.0265808-0.3371582,0.0620422-0.5145874,0.0886841
					c-0.5767822,0.0975952-1.1623535,0.159729-1.7479248,0.2129517c-0.0355225,0-0.0709839,0.0088806-0.0976562,0.0088806
					c-0.1330566,0.0088806-0.2661743,0.0177612-0.3903809,0.0265808c-0.6210938,0.0444031-1.2421875,0.079895-1.8721313,0.079895
					h-0.0532837c-0.6299438,0-1.2510376-0.0354919-1.8721313-0.079895c-0.159668-0.0088196-0.3282471-0.0177002-0.4879761-0.0354614
					c-0.5856323-0.0532227-1.1712036-0.1153564-1.7568359-0.2129517c-0.1685791-0.0266418-0.3371582-0.0621033-0.5145874-0.0886841
					c-0.4170532-0.0710144-0.8340454-0.1597595-1.2510986-0.2484741c-0.2307129-0.0532227-0.4614258-0.1064758-0.6920166-0.1596985
					c-0.4703369-0.1242371-0.9405518-0.2572937-1.4019165-0.4081726c-0.3283081-0.0975952-0.638916-0.2040405-0.958313-0.319397
					c-0.1419067-0.0443726-0.2661743-0.0975952-0.399292-0.1508179c-0.0354614-0.0088806-0.079834-0.0266418-0.1153564-0.0443726
					c-6.3706055-2.4223022-11.5878296-7.213562-14.5512695-13.3003235
					c-0.0888062-0.1773987-0.1774902-0.3726501-0.2661743-0.5589905c-0.2041016-0.4524536-0.399292-0.9138794-0.5856323-1.3841553
					c-0.1242676-0.319397-0.2484131-0.6476746-0.3637695-0.9759827c-0.958313-2.7505188-1.4817505-5.6962891-1.4817505-8.7662964
					s0.5234375-6.0157166,1.4817505-8.7662964c0.1153564-0.3283081,0.239502-0.6477051,0.3637695-0.9759827
					c0.1863403-0.4702759,0.3815308-0.9316406,0.5944824-1.3930359c0.079834-0.1863403,0.1685181-0.3638306,0.2573242-0.5501099
					c2.9634399-6.0867004,8.1806641-10.8780212,14.5512695-13.3002625c0.1685791-0.0621338,0.3372192-0.1331177,0.5146484-0.1952515
					c0.319397-0.1064758,0.6300049-0.2218018,0.958313-0.319397c0.4613647-0.1508179,0.9315796-0.2839355,1.4019165-0.399292
					c0.2305908-0.0621033,0.4613037-0.1064758,0.6920166-0.1596985c0.4170532-0.0975952,0.8340454-0.1774597,1.2510986-0.2572937
					c0.1064453-0.0177612,0.2040405-0.0355225,0.3016357-0.0532227c0.0709839-0.0088806,0.1419678-0.0266418,0.2129517-0.0355225
					c0.5856323-0.0887146,1.1712036-0.159729,1.7568359-0.2129517c0.159729-0.0177612,0.3283081-0.0265808,0.4879761-0.0354614
					c0.6210938-0.0443726,1.2421875-0.0710144,1.8721313-0.0710144c0.0089111,0,0.0177612-0.0088806,0.0266724-0.0088806
					c0.0088501,0,0.0177002,0.0088806,0.0266113,0.0088806c0.6299438,0,1.2510376,0.0266418,1.8721313,0.0710144
					c0.159668,0.0088806,0.319458,0.0177002,0.4880371,0.0354614c0.5855713,0.0532227,1.1711426,0.1242371,1.7479248,0.2129517
					c0.1774292,0.0266418,0.3460083,0.0621033,0.5145874,0.0887451c0.4259033,0.079834,0.8429565,0.1596985,1.2599487,0.2572937
					c0.1153564,0.0266418,0.2218018,0.0532227,0.3371582,0.0798645h0.0089111
					c0.1153564,0.0266113,0.2306519,0.0443726,0.3460083,0.079834c0.4702759,0.1153564,0.9405518,0.2484741,1.4018555,0.399292
					c0.319458,0.0975952,0.638916,0.2129211,0.958313,0.319397c0.1685791,0.0621338,0.3371582,0.1331177,0.5146484,0.1952515
					c6.3706055,2.4222412,11.5789185,7.213562,14.5512695,13.3002625c0.0888062,0.1862793,0.1685791,0.3637695,0.2573853,0.5501099
					c0.2128906,0.4613953,0.4080811,0.92276,0.5944214,1.3930359c0.1242676,0.3282776,0.2484131,0.6476746,0.3637695,0.9759827
					c0.9494019,2.7505798,1.4818115,5.6962891,1.4818115,8.7662964S911.1688232,365.6723328,910.2105103,368.4228516z"/>
			</g>
			<g>
				<path class="st1" d="M758.2719116,359.6575928c0-2.6325989-0.3272705-5.18927-0.9328003-7.6373901h0.0454712
					l-0.354248-1.2207031c-0.7884521-2.717041-1.9312134-5.265686-3.3600464-7.6098328
					c-0.0098267-0.0162354-0.0198975-0.0323181-0.0297241-0.0484619c-0.2363281-0.3860779-0.4802856-0.7663574-0.7321167-1.1408997
					c-0.0463257-0.0692444-0.0922852-0.1387329-0.1391602-0.2076111c-0.2147217-0.3139954-0.4354858-0.6230774-0.6608276-0.9285583
					c-0.0759888-0.1035461-0.1499023-0.2085876-0.2271729-0.3111877c-0.1757812-0.2322693-0.3577271-0.4591064-0.5395508-0.6862488
					c-4.793335-6.016449-11.7138062-10.2612915-19.6158447-11.5860291c-0.0307617-0.005249-0.0612183-0.011322-0.0919189-0.0164795
					c-0.3099365-0.0509949-0.6220093-0.0949707-0.9348755-0.1369629c-0.1977539-0.0269165-0.395752-0.0525818-0.5944214-0.0757446
					c-0.2444458-0.0281067-0.4891968-0.0543213-0.7352905-0.0768433c-0.2957153-0.0275269-0.5925903-0.0487366-0.8900757-0.0679321
					c-0.1793213-0.0113525-0.3579102-0.0253906-0.5380859-0.0337219c-0.491333-0.0231934-0.984314-0.0378723-1.4797363-0.0378723
					c-0.0020142,0-0.0039673,0.0001831-0.0060425,0.0001831s-0.0040283-0.0001831-0.0061035-0.0001831
					c-0.4953613,0-0.9883423,0.014679-1.4796753,0.0378723c-0.1801758,0.0083313-0.3587646,0.0223694-0.5380859,0.0337219
					c-0.2974854,0.0191956-0.5943604,0.0404053-0.8901367,0.0679321c-0.2460938,0.022522-0.4907837,0.0487366-0.7352295,0.0768433
					c-0.1986694,0.0231628-0.3967285,0.0488281-0.5944214,0.0757446c-0.3129272,0.0419922-0.624939,0.085968-0.9348755,0.1369629
					c-0.0307007,0.0051575-0.0612183,0.0112305-0.0919189,0.0164795
					c-7.9020996,1.3247375-14.8225098,5.5695801-19.6159058,11.5860291
					c-0.1817627,0.2271423-0.3637695,0.4539795-0.5395508,0.6862488c-0.0772095,0.1026001-0.151123,0.2076416-0.2271729,0.3111877
					c-0.2253418,0.305481-0.4460449,0.614563-0.6607666,0.9285583c-0.046936,0.0688782-0.0928345,0.1383667-0.1392212,0.2076111
					c-0.2518311,0.3745422-0.4957886,0.7548218-0.7320557,1.1408997c-0.0098267,0.0161438-0.0198975,0.0322266-0.0297241,0.0484619
					c-1.428833,2.3441467-2.5715942,4.8927917-3.3600464,7.6098328l-0.3543091,1.2207031h0.0455322
					c-0.6055298,2.4481201-0.9328003,5.0047913-0.9328003,7.6373901c0,2.6325684,0.3272705,5.1892395,0.9328003,7.6373901
					h-0.0455322l0.3543091,1.2207031c0.788208,2.716156,1.930542,5.2640991,3.3588257,7.6076355
					c0.0108643,0.0179443,0.0218506,0.0356445,0.0327759,0.0535278c0.2349243,0.3837891,0.477478,0.7617798,0.7277832,1.1341553
					c0.0478516,0.0713806,0.0950928,0.1430969,0.1434937,0.2140808c0.2129517,0.3113403,0.4318848,0.6178589,0.6553345,0.9208069
					c0.0775757,0.1057129,0.1530151,0.2131042,0.2319336,0.3177795c0.1721802,0.2275391,0.3505859,0.449646,0.5286255,0.6722717
					c4.7947388,6.0243835,11.7211914,10.2748413,19.6309814,11.5995483c0.0284424,0.0048218,0.0565186,0.010498,0.0849609,0.0151978
					c0.31073,0.051178,0.6235352,0.0952759,0.9371948,0.1372986c0.1975098,0.0269165,0.3953247,0.0525208,0.59375,0.0757141
					c0.2444458,0.0281067,0.4891357,0.0543213,0.7352295,0.0768433c0.2957764,0.0274963,0.5926514,0.0487366,0.8901367,0.0679016
					c0.1793213,0.0113831,0.3579102,0.0253906,0.5380859,0.0337524c0.491333,0.0231628,0.984314,0.0378418,1.4796753,0.0378418
					c0.0020752,0,0.0040283-0.0001526,0.0061035-0.0001526s0.0040283,0.0001526,0.0060425,0.0001526
					c0.4954224,0,0.9884033-0.014679,1.4797363-0.0378418c0.1801758-0.0083618,0.3587646-0.0223694,0.5380859-0.0337524
					c0.2974854-0.019165,0.5943604-0.0404053,0.8900757-0.0679016c0.2460938-0.022522,0.4908447-0.0487366,0.7352905-0.0768433
					c0.1984253-0.0231934,0.3961792-0.0487976,0.593689-0.0757141c0.3136597-0.0420227,0.6264648-0.0861206,0.9371948-0.1372986
					c0.0284424-0.0046997,0.0565796-0.010376,0.085022-0.0151978c7.90979-1.324707,14.8361816-5.5751648,19.6309814-11.5995483
					c0.1780396-0.2226257,0.3564453-0.4447327,0.5286255-0.6722717c0.0789185-0.1046753,0.1542969-0.2120667,0.2319336-0.3177795
					c0.2234497-0.302948,0.4423828-0.6094666,0.6553345-0.9208069c0.0483398-0.0709839,0.0956421-0.1427002,0.1434326-0.2140808
					c0.2503052-0.3723755,0.4928589-0.7503662,0.7277832-1.1341553c0.0109863-0.0178833,0.0219727-0.0355835,0.0328369-0.0535278
					c1.4282227-2.3435364,2.5705566-4.8914795,3.3588257-7.6076355l0.354248-1.2207031h-0.0454712
					C757.9446411,364.8468323,758.2719116,362.2901611,758.2719116,359.6575928z M751.3340454,369.4002075
					c-0.1837158,0.4676208-0.3796387,0.9287415-0.588562,1.3831177c-0.0860596,0.188446-0.1715088,0.3771667-0.2615356,0.5629883
					c-2.9697876,6.0817871-8.1814575,10.8727112-14.5517578,13.2984924c-0.1720581,0.065033-0.343689,0.1307373-0.5172729,0.1922607
					c-0.3156738,0.1127319-0.6326904,0.2223511-0.9536743,0.3233337c-0.4647827,0.1452026-0.9333496,0.2808533-1.4077148,0.4009094
					c-0.2281494,0.0581665-0.4597778,0.1073914-0.6901855,0.159668c-0.4153442,0.0934753-0.833313,0.1787109-1.2549438,0.2525635
					c-0.1710815,0.0301819-0.3405151,0.0648804-0.5126953,0.0917969c-0.5799561,0.0899658-1.1657715,0.1586304-1.7557983,0.2106628
					c-0.161377,0.0144043-0.3236084,0.0256348-0.4857788,0.0371094c-0.619751,0.0434265-1.2426147,0.0739746-1.8713379,0.0744629
					c-0.0091553,0-0.0181885,0.0007019-0.0273438,0.0007019s-0.0181885-0.0007019-0.0273438-0.0007019
					c-0.6287842-0.0004883-1.2515869-0.0310364-1.8713379-0.0744629c-0.1621704-0.0114746-0.3244629-0.0227051-0.4857788-0.0371094
					c-0.5900269-0.0520325-1.1758423-0.120697-1.7557983-0.2106628c-0.1721802-0.0269165-0.3416138-0.061615-0.5126953-0.0917969
					c-0.4216309-0.0738525-0.8395996-0.1590881-1.2549438-0.2525635c-0.2304077-0.0522766-0.4620361-0.1015015-0.6901855-0.159668
					c-0.4743652-0.1200562-0.9429932-0.2557068-1.4077148-0.4009094c-0.3209839-0.1009827-0.6380005-0.2106018-0.9536743-0.3233337
					c-0.173645-0.0615234-0.3452759-0.1272278-0.5172729-0.1922607
					c-6.3703613-2.4257812-11.5820312-7.2167053-14.5517578-13.2984924
					c-0.0900879-0.1858215-0.1754761-0.3745422-0.2615356-0.5629883c-0.2089233-0.4543762-0.4048462-0.9154968-0.588562-1.3831177
					c-0.1265259-0.3237915-0.2491455-0.6498718-0.3638306-0.9805603c-0.9560547-2.7469482-1.4824219-5.6934204-1.4824219-8.7620544
					c0-3.0693054,0.5266113-6.0164185,1.4830933-8.763916c0.1141357-0.328949,0.236145-0.6532898,0.3619385-0.9754639
					c0.1853027-0.4718933,0.3830566-0.9372559,0.5940552-1.3956909c0.0842896-0.1843872,0.1679077-0.3691711,0.2559814-0.5510254
					c2.9699707-6.0838318,8.1833496-10.8765564,14.5559082-13.3022766c0.1704102-0.0643921,0.3405151-0.1294861,0.5124512-0.1903992
					c0.3168335-0.1131897,0.6352539-0.2232361,0.9573975-0.3246155c0.4638672-0.1448669,0.9314575-0.2802429,1.4048462-0.4000244
					c0.2287598-0.0583496,0.4609375-0.1077271,0.6920166-0.1601562c0.4151001-0.0934143,0.8328247-0.1785889,1.2542114-0.2524109
					c0.1710815-0.0302124,0.3405151-0.0648804,0.5126953-0.0917969c0.579834-0.0899353,1.1655884-0.1585999,1.7555542-0.2106628
					c0.1617432-0.0144043,0.3242798-0.0256042,0.4868774-0.0370789c0.6194458-0.043396,1.2419434-0.0739746,1.8704224-0.0744629
					c0.0091553,0,0.0182495-0.0007019,0.0274048-0.0007019s0.0182495,0.0007019,0.0274048,0.0007019
					c0.628479,0.0004883,1.2509766,0.0310669,1.8704224,0.0744629c0.1625366,0.0114746,0.3251343,0.0226746,0.4868774,0.0370789
					c0.5899048,0.052063,1.1757202,0.1207275,1.7555542,0.2106628c0.1721802,0.0269165,0.3416138,0.0615845,0.5126953,0.0917969
					c0.4213867,0.073822,0.8391113,0.1589966,1.2542114,0.2524109c0.2310791,0.0524292,0.4632568,0.1018066,0.6920166,0.1601562
					c0.4733276,0.1197815,0.940979,0.2551575,1.4048462,0.4000244c0.3221436,0.1013794,0.6405029,0.2114258,0.9573975,0.3246155
					c0.171936,0.0609131,0.342041,0.1260071,0.5124512,0.1903992c6.3725586,2.4257202,11.5858765,7.2184448,14.5558472,13.3022766
					c0.0881348,0.1818542,0.1717529,0.3666382,0.2560425,0.5510254c0.2109375,0.4584351,0.4087524,0.9237976,0.5940552,1.3956909
					c0.1257935,0.3221741,0.2478027,0.6465149,0.3619385,0.9754639c0.9564819,2.7474976,1.4830933,5.6946106,1.4830933,8.763916
					c0,3.068634-0.5263672,6.0151062-1.4824219,8.7620544C751.5831909,368.7503357,751.4605103,369.076416,751.3340454,369.4002075z
					"/>
			</g>
			<g>
				<path class="st1" d="M845.7941895,350.3138733c0-0.4672546-0.0194702-0.953949-0.048645-1.4211426
					c-0.0584106-0.8468323-0.1655273-1.7131653-0.3309326-2.5502625h0.1167603l-0.5742188-1.9856567
					c-0.5159302-1.7910461-1.2849121-3.5333557-2.2874756-5.1589355c-0.1557617-0.2530212-0.321228-0.5061035-0.5158691-0.8078613
					l-0.0681763-0.0973816c-0.1362915-0.2141113-0.2919922-0.4282837-0.4379883-0.6229553l-0.1654663-0.2141113
					c-0.1071167-0.1557312-0.2335815-0.3114929-0.3601685-0.4574585c-3.3095093-4.1563416-8.0206299-6.930481-13.2670898-7.8162537
					c-0.2044067-0.0292053-0.4088745-0.0583801-0.6229858-0.087616l-0.3990479-0.048645
					c-0.1655273-0.0194397-0.3309937-0.0389404-0.49646-0.0486755c-0.1946411-0.0194702-0.3893433-0.0389099-0.6034546-0.048645
					l-0.3504639-0.0292358c-0.6716309-0.0291748-1.3432617-0.0291748-2.0148926,0.0097351l-0.3504028,0.0195007
					c-0.2044067,0.0097351-0.3990479,0.0291748-0.6035156,0.048645c-0.1654053,0.0097351-0.3308716,0.0292358-0.4963989,0.0486755
					l-0.3990479,0.048645c-0.2044678,0.0292358-0.4185791,0.0584106-0.6813965,0.1071167
					c-5.2075195,0.866272-9.899231,3.6501465-13.2476196,7.8453979c-0.1070557,0.1362305-0.223877,0.2627869-0.3309937,0.4185486
					l-0.1459351,0.2043762c-0.1460571,0.1946716-0.3017578,0.408844-0.4478149,0.6229553l-0.0875854,0.1362915
					c-0.1265259,0.1752014-0.2336426,0.3504028-0.3504028,0.545105c-0.0681763,0.0778809-0.1070557,0.1654358-0.1654663,0.2628174
					c-0.1070557,0.1752014-0.2141724,0.3504028-0.3115234,0.5353394c-0.2044067-0.3893738-0.4185181-0.7689209-0.6520996-1.1388245
					c-0.1654663-0.2530823-0.321228-0.5061646-0.5159302-0.8079224l-0.0681763-0.0973206
					c-0.1459351-0.2141724-0.2919922-0.4185791-0.4476929-0.6229553l-0.1557617-0.2141724
					c-0.1168213-0.1459656-0.2335815-0.3114929-0.3601685-0.4477234c-3.3094482-4.1563416-8.0205688-6.9304199-13.2670898-7.8162231
					c-0.2044067-0.0291748-0.4185791-0.0584106-0.6326904-0.0875854l-0.3991089-0.0583801
					c-0.1557007-0.0195007-0.3308716-0.0390015-0.4866943-0.0487366c-0.1946411-0.0194092-0.3990479-0.0389099-0.6034546-0.048645
					l-0.3601685-0.0195007c-0.6716309-0.0291748-1.3334961-0.0291748-2.005127,0l-0.3601685,0.0195007
					c-0.1947021,0.0097351-0.3990479,0.0292358-0.6034546,0.048645c-0.1558228,0.0097351-0.3309937,0.0292358-0.4866943,0.0487366
					l-0.3991089,0.0583801c-0.2044067,0.0291748-0.4282227,0.0584106-0.6911011,0.1070557
					c-4.750061,0.7884521-9.0621338,3.1634827-12.322937,6.7649841v-6.9985657
					c-1.7423096-0.0389709-3.4846802-0.0584106-5.2270508-0.0681458v17.7348633v11.2522278v0.2919922h-0.0584106
					l0.0584106,0.2044373v32.1237183h5.2270508v-21.9519348v-10.8531799v-10.911499
					c0.1167603-0.4964294,0.2530518-0.9928589,0.4185791-1.4892883c0.0291748-0.0973206,0.0584106-0.1946716,0.0875854-0.2919922
					c0-0.0097351,0.0097656-0.0195007,0.0097656-0.0292358c0.0681152-0.1946106,0.1459961-0.3893127,0.2238159-0.59375
					c0.1070557-0.2822571,0.2336426-0.5645752,0.3504028-0.8468323l0.1655273-0.3309021
					c1.8201904-3.737793,4.973938-6.618988,8.8771973-8.1082458l0.2919922-0.1070557
					c0.1849365-0.0583801,0.3796387-0.1265259,0.5743408-0.1946716c0.2822266-0.0876465,0.5645142-0.1654663,0.8565674-0.2336121
					c0.09729-0.0292358,0.2043457-0.0584106,0.3114014-0.0778809l0.1071167-0.0292358
					c0.2530518-0.0583801,0.5061035-0.1070557,0.7689819-0.1459656l0.3114624-0.0584106
					c0.3504028-0.0583801,0.7008057-0.0973511,1.0512695-0.1265259l0.3017578-0.0292358
					c0.3795166-0.0291748,0.7591553-0.048645,1.1679688-0.048645c0.3894043,0,0.769043,0.0194702,1.2265015,0.0583801
					l0.223877,0.0195007c0.3504028,0.0291748,0.7008057,0.0681458,1.0512085,0.1265259l0.321228,0.0584106
					c0.2531128,0.0389099,0.5061646,0.0875854,0.7689819,0.1459656l0.0973511,0.0292358
					c0.1070557,0.0194702,0.2141113,0.048645,0.321228,0.0778809c0.2822266,0.0681458,0.5645142,0.1459656,0.8468018,0.2336121
					c0.2044067,0.0681458,0.3893433,0.1362915,0.5742798,0.1946716l0.321228,0.1265564
					c3.8934937,1.4697571,7.027771,4.3509521,8.8479614,8.07901l0.1655273,0.3406372
					c0.1265259,0.2822571,0.2433472,0.5645752,0.3504028,0.8468323c0.0778809,0.2044373,0.1557007,0.3991394,0.2335815,0.59375
					c0.4866943,1.4016724,0.7786865,2.8617249,0.866333,4.331543v0.048645
					c-0.048645,0.5061951-0.0681763,1.0026245-0.0681763,1.5087891c0,0.3114929,0.0097656,0.6132202,0.0292358,0.9246521
					c0,0.2141724,0.0194702,0.4282837,0.0389404,0.6424561v15.7297363v22.7209473h5.2172852v-22.0784912v-15.973114v-3.9324341
					c0.1265259-1.0317688,0.3504028-2.0440674,0.6813354-3.0369263c0.0291748-0.1070557,0.0584106-0.2044373,0.0973511-0.2919922
					c0-0.0097351,0.0097046-0.0195007,0.0097046-0.0292358c0.0681763-0.2043762,0.1362915-0.3990479,0.2141724-0.59375
					c0.1168213-0.2822571,0.2336426-0.5645752,0.3601685-0.8565674l0.1557007-0.321228
					c1.8201904-3.747467,4.9837036-6.6286926,8.8869629-8.1179199l0.2822266-0.0973816
					c0.1849365-0.0681458,0.3894043-0.1362305,0.5743408-0.2043762c0.2822266-0.0778809,0.5645752-0.1654968,0.8565674-0.2335815
					c0.1070557-0.0292358,0.2141113-0.0584717,0.3114624-0.0778809l0.1168213-0.0195007
					c0.2433472-0.0584106,0.4963989-0.1070557,0.7592163-0.1557007l0.3114624-0.0584106
					c0.3504639-0.0584106,0.7106323-0.087616,1.0610352-0.1167908l0.3016968-0.0292358
					c0.3796387-0.0291748,0.7495117-0.048645,1.1680908-0.048645c0.3892822,0,0.7592163,0.0194702,1.2264404,0.0583801
					l0.2141113,0.0195007c0.3601685,0.0291748,0.7105713,0.0583801,1.0610352,0.1167908l0.321167,0.0584106
					c0.2530518,0.048645,0.5061646,0.09729,0.7592773,0.1557007l0.1070557,0.0195007
					c0.09729,0.0194092,0.2044067,0.048645,0.321228,0.0778809c0.2822266,0.0680847,0.5645142,0.1557007,0.8468018,0.2335815
					c0.1947021,0.0681458,0.3893433,0.1362305,0.5742798,0.2043762l0.321228,0.1168213
					c3.883728,1.4697876,7.027771,4.3510132,8.8480225,8.0887451l0.1557007,0.3309631
					c0.1362915,0.2919922,0.2433472,0.5743103,0.3601074,0.8565674c0.0779419,0.1947021,0.1460571,0.3893738,0.223938,0.59375
					c0.59375,1.7131653,0.8955078,3.5138855,0.8955078,5.3244019c0,0.3406677-0.0097656,0.6813049-0.0390015,1.0220337
					c-0.0096436,0-0.0096436,0-0.0194092,0v0.3406677v16.5279541v22.1271362h5.2269897v-38.8497925h-0.0291748
					C845.7844849,351.0925598,845.7941895,350.703186,845.7941895,350.3138733z"/>
			</g>
			<path class="st1" d="M1105.9793701,362.5845642c0.0710449-0.8340454,0.1064453-1.685791,0.1064453-2.5464783
				c0-0.8606567-0.0354004-1.7124329-0.1064453-2.5464783c-0.1330566-1.7390442-0.4169922-3.4426575-0.8251953-5.0929871h0.0444336
				l-0.3549805-1.2244263c-0.7896729-2.7150879-1.9342041-5.2615662-3.362793-7.6039734
				c-0.0087891-0.0177002-0.0177002-0.0354919-0.0266113-0.0532532c-0.239502-0.3815002-0.479126-0.763031-0.7364502-1.1356812
				c-0.0443115-0.0709839-0.088623-0.1419983-0.1330566-0.2129822c-0.2218018-0.3105164-0.4348145-0.6210632-0.6654053-0.92276
				c-0.0710449-0.1064453-0.1508789-0.2129211-0.2219238-0.3105164c-0.1773682-0.2395935-0.3637695-0.4613953-0.5411377-0.6921082
				c-4.7912598-6.0157166-11.7121582-10.2569275-19.6176758-11.578949
				c-0.0267334-0.0088806-0.0621338-0.0177612-0.0887451-0.0177612c-0.3105469-0.0532532-0.6210938-0.0975952-0.9405518-0.1419373
				c-0.1951904-0.0266418-0.3903809-0.0532532-0.5944824-0.0710144c-0.239502-0.0265808-0.4880371-0.0532227-0.7364502-0.0798035
				c-0.2927246-0.0266418-0.5855713-0.0444031-0.887207-0.0710144c-0.1774902-0.0088806-0.3549805-0.0177612-0.5412598-0.0266418
				c-0.4880371-0.0265808-0.9760742-0.044342-1.4729004-0.044342c-0.0089111,0-0.0089111,0-0.0089111,0s0,0-0.0089111,0
				c-0.4968262,0-0.9848633,0.0177612-1.4727783,0.044342c-0.1864014,0.0088806-0.3638916,0.0177612-0.5412598,0.0266418
				c-0.3016357,0.0266113-0.5944824,0.0443726-0.8873291,0.0710144c-0.2484131,0.0265808-0.4968262,0.0532227-0.7364502,0.0798035
				c-0.2041016,0.0177612-0.3991699,0.0443726-0.5944824,0.0710144c-0.3193359,0.044342-0.6298828,0.0886841-0.9404297,0.1419373
				c-0.0266113,0-0.0621338,0.0088806-0.0887451,0.0177612c-7.9056396,1.3220215-14.826416,5.5632324-19.6176758,11.578949
				c-0.1774902,0.2307129-0.3638916,0.4525146-0.5412598,0.6921082c-0.0710449,0.0975952-0.1508789,0.204071-0.2218018,0.3105164
				c-0.2307129,0.3016968-0.4436035,0.6122437-0.6655273,0.92276c-0.0443115,0.0709839-0.0887451,0.1419983-0.1330566,0.2129822
				c-0.2573242,0.3726501-0.4968262,0.7541809-0.7364502,1.1356812c-0.0089111,0.0177612-0.0177002,0.035553-0.0266113,0.0532532
				c-1.4285889,2.3424072-2.5731201,4.8888855-3.362793,7.6039734l-0.3548584,1.2244263h0.0443115
				c-0.4082031,1.6503296-0.6921387,3.3539429-0.8251953,5.0929871c-0.0709229,0.8340454-0.1064453,1.6858215-0.1064453,2.5464783
				c0,0.8606873,0.0355225,1.7124329,0.1064453,2.5464783c0.1330566,1.7390747,0.4169922,3.442627,0.8251953,5.0929565h-0.0443115
				l0.3548584,1.2156067c0.7896729,2.7150879,1.9342041,5.2615662,3.362793,7.6128235
				c0.0089111,0.0177612,0.0177002,0.0355225,0.0266113,0.0532227c0.239624,0.3815308,0.479126,0.7542114,0.7275391,1.1268616
				c0.0532227,0.0709839,0.0976562,0.1508179,0.1508789,0.2218323c0.2130127,0.3105164,0.4259033,0.6122131,0.6477051,0.9139099
				c0.079834,0.1064758,0.159668,0.2129211,0.239502,0.319397c0.1685791,0.2307129,0.3460693,0.4525146,0.5235596,0.6743469
				c4.7912598,6.0245972,11.7209473,10.2746277,19.635498,11.5966492c0.0264893,0.0089111,0.0532227,0.0089111,0.079834,0.0177917
				c0.3105469,0.0532227,0.6210938,0.0975647,0.9404297,0.1330872c0.1953125,0.0266113,0.3903809,0.0532532,0.5944824,0.079834
				c0.239624,0.0266418,0.4880371,0.0532227,0.7364502,0.079895c0.2928467,0.0265808,0.5856934,0.044342,0.8873291,0.0621033
				c0.1773682,0.0177002,0.3548584,0.0265808,0.5412598,0.0354614c0.487915,0.0266418,0.9759521,0.0354919,1.4727783,0.0354919
				c0.0089111,0,0.0089111,0,0.0089111,0s0,0,0.0089111,0c0.4968262,0,0.9848633-0.0088501,1.4729004-0.0354919
				c0.1862793-0.0088806,0.3637695-0.0177612,0.5412598-0.0354614c0.3016357-0.0177612,0.5944824-0.0355225,0.887207-0.0621033
				c0.2484131-0.0266724,0.4969482-0.0532532,0.7364502-0.079895c0.2041016-0.0265808,0.399292-0.0532227,0.5944824-0.079834
				c0.319458-0.0355225,0.6300049-0.0798645,0.9405518-0.1330872c0.0266113-0.0088806,0.0532227-0.0088806,0.079834-0.0177917
				c7.9144287-1.3220215,14.8441162-5.572052,19.635376-11.5966492c0.1774902-0.2218323,0.3549805-0.443634,0.5235596-0.6743469
				c0.079834-0.1064758,0.159668-0.2129211,0.239502-0.319397c0.2218018-0.3016968,0.4348145-0.6033936,0.6478271-0.9139099
				c0.0532227-0.0710144,0.0975342-0.1508484,0.1507568-0.2218323c0.2484131-0.3726501,0.4880371-0.7453308,0.7275391-1.1268616
				c0.0089111-0.0177002,0.0178223-0.0354614,0.0266113-0.0532227c0.8074951-1.322052,1.517334-2.7150879,2.1295166-4.1613464
				h-5.6342773c-3.0167236,5.7939453-8.0830078,10.336792-14.2318115,12.6792297
				c-0.1687012,0.0621033-0.3460693,0.1330566-0.5146484,0.1951599c-0.319458,0.1064758-0.638916,0.2218323-0.958252,0.3194275
				c-0.4614258,0.1419983-0.9316406,0.2839355-1.4019775,0.399292c-0.2305908,0.0621033-0.4613037,0.1064453-0.6920166,0.1596985
				c-0.4169922,0.0976257-0.8341064,0.1774597-1.2600098,0.2573242c-0.1685791,0.0266113-0.3371582,0.0621338-0.5057373,0.0887146
				c-0.5855713,0.0887146-1.1711426,0.1596985-1.7567139,0.2129517c-0.15979,0.0088806-0.3283691,0.0266418-0.4880371,0.0355225
				c-0.6210938,0.044342-1.2421875,0.0709229-1.8721924,0.0709229c-0.0087891,0-0.0177002,0.0088806-0.0266113,0.0088806
				s-0.0177002-0.0088806-0.0266113-0.0088806c-0.6298828,0-1.2510986-0.0265808-1.8721924-0.0709229
				c-0.159668-0.0088806-0.3282471-0.0266418-0.487915-0.0355225c-0.5855713-0.0532532-1.1712646-0.1242371-1.7568359-0.2129517
				c-0.1685791-0.0265808-0.3371582-0.0621033-0.5057373-0.0887146c-0.4259033-0.0798645-0.8428955-0.1596985-1.2598877-0.2573242
				c-0.2307129-0.0532532-0.4614258-0.0975952-0.6921387-0.1596985c-0.4702148-0.1153564-0.9405518-0.2572937-1.4018555-0.399292
				c-0.319458-0.0975952-0.638916-0.2129517-0.958252-0.3194275c-0.1685791-0.0621033-0.3460693-0.1330566-0.5146484-0.1951599
				c-6.3706055-2.4223022-11.5789795-7.213562-14.5513916-13.3002625c-0.0887451-0.1863708-0.1774902-0.3727112-0.2661133-0.5589905
				c-0.2041016-0.4525452-0.399292-0.9139404-0.5855713-1.3841553c-0.1242676-0.3283386-0.2485352-0.6477661-0.3638916-0.9849243
				c-0.6920166-1.9786072-1.1534424-4.0548706-1.3575439-6.2109375h53.2011719H1105.9793701z M1047.6674805,357.4916077
				c0.2041016-2.1560974,0.6655273-4.2411804,1.3575439-6.2198486c0.1153564-0.3282776,0.239624-0.6565552,0.3638916-0.9759827
				c0.1862793-0.4702759,0.3814697-0.9316101,0.5943604-1.3930054c0.079834-0.1863708,0.1685791-0.3726501,0.2573242-0.5501099
				c2.963501-6.086731,8.1807861-10.8780212,14.5513916-13.300293c0.1685791-0.0709839,0.3460693-0.1331177,0.5146484-0.1952209
				c0.3193359-0.1153564,0.6387939-0.2218323,0.958252-0.3282776c0.4613037-0.1419373,0.9316406-0.2750549,1.4018555-0.399292
				l0.6921387-0.1596985c0.4169922-0.0887146,0.8339844-0.1774292,1.2598877-0.2484131
				c0.1685791-0.0266418,0.3371582-0.0621338,0.5057373-0.0887756c0.5855713-0.0975647,1.1712646-0.1596985,1.7568359-0.2129211
				c0.159668-0.0177307,0.3282471-0.0266113,0.487915-0.0354919c0.6210938-0.044342,1.2423096-0.0798645,1.8721924-0.0798645
				h0.0532227c0.6300049,0,1.2510986,0.0355225,1.8721924,0.0798645c0.159668,0.0088806,0.3282471,0.0177612,0.4880371,0.0354919
				c0.5855713,0.0532227,1.1711426,0.1153564,1.7567139,0.2129211c0.1685791,0.0266418,0.3371582,0.0621338,0.5057373,0.0887756
				c0.4259033,0.0709839,0.8430176,0.1596985,1.2600098,0.2484131l0.6920166,0.1596985
				c0.4703369,0.1242371,0.9405518,0.2573547,1.4019775,0.399292c0.3193359,0.1064453,0.6387939,0.2129211,0.958252,0.3282776
				c0.1685791,0.0621033,0.3459473,0.1242371,0.5146484,0.1952209c6.3706055,2.4222717,11.5877686,7.213562,14.5512695,13.300293
				c0.0887451,0.1774597,0.1774902,0.363739,0.2573242,0.5501099c0.2128906,0.4613953,0.4082031,0.9227295,0.5944824,1.3930054
				c0.1242676,0.3194275,0.2484131,0.6477051,0.3637695,0.9759827c0.6921387,1.9786682,1.1534424,4.0637512,1.3575439,6.2198486
				H1047.6674805z"/>
			<path class="st1" d="M1149.3405762,327.3862915c-0.159668-0.0088806-0.3282471-0.0177612-0.4968262-0.0177612
				c-0.4436035-0.0265808-0.8873291-0.0443726-1.3398438-0.0443726c-0.0087891,0-0.0087891,0-0.0087891,0s0,0-0.0089111,0
				c-0.4525146,0-0.8961182,0.0177917-1.3397217,0.0443726c-0.1687012,0-0.3283691,0.0088806-0.4969482,0.0177612
				c-0.2750244,0.0266418-0.5412598,0.044342-0.8074951,0.0709839c-0.1507568,0.0088806-0.3104248,0.0266113-0.4613037,0.0532532
				c-0.0709229,0-0.1419678,0.0088806-0.2041016,0.0177002c-0.1862793,0.0177612-0.3637695,0.0355225-0.5412598,0.0621033
				c-0.2927246,0.0444336-0.5766602,0.079895-0.8605957,0.1331177c-0.0266113,0-0.0532227,0.0088806-0.079834,0.0088806
				c-7.2047119,1.2066956-13.5133057,5.0751953-17.8786621,10.5585632c-0.15979,0.2041321-0.3283691,0.4081726-0.4969482,0.6300049
				c-0.0620117,0.0886841-0.1330566,0.1863403-0.2039795,0.2839355c-0.2041016,0.2750549-0.399292,0.5589905-0.6033936,0.842926
				c-0.0089111,0.0177002-0.0266113,0.044342-0.0443115,0.0621033c-0.0178223,0.044342-0.0532227,0.079834-0.0799561,0.124176
				c-0.0443115,0.0621338-0.088623,0.1331177-0.1241455,0.1952209v-12.022583h-4.7647705v62.9345703h4.7647705v-19.1208191
				v-13.4955139V358.64505v-1.5438538c0-1.0735779,0.0266113-2.1028442,0.079834-3.0965881
				c0.0178223-0.443634,0.0443115-0.8695068,0.0710449-1.2954407c0-0.0088501,0-0.0177307,0.0087891-0.0266113
				c0.2130127-1.4994812,0.5767822-2.9457397,1.0646973-4.3387756c0.1065674-0.3016663,0.2218018-0.603363,0.3371582-0.8961792
				c0.1685791-0.4258728,0.3460693-0.842926,0.5413818-1.2687988c0.0709229-0.1685791,0.1507568-0.3371582,0.2305908-0.4968567
				c2.7062988-5.5455017,7.4620361-9.9197693,13.2647705-12.1201782c0.1508789-0.0710144,0.3106689-0.1242371,0.4703369-0.1774902
				c0.2927246-0.1064453,0.5766602-0.2040405,0.8695068-0.3016968c0.4259033-0.1330566,0.8518066-0.2484131,1.27771-0.363739
				l0.6300049-0.1508179c0.3814697-0.079895,0.7629395-0.1597595,1.1534424-0.2218323
				c0.1507568-0.0266418,0.3016357-0.0532227,0.4613037-0.0798645c0.15979-0.0266113,0.3283691-0.0532532,0.4880371-0.0710144
				h0.1685791v-0.0265808c0.3105469-0.0355225,0.6300049-0.0710144,0.9405518-0.0975952
				c0.1419678-0.0177612,0.3016357-0.0266418,0.4436035-0.0355225c0.5678711-0.0354614,1.1357422-0.0710144,1.7036133-0.0710144
				h0.0532227c0.5766602,0,1.1357422,0.035553,1.7034912,0.0710144c0.1508789,0.0088806,0.3017578,0.0177612,0.4437256,0.0355225
				c0.1508789,0.0088196,0.3105469,0.0265808,0.4613037,0.044342v-4.6582031
				C1149.8730469,327.4306335,1149.6068115,327.4129333,1149.3405762,327.3862915z"/>
		</g>
		<g>
			<path class="st2" d="M183.0531158,344.649353c9.2492371-1.4967651,15.7780609-8.2969055,15.7780609-17.9544983
				c0-14.0099792-9.2492371-23.2578125-30.8764954-23.2578125h-38.0849762v85.6904602h40.2613983
				c19.9948273,0,31.2848511-8.7052612,31.2848511-23.5309753
				C201.4159546,353.3546143,193.3903351,346.5540466,183.0531158,344.649353z M146.4644623,317.1743164h20.4022369
				c10.2015686,0,14.5539703,4.6236877,14.5539703,11.0168762c0,6.393158-4.3524017,10.8816833-14.5539703,10.8816833h-20.4022369
				V317.1743164z M168.2273712,375.38974h-21.7629089V351.994873h21.7629089
				c10.6089935,0,15.7780762,4.6236877,15.7780762,11.8326111C184.0054474,370.9017029,178.8363647,375.38974,168.2273712,375.38974
				z M262.3801575,374.5730591v-23.9388733c0-15.7780457-10.2015839-23.1226501-25.7083588-23.1226501
				c-15.9137268,0-25.2986298,8.5696106-27.3394012,20.8105774l14.8271332,1.3592834
				c1.3592834-5.8473206,5.0320282-9.928894,11.8321533-9.928894c6.9376373,0,10.4733429,4.0815735,10.4733429,10.7460327v1.7676392
				l-16.4577026,3.1287537c-13.8734131,2.5847778-22.8513641,7.344574-22.8513641,18.7711792
				c0,10.3358459,7.6172791,16.4577332,19.0429535,16.4577332c9.9298248,0,17.5470886-4.6250916,20.9471588-11.6979065
				c1.2236176,7.2098694,6.3931732,11.5622559,13.1933136,11.5622559c5.4408264,0,8.7052307-1.7690125,11.2900085-3.8098145
				v-8.7052307c-1.7680969,0.8171387-3.4014587,1.2254639-5.0325012,1.2254639
				C264.0121155,379.1986084,262.3801575,377.7018433,262.3801575,374.5730591z M246.4650269,363.1478577
				c0,10.2015686-6.5288239,16.5947571-15.0970306,16.5947571c-5.305191,0-8.2969208-3.1287537-8.2969208-7.34552
				c0-5.5764771,4.6241608-7.4815979,12.1053162-8.976532l11.2886353-2.3121033V363.1478577z M366.7089539,327.5115356
				c-17.9530945,0-31.4190979,13.6021118-31.4190979,32.5084839c0,18.9059143,13.328949,30.7394714,31.8274536,30.7394714
				c15.3711243,0,25.9796448-8.0251465,28.9713745-21.6268005l-13.1932983-1.3597412
				c-2.311615,7.0728149-7.2084656,10.6089783-15.2341003,10.6089783c-8.8409119,0-15.7775879-5.9848328-16.322052-15.7785339
				h45.022583V357.43573C396.3618164,341.1136475,386.2954407,327.5115356,366.7089539,327.5115356z M351.611908,354.0342712
				c0.951416-8.024231,5.9848328-14.5530701,14.9613953-14.5530701c9.1136169,0,13.6016541,6.8001404,13.8743286,14.5530701
				H351.611908z M440.0553284,327.5115356c3.6718445,0,6.6644897,0.9528198,8.4325867,2.4477539l-1.2236328,15.2340698
				c-3.1287842-1.7680969-5.8491821-2.583374-9.7932434-2.583374c-8.43396,0-14.1460876,5.983429-14.1460876,16.8646545v29.6528625
				h-16.3220825v-59.9835205h16.3220825v11.4252014C425.5013733,333.7676697,431.7575073,327.5115356,440.0553284,327.5115356z
				 M455.3586426,303.4370422h16.7308655v15.9136963h-16.7308655V303.4370422z M455.6313477,329.1439819h16.322052v59.9835205
				h-16.322052V329.1439819z M543.2000122,351.722168v37.4053345h-16.3220825v-34.1408997
				c0-9.2492676-3.6727295-14.5525818-11.6983643-14.5525818c-8.2964478,0-13.4645996,6.5283508-13.4645996,16.5933533v32.1001282
				h-16.322052v-59.9835205h16.322052v9.7932434c2.9917297-6.8015137,10.6090088-11.4256897,19.5864868-11.4256897
				C537.3512573,327.5115356,543.2000122,338.393219,543.2000122,351.722168z M612.2873535,379.1986084
				c-2.5847778,0-4.2167358-1.4967651-4.2167358-4.6255493v-23.9388733c0-15.7780457-10.2001953-23.1226501-25.7073975-23.1226501
				c-15.913269,0-25.2995605,8.5696106-27.3389282,20.8105774l14.8256836,1.3592834
				c1.359314-5.8473206,5.0320435-9.928894,11.8335571-9.928894c6.935791,0,10.4733887,4.0815735,10.4733887,10.7460327v1.7676392
				l-16.4581909,3.1287537c-13.8743286,2.5847778-22.8508911,7.344574-22.8508911,18.7711792
				c0,10.3358459,7.6172485,16.4577332,19.0424805,16.4577332c9.928894,0,17.5461426-4.6250916,20.946228-11.6979065
				c1.2236328,7.2098694,6.3931885,11.5622559,13.1932983,11.5622559c5.4408569,0,8.7052612-1.7690125,11.2895508-3.8098145
				v-8.7052307C615.5517578,378.7902832,613.9193115,379.1986084,612.2873535,379.1986084z M592.1569214,363.1478577
				c0,10.2015686-6.5292969,16.5947571-15.0984497,16.5947571c-5.303833,0-8.296936-3.1287537-8.296936-7.34552
				c0-5.5764771,4.6242065-7.4815979,12.1053467-8.976532l11.2900391-2.3121033V363.1478577z M278.7361145,300.9744263h20.7172241
				v32.6645813l-20.7172241-7.9229431V300.9744263z M292.9161377,338.8847351l-14.1800232,5.4227295v-10.845459
				L292.9161377,338.8847351z M278.7361145,352.052948l20.7172241-7.9229431v11.9840698l-10.0710449,33.0134277h-10.6461792
				V352.052948z M306.6325378,300.9744263h20.7171936v24.7416382l-20.7171936,7.9229431V300.9744263z M313.1697083,338.8847351
				l14.1800232-5.4227295v10.845459L313.1697083,338.8847351z M306.6325378,344.1300049l20.7171936,7.9229431v37.0745544
				h-10.6461792l-10.0710144-33.0134277V344.1300049z"/>
		</g>
	</g>
	<g class="st3">
		<defs>
			<path id="SVGID_1_" class="st3" d="M419.7905273,727.3925781l-55.5283203-43.7490234l-247.5415039-6.5458984
				l-0.0634766-0.0185547l-58.4135742-17.4013672l149.2792969-100.796875l0.2866211,0.2265625l70.0620117,55.1992188
				l153.8217773-58.9775391l0.2246094,0.1855469l162.8203125,134.2236328L365.934082,683.6875l54.4755859,42.9199219
				L419.7905273,727.3925781z M364.6201172,682.6523438l227.2412109,6.0097656L431.5068359,556.4716797l-152.7207031,58.5556641
				L364.6201172,682.6523438z M119.3266602,676.1660156l243.621582,6.4423828l-85.2490234-67.1640625L119.3266602,676.1660156z
				 M60.5561523,659.3222656l56.2236328,16.75l160.0048828-61.3486328l-69.3071289-54.6044922L60.5561523,659.3222656z"/>
		</defs>
		<defs>
			<path id="SVGID_2_" class="st3" d="M14.9819336,781.3203125l8.0053711-211.6376953l36.9492188,89.8076172L14.9819336,781.3203125
				z M23.8125,574.3173828l-7.5942383,200.7626953l42.6450195-115.5703125L23.8125,574.3173828z"/>
		</defs>
		<defs>
			<path id="SVGID_3_" class="st3" d="M210.3706055,756.1982422l-0.4926758-0.4160156l-93.9360352-79.2519531l0.6015625-0.359375
				L302.4736328,565.015625L210.3706055,756.1982422z M117.6577148,676.6689453l92.3720703,77.9335938l90.0961914-187.0185547
				L117.6577148,676.6689453z"/>
		</defs>
		<defs>
			<path id="SVGID_4_" class="st3" d="M-99.0048828,777.8183594l-31.0732422-132.8955078l0.3623047-0.1738281
				l154.3955078-73.9160156L-99.0048828,777.8183594z M-128.9213867,645.4775391l30.3266602,129.7041016L22.1201172,573.1669922
				L-128.9213867,645.4775391z"/>
		</defs>
		<defs>
			<path id="SVGID_5_" class="st3" d="M60.9262695,660.1171875l-191.1289062-14.46875l41.28125-109.8818359l0.5405273,0.4482422
				L60.9262695,660.1171875z M-128.7973633,644.7519531l186.6708984,14.1308594L-88.4790039,537.4326172L-128.7973633,644.7519531z"
				/>
		</defs>
		<defs>
			<polygon id="SVGID_6_" class="st3" points="420.5078125,728.3925781 419.6982422,727.296875 300.8979492,566.5966797 
				301.7016602,566.0029297 419.6923828,725.6074219 431.1010742,555.8671875 432.0991211,555.9335938 			"/>
		</defs>
		<defs>
			<path id="SVGID_7_" class="st3" d="M1203.6328125,778.6328125l-0.6318359-0.2734375l-196.7177734-85.4267578
				l-58.1953125,58.4882812l-0.3544922-0.3798828l-81.1542969-87.1181641l87.9521484,5.4785156l84.1015625-10.3994141
				l48.1035156-48.3457031L1087,610.7099609l129.6191406,26.2841797l0.5371094-0.0664062l-0.0585938,0.6201172
				L1203.6328125,778.6328125z M1007.0400391,692.1708984l195.7275391,84.9970703l13.2753906-139.0957031l-176.9384766,21.8730469
				L1007.0400391,692.1708984z M869.0205078,665.0771484l79.0908203,84.9023438l57.1865234-57.4746094l-50.9394531-22.1210938
				L869.0205078,665.0771484z M956.3798828,670.171875l49.6757812,21.5712891l31.4404297-31.5986328L956.3798828,670.171875z
				 M1087.0644531,611.7441406l-46.8232422,47.0585938l173.2519531-21.4228516L1087.0644531,611.7441406z"/>
		</defs>
		<defs>
			<path id="SVGID_8_" class="st3" d="M798.6074219,736.1132812l-44.7802734-119.7197266l1.0654297,0.4453125
				l113.7792969,47.4833984L798.6074219,736.1132812z M755.5732422,618.2060547l43.4189453,116.0810547l67.9355469-69.609375
				L755.5732422,618.2060547z"/>
		</defs>
		<defs>
			<path id="SVGID_9_" class="st3" d="M984.3369141,755.4804688l-1.1601562-0.2958984L675.1708984,676.75l1.6796875-0.5263672
				l220.3789062-69.2207031l0.2021484,0.34375L984.3369141,755.4804688z M678.8291016,676.6503906l303.4335938,77.2695312
				l-85.4921875-145.7236328L678.8291016,676.6503906z"/>
		</defs>
		<defs>
			<path id="SVGID_10_" class="st3" d="M655.5917969,799.7099609l-28.1728516-37.0761719l-47.0390625-168.9755859
				l97.1630859,82.8476562l-0.0507812,0.2822266L655.5917969,799.7099609z M628.3564453,762.2734375l26.6513672,35.0166016
				l21.4492188-120.3955078l-94.2373047-80.3535156L628.3564453,762.2734375z"/>
		</defs>
		<defs>
			<path id="SVGID_11_" class="st3" d="M206.140625,756.609375l375.5712891-162.2324219l12.1445312,95.234375l-0.4716797,0.0820312
				L206.140625,756.609375z M580.8876953,595.8222656L214.2597656,754.1914062l378.4833984-65.4023438L580.8876953,595.8222656z"/>
		</defs>
		<defs>
			<path id="SVGID_12_" class="st3" d="M-592.4384766,727.9785156l-0.269043-0.1230469l-144.1918945-65.8515625
				l-1.4111328,0.0546875l0.9458008-0.7490234l-16.8198242-65.6855469l0.96875-0.2480469l16.7094727,65.2539062
				l132.409668-104.8916016l0.2583008,0.0888672l164.980957,56.4160156l93.9111328-70.0058594l0.3056641,0.3154297
				l114.2875977,118.0205078l-110.809082-13.8769531L-491.1865234,652.5L-592.4384766,727.9785156z M-734.6801758,661.9179688
				l142.1186523,64.9042969l99.6098633-74.2548828L-734.6801758,661.9179688z M-603.9033203,556.8613281l-131.3857422,104.0800781
				l243.7475586-9.4248047l51.7124023-38.5488281L-603.9033203,556.8613281z M-340.9560547,645.7207031l107.9086914,13.5068359
				l-112.0063477-115.6640625l-92.6567383,69.0722656L-340.9560547,645.7207031z M-438.6821289,613.359375l-51.0947266,38.0888672
				l145.9736328-5.6435547L-438.6821289,613.359375z"/>
		</defs>
		<defs>
			<path id="SVGID_13_" class="st3" d="M-187.8774414,767.9863281l-4.7895508-0.7373047l-39.6694336-107.3583984
				l36.9492188-89.8066406L-187.8774414,767.9863281z M-191.9326172,766.3505859l3.0102539,0.4638672l-7.2900391-192.0976562
				l-35.0507812,85.1933594L-191.9326172,766.3505859z"/>
		</defs>
		<defs>
			<path id="SVGID_14_" class="st3" d="M-382.8066406,756.5234375l-91.8920898-190.7431641l1.1782227,0.453125
				l242.9257812,93.5566406L-382.8066406,756.5234375z M-472.7016602,567.6201172l90.3081055,187.4560547l149.5878906-95.0654297
				L-472.7016602,567.6201172z"/>
		</defs>
		<defs>
			<path id="SVGID_15_" class="st3" d="M-188.8232422,769.4306641l-7.5283203-198.3789062l67.4487305,74.0615234
				l-0.1469727,0.3037109L-188.8232422,769.4306641z M-195.2480469,573.7490234l7.2714844,191.6210938l57.8793945-120.0830078
				L-195.2480469,573.7490234z"/>
		</defs>
		<defs>
			<polygon id="SVGID_16_" class="st3" points="-560.2646484,704.4951172 -604.4790039,556.4433594 -603.5209961,556.15625 
				-559.9355469,702.1044922 -474.1225586,566.4326172 -473.277832,566.9677734 			"/>
		</defs>
		<defs>
			<path id="SVGID_17_" class="st3" d="M-1120.3881836,751.8203125l-65.0498047-65.3769531l-194.4033203,51.8925781
				l-0.0561523-0.5878906l-9.6601562-100.4199219l0.5380859,0.0664062l129.8842773-26.4384766l0.1899414,0.1914062
				l48.0200195,48.2617188l84.0869141,10.3945312l87.9589844-5.4804688L-1120.3881836,751.8203125z M-1184.3232422,686.1455078
				l63.9116211,64.2333984l79.0908203-84.9013672l-85.4985352,5.3183594L-1184.3232422,686.1455078z M-1388.4423828,638.4726562
				l9.4838867,98.5917969L-1186.2514648,685.625l-25.1459961-25.2724609L-1388.4423828,638.4726562z M-1209.7890625,660.5517578
				l24.6523438,24.7753906l55.6435547-14.8525391L-1209.7890625,660.5517578z M-1385.9003906,637.7792969l173.3666992,21.4306641
				l-46.9306641-47.1660156L-1385.9003906,637.7792969z"/>
		</defs>
		<defs>
			<path id="SVGID_18_" class="st3" d="M-843.1904297,699.7890625l-1.6953125-0.296875l-196.1738281-34.2519531
				l70.7182617-81.1542969L-843.1904297,699.7890625z M-1039.140625,664.5605469l192.7314453,33.6503906l-123.8491211-112.6972656
				L-1039.140625,664.5605469z"/>
		</defs>
		<defs>
			<path id="SVGID_19_" class="st3" d="M-1248.7509766,741.7333984l-0.546875-0.8349609l179.7001953-133.2998047
				l0.6694336,0.7363281l-56.1533203,62.3583984l-0.0693359,0.0400391L-1248.7509766,741.7333984z M-1073.0146484,611.3779297
				l-168.8198242,125.2294922l116.1162109-66.7011719L-1073.0146484,611.3779297z"/>
		</defs>
		<defs>
			<path id="SVGID_20_" class="st3" d="M-1135.9453125,766.7695312l66.3066406-159.2568359l0.3188477-0.0126953
				l318.1943359-12.6025391L-1135.9453125,766.7695312z M-1068.9609375,608.4873047l-65.09375,156.3427734l377.7797852-168.7275391
				L-1068.9609375,608.4873047z"/>
		</defs>
		<defs>
			<path id="SVGID_21_" class="st3" d="M-827.9990234,800.1181641l-17.3339844-101.2695312l0.1577148-0.1787109
				l92.5424805-105.1386719l-47.269043,169.671875L-827.9990234,800.1181641z M-844.2666016,699.1513672l16.8652344,98.53125
				l26.6455078-35.0087891l45.9882812-165.2050781L-844.2666016,699.1513672z"/>
		</defs>
		<defs>
			<polygon id="SVGID_22_" class="st3" points="-1249.2958984,741.703125 -1387.5048828,640.3564453 -1378.9018555,737.65625 
				-1379.8979492,737.7441406 -1388.6953125,638.2431641 -1248.7041016,740.8964844 			"/>
		</defs>
		<defs>
			<path id="SVGID_23_" class="st3" d="M-801.0112305,763.5917969l0.2299805-0.8251953l46.7695312-168.0126953l0.5546875,0.3095703
				l194.7080078,108.4160156l-1.2304688,0.3056641L-801.0112305,763.5917969z M-753.3886719,596.2460938l-46.199707,165.9628906
				l238.137207-59.0888672L-753.3886719,596.2460938z"/>
		</defs>
		<defs>
			<path id="SVGID_24_" class="st3" d="M1967.2617188,727.8779297l-144.5615234-65.9736328l-1.4121094,0.0546875
				l1.2011719-0.9501953l133.1142578-105.3701172l0.2587891,0.0888672l164.9609375,56.4296875l93.9306641-70.0214844
				l0.3056641,0.3164062l114.1875,118.0205078L2218.4375,646.5957031l-149.9189453,5.7998047L1967.2617188,727.8779297z
				 M1824.9208984,661.8183594l142.2177734,64.9033203l99.6152344-74.2578125L1824.9208984,661.8183594z M1955.796875,556.7617188
				l-131.4853516,104.0800781l243.8525391-9.4296875l51.6865234-38.5302734L1955.796875,556.7617188z M2218.6435547,645.6201172
				l107.9101562,13.5068359l-111.9072266-115.6630859l-92.6767578,69.0859375L2218.6435547,645.6201172z M2120.9980469,613.2744141
				l-51.0693359,38.0693359l145.8691406-5.6396484L2120.9980469,613.2744141z"/>
		</defs>
		<defs>
			<path id="SVGID_25_" class="st3" d="M2270.7226562,711.5732422l92.7617188-139.5498047l0.8779297,0.4667969
				l-36.0429688,87.6054688l-0.0859375,0.0771484L2270.7226562,711.5732422z M2361.5058594,576.8046875L2275.8769531,705.625
				l51.6044922-46.1210938L2361.5058594,576.8046875z"/>
		</defs>
		<defs>
			<path id="SVGID_26_" class="st3" d="M2176.8271484,756.1865234l-0.1777344-0.3701172l-92-190.96875l1.6523438,1.2539062
				l209.8222656,159.1230469l-0.9980469,0.2597656L2176.8271484,756.1865234z M2087.3505859,568.1523438l90.0214844,186.8603516
				l116.5039062-30.2373047L2087.3505859,568.1523438z"/>
		</defs>
		<defs>
			<path id="SVGID_27_" class="st3" d="M2486.3046875,778.1181641l-0.6347656-1.0615234l-123.0488281-205.9228516
				l154.7568359,73.9892578l-0.0908203,0.390625L2486.3046875,778.1181641z M2365.1796875,573.4658203l120.7148438,202.015625
				l30.3271484-129.8037109L2365.1796875,573.4658203z"/>
		</defs>
		<defs>
			<path id="SVGID_28_" class="st3" d="M2503.3847656,705.3408203l-176.53125-45.2929688l151.2216797-131.4765625
				l28.6289062,37.765625l-0.0039062,0.1748047L2503.3847656,705.3408203z M2328.9472656,659.5517578l173.46875,44.5078125
				l3.2802734-137.3964844l-27.7714844-36.6347656L2328.9472656,659.5517578z"/>
		</defs>
		<defs>
			<polygon id="SVGID_29_" class="st3" points="2019.171875,699.1601562 2018.7441406,698.2041016 1955.2441406,556.4042969 
				1956.15625,555.9960938 2019.2285156,696.8398438 2085.5546875,566.2734375 2086.4453125,566.7265625 			"/>
		</defs>
		<defs>
			<path id="SVGID_30_" class="st3" d="M1439.2119141,751.7207031l-84.8291016-85.3173828l-27.7070312-0.5742188
				L1222.6035156,717.21875l-15.1025391,20.3789062l-0.8027344-0.5957031l13.9414062-18.8134766l-41.4765625,20.4804688
				l34.71875-76.1757812l47.3066406,0.9804688l39.15625-52.8378906l44.734375,44.9912109l100.5996094-49.6748047
				l0.4433594,0.8964844L1345.8222656,656.375l8.9863281,9.0380859l110.4023438,2.2871094l55.5107422-3.4775391
				L1439.2119141,751.7207031z M1355.8232422,666.4335938l83.3652344,83.8457031l79.0898438-84.9023438l-53.046875,3.3222656
				L1355.8232422,666.4335938z M1214.5185547,663.5068359l-33.28125,73.0234375l40.7060547-20.1005859l38.5146484-51.9716797
				L1214.5185547,663.5068359z M1261.6845703,664.4833984l-37.7783203,50.9765625l100.6015625-49.6748047L1261.6845703,664.4833984z
				 M1328.6181641,664.8701172l24.7509766,0.5126953l-8.4921875-8.5410156L1328.6181641,664.8701172z M1262.4140625,663.4990234
				l64.0361328,1.3261719l17.6826172-8.7314453l-43.6767578-43.9287109L1262.4140625,663.4990234z"/>
		</defs>
		<defs>
			<path id="SVGID_31_" class="st3" d="M1588.9931641,736.6201172l-70.1728516-71.8007812l71.0878906-81.5634766
				L1588.9931641,736.6201172z M1520.1796875,664.7802734l67.8271484,69.4003906l0.8857422-148.2373047L1520.1796875,664.7802734z"
				/>
		</defs>
		<defs>
			<path id="SVGID_32_" class="st3" d="M1308.1982422,742.8867188l137.9335938-137.4228516l19.6757812,63.0029297
				l-0.3935547,0.1855469L1308.1982422,742.8867188z M1445.6689453,607.3369141l-132.6679688,132.1767578l151.5917969-71.5800781
				L1445.6689453,607.3369141z"/>
		</defs>
		<defs>
			<path id="SVGID_33_" class="st3" d="M1423.8759766,766.3808594l0.3623047-0.8730469l65.7675781-158.2041016l0.4238281,0.1142578
				l305.8349609,82.1455078L1423.8759766,766.3808594z M1490.59375,608.4970703l-65.0693359,156.5224609l366.4101562-75.5830078
				L1490.59375,608.4970703z"/>
		</defs>
		<defs>
			<path id="SVGID_34_" class="st3" d="M1733.0917969,800.2988281l-1.4013672-1.1064453l-242.7617188-191.7373047
				l1.3515625-0.0546875l316.8994141-12.6484375l-107.1044922,116.8603516L1733.0917969,800.2988281z M1491.6708984,608.3457031
				l239.2373047,188.9550781l-31.9833984-85.9130859l0.2070312-0.2255859l105.6884766-115.3144531L1491.6708984,608.3457031z"/>
		</defs>
		<defs>
			<path id="SVGID_35_" class="st3" d="M1994.3310547,712.9472656l-2.1875-0.25l-198.6035156-22.7578125l12.0625-95.4794922
				l0.6630859,0.4160156L1994.3310547,712.9472656z M1794.6591797,689.0605469l195.4101562,22.3925781l-183.671875-115.3134766
				L1794.6591797,689.0605469z"/>
		</defs>
		<use xlink:href="#SVGID_1_"  style="overflow:visible;fill:#FFFFFF;"/>
		<use xlink:href="#SVGID_2_"  style="overflow:visible;fill:#FFFFFF;"/>
		<use xlink:href="#SVGID_3_"  style="overflow:visible;fill:#FFFFFF;"/>
		<use xlink:href="#SVGID_4_"  style="overflow:visible;fill:#FFFFFF;"/>
		<use xlink:href="#SVGID_5_"  style="overflow:visible;fill:#FFFFFF;"/>
		<use xlink:href="#SVGID_6_"  style="overflow:visible;fill:#FFFFFF;"/>
		<use xlink:href="#SVGID_7_"  style="overflow:visible;fill:#FFFFFF;"/>
		<use xlink:href="#SVGID_8_"  style="overflow:visible;fill:#FFFFFF;"/>
		<use xlink:href="#SVGID_9_"  style="overflow:visible;fill:#FFFFFF;"/>
		<use xlink:href="#SVGID_10_"  style="overflow:visible;fill:#FFFFFF;"/>
		<use xlink:href="#SVGID_11_"  style="overflow:visible;fill:#FFFFFF;"/>
		<use xlink:href="#SVGID_12_"  style="overflow:visible;fill:#FFFFFF;"/>
		<use xlink:href="#SVGID_13_"  style="overflow:visible;fill:#FFFFFF;"/>
		<use xlink:href="#SVGID_14_"  style="overflow:visible;fill:#FFFFFF;"/>
		<use xlink:href="#SVGID_15_"  style="overflow:visible;fill:#FFFFFF;"/>
		<use xlink:href="#SVGID_16_"  style="overflow:visible;fill:#FFFFFF;"/>
		<use xlink:href="#SVGID_17_"  style="overflow:visible;fill:#FFFFFF;"/>
		<use xlink:href="#SVGID_18_"  style="overflow:visible;fill:#FFFFFF;"/>
		<use xlink:href="#SVGID_19_"  style="overflow:visible;fill:#FFFFFF;"/>
		<use xlink:href="#SVGID_20_"  style="overflow:visible;fill:#FFFFFF;"/>
		<use xlink:href="#SVGID_21_"  style="overflow:visible;fill:#FFFFFF;"/>
		<use xlink:href="#SVGID_22_"  style="overflow:visible;fill:#FFFFFF;"/>
		<use xlink:href="#SVGID_23_"  style="overflow:visible;fill:#FFFFFF;"/>
		<use xlink:href="#SVGID_24_"  style="overflow:visible;fill:#FFFFFF;"/>
		<use xlink:href="#SVGID_25_"  style="overflow:visible;fill:#FFFFFF;"/>
		<use xlink:href="#SVGID_26_"  style="overflow:visible;fill:#FFFFFF;"/>
		<use xlink:href="#SVGID_27_"  style="overflow:visible;fill:#FFFFFF;"/>
		<use xlink:href="#SVGID_28_"  style="overflow:visible;fill:#FFFFFF;"/>
		<use xlink:href="#SVGID_29_"  style="overflow:visible;fill:#FFFFFF;"/>
		<use xlink:href="#SVGID_30_"  style="overflow:visible;fill:#FFFFFF;"/>
		<use xlink:href="#SVGID_31_"  style="overflow:visible;fill:#FFFFFF;"/>
		<use xlink:href="#SVGID_32_"  style="overflow:visible;fill:#FFFFFF;"/>
		<use xlink:href="#SVGID_33_"  style="overflow:visible;fill:#FFFFFF;"/>
		<use xlink:href="#SVGID_34_"  style="overflow:visible;fill:#FFFFFF;"/>
		<use xlink:href="#SVGID_35_"  style="overflow:visible;fill:#FFFFFF;"/>
		<clipPath id="SVGID_36_">
			<use xlink:href="#SVGID_1_"  style="overflow:visible;"/>
		</clipPath>
		<clipPath id="SVGID_37_" class="st4">
			<use xlink:href="#SVGID_2_"  style="overflow:visible;"/>
		</clipPath>
		<clipPath id="SVGID_38_" class="st5">
			<use xlink:href="#SVGID_3_"  style="overflow:visible;"/>
		</clipPath>
		<clipPath id="SVGID_39_" class="st6">
			<use xlink:href="#SVGID_4_"  style="overflow:visible;"/>
		</clipPath>
		<clipPath id="SVGID_40_" class="st7">
			<use xlink:href="#SVGID_5_"  style="overflow:visible;"/>
		</clipPath>
		<clipPath id="SVGID_41_" class="st8">
			<use xlink:href="#SVGID_6_"  style="overflow:visible;"/>
		</clipPath>
		<clipPath id="SVGID_42_" class="st9">
			<use xlink:href="#SVGID_7_"  style="overflow:visible;"/>
		</clipPath>
		<clipPath id="SVGID_43_" class="st10">
			<use xlink:href="#SVGID_8_"  style="overflow:visible;"/>
		</clipPath>
		<clipPath id="SVGID_44_" class="st11">
			<use xlink:href="#SVGID_9_"  style="overflow:visible;"/>
		</clipPath>
		<clipPath id="SVGID_45_" class="st12">
			<use xlink:href="#SVGID_10_"  style="overflow:visible;"/>
		</clipPath>
		<clipPath id="SVGID_46_" class="st13">
			<use xlink:href="#SVGID_11_"  style="overflow:visible;"/>
		</clipPath>
		<clipPath id="SVGID_47_" class="st14">
			<use xlink:href="#SVGID_12_"  style="overflow:visible;"/>
		</clipPath>
		<clipPath id="SVGID_48_" class="st15">
			<use xlink:href="#SVGID_13_"  style="overflow:visible;"/>
		</clipPath>
		<clipPath id="SVGID_49_" class="st16">
			<use xlink:href="#SVGID_14_"  style="overflow:visible;"/>
		</clipPath>
		<clipPath id="SVGID_50_" class="st17">
			<use xlink:href="#SVGID_15_"  style="overflow:visible;"/>
		</clipPath>
		<clipPath id="SVGID_51_" class="st18">
			<use xlink:href="#SVGID_16_"  style="overflow:visible;"/>
		</clipPath>
		<clipPath id="SVGID_52_" class="st19">
			<use xlink:href="#SVGID_17_"  style="overflow:visible;"/>
		</clipPath>
		<clipPath id="SVGID_53_" class="st20">
			<use xlink:href="#SVGID_18_"  style="overflow:visible;"/>
		</clipPath>
		<clipPath id="SVGID_54_" class="st21">
			<use xlink:href="#SVGID_19_"  style="overflow:visible;"/>
		</clipPath>
		<clipPath id="SVGID_55_" class="st22">
			<use xlink:href="#SVGID_20_"  style="overflow:visible;"/>
		</clipPath>
		<clipPath id="SVGID_56_" class="st23">
			<use xlink:href="#SVGID_21_"  style="overflow:visible;"/>
		</clipPath>
		<clipPath id="SVGID_57_" class="st24">
			<use xlink:href="#SVGID_22_"  style="overflow:visible;"/>
		</clipPath>
		<clipPath id="SVGID_58_" class="st25">
			<use xlink:href="#SVGID_23_"  style="overflow:visible;"/>
		</clipPath>
		<clipPath id="SVGID_59_" class="st26">
			<use xlink:href="#SVGID_24_"  style="overflow:visible;"/>
		</clipPath>
		<clipPath id="SVGID_60_" class="st27">
			<use xlink:href="#SVGID_25_"  style="overflow:visible;"/>
		</clipPath>
		<clipPath id="SVGID_61_" class="st28">
			<use xlink:href="#SVGID_26_"  style="overflow:visible;"/>
		</clipPath>
		<clipPath id="SVGID_62_" class="st29">
			<use xlink:href="#SVGID_27_"  style="overflow:visible;"/>
		</clipPath>
		<clipPath id="SVGID_63_" class="st30">
			<use xlink:href="#SVGID_28_"  style="overflow:visible;"/>
		</clipPath>
		<clipPath id="SVGID_64_" class="st31">
			<use xlink:href="#SVGID_29_"  style="overflow:visible;"/>
		</clipPath>
		<clipPath id="SVGID_65_" class="st32">
			<use xlink:href="#SVGID_30_"  style="overflow:visible;"/>
		</clipPath>
		<clipPath id="SVGID_66_" class="st33">
			<use xlink:href="#SVGID_31_"  style="overflow:visible;"/>
		</clipPath>
		<clipPath id="SVGID_67_" class="st34">
			<use xlink:href="#SVGID_32_"  style="overflow:visible;"/>
		</clipPath>
		<clipPath id="SVGID_68_" class="st35">
			<use xlink:href="#SVGID_33_"  style="overflow:visible;"/>
		</clipPath>
		<clipPath id="SVGID_69_" class="st36">
			<use xlink:href="#SVGID_34_"  style="overflow:visible;"/>
		</clipPath>
		<clipPath id="SVGID_70_" class="st37">
			<use xlink:href="#SVGID_35_"  style="overflow:visible;"/>
		</clipPath>
		<g class="st38">
			<path class="st2" d="M2474,709h-3840.5V530.5H2474V709z M-1365.5,708H2473V531.5h-3838.5V708z"/>
		</g>
	</g>
	<rect x="-198" y="-205" class="st39" width="1561" height="204"/>
	<rect x="-198" y="801" class="st39" width="1561" height="204"/>
	<rect x="-578" y="-676" class="st39" width="576" height="1877"/>
	<rect x="1282" y="-676" class="st39" width="576" height="1877"/>
</g>
<g id="Layer_2">
</g>
</svg>
