<?xml version="1.0" encoding="utf-8"?>

<!--
 ~   Copyright 2017, WSO2 Inc. (http://www.wso2.com)
 ~
 ~   Licensed under the Apache License, Version 2.0 (the "License");
 ~   you may not use this file except in compliance with the License.
 ~   You may obtain a copy of the License at
 ~
 ~        http://www.apache.org/licenses/LICENSE-2.0
 ~
 ~   Unless required by applicable law or agreed to in writing, software
 ~   distributed under the License is distributed on an "AS IS" BASIS,
 ~   WITHOUT WARRANTIES OR CONDITIONS OF ANY KIND, either express or implied.
 ~   See the License for the specific language governing permissions and
 ~   limitations under the License.
-->

<svg version="1.1" id="Layer_1" xmlns="http://www.w3.org/2000/svg" xmlns:xlink="http://www.w3.org/1999/xlink" x="0px" y="0px"
	 viewBox="0 0 16 16" style="enable-background:new 0 0 16 16;" xml:space="preserve">
<path fill="#C5C5C4" class="st0" d="M9.4000244,5.0899658H10v3.0100098H9.4000244V5.0899658z M16,8.7399902V16H7.6699829V8.7399902H16z
	 M15.1400146,11.5700073h-6.5c-0.0400391,0.0199585-0.0700073,0.0299683-0.1099854,0.039978v3.6199951h6.6099854V11.5700073z
	 M15.1400146,9.5299683H8.5300293v1.2600098h6.6099854V9.5299683z M2.4400024,6.5999756
	c0-2.3599854,1.8499756-4.2000122,4.2000122-4.2000122c2.3499756,0,4.2000122,1.8400269,4.2000122,4.2000122
	c0,0.5900269-0.1100464,1.1400146-0.3200073,1.6400146h1.289978c0.039978-0.0800171,0.0700073-0.1600342,0.1099854-0.2299805
	l1.3200073-0.1900024V5.2799683l-1.3200073-0.1900024c-0.1900024-0.3800049-0.3800049-0.7600098-0.5700073-1.2299805
	l0.8500366-1.0300293l-1.7900391-1.789978l-1.039978,0.8400269C9,1.7000122,8.5200195,1.5100098,8.0499878,1.3200073L7.960022,0
	H5.4099731L5.2299805,1.3200073C4.75,1.5100098,4.3800049,1.7000122,3.9099731,1.8800049L2.7800293,1.039978l-1.7000122,1.789978
	l0.8499756,1.1300049C1.7399902,4.3299561,1.5499878,4.8099976,1.460022,5.1799927L0.0400391,5.3699951v2.4500122
	L1.460022,8.0100098c0.1900024,0.4699707,0.2799683,0.8499756,0.5599976,1.2199707l-0.9400024,1.1400146l1.789978,1.789978
	L4,11.2099609c0.3800049,0.1900024,0.75,0.3800049,1.2299805,0.4700317l0.0900269,1.5100098h1.8499756v-2.4299927
	c-0.1799927,0.0199585-0.3499756,0.0299683-0.5299683,0.0299683C4.289978,10.789978,2.4400024,8.9500122,2.4400024,6.5999756z
	 M8.25,6.9199829C8.0999756,6.9500122,7.8900146,6.9699707,7.6199951,6.9699707H7.2199707v1.1300049H6.6099854V5.0899658h0.9800415
	c0.3699951,0,0.6099854,0.0200195,0.7199707,0.0500488c0.1699829,0.039978,0.3200073,0.1399536,0.4299927,0.289978
	c0.1199951,0.1499634,0.1799927,0.3499756,0.1799927,0.5899658c0,0.1800537-0.039978,0.3400269-0.0999756,0.460022
	C8.75,6.6099854,8.6599731,6.7099609,8.5599976,6.7799683S8.3499756,6.8999634,8.25,6.9199829z M8.2199707,6.2600098
	C8.2700195,6.1900024,8.289978,6.1199951,8.289978,6.0299683c0-0.1099854-0.0299683-0.2000122-0.0899658-0.2699585
	c-0.0700073-0.0800171-0.1500244-0.1199951-0.25-0.1400146C7.8800049,5.6099854,7.7299805,5.5999756,7.5100098,5.5999756H7.2199707
	v0.8599854h0.3300171c0.2399902,0,0.4000244-0.0199585,0.4800415-0.0499878
	C8.1099854,6.3800049,8.1799927,6.3299561,8.2199707,6.2600098z M4.4500122,5.0899658h0.6400146L6.289978,8.0999756H5.6300049
	L5.3699951,7.4199829H4.1699829l-0.25,0.6799927H3.2700195L4.4500122,5.0899658z M4.7600098,5.789978L4.3499756,6.9099731h0.8200073
	L4.7600098,5.789978z"/>
</svg>
