<?xml version="1.0" encoding="utf-8"?>
<!-- Generator: Adobe Illustrator 22.0.1, SVG Export Plug-In . SVG Version: 6.00 Build 0)  -->
<svg version="1.1" id="Layer_1" xmlns="http://www.w3.org/2000/svg" xmlns:xlink="http://www.w3.org/1999/xlink" x="0px" y="0px"
	 viewBox="0 0 16 16" style="enable-background:new 0 0 16 16;" xml:space="preserve">
<style type="text/css">
	.st0{fill:#FFFFFF;}
</style>
<g>
	<path class="st0" d="M0,0v2.819746v0.5394812V16h16V3.3592272V2.819746V0H0z M15.4285717,15.4285717H0.5714286V3.3911748
		h14.8571434V15.4285717z M0.5714286,0.6185477h14.8571434v2.169251H0.5714286V0.6185477z"/>
</g>
<g>
	<path class="st0" d="M4.3350382,11.708684l-0.747931,0.8975668l1.4210434,1.4211702l0.8975673-0.7479315
		c0.2991471,0.1495104,0.5984206,0.2991476,0.9723859,0.3739662l0.0748186,1.1967144h1.9446454l0.1496363-1.1218967
		c0.3739653-0.0748177,0.6731129-0.2244549,1.0470781-0.3739653l0.8975677,0.7479305l1.4210434-1.4211693l-0.6731129-0.9723854
		c0.1496363-0.2991476,0.2991467-0.6731129,0.4487839-0.9722595l1.0470781-0.1496372V8.5673237l-1.0470781-0.1496372
		c-0.1496372-0.2991467-0.2991476-0.5982938-0.4487839-0.972259l0.6731129-0.8227491l-1.4210434-1.4211698l-0.8227491,0.6731124
		c-0.2991476-0.1495104-0.6732388-0.2991467-1.047205-0.448657L9.047204,4.3787594H7.0276141L6.8781037,5.4259639
		c-0.3739653,0.1495104-0.6732388,0.2991467-1.047204,0.448657L4.933332,5.2015085L3.5871072,6.6226783L4.2602196,7.520246
		c-0.1496367,0.2991467-0.2991471,0.6731124-0.3739653,0.972259L2.764358,8.6421423v1.9446449l1.1218963,0.1496372
		C4.0358911,11.1103897,4.1105828,11.4095364,4.3350382,11.708684z M8,6.2841001c1.86831,0,3.3303013,1.4621172,3.3303013,3.3304276
		c0,1.8681841-1.4619913,3.3303013-3.3303013,3.3303013c-1.8681841,0-3.3303018-1.4621172-3.3303018-3.3303013
		C4.6696982,7.7462173,6.1318159,6.2841001,8,6.2841001z"/>
	<path class="st0" d="M6.0370293,10.2660294h0.9543133l0.2081518,0.5419273h0.5243602L6.7681513,8.4209728H6.2587037
		l-0.9299212,2.3869839h0.511343L6.0370293,10.2660294z M6.5078034,8.9779396l0.3285942,0.8855619H6.1852756L6.5078034,8.9779396z"
		/>
	<rect x="10.1890688" y="8.4209728" class="st0" width="0.4821487" height="2.3869836"/>
	<path class="st0" d="M8.4616747,9.9073563h0.3140602c0.2183886,0,0.3849611-0.0116272,0.4995899-0.033618
		C9.3600006,9.8547812,9.4432869,9.81674,9.5258141,9.7598677c0.0818958-0.0569983,0.1490049-0.1352291,0.2023382-0.235198
		C9.7814856,9.425333,9.8077736,9.3018579,9.8077736,9.1553812c0-0.1899529-0.0460033-0.3447714-0.13801-0.4649611
		C9.5777578,8.5707359,9.4630022,8.4928846,9.3265095,8.4567394C9.2374096,8.4329796,9.0459404,8.4209728,8.7531128,8.4209728
		H7.979526v2.3869839h0.4821486V9.9073563z M8.4616747,8.8248911h0.2329226c0.1731443,0,0.2892895,0.005434,0.3462877,0.0164299
		c0.078104,0.0139017,0.1431913,0.0492887,0.1942501,0.1055288C9.2863197,9.0034695,9.3118486,9.0750017,9.3118486,9.161953
		c0,0.0705214-0.018199,0.1321955-0.0547237,0.1855288C9.2206011,9.400815,9.1701746,9.439867,9.1066036,9.4647646
		C9.0422754,9.4895353,8.9152613,9.5026798,8.7253084,9.5026798H8.4616747V8.8248911z"/>
</g>
</svg>
