<?xml version="1.0" encoding="utf-8"?>
<!-- Generator: Adobe Illustrator 16.0.0, SVG Export Plug-In . SVG Version: 6.00 Build 0)  -->
<!DOCTYPE svg PUBLIC "-//W3C//DTD SVG 1.1//EN" "http://www.w3.org/Graphics/SVG/1.1/DTD/svg11.dtd">
<svg version="1.1" id="Layer_1" xmlns="http://www.w3.org/2000/svg" xmlns:xlink="http://www.w3.org/1999/xlink" x="0px" y="0px"
	 width="30px" height="30px" viewBox="0 0 30 30" enable-background="new 0 0 30 30" xml:space="preserve">
<g>
	<path fill="#A7A8AB" d="M9.521,10.348h3.916l0.237-1.819c0.475-3.916,2.215-8.464,7.555-8.464c1.186,0.04,2.135,0.277,2.689,0.593
		l-0.633,2.531c-0.594-0.237-1.266-0.396-2.057-0.396c-2.689,0-3.877,2.571-4.193,5.498l-0.236,2.057h4.746v2.492h-5.062
		l-0.95,8.107C14.9,26.05,13.278,29.53,8.651,29.53c-1.305,0-2.413-0.276-3.085-0.633l0.633-2.491
		c0.672,0.316,1.384,0.435,2.215,0.435c2.452,0,3.362-2.175,3.836-6.21l0.91-7.791H9.521V10.348z"/>
</g>
</svg>
