<?xml version="1.0" encoding="utf-8"?>

<!--
 ~   Copyright (c) WSO2 Inc. (http://wso2.com) All Rights Reserved.
 ~
 ~   Licensed under the Apache License, Version 2.0 (the "License");
 ~   you may not use this file except in compliance with the License.
 ~   You may obtain a copy of the License at
 ~
 ~        http://www.apache.org/licenses/LICENSE-2.0
 ~
 ~   Unless required by applicable law or agreed to in writing, software
 ~   distributed under the License is distributed on an "AS IS" BASIS,
 ~   WITHOUT WARRANTIES OR CONDITIONS OF ANY KIND, either express or implied.
 ~   See the License for the specific language governing permissions and
 ~   limitations under the License.
-->

<svg version="1.1" id="connector" xmlns="http://www.w3.org/2000/svg" xmlns:xlink="http://www.w3.org/1999/xlink" x="0px" y="0px"
	 viewBox="0 0 14 14" style="enable-background:new 0 0 14 14;" xml:space="preserve">
<path d="M8.5351763,2.9990394c0,2.6557496,0,5.3164206,0,7.9751873c-1.7708507,0.2318821-4.2870131-0.9214554-5.0077829-2.668786
	C3.387331,7.9658918,3.2112856,7.8601155,2.8618875,7.8756099c-0.600723,0.0266399-2.8570981,0.0043797-2.8570981,0.0043797
	s0.010929-0.350069,0.0002197-0.8624873C-0.006131,6.4844704,0.0047894,6.1169872,0.0047894,6.1169872
	s2.382015,0.0510983,2.5691772,0.0549974c0.6771972,0.0141082,0.8464966,0.0705414,1.1133852-0.5720935
	C4.4976983,3.648675,6.9786887,2.8073442,8.5351763,2.9990394z M10.3085041,5.9226179
	c0.1894674-0.0126472,0.3365469-0.0299568,0.4837456-0.0310402c0.7890177-0.0058117,3.2002974-0.0175414,3.2002974-0.0175414
	s0.0172071-0.4126105-0.0006695-0.8793373c-0.0169382-0.442265,0.0006695-0.8202662,0.0006695-0.8202662
	S12.701211,4.167666,12.47577,4.1674924C11.7509432,4.166935,11.0261164,4.167285,10.2629299,4.167285
	c0-0.3900979,0.0001907-1.7814765,0.0001907-1.7814765s-0.1617975-0.0047767-0.6642714,0.0000501
	C9.1311769,2.3903513,8.9526005,2.3858085,8.9526005,2.3858085l0.001544,9.227953c0,0,0.1966095,0.005764,0.6647739-0.0000782
	c0.4674454-0.0058336,0.6432858,0.0000782,0.6432858,0.0000782s0.0004292-1.4157009,0.0004292-1.7822704
	c0.5471916,0,0.9957361,0.0003853,1.4442806-0.0001068c0.4696989-0.0005169,2.2856331-0.0066671,2.2856331-0.0066671
	s-0.0068579-0.3757296-0.0001183-0.8408918C13.9991693,8.5184736,13.992547,8.119029,13.992547,8.119029
	s-1.3041992-0.0097857-1.5296059-0.0100965c-0.7087984-0.0009813-1.4175968-0.0003614-2.1544371-0.0003614
	C10.3085041,7.3413973,10.3085041,6.6435251,10.3085041,5.9226179z"/>
</svg>
