<?xml version="1.0" encoding="utf-8"?>

<!--
 ~   Copyright (c) WSO2 Inc. (http://wso2.com) All Rights Reserved.
 ~
 ~   Licensed under the Apache License, Version 2.0 (the "License");
 ~   you may not use this file except in compliance with the License.
 ~   You may obtain a copy of the License at
 ~
 ~        http://www.apache.org/licenses/LICENSE-2.0
 ~
 ~   Unless required by applicable law or agreed to in writing, software
 ~   distributed under the License is distributed on an "AS IS" BASIS,
 ~   WITHOUT WARRANTIES OR CONDITIONS OF ANY KIND, either express or implied.
 ~   See the License for the specific language governing permissions and
 ~   limitations under the License.
-->

<svg version="1.1" id="trycatch" xmlns="http://www.w3.org/2000/svg" xmlns:xlink="http://www.w3.org/1999/xlink" x="0px" y="0px"
	 viewBox="0 0 14 14" style="enable-background:new 0 0 14 14;" xml:space="preserve">
<path d="M3.1012812,9.1433907l0.1640718,1.0021257c-0.3192968,0.0675592-0.6048141,0.1013384-0.8573561,0.1013384
	c-0.4117885,0-0.7310853-0.0659504-0.9578906-0.1962433C1.2233009,9.9203196,1.0632504,9.7498131,0.9707589,9.5374851
	c-0.0924916-0.2123289-0.1383352-0.6595049-0.1383352-1.339921V4.3466997H0V3.4636066h0.8324237V1.8051933l1.1283965-0.680416
	v2.338829h1.140461v0.8830934H1.9608203v3.9135981c0,0.3249264,0.0193026,0.5324297,0.0595163,0.6241169
	c0.0402138,0.0932951,0.10536,0.1672888,0.1954386,0.2219791C2.3058541,9.1610842,2.4353421,9.186821,2.6034355,9.186821
	C2.7297065,9.186821,2.8953869,9.1723442,3.1012812,9.1433907z M4.1983109,10.1583843V3.4636066H5.219739v1.0149939
	c0.2605848-0.4745216,0.5010629-0.7881887,0.7222385-0.9393921C6.1623483,3.3880048,6.4052391,3.312403,6.6698456,3.312403
	c0.38203,0,0.7712989,0.1222498,1.1661973,0.3651404L7.4451656,4.7311425
	c-0.2774744-0.164072-0.5549493-0.2461076-0.8324237-0.2461076c-0.2477164,0-0.4705005,0.0739932-0.6683517,0.223588
	C5.7473431,4.8582182,5.606595,5.0641122,5.5221462,5.3295226C5.3966794,5.7332683,5.3331418,6.1740103,5.3331418,6.653358
	v3.5050263H4.1983109z M8.4593554,12.7368879L8.333889,11.6720285c0.2485199,0.0659504,0.4640656,0.0997295,0.6490488,0.0997295
	c0.2525425,0,0.4536104-0.0418215,0.6048145-0.1254663c0.1512032-0.0836449,0.2750616-0.2026768,0.3715744-0.3538809
	c0.0723848-0.1125984,0.1882-0.3940945,0.3474464-0.8444872c0.0209112-0.0627337,0.0546904-0.1544209,0.1013384-0.2766705
	L7.8674097,3.4636066h1.2233009c0,0,1.7356234,4.8851604,1.8771763,5.4272413
	c0.1302919-0.5211697,1.8980865-5.4272413,1.8980865-5.4272413H14l-2.5463324,6.8089848
	c-0.2734528,0.7351065-0.4857807,1.2417994-0.6369848,1.5184698c-0.2010689,0.3731833-0.4326992,0.6482449-0.693284,0.8219681
	c-0.2605848,0.1753311-0.5710344,0.2621927-0.9329586,0.2621927C8.9716778,12.8752222,8.7287874,12.8285751,8.4593554,12.7368879z"
	/>
</svg>
