<?xml version="1.0" encoding="utf-8"?>

<!--
 ~   Copyright (c) WSO2 Inc. (http://wso2.com) All Rights Reserved.
 ~
 ~   Licensed under the Apache License, Version 2.0 (the "License");
 ~   you may not use this file except in compliance with the License.
 ~   You may obtain a copy of the License at
 ~
 ~        http://www.apache.org/licenses/LICENSE-2.0
 ~
 ~   Unless required by applicable law or agreed to in writing, software
 ~   distributed under the License is distributed on an "AS IS" BASIS,
 ~   WITHOUT WARRANTIES OR CONDITIONS OF ANY KIND, either express or implied.
 ~   See the License for the specific language governing permissions and
 ~   limitations under the License.
-->

<svg version="1.1" id="action" xmlns="http://www.w3.org/2000/svg" xmlns:xlink="http://www.w3.org/1999/xlink" x="0px" y="0px"
	 viewBox="0 0 14 14" style="enable-background:new 0 0 14 14;" xml:space="preserve">
<style type="text/css">
	.st0{fill:#FFFFFF;}
</style>
<path class="st0" d="M8.6527376,14.0049505H5.2437558l-0.1669612-1.4580994
	c-0.2452669-0.0846052-0.4842329-0.1845121-0.7155485-0.2997198L3.2100677,13.147192l-2.4126136-2.4247646l0.9234626-1.1610785
	C1.6201099,9.3507347,1.532354,9.1365204,1.458999,8.9196053L0,8.7521935v-3.412581l1.4711498-0.1903629
	c0.0783054-0.2272654,0.1719117-0.4518309,0.2808191-0.6714458L0.8042046,3.2816226l2.4063134-2.4288149l1.2290335,0.9617152
	c0.2236652-0.1075573,0.4531808-0.2007136,0.6876464-0.2785689l0.1872129-1.5341541l3.4184318-0.0067505l0.1881132,1.5832074
	c0.203414,0.0729049,0.4032269,0.1570606,0.59764,0.2524672l1.2357845-0.9756662l2.4238644,2.4135139l-0.9855671,1.2510848
	c0.0882063,0.1818123,0.1665115,0.3685751,0.2349157,0.558938L14,5.270576v3.4177136l-1.5157032,0.1818123
	c-0.0729046,0.2205153-0.1584101,0.4365292-0.2565174,0.646244l0.9468651,1.17908l-2.3842621,2.4499664l-1.1916809-0.9153624
	c-0.2466173,0.1251087-0.4995337,0.2322159-0.7578516,0.3195219L8.6527376,14.0049505z M6.2302227,12.8996754h1.4504485
	l0.1575108-1.2150822l0.3591247-0.0954065c0.4032269-0.1071072,0.7974539-0.2736187,1.1700792-0.4941339l0.3222218-0.1899128
	l0.9945669,0.7641516l1.0161695-1.0440702l-0.7920542-0.9846668l0.180913-0.3249226
	c0.1881123-0.3402224,0.3330221-0.7056475,0.4293289-1.0872736l0.093606-0.368125l1.2789869-0.1530104l-0.0026999-1.4576488
	l-1.3077888-0.161561l-0.1008072-0.350574c-0.1017065-0.3505735-0.2439165-0.6889968-0.4239283-1.0053682l-0.1836128-0.3231215
	l0.8280563-1.0512714l-1.03057-1.0265198L9.6266031,3.154264L9.3025808,2.9675014
	C8.9749594,2.7793887,8.624835,2.6313286,8.2612104,2.5269215l-0.353724-0.1012568L7.7499757,1.1030248L6.2936769,1.1061751
	l-0.1579604,1.297438L5.7711916,2.4981196C5.381465,2.5998263,5.0043397,2.7519367,4.6506157,2.9513004L4.3288436,3.1322126
	L3.3041241,2.329808L2.2803047,3.3635283l0.7965541,1.0058184L2.8896461,4.6947184
	C2.6853323,5.0488925,2.5305216,5.4192677,2.4297149,5.7950435L2.3338583,6.1528177L1.1061751,6.3116784V7.765727
	l1.2159826,0.1404095L2.418014,8.2715616C2.5152206,8.6405859,2.6637309,9.0051107,2.859494,9.3552351l0.1809123,0.3240213
	l-0.7641518,0.9603653l1.0256197,1.0314703l0.959465-0.7497511l0.3240218,0.1899128
	c0.3568745,0.2088146,0.7416506,0.3699255,1.1439776,0.4788332l0.3622746,0.0981064L6.2302227,12.8996754z M7.0004501,9.7465363
	c-1.5148029,0-2.7469864-1.2312832-2.7469864-2.7460861s1.2321835-2.7469864,2.7469864-2.7469864
	s2.7460861,1.2321835,2.7460861,2.7469864S8.5152531,9.7465363,7.0004501,9.7465363z M7.0004501,5.3596387
	c-0.9050117,0-1.6408114,0.7357998-1.6408114,1.6408114c0,0.904561,0.7357998,1.640811,1.6408114,1.640811
	c0.904561,0,1.640811-0.7362499,1.640811-1.640811C8.6412611,6.0954385,7.9050112,5.3596387,7.0004501,5.3596387z"/>
</svg>
