<?xml version="1.0" encoding="utf-8"?>
<!-- Generator: Adobe Illustrator 19.2.1, SVG Export Plug-In . SVG Version: 6.00 Build 0)  -->
<svg version="1.1" id="Layer_1" xmlns="http://www.w3.org/2000/svg" xmlns:xlink="http://www.w3.org/1999/xlink" x="0px" y="0px"
	 viewBox="0 0 621.0722656 191.6538086" style="enable-background:new 0 0 621.0722656 191.6538086;" xml:space="preserve">
<style type="text/css">
	.st0{enable-background:new    ;}
</style>
<g class="st0">
</g>
<g>
	<path d="M146.71521,85.1586304c5.0961914-0.5771484,9.9775391-1.6738281,14.5825195-3.2788086
		c9.2929688-3.2734375,15.1464844-8.1948242,17.3842773-14.5917969c1.3745117-3.4931641,2.0712891-6.9838867,2.0712891-10.3759766
		c0-8.6967773-4.597168-15.2705078-13.6474609-19.5307617c-7.5986328-3.7470703-17.902832-5.6469727-30.6264648-5.6469727
		c-17.7094727,0-33.7490234,3.0322266-47.6733398,9.0131836c-6.7416992,2.9047852-12.890625,6.7416992-18.2797852,11.4067383
		c-7.3803711,6.4321289-11.1225586,13.4208984-11.1225586,20.7734375c0,7.5830078,3.4746094,12.2114258,10.3276367,13.7578125
		l0.2202148,0.0244141c0.7436523,0,1.8671875,0,2.125-0.9306641c0.0678711-0.2451172,0.1381836-0.8569336-0.6210938-1.3481445
		c-1.4467773-1.1606445-2.4604492-2.1235352-3.0292969-2.8833008c-1.3901367-1.7592773-2.0947266-4.0375977-2.0947266-6.7714844
		c0-4.0219727,2.8837891-9.0205078,8.5712891-14.8564453c5.7939453-5.9443359,11.9907227-10.4858398,18.4243164-13.5014648
		c12.7412109-6.0664062,27.3632812-9.1420898,43.4604492-9.1420898c10.1586914,0,18.2426758,1.5166016,24.0332031,4.5117188
		c6.574707,3.3378906,9.7709961,8.234375,9.7709961,14.9697266c0,2.7509766-0.6035156,5.9057617-1.7915039,9.3701172
		c-1.8417969,5.2319336-6.206543,9.2270508-12.9711914,11.8735352c-5.4023438,2.1010742-11.4975586,3.1665039-18.1176758,3.1665039
		c-1.5942383,0-3.4868164-0.0981445-5.6269531-0.2915039c-0.7832031-0.2919922-1.46875-0.5351562-2.0664062-0.7358398
		c-0.605957-0.2006836-1.4389648-0.5043945-2.5004883-0.909668c-1.1914062-0.4521484-2.4248047-0.6811523-3.6660156-0.6811523
		c-2.2456055,0-4.1074219,0.8427734-5.4804688,2.4487305c-0.5952148,0.5942383-0.909668,1.3183594-0.909668,2.0932617
		c0,2.5595703,4.0898438,3.3974609,7.6523438,3.8417969c4.5014648,0.5634766,7.6889648,0.9863281,9.7382812,1.2915039
		c4.1889648,1.4770508,7.7216797,3.8320312,10.5004883,6.9995117c2.7480469,3.1333008,4.1411133,6.4609375,4.1411133,9.8896484
		c0,3.5058594-0.7871094,6.7109375-2.3476562,9.5419922c-3.5952148,6.7919922-9.1259766,12.5986328-16.4394531,17.2568359
		c-7.296875,4.6484375-14.7329102,7.0048828-22.1010742,7.0048828c-11.9995117,0-20.8183594-5.6943359-26.9384766-17.4013672
		c9.6083984-8.6113281,20.184082-20.9233398,31.4433594-36.6044922c1.6064453-2.2084961,6.7763672-7.5800781,15.3671875-15.965332
		c8.4023438-8.2050781,14.2045898-13.2724609,17.2529297-15.0678711c4.2470703-0.5043945,5.1469727-2.5571289,5.1469727-4.2050781
		c0-1.5864258-0.8022461-2.90625-2.3867188-3.9228516c-1.4433594-0.9213867-3.2568359-1.3886719-5.3891602-1.3886719
		c-2.0634766,0-4.1025391,0.3857422-6.0629883,1.1474609c-5.4614258,2.1425781-16.4311523,13.9848633-33.5483398,36.2167969
		l-13.7084961,18.4829102c-4.4472656,6.0483398-8.1142578,10.7045898-10.9257812,13.8745117l-4.0996094-13.1186523
		c-1.6787109-5.3701172-4.2792969-8.0932617-7.7304688-8.0932617c-0.934082,0-2.1962891,0.2685547-3.9335938,0.8491211
		c-3.6298828,1.5424805-7.6645508,6.2651367-12.3349609,14.4389648c-4.5834961,8.0205078-6.9077148,14.9238281-6.9077148,20.515625
		c0,5.8134766,1.7324219,9.6845703,5.171875,11.5195312c4.3481445,2.1806641,12.4169922-1.8007812,24.9506836-12.1337891
		c6.1542969,10.6796875,17.3842773,16.0908203,33.4013672,16.0908203c10.7851562,0,21.2983398-2.5224609,31.2475586-7.4980469
		c10.0136719-5.0068359,16.902832-11.3808594,20.4672852-18.9267578c1.7050781-3.4140625,2.5693359-7.0878906,2.5693359-10.9199219
		c0-6.4057617-2.1972656-11.8505859-6.5302734-16.1835938C152.6595459,88.1557007,149.8465576,86.3300171,146.71521,85.1586304z
		 M53.6273193,135.2216187c-0.5117188,0-0.6230469-0.1855469-0.6791992-0.2783203
		c-1.2363281-2.0888672-1.862793-4.4570312-1.862793-7.0371094c0-6.3925781,3.7246094-15.0400391,11.0708008-25.7050781
		c0.0712891-0.0341797,0.1323242-0.0615234,0.184082-0.0820312c0.6801758,0.1274414,3.4257812,1.8666992,8.8095703,19.7607422
		l0.0512695,0.1699219l0.046875,0.0634766C60.3465576,132.9276733,55.649292,135.2216187,53.6273193,135.2216187z"/>
	<path d="M435.5716553,81.9940796c1.4628906,1.2900391,3.109375,1.9443359,4.8955078,1.9443359
		c1.7568359,0,3.3857422-0.5610352,4.8398438-1.6674805c1.5400391-1.1689453,2.3203125-2.6025391,2.3203125-4.2612305
		c0-1.6708984-0.8417969-3.1113281-2.5029297-4.2822266l-0.0009766-0.0004883
		c-1.5517578-1.0917969-3.2216797-1.6450195-4.9638672-1.6450195c-5.6630859,0-6.8515625,2.8891602-6.8515625,5.3125
		C433.3079834,79.1273804,434.0697021,80.6752319,435.5716553,81.9940796z"/>
	<path d="M576.6038818,103.805603c-0.5078125,0-1.2460938,0.1762695-1.8583984,0.9902344
		c-17.3164062,21.5839844-25.0449219,26.1142578-28.4794922,26.1142578c-0.4960938,0-1.8134766,0-2.4111328-2.7539062
		l-0.0292969-0.1044922c-0.0673828-0.203125-0.1015625-0.4072266-0.1015625-0.6074219
		c0-3.4775391,3.1542969-9.8955078,9.3759766-19.0751953c9.7197266-14.3461914,9.7197266-14.9169922,9.7197266-15.4208984
		c0-0.8393555-0.5771484-1.7333984-1.8710938-2.8999023c-1.2119141-1.0893555-2.5244141-1.6420898-3.9023438-1.6420898
		l-1.6572266,0.3320312c-0.0068359-0.0195312-0.0146484-0.0400391-0.0224609-0.0615234
		c-0.2070312-0.5654297-0.4628906-1.2607422-0.8066406-2.1665039c-1.3066406-2.7270508-3.8896484-4.1098633-7.6777344-4.1098633
		c-8.9580078,0-18.8847656,5.3569336-29.5039062,15.921875c-3.5427246,3.5254517-6.4888916,6.9039307-8.8607178,10.1331787
		c-0.5137329,0.4282227-1.262085,1.2234497-2.4898682,2.6988525c-0.6357422,0.8876953-0.8808594,1.1699219-1.0078125,1.2988281
		c-13.6269531,15.1269531-19.9296875,18.3027344-22.8183594,18.3027344c-0.7236328,0-1.15625-1.46875-1.15625-3.9277344
		c0-3.078125,1.5283203-7.0429688,4.5410156-11.7841797c3.0908203-4.8652344,6.9228516-10.0092773,11.4189453-15.3227539
		c5.9335938-7.6508789,6.1796875-8.262207,6.2988281-8.5595703c0.2519531-0.6308594,0.3789062-1.2734375,0.3789062-1.909668
		c0-3.1274414-1.8867188-4.8496094-5.3115234-4.8496094c-0.4472656,0-0.9326172,0.050293-1.4814453,0.1533203
		c-2.0439453,0.0083008-8.1904297,0.5249023-41.0517578,33.0498047c2.6201172-6.1914062,7.6503906-14.4682617,15.0087891-24.6889648
		l0.0830078-0.1376953c0.3769531-0.7539062,0.5673828-1.5258789,0.5673828-2.2944336
		c0-1.581543-0.6699219-4.234375-5.1582031-4.234375c-1.3535156,0-2.6064453,0.7563477-3.6904297,2.2026367
		c-8.2802734,9.8144531-13.8349609,16.5625-16.4970703,20.043457c-2.7382812,3.4501953-6.0283203,7.0996094-9.7802734,10.8496094
		c-0.3085938,0.3094482-0.5537109,0.6113892-0.7675781,0.9100952c-3.802063,3.4733276-8.2133179,6.782959-13.2304688,9.8877563
		c-3.5146484,2.2460938-6.2871094,3.3847656-8.2402344,3.3847656c-0.8525391,0-2.8496094,0-2.8496094-4.6210938
		c0-2.4082031,1.9677734-7.8242188,11.3447266-19.9521484c1.3339844-1.7451172,2.7216797-3.5683594,4.1611328-5.4707031
		c1.4296875-1.8901367,2.5634766-3.359375,3.3701172-4.3671875c0.8183594-1.0214844,1.5849609-1.9682617,2.3017578-2.8388672
		c0.7236328-0.8779297,1.359375-1.6992188,1.8896484-2.440918l0.1865234-0.2607422v-0.3208008
		c0-1.1938477-0.7802734-2.2753906-2.3867188-3.3066406c-1.4433594-0.9213867-2.7890625-1.3881836-4.0292969-1.3881836h-0.0009766
		c-4.09375,0.1132812-9.1484375,5.1293945-15.453125,15.3339844c-1.9836426,3.2097168-3.6383667,6.1772461-4.9768066,8.921814
		c-0.4945679,0.5621338-1.0529785,1.2045288-1.6853027,1.9390259c-3.3261719,3.6289062-7.0576172,6.9521484-11.0957031,9.8789062
		c-6.6708984,4.8798828-12.3261719,7.3535156-16.8105469,7.3535156c-3.9404297,0-5.7763672-2.0068359-5.7763672-6.3154297
		c0-4.625,3.2451172-11.1279297,9.6396484-19.3208008l10.6259766-13.3984375l0.1533203-0.2705078
		c0.4472656-1.1938477,0.0722656-2.4692383-1.1181641-3.7924805c-1.1191406-1.2407227-2.25-1.8701172-3.3603516-1.8701172
		c-1.2851562,0-1.7119141,0.1230469-2.0644531,0.3017578l-3.9882812,2.4545898
		c-2.0908203,1.2358398-3.9921875,1.862793-5.6513672,1.862793c-3.2558594,0-3.703125-1.1640625-3.7646484-1.9130859
		l3.4648438-4.6201172c2.7392578-3.3979492,4.0712891-6.1723633,4.0712891-8.4824219
		c0-1.5239258-0.5898438-4.0800781-4.5419922-4.0800781c-4.1308594,0-7.359375,4.5917969-9.8701172,14.0371094
		c-3.6220703,7.0106201-9.8649902,15.6899414-18.5411377,25.7848511
		c-3.5153809,3.8969116-7.5142212,7.6600342-11.9656982,11.2356567
		c-7.8876953,6.6884766-14.328125,10.0800781-19.1425781,10.0800781c-4.5185547,0-6.6230469-2.2265625-6.6230469-7.0078125
		c0-2.6445312,0.6137695-5.2011719,1.8251953-7.6132812c0.5019531,0.0966797,1.0449219,0.1435547,1.6411133,0.1435547
		c5.5981445,0,12.8969727-2.6914062,21.6918945-7.9980469c8.9550781-5.4047852,13.4960938-11.2368164,13.4960938-17.3339844
		c0-2.1396484-0.8671875-3.9746094-2.5800781-5.4550781c-1.6708984-1.4379883-3.8339844-2.1669922-6.4287109-2.1669922
		c-7.4375,0-15.8671875,4.8706055-25.0537109,14.4770508c-6.3150024,6.6043091-10.4871216,12.7485962-12.4754639,18.3552246
		c-2.9820557,2.9450684-6.0152588,5.4736938-9.0738525,7.532959c-5.1445312,3.4628906-9.3608398,5.21875-12.5317383,5.21875
		c-2.8232422,0-4.0820312-1.1162109-4.0820312-3.6201172c0-2.9111328,0.8452148-6.0761719,2.5229492-9.4296875
		c0.8012695-1.7041016,1.5141602-3.1054688,2.1191406-4.1650391c0.6098633-1.0664062,1.5571289-2.5771484,2.8164062-4.4892578
		c1.2832031-1.9501953,3.2094727-4.9042969,5.7783203-8.8608398c2.5444336-3.9179688,7.2211914-10.4545898,13.9003906-19.4277344
		c6.7236328-9.0336914,11.2666016-15.1435547,13.6298828-18.3271484l0.2348633-0.3164062l-0.0439453-0.3911133
		c-0.1357422-1.2133789-0.8701172-2.3046875-2.1835938-3.2436523c-1.2470703-0.8901367-2.5048828-1.3413086-3.7382812-1.3413086
		c-5.4526367,0-14.0932617,9.7270508-26.4135742,29.7329102c-5.3823853,8.6620483-9.5847778,16.1854858-12.5808716,22.4891357
		c-0.4694824,0.4391479-0.96875,1.0144653-1.5114136,1.737915c-4.9467773,6.0556641-10.1074219,10.9121094-15.3378906,14.4335938
		c-5.1445312,3.4628906-9.3608398,5.21875-12.5317383,5.21875c-2.8232422,0-4.0820312-1.1162109-4.0820312-3.6201172
		c0-2.9111328,0.8452148-6.0761719,2.5229492-9.4296875c0.8012695-1.7041016,1.5141602-3.1054688,2.1191406-4.1650391
		c0.6098633-1.0664062,1.5571289-2.5771484,2.8164062-4.4892578c1.2832031-1.9501953,3.2094727-4.9042969,5.7783203-8.8608398
		c2.5444336-3.9179688,7.2211914-10.4545898,13.9003906-19.4277344
		c6.7236328-9.0336914,11.2666016-15.1435547,13.6298828-18.3271484l0.2348633-0.3164062l-0.0439453-0.3911133
		c-0.1357422-1.2133789-0.8701172-2.3046875-2.1835938-3.2436523c-1.2470703-0.8901367-2.5048828-1.3413086-3.7382812-1.3413086
		c-5.4526367,0-14.0932617,9.7270508-26.4135742,29.7329102c-5.3887329,8.6721802-9.5947266,16.2032471-12.5914917,22.5113525
		c-14.083252,16.7284546-20.7149048,20.4442139-23.8250122,20.4442139c-0.4960938,0-1.8134766,0-2.4111328-2.7539062
		l-0.0292969-0.1074219c-0.0673828-0.2001953-0.1015625-0.4033203-0.1015625-0.6044922
		c0-3.4775391,3.1542969-9.8955078,9.3754883-19.0751953c9.7202148-14.3461914,9.7202148-14.9169922,9.7202148-15.4208984
		c0-0.8393555-0.5771484-1.7333984-1.871582-2.8999023c-1.2114258-1.0893555-2.5244141-1.6420898-3.9023438-1.6420898
		l-1.6567383,0.3325195c-0.0073242-0.0200195-0.0146484-0.0400391-0.0224609-0.0615234
		c-0.2070312-0.5654297-0.4633789-1.2607422-0.8071289-2.1669922c-1.3061523-2.7270508-3.8891602-4.1098633-7.6777344-4.1098633
		c-8.9580078,0-18.8842773,5.3569336-29.503418,15.921875c-10.6181641,10.5664062-16.0024414,19.8466797-16.0024414,27.5820312
		c0,3.7070312,1.5351562,6.7236328,4.5795898,8.9775391c2.6220703,1.859375,5.4331055,2.8017578,8.3554688,2.8017578
		c3,0,7.5234375-2.7011719,13.8623047-8.2890625l7.3608398-7.1230469c-0.0830078,0.8017578-0.1245117,1.6035156-0.1245117,2.4003906
		c0,5.4638672,2.4951172,9.1972656,7.4243164,11.0996094c5.5562134,2.0922241,13.137146-2.1329346,23.0809937-13.0623169
		c-0.2092285,1.3079834-0.3226929,2.5575562-0.3226929,3.7341919c0,3.6757812,1.340332,6.4414062,3.9824219,8.2207031
		c2.5151367,1.6972656,5.6049805,2.5576172,9.1835938,2.5576172c6.8424683,0,14.9491577-5.0507812,24.7381592-15.4155884
		c-0.3149414,1.6407471-0.4827881,3.1929932-0.4827881,4.6372681c0,3.6757812,1.340332,6.4414062,3.9824219,8.2207031
		c2.5151367,1.6972656,5.6049805,2.5576172,9.1835938,2.5576172c5.6200562,0,12.0963745-3.4192505,19.6532593-10.3778687
		c0.1869507,5.7545776,3.7318726,9.6505737,10.5220337,11.5595093c1.0229492,0.3398438,2.1655273,0.5126953,3.3959961,0.5126953
		c5.6308594,0,12.5126953-2.9130859,20.4521484-8.6591797c7.5648804-5.4748535,14.1487427-11.8076782,19.6159058-18.835144
		c1.0358276-1.2365112,2.2041016-2.6591187,3.5344849-4.3113403l10.4433594-13.5473633
		c1.6845703,2.8852539,3.7802734,4.3598633,6.2460938,4.3886719c-2.2246094,3.2070312-4.3154297,7.0244141-6.2304688,11.3803711
		c-2.3046875,5.2353516-3.4726562,10.1376953-3.4726562,14.5703125c0,9.015625,4.3398438,13.78125,12.5498047,13.78125
		c5.5107422,0,12.2548828-3.0371094,20.6376953-9.2998047c2.0101318-1.5825195,3.9158325-3.2214966,5.7303467-4.8964844
		c-0.2740479,1.406189-0.4188232,2.7275391-0.4188232,3.9570312c0,9.2275391,4.8144531,11.1640625,8.8535156,11.1640625
		c3.1005859,0,5.8232422-0.4941406,8.1191406-1.4785156c1.3300781-0.6142578,2.5087891-1.1513672,3.5341797-1.6132812
		c1.0957031-0.4941406,2.3535156-1.2851562,3.7402344-2.3515625c1.3037109-1.0029297,2.3300781-1.7724609,3.0527344-2.2890625
		c0.7578125-0.5419922,1.8525391-1.4755859,3.2539062-2.7744141c1.3808594-1.2773438,2.3251953-2.1484375,2.8388672-2.609375
		c0.5429688-0.4882812,1.5175781-1.4638672,2.8994141-2.8974609c1.3867188-1.4365234,3.2597656-3.3896484,5.6230469-5.8554688
		c0.4177246-0.4360352,0.7901001-0.8375854,1.1228638-1.2086792l0.3927612-0.4124146
		c-1.0224609,2.3095703-1.9248047,4.3974609-2.6972656,6.2412109c-1.3994141,3.3349609-2.0800781,5.9550781-2.0800781,8.0097656
		c0,2.0966797,0.4990234,3.8916016,1.4804688,5.3349609c1.0488281,1.546875,2.5869141,2.3642578,4.4472656,2.3642578
		c0.6992188,0,1.5703125,0,8.5673828-9.0107422c4.4404297-5.7158203,9.4257812-11.6826172,14.8183594-17.7353516
		c4.2314453-4.7509766,8.9892578-9.2514648,14.1875-13.425293l-7.0253906,11.4174805
		c-4.1748047,7.3046875-6.2919922,13.8964844-6.2919922,19.5917969c0,7.6992188,4.6474609,9.3154297,8.5458984,9.3154297
		c4.611145,0,11.4661255-4.7355957,20.8389893-14.4191284c-0.182312,1.0592651-0.2784424,2.0942993-0.2784424,3.1017456
		c0,3.7070312,1.5351562,6.7226562,4.5800781,8.9775391c2.6210938,1.859375,5.4326172,2.8017578,8.3554688,2.8017578
		c3.0009766,0,7.5234375-2.7011719,13.8623047-8.2890625l7.3613281-7.1230469c-0.0830078,0.8017578-0.125,1.6035156-0.125,2.4003906
		c0,5.4638672,2.4951172,9.1982422,7.4238281,11.0996094c7.4052734,2.7919922,18.4042969-5.640625,33.7998047-26.2070312
		c1.0673828-1.421875,1.5869141-2.6005859,1.5869141-3.6035156
		C578.2200928,103.9608765,576.9827881,103.805603,576.6038818,103.805603z M552.1282959,91.2352905l-15.8886719,21.8837891
		c-10.0195312,12.7246094-17.9414062,19.1767578-23.5458984,19.1767578c-0.8525391,0-2.8496094,0-2.8496094-4.5439453
		c0-6.0488281,5.1259766-13.9121094,15.2373047-23.3706055c10.1279297-9.4780273,18.2919922-14.2836914,24.2646484-14.2836914
		C550.5892334,90.0975952,551.4886475,90.461853,552.1282959,91.2352905z M315.2679443,113.8163452
		c-0.1264648,0-0.2504883-0.0039062-0.3730469-0.0107422c3.4628906-5.2958984,8.1992188-10.4414062,14.1015625-15.3144531
		c4.6171875-3.8325195,8.1591797-5.7753906,10.5273438-5.7753906c1.4150391,0,2.9267578,0.2231445,2.9267578,0.8486328
		c0,0.2797852-0.0800781,0.6210938-0.2568359,1.0693359c-1.5605469,4.6816406-5.5419922,9.0898438-11.8330078,13.1025391
		C324.0345459,111.7704468,318.9564209,113.8163452,315.2679443,113.8163452z M216.7210693,91.2352905l-15.8876953,21.8837891
		c-10.0200195,12.7246094-17.9418945,19.1767578-23.5463867,19.1767578c-0.8530273,0-2.8500977,0-2.8500977-4.5439453
		c0-6.0488281,5.1264648-13.9121094,15.2373047-23.3706055c10.1293945-9.4780273,18.2929688-14.2836914,24.2646484-14.2836914
		C215.1824951,90.0975952,216.0819092,90.461853,216.7210693,91.2352905z"/>
</g>
</svg>
