<?xml version="1.0" encoding="utf-8"?>
<!-- Generator: Adobe Illustrator 21.0.0, SVG Export Plug-In . SVG Version: 6.00 Build 0)  -->
<svg version="1.1" id="variable" xmlns="http://www.w3.org/2000/svg" xmlns:xlink="http://www.w3.org/1999/xlink" x="0px" y="0px"
	 viewBox="0 0 14 14" style="enable-background:new 0 0 14 14;" xml:space="preserve">
<path d="M14,6.5892944v0.8035889h-0.1071167c-0.7678833,0-0.8571777,0.4285278-0.8571777,0.7678223
	c0,0.3035889,0.0535889,0.625,0.1071777,0.9285889c0.0357056,0.2857056,0.0892334,0.6428223,0.0892334,0.9821167
	c0,1.0892944-0.6428223,1.6964722-1.8035278,1.6964722h-0.3571777v-0.8392944H11.375
	C11.9642944,10.9107056,12.2142944,10.625,12.2142944,10c0-0.1964111-0.0178833-0.4107056-0.0535889-0.625
	c0-0.0535889-0.0178223-0.125-0.0178223-0.1964111C12.0892944,8.875,12.0357056,8.5892944,12.0357056,8.2678833
	c0-0.7678833,0.3392944-1.125,0.6785889-1.2857666c-0.4464111-0.2142334-0.6785889-0.6428223-0.6785889-1.2857056
	c0-0.3035278,0.0535889-0.5892944,0.0892944-0.875L12.1607056,4.625c0.0357056-0.2321167,0.0535889-0.4464111,0.0535889-0.6428833
	c0-0.625-0.25-0.8928223-0.8214111-0.9107056h-0.3214722V2.2321167h0.3392944c1.1607056,0,1.8214111,0.5892944,1.8214111,1.625
	c0,0.3214722-0.0535278,0.6428833-0.0892334,0.9642944v0.0357056C13.0892944,5.1785889,13.0357056,5.5,13.0357056,5.8214111
	c0,0.3928833,0.1071777,0.7678833,0.8571777,0.7678833H14z M7.6071167,6.9285889
	C7.375,7.5892944,7.125,8.3392944,6.9464111,9.0535889c-0.1607056-0.6428833-0.375-1.3392944-0.625-2.125L5.25,3.5892944H4.125
	l2.2321167,6.8214111h1.0892944l2.4464722-6.8214111H8.75L7.6071167,6.9285889z M0.7678833,3.8571167
	c0,0.3392944,0.0535278,0.6428833,0.0892334,0.9642944v0.0357056C0.9107056,5.1785889,0.9642944,5.5,0.9642944,5.8214111
	c0,0.3928833-0.1071777,0.7678833-0.8571777,0.7678833H0v0.8035889h0.1071167c0.7678833,0,0.8571777,0.4285278,0.8571777,0.7678223
	c0,0.3035889-0.0535889,0.625-0.1071777,0.9285889C0.8214111,9.4464111,0.7678833,9.75,0.7678833,10.0714111
	c0,1.1071777,0.625,1.6964722,1.8035278,1.6964722h0.3571777v-0.8392944H2.6071167
	c-0.5714111,0-0.8214111-0.2857056-0.8214111-0.9285889c0-0.2678833,0.0357056-0.5178833,0.0714111-0.8214111
	c0.0714722-0.3392944,0.0892944-0.625,0.0892944-0.9107056C1.9642944,7.5,1.625,7.1428833,1.2678833,6.9821167
	c0.4642334-0.2142334,0.6964111-0.6428223,0.6785278-1.2857056c0-0.3392944-0.0357056-0.625-0.0892944-0.8928223
	C1.8035889,4.4642944,1.7857056,4.2142944,1.7857056,3.9821167c0-0.6428223,0.25-0.9107056,0.8214111-0.9107056h0.3214722V2.2321167
	H2.5714111C1.4285889,2.2321167,0.7678833,2.8214111,0.7678833,3.8571167z"/>
</svg>
