<?xml version="1.0" encoding="utf-8"?>

<!--
 ~   Copyright 2017, WSO2 Inc. (http://www.wso2.com)
 ~
 ~   Licensed under the Apache License, Version 2.0 (the "License");
 ~   you may not use this file except in compliance with the License.
 ~   You may obtain a copy of the License at
 ~
 ~        http://www.apache.org/licenses/LICENSE-2.0
 ~
 ~   Unless required by applicable law or agreed to in writing, software
 ~   distributed under the License is distributed on an "AS IS" BASIS,
 ~   WITHOUT WARRANTIES OR CONDITIONS OF ANY KIND, either express or implied.
 ~   See the License for the specific language governing permissions and
 ~   limitations under the License.
-->

<svg version="1.1" id="api" xmlns="http://www.w3.org/2000/svg" xmlns:xlink="http://www.w3.org/1999/xlink" x="0px" y="0px"
	 viewBox="0 0 14 14" style="enable-background:new 0 0 14 14;" xml:space="preserve">
<path d="M14,5.5999999l-1.3999996-0.1999998C12.3999996,5,12.1999998,4.5999999,12,4.0999999L12.8999996,3L11,1.1L9.8999996,2
	C9.5,1.8,9,1.6,8.5,1.4L8.3999996,0H5.6999998L5.5,1.4C5,1.6,4.5999999,1.8,4.0999999,2L2.9000001,1.1L1.1,3L2,4.1999998
	C1.8,4.5999999,1.6,5.0999999,1.5,5.5L0,5.6999998v2.5999994L1.5,8.499999C1.7,9,1.8,9.3999996,2.0999999,9.8000002l-1,1.1999998
	L3,12.8999996l1.1999998-1C4.5999999,12.0999994,5,12.2999992,5.5,12.3999996L5.5999999,14h2.5999999l0.1999998-1.5
	c0.5-0.1000004,0.8999996-0.3000002,1.3999996-0.5l1.1999998,1l1.8999996-1.8999996L12,9.8000002
	C12.1999998,9.4000006,12.3999996,8.9000006,12.6000004,8.5L14,8.3000002V5.5999999z M6.9999995,11.4526091
	c-2.4978051,0-4.4526091-1.9548035-4.4526091-4.4526086s1.9548039-4.45261,4.4526091-4.45261
	s4.4526095,1.9548039,4.4526095,4.4526091S9.4978056,11.4526091,6.9999995,11.4526091z M6.6308594,8.5957031H5.9296875
	L5.6513672,7.8710938H4.3754883L4.1123047,8.5957031H3.4287109L4.671875,5.4042969h0.6811523L6.6308594,8.5957031z
	 M5.4443359,7.3330078l-0.4394531-1.184082l-0.4311523,1.184082H5.4443359z M6.9726562,8.5957031V5.4042969h1.0341797
	c0.3916016,0,0.6474609,0.0161133,0.7666016,0.0478516c0.1826172,0.0483398,0.3359375,0.1523438,0.4589844,0.3125
	c0.1230469,0.1606445,0.1845703,0.3676758,0.1845703,0.621582c0,0.1958008-0.0351562,0.3608398-0.1064453,0.4936523
	C9.2392578,7.0136719,9.1494141,7.1181641,9.0400391,7.1943359C8.9296875,7.2705078,8.8183594,7.3212891,8.7050781,7.3466797
	C8.5517578,7.3759766,8.3291016,7.3916016,8.0371094,7.3916016H7.6171875v1.2041016H6.9726562z M7.6171875,5.9443359v0.90625
	h0.3525391c0.2539062,0,0.4238281-0.0175781,0.5097656-0.0507812c0.0849609-0.0332031,0.1523438-0.0854492,0.2011719-0.1567383
	s0.0732422-0.1538086,0.0732422-0.2480469c0-0.1162109-0.0341797-0.2119141-0.1025391-0.2875977
	C8.5830078,6.0322266,8.4960938,5.9848633,8.3916016,5.9663086C8.3154297,5.9516602,8.1601562,5.9443359,7.9287109,5.9443359
	H7.6171875z M9.9267578,8.5957031V5.4042969h0.6445312v3.1914062H9.9267578z"/>
</svg>
