<?xml version="1.0" encoding="utf-8"?>

<!--
 ~   Copyright 2017, WSO2 Inc. (http://www.wso2.com)
 ~
 ~   Licensed under the Apache License, Version 2.0 (the "License");
 ~   you may not use this file except in compliance with the License.
 ~   You may obtain a copy of the License at
 ~
 ~        http://www.apache.org/licenses/LICENSE-2.0
 ~
 ~   Unless required by applicable law or agreed to in writing, software
 ~   distributed under the License is distributed on an "AS IS" BASIS,
 ~   WITHOUT WARRANTIES OR CONDITIONS OF ANY KIND, either express or implied.
 ~   See the License for the specific language governing permissions and
 ~   limitations under the License.
-->

<svg version="1.1" id="bpel" xmlns="http://www.w3.org/2000/svg" xmlns:xlink="http://www.w3.org/1999/xlink" x="0px" y="0px"
	 viewBox="0 0 14 14" style="enable-background:new 0 0 14 14;" xml:space="preserve">
<path d="M11.6279297,8.1164551v-1.748291h-0.2314453h-0.9677734H7.5996094V5.8835449
	c1.3522949-0.2780151,2.3720703-1.4779053,2.3720703-2.911377C9.9716797,1.3334961,8.6391602,0,7.0004883,0
	s-2.972168,1.3334961-2.972168,2.972168c0,1.4329834,1.0197754,2.6323242,2.371582,2.9109497v0.4850464h-2.828125H2.6713867
	H2.371582v1.7487183C1.0197754,8.3955078,0,9.5948486,0,11.027832C0,12.6665039,1.3334961,14,2.972168,14
	s2.9711914-1.3334961,2.9711914-2.972168c0-1.4332886-1.0195312-2.6329956-2.371582-2.9112549V7.5683594h6.8569336v0.5484009
	C9.0766602,8.3951416,8.0566406,9.5946655,8.0566406,11.027832C8.0566406,12.6665039,9.3901367,14,11.0288086,14
	S14,12.6665039,14,11.027832C14,9.5943604,12.9802246,8.3944702,11.6279297,8.1164551z M5.2285156,2.972168
	c0-0.9770508,0.7949219-1.7719727,1.7719727-1.7719727S8.7719727,1.9951172,8.7719727,2.972168
	S7.9775391,4.7441406,7.0004883,4.7441406S5.2285156,3.9492188,5.2285156,2.972168z M4.7436523,11.027832
	c0,0.9770508-0.7944336,1.7719727-1.7714844,1.7719727s-1.7719727-0.7949219-1.7719727-1.7719727
	S1.9951172,9.2558594,2.972168,9.2558594S4.7436523,10.0507812,4.7436523,11.027832z M11.0288086,12.7998047
	c-0.9770508,0-1.7719727-0.7949219-1.7719727-1.7719727s0.7949219-1.7719727,1.7719727-1.7719727
	s1.7714844,0.7949219,1.7714844,1.7719727S12.0058594,12.7998047,11.0288086,12.7998047z"/>
</svg>
