<?xml version="1.0" encoding="utf-8"?>

<!--
 ~   Copyright 2017, WSO2 Inc. (http://www.wso2.com)
 ~
 ~   Licensed under the Apache License, Version 2.0 (the "License");
 ~   you may not use this file except in compliance with the License.
 ~   You may obtain a copy of the License at
 ~
 ~        http://www.apache.org/licenses/LICENSE-2.0
 ~
 ~   Unless required by applicable law or agreed to in writing, software
 ~   distributed under the License is distributed on an "AS IS" BASIS,
 ~   WITHOUT WARRANTIES OR CONDITIONS OF ANY KIND, either express or implied.
 ~   See the License for the specific language governing permissions and
 ~   limitations under the License.
-->

<svg version="1.1" id="build" xmlns="http://www.w3.org/2000/svg" xmlns:xlink="http://www.w3.org/1999/xlink" x="0px" y="0px"
	 viewBox="0 0 14 14" style="enable-background:new 0 0 14 14;" xml:space="preserve">
<path d="M10.8278809,9.2683105c-0.7841187-0.7438965-1.585022-1.5037231-2.3877563-2.2637939l0.0230103-0.0363159
	C8.4771729,6.946106,8.4887085,6.9255371,8.4988403,6.9073486c0.0092163-0.0164795,0.0217896-0.0390015,0.0274658-0.0452271
	c0.6008301-0.6036987,1.213562-1.2161255,1.8060913-1.8083496l0.1365967-0.1365356
	c0.0390015-0.0391235,0.0601807-0.057373,0.0715332-0.065918c0.0129395,0.00354,0.0372314,0.0119629,0.0828247,0.0314331
	c0.4702759,0.2018433,0.9638062,0.2537231,1.46698,0.1544189c0.6556396-0.1294556,1.2321167-0.5482178,1.5814209-1.1487427
	c0.3430786-0.5898438,0.4214478-1.2826538,0.2150879-1.9008179l-0.0975342-0.2922974c0,0-1.1528931,1.1327515-1.3786011,1.3571777
	c-0.1678467,0.166626-0.3233643,0.1672363-0.489563,0.0018311c-0.2459717-0.244751-0.4705811-0.4695435-0.6868286-0.6873779
	c-0.1781006-0.1790771-0.1782227-0.331604-0.0003662-0.5100708C11.4354248,1.65448,12.645874,0.4102173,12.645874,0.4102173
	l-0.3727417-0.0514526c-0.0693359-0.0095825-0.1358643-0.0205078-0.2001953-0.0310669
	c-0.1402588-0.0230103-0.2727661-0.0447388-0.4105225-0.0491333c-0.8129883-0.0269165-1.5773926,0.3604736-2.0430908,1.0365601
	c-0.4690552,0.6809692-0.559021,1.5401001-0.2406006,2.2982788c0.015625,0.0371094,0.0400391,0.0952148,0.0487671,0.1255493
	C9.4077148,3.7640381,9.3623657,3.8094482,9.333374,3.8384399L7.3892212,5.7832031
	C7.3644409,5.8081055,7.3405151,5.8338013,7.3153076,5.8609009C7.3037109,5.8733521,7.2918701,5.8861084,7.27948,5.899231
	L7.2755737,5.9033203C7.1932983,5.8256226,7.1109009,5.7477417,7.0287476,5.6702271
	C6.9196777,5.5675049,6.7619629,5.5014648,6.6262207,5.5014648H6.6236572
	C6.5431519,5.5019531,6.5039673,5.4868774,6.4542236,5.4367676C5.8795166,4.8582764,5.2931519,4.272583,4.7261353,3.7062378
	L4.3114624,3.2921143c-0.024353-0.0244141-0.0490112-0.0465698-0.0708008-0.0661621L4.2110596,3.1989136
	c0.0645142-0.0643921,0.1289673-0.1286621,0.1935425-0.1931152l0.2832642-0.2826538L4.5751343,2.5847778
	C4.5497437,2.5536499,4.4725342,2.4589233,4.5635986,2.2612915C4.645874,2.0826416,4.7235107,1.9484863,4.8078613,1.8391724
	c0.4069214-0.5264893,0.9328003-0.9714966,1.5628662-1.3223877c0.0296021-0.0164185,0.0587158-0.0338135,0.0975952-0.0570679
	c0.0170898-0.0101929,0.0362549-0.0216675,0.0584106-0.0348511l0.6196289-0.3671875H6.4260864
	c-0.0349121,0-0.0648804-0.0004272-0.0916138-0.0007935C6.2816162,0.0561523,6.2359619,0.055542,6.1891479,0.0585938
	C5.197937,0.1212158,4.3170776,0.5131836,3.5709839,1.2235718c-0.4456787,0.4246216-0.8856201,0.868103-1.3111572,1.2969971
	c-0.180603,0.1820068-0.3673096,0.3702393-0.5516357,0.5541992c-0.0261841,0.026062-0.0407104,0.0522461-0.048584,0.0662842
	L1.602417,3.2294312l0.0424805,0.0973511c0.0779419,0.1785889,0.0632935,0.2602539-0.0714111,0.3973999
	C1.4794312,3.8200073,1.3792114,3.921814,1.2785645,4.0187988c-0.1456299,0.1396484-0.2493896,0.1240845-0.338562,0.086853
	C0.8538208,4.0690308,0.7161865,4.0739746,0.6305542,4.1557617C0.4970703,4.2841187,0.3671265,4.4145508,0.2414551,4.5406494
	L0,4.7823486l1.3421021,1.3407593l0.1395264-0.1415405C1.5213013,5.9413452,1.5610962,5.9012451,1.6008301,5.861145
	c0.1176758-0.1187134,0.2393188-0.241394,0.3570557-0.3664551c0.0826416-0.0883789,0.088501-0.2296143,0.0524292-0.3165894
	c-0.0490112-0.1201172-0.027832-0.2130737,0.0731812-0.3208618c0.0460815-0.0491333,0.0942383-0.0964966,0.1452637-0.1466675
	c0.0466309-0.0458374,0.0947876-0.0931396,0.1416626-0.142395c0.1750488-0.18396,0.2921143-0.1596069,0.3835449-0.1114502
	l0.128479,0.0675659l0.1028442-0.1025391c0.1375122-0.137146,0.274353-0.2736206,0.4108887-0.4098511l0.0408325,0.0428467
	c0.0222778,0.0236816,0.0456543,0.0484009,0.069519,0.0723267c0.1630859,0.163269,0.3262939,0.326416,0.4894409,0.489624
	c0.5385742,0.5384521,1.095459,1.0953369,1.6389771,1.6466675c0.0326538,0.0330811,0.0561523,0.0829468,0.0579224,0.102478
	c-0.0119629,0.1845093,0.0440063,0.335144,0.1760864,0.473877c0.09198,0.0963745,0.1843262,0.1932983,0.2766113,0.2902832
	L6.1356201,7.1451416C6.1221924,7.1656494,6.1102295,7.1858521,6.098938,7.2052612
	c-0.0101318,0.0172729-0.0239258,0.0408936-0.0298462,0.046936C5.3860474,7.9377441,4.7003174,8.62323,4.0372925,9.2860107
	c-0.036377,0.0362549-0.0562744,0.0534668-0.0671387,0.0614624C3.9567871,9.3439941,3.9307861,9.335144,3.8807373,9.3137817
	C3.164917,9.008606,2.3745117,9.0519409,1.7122192,9.4326782c-0.6619263,0.3804932-1.0969238,1.0413818-1.1934204,1.8132324
	c-0.0432129,0.3449707-0.0011597,0.6652832,0.128418,0.9793701l0.09375,0.2271729c0,0,1.0683594-1.0187988,1.3690186-1.3167725
	c0.1491699-0.1477661,0.3069458-0.1486816,0.4575806-0.0085449c0.2088623,0.2158203,0.4909668,0.5111694,0.7141113,0.7454834
	c0.149353,0.1569214,0.1466675,0.319458-0.0078735,0.4699707c-0.3032837,0.2952881-1.3410645,1.3452148-1.3410645,1.3452148
	l0.2254639,0.0978394c0.3117065,0.1351929,0.6312866,0.1829224,0.9769897,0.1459351
	c0.6693115-0.0715942,1.24823-0.4095459,1.649353-0.9205933c0.0011597,0.0011597,0.0029297,0.001709,0.0040894,0.0028687
	c0.015625-0.0198364,0.0271606-0.0432129,0.0424805-0.0633545c0.0449219-0.0611572,0.0988159-0.1137695,0.1383057-0.1797485
	c0.015564-0.026001,0.0221558-0.0550537,0.0366821-0.0814819c0.010498-0.0183716,0.0252075-0.0333862,0.0350342-0.0522461
	c0.0315552-0.0604858,0.0469971-0.1257324,0.0731812-0.1879272c0.0346069-0.0834351,0.072998-0.164917,0.0977783-0.2510376
	c0.036377-0.1226807,0.0550537-0.2473755,0.0714722-0.3731689c0.0054932-0.0452881,0.0177002-0.0892944,0.0205688-0.1348267
	c0.027771-0.3771973-0.026123-0.7590332-0.1773071-1.1172485c-0.0102539-0.024231-0.0351562-0.0830078-0.0431519-0.1126709
	c0.0187988-0.0248413,0.0648804-0.0710449,0.0837402-0.0899658c0.6644897-0.6644287,1.3289185-1.3288574,1.9935913-1.9940796
	C7.1862793,8.3505859,7.210144,8.324585,7.2332153,8.2994385c0.0036011-0.0039062,0.0075073-0.0080566,0.0111694-0.012085
	l1.8207397,1.9202271C10.0822144,11.2802734,11.5825195,12.9274292,12.5999756,14L14,12.2784424L10.8278809,9.2683105z"/>
</svg>
