<?xml version="1.0" encoding="utf-8"?>

<!--
 ~   Copyright 2017, WSO2 Inc. (http://www.wso2.com)
 ~
 ~   Licensed under the Apache License, Version 2.0 (the "License");
 ~   you may not use this file except in compliance with the License.
 ~   You may obtain a copy of the License at
 ~
 ~        http://www.apache.org/licenses/LICENSE-2.0
 ~
 ~   Unless required by applicable law or agreed to in writing, software
 ~   distributed under the License is distributed on an "AS IS" BASIS,
 ~   WITHOUT WARRANTIES OR CONDITIONS OF ANY KIND, either express or implied.
 ~   See the License for the specific language governing permissions and
 ~   limitations under the License.
-->

<svg version="1.1" id="dashboard" xmlns="http://www.w3.org/2000/svg" xmlns:xlink="http://www.w3.org/1999/xlink" x="0px" y="0px"
	 viewBox="0 0 14 14" style="enable-background:new 0 0 14 14;" xml:space="preserve">
<path d="M7.1842818,5.6735525l3.0746531-2.4686034c0,0,0.3169107-0.3293753,0.5858431-0.0739305
	c0.1068401,0.0900171,0.2244797,0.2918234-0.0491524,0.5654557c-0.2627001,0.2626994-2.3151875,2.975363-2.479537,3.1927631
	c0.0048838,0.047226,0.0142937,0.0931525,0.0142937,0.1416774c0,0.7626929-0.6183271,1.3810201-1.3810201,1.3810201
	c-0.7627378,0-1.3810201-0.6183271-1.3810201-1.3810201c0-0.7627378,0.6182823-1.3810201,1.3810201-1.3810201
	C7.0298343,5.6498947,7.107573,5.6603346,7.1842818,5.6735525z M6.9493623,6.4287181
	c-0.3325973,0-0.6021967,0.2695994-0.6021967,0.6021967c0,0.3325524,0.2695994,0.6021523,0.6021967,0.6021523
	c0.3325524,0,0.6021519-0.2695999,0.6021519-0.6021523C7.5515141,6.6983175,7.2819147,6.4287181,6.9493623,6.4287181z M7,1.1999998
	c3.1981297,0,5.8000002,2.6018705,5.8000002,5.8000002S10.1981297,12.8000002,7,12.8000002S1.2,10.1981297,1.2,7
	S3.8018701,1.1999998,7,1.1999998 M7,0C3.1340101,0,0,3.1340103,0,7s3.1340101,7,7,7s7-3.1340103,7-7S10.8659897,0,7,0L7,0z
	 M12.1187067,6.6587529h-1.0776224C11.0500641,6.7665153,11.0590439,6.8832574,11.0590439,7
	c0,0.0987821,0,0.1885839-0.0089798,0.2873659h1.0686426C12.1366663,7.1975641,12.1366663,7.0987821,12.1366663,7
	C12.1366663,6.8832574,12.1366663,6.7754955,12.1187067,6.6587529z M10.6369753,8.7780771l1.014761,0.3951283
	C11.741538,8.984621,11.82236,8.7870569,11.8852215,8.5894928l-1.0057812-0.3951283
	C10.8165789,8.4009094,10.7357578,8.5894928,10.6369753,8.7780771z M11.5619345,4.6382108L10.565134,5.0782399
	c0.1077623,0.1796041,0.1885843,0.3771682,0.2604256,0.5747323l0.9878206-0.4310493
	C11.741538,5.0243587,11.660717,4.8267951,11.5619345,4.6382108z M10.8435202,10.3945103L10.080204,9.6311951
	c-0.1347027,0.161643-0.2873659,0.3143063-0.4490089,0.4490089l0.7633152,0.7633162
	C10.5561543,10.7088175,10.7088175,10.5561543,10.8435202,10.3945103z M8.3200874,10.8345394L8.7511368,11.82236
	c0.1975641-0.0628614,0.3951283-0.1526632,0.5837116-0.2514448l-0.4310493-0.9878206
	C8.7152157,10.6818762,8.5266314,10.7626982,8.3200874,10.8345394z M8.5535727,2.1057985L8.1674242,3.1115792
	c0.2065439,0.0628614,0.3951283,0.143683,0.5837126,0.233485L9.146265,2.330303
	C8.9576807,2.2405012,8.7601166,2.1686597,8.5535727,2.1057985z M7,11.0590439c-0.1077623,0-0.2065444,0-0.3143067-0.0179596
	v1.0776224C6.7844753,12.1366663,6.8922377,12.1366663,7,12.1366663s0.2155247,0,0.3143067-0.0179596v-1.0776224
	C7.2065444,11.0590439,7.1077623,11.0590439,7,11.0590439z M7,1.8633333c-0.1077623,0-0.2155247,0-0.3143067,0.0179603v1.0776225
	C6.7934556,2.9409556,6.8922377,2.9409556,7,2.9409556s0.2065444,0,0.3143067,0.0179605V1.8812937
	C7.2155247,1.8633333,7.1077623,1.8633333,7,1.8633333z M5.2488637,10.6549358l-0.3951283,1.014761
	c0.1885839,0.0898018,0.386148,0.161644,0.5926924,0.2245045l0.386148-1.0057802
	C5.6260314,10.8255596,5.4374475,10.7447376,5.2488637,10.6549358z M4.6651516,2.429085l0.4310489,0.9878206
	c0.1885839-0.0987821,0.3771677-0.1796038,0.5837121-0.2514453L5.2488637,2.17764
	C5.0512996,2.2405012,4.8537354,2.330303,4.6651516,2.429085z M3.9377563,9.6491547l-0.7543356,0.772296
	c0.1257226,0.161644,0.2783859,0.3053265,0.4400291,0.4400291l0.7633162-0.772296
	C4.2251225,9.9634619,4.0724592,9.8107986,3.9377563,9.6491547z M3.1564801,3.6054895L3.919796,4.3688054
	C4.0544987,4.2071619,4.2071619,4.0544987,4.3688054,3.919796L3.6054895,3.1564801
	C3.4438462,3.291183,3.291183,3.4438462,3.1564801,3.6054895z M3.1744406,8.3470278L2.18662,8.7780771
	c0.0718415,0.1975641,0.1526632,0.3951283,0.2514453,0.5837116L3.434866,8.9217596
	C3.3271036,8.742156,3.2462821,8.5445919,3.1744406,8.3470278z M2.1147785,5.4105072L3.1205595,5.805635
	c0.0628612-0.2065439,0.143683-0.3951278,0.242465-0.5837121l-1.014761-0.3951278
	C2.2584615,5.015379,2.17764,5.2129431,2.1147785,5.4105072z M2.9499359,6.7126341H1.8812937
	C1.8633333,6.8024359,1.8633333,6.9012179,1.8633333,7c0,0.1167426,0,0.2245045,0.0179603,0.3412471h1.0776225
	C2.9499359,7.2334847,2.9409556,7.1167426,2.9409556,7C2.9409556,6.9012179,2.9409556,6.8114161,2.9499359,6.7126341z"/>
</svg>
