<?xml version="1.0" encoding="utf-8"?>

<!--
 ~   Copyright 2017, WSO2 Inc. (http://www.wso2.com)
 ~
 ~   Licensed under the Apache License, Version 2.0 (the "License");
 ~   you may not use this file except in compliance with the License.
 ~   You may obtain a copy of the License at
 ~
 ~        http://www.apache.org/licenses/LICENSE-2.0
 ~
 ~   Unless required by applicable law or agreed to in writing, software
 ~   distributed under the License is distributed on an "AS IS" BASIS,
 ~   WITHOUT WARRANTIES OR CONDITIONS OF ANY KIND, either express or implied.
 ~   See the License for the specific language governing permissions and
 ~   limitations under the License.
-->

<svg version="1.1" id="depend" xmlns="http://www.w3.org/2000/svg" xmlns:xlink="http://www.w3.org/1999/xlink" x="0px" y="0px"
	 viewBox="0 0 14 14" style="enable-background:new 0 0 14 14;" xml:space="preserve">
<path d="M7.8204956,8.5598145C7.5221558,8.6251221,7.2234497,8.4381104,7.1554565,8.1286621
	C7.0001831,7.4225464,6.8526001,6.7147827,6.701355,6.0077515C6.694397,5.9752197,6.6820679,5.9437866,6.6722412,5.9118042
	c-0.006897,0.0028687-0.013855,0.0057373-0.020752,0.0085449c0,2.4254761,0.0003662,4.8509521-0.0012817,7.2763672
	c-0.000061,0.1053467-0.0032349,0.2150879-0.0317383,0.3150635c-0.0947876,0.3324585-0.4129639,0.5251465-0.7655029,0.4764404
	c-0.3232422-0.0446167-0.5753174-0.3341675-0.5773926-0.6801758c-0.0042114-0.6937256-0.0015869-1.3874512-0.0016479-2.0811768
	c0-0.6987915,0.0001221-1.397583,0.0001831-2.0963745c0-0.0493164,0-0.0986328,0-0.1564941c-0.15448,0-0.2937622,0-0.4535522,0
	c0,0.0736084,0,0.1427002,0,0.211792c-0.000061,1.3672485,0.0015259,2.734436-0.0010986,4.1016235
	c-0.0009766,0.5073242-0.4667969,0.838562-0.9276123,0.6668091c-0.2764282-0.1030884-0.4437866-0.3540649-0.4439697-0.6762085
	c-0.0010376-1.4937744-0.0006714-2.9875488-0.0007324-4.4813232c-0.000061-0.9362183,0-1.8724976-0.0241089-2.8126221
	C3.3505859,6.3227539,3.2781372,6.661438,3.2057495,7.0001221c-0.078186,0.3659058-0.152832,0.732605-0.2354126,1.0974731
	C2.8942261,8.4336548,2.6082764,8.6270142,2.2994995,8.5601807c-0.333313-0.0721436-0.5132446-0.3620605-0.4390259-0.7119751
	C2.1550293,6.458313,2.4521484,5.0689697,2.7439575,3.6784668c0.0478516-0.2281494,0.1654053-0.4054565,0.381958-0.4710083
	c0.3513794-0.1063843,0.7086182-0.2129517,1.0710449-0.2590332C5.0205078,2.843689,5.8440552,2.8674316,6.6531982,3.079895
	c0.1309814,0.0343628,0.258667,0.0870361,0.382019,0.1438599c0.1862183,0.0858154,0.2973022,0.2345581,0.3400269,0.4375
	c0.2971802,1.4100952,0.5974121,2.819458,0.8934326,4.2297974C8.3341064,8.2028809,8.1356201,8.4907837,7.8204956,8.5598145z
	 M5.0147705,2.473877c0.7094116,0.0089722,1.2626343-0.5255737,1.2719727-1.2289429
	C6.2957153,0.564209,5.7484741,0.0085449,5.06073,0.0001221C4.3840942-0.0082397,3.8218994,0.53479,3.8116455,1.206604
	C3.8010254,1.8981934,4.3394775,2.465332,5.0147705,2.473877z M12.1482544,10.1448975
	c-0.1867676-0.8899536-0.3762207-1.7793579-0.5637817-2.6691895c-0.0269775-0.1280518-0.0971069-0.2219238-0.2145996-0.276062
	c-0.0778198-0.0358887-0.1583862-0.0690918-0.2410889-0.0908203c-0.5105591-0.1340942-1.0302734-0.1490479-1.5499878-0.0829468
	C9.3500977,7.0549316,9.1246338,7.1221924,8.9028931,7.1893311C8.7662354,7.2307129,8.6920776,7.3425903,8.6618652,7.4865723
	c-0.1841431,0.8774414-0.3716431,1.7542114-0.5575562,2.6312866c-0.0467529,0.2208862,0.0667725,0.4038086,0.2770996,0.4493408
	c0.1948242,0.0421753,0.3753052-0.079834,0.4233398-0.2919312c0.052124-0.2302856,0.0992432-0.4616699,0.1485596-0.6925659
	c0.0456543-0.2137451,0.0913696-0.4274292,0.137085-0.6411743c0.0151978,0.5932617,0.0151978,1.184082,0.0152588,1.7749023
	c0,0.942688-0.0002441,1.8853149,0.0004272,2.8280029c0.0001221,0.2032471,0.1057129,0.3616333,0.2802124,0.4266968
	c0.2907715,0.1083984,0.5847168-0.100647,0.5853271-0.4208374c0.001709-0.8627319,0.0006714-1.7255249,0.0007324-2.5883179
	c0-0.0435791,0-0.0872192,0-0.133606c0.100769,0,0.1887207,0,0.2861938,0c0,0.036438,0,0.0675659,0,0.0986938
	c-0.000061,0.440979-0.0001221,0.881958-0.0001221,1.322937c0,0.4378052-0.0016479,0.8755493,0.0010376,1.3133545
	c0.0013428,0.2183228,0.1604004,0.401062,0.3643799,0.4291992c0.2224731,0.0307617,0.4232178-0.0908203,0.4830322-0.3006592
	c0.0180054-0.0631104,0.0200195-0.1323242,0.0200806-0.1987915c0.0010376-1.5305786,0.0007935-3.0611572,0.0007935-4.5917969
	c0.0043335-0.00177,0.008728-0.0036011,0.0130615-0.0053711c0.0062256,0.0201416,0.0139771,0.039978,0.0183716,0.0605469
	c0.095459,0.446167,0.1885986,0.8928223,0.2865601,1.3383789c0.0429688,0.1953125,0.2314453,0.3132935,0.4196777,0.2720947
	C12.0643311,10.5233765,12.1895752,10.3416748,12.1482544,10.1448975z M10.0948486,6.7264404
	c0.4476929,0.0056763,0.796814-0.331665,0.8027344-0.7755737c0.0056763-0.4295654-0.3397217-0.7802124-0.7736816-0.7855225
	c-0.427002-0.005249-0.7817993,0.3374023-0.788269,0.7613525C9.3289795,6.3630981,9.6687622,6.7210083,10.0948486,6.7264404z"/>
</svg>
