<?xml version="1.0" encoding="utf-8"?>

<!--
 ~   Copyright 2017, WSO2 Inc. (http://www.wso2.com)
 ~
 ~   Licensed under the Apache License, Version 2.0 (the "License");
 ~   you may not use this file except in compliance with the License.
 ~   You may obtain a copy of the License at
 ~
 ~        http://www.apache.org/licenses/LICENSE-2.0
 ~
 ~   Unless required by applicable law or agreed to in writing, software
 ~   distributed under the License is distributed on an "AS IS" BASIS,
 ~   WITHOUT WARRANTIES OR CONDITIONS OF ANY KIND, either express or implied.
 ~   See the License for the specific language governing permissions and
 ~   limitations under the License.
-->

<svg version="1.1" id="Layer_1" xmlns="http://www.w3.org/2000/svg" xmlns:xlink="http://www.w3.org/1999/xlink" x="0px" y="0px"
	 viewBox="0 0 14 14" style="enable-background:new 0 0 14 14;" xml:space="preserve">
<path d="M5.2472858,10.433938c-0.4950814,0.595129-0.994823,1.0316095-1.4992247,1.3100367
	c-0.5045009,0.2784271-1.0376577,0.4176407-1.5991728,0.4176407c-0.6758409,0-1.202949-0.1901789-1.5813248-0.5711327
	C0.1891879,11.2097273,0,10.6980867,0,10.055562c0-0.7281942,0.2034662-1.4444904,0.6103985-2.1488881
	c0.4069324-0.7042985,0.9541692-1.2767205,1.6420078-1.716969c0.6877394-0.4401493,1.3623905-0.6603727,2.0239527-0.6603727
	c0.5186801,0,0.9066739,0.1082773,1.1636839,0.324832c0.25701,0.2166538,0.3855147,0.4818935,0.3855147,0.7960167
	c0,0.2951846-0.0904293,0.5473361-0.2712879,0.7567515C5.4210052,7.5687532,5.2568045,7.6496639,5.0616674,7.6496639
	c-0.147543,0-0.2701974-0.0474954-0.3676672-0.1427832C4.5964317,7.4116917,4.5476475,7.2927055,4.5476475,7.1499224
	c0-0.0903301,0.017848-0.1737194,0.0535436-0.2498708c0.035696-0.0760517,0.1094675-0.1677704,0.2213144-0.2748575
	c0.1117477-0.1070876,0.1795697-0.1844287,0.2034659-0.2320232c0.0237975-0.0474949,0.035696-0.0974693,0.035696-0.1499224
	c0-0.0999479-0.0453138-0.1831393-0.1356444-0.2498708C4.7879004,5.8981891,4.5928621,5.8505945,4.3406119,5.8505945
	c-0.4665246,0-0.9280915,0.1642008-1.3849981,0.4926023S2.1084332,7.138123,1.784791,7.7424731
	C1.3945167,8.4754276,1.1993796,9.20858,1.1993796,9.9413357c0,0.4854631,0.1380239,0.8699865,0.4140716,1.1529751
	c0.2759485,0.2831869,0.6520437,0.4247799,1.127988,0.4247799c0.366477,0,0.7292855-0.0916195,1.0887225-0.2748575
	c0.3593378-0.1830406,0.7627006-0.5150118,1.2100883-0.9959135L5.2472858,10.433938z M14,1.8383844l-2.4558725,8.4242134
	c-0.1332645,0.4569063-0.1998968,0.7567511-0.1998968,0.8995342c0,0.047595,0.0202284,0.0928097,0.0606833,0.1356449
	c0.0402565,0.0428343,0.0820999,0.0642519,0.1249352,0.0642519c0.0616751,0,0.135644-0.0309362,0.2213144-0.0928087
	c0.161623-0.1142273,0.4329109-0.3997936,0.8138647-0.8566999l0.2427311,0.1499224
	c-0.34268,0.4759445-0.6889286,0.8614597-1.0387478,1.1565447c-0.3498192,0.2950859-0.6772289,0.4426279-0.9816351,0.4426279
	c-0.1618214,0-0.2952843-0.0571127-0.3997936-0.17134c-0.1047077-0.1142263-0.1570616-0.2758493-0.1570616-0.4854631
	c0-0.2712879,0.0713921-0.6353855,0.2141752-1.0922918l0.2784271-0.8852568
	c-0.6901188,1.0663137-1.3183651,1.8038292-1.8847389,2.2131414c-0.390275,0.2808065-0.7638912,0.4212103-1.1208491,0.4212103
	c-0.3617177,0-0.6772289-0.1606312-0.9460382-0.4818935c-0.2689085-0.3212624-0.4033628-0.7577429-0.4033628-1.3100367
	c0-0.709157,0.2259741-1.4659081,0.6782203-2.2702541C7.4986014,7.2951846,8.095911,6.6406622,8.8383846,6.1361613
	c0.5854111-0.4044538,1.1232281-0.6068292,1.613451-0.6068292c0.2570095,0,0.4783239,0.052453,0.6639423,0.1570616
	c0.1856184,0.1047077,0.3686581,0.2784276,0.549715,0.5211592l0.6996384-2.4844294
	c0.0523539-0.1760001,0.0951891-0.3165028,0.1285048-0.4212105c0.0571136-0.1902785,0.0856705-0.3473401,0.0856705-0.471185
	c0-0.0999482-0.035696-0.1831393-0.1070881-0.2498705c-0.0999479-0.0809107-0.2284527-0.1213658-0.3855143-0.1213658
	c-0.1096659,0-0.2903261,0.016757-0.5425768,0.049974v-0.264149L14,1.8383844z M11.3513699,6.9071908
	c0-0.3045053-0.0882473-0.5497155-0.2641487-0.7353339c-0.1760998-0.1856184-0.3997936-0.2784271-0.6710815-0.2784271
	c-0.5996895,0-1.2243662,0.4950809-1.8740301,1.4849458c-0.6496644,0.989964-0.9744964,1.9372916-0.9744964,2.8413873
	c0,0.3569584,0.0785308,0.6294365,0.2355924,0.8174343c0.1570616,0.1881962,0.3450594,0.2819967,0.5639944,0.2819967
	c0.4949818,0,1.1160889-0.5354366,1.8633213-1.6063118C10.9775553,8.6420078,11.3513699,7.7067771,11.3513699,6.9071908z"/>
</svg>
