<?xml version="1.0" encoding="utf-8"?>

<!--
 ~   Copyright 2017, WSO2 Inc. (http://www.wso2.com)
 ~
 ~   Licensed under the Apache License, Version 2.0 (the "License");
 ~   you may not use this file except in compliance with the License.
 ~   You may obtain a copy of the License at
 ~
 ~        http://www.apache.org/licenses/LICENSE-2.0
 ~
 ~   Unless required by applicable law or agreed to in writing, software
 ~   distributed under the License is distributed on an "AS IS" BASIS,
 ~   WITHOUT WARRANTIES OR CONDITIONS OF ANY KIND, either express or implied.
 ~   See the License for the specific language governing permissions and
 ~   limitations under the License.
-->

<svg version="1.1" id="dmg-connector" xmlns="http://www.w3.org/2000/svg" xmlns:xlink="http://www.w3.org/1999/xlink" x="0px"
	 y="0px" viewBox="0 0 14 14" style="enable-background:new 0 0 14 14;" xml:space="preserve">
<path d="M11.9278755,10.3528633c-1.0448914,1.2559834-2.0998507,2.1775875-3.1645479,2.7654734
	C7.6982999,13.7058916,6.5728669,14,5.3875227,14c-1.4266381,0-2.5391979-0.4017162-3.3380096-1.2058096
	c-0.7986466-0.8034325-1.1980524-1.8834791-1.1980524-3.2398081c0-1.5372181,0.4296089-3.0493484,1.2884965-4.5360622
	C2.9990098,3.531606,4.154151,2.3231556,5.6060405,1.3939594C7.0577655,0.4647632,8.4819279,0,9.8783627,0
	c1.0950651,0,1.914012,0.2284205,2.4565115,0.6855917c0.5424986,0.4571711,0.8136654,1.0173296,0.8136654,1.6801453
	c0,0.6232052-0.1909561,1.1556363-0.5725365,1.5976233c-0.2813997,0.3416405-0.6279917,0.5122957-1.0399408,0.5122957
	c-0.3114376,0-0.5702267-0.1003466-0.7760363-0.3013697c-0.2059746-0.2010233-0.3089619-0.45222-0.3089619-0.7535899
	c0-0.1907907,0.0376301-0.3663971,0.1130552-0.5274799c0.0752602-0.1604223,0.231061-0.3541837,0.4672394-0.5799637
	c0.2358475-0.2261097,0.3791046-0.3895031,0.4294434-0.4898497c0.0501738-0.1003467,0.0752602-0.2059746,0.0752602-0.316554
	c0-0.2109258-0.0955601-0.3865324-0.2863512-0.5274798c-0.2914667-0.2006932-0.7032509-0.3013698-1.2356825-0.3013698
	c-0.9846506,0-1.9590693,0.3465919-2.9235845,1.0397756s-1.788414,1.6781646-2.471365,2.9539528
	C3.7951808,6.2188482,3.3832316,7.7659678,3.3832316,9.3130884c0,1.0249214,0.2913022,1.8362761,0.8740716,2.4337349
	c0.5826044,0.5981178,1.3762999,0.8968477,2.3810859,0.8968477c0.77356,0,1.5395284-0.1934319,2.2982345-0.5802946
	c0.7583752-0.3865318,1.6098366-1.0873079,2.5542164-2.1023264L11.9278755,10.3528633z"/>
</svg>
