<?xml version="1.0" encoding="utf-8"?>

<!--
 ~   Copyright 2017, WSO2 Inc. (http://www.wso2.com)
 ~
 ~   Licensed under the Apache License, Version 2.0 (the "License");
 ~   you may not use this file except in compliance with the License.
 ~   You may obtain a copy of the License at
 ~
 ~        http://www.apache.org/licenses/LICENSE-2.0
 ~
 ~   Unless required by applicable law or agreed to in writing, software
 ~   distributed under the License is distributed on an "AS IS" BASIS,
 ~   WITHOUT WARRANTIES OR CONDITIONS OF ANY KIND, either express or implied.
 ~   See the License for the specific language governing permissions and
 ~   limitations under the License.
-->

<svg version="1.1" id="abort" xmlns="http://www.w3.org/2000/svg" xmlns:xlink="http://www.w3.org/1999/xlink" x="0px" y="0px"
	 viewBox="0 0 14 14" style="enable-background:new 0 0 14 14;" xml:space="preserve">
<path d="M0.2,3.6c0.1-0.1,0.2-0.1,0.2-0.2c0.1-0.1,0.2-0.1,0.3-0.2c0.1,0,0.2-0.1,0.2-0.1C1.3,3,1.7,2.9,2.1,2.8c0.2,0,0.5,0,0.7,0
	c0.4,0,0.8,0,1.2,0.1C4.2,3,4.5,3.1,4.8,3.2C5,3.2,5.2,3.3,5.4,3.4c0.2,0.1,0.5,0.2,0.7,0.3c0,0,0.2,0.1,0.4,0.2
	C6.8,3.6,7.2,3.1,7.4,3c0.1,0.2,0.8,4.2,0.8,4.4C7.9,7.4,4.1,7,3.9,7C4,6.9,4.5,6.3,4.8,5.9C4.7,5.8,4.6,5.6,4.4,5.5
	C4.3,5.4,4.1,5.2,4,5.1C4,5.1,3.9,5,3.8,5C3.7,4.8,3.5,4.7,3.3,4.6C3.3,4.6,3.2,4.5,3.1,4.5C3,4.4,2.9,4.4,2.8,4.3
	C2.6,4.3,2.4,4.2,2.2,4.1c0,0-0.1,0-0.1,0C1.9,4,1.7,4,1.5,3.9C1.1,3.9,0.7,3.8,0.4,3.8c-0.1,0-0.3,0-0.4,0C0,3.7,0.1,3.6,0.2,3.6z
	 M1.6,4.8C0.8,7,1.3,9.7,3.1,11.6c2.5,2.6,6.5,2.6,9,0.1c2.5-2.5,2.6-6.7,0.1-9.2C9.9,0.1,6.3-0.2,3.8,1.8C4.2,1.9,4.6,2,5,2.2
	c2.1-1.2,4.7-0.8,6.4,1c2.1,2.2,2,5.7-0.1,7.8C9.2,13,5.8,13,3.8,10.8c-0.9-0.9-1.3-2-1.5-3.2c0-0.3,0-0.7,0-1
	c0-0.4,0.1-0.9,0.2-1.3C2.4,5.2,2.3,5.1,2.2,5.1C2,5,1.8,4.9,1.6,4.8C1.7,4.8,1.7,4.8,1.6,4.8z"/>
</svg>
