<?xml version="1.0" encoding="utf-8"?>

<!--
 ~   Copyright 2017, WSO2 Inc. (http://www.wso2.com)
 ~
 ~   Licensed under the Apache License, Version 2.0 (the "License");
 ~   you may not use this file except in compliance with the License.
 ~   You may obtain a copy of the License at
 ~
 ~        http://www.apache.org/licenses/LICENSE-2.0
 ~
 ~   Unless required by applicable law or agreed to in writing, software
 ~   distributed under the License is distributed on an "AS IS" BASIS,
 ~   WITHOUT WARRANTIES OR CONDITIONS OF ANY KIND, either express or implied.
 ~   See the License for the specific language governing permissions and
 ~   limitations under the License.
-->

<svg version="1.1" id="dmg-type-convertor" xmlns="http://www.w3.org/2000/svg" xmlns:xlink="http://www.w3.org/1999/xlink" x="0px"
	 y="0px" viewBox="0 0 14 14" style="enable-background:new 0 0 14 14;" xml:space="preserve">
<path d="M4.621913,0.9285809L3.817205,3.7347424h1.6197329l-0.175385,0.6499565H3.6521366l-1.7744844,6.086894
	c-0.1925797,0.6533957-0.2888696,1.0763836-0.2888696,1.2689629c0,0.1169233,0.0273681,0.2063351,0.0825342,0.2682362
	c0.0550227,0.0619001,0.120219,0.0928507,0.1960186,0.0928507c0.171803,0,0.3987718-0.1203623,0.6809068-0.3610868
	c0.1650684-0.137557,0.5328898-0.560545,1.1038945-1.2689629L3.99259,10.7295122
	c-0.6329052,0.9216318-1.2312779,1.5715876-1.7951179,1.9498692c-0.3853028,0.2613583-0.7737578,0.3920374-1.1657951,0.3920374
	c-0.3027686,0-0.5503711-0.0945702-0.7428074-0.2837105C0.0962899,12.598567,0,12.356123,0,12.0603752
	c0-0.3714037,0.1099023-0.9388256,0.3301366-1.7022667l1.7229005-5.9734097H0.495205l0.1031677-0.402354
	c0.7565631-0.2063355,1.3858862-0.5141191,1.8879688-0.923351C2.988281,2.6499054,3.5489688,1.9396244,4.1679749,0.9285809H4.621913
	z M13.1643419,10.5747604c-0.7155828,0.8597307-1.4377565,1.4907732-2.1666651,1.8931274
	c-0.7290516,0.4023542-1.4995136,0.6035309-2.310957,0.6035309c-0.9766541,0-1.7383752-0.2751131-2.2851644-0.8253412
	s-0.8201833-1.2895966-0.8201833-2.2181053c0-1.0523109,0.2940283-2.0874267,0.8820839-3.1053481
	C7.0515122,5.9048462,7.8423214,5.077642,8.8363132,4.4414411c0.9938488-0.6360576,1.9687834-0.9543011,2.9248047-0.9543011
	c0.7495413,0,1.3103724,0.156471,1.681776,0.469413C13.8142977,4.2696381,14,4.652935,14,5.1068726
	c0,0.4265699-0.1306791,0.7909527-0.3920374,1.0935779c-0.1925793,0.2338467-0.4298649,0.35077-0.7119999,0.35077
	c-0.2132139,0-0.3904619-0.068635-0.5313139-0.2063351c-0.140996-0.137557-0.2114935-0.3095036-0.2114935-0.5158386
	c0-0.1305361,0.0257912-0.2510414,0.0773754-0.3610868c0.0515842-0.1099024,0.1581907-0.2424445,0.3198195-0.3971958
	c0.1614866-0.1547518,0.2594957-0.2665167,0.2940283-0.3352952c0.0343895-0.068635,0.0515842-0.1408525,0.0515842-0.2166519
	c0-0.1444349-0.0654831-0.2646537-0.1960192-0.3610868c-0.1996002-0.137557-0.4814491-0.2063355-0.8459749-0.2063355
	c-0.6741724,0-1.3411798,0.2372856-2.0014534,0.7118568C9.1922417,5.1378231,8.6282587,5.8119955,8.1605654,6.6853385
	C7.5965815,7.7445269,7.31459,8.8037157,7.31459,9.8629036c0,0.70154,0.1994576,1.2569265,0.5983725,1.6661587
	c0.3987718,0.4092312,0.942265,0.6138477,1.6300492,0.6138477c0.5295944,0,1.0538874-0.1323986,1.573308-0.3971958
	c0.5192776-0.2647972,1.1021748-0.7445269,1.7486925-1.4391899L13.1643419,10.5747604z"/>
</svg>
