<?xml version="1.0" encoding="utf-8"?>

<!--
 ~   Copyright 2017, WSO2 Inc. (http://www.wso2.com)
 ~
 ~   Licensed under the Apache License, Version 2.0 (the "License");
 ~   you may not use this file except in compliance with the License.
 ~   You may obtain a copy of the License at
 ~
 ~        http://www.apache.org/licenses/LICENSE-2.0
 ~
 ~   Unless required by applicable law or agreed to in writing, software
 ~   distributed under the License is distributed on an "AS IS" BASIS,
 ~   WITHOUT WARRANTIES OR CONDITIONS OF ANY KIND, either express or implied.
 ~   See the License for the specific language governing permissions and
 ~   limitations under the License.
-->

<svg version="1.1" id="dgm-service" xmlns="http://www.w3.org/2000/svg" xmlns:xlink="http://www.w3.org/1999/xlink" x="0px" y="0px"
	 viewBox="0 0 14 14" style="enable-background:new 0 0 14 14;" xml:space="preserve">
<path class="st0" d="M0,7.6256318V6.3743682c0.2132496-0.0139027,0.3739171-0.0521359,0.4820025-0.1146989
	c0.1080854-0.0625634,0.2015647-0.1677041,0.2804378-0.3154225c0.0788731-0.1477189,0.1329158-0.3328013,0.1621281-0.5552483
	c0.0233698-0.1668353,0.0350547-0.4570589,0.0350547-0.8706708c0-0.6742921,0.026291-1.1443849,0.0788732-1.4102783
	s0.147522-0.479651,0.2848197-0.6412725c0.1372976-0.1616211,0.3374017-0.2893543,0.6003121-0.3831992
	c0.178195-0.0625629,0.4586327-0.0938448,0.8413134-0.0938448H2.997179v1.2460498
	c-0.3242562,0-0.5323935,0.0217233-0.6244123,0.0651698c-0.0920186,0.043447-0.1599371,0.1094856-0.2037556,0.1981168
	C2.1251929,3.5877004,2.1032836,3.7397637,2.1032836,3.9552588c0,0.2189713-0.0131457,0.6343212-0.0394366,1.2460499
	C2.0492408,5.5454063,2.011265,5.8243337,1.9499192,6.0380912s-0.1394887,0.390151-0.2344285,0.52918
	C1.6205508,6.7063007,1.4752197,6.8505435,1.2794975,7c0.1723524,0.118175,0.3133017,0.2563353,0.4228476,0.4144812
	C1.8118912,7.5726266,1.8958764,7.7646608,1.954301,7.9905834s0.0964006,0.5283117,0.113928,0.9071655
	c0.0204484,0.576972,0.0306728,0.9453993,0.0306728,1.1052828c0,0.2293987,0.0233698,0.3892822,0.0701094,0.4796515
	c0.0467398,0.0903692,0.1175795,0.1590147,0.2125194,0.2059364c0.0949399,0.0469227,0.3001561,0.070384,0.6156485,0.070384
	v1.2512636H2.7649415c-0.3943655,0-0.6967125-0.037364-0.9070411-0.112093
	c-0.2103283-0.074728-0.3877928-0.1989851-0.5323937-0.3727722c-0.1446007-0.1737862-0.2417315-0.3884125-0.2913923-0.6438789
	c-0.049661-0.2554665-0.0744914-0.6577826-0.0744914-1.2069473c0-0.639535-0.0233698-1.0548849-0.0701095-1.2460499
	c-0.064267-0.278059-0.1613978-0.4770446-0.2913924-0.5969572S0.2687529,7.6430101,0,7.6256318z M14,7.6256318
	c-0.2137842,0.0139027-0.3748541,0.0521359-0.4832096,0.1146989c-0.1083565,0.0625634-0.2013378,0.1677041-0.278944,0.315423
	c-0.0776072,0.1477184-0.1325169,0.3328009-0.164731,0.5552483c-0.023428,0.1668348-0.0351429,0.4553204-0.0351429,0.8654566
	c0,0.6742916-0.0256243,1.1452541-0.0768738,1.4128847c-0.0512495,0.2676315-0.1456957,0.4822578-0.2833366,0.6438799
	c-0.1376419,0.1616211-0.3397112,0.2893543-0.6062088,0.3831987c-0.1786413,0.0625639-0.4597816,0.0938454-0.843421,0.0938454
	h-0.2328196v-1.2512636c0.3133545,0,0.5183525-0.0234613,0.614994-0.070384
	c0.0966425-0.0469217,0.1676598-0.1146984,0.2130518-0.20333c0.045393-0.0886307,0.068821-0.2389565,0.0702848-0.4509764
	c0.0014648-0.212019,0.0139112-0.6169415,0.0373392-1.2147675c0.0146427-0.3614759,0.0541782-0.6508312,0.1186066-0.8680644
	c0.0644274-0.2172332,0.1500874-0.4014468,0.2569799-0.5526409C12.4134607,7.2476459,12.5503702,7.1146994,12.7172976,7
	c-0.216713-0.1668353-0.3748541-0.3301945-0.4744244-0.490078c-0.1376419-0.2293983-0.2313557-0.5213599-0.2811403-0.8758845
	c-0.0322142-0.2433014-0.0556431-0.778564-0.0702858-1.6057878c-0.0029278-0.2606802-0.0226955-0.4344668-0.0593023-0.5213599
	c-0.0366068-0.0868936-0.1025-0.1538014-0.1976776-0.2007236s-0.3082294-0.0703835-0.6391544-0.0703835V1.9897329h0.2328196
	c0.3953533,0,0.6984577,0.0364951,0.9093132,0.1094855c0.2108545,0.0729904,0.388032,0.197248,0.5315304,0.3727722
	c0.1434994,0.1755247,0.2408733,0.3910198,0.2921228,0.6464863c0.0512495,0.255466,0.0768738,0.6577821,0.0768738,1.2069478
	c0,0.6360588,0.0219641,1.0514088,0.0658922,1.2460499c0.0644283,0.2780585,0.1625347,0.4770441,0.2943192,0.5969567
	S13.7305737,6.3569899,14,6.3743682V7.6256318z M8.9453125,7.1718616C8.6113281,6.8071156,8.0791016,6.537096,7.3598633,6.3691273
	L6.8344727,6.2504749C6.3652344,6.1396351,6.0444336,6.0048695,5.8813477,5.849596
	c-0.15625-0.1489258-0.2319336-0.3647461-0.2319336-0.6601562c0-0.3374023,0.1196289-0.597168,0.3652344-0.7939453
	C6.2651367,4.1948109,6.6166992,4.0927601,7.059082,4.0927601c0.2973633,0,0.5961914,0.0478516,0.8881836,0.1430664
	c0.2939453,0.0952148,0.5927734,0.2392578,0.8876953,0.4282227L9.0273438,4.787096V3.4535997L8.9462891,3.4233263
	C8.5957031,3.2929552,8.2548828,3.1933458,7.934082,3.1274278C6.7705078,2.88817,5.7963867,3.0800645,5.1499023,3.6581895
	C4.6791992,4.0800648,4.4404297,4.6469593,4.4404297,5.3437366c0,0.5615234,0.1694336,1.0170898,0.5029297,1.3544922
	c0.3286133,0.331543,0.8540039,0.5800781,1.5610352,0.7392578l0.5380859,0.1245117
	c0.453125,0.0996094,0.7724609,0.2402344,0.9487305,0.4179688c0.1689453,0.1708984,0.2548828,0.4267578,0.2548828,0.7617188
	c0,0.3710938-0.1230469,0.6503906-0.3764648,0.8535156c-0.2568359,0.2070312-0.628418,0.3125-1.1035156,0.3125
	c-0.331543,0-0.6630859-0.0546875-0.9868164-0.1630859C5.4501953,9.6362171,5.0957031,9.4614124,4.7265625,9.2270374
	L4.534668,9.1049671v1.3789062l0.0766602,0.0322266c0.3632812,0.1523438,0.7270508,0.2675781,1.0805664,0.3417969
	c0.3608398,0.0761719,0.7226562,0.1152344,1.0742188,0.1152344c0.8608398,0,1.5297852-0.1972656,1.9887695-0.5859375
	C9.21875,9.9926624,9.4541016,9.4174671,9.4541016,8.6772327C9.4541016,8.0473499,9.2832031,7.5410023,8.9453125,7.1718616z"/>
</svg>
