<?xml version="1.0" encoding="utf-8"?>

<!--
 ~   Copyright 2017, WSO2 Inc. (http://www.wso2.com)
 ~
 ~   Licensed under the Apache License, Version 2.0 (the "License");
 ~   you may not use this file except in compliance with the License.
 ~   You may obtain a copy of the License at
 ~
 ~        http://www.apache.org/licenses/LICENSE-2.0
 ~
 ~   Unless required by applicable law or agreed to in writing, software
 ~   distributed under the License is distributed on an "AS IS" BASIS,
 ~   WITHOUT WARRANTIES OR CONDITIONS OF ANY KIND, either express or implied.
 ~   See the License for the specific language governing permissions and
 ~   limitations under the License.
-->

<svg version="1.1" id="fork-join" xmlns="http://www.w3.org/2000/svg" xmlns:xlink="http://www.w3.org/1999/xlink" x="0px" y="0px"
	 viewBox="0 0 14 14" style="enable-background:new 0 0 14 14;" xml:space="preserve">
<path d="M3.4257305,0.3985567c-0.9660811,0.1604755-1.5739638,1.0966926-1.3295043,2.047606
	C2.298053,3.23124,3.1257877,3.7784724,3.9202065,3.6488564c0.514677-0.0839703,0.9028382-0.3616207,1.1859908-0.79281
	c0.0324736-0.0494492,0.0535879-0.088382,0.1277838-0.0693069C5.638567,2.890753,5.9915447,3.0837348,6.2919807,3.3750124
	c0.3299351,0.3198795,0.5776992,0.6991982,0.7824817,1.1051178c0.2824464,0.5598702,0.5487895,1.1278601,0.8220663,1.6923575
	C7.9197645,6.220489,7.9433765,6.2688093,7.9698682,6.3231692c-1.5736256-0.0003681-3.147254-0.0002317-4.7208796,0.0008426
	C3.1735466,6.3240633,3.1332614,6.304893,3.0968206,6.2322488c-0.322058-0.6420684-1.0173573-0.9851127-1.7406805-0.8655252
	C0.6848402,5.4777145,0.1232795,6.0468988,0.0192933,6.721724c-0.013382,0.0868497-0.0191706,0.1727777-0.0191488,0.2575364
	C-0.00003,6.9861479,0.00009,6.9930921,0,6.9999986c0.00009,0.0069065-0.00003,0.013854,0.0001445,0.020741
	C0.0001227,7.1054983,0.0059112,7.1914263,0.0192933,7.278276c0.1039862,0.6748257,0.665547,1.2440095,1.3368468,1.355001
	c0.7233205,0.1195869,1.4186225-0.2234573,1.7406805-0.8655257c0.036438-0.0726442,0.076726-0.0918145,0.1521678-0.091763
	c1.5736258,0.0010743,3.1472542,0.0012107,4.7208796,0.0008426C7.9433765,7.7311878,7.9197645,7.779511,7.8965287,7.8275127
	C7.6232519,8.3920069,7.3569088,8.96,7.0744624,9.5198669c-0.2047825,0.4059219-0.4525495,0.7852411-0.7824817,1.1051178
	c-0.300436,0.2912807-0.6534138,0.4842625-1.0579996,0.588273c-0.0741959,0.0190754-0.0953102-0.0198545-0.1277838-0.0693045
	c-0.2831526-0.4311886-0.6713138-0.7088394-1.1859908-0.7928123c-0.7944188-0.1296129-1.6221535,0.4176188-1.8239803,1.2026968
	c-0.2444595,0.9509106,0.3634231,1.8871279,1.3295043,2.0476055c0.7177308,0.1192226,1.4381773-0.2533751,1.7513168-0.9106636
	c0.033278-0.0698462,0.0778522-0.0978022,0.1491194-0.1104727c0.9139438-0.1624689,1.6497002-0.6246481,2.2360344-1.3357649
	c0.5160813-0.625905,0.8529744-1.3536882,1.1899362-2.0825577c0.1586761-0.3432245,0.3356714-0.6782093,0.5121193-1.0128393
	c0.051383-0.0974455,0.1258535-0.183774,0.1961937-0.2699337C9.54212,7.7791758,9.6389217,7.7121291,9.7506075,7.6760483
	c0.3339186-0.0002127,0.66784-0.0001497,1.0017586-0.0004416c0.0783405-0.0000682,0.116518,0.0255671,0.1525517,0.0942006
	c0.3283272,0.6253438,0.9954414,0.9655662,1.6903296,0.8672614c0.8202963-0.1160507,1.4091959-0.8315706,1.4047279-1.6370702
	c0.004468-0.8054967-0.5844316-1.5210161-1.4047279-1.6370678c-0.6948881-0.0983038-1.3620024,0.2419186-1.6903296,0.8672619
	c-0.0360336,0.0686336-0.0742111,0.0942688-0.1525517,0.0941982c-0.3339214-0.0002918-0.6678429-0.0002294-1.0017643-0.0004392
	C9.6389189,6.2878709,9.5421171,6.2208214,9.4604502,6.1207891C9.39011,6.0346289,9.3156395,5.9482999,9.2642565,5.8508549
	c-0.1764479-0.33463-0.3534431-0.6696177-0.5121193-1.0128393c-0.3369617-0.728869-0.6738548-1.4566529-1.1899333-2.0825579
	c-0.5863371-0.7111163-1.3220935-1.173296-2.2360373-1.3357673C5.2548995,1.4070226,5.2103252,1.3790671,5.1770473,1.3092176
	C4.8639078,0.6519294,4.1434612,0.2793343,3.4257305,0.3985567z M4.508924,11.9669008
	c0.0012078,0.4611673-0.3486724,0.8185863-0.8024514,0.8197374c-0.4425182,0.0011234-0.8104644-0.3639822-0.8115633-0.805295
	c-0.0011261-0.451601,0.3508997-0.8087769,0.8003109-0.8120241C4.1466789,11.1660576,4.5077515,11.5199785,4.508924,11.9669008z
	 M1.6480585,6.2032213C2.0852954,6.2042465,2.443017,6.5612402,2.4511724,6.9999986
	C2.443017,7.4387598,2.0852981,7.7957506,1.6480585,7.7967787c-0.4435297,0.0010414-0.8069063-0.3560123-0.815825-0.7967801
	C0.8411522,6.5592284,1.2045288,6.202177,1.6480585,6.2032213z M12.3578844,7.7967787
	c-0.4394617,0.0002236-0.805439-0.3596931-0.8129539-0.7967801c0.007515-0.4370842,0.3734922-0.7970004,0.8129539-0.7967772
	c0.4394569,0.0002236,0.8015566,0.3589759,0.8109989,0.7967772C13.159441,7.4377999,12.7973413,7.7965522,12.3578844,7.7967787z
	 M4.508924,2.0330997C4.5077515,2.4800212,4.1466789,2.8339422,3.6952202,2.8306811
	C3.2458091,2.8274338,2.8937833,2.4702575,2.8949094,2.018657c0.0010989-0.4413131,0.369045-0.8064184,0.8115633-0.805295
	C4.1602516,1.2145126,4.5101318,1.5719289,4.508924,2.0330997z"/>
</svg>
