<?xml version="1.0" encoding="utf-8"?>

<!--
 ~   Copyright 2017, WSO2 Inc. (http://www.wso2.com)
 ~
 ~   Licensed under the Apache License, Version 2.0 (the "License");
 ~   you may not use this file except in compliance with the License.
 ~   You may obtain a copy of the License at
 ~
 ~        http://www.apache.org/licenses/LICENSE-2.0
 ~
 ~   Unless required by applicable law or agreed to in writing, software
 ~   distributed under the License is distributed on an "AS IS" BASIS,
 ~   WITHOUT WARRANTIES OR CONDITIONS OF ANY KIND, either express or implied.
 ~   See the License for the specific language governing permissions and
 ~   limitations under the License.
-->

<svg version="1.1" id="function" xmlns="http://www.w3.org/2000/svg" xmlns:xlink="http://www.w3.org/1999/xlink" x="0px" y="0px"
	 viewBox="0 0 14 14" style="enable-background:new 0 0 14 14;" xml:space="preserve">
<path d="M11.6528149,0.334351c-0.5101337-0.4262117-1.3729305-0.4710017-2.2687292,0.0174445
	C8.9673033,0.5795171,8.5637226,0.9241639,8.1856012,1.378664C7.9130898,1.7119956,7.6264338,2.1815827,7.3369493,2.7732816
	C7.1323299,3.1848776,6.9692006,3.4649327,6.8499179,3.6054318C6.7457223,3.7284861,6.6335115,3.8119369,6.5165863,3.8524835
	c-0.0919375,0.0320604-0.298914,0.0702496-0.762372,0.0702496H5.5585527l-0.2036762,0.961334h1.2489324L5.4189968,9.4917736
	c-0.2927847,1.1277637-0.4743023,1.7991419-0.5398369,1.9943314c-0.1513429,0.4629869-0.3116436,0.8194208-0.4761877,1.0579863
	c-0.1579437,0.2281923-0.337575,0.4007521-0.5332363,0.5110769c-0.1395559,0.0792074-0.2725115,0.130126-0.3974519,0.1518145
	c0.0773218-0.1065531,0.1159825-0.2234783,0.1159825-0.3479481c0-0.1744442-0.07355-0.3338022-0.2126346-0.4611006
	c-0.3022141-0.2772255-0.8057475-0.2310219-1.1098478,0.0480909c-0.1720877,0.1584148-0.2626104,0.3592625-0.2626104,0.5799112
	c0,0.2649679,0.1084387,0.4931612,0.3083434,0.6544046C2.5585692,13.8925037,2.860312,14,3.2087307,14
	c0.493161,0,0.9891505-0.173502,1.473825-0.5157919c0.6171584-0.4337549,1.1951842-1.2173433,1.7185197-2.3281345
	c0.3616199-0.7732153,0.7255969-1.8783484,1.0810876-3.2861671l0.7524714-2.9858394h1.0551567l0.2611961-0.961334H8.4967737
	C8.7881441,2.9887447,8.9927635,2.3895025,9.105917,2.141979c0.2385654-0.5091909,0.5082474-0.8854265,0.8024473-1.1183342
	c0.1989613-0.1598294,0.4177246-0.237151,0.6685486-0.237151c0.0358324,0,0.0622349,0.0028288,0.082036,0.0066006
	c-0.0103722,0.0207448-0.0245161,0.0495047-0.0462036,0.087694c-0.0839224,0.1508715-0.1244698,0.2828839-0.1244698,0.4040526
	c0,0.1881177,0.0754356,0.3573766,0.2187643,0.4889176c0.2979708,0.2753402,0.834507,0.2560099,1.1324778-0.0537479
	c0.154644-0.1617154,0.2338514-0.3616199,0.2338514-0.5945277C12.073369,0.8341126,11.9319267,0.5677302,11.6528149,0.334351z
	 M10.6796942,0.7426468L10.678751,0.7407609l0.0009432,0.0009429C10.6796942,0.7417038,10.6796942,0.7421753,10.6796942,0.7426468z"
	/>
</svg>
