<?xml version="1.0" encoding="utf-8"?>

<!--
 ~   Copyright 2017, WSO2 Inc. (http://www.wso2.com)
 ~
 ~   Licensed under the Apache License, Version 2.0 (the "License");
 ~   you may not use this file except in compliance with the License.
 ~   You may obtain a copy of the License at
 ~
 ~        http://www.apache.org/licenses/LICENSE-2.0
 ~
 ~   Unless required by applicable law or agreed to in writing, software
 ~   distributed under the License is distributed on an "AS IS" BASIS,
 ~   WITHOUT WARRANTIES OR CONDITIONS OF ANY KIND, either express or implied.
 ~   See the License for the specific language governing permissions and
 ~   limitations under the License.
-->

<svg version="1.1" id="hide" xmlns="http://www.w3.org/2000/svg" xmlns:xlink="http://www.w3.org/1999/xlink" x="0px" y="0px"
	 viewBox="0 0 14 14" style="enable-background:new 0 0 14 14;" xml:space="preserve">
<path d="M8.2,5.4L5.3,8C5.1,7.7,5,7.4,5,7c0-1.1,0.9-2,2-2C7.5,5,7.9,5.2,8.2,5.4z M7,9c1.1,0,2-0.9,2-2c0-0.1,0-0.1,0-0.2L6.5,9
	C6.7,9,6.8,9,7,9z M12,4.3L10,6c0.1,0.3,0.2,0.6,0.2,1c0,1.7-1.4,3.2-3.2,3.2c-0.5,0-1-0.1-1.4-0.4L4.1,11C5,11.4,6,11.6,7,11.6
	c3.1,0,5.7-1.8,7-4.4C14,7,14,7,14,6.9C13.5,5.9,12.8,5,12,4.3z M2.7,10.2l1.7-1.5C4.1,8.2,3.8,7.6,3.8,7c0-1.7,1.4-3.2,3.2-3.2
	c0.8,0,1.6,0.3,2.1,0.8l1.5-1.3C9.5,2.8,8.3,2.4,7,2.4c-3.1,0-5.7,1.8-7,4.4C0,7,0,7,0,7.1C0.6,8.4,1.5,9.4,2.7,10.2z M0.5,13.1
	L0,12.5L13.5,0.9L14,1.5L0.5,13.1z"/>
</svg>
