<?xml version="1.0" encoding="utf-8"?>

<!--
 ~   Copyright 2017, WSO2 Inc. (http://www.wso2.com)
 ~
 ~   Licensed under the Apache License, Version 2.0 (the "License");
 ~   you may not use this file except in compliance with the License.
 ~   You may obtain a copy of the License at
 ~
 ~        http://www.apache.org/licenses/LICENSE-2.0
 ~
 ~   Unless required by applicable law or agreed to in writing, software
 ~   distributed under the License is distributed on an "AS IS" BASIS,
 ~   WITHOUT WARRANTIES OR CONDITIONS OF ANY KIND, either express or implied.
 ~   See the License for the specific language governing permissions and
 ~   limitations under the License.
-->

<svg version="1.1" id="java" xmlns="http://www.w3.org/2000/svg" xmlns:xlink="http://www.w3.org/1999/xlink" x="0px" y="0px"
	 viewBox="0 0 14 14" style="enable-background:new 0 0 14 14;" xml:space="preserve">
<path d="M6.8695574,7.5171423C6.5490184,6.8989949,6.216466,6.1363235,6.1286507,5.441431
	c-0.069406-0.5492196,0.1100874-0.9684758,0.5048065-1.338038C7.292367,3.4864776,8.1207056,3.0097501,8.604558,2.2251444
	C9.2984247,1.0983602,8.5178576,0.0005653,8.5175581,0.000144c0.0694065,0.0975951,0.0342054,0.3756049,0.0302038,0.4842241
	C8.5348854,0.833858,8.4578428,1.2353697,8.3006372,1.5489252c-0.3231316,0.6445036-1.1664157,1.076683-1.7184968,1.5021873
	c-0.9233103,0.711621-1.6551976,1.6951673-1.0786481,2.8608224C5.8101668,6.5319629,6.3218327,7.0962238,6.8695574,7.5171423z
	 M9.7905579,2.9491441C9.6525507,3.052933,9.3938885,3.1049595,9.2287369,3.1771505
	c-0.2343082,0.102421-0.4652719,0.2131846-0.688735,0.3376482c-0.4349527,0.2422595-0.8799977,0.5409455-1.1640639,0.9593
	C7.08251,4.9062414,7.0815554,5.3903956,7.2527251,5.8732033C7.4066687,6.3074222,7.8379788,6.6032906,7.9695578,7.026144
	c0.1149998,0.3769999-0.2020001,1.0120001-0.2020001,1.0120001s1.0409999-0.723,0.8670001-1.5620003
	c-0.1750002-0.8379998-0.9840002-1.099-0.5209999-1.9369998C8.42344,3.9773562,9.789525,2.9499207,9.7905579,2.9491441z
	 M6.5805578,9.0451441C9.038558,8.9571438,9.9345579,8.1821442,9.9345579,8.1821442
	C8.3445578,8.6151438,4.1225581,8.5871439,4.0935578,8.2691441C4.065558,7.9511442,5.394558,7.691144,5.394558,7.691144
	s-2.0809999,0-2.2549999,0.5200005C2.966558,8.731144,4.124558,9.1311436,6.5805578,9.0451441z M10.137558,10.2631435
	c0,0,2.4060001-0.5129995,2.1680002-1.8199997c-0.2880001-1.5910001-1.9659996-0.6950002-1.9659996-0.6950002
	s1.1859999,0,1.302,0.7219996C11.7565575,9.1941442,10.137558,10.2631435,10.137558,10.2631435z M8.9515581,9.5701437
	c0,0-0.6059999,0.1590004-1.5039997,0.2600002c-1.204,0.1350002-2.6599998,0.0279999-2.776-0.1739998
	C4.5575576,9.4541445,4.874558,9.3391438,4.874558,9.3391438c-1.4459999,0.3470001-0.6550002,0.9530001,1.04,1.0699997
	c1.4530001,0.099,3.6150002-0.4329996,3.6150002-0.4329996L8.9515581,9.5701437z M5.2225575,10.8331442
	c0,0-0.6560001,0.0179996-0.6939998,0.3660002c-0.0380001,0.3450003,0.4039998,0.6549997,2.0240002,0.7510004
	c1.6189995,0.0959997,2.757-0.4429998,2.757-0.4429998l-0.7320004-0.4440002c0,0-0.4629993,0.0970001-1.1760001,0.1929998
	c-0.7140002,0.0970001-2.178-0.0780001-2.2350001-0.2110004C5.1065578,10.9101439,5.2225575,10.8331442,5.2225575,10.8331442z
	 M11.5245581,12.3951445c0.2510004-0.2709999-0.0780001-0.4820004-0.0780001-0.4820004s0.1149998,0.1350002-0.0369997,0.2889996
	c-0.1549997,0.1540003-1.5620003,0.5389996-3.8179998,0.6549997c-2.2550001,0.1160002-4.7030001-0.2119999-4.7799997-0.5010004
	c-0.075-0.2889996,1.2539997-0.5190001,1.2539997-0.5190001c-0.154,0.0190001-2.0039999,0.0570002-2.063,0.559
	C1.944558,12.8951445,2.811558,13.3001442,6.282558,13.3001442C9.7515574,13.2991438,11.2755575,12.6631441,11.5245581,12.3951445z
	 M10.1755581,13.5311441c-1.5229998,0.3079996-6.1479998,0.1140003-6.1479998,0.1140003s3.006,0.7139997,6.4370003,0.1160002
	c1.6400003-0.2860003,1.7349997-1.0789995,1.7349997-1.0789995S11.6985579,13.2221441,10.1755581,13.5311441z"/>
</svg>
