<?xml version="1.0" encoding="utf-8"?>

<!--
 ~   Copyright 2017, WSO2 Inc. (http://www.wso2.com)
 ~
 ~   Licensed under the Apache License, Version 2.0 (the "License");
 ~   you may not use this file except in compliance with the License.
 ~   You may obtain a copy of the License at
 ~
 ~        http://www.apache.org/licenses/LICENSE-2.0
 ~
 ~   Unless required by applicable law or agreed to in writing, software
 ~   distributed under the License is distributed on an "AS IS" BASIS,
 ~   WITHOUT WARRANTIES OR CONDITIONS OF ANY KIND, either express or implied.
 ~   See the License for the specific language governing permissions and
 ~   limitations under the License.
-->

<svg version="1.1" id="javascript" xmlns="http://www.w3.org/2000/svg" xmlns:xlink="http://www.w3.org/1999/xlink" x="0px" y="0px"
	 viewBox="0 0 14 14" style="enable-background:new 0 0 14 14;" xml:space="preserve">
<path d="M1.8870002,10.9189997h-1.742V8.8430004h1.742V10.9189997z M6.4910002,11.1529999
	c0,0.927-0.25,1.6339998-0.7480001,2.1189995C5.2449999,13.757,4.559,14,3.6850002,14c-0.151,0-0.319-0.0059996-0.506-0.0209999
	c-0.1860001-0.0139999-0.372-0.0349998-0.5569999-0.066v-1.2230005h0.0799999
	C2.8090003,12.7139997,2.927,12.7369995,3.0550001,12.7589998c0.1300001,0.0229998,0.2520001,0.0340004,0.368,0.0340004
	c0.365,0,0.6639998-0.0450001,0.8999999-0.1359997C4.559,12.5670004,4.7350001,12.4250002,4.8519998,12.2310009
	c0.1059999-0.1750002,0.178-0.3970003,0.2140002-0.6630001c0.0370002-0.2679996,0.0549998-0.592,0.0549998-0.9759998V3.9189999
	H3.6480002V2.7820001h2.8419995L6.4910002,11.1529999L6.4910002,11.1529999z M6.4980001,1.42h-1.559V0h1.559V1.42z
	 M10.6709995,11.1169996c-0.5439997,0-1.052-0.073-1.526-0.2200003c-0.474-0.1459999-0.8660002-0.3000002-1.1760001-0.4650002
	V8.8940001h0.0739999C8.158,8.9870005,8.2959995,9.0889997,8.4530001,9.1999998
	c0.158,0.1120005,0.368,0.2290001,0.6309996,0.3500004c0.2329998,0.1070004,0.4899998,0.2019997,0.7690001,0.2840004
	C10.132,9.9170008,10.4229994,9.9580002,10.7229996,9.9580002c0.2180004,0,0.4510002-0.0249996,0.6999998-0.0760002
	c0.2480001-0.0509996,0.4309998-0.1149998,0.5539999-0.1929998c0.1689997-0.1120005,0.2919998-0.2299995,0.3669996-0.3570004
	c0.0760002-0.1269999,0.1140003-0.316,0.1140003-0.5670004c0-0.3269997-0.0880003-0.5710001-0.2659998-0.7360001
	c-0.1780005-0.1659999-0.4919996-0.3049998-0.9440002-0.414c-0.1750002-0.0450001-0.4040003-0.0960002-0.6850004-0.1539998
	c-0.2819996-0.0570002-0.5410004-0.1209998-0.7799997-0.1900001C9.1610003,7.0900002,8.7089996,6.8119998,8.427,6.4359999
	C8.1459999,6.059,8.0059996,5.605,8.0059996,5.0700002c0-0.7340002,0.276-1.3309999,0.8310003-1.7920001
	c0.5529995-0.461,1.2889996-0.6919999,2.2060003-0.6919999c0.4530001,0,0.9069996,0.0550001,1.3629999,0.1670001
	c0.4580002,0.112,0.8409996,0.2520001,1.1520004,0.4219999v1.4649997h-0.073c-0.3500004-0.276-0.7390003-0.4949999-1.1689997-0.654
	c-0.4309998-0.161-0.8629999-0.2409999-1.3009996-0.2409999c-0.4510002,0-0.8330002,0.095-1.1440001,0.2839999
	C9.5600004,4.217,9.4029999,4.5050001,9.4029999,4.8889999c0,0.3400002,0.0930004,0.592,0.2779999,0.7620001
	c0.1829996,0.1659999,0.4809999,0.3049998,0.8889999,0.4120002C10.7729998,6.1150002,11,6.1670003,11.2509995,6.2180004
	c0.25,0.0510001,0.5130005,0.1100001,0.79,0.1789999c0.6009998,0.151,1.0559998,0.401,1.3570004,0.75
	c0.3050003,0.348,0.4569998,0.8249998,0.4569998,1.427c0,0.3500004-0.0699997,0.6809998-0.2089996,0.9940004
	C13.5080004,9.8810005,13.3050003,10.1490011,13.04,10.3720007c-0.2930002,0.2440004-0.6210003,0.4289999-0.9879999,0.5539999
	C11.6850004,11.052,11.2259998,11.1169996,10.6709995,11.1169996z"/>
</svg>
