<?xml version="1.0" encoding="utf-8"?>

<!--
 ~   Copyright 2017, WSO2 Inc. (http://www.wso2.com)
 ~
 ~   Licensed under the Apache License, Version 2.0 (the "License");
 ~   you may not use this file except in compliance with the License.
 ~   You may obtain a copy of the License at
 ~
 ~        http://www.apache.org/licenses/LICENSE-2.0
 ~
 ~   Unless required by applicable law or agreed to in writing, software
 ~   distributed under the License is distributed on an "AS IS" BASIS,
 ~   WITHOUT WARRANTIES OR CONDITIONS OF ANY KIND, either express or implied.
 ~   See the License for the specific language governing permissions and
 ~   limitations under the License.
-->

<svg version="1.1" id="jaxrs" xmlns="http://www.w3.org/2000/svg" xmlns:xlink="http://www.w3.org/1999/xlink" x="0px" y="0px"
	 viewBox="0 0 14 14" style="enable-background:new 0 0 14 14;" xml:space="preserve">
<path d="M0,7.6256318V6.3743682c0.2132496-0.0139027,0.3739171-0.0521359,0.4820025-0.1146989
	c0.1080854-0.0625634,0.2015647-0.1677041,0.2804378-0.3154225c0.0788731-0.1477189,0.1329158-0.3328013,0.1621281-0.5552483
	c0.0233698-0.1668353,0.0350547-0.4570589,0.0350547-0.8706708c0-0.6742918,0.026291-1.1443846,0.0788731-1.4102781
	c0.0525821-0.2658935,0.147522-0.479651,0.2848197-0.6412725c0.1372976-0.1616213,0.3374017-0.2893546,0.6003121-0.3831992
	C2.1018231,2.0210147,2.3822608,1.989733,2.7649415,1.989733H2.997179v1.2460499
	c-0.3242562,0-0.5323935,0.0217233-0.6244123,0.0651698C2.2807481,3.3443995,2.2128296,3.4104383,2.1690111,3.4990695
	C2.1251929,3.5877006,2.1032836,3.7397637,2.1032836,3.9552591c0,0.218971-0.0131457,0.634321-0.0394366,1.2460496
	C2.0492408,5.5454063,2.011265,5.8243337,1.9499192,6.0380912s-0.1394887,0.390151-0.2344285,0.52918
	C1.6205508,6.7063007,1.4752197,6.8505435,1.2794975,7c0.1723524,0.118175,0.3133017,0.2563353,0.4228476,0.4144812
	C1.8118912,7.5726266,1.8958764,7.7646608,1.954301,7.9905834s0.0964006,0.5283117,0.113928,0.9071655
	c0.0204484,0.576972,0.0306728,0.9453993,0.0306728,1.1052828c0,0.2293987,0.0233698,0.3892822,0.0701094,0.4796515
	c0.0467398,0.0903692,0.1175795,0.1590147,0.2125194,0.2059364c0.0949399,0.0469227,0.3001561,0.070384,0.6156485,0.070384
	v1.2512636H2.7649415c-0.3943655,0-0.6967125-0.037364-0.907041-0.112093
	c-0.2103283-0.074728-0.3877929-0.1989851-0.5323937-0.3727722c-0.1446007-0.1737862-0.2417315-0.3884125-0.2913923-0.6438789
	c-0.0496609-0.2554665-0.0744913-0.6577826-0.0744913-1.2069473c0-0.639535-0.0233698-1.0548849-0.0701095-1.2460499
	c-0.064267-0.278059-0.1613978-0.4770446-0.2913924-0.5969572S0.2687529,7.6430101,0,7.6256318z M14,7.6256318
	c-0.2137842,0.0139027-0.3748541,0.0521359-0.4832096,0.1146989c-0.1083565,0.0625634-0.2013378,0.1677041-0.278944,0.315423
	c-0.0776072,0.1477184-0.1325169,0.3328009-0.164731,0.5552483c-0.023428,0.1668348-0.0351429,0.4553204-0.0351429,0.8654566
	c0,0.6742916-0.0256243,1.1452541-0.0768738,1.4128847c-0.0512495,0.2676315-0.1456957,0.4822578-0.2833366,0.6438799
	c-0.1376419,0.1616211-0.3397112,0.2893543-0.6062088,0.3831987c-0.1786413,0.0625639-0.4597816,0.0938454-0.843421,0.0938454
	h-0.2328196v-1.2512636c0.3133545,0,0.5183525-0.0234613,0.614994-0.070384
	c0.0966425-0.0469217,0.1676598-0.1146984,0.2130518-0.20333c0.045393-0.0886307,0.068821-0.2389565,0.0702848-0.4509764
	c0.0014648-0.212019,0.0139112-0.6169415,0.0373392-1.2147675c0.0146427-0.3614759,0.0541782-0.6508312,0.1186066-0.8680644
	c0.0644274-0.2172332,0.1500874-0.4014468,0.2569799-0.5526409C12.4134607,7.2476459,12.5503702,7.1146994,12.7172976,7
	c-0.216713-0.1668353-0.3748541-0.3301945-0.4744244-0.490078c-0.1376419-0.2293983-0.2313557-0.5213599-0.2811403-0.8758845
	c-0.0322142-0.2433014-0.0556431-0.778564-0.0702858-1.6057878c-0.0029278-0.26068-0.0226955-0.4344666-0.0593023-0.5213599
	s-0.1025-0.1538012-0.1976776-0.2007234c-0.0951777-0.0469224-0.3082294-0.0703835-0.6391544-0.0703835V1.989733h0.2328196
	c0.3953533,0,0.6984577,0.0364952,0.9093132,0.1094856c0.2108545,0.0729904,0.388032,0.1972477,0.5315304,0.3727722
	c0.1434994,0.1755245,0.2408733,0.3910198,0.2921228,0.646486s0.0768738,0.6577821,0.0768738,1.2069478
	c0,0.6360588,0.0219641,1.0514088,0.0658922,1.2460499c0.0644283,0.2780585,0.1625347,0.4770441,0.2943192,0.5969567
	S13.7305737,6.3569899,14,6.3743682V7.6256318z M4.0312271,5.3767815h0.6583557V7.44803
	c0,0.2715721-0.0236597,0.4793653-0.0714931,0.6254382C4.5543113,8.2637739,4.4380703,8.4170475,4.2698812,8.5322599
	C4.1016917,8.6474724,3.8800111,8.7050781,3.6048391,8.7050781c-0.3230059,0-0.5714324-0.0905237-0.7457936-0.2705431
	C2.6851983,8.2534876,2.5972462,7.9880877,2.5957031,7.6383362l0.6228662-0.0709791
	c0.007201,0.1872201,0.0349753,0.3199196,0.0822945,0.3970709c0.0714934,0.1172695,0.1800191,0.1759043,0.326092,0.1759043
	c0.1476157,0,0.2515123-0.0421762,0.3127189-0.1254988c0.0606921-0.084352,0.0915525-0.2592278,0.0915525-0.5235987V5.3767815z
	 M8.3439713,8.6495295H7.6249237L7.3389502,7.9057932H6.031497L5.7614684,8.6495295h-0.701046l1.2745357-3.272748H7.034461
	L8.3439713,8.6495295z M7.1270423,7.3554487L6.6764798,6.1405768L6.2346616,7.3554487H7.1270423z M8.3614588,8.6495295
	l1.1181765-1.7076101L8.4663849,5.3767815H9.238924L9.8952217,6.428093l0.6429262-1.0513115h0.7653379l-1.0173655,1.5898261
	l1.1181765,1.6829219H10.607069L9.8818493,7.5179806L9.1535435,8.6495295H8.3614588z"/>
</svg>
