<?xml version="1.0" encoding="utf-8"?>

<!--
 ~   Copyright 2017, WSO2 Inc. (http://www.wso2.com)
 ~
 ~   Licensed under the Apache License, Version 2.0 (the "License");
 ~   you may not use this file except in compliance with the License.
 ~   You may obtain a copy of the License at
 ~
 ~        http://www.apache.org/licenses/LICENSE-2.0
 ~
 ~   Unless required by applicable law or agreed to in writing, software
 ~   distributed under the License is distributed on an "AS IS" BASIS,
 ~   WITHOUT WARRANTIES OR CONDITIONS OF ANY KIND, either express or implied.
 ~   See the License for the specific language governing permissions and
 ~   limitations under the License.
-->

<svg version="1.1" id="lengthof" xmlns="http://www.w3.org/2000/svg" xmlns:xlink="http://www.w3.org/1999/xlink" x="0px" y="0px"
	 viewBox="0 0 14 14" style="enable-background:new 0 0 14 14;" xml:space="preserve">
<path d="M5.255188,5.3497314C5.2234497,5.2984619,5.2073364,5.2374268,5.2073364,5.166626
	c0-0.0952148,0.0292969-0.1630859,0.0878906-0.2036133c0.0585938-0.0400391,0.1186523-0.0605469,0.1796875-0.0605469
	c0.0292969,0,0.0585938,0.0043945,0.0878906,0.0131836C5.5921021,4.9239502,5.6238403,4.9381104,5.65802,4.9576416
	l0.128418,0.0698242c0.0170898,0.0097656,0.0336914,0.0161133,0.0493164,0.0200195
	c0.0161133,0.003418,0.0336914,0.0053711,0.0532227,0.0053711c0.0610352,0,0.1079102-0.0151367,0.1411133-0.0458984
	c0.0332031-0.0302734,0.1176758-0.137207,0.2548828-0.3203125c0.090332-0.1196289,0.2954102-0.4116211,0.6152344-0.8759766
	c0-0.0170898-0.027832-0.1484375-0.0839844-0.394043S6.7088013,2.9630127,6.6624146,2.7921143
	c-0.046875-0.1733398-0.0883789-0.2875977-0.125-0.3427734S6.4324341,2.3668213,6.3323364,2.3668213
	c-0.0341797,0-0.1015625,0.012207-0.2016602,0.0366211C6.0671997,2.4180908,5.9988403,2.4351807,5.9255981,2.4547119
	L5.8928833,2.3414307l0.4067383-0.1396484C6.4046021,2.1651611,6.50177,2.1358643,6.5906372,2.1138916
	c0.0893555-0.0219727,0.1655273-0.0327148,0.2290039-0.0327148c0.1025391,0,0.1796875,0.0302734,0.230957,0.0913086
	c0.078125,0.0981445,0.144043,0.2910156,0.1977539,0.5791016l0.0771484,0.4179688
	c0.2197266-0.3374023,0.390625-0.5742188,0.5131836-0.7109375C7.9485474,2.3341064,8.052063,2.241333,8.1497192,2.1798096
	C8.2473755,2.1187744,8.3401489,2.088501,8.4280396,2.088501c0.0830078,0,0.1503906,0.012207,0.2021484,0.0366211
	c0.0927734,0.0439453,0.1386719,0.1269531,0.1386719,0.2490234c0,0.0830078-0.0224609,0.1479492-0.0693359,0.1943359
	C8.6536255,2.6148682,8.5930786,2.6383057,8.5198364,2.6383057c-0.0263672,0-0.0527344-0.003418-0.0771484-0.0092773
	c-0.0244141-0.0063477-0.0498047-0.0151367-0.0771484-0.027832L8.270813,2.5611572
	c-0.0263672-0.012207-0.0527344-0.0224609-0.0771484-0.03125C8.1692505,2.5216064,8.1506958,2.5172119,8.1389771,2.5172119
	c-0.109375,0-0.2626953,0.1420898-0.4580078,0.4267578S7.3880005,3.3927002,7.3880005,3.4371338
	c0,0.0366211,0.0224609,0.1552734,0.0673828,0.3569336c0.0454102,0.2016602,0.0947266,0.4150391,0.1484375,0.6396484
	c0.0488281,0.2124023,0.090332,0.3588867,0.125,0.4394531c0.0561523,0.1318359,0.1196289,0.1982422,0.1904297,0.1982422
	c0.065918,0,0.1328125-0.0366211,0.2011719-0.1103516c0.0683594-0.0732422,0.1708984-0.2050781,0.3076172-0.3955078
	l0.1025391,0.0625C8.4260864,4.8184814,8.3167114,4.9810791,8.2053833,5.1153564
	C7.9924927,5.3692627,7.7893677,5.4962158,7.5964966,5.4962158c-0.1220703,0-0.21875-0.0585938-0.2895508-0.1757812
	c-0.0415039-0.0683594-0.081543-0.1806641-0.1206055-0.3374023L6.9588013,4.0782471L6.2078247,5.0640869
	C6.0613403,5.2349854,5.9480591,5.3497314,5.8689575,5.4083252C5.7893677,5.4669189,5.6912231,5.4962158,5.5740356,5.4962158
	C5.4172974,5.4962158,5.3113403,5.4473877,5.255188,5.3497314z M13,1.5300293v6.4499512L9.8400269,4.7999878l-0.7000122,0.710022
	L11.1099854,7.5H2.8400269l1.9899902-2l-0.710022-0.710022L1,7.9400024V1.5300293H0v10.9399414h1V8.0200195l3.1400146,3.1900024
	L4.8499756,10.5l-1.9799805-2h8.2700195l-1.9500122,1.9899902l0.7199707,0.7000122L13,8.039978v4.4299927h1V1.5300293H13z"/>
</svg>
