<?xml version="1.0" encoding="utf-8"?>

<!--
 ~   Copyright 2017, WSO2 Inc. (http://www.wso2.com)
 ~
 ~   Licensed under the Apache License, Version 2.0 (the "License");
 ~   you may not use this file except in compliance with the License.
 ~   You may obtain a copy of the License at
 ~
 ~        http://www.apache.org/licenses/LICENSE-2.0
 ~
 ~   Unless required by applicable law or agreed to in writing, software
 ~   distributed under the License is distributed on an "AS IS" BASIS,
 ~   WITHOUT WARRANTIES OR CONDITIONS OF ANY KIND, either express or implied.
 ~   See the License for the specific language governing permissions and
 ~   limitations under the License.
-->

<svg version="1.1" id="lengthof" xmlns="http://www.w3.org/2000/svg" xmlns:xlink="http://www.w3.org/1999/xlink" x="0px" y="0px"
	 viewBox="0 0 14 14" style="enable-background:new 0 0 14 14;" xml:space="preserve">
<path d="M13.999999,2.7938685h-1.0733032v8.412262h1.0733032V2.7938685z M-0.000001,2.8625696v8.2748604h1.0733032
	V2.8625696H-0.000001z M12.9138384,6.9539804l-2.1868467,2.1708832l-0.5651569-0.5690975l1.2062407-1.1968122l-0.1760979,0.0020452
	l0.0001001,0.0087299L2.5853882,7.4438095l1.2505393,1.2980309L3.2577002,9.2978182L1.0891113,7.0460196L3.2759585,4.875186
	l0.5651569,0.5690484L2.6348751,6.641046l0.1760972-0.0020452L2.8108726,6.630271l8.6066895-0.0740805l-1.2505388-1.2980309
	l0.578227-0.5559778L12.9138384,6.9539804z M5.3071289,5.2963867c0.0585938-0.0400391,0.1186523-0.0605469,0.1796875-0.0605469
	c0.0292969,0,0.0585938,0.0043945,0.0878906,0.0131836c0.0292969,0.0083008,0.0610352,0.0224609,0.0952148,0.0419922
	l0.128418,0.0698242c0.0170898,0.0097656,0.0336914,0.0161133,0.0493164,0.0200195
	c0.0161133,0.003418,0.0336914,0.0053711,0.0532227,0.0053711c0.0610352,0,0.1079102-0.0151367,0.1411133-0.0458984
	C6.0751953,5.3100586,6.159668,5.203125,6.296875,5.0200195C6.387207,4.9003906,6.5922852,4.6083984,6.9121094,4.144043
	c0-0.0170898-0.027832-0.1484375-0.0839844-0.394043S6.7207031,3.2963867,6.6743164,3.1254883
	c-0.046875-0.1733398-0.0883789-0.2875977-0.125-0.3427734S6.4443359,2.7001953,6.3442383,2.7001953
	c-0.0341797,0-0.1015625,0.012207-0.2016602,0.0366211C6.0791016,2.7514648,6.0107422,2.7685547,5.9375,2.7880859
	L5.9047852,2.6748047l0.4067383-0.1396484c0.1049805-0.0366211,0.2021484-0.065918,0.2910156-0.0878906
	C6.6918945,2.425293,6.7680664,2.4145508,6.831543,2.4145508c0.1025391,0,0.1796875,0.0302734,0.230957,0.0913086
	C7.140625,2.6040039,7.206543,2.796875,7.2602539,3.0849609l0.0771484,0.4179688
	c0.2197266-0.3374023,0.390625-0.5742188,0.5131836-0.7109375C7.9604492,2.6674805,8.0639648,2.574707,8.1616211,2.5131836
	C8.2592773,2.4521484,8.3520508,2.421875,8.4399414,2.421875c0.0830078,0,0.1503906,0.012207,0.2021484,0.0366211
	c0.0927734,0.0439453,0.1386719,0.1269531,0.1386719,0.2490234c0,0.0830078-0.0224609,0.1479492-0.0693359,0.1943359
	C8.6655273,2.9482422,8.6049805,2.9716797,8.5317383,2.9716797c-0.0263672,0-0.0527344-0.003418-0.0771484-0.0092773
	c-0.0244141-0.0063477-0.0498047-0.0151367-0.0771484-0.027832L8.2827148,2.8945312
	c-0.0263672-0.012207-0.0527344-0.0224609-0.0771484-0.03125C8.1811523,2.8549805,8.1625977,2.8505859,8.1508789,2.8505859
	c-0.109375,0-0.2626953,0.1420898-0.4580078,0.4267578S7.3999023,3.7260742,7.3999023,3.7705078
	c0,0.0366211,0.0224609,0.1552734,0.0673828,0.3569336c0.0454102,0.2016602,0.0947266,0.4150391,0.1484375,0.6396484
	c0.0488281,0.2124023,0.090332,0.3588867,0.125,0.4394531C7.796875,5.3383789,7.8603516,5.4047852,7.9311523,5.4047852
	c0.065918,0,0.1328125-0.0366211,0.2011719-0.1103516c0.0683594-0.0732422,0.1708984-0.2050781,0.3076172-0.3955078
	l0.1025391,0.0625C8.4379883,5.1518555,8.3286133,5.3144531,8.2172852,5.4487305
	C8.0043945,5.7026367,7.8012695,5.8295898,7.6083984,5.8295898c-0.1220703,0-0.21875-0.0585938-0.2895508-0.1757812
	c-0.0415039-0.0683594-0.081543-0.1806641-0.1206055-0.3374023L6.9707031,4.4116211L6.2197266,5.3974609
	C6.0732422,5.5683594,5.9599609,5.6831055,5.8808594,5.7416992C5.8012695,5.800293,5.703125,5.8295898,5.5859375,5.8295898
	c-0.1567383,0-0.2626953-0.0488281-0.3188477-0.1464844C5.2353516,5.6318359,5.2192383,5.5708008,5.2192383,5.5
	C5.2192383,5.4047852,5.2485352,5.3369141,5.3071289,5.2963867z"/>
</svg>
