<?xml version="1.0" encoding="utf-8"?>

<!--
 ~   Copyright 2017, WSO2 Inc. (http://www.wso2.com)
 ~
 ~   Licensed under the Apache License, Version 2.0 (the "License");
 ~   you may not use this file except in compliance with the License.
 ~   You may obtain a copy of the License at
 ~
 ~        http://www.apache.org/licenses/LICENSE-2.0
 ~
 ~   Unless required by applicable law or agreed to in writing, software
 ~   distributed under the License is distributed on an "AS IS" BASIS,
 ~   WITHOUT WARRANTIES OR CONDITIONS OF ANY KIND, either express or implied.
 ~   See the License for the specific language governing permissions and
 ~   limitations under the License.
-->

<svg version="1.1" id="loader" xmlns="http://www.w3.org/2000/svg" xmlns:xlink="http://www.w3.org/1999/xlink" x="0px" y="0px"
	 viewBox="0 0 14 14" style="enable-background:new 0 0 14 14;" xml:space="preserve">
<path d="M7,3C4.8,3,3,4.8,3,7s1.8,4,4,4c2.2,0,4-1.8,4-4S9.2,3,7,3z M11.5,2.8L10.3,4c0.7,0.8,1.1,1.8,1.1,3c0,2.5-2,4.5-4.4,4.5
	c-2.5,0-4.4-2-4.4-4.5c0-1.1,0.4-2.1,1.1-2.9L2.3,3C1.4,4.1,0.8,5.5,0.8,7c0,3.4,2.8,6.2,6.2,6.2c3.4,0,6.2-2.8,6.2-6.2
	C13.2,5.4,12.5,3.9,11.5,2.8z M7,0c3.8,0,6.9,3.1,6.9,7s-3.1,7-6.9,7c-3.8,0-6.9-3.1-6.9-7C0.1,3.1,3.2,0,7,0z"/>
</svg>
