<?xml version="1.0" encoding="utf-8"?>

<!--
 ~   Copyright 2017, WSO2 Inc. (http://www.wso2.com)
 ~
 ~   Licensed under the Apache License, Version 2.0 (the "License");
 ~   you may not use this file except in compliance with the License.
 ~   You may obtain a copy of the License at
 ~
 ~        http://www.apache.org/licenses/LICENSE-2.0
 ~
 ~   Unless required by applicable law or agreed to in writing, software
 ~   distributed under the License is distributed on an "AS IS" BASIS,
 ~   WITHOUT WARRANTIES OR CONDITIONS OF ANY KIND, either express or implied.
 ~   See the License for the specific language governing permissions and
 ~   limitations under the License.
-->


<svg version="1.1" id="micro-services" xmlns="http://www.w3.org/2000/svg" xmlns:xlink="http://www.w3.org/1999/xlink" x="0px"
	 y="0px" viewBox="0 0 14 14" style="enable-background:new 0 0 14 14;" xml:space="preserve">
<path d="M8.2603502,8.8624372c-0.727963,0-1.3201704-0.5922079-1.3201704-1.3201389s0.5922074-1.3201709,1.3201704-1.3201709
	s1.3201714,0.5922399,1.3201714,1.3201709S8.9883137,8.8624372,8.2603502,8.8624372z M8.2603502,6.4201531
	c-0.6187654,0-1.1221447,0.5033793-1.1221447,1.1221452c0,0.6187334,0.5033793,1.1221132,1.1221447,1.1221132
	s1.1221457-0.5033798,1.1221457-1.1221132C9.3824959,6.9235325,8.8791161,6.4201531,8.2603502,6.4201531z M10.2885666,6.4280496
	c-0.5299377,0-0.9610567-0.4311504-0.9610567-0.9610882s0.431119-0.9610562,0.9610567-0.9610562
	s0.9611206,0.4311185,0.9611206,0.9610562S10.8185043,6.4280496,10.2885666,6.4280496z M10.2885666,4.7039309
	c-0.4207401,0-0.763031,0.3422904-0.763031,0.7630305c0,0.4207397,0.3422909,0.7630625,0.763031,0.7630625
	s0.7630949-0.3423228,0.7630949-0.7630625C11.0516615,5.0462213,10.7093067,4.7039309,10.2885666,4.7039309z M13.0389442,9.0023832
	c-0.5299377,0-0.9610567-0.4311514-0.9610567-0.9610891s0.431119-0.9610558,0.9610567-0.9610558S14,7.5113568,14,8.0412941
	S13.568882,9.0023832,13.0389442,9.0023832z M13.0389442,7.278264c-0.4207401,0-0.763031,0.3422904-0.763031,0.7630301
	c0,0.4207401,0.3422909,0.7630634,0.763031,0.7630634s0.7630301-0.3423233,0.7630301-0.7630634
	C13.8019743,7.6205544,13.4596844,7.278264,13.0389442,7.278264z M12.1588516,12.8968868
	c-0.5299377,0-0.9611206-0.431118-0.9611206-0.9610558s0.4311829-0.9611206,0.9611206-0.9611206
	s0.9610558,0.4311829,0.9610558,0.9611206S12.6887894,12.8968868,12.1588516,12.8968868z M12.1588516,11.1727362
	c-0.4207401,0-0.7630949,0.3423548-0.7630949,0.7630949s0.3423548,0.7630301,0.7630949,0.7630301
	s0.7630301-0.3422899,0.7630301-0.7630301S12.5795918,11.1727362,12.1588516,11.1727362z M6.4600706,11.7307148
	c-0.5299377,0-0.9610558-0.431119-0.9610558-0.9610567s0.431118-0.9610558,0.9610558-0.9610558
	s0.9611206,0.431118,0.9611206,0.9610558S6.9900084,11.7307148,6.4600706,11.7307148z M6.4600706,10.006628
	c-0.4207401,0-0.7630305,0.3422899-0.7630305,0.7630301s0.3422904,0.763031,0.7630305,0.763031
	s0.7630949-0.3422909,0.7630949-0.763031S6.8808107,10.006628,6.4600706,10.006628z M2.0155168,12.9628954
	c-0.5299377,0-0.961056-0.431118-0.961056-0.9610558s0.4311182-0.9611206,0.961056-0.9611206s0.961056,0.4311829,0.961056,0.9611206
	S2.5454545,12.9628954,2.0155168,12.9628954z M2.0155168,11.2387447c-0.42074,0-0.7630304,0.3423548-0.7630304,0.7630949
	s0.3422904,0.7630301,0.7630304,0.7630301s0.7630305-0.3422899,0.7630305-0.7630301S2.4362569,11.2387447,2.0155168,11.2387447z
	 M2.7416108,4.9978752c-0.5299377,0-0.961056-0.4311509-0.961056-0.9610887s0.4311182-0.9610882,0.961056-0.9610882
	s0.961056,0.4311507,0.961056,0.9610882S3.2715485,4.9978752,2.7416108,4.9978752z M2.7416108,3.2737241
	c-0.4207399,0-0.7630304,0.3423226-0.7630304,0.7630625s0.3422905,0.763063,0.7630304,0.763063
	s0.7630305-0.3423228,0.7630305-0.763063S3.1623509,3.2737241,2.7416108,3.2737241z M5.4259796,7.638217
	c-0.5299377,0-0.9611201-0.4311504-0.9611201-0.9610882s0.4311824-0.9610887,0.9611201-0.9610887
	S6.3870358,6.147191,6.3870358,6.6771288S5.9559174,7.638217,5.4259796,7.638217z M5.4259796,5.9140658
	c-0.4207397,0-0.7630949,0.3423228-0.7630949,0.763063c0,0.4207397,0.3423553,0.7630625,0.7630949,0.7630625
	c0.4207401,0,0.7630305-0.3423228,0.7630305-0.7630625C6.1890101,6.2563887,5.8467197,5.9140658,5.4259796,5.9140658z
	 M7.8140197,5.1939993c-0.353507,0-0.6410694-0.2875953-0.6410694-0.6411018c0-0.3534746,0.2875624-0.6410692,0.6410694-0.6410692
	c0.3535066,0,0.6411338,0.2875946,0.6411338,0.6410692C8.4551535,4.906404,8.1675262,5.1939993,7.8140197,5.1939993z
	 M7.8140197,4.1098537c-0.2443094,0-0.4430437,0.1987348-0.4430437,0.4430437s0.1987343,0.4430761,0.4430437,0.4430761
	c0.2443089,0,0.4431081-0.1987672,0.4431081-0.4430761S8.0583286,4.1098537,7.8140197,4.1098537z M10.7404413,10.386693
	c-0.353507,0-0.6411343-0.2876272-0.6411343-0.6411343c0-0.3535061,0.2876272-0.6410694,0.6411343-0.6410694
	s0.6410694,0.2875633,0.6410694,0.6410694C11.3815107,10.0990658,11.0939484,10.386693,10.7404413,10.386693z M10.7404413,9.302515
	c-0.2443094,0-0.4431086,0.1987352-0.4431086,0.4430437c0,0.2443094,0.1987991,0.4431086,0.4431086,0.4431086
	c0.2443085,0,0.4430437-0.1987991,0.4430437-0.4431086C11.183485,9.5012503,10.9847498,9.302515,10.7404413,9.302515z
	 M8.7161579,12.6749458c-0.353507,0-0.6410694-0.2875624-0.6410694-0.6410694c0-0.3535061,0.2875624-0.6410694,0.6410694-0.6410694
	c0.3535061,0,0.6410694,0.2875633,0.6410694,0.6410694C9.3572273,12.3873835,9.069664,12.6749458,8.7161579,12.6749458z
	 M8.7161579,11.5908327c-0.2443094,0-0.4430437,0.1987352-0.4430437,0.4430437c0,0.2443094,0.1987343,0.4430437,0.4430437,0.4430437
	c0.2443085,0,0.4430437-0.1987343,0.4430437-0.4430437C9.1592016,11.7895679,8.9604664,11.5908327,8.7161579,11.5908327z
	 M4.2275767,11.420784c-0.3535068,0-0.6410694-0.2875633-0.6410694-0.6410694c0-0.353507,0.2875626-0.6410694,0.6410694-0.6410694
	s0.6410694,0.2875624,0.6410694,0.6410694C4.8686461,11.1332207,4.5810833,11.420784,4.2275767,11.420784z M4.2275767,10.3366709
	c-0.2443092,0-0.4430437,0.1987343-0.4430437,0.4430437c0,0.2443085,0.1987345,0.4430437,0.4430437,0.4430437
	s0.4430437-0.1987352,0.4430437-0.4430437C4.6706204,10.5354052,4.4718857,10.3366709,4.2275767,10.3366709z M0.6411338,7.3722811
	C0.2876271,7.3722811,0,7.0846863,0,6.7311797c0-0.3534746,0.2876271-0.6410694,0.6411338-0.6410694
	s0.6410693,0.2875948,0.6410693,0.6410694C1.2822031,7.0846863,0.9946405,7.3722811,0.6411338,7.3722811z M0.6411338,6.288136
	c-0.244309,0-0.4431081,0.1987348-0.4431081,0.4430437s0.1987992,0.4430757,0.4431081,0.4430757
	s0.4430437-0.1987667,0.4430437-0.4430757S0.8854427,6.288136,0.6411338,6.288136z M2.6139772,10.2782688
	c-0.7279634,0-1.320171-0.5922079-1.320171-1.3201714c0-0.727931,0.5922076-1.3201385,1.320171-1.3201385
	s1.3201709,0.5922074,1.3201709,1.3201385C3.9341481,9.6860609,3.3419404,10.2782688,2.6139772,10.2782688z M2.6139772,7.8359847
	c-0.6187657,0-1.1221454,0.5033793-1.1221454,1.1221128c0,0.6187658,0.5033797,1.1221457,1.1221454,1.1221457
	s1.1221452-0.5033798,1.1221452-1.1221457C3.7361224,8.3393641,3.2327428,7.8359847,2.6139772,7.8359847z M6.4644542,3.6774464
	c-0.7279634,0-1.3201709-0.5922399-1.3201709-1.3201709s0.5922074-1.320171,1.3201709-1.320171
	s1.3201709,0.5922397,1.3201709,1.320171S7.1924176,3.6774464,6.4644542,3.6774464z M6.4644542,1.2351301
	c-0.6187658,0-1.1221452,0.5033797-1.1221452,1.1221454s0.5033793,1.1221452,1.1221452,1.1221452
	s1.1221452-0.5033796,1.1221452-1.1221452S7.0832195,1.2351301,6.4644542,1.2351301z"/>
</svg>
