<?xml version="1.0" encoding="utf-8"?>

<!--
 ~   Copyright 2017, WSO2 Inc. (http://www.wso2.com)
 ~
 ~   Licensed under the Apache License, Version 2.0 (the "License");
 ~   you may not use this file except in compliance with the License.
 ~   You may obtain a copy of the License at
 ~
 ~        http://www.apache.org/licenses/LICENSE-2.0
 ~
 ~   Unless required by applicable law or agreed to in writing, software
 ~   distributed under the License is distributed on an "AS IS" BASIS,
 ~   WITHOUT WARRANTIES OR CONDITIONS OF ANY KIND, either express or implied.
 ~   See the License for the specific language governing permissions and
 ~   limitations under the License.
-->

<svg version="1.1" id="nodejs" xmlns="http://www.w3.org/2000/svg" xmlns:xlink="http://www.w3.org/1999/xlink" x="0px" y="0px"
	 viewBox="0 0 14 14" style="enable-background:new 0 0 14 14;" xml:space="preserve">
<path d="M6.8642402,14c-0.4073992-0.0984879-0.7321501-0.3586998-1.0866666-0.5595074
	c-0.3609986-0.2044802-0.7155685-0.4204187-1.0702267-0.6358318c-0.0414639-0.0251846-0.0656099-0.0788813-0.097784-0.1193619
	c0.0394082-0.0273323,0.0758219-0.0611773,0.1187258-0.0809088c0.2273259-0.1045523,0.4592443-0.199585,0.6832585-0.3106489
	c0.0931935-0.0462036,0.1649547-0.0483418,0.2534032,0.005147c0.3941016,0.2383223,0.7928705,0.4689522,1.18608,0.7087126
	c0.1070547,0.0652781,0.1948185,0.064764,0.3030238,0.0020695c1.6610942-0.9624453,3.3235354-1.9225702,4.987473-2.8800907
	c0.1038742-0.0597734,0.1481876-0.131546,0.1480513-0.2508383c-0.0021982-1.9251785-0.0020857-3.8503609-0.0002708-5.7755408
	c0.0001068-0.1132839-0.0412912-0.1848376-0.1404867-0.2419219c-1.6678848-0.9598289-3.3347292-1.9214702-4.9998822-2.8860281
	C7.038065,0.9110255,6.9509249,0.922766,6.8456511,0.9837274c-1.6613541,0.962046-3.324002,1.9218607-4.9877148,2.8798225
	c-0.0994071,0.0572383-0.1375037,0.1293535-0.137367,0.2429144c0.0023195,1.9251785,0.0024135,3.8503609-0.0002109,5.7755394
	c-0.000157,0.1151571,0.0410082,0.1841793,0.1401194,0.2404079c0.4362836,0.2475109,0.867718,0.5035706,1.304004,0.7510767
	c0.2308772,0.1309786,0.4770086,0.2075434,0.7473273,0.1498451c0.2884316-0.0615635,0.489727-0.2881308,0.5158372-0.5809526
	c0.0052528-0.0589094,0.0042968-0.118474,0.0043035-0.1777353C4.4321499,8.3987703,4.432086,6.5328951,4.4321527,4.6670203
	c0.0000086-0.249609,0.025146-0.2747164,0.2732182-0.2748013C4.8696041,4.3921633,5.0338416,4.3929658,5.19807,4.3920946
	c0.1240659-0.0006571,0.185256,0.0610747,0.1876779,0.1836414c0.0005407,0.0273633,0.000351,0.0547423,0.000351,0.0821137
	c0.0000138,1.9069333,0.0012751,3.813869-0.0022445,5.7207961c-0.0003004,0.1628933-0.0192146,0.3284426-0.0520473,0.4881182
	c-0.139894,0.6803513-0.6410375,1.0805101-1.3331647,1.1159744c-0.489295,0.0250711-0.9292653-0.1066256-1.346148-0.3386278
	c-0.4422388-0.2461147-0.879458-0.5013771-1.3161551-0.7572765c-0.2973744-0.1742573-0.4699345-0.4372902-0.5250912-0.7775993
	c-0.0057638-0.0355625-0.0157231-0.0704441-0.0237359-0.1056414c-0.0000001-2.007328-0.0000001-4.0146551-0.0000001-6.0219827
	C0.8466259,3.5433843,1.0780892,3.2408316,1.465306,3.0199287c1.6471958-0.9397082,3.2864826-1.8932883,4.9279394-2.8430443
	C6.8057079-0.0617693,7.2115178-0.0576526,7.6240087,0.181501C9.2882586,1.1463976,10.9540138,2.1087,12.6203785,3.069941
	c0.3953457,0.2280545,0.5910482,0.5648136,0.5907717,1.0209885c-0.0011663,1.9245963-0.0030813,3.8491998,0.0013332,5.773787
	c0.0010986,0.4788094-0.1953707,0.8270483-0.6106148,1.0657043c-1.490037,0.8563805-2.9762726,1.7193766-4.4663458,2.5756941
	C7.8137412,13.6910362,7.5108032,13.9170227,7.1379666,14C7.0467243,14,6.955482,14,6.8642402,14z M10.6012306,10.0663738
	c0.6455297-0.3057947,1.0225515-0.8009043,1.0691299-1.5298729c0.0504694-0.7898536-0.2673321-1.2994914-1.0090904-1.5805922
	c-0.1953707-0.0740395-0.3974895-0.1405411-0.6024685-0.177c-0.5741978-0.1021304-1.1529446-0.1787376-1.7270317-0.281425
	c-0.3218489-0.057569-0.6398916-0.1399503-0.9558454-0.2252436C7.2466841,6.2373505,7.1417112,6.1516852,7.0974908,6.0114388
	C7.0122852,5.741209,7.1189318,5.4141803,7.3609271,5.2653871c0.1146441-0.0704904,0.2445455-0.1255989,0.374867-0.1594362
	c0.4337111-0.1126113,0.8759604-0.096683,1.3188219-0.0688357c0.6742525,0.0423975,1.1662378,0.3099089,1.3078337,1.0281682
	c0.0184765,0.0937228,0.0870075,0.1360984,0.1797047,0.1365161c0.2417727,0.00109,0.4836254,0.00389,0.7253017-0.0010781
	c0.1206055-0.0024796,0.1830435-0.0752072,0.1728411-0.1976547c-0.0676441-0.8118739-0.4222174-1.4452362-1.2103853-1.7334833
	C9.2000484,3.8929424,8.143652,3.873163,7.1067114,4.2404656C6.3822961,4.4970655,5.9516258,5.0162563,5.9245477,5.8176484
	c-0.0238137,0.7047744,0.2877655,1.203651,0.9386697,1.4703522c0.201386,0.0825157,0.4121876,0.1572719,0.625761,0.1919088
	c0.5890694,0.0955334,1.1840773,0.155026,1.7723427,0.2547064c0.3211622,0.05442,0.6362648,0.1522236,0.9483919,0.2488966
	c0.1412296,0.0437427,0.2495823,0.1509538,0.2933569,0.3038201c0.0851564,0.2973766-0.0354385,0.6525297-0.2973957,0.8194599
	c-0.1209249,0.0770588-0.2591562,0.1428089-0.3983431,0.1727028c-0.7230921,0.155304-1.4493818,0.1559-2.1691499-0.0183392
	C7.2042351,9.1561089,6.9361181,8.873436,6.8460307,8.4306803C6.8360329,8.3815422,6.8229594,8.332716,6.8173366,8.2830629
	c-0.0144444-0.127553-0.0895052-0.18431-0.2117729-0.18501C6.382041,8.0967741,6.158401,8.0935335,5.9350114,8.0991392
	c-0.1569433,0.0039387-0.2143078,0.077445-0.2083106,0.2397137c0.0321074,0.8687391,0.4611516,1.4557438,1.2621045,1.7785378
	c0.5687385,0.2292109,1.1668305,0.2785873,1.7714505,0.2881947C9.3938961,10.4005404,10.0185556,10.342392,10.6012306,10.0663738z"
	/>
</svg>
