<?xml version="1.0" encoding="utf-8"?>

<!--
 ~   Copyright 2017, WSO2 Inc. (http://www.wso2.com)
 ~
 ~   Licensed under the Apache License, Version 2.0 (the "License");
 ~   you may not use this file except in compliance with the License.
 ~   You may obtain a copy of the License at
 ~
 ~        http://www.apache.org/licenses/LICENSE-2.0
 ~
 ~   Unless required by applicable law or agreed to in writing, software
 ~   distributed under the License is distributed on an "AS IS" BASIS,
 ~   WITHOUT WARRANTIES OR CONDITIONS OF ANY KIND, either express or implied.
 ~   See the License for the specific language governing permissions and
 ~   limitations under the License.
-->

<svg version="1.1" id="not_equal" xmlns="http://www.w3.org/2000/svg" xmlns:xlink="http://www.w3.org/1999/xlink" x="0px"
	 y="0px" viewBox="0 0 14 14" style="enable-background:new 0 0 14 14;" xml:space="preserve">
<path d="M0,11.9108076c0-0.3151045,0.0989583-0.5755215,0.296875-0.786459c0.1979167-0.208333,0.4817708-0.3125,0.8515625-0.3125
	s0.6536459,0.104167,0.8567708,0.3125c0.200521,0.2109375,0.3020835,0.4713545,0.3020835,0.786459
	c0,0.3098955-0.1015625,0.567708-0.3020835,0.770833c-0.2031249,0.2057295-0.4869791,0.307292-0.8567708,0.307292
	s-0.6536459-0.1015625-0.8515625-0.307292C0.0989583,12.4785156,0,12.2207031,0,11.9108076z M2.0625,8.8613281H0.21875
	L0.1536458,1.0110677h1.9739584L2.0625,8.8613281z M4.8986826,4.5032086v1.5542798H14V4.5032086H4.8986826z M4.8986826,9.4967918H14
	V7.9425116H4.8986826V9.4967918z"/>
</svg>
