<?xml version="1.0" encoding="utf-8"?>

<!--
 ~   Copyright 2017, WSO2 Inc. (http://www.wso2.com)
 ~
 ~   Licensed under the Apache License, Version 2.0 (the "License");
 ~   you may not use this file except in compliance with the License.
 ~   You may obtain a copy of the License at
 ~
 ~        http://www.apache.org/licenses/LICENSE-2.0
 ~
 ~   Unless required by applicable law or agreed to in writing, software
 ~   distributed under the License is distributed on an "AS IS" BASIS,
 ~   WITHOUT WARRANTIES OR CONDITIONS OF ANY KIND, either express or implied.
 ~   See the License for the specific language governing permissions and
 ~   limitations under the License.
-->

<svg version="1.1" id="power" xmlns="http://www.w3.org/2000/svg" xmlns:xlink="http://www.w3.org/1999/xlink" x="0px" y="0px"
	 viewBox="0 0 14 14" style="enable-background:new 0 0 14 14;" xml:space="preserve">
<path d="M12.6915808,0.1634082l-1.083992,3.3056257l-1.1161556-3.3056257H9.1820354l1.7708874,4.6686077
	c-0.0751352,0.2575693-0.1824341,0.4722319-0.3219624,0.6439886c-0.1395273,0.1716909-0.3434467,0.2575693-0.6332455,0.2575693
	c-0.1609478,0-0.3327045-0.0214858-0.5258818-0.0643926l0.118042,0.9658852
	c0.2254057,0.0537148,0.4614897,0.0751352,0.6868954,0.0751352c0.236083,0,0.4507456-0.0214205,0.6332455-0.0751352
	c0.1824341-0.0429063,0.3433819-0.1180415,0.472167-0.2039199c0.12885-0.0965557,0.2361488-0.2038546,0.3327703-0.354125
	c0.1072979-0.1395278,0.2038536-0.3434477,0.3112183-0.6225028l0.3004761-0.8049369L13.96875,0.1634082H12.6915808z
	 M0.1278712,4.2846484H1.5625l2.421875,3.5272264L6.34375,4.2846484h1.5114627L4.75,8.9525003l3.276969,4.8840914H6.515625
	l-2.53125-3.7434664l-2.4375,3.7434664H0.03125l3.203125-4.8725929L0.1278712,4.2846484z"/>
</svg>
