<?xml version="1.0" encoding="utf-8"?>

<!--
 ~   Copyright 2017, WSO2 Inc. (http://www.wso2.com)
 ~
 ~   Licensed under the Apache License, Version 2.0 (the "License");
 ~   you may not use this file except in compliance with the License.
 ~   You may obtain a copy of the License at
 ~
 ~        http://www.apache.org/licenses/LICENSE-2.0
 ~
 ~   Unless required by applicable law or agreed to in writing, software
 ~   distributed under the License is distributed on an "AS IS" BASIS,
 ~   WITHOUT WARRANTIES OR CONDITIONS OF ANY KIND, either express or implied.
 ~   See the License for the specific language governing permissions and
 ~   limitations under the License.
-->

<svg version="1.1" id="rules" xmlns="http://www.w3.org/2000/svg" xmlns:xlink="http://www.w3.org/1999/xlink" x="0px" y="0px"
	 viewBox="0 0 14 14" style="enable-background:new 0 0 14 14;" xml:space="preserve">
<path d="M13.3471498,11.0844631l-0.2624674,0.2615194l-5.2019606-5.202909L7.9831605,6.04074
	c0.1970868-0.1961393,0.1970868-0.5173535,0-0.7125454L7.9784226,5.3234572l1.2242131-1.2242141
	c0.1260233-0.0028424,0.2492018-0.0521145,0.3420601-0.1459203L9.781579,3.7164395
	c0.1970873-0.1951921,0.1970873-0.5164061,0-0.7115979L7.2867231,0.5118801c-0.1951919-0.1961395-0.5154586-0.1961395-0.7106504,0
	L6.3382421,0.7487636C6.1534729,0.9344802,6.1439972,1.2329533,6.3107634,1.4290929L5.1974111,2.5443404L5.1936207,2.54055
	c-0.1961393-0.1951919-0.5173535-0.1951919-0.7115974,0L3.1317871,3.8898382c-0.1980348,0.1951923-0.1980348,0.5164061,0,0.7115979
	L3.1346297,4.606174L2.0212774,5.7195263C1.8232428,5.5508657,1.5257171,5.5603404,1.339053,5.7460575L1.1031171,5.9829407
	c-0.1961396,0.1961393-0.1961396,0.5173535,0,0.7125454L3.5970263,9.189395c0.1961393,0.1961393,0.5173535,0.1961393,0.7134933,0
	l0.2349882-0.2368832c0.0947537-0.0947542,0.1440253-0.2179327,0.1459203-0.343008l1.2251611-1.2242131L5.9213271,7.389081
	c0.1961393,0.1951914,0.5173535,0.1951914,0.7125454,0l0.1004386-0.1023335l5.2038555,5.202909l-0.2615194,0.2624674
	l0.6537981,0.6547461L14,11.7382631L13.3471498,11.0844631z M0,11.7827959h7.9138031v1.8524284H0V11.7827959z"/>
</svg>
