<?xml version="1.0" encoding="utf-8"?>

<!--
 ~   Copyright 2017, WSO2 Inc. (http://www.wso2.com)
 ~
 ~   Licensed under the Apache License, Version 2.0 (the "License");
 ~   you may not use this file except in compliance with the License.
 ~   You may obtain a copy of the License at
 ~
 ~        http://www.apache.org/licenses/LICENSE-2.0
 ~
 ~   Unless required by applicable law or agreed to in writing, software
 ~   distributed under the License is distributed on an "AS IS" BASIS,
 ~   WITHOUT WARRANTIES OR CONDITIONS OF ANY KIND, either express or implied.
 ~   See the License for the specific language governing permissions and
 ~   limitations under the License.
-->

<svg version="1.1" id="service-provider" xmlns="http://www.w3.org/2000/svg" xmlns:xlink="http://www.w3.org/1999/xlink" x="0px"
	 y="0px" viewBox="0 0 14 14" style="enable-background:new 0 0 14 14;" xml:space="preserve">
<path d="M3.500061,3.7000122C3.500061,2.9000244,3.8000488,2,4.4000244,1.4000244l0.4000244,0.3999634
	C4.4000244,2.2999878,4.1000366,3,4.1000366,3.7000122C4.1000366,4.2999878,4.3000488,5,4.7000122,5.5L4.3000488,5.9000244
	C3.8000488,5.2999878,3.500061,4.5,3.500061,3.7000122z M3.4000244,6.6000366l0.4000244-0.4000244
	C3.2000122,5.5,2.9000244,4.6000366,2.9000244,3.7000122c0-1,0.4000244-1.9000244,1-2.7000122L3.500061,0.6000366
	c-0.7000122,0.7999878-1.1000366,1.8999634-1.1000366,3C2.4000244,4.7999878,2.7000122,5.7999878,3.4000244,6.6000366z
	 M3.1000366,0.4000244L2.7000122,0C1.8000488,1,1.3000488,2.4000244,1.3000488,3.7999878c0,1.3000488,0.3999634,2.5,1.2000122,3.5
	l0.3999634-0.3999634c-0.7000122-0.7999878-1.0999756-2-1.0999756-3.1000366C1.8000488,2.5,2.3000488,1.2999878,3.1000366,0.4000244
	z M9.3000488,5.5l0.3999634,0.4000244c0.5-0.6000366,0.8000488-1.4000244,0.8000488-2.2000122S10.2000122,2,9.6000366,1.4000244
	L9.2000122,1.7999878c0.5,0.5,0.7000122,1.2000122,0.7000122,1.9000244S9.7000122,5,9.3000488,5.5z M10.2000122,6.2999878
	l0.4000244,0.4000244c0.7000122-0.9000244,1-1.9000244,1-3s-0.4000244-2.2000122-1.0999756-3l-0.4000244,0.4000244
	c0.5999756,0.6999512,1,1.6999512,1,2.6999512C11.1000366,4.7000122,10.8000488,5.6000366,10.2000122,6.2999878z
	 M11.3000488,0.1000366L10.9000244,0.5c0.7999878,0.9000244,1.2999878,2.2000122,1.2999878,3.4000244
	c0,1-0.3999634,2.2000122-1.0999756,3.0999756l0.4000244,0.4000244c0.7999878-1,1.1999512-2.2000122,1.1999512-3.5
	C12.7000122,2.5,12.2000122,1.2000122,11.3000488,0.1000366z M7.6500244,6.8148804l3.0922852,7.1849365l-1.3143921-0.0018311
	C8.6889038,12.3483887,6.928894,8.3882446,6.8500366,7.914856c-0.0789795,0.4736328-1.6535645,4.4371948-2.3132324,6.0853882
	L3.239624,13.9998169l2.9104004-7.1849365h0.5v-1.046936H6.6363525c-0.0006104,0-0.0011597-0.0003052-0.00177-0.0003052
	L6.4732666,5.7679443L6.4198608,5.3195801C6.2938843,5.2833252,6.1726685,5.2321167,6.0588379,5.166687l-0.222229,0.1756592
	C5.8363647,5.3425903,5.8359985,5.3425903,5.8357544,5.3428345l-0.128479,0.1013794L5.171875,4.9110718l0.0991821-0.1260376
	C5.2722778,4.7833252,5.272583,4.781311,5.2738647,4.7796631l0.1776733-0.223938
	c-0.0625-0.1099854-0.1116333-0.2271118-0.1470947-0.3487549L5.0233765,4.1743774
	C5.0163574,4.173584,5.010498,4.1698608,5.0037231,4.1682739l-0.140564-0.0165405L4.862854,4.0001831
	C4.8627319,3.9975586,4.8614502,3.9953613,4.8614502,3.9927368V3.5605469c0-0.0009155,0.0004272-0.0016479,0.0004883-0.0025635
	L4.8615723,3.3961182l0.4293823-0.0511475c0.0334473-0.1321411,0.0834961-0.2590332,0.1494751-0.3782349L5.3612671,2.8666382
	L5.1724243,2.6330566l0.1126099-0.1157837c0.0012207-0.0012817,0.0016479-0.0029297,0.0028687-0.0041504l0.046936-0.0469971
	l0.364563-0.3746338l0.1245728,0.0957642c0.0039062,0.0026855,0.0085449,0.00354,0.0123291,0.0065308l0.1268921,0.1004639
	l0.0735474,0.0565796c0.1273193-0.0753784,0.2633667-0.1334229,0.40625-0.1715698l0.0288696-0.24823
	c0.0006104-0.0053711,0.00354-0.0097656,0.0046387-0.0149536L6.4945068,1.769043l0.1571655,0.0004272
	C6.6524048,1.7694092,6.6530762,1.769043,6.6538086,1.769043h0.4321289c0.0028076,0,0.005249,0.0014038,0.0079956,0.0015259
	l0.156189,0.0003662L7.296875,2.1793823C7.4362183,2.217041,7.5690308,2.272583,7.6933594,2.34552L7.7445679,2.305481
	l0.1411743-0.1119385c0.0018921-0.0015259,0.0042114-0.0018921,0.0061646-0.0032959l0.1269531-0.0992432l0.532959,0.5355835
	L8.2915649,2.9541626C8.3577271,3.0723877,8.40979,3.1983643,8.444519,3.3302612l0.4123535,0.0473633L8.857605,3.526001
	c0.0004883,0.0056763,0.0030518,0.0107422,0.0029907,0.0165405v0.4318848c0,0.0016479-0.0007935,0.0030518-0.0008545,0.0046997
	l0.0007324,0.1541138L8.7150879,4.1509399c-0.0057983,0.0012817-0.0106812,0.0044556-0.0167236,0.005188L8.4407349,4.1858521
	c-0.0360107,0.1342163-0.090271,0.262207-0.159668,0.3824463l0.0758667,0.0961914L8.5502319,4.90802L8.0184937,5.4448242
	L7.8929443,5.3465576c-0.0021973-0.0015869-0.0048218-0.0019531-0.006897-0.0036011l-0.1772461-0.140564l-0.038147-0.0298462
	C7.5482178,5.2415771,7.418335,5.2941284,7.2821655,5.3295288L7.2501831,5.6054077
	C7.2496948,5.6099243,7.2471924,5.6135864,7.2463379,5.618042L7.2288818,5.7663574L7.1500244,5.7665405v1.0483398H7.6500244z
	 M6.8610229,4.5546265c0.4341431,0,0.7861328-0.3519897,0.7861328-0.7861328S7.295166,2.9824219,6.8610229,2.9824219
	S6.0749512,3.3343506,6.0749512,3.7684937S6.4268799,4.5546265,6.8610229,4.5546265z"/>
</svg>
