<?xml version="1.0" encoding="utf-8"?>

<!--
 ~   Copyright 2017, WSO2 Inc. (http://www.wso2.com)
 ~
 ~   Licensed under the Apache License, Version 2.0 (the "License");
 ~   you may not use this file except in compliance with the License.
 ~   You may obtain a copy of the License at
 ~
 ~        http://www.apache.org/licenses/LICENSE-2.0
 ~
 ~   Unless required by applicable law or agreed to in writing, software
 ~   distributed under the License is distributed on an "AS IS" BASIS,
 ~   WITHOUT WARRANTIES OR CONDITIONS OF ANY KIND, either express or implied.
 ~   See the License for the specific language governing permissions and
 ~   limitations under the License.
-->

<svg version="1.1" id="soap" xmlns="http://www.w3.org/2000/svg" xmlns:xlink="http://www.w3.org/1999/xlink" x="0px" y="0px"
	 viewBox="0 0 14 14" style="enable-background:new 0 0 14 14;" xml:space="preserve">
<path d="M12.0700073,5.2000122V2.9699707L8.9899902,0H1.9299927v5.2000122H1.8499756H0.9500122V9.5h0.8999634h0.0800171V14
	h10.1400146V9.5h0.9799805V5.2000122H12.0700073z M2.6799927,0.75h6.0800171v2.5599976h2.5599976v1.8900146H2.6799927V0.75z
	 M9.4199829,8.5499878H8.9099731L8.710022,8.0300293H7.7999878L7.6099854,8.5499878H7.1199951l0.8900146-2.289978H8.5
	L9.4199829,8.5499878z M6.9899902,7.4099731c0,0.3700562-0.0999756,0.6600342-0.2999878,0.8700562
	C6.4899902,8.4899902,6.2199707,8.5900269,5.8800049,8.5900269c-0.3400269,0-0.6099854-0.1000366-0.8099976-0.3099976
	C4.8699951,8.0700073,4.7700195,7.789978,4.7700195,7.4199829c0-0.2299805,0.0299683-0.4299927,0.0999756-0.5899658
	C4.9299927,6.7199707,5,6.6099854,5.0900269,6.5200195c0.0899658-0.0900269,0.1799927-0.1600342,0.289978-0.210022
	c0.1400146-0.0599976,0.3099976-0.0900269,0.5-0.0900269c0.3300171,0,0.5999756,0.1100464,0.8099976,0.3200073
	C6.8900146,6.75,6.9899902,7.039978,6.9899902,7.4099731z M2.6799927,7.7999878l0.3800049-0.039978
	c0.0300293,0.1499634,0.0800171,0.2700195,0.1699829,0.3399658c0.0800171,0.0700073,0.1900024,0.1000366,0.3300171,0.1000366
	c0.1500244,0,0.2600098-0.0300293,0.3400269-0.0900269C3.9699707,8.039978,4.0100098,7.9699707,4.0100098,7.8900146
	c0-0.0599976-0.0200195-0.1000366-0.0499878-0.1400146C3.9299927,7.710022,3.8800049,7.6799927,3.7999878,7.6500244
	C3.7399902,7.6300049,3.6199951,7.5999756,3.4299927,7.5499878C3.1799927,7.4899902,3,7.4099731,2.9000244,7.3200073
	c-0.1400146-0.1199951-0.210022-0.2800293-0.210022-0.460022c0-0.1099854,0.039978-0.2199707,0.0999756-0.3299561
	c0.0700073-0.1000366,0.1600342-0.1700439,0.2900391-0.2300415C3.2000122,6.25,3.3499756,6.2199707,3.5300293,6.2199707
	c0.289978,0,0.5,0.0700073,0.6499634,0.1900024C4.3200073,6.539978,4.4000244,6.710022,4.4099731,6.9199829L3.9400024,6.9400024
	c-0.0100098-0.1199951-0.0599976-0.210022-0.1199951-0.2600098C3.75,6.6300049,3.6500244,6.6099854,3.5200195,6.6099854
	S3.2800293,6.6300049,3.210022,6.6900024C3.1599731,6.7199707,3.1400146,6.7700195,3.1400146,6.8300171
	c0,0.0499878,0.0199585,0.0999756,0.0599976,0.1399536c0.0599976,0.0500488,0.2000122,0.1000366,0.4299927,0.1500244
	c0.2199707,0.0599976,0.3900146,0.1099854,0.5,0.1699829c0.1099854,0.0500488,0.1900024,0.1300049,0.25,0.2300415
	c0.0599976,0.0999756,0.0899658,0.2199707,0.0899658,0.3599854S4.4400024,8.1400146,4.3599854,8.25
	C4.289978,8.3699951,4.1900024,8.4500122,4.0499878,8.5100098C3.9199829,8.5599976,3.75,8.5900269,3.5599976,8.5900269
	c-0.289978,0-0.5200195-0.0599976-0.6699829-0.2000122C2.7999878,8.3099976,2.7299805,8.210022,2.6799927,8.0900269
	c-0.039978-0.0800171-0.0599976-0.1800537-0.0700073-0.2800293L2.6799927,7.7999878z M11.3200073,13.25H2.6799927V9.5h8.6400146
	V13.25z M11.3400269,7.3200073c-0.0100098,0.0100098-0.0100098,0.0200195-0.0200195,0.0299683
	C11.2700195,7.4400024,11.210022,7.5,11.1500244,7.5499878c-0.0800171,0.0499878-0.1600342,0.0900269-0.2400513,0.1099854
	c-0.1199951,0.0200195-0.2799683,0.0300293-0.4799805,0.0300293h-0.3099976v0.8599854h-0.460022v-2.289978h0.7400513
	c0.2799683,0,0.4699707,0.0100098,0.5499878,0.039978c0.1300049,0.0300293,0.25,0.1099854,0.3300171,0.2200317
	c0.0199585,0.0299683,0.039978,0.0499878,0.039978,0.0799561c0.0700073,0.1000366,0.0999756,0.2200317,0.0999756,0.3699951
	C11.4199829,7.1099854,11.3900146,7.2199707,11.3400269,7.3200073z M10.7399902,11.710022l-1.5,0.7999878v-0.4500122l1-0.5
	l-1-0.4500122V10.710022l1.5,0.6999512V11.710022z M10.8699951,6.7700195
	c0.0499878,0.0499878,0.0700073,0.1199951,0.0700073,0.1999512c0,0.0700073-0.0200195,0.1300049-0.0499878,0.1800537
	c-0.0400391,0.0499878-0.0900269,0.0899658-0.1500244,0.1099854c-0.0599976,0.0299683-0.1799927,0.039978-0.3599854,0.039978
	h-0.2600098V6.6500244h0.2299805c0.1600342,0,0.2700195,0,0.3300171,0.0099487
	C10.75,6.6799927,10.8200073,6.710022,10.8699951,6.7700195z M7.9400024,7.6500244L8.25,6.7999878l0.3099976,0.8500366H7.9400024z
	 M8.539978,12.6099854H8.1400146l0.5999756-2.3999634h0.4000244L8.539978,12.6099854z M7.9400024,12.5100098l-1.5-0.7999878
	v-0.3000488l1.5-0.6999512v0.3999634l-1,0.4500122l1,0.5V12.5100098z M5.8800049,6.6199951
	c0.1900024,0,0.3399658,0.0599976,0.460022,0.1900024c0.1099854,0.1300049,0.1699829,0.3300171,0.1699829,0.5900269
	c0,0.2599487-0.0599976,0.4599609-0.1799927,0.5999756C6.2199707,8.1300049,6.0599976,8.2000122,5.8800049,8.2000122
	S5.539978,8.1300049,5.4199829,8C5.3099976,7.8599854,5.2399902,7.6599731,5.2399902,7.4099731
	c0-0.2699585,0.0599976-0.4699707,0.1799927-0.5999756S5.6900024,6.6199951,5.8800049,6.6199951z"/>
</svg>
