<?xml version="1.0" encoding="utf-8"?>

<!--
 ~   Copyright 2017, WSO2 Inc. (http://www.wso2.com)
 ~
 ~   Licensed under the Apache License, Version 2.0 (the "License");
 ~   you may not use this file except in compliance with the License.
 ~   You may obtain a copy of the License at
 ~
 ~        http://www.apache.org/licenses/LICENSE-2.0
 ~
 ~   Unless required by applicable law or agreed to in writing, software
 ~   distributed under the License is distributed on an "AS IS" BASIS,
 ~   WITHOUT WARRANTIES OR CONDITIONS OF ANY KIND, either express or implied.
 ~   See the License for the specific language governing permissions and
 ~   limitations under the License.
-->

<svg version="1.1" id="try-catch" xmlns="http://www.w3.org/2000/svg" xmlns:xlink="http://www.w3.org/1999/xlink" x="0px" y="0px"
	 viewBox="0 0 14 14" style="enable-background:new 0 0 14 14;" xml:space="preserve">
<path d="M9,2.2c0-0.2,0-0.2,0-0.4C9,0.8,8.1,0,7,0C5.9,0,5,0.9,5,2c0,1.1,0.9,2,2,2C8.1,4,8.9,3.2,9,2.2z M5.7,2
	c0-0.8,0.6-1.4,1.4-1.4c0.8,0,1.4,0.6,1.4,1.4S7.8,3.4,7,3.4C6.3,3.4,5.7,2.8,5.7,2z M5.7,8.7c0,0.1,0,0.2,0.1,0.2C5.9,9,6,9,6,9
	c0.1,0,0.2,0,0.2-0.1L7.2,8l0.9,0.9c0.1,0.1,0.3,0.1,0.5,0c0.1-0.1,0.1-0.1,0.1-0.2s0-0.2-0.1-0.2L7.7,7.5l0.9-0.9
	c0.1-0.1,0.1-0.1,0.1-0.2s0-0.2-0.1-0.2C8.5,6.1,8.5,6.1,8.4,6.1c0,0,0,0,0,0c-0.1,0-0.2,0-0.2,0.1L7.2,7.1L6.3,6.1
	C6.1,6,5.9,6,5.8,6.1C5.8,6.2,5.7,6.3,5.7,6.4c0,0.1,0,0.2,0.1,0.2l0.9,0.9L5.8,8.5C5.8,8.5,5.7,8.6,5.7,8.7z M7.2,7.1L7.2,7.1
	L7.2,7.1L7.2,7.1z M9.3,10.8l0.5,0.5l-0.1,0.1L7.1,14l-1.3-1.3l0.5-0.5L7.1,13L9.3,10.8z M1.7,11.7l-0.6,0.6L1,12.3
	c-0.3-0.2-0.5-0.5-0.7-0.9l-0.1-0.1L1,10.9L1.1,11C1.2,11.3,1.4,11.5,1.7,11.7L1.7,11.7z M2.9,12.2l0.1,0l-0.1,0.8l-0.1,0
	c-0.4,0-0.7-0.1-1.1-0.3l-0.1-0.1L2,12L2.1,12C2.4,12.1,2.6,12.2,2.9,12.2z M3.5,12.2h1.2v0.8H3.5V12.2z M3.6,8.1L3.4,8
	c-0.3,0-0.6,0-0.9,0.1l-0.1,0L2.2,7.3l0.1,0c0.4-0.1,0.8-0.1,1.1-0.1l0.1,0V8.1z M1.2,9L0.6,8.4l0.1-0.1C0.9,8,1.2,7.8,1.5,7.6
	l0.1-0.1l0.4,0.7L2,8.4C1.7,8.5,1.5,8.7,1.2,9L1.2,9z M0.8,10.3l-0.8,0l0-0.1c0-0.4,0.1-0.8,0.2-1.1l0-0.1L1,9.3l0,0.1
	c-0.1,0.2-0.2,0.5-0.2,0.8L0.8,10.3z M8.7,7.2H10V8H8.7V7.2z M4,7.2h1.2V8H4V7.2z M14,5l0,0.1c0,0.4-0.1,0.8-0.3,1.1l-0.1,0.1
	L12.9,6l0.1-0.1C13,5.6,13.1,5.3,13.1,5l0-0.1L14,5z M12.6,6.4l0.6,0.5L13.2,7c-0.3,0.3-0.6,0.6-0.9,0.7l-0.1,0.1l-0.4-0.8L11.9,7
	C12.1,6.9,12.4,6.7,12.6,6.4L12.6,6.4z M11.5,7.2L11.6,8l-0.1,0c-0.3,0-0.5,0-0.7,0c-0.1,0-0.2,0-0.3,0l-0.1,0V7.2l0.1,0
	c0.1,0,0.2,0,0.4,0c0.2,0,0.4,0,0.6,0L11.5,7.2z M11,2.2H9.7V1.4H11V2.2z M11.5,2.3l-0.1,0l0.2-0.8l0.1,0c0.4,0.1,0.7,0.3,1.1,0.6
	l0.1,0.1l-0.6,0.6l-0.1-0.1C12.1,2.5,11.8,2.4,11.5,2.3z M12.7,3.1l0.7-0.5l0.1,0.1c0.2,0.3,0.4,0.7,0.5,1.1l0,0.1l-0.8,0.2l0-0.1
	c-0.1-0.3-0.2-0.6-0.3-0.8L12.7,3.1z"/>
</svg>
