<?xml version="1.0" encoding="utf-8"?>

<!--
 ~   Copyright 2017, WSO2 Inc. (http://www.wso2.com)
 ~
 ~   Licensed under the Apache License, Version 2.0 (the "License");
 ~   you may not use this file except in compliance with the License.
 ~   You may obtain a copy of the License at
 ~
 ~        http://www.apache.org/licenses/LICENSE-2.0
 ~
 ~   Unless required by applicable law or agreed to in writing, software
 ~   distributed under the License is distributed on an "AS IS" BASIS,
 ~   WITHOUT WARRANTIES OR CONDITIONS OF ANY KIND, either express or implied.
 ~   See the License for the specific language governing permissions and
 ~   limitations under the License.
-->

<svg version="1.1" id="typeof" xmlns="http://www.w3.org/2000/svg" xmlns:xlink="http://www.w3.org/1999/xlink" x="0px" y="0px"
	 viewBox="0 0 14 14" style="enable-background:new 0 0 14 14;" xml:space="preserve">
<path d="M4.1687651,4.1105947h5.5591726l0.0098381,1.8622127H9.4713354
	C9.3844357,5.3067069,9.1343908,4.8558078,8.7228432,4.6209307c-0.2311878-0.129941-0.5771503-0.2004452-1.0370669-0.2127423
	v4.8643785c0,0.3402243,0.0590267,0.5656738,0.1778998,0.6771688c0.1188736,0.1106749,0.3664579,0.1664219,0.7419338,0.1664219
	v0.2344675H5.3140483v-0.2344675c0.3607187,0,0.6001053-0.055747,0.7189784-0.1688814
	C6.1519003,9.8341408,6.210927,9.6095114,6.210927,9.2725668V4.4081883
	C5.7600279,4.4204855,5.4148855,4.4909897,5.1746793,4.6209307C4.7319789,4.8619566,4.4827547,5.3124452,4.4253674,5.9728074
	H4.1597471L4.1687651,4.1105947z M0,6.5593262c0.2758789-0.0068359,0.5004883-0.0810547,0.6743164-0.2226562
	c0.1733398-0.1416016,0.2890625-0.3359375,0.3461914-0.5830078S1.1083984,5.0837402,1.1118164,4.486084
	S1.1259766,3.4938965,1.144043,3.3044434c0.0322266-0.3007812,0.0922852-0.5419922,0.1796875-0.7255859
	c0.0878906-0.1816406,0.1962891-0.328125,0.3251953-0.4375s0.293457-0.1923828,0.4941406-0.25
	C2.2792969,1.8562012,2.5009766,1.838623,2.809082,1.838623h0.3007812v0.8427734H2.9433594
	c-0.3725586,0-0.6196289,0.0673828-0.7412109,0.2011719C2.0805664,3.017334,2.0195312,3.3171387,2.0195312,3.7819824
	c0,0.9384766-0.0195312,1.53125-0.059082,1.7783203C1.8959961,5.9431152,1.7856445,6.2390137,1.6303711,6.4460449
	c-0.15625,0.2080078-0.4003906,0.3925781-0.7333984,0.5537109c0.394043,0.1650391,0.6796875,0.4160156,0.8564453,0.7548828
	c0.1777344,0.3383789,0.2661133,0.8930664,0.2661133,1.6625977c0,0.6982422,0.0073242,1.1132812,0.0214844,1.2460938
	c0.0288086,0.2431641,0.1010742,0.4140625,0.2172852,0.5097656C2.375,11.270752,2.6030273,11.3186035,2.9433594,11.3186035
	h0.1665039v0.8427734H2.809082c-0.3510742,0-0.6049805-0.0283203-0.7626953-0.0859375
	c-0.2290039-0.0820312-0.4189453-0.2148438-0.5693359-0.3994141s-0.2480469-0.4179688-0.2929688-0.7011719
	c-0.0444336-0.2832031-0.0688477-0.7470703-0.0722656-1.3916016S1.0776367,8.4934082,1.0205078,8.2463379
	S0.8476562,7.8034668,0.6743164,7.6608887C0.5004883,7.517334,0.2758789,7.4421387,0,7.4343262V6.5593262z M14,6.5593262v0.875
	c-0.2753906,0.0078125-0.5,0.0830078-0.6738281,0.2265625c-0.1738281,0.1425781-0.2890625,0.3374023-0.3466797,0.5825195
	s-0.0878906,0.6669922-0.0917969,1.265625c-0.0029297,0.5976562-0.0136719,0.9912109-0.03125,1.1816406
	c-0.0332031,0.3037109-0.0927734,0.546875-0.1806641,0.7275391s-0.1962891,0.3251953-0.3251953,0.4345703
	s-0.2929688,0.1923828-0.4941406,0.25c-0.1357422,0.0390625-0.3574219,0.0585938-0.6660156,0.0585938h-0.3007812v-0.8427734
	h0.1669922c0.3720703,0,0.6191406-0.0673828,0.7412109-0.2011719c0.1220703-0.1347656,0.1826172-0.4365234,0.1826172-0.9052734
	c0-0.8955078,0.0166016-1.4628906,0.0478516-1.703125c0.0576172-0.3964844,0.171875-0.715332,0.34375-0.9536133
	s0.4160156-0.4228516,0.7304688-0.5556641c-0.4111328-0.1972656-0.7011719-0.4570312-0.8691406-0.78125
	c-0.1689453-0.3242188-0.2529297-0.8710938-0.2529297-1.6416016c0-0.6972656-0.0087891-1.1152344-0.0263672-1.2509766
	c-0.0253906-0.2402344-0.0966797-0.4072266-0.2128906-0.5019531s-0.3447266-0.1425781-0.6845703-0.1425781h-0.1669922V1.838623
	h0.3007812c0.3515625,0,0.6054688,0.0283203,0.7636719,0.0859375c0.2285156,0.078125,0.4179688,0.2109375,0.5683594,0.3964844
	c0.1503906,0.1865234,0.2480469,0.4208984,0.2929688,0.7041016s0.0693359,0.7470703,0.0722656,1.3916016
	c0.0039062,0.6445312,0.0341797,1.0888672,0.0917969,1.3339844s0.1728516,0.4394531,0.3466797,0.5830078
	S13.7246094,6.5524902,14,6.5593262z"/>
</svg>
