<?xml version="1.0" encoding="utf-8"?>

<!--
 ~   Copyright 2017, WSO2 Inc. (http://www.wso2.com)
 ~
 ~   Licensed under the Apache License, Version 2.0 (the "License");
 ~   you may not use this file except in compliance with the License.
 ~   You may obtain a copy of the License at
 ~
 ~        http://www.apache.org/licenses/LICENSE-2.0
 ~
 ~   Unless required by applicable law or agreed to in writing, software
 ~   distributed under the License is distributed on an "AS IS" BASIS,
 ~   WITHOUT WARRANTIES OR CONDITIONS OF ANY KIND, either express or implied.
 ~   See the License for the specific language governing permissions and
 ~   limitations under the License.
-->

<svg version="1.1" id="user" xmlns="http://www.w3.org/2000/svg" xmlns:xlink="http://www.w3.org/1999/xlink" x="0px" y="0px"
	 viewBox="0 0 14 14" style="enable-background:new 0 0 14 14;" xml:space="preserve">
<path d="M13.7,11.6c-0.2-0.6-0.5-1.1-1-1.4c-1-0.6-2.1-1-3.1-1.3C9.3,8.8,9.1,8.7,8.8,8.5C8.6,8.4,8.6,8.2,8.5,7.9
	c0-0.1,0-0.2,0-0.4c0.8-1.1,1.3-2.8,1.3-4.2c0-2.2-1.3-2.8-2.8-2.8c-1.5,0-2.8,0.6-2.8,2.8c0,1.5,0.6,3.3,1.4,4.3c0,0.1,0,0.2,0,0.2
	c0,0.2-0.1,0.5-0.3,0.6C4.9,8.7,4.7,8.8,4.4,8.9c-1.1,0.4-2.2,0.7-3.1,1.3c-0.5,0.3-0.8,0.9-1,1.5C0.1,12.2,0,12.9,0,13.5h7h7
	C14,12.9,13.9,12.2,13.7,11.6z"/>
</svg>
