<?xml version="1.0" encoding="utf-8"?>

<!--
 ~   Copyright 2017, WSO2 Inc. (http://www.wso2.com)
 ~
 ~   Licensed under the Apache License, Version 2.0 (the "License");
 ~   you may not use this file except in compliance with the License.
 ~   You may obtain a copy of the License at
 ~
 ~        http://www.apache.org/licenses/LICENSE-2.0
 ~
 ~   Unless required by applicable law or agreed to in writing, software
 ~   distributed under the License is distributed on an "AS IS" BASIS,
 ~   WITHOUT WARRANTIES OR CONDITIONS OF ANY KIND, either express or implied.
 ~   See the License for the specific language governing permissions and
 ~   limitations under the License.
-->

<svg version="1.1" id="xsd" xmlns="http://www.w3.org/2000/svg" xmlns:xlink="http://www.w3.org/1999/xlink" x="0px" y="0px"
	 viewBox="0 0 14 14" style="enable-background:new 0 0 14 14;" xml:space="preserve">
<path d="M12.0700073,5.2000122V2.9699707L8.9899902,0H1.9299927v5.2000122H1.8499756H0.9500122V9.5h0.8999634h0.0800171V14
	h10.1400146V9.5h0.9799805V5.2000122H12.0700073z M2.6799927,0.75h6.0800171v2.5599976h2.5599976v1.8900146H2.6799927V0.75z
	 M10.1300049,7.4299927c0,0.1900024-0.0200195,0.3500366-0.0700073,0.4899902C10,8.0800171,9.9199829,8.2199707,9.8099976,8.3200073
	C9.7299805,8.4000244,9.6300049,8.460022,9.4899902,8.5C9.3900146,8.539978,9.25,8.5499878,9.0800171,8.5499878H8.210022v-2.289978
	h0.8399658c0.2000122,0,0.3400269,0.0200195,0.4400024,0.0499878c0.1300049,0.039978,0.25,0.1099854,0.3500366,0.210022
	C9.9299927,6.6199951,10,6.7399902,10.0499878,6.8900146C10.1099854,7.0300293,10.1300049,7.210022,10.1300049,7.4299927z
	 M7.3099976,7.75C7.2800293,7.710022,7.2299805,7.6799927,7.1500244,7.6500244
	C7.0900269,7.6300049,6.9699707,7.5999756,6.7800293,7.5499878C6.5300293,7.4899902,6.3499756,7.4099731,6.25,7.3200073
	C6.1099854,7.2000122,6.039978,7.039978,6.039978,6.8599854c0-0.1099854,0.0400391-0.2199707,0.1000366-0.3299561
	c0.0700073-0.1000366,0.1599731-0.1700439,0.289978-0.2300415C6.5499878,6.25,6.7000122,6.2199707,6.8800049,6.2199707
	c0.289978,0,0.5,0.0700073,0.6500244,0.1900024C7.6699829,6.539978,7.75,6.710022,7.7600098,6.9199829L7.289978,6.9400024
	c-0.0099487-0.1199951-0.0599976-0.210022-0.1199951-0.2600098C7.0999756,6.6300049,7,6.6099854,6.8699951,6.6099854
	S6.6300049,6.6300049,6.5599976,6.6900024C6.5100098,6.7199707,6.4899902,6.7700195,6.4899902,6.8300171
	c0,0.0499878,0.0200195,0.0999756,0.0599976,0.1399536C6.6099854,7.0200195,6.75,7.0700073,6.9799805,7.1199951
	c0.2200317,0.0599976,0.3900146,0.1099854,0.5,0.1699829c0.1100464,0.0500488,0.1900024,0.1300049,0.25,0.2300415
	C7.789978,7.6199951,7.8200073,7.7399902,7.8200073,7.8800049S7.789978,8.1400146,7.710022,8.25
	C7.6400146,8.3699951,7.539978,8.4500122,7.4000244,8.5100098C7.2700195,8.5599976,7.0999756,8.5900269,6.9099731,8.5900269
	c-0.289978,0-0.5199585-0.0599976-0.6699829-0.2000122c-0.1599731-0.1300049-0.25-0.3300171-0.2799683-0.5800171
	l0.4499512-0.0499878c0.0300293,0.1499634,0.0800171,0.2700195,0.1700439,0.3399658
	c0.0799561,0.0700073,0.1900024,0.1000366,0.3299561,0.1000366c0.1500244,0,0.2600098-0.0300293,0.3400269-0.0900269
	C7.3200073,8.039978,7.3599854,7.9699707,7.3599854,7.8900146C7.3599854,7.8300171,7.3400269,7.789978,7.3099976,7.75z
	 M3.7800293,6.2600098h0.539978L4.7800293,7l0.4499512-0.7399902h0.5400391l-0.710022,1.1099854l0.7800293,1.1799927H5.2800293
	l-0.5100098-0.789978l-0.5100098,0.789978H3.710022l0.7799683-1.1900024L3.7800293,6.2600098z M11.3200073,13.25H2.6799927V9.5
	h8.6400146V13.25z M10.7399902,11.710022l-1.5,0.7999878v-0.4500122l1-0.5l-1-0.4500122V10.710022l1.5,0.6999512V11.710022z
	 M9.6099854,7c0.0300293,0.0999756,0.0400391,0.2299805,0.0400391,0.4099731c0,0.1700439-0.0100098,0.3200073-0.0400391,0.4200439
	C9.5700073,7.9299927,9.5300293,8,9.4799805,8.0499878C9.4299927,8.0900269,9.3699951,8.1199951,9.2999878,8.1400146
	C9.2399902,8.1599731,9.1500244,8.1699829,9.0200195,8.1699829H8.6699829V6.6500244h0.210022
	c0.1900024,0,0.3200073,0.0099487,0.3800049,0.0199585c0.0899658,0.0200195,0.1599731,0.0599976,0.2099609,0.1100464
	C9.5300293,6.8300171,9.5700073,6.9099731,9.6099854,7z M8.539978,12.6099854H8.1400146l0.5999756-2.3999634h0.4000244
	L8.539978,12.6099854z M7.9400024,12.5100098l-1.5-0.7999878v-0.3000488l1.5-0.6999512v0.3999634l-1,0.4500122l1,0.5V12.5100098z"/>
</svg>
