<?xml version="1.0" encoding="utf-8"?>

<!--
 ~   Copyright 2017, WSO2 Inc. (http://www.wso2.com)
 ~
 ~   Licensed under the Apache License, Version 2.0 (the "License");
 ~   you may not use this file except in compliance with the License.
 ~   You may obtain a copy of the License at
 ~
 ~        http://www.apache.org/licenses/LICENSE-2.0
 ~
 ~   Unless required by applicable law or agreed to in writing, software
 ~   distributed under the License is distributed on an "AS IS" BASIS,
 ~   WITHOUT WARRANTIES OR CONDITIONS OF ANY KIND, either express or implied.
 ~   See the License for the specific language governing permissions and
 ~   limitations under the License.
-->

<svg version="1.1" id="android-sense" xmlns="http://www.w3.org/2000/svg" xmlns:xlink="http://www.w3.org/1999/xlink" x="0px"
	 y="0px" viewBox="0 0 14 14" style="enable-background:new 0 0 14 14;" xml:space="preserve">
<path d="M12,2.5999756C13.2399902,3.7399902,14,5.289978,14,7s-0.7600098,3.2600098-2,4.4000244l-0.2000122-0.5200195
	C12.8599854,9.8699951,13.5,8.5,13.5,7s-0.6400146-2.8699951-1.7000122-3.8800049L12,2.5999756z M11.5200195,3.8599854
	l-0.210022,0.5400391C11.8800049,5.1400146,12.210022,6.039978,12.210022,7s-0.3300171,1.8599854-0.9000244,2.5999756
	l0.210022,0.5400391C12.2600098,9.2700195,12.710022,8.1799927,12.710022,7S12.2600098,4.7299805,11.5200195,3.8599854z
	 M10.9400024,5.3900146l-0.2600098,0.6799927C10.7800293,6.3699951,10.8300171,6.6799927,10.8300171,7
	s-0.0499878,0.6300049-0.1500244,0.9299927l0.2600098,0.6799927c0.25-0.4899902,0.3900146-1.039978,0.3900146-1.6099854
	S11.1900024,5.8800049,10.9400024,5.3900146z M3.0599976,5.3900146C2.8099976,5.8800049,2.6699829,6.4299927,2.6699829,7
	s0.1400146,1.1199951,0.3900146,1.6099854l0.2600098-0.6799927C3.2199707,7.6300049,3.1699829,7.3200073,3.1699829,7
	s0.0499878-0.6300049,0.1500244-0.9299927L3.0599976,5.3900146z M2.6900024,4.4000244l-0.210022-0.5400391
	C1.7399902,4.7299805,1.289978,5.8200073,1.289978,7s0.4500122,2.2700195,1.1900024,3.1400146l0.210022-0.5400391
	C2.1199951,8.8599854,1.789978,7.960022,1.789978,7S2.1199951,5.1400146,2.6900024,4.4000244z M2.2000122,3.1199951L2,2.5999756
	C0.7600098,3.7399902,0,5.289978,0,7s0.7600098,3.2600098,2,4.4000244l0.2000122-0.5200195C1.1400146,9.8699951,0.5,8.5,0.5,7
	S1.1400146,4.1300049,2.2000122,3.1199951z M9.8400269,5.5634618H9.8300171
	C9.6099854,5.5934911,9.4299927,5.7834935,9.4299927,6.013474c0,0.6400146,0,1.2800293,0,1.9200439
	c0,0.2199702,0.1300049,0.3899531,0.3099976,0.4499507c0.0400391,0.0200195,0.1000366,0.0300293,0.1500244,0.0300293
	c0.2600098,0.0100098,0.4500122-0.2000122,0.4500122-0.4700313c0-0.3199463,0-1.6399536,0-1.8999634
	c0-0.0400391,0-0.0900269-0.0100098-0.1300049C10.2800293,5.6735082,10.0800171,5.5334935,9.8400269,5.5634618z
	 M4.8699951,5.5634618c0,0.0300293,0,0.0600586,0,0.0900269c0,1.0700073,0,2.1400146,0.0100098,3.2100215
	c0,0.3200073,0.1900024,0.5199585,0.5200195,0.5199585c0.0999756,0,0.1900024,0,0.2799683,0c0,0.2200317,0,0.4299927,0,0.6400146
	c0,0.1500244,0,0.2999878,0,0.4500122c0,0.0299683,0.0100098,0.0599976,0.0200195,0.0899658
	c0.039978,0.1900024,0.1900024,0.3300171,0.3800049,0.3600464c0.1900024,0.0199585,0.3599854-0.0599976,0.4500122-0.210022
	c0.0199585-0.039978,0.039978-0.0800171,0.0499878-0.1199951c0.0100098-0.0599976,0.0100098-0.1199951,0.0100098-0.1799927
	s0-0.75,0-1.0300293c0.2799683,0,0.5499878,0,0.8199463,0c0,0.2800293,0,1.0400391,0,1.1500244
	c0,0.0700073,0.0200195,0.1300049,0.0599976,0.1799927c0.0800171,0.1300049,0.2400513,0.2200317,0.4100342,0.210022
	c0.210022,0,0.4000244-0.1600342,0.4199829-0.3600464c0.0100098-0.0199585,0.0100098-0.0299683,0.0100098-0.0499878
	c0-0.1599731,0.0100098-0.9099731,0.0100098-1.1300049c0.0800171,0,0.1799927,0,0.2700195,0
	c0.3399658,0,0.539978-0.1999512,0.539978-0.539978c0-1.0599971,0-3.2499995-0.0100098-3.2800288
	C7.7000122,5.5634618,6.289978,5.5634618,4.8699951,5.5634618z M9.1300049,5.2435155c-1.4199829,0-2.8300171,0-4.25,0
	c0-0.3400269,0.1099854-0.6400146,0.3099976-0.9000244c0.2000122-0.2700195,0.460022-0.4600222,0.7600098-0.6099856
	C5.9199829,3.6934664,5.5900269,3.1634982,5.5900269,3.1634982c-0.0100098-0.0300293,0.0099487-0.0599976,0.039978-0.0900269
	c0.0200195,0,0.0299683,0,0.0499878,0C5.7000122,3.0934908,5.75,3.1534884,5.7600098,3.1634982
	C5.8400269,3.293503,6.039978,3.5834811,6.0499878,3.5934908c0.0300293,0.0599976,0.0599976,0.0700073,0.1300049,0.0499878
	c0.5499878-0.1900024,1.1000366-0.1900024,1.6500244,0c0.0599976,0.0200195,0.0899658,0.0200195,0.1199951-0.039978
	C7.960022,3.5934908,8.1799927,3.2734835,8.289978,3.1235201c0.0100098-0.0200195,0.0200195-0.0300293,0.0300293-0.0500488
	c0.0100098,0,0.0299683,0,0.0499878,0c0.0300293,0.0300293,0.0499878,0.0599976,0.039978,0.0900269
	c0,0.0200195-0.0099487,0.039978-0.0299683,0.0700073c-0.0025005,0.0037498-0.0051374,0.007705-0.0079012,0.0118496
	C8.2864246,3.3738434,8.0790787,3.684767,8.0499878,3.7234957C8.6699829,4.0535131,9.0900269,4.513474,9.1300049,5.2435155z
	 M6.3099976,4.4134984c0-0.1199951-0.0999756-0.2200317-0.2199707-0.2200317c-0.1300049,0-0.2300415,0.1000366-0.2300415,0.2200317
	c0,0.1300049,0.1000366,0.2299805,0.2300415,0.2299805C6.2199707,4.6434789,6.3200073,4.5435033,6.3099976,4.4134984z
	 M8.1400146,4.4134984c0-0.1199951-0.1099854-0.2299805-0.2300415-0.2200317c-0.1199951,0-0.2199707,0.1000366-0.2199707,0.2300415
	c0,0.1199951,0.0999756,0.2199707,0.2299805,0.2199707C8.039978,4.6434789,8.1400146,4.5435033,8.1400146,4.4134984z
	 M4.1900024,5.5634618c-0.0100098,0-0.0200195,0-0.0300293,0C3.9400024,5.5435033,3.7600098,5.6634984,3.6799927,5.8635106
	c0,0.0199585,0,2.22998,0.0100098,2.2600093c0.0800171,0.2099609,0.2799683,0.3199463,0.5,0.289978
	c0.0200195,0,0.0499878-0.0100098,0.0700073-0.0200195c0.1799927-0.0499878,0.2999878-0.2199707,0.3099976-0.4099727
	c0-0.6600342,0-1.3300171,0-1.9899902C4.5599976,5.7734838,4.4000244,5.5934911,4.1900024,5.5634618z"/>
</svg>
