<?xml version="1.0" encoding="utf-8"?>

<!--
 ~   Copyright 2017, WSO2 Inc. (http://www.wso2.com)
 ~
 ~   Licensed under the Apache License, Version 2.0 (the "License");
 ~   you may not use this file except in compliance with the License.
 ~   You may obtain a copy of the License at
 ~
 ~        http://www.apache.org/licenses/LICENSE-2.0
 ~
 ~   Unless required by applicable law or agreed to in writing, software
 ~   distributed under the License is distributed on an "AS IS" BASIS,
 ~   WITHOUT WARRANTIES OR CONDITIONS OF ANY KIND, either express or implied.
 ~   See the License for the specific language governing permissions and
 ~   limitations under the License.
-->

<svg version="1.1" id="esb-connector" xmlns="http://www.w3.org/2000/svg" xmlns:xlink="http://www.w3.org/1999/xlink" x="0px"
	 y="0px" viewBox="0 0 14 14" style="enable-background:new 0 0 14 14;" xml:space="preserve">
<path d="M11.7,7.1c0-0.4,0-0.8-0.1-1.1h1.2l-1,1l0.4,0.4L14,5.6L12.3,4l-0.4,0.4l1,1h-1.4c-0.3-1-0.8-1.5-1.4-1.5H6.8V3.4
	C7.5,3.2,7.9,2.7,7.9,2c0-0.8-0.6-1.4-1.4-1.4S5.1,1.2,5.1,2c0,0.7,0.5,1.2,1.1,1.4v0.5H2.4c-0.9,0-1.6,1.4-1.6,3.2
	c0,0.4,0,0.8,0.1,1.2C0.4,8.6,0,9.2,0,9.8c0,1,0.8,1.7,1.7,1.7c0.8,0,1.5-0.5,1.7-1.3h2.8v0.5c-0.6,0.2-1,0.7-1,1.3
	c0,0.7,0.6,1.4,1.4,1.4s1.4-0.6,1.4-1.4c0-0.7-0.5-1.2-1.1-1.3v-0.4H10l0,0c0,0,0,0,0.1,0c0.7,0,1.3-0.8,1.5-2.1h1.8V7.6h-1.8
	C11.7,7.5,11.7,7.3,11.7,7.1z M9.6,5.4V6H11c0,0.2,0.1,0.4,0.1,0.6l-0.3-0.3L9.1,7.9l0,0C9.1,7.7,9,7.4,9,7.1c0-1.7,0.6-2.6,1.1-2.6
	c0.3,0,0.6,0.4,0.8,0.9H9.6z M10.6,9.4c-0.2,0.2-0.3,0.3-0.5,0.3c-0.3,0-0.8-0.6-1-1.7L10.6,9.4z M11.1,6.7c0,0.1,0,0.2,0,0.4
	c0,0.2,0,0.4,0,0.6h-0.9L11.1,6.7z M4.8,7.5L4.4,7L2.7,8.4C2.3,8.2,1.9,8.1,1.5,8.1C1.4,7.8,1.4,7.4,1.4,7.1c0-1.7,0.6-2.6,1.1-2.6
	h6.7C8.7,5,8.4,6,8.4,7.1s0.3,2,0.7,2.6H3.4c0-0.3-0.1-0.6-0.3-0.9L4.8,7.5z M11,8.2c0,0.2-0.1,0.5-0.2,0.6l-0.7-0.6H11z"/>
</svg>
