<?xml version="1.0" encoding="utf-8"?>

<!--
 ~   Copyright 2017, WSO2 Inc. (http://www.wso2.com)
 ~
 ~   Licensed under the Apache License, Version 2.0 (the "License");
 ~   you may not use this file except in compliance with the License.
 ~   You may obtain a copy of the License at
 ~
 ~        http://www.apache.org/licenses/LICENSE-2.0
 ~
 ~   Unless required by applicable law or agreed to in writing, software
 ~   distributed under the License is distributed on an "AS IS" BASIS,
 ~   WITHOUT WARRANTIES OR CONDITIONS OF ANY KIND, either express or implied.
 ~   See the License for the specific language governing permissions and
 ~   limitations under the License.
-->

<svg version="1.1" id="google-plus" xmlns="http://www.w3.org/2000/svg" xmlns:xlink="http://www.w3.org/1999/xlink" x="0px"
	 y="0px" viewBox="0 0 14 14" style="enable-background:new 0 0 14 14;" xml:space="preserve">
<path d="M10.7,6.4h-5v1.7h3.1C8.3,9.5,7,10.6,5.4,10.6c-2,0-3.6-1.6-3.6-3.6c0-2,1.6-3.6,3.6-3.6c1,0,1.9,0.4,2.5,1.1l1.2-1.3
	c-1-0.9-2.3-1.5-3.8-1.5C2.4,1.6,0,4,0,7s2.4,5.4,5.4,5.4c2.6,0,4.9-1.8,5.4-4.3L10.7,6.4L10.7,6.4L10.7,6.4z M14,6.4h-1v-1h-0.9v1
	h-1v0.9h1v1H13v-1h1V6.4z"/>
</svg>
