<?xml version="1.0" encoding="utf-8"?>

<!--
 ~   Copyright 2017, WSO2 Inc. (http://www.wso2.com)
 ~
 ~   Licensed under the Apache License, Version 2.0 (the "License");
 ~   you may not use this file except in compliance with the License.
 ~   You may obtain a copy of the License at
 ~
 ~        http://www.apache.org/licenses/LICENSE-2.0
 ~
 ~   Unless required by applicable law or agreed to in writing, software
 ~   distributed under the License is distributed on an "AS IS" BASIS,
 ~   WITHOUT WARRANTIES OR CONDITIONS OF ANY KIND, either express or implied.
 ~   See the License for the specific language governing permissions and
 ~   limitations under the License.
-->

<svg version="1.1" id="light" xmlns="http://www.w3.org/2000/svg" xmlns:xlink="http://www.w3.org/1999/xlink" x="0px" y="0px"
	 viewBox="0 0 14 14" style="enable-background:new 0 0 14 14;" xml:space="preserve">
<path d="M8.9945021,12.4837103c0.0077,0.2802696-0.1949301,0.4889297-0.4933701,0.5190601
	c-0.04533,0.0045795-0.10888,0.0393896-0.1263399,0.0774803c-0.2267504,0.4947205-0.6026001,0.7966099-1.13693,0.9012804
	C7.228972,13.9832802,7.2217717,13.9936504,7.2137818,14c-0.1458302,0-0.2916598,0-0.4375,0
	c-0.1031499-0.0320501-0.20859-0.0581999-0.3090601-0.0971603c-0.4268298-0.1655397-0.7135901-0.4723101-0.8818698-0.8943996
	c-0.07022-0.0073299-0.1384802-0.0074501-0.2033-0.02246c-0.2458701-0.0569201-0.4071102-0.2825804-0.3853798-0.5320597
	c0.0219798-0.2523499,0.2289701-0.4505396,0.4916902-0.4521799c0.697-0.0043602,1.3940501-0.0019903,2.0910797-0.0021296
	c0.2965002-0.0000601,0.5930099-0.0013399,0.8894901,0.0008898C8.7673616,12.0027304,8.9868822,12.2063704,8.9945021,12.4837103z
	 M10.5930815,5.7095499c-0.2720098,0.6125202-0.57547,1.2110801-0.8648901,1.8158703
	c-0.2945099,0.6154299-0.5729694,1.23699-0.6832895,1.9175596C9.0159521,9.6215696,9.003252,9.8027802,8.9819918,9.9925699
	c-1.3318601,0-2.6525097,0-3.9816599,0C4.964942,8.9505796,4.496892,8.0594196,4.068172,7.1518602
	c-0.3081996-0.65242-0.6393898-1.3016701-0.8655999-1.9837499c-0.7727101-2.3299999,0.80039-4.80196,3.2310798-5.1308098
	c2.2007303-0.29773,4.2120199,1.21872,4.5253706,3.4072599C11.0728121,4.2392902,10.9125423,4.99019,10.5930815,5.7095499z
	 M5.5880818,1.35103c-1.09584,0.58007-1.7393296,1.78346-1.55198,3.0047002
	C4.100502,4.7755399,4.2595019,5.18891,4.4268417,5.5833402C4.9089918,6.71981,5.5872016,7.7721901,5.8753219,8.9939299
	c0.7458801,0,1.4839902,0,2.23315,0c0.1497402-0.6465302,0.3995905-1.2399297,0.6793499-1.8220401
	C9.0783119,6.56744,9.3775721,5.96703,9.6573019,5.3576498C9.8445816,4.9496999,9.9827518,4.52142,9.992732,4.06708
	C10.0429316,1.77979,7.6096721,0.28092,5.5880818,1.35103z M8.4454622,10.4999304
	c-0.4837599-0.0015402-0.9675198-0.0003996-1.4512801-0.0003996c0,0.0001698,0,0.0003405,0,0.0004997
	c-0.4889598,0-0.9779301-0.0012903-1.4668798,0.0004597c-0.3145299,0.0011301-0.5363603,0.2149696-0.5320201,0.5075703
	C4.9994922,11.2922707,5.2221622,11.4997406,5.528512,11.5c0.9727201,0.0008297,1.9454498,0.0005398,2.91817-0.0002298
	c0.3196001-0.0002499,0.5452995-0.2044601,0.5481596-0.4926004C8.9977922,10.7088499,8.774662,10.5009804,8.4454622,10.4999304z"/>
</svg>
