<?xml version="1.0" encoding="utf-8"?>

<!--
 ~   Copyright 2017, WSO2 Inc. (http://www.wso2.com)
 ~
 ~   Licensed under the Apache License, Version 2.0 (the "License");
 ~   you may not use this file except in compliance with the License.
 ~   You may obtain a copy of the License at
 ~
 ~        http://www.apache.org/licenses/LICENSE-2.0
 ~
 ~   Unless required by applicable law or agreed to in writing, software
 ~   distributed under the License is distributed on an "AS IS" BASIS,
 ~   WITHOUT WARRANTIES OR CONDITIONS OF ANY KIND, either express or implied.
 ~   See the License for the specific language governing permissions and
 ~   limitations under the License.
-->

<svg version="1.1" id="owned" xmlns="http://www.w3.org/2000/svg" xmlns:xlink="http://www.w3.org/1999/xlink" x="0px" y="0px"
	 viewBox="0 0 14 14" style="enable-background:new 0 0 14 14;" xml:space="preserve">
<path d="M13.9833984,7.4841309c-0.2174683,0.2654419-0.4248657,0.5249023-0.638916,0.7788086
	c-0.5266724,0.6248169-1.0506592,1.2521362-1.5864258,1.8692017c-0.7289429,0.8396606-1.4692993,1.6694946-2.2767334,2.435791
	c-0.2062378,0.1957397-0.4303589,0.3726807-0.6464844,0.5580444c-0.1899414,0.1629639-0.4171143,0.2188721-0.6599731,0.2228394
	c-0.3789062,0.0061646-0.7581787,0.0186157-1.1369019,0.0096436c-0.3887329-0.0091553-0.7772217-0.0368652-1.1653442-0.0636597
	c-0.4733276-0.0327148-0.9462891-0.0715332-1.4191284-0.1105347c-0.2365112-0.0195312-0.4727173-0.0432129-0.7085571-0.0695801
	c-0.0820923-0.0091553-0.1535034,0.0003052-0.229248,0.0393066C2.9764404,13.4317627,1.8843994,14,1.8843994,14H0
	l-0.0166016-1.6564941c0,0,0.0947266-0.0882568,0.1403198-0.1296997c0.6605835-0.5998535,1.321228-1.199585,1.9818115-1.7994385
	c0.1383057-0.1256104,0.2765503-0.2513428,0.4142456-0.3776245c0.4494629-0.4121094,0.9863892-0.6446533,1.5766602-0.7664185
	C4.605835,9.1652222,5.1193848,9.1724854,5.6339722,9.2193604c0.9345093,0.085083,1.8421021,0.2979736,2.7365112,0.5745239
	c0.0666504,0.0205688,0.0951538,0.0455933,0.0852051,0.118042c-0.0285034,0.2074585-0.0480957,0.4161987-0.0787964,0.62323
	c-0.0180054,0.1209717-0.0845337,0.1875-0.2175293,0.2167969c-0.7805176,0.171814-1.5661621,0.2927856-2.3676758,0.2897339
	c-0.1298828-0.0004883-0.2208862,0.086731-0.2197266,0.2047729c0.0012207,0.1192017,0.0899048,0.1992188,0.2233276,0.1998901
	c0.7455444,0.0037842,1.4797974-0.0929565,2.2073364-0.2488403c0.1000977-0.0214233,0.1990356-0.0489502,0.2998657-0.065979
	c0.1813965-0.0305786,0.2998047-0.1378784,0.380249-0.2959595c0.1157837-0.227478,0.1494141-0.4748535,0.1723633-0.7242432
	c0.0091553-0.0994263,0.0133057-0.199585,0.0139771-0.2994385c0.0003052-0.0453491,0.0157471-0.0718994,0.0526733-0.0971069
	c0.7821045-0.5334473,1.5606079-1.0722046,2.3459473-1.600708c0.3602905-0.2425537,0.7314453-0.4693604,1.102417-0.6954956
	c0.1524658-0.0929565,0.3131714-0.1759033,0.4783936-0.242981c0.0908813-0.0368652,0.2009888-0.0510254,0.2990112-0.0412598
	C13.4554443,7.1652222,13.7216797,7.3063965,13.9833984,7.4841309z M5.6577759,5.5079956
	c0.1987305,0.0429688,0.3826904-0.0814209,0.4316406-0.2976685C6.1425781,4.9755249,6.1906128,4.739624,6.2409668,4.5041504
	c0.0465698-0.2178955,0.0931396-0.4358521,0.1397705-0.6537476c0.0155029,0.6049194,0.0155029,1.2073364,0.0155029,1.8097534
	c0.000061,0.9611206-0.0001831,1.9223022,0.0004883,2.8834839C6.3968506,8.7508545,6.5045166,8.9123535,6.682373,8.9786987
	c0.2965698,0.1105347,0.5962524-0.1026001,0.5968628-0.4290771c0.001709-0.8796997,0.0006714-1.7593994,0.0007324-2.6390991
	c0-0.0444946,0-0.0889282,0-0.1362915c0.1027832,0,0.1924438,0,0.2918091,0c0,0.0372314,0.000061,0.0689697,0,0.100708
	c0,0.449646-0.0001221,0.899231-0.0001221,1.348877c0.000061,0.4463501-0.0016479,0.8927612,0.0010376,1.3391113
	c0.0014038,0.2226562,0.1635742,0.4089355,0.371521,0.4376831c0.2268677,0.031311,0.4315796-0.0926514,0.4926147-0.3065796
	C8.4551392,8.6296997,8.4572144,8.559082,8.4572144,8.491333C8.458313,6.9306641,8.4580688,5.3700562,8.4580688,3.8093872
	C8.4625244,3.8075562,8.4669189,3.8057251,8.4713745,3.803894c0.0063477,0.0205688,0.0142822,0.0407715,0.0187378,0.0617676
	c0.0973511,0.454895,0.1923218,0.9103394,0.2921753,1.3646851c0.0438232,0.1990967,0.2359619,0.319397,0.4279175,0.2773438
	c0.2028198-0.0443726,0.3305054-0.2296143,0.2883911-0.4302979C9.3081665,4.1699829,9.1149902,3.2630615,8.9237671,2.355835
	c-0.0275269-0.1306152-0.098999-0.2263184-0.218811-0.2815552C8.6255493,2.0377197,8.543457,2.0038452,8.4591675,1.9816895
	C7.9385376,1.8450317,7.4086304,1.8297729,6.8787231,1.8970947c-0.2332153,0.0296631-0.4630737,0.0982666-0.6891479,0.166687
	c-0.1393433,0.0422363-0.2149658,0.156311-0.2457886,0.3031006C5.7560425,3.2615356,5.5648804,4.1555176,5.3753052,5.0498657
	C5.3275757,5.2750244,5.4433594,5.4615479,5.6577759,5.5079956z M7.4049072,1.5917969
	c0.4564819,0.0057983,0.812439-0.3381958,0.8184204-0.7907715C8.229126,0.3630371,7.8770142,0.0054932,7.4345093,0.000061
	C6.9991455-0.0053101,6.6373901,0.3441162,6.6307983,0.7763672C6.6239624,1.2213745,6.9703979,1.5863037,7.4049072,1.5917969z"/>
</svg>
