<?xml version="1.0" encoding="utf-8"?>

<!--
 ~   Copyright 2017, WSO2 Inc. (http://www.wso2.com)
 ~
 ~   Licensed under the Apache License, Version 2.0 (the "License");
 ~   you may not use this file except in compliance with the License.
 ~   You may obtain a copy of the License at
 ~
 ~        http://www.apache.org/licenses/LICENSE-2.0
 ~
 ~   Unless required by applicable law or agreed to in writing, software
 ~   distributed under the License is distributed on an "AS IS" BASIS,
 ~   WITHOUT WARRANTIES OR CONDITIONS OF ANY KIND, either express or implied.
 ~   See the License for the specific language governing permissions and
 ~   limitations under the License.
-->

<svg version="1.1" id="database" xmlns="http://www.w3.org/2000/svg" xmlns:xlink="http://www.w3.org/1999/xlink" x="0px" y="0px"
	 viewBox="0 0 14 14" style="enable-background:new 0 0 14 14;" xml:space="preserve">
<path d="M2.5488169,0.795345C3.22563,0.4889908,3.961107,0.3125674,4.6968093,0.1925108
	c1.7532253-0.2861025,3.562407-0.2682492,5.2950692,0.1235887c0.6963158,0.1574704,1.3876629,0.3786072,1.9906445,0.7607932
	c0.1161356,0.0736099,0.2313557,0.1557012,0.3076658,0.270081s0.1070242,0.2681121,0.0452061,0.3909309
	c-0.0437193,0.0868608-0.1260805,0.1468172-0.207202,0.2004406C11.4321318,2.398458,10.6147432,2.6404591,9.796917,2.8058853
	c-2.03196,0.4110165-4.1569934,0.3815439-6.1657143-0.1311326C3.4145856,2.6194663,3.199374,2.5581481,2.9877958,2.485795
	c-0.2119479-0.0724792-0.420366-0.1560736-0.6209865-0.2559085C2.1677601,2.1308334,1.9764259,2.0156157,1.7994697,1.880795
	C1.7598543,1.8506125,1.7112509,1.8203744,1.6796691,1.7814745C1.6580033,1.7547884,1.6529105,1.7141542,1.6440049,1.6818869
	c-0.0281824-0.102113-0.0059931-0.2132213,0.0432676-0.3052714c0.0090028-0.0168228,0.0189817-0.0331248,0.0298985-0.0487739
	C1.802902,1.2049474,1.9325628,1.1206678,2.0621183,1.0453805C2.2202446,0.95349,2.3827651,0.8705071,2.5488169,0.795345z
	 M6.8780117,3.9766855C2.9069963,3.8951468,1.6644168,2.9027629,1.6644168,2.9027629s-0.0233299,2.1696711,0,2.4185224
	C3.4941049,6.840137,7.2166204,6.6776223,7.883141,6.6351166c1.4153953-0.0746007,3.3047805-0.3660564,4.4512019-1.3177195
	c0.0233297-0.2488513,0-2.4185226,0-2.4185226S11.041544,3.9316871,6.8780117,3.9766855z M6.8780117,7.5228148
	C2.9069963,7.4412766,1.6644168,6.4488921,1.6644168,6.4488921s-0.0233299,2.1696715,0,2.4185224
	c1.8296881,1.5188522,5.5522041,1.3563375,6.2187243,1.3138323c1.4153953-0.0746012,3.3047805-0.3660564,4.4512019-1.3177204
	c0.0233297-0.2488508,0-2.4185224,0-2.4185224S11.041544,7.4778166,6.8780117,7.5228148z M6.8780117,11.3177958
	c-3.9710155-0.0815382-5.2135954-1.0739231-5.2135954-1.0739231s-0.0233299,2.169672,0,2.4185228
	c1.8296881,1.5188522,5.5522041,1.3563375,6.2187243,1.3138313c1.4153957-0.0746002,3.304781-0.3660564,4.4512024-1.3177195
	c0.0233297-0.2488508,0-2.4185228,0-2.4185228S11.041544,11.2727976,6.8780117,11.3177958z"/>
</svg>
