<?xml version="1.0" encoding="utf-8"?>

<!--
 ~   Copyright 2017, WSO2 Inc. (http://www.wso2.com)
 ~
 ~   Licensed under the Apache License, Version 2.0 (the "License");
 ~   you may not use this file except in compliance with the License.
 ~   You may obtain a copy of the License at
 ~
 ~        http://www.apache.org/licenses/LICENSE-2.0
 ~
 ~   Unless required by applicable law or agreed to in writing, software
 ~   distributed under the License is distributed on an "AS IS" BASIS,
 ~   WITHOUT WARRANTIES OR CONDITIONS OF ANY KIND, either express or implied.
 ~   See the License for the specific language governing permissions and
 ~   limitations under the License.
-->

<svg version="1.1" id="factory-reset" xmlns="http://www.w3.org/2000/svg" xmlns:xlink="http://www.w3.org/1999/xlink" x="0px"
	 y="0px" viewBox="0 0 14 14" style="enable-background:new 0 0 14 14;" xml:space="preserve">
<path d="M4.8298655,3.454138v1.5543859c0,0.2007484,0.163774,0.3644791,0.364522,0.3644791h0.0633783
	c0.2007051,0,0.3644791-0.1637306,0.3644791-0.3644791V3.0025084c0.3011007-0.1254189,0.6220045-0.2112753,0.957448-0.2522187
	v2.8697116c0,0.2007051,0.163774,0.3644791,0.3644791,0.3644791h0.0634212c0.2007051,0,0.3644791-0.163774,0.3644791-0.3644791
	V2.7370446c0.3341489,0.0303731,0.6550102,0.1056161,0.957448,0.2205513v2.0509281
	c0,0.2007484,0.1637735,0.3644791,0.3644791,0.3644791h0.0634642c0.2006626,0,0.3644791-0.1637306,0.3644791-0.3644791V3.3735886
	c0.9283695,0.6431451,1.5451107,1.7049146,1.5807476,2.9106984h0.4280729v0.8068757H2.8671663V6.2855811h0.4928751
	C3.3930464,5.1273851,3.9635804,4.1039271,4.8298655,3.454138z M10.8618908,8.0528822l0.0003014-0.3624945V7.3465743
	L8.5177135,7.3482137c0,0.8388028-0.6799898,1.5187497-1.5187492,1.5187497S5.4802155,8.1870165,5.4802155,7.3482137
	L3.1357367,7.3470488v0.3290582l0.0033221,0.4125409L3.991667,8.1953001
	c0.0684264,0.2350903,0.1633427,0.4613371,0.2841885,0.6738195L3.9326031,9.3017664
	C3.9301009,9.3049593,3.7354791,9.555625,3.7354791,9.555625l1.0344164,1.0301018l0.679213-0.536191
	c0.219861,0.1264105,0.4540892,0.2253399,0.6975498,0.2953625l0.1031566,0.8662844l1.4598579-0.0030632l0.1029844-0.8440228
	c0.2630043-0.0683823,0.5139723-0.1698999,0.7504864-0.3032579l0.6720514,0.5260963l1.0273848-1.037178L9.7424803,8.8934097
	c0.1340914-0.2323294,0.2389307-0.4795866,0.3084784-0.738924L10.8618908,8.0528822z M7,0
	C5.0951567,0,3.3233261,0.7545856,2.0138676,2.0907068l-0.0273532-0.022176L0.7874612,1.0967593L0.0993171,5.4311609
	l4.0977578-1.5712552L3.0672674,2.9442644l-0.222579-0.1803412C3.9485233,1.6760515,5.4190807,1.0603027,7,1.0603027
	c3.2751341,0,5.9396973,2.6642177,5.9396973,5.939352c0,3.2754793-2.6645632,5.9400425-5.9396973,5.9400425
	c-3.1702085,0-5.7760959-2.4781818-5.9324493-5.6407967C1.0627187,7.1998425,1.0603027,7.1000938,1.0603027,6.9996548H0
	C0,7.1173511,0.0031064,7.2336669,0.0086288,7.350328C0.1929392,11.0793352,3.2637444,14,7,14c3.8598194,0,7-3.1401806,7-7.0003452
	C14,3.1401803,10.8598194,0,7,0z"/>
</svg>
