<?xml version="1.0" encoding="utf-8"?>

<!--
 ~   Copyright 2017, WSO2 Inc. (http://www.wso2.com)
 ~
 ~   Licensed under the Apache License, Version 2.0 (the "License");
 ~   you may not use this file except in compliance with the License.
 ~   You may obtain a copy of the License at
 ~
 ~        http://www.apache.org/licenses/LICENSE-2.0
 ~
 ~   Unless required by applicable law or agreed to in writing, software
 ~   distributed under the License is distributed on an "AS IS" BASIS,
 ~   WITHOUT WARRANTIES OR CONDITIONS OF ANY KIND, either express or implied.
 ~   See the License for the specific language governing permissions and
 ~   limitations under the License.
-->

<svg version="1.1" id="html" xmlns="http://www.w3.org/2000/svg" xmlns:xlink="http://www.w3.org/1999/xlink" x="0px" y="0px"
	 viewBox="0 0 14 14" style="enable-background:new 0 0 14 14;" xml:space="preserve">
<path d="M12.1,5.2V3L9,0H1.9v5.2H1.8H1v4.3h0.9h0.1V14h10.1V9.5h1V5.2H12.1z M2.7,0.8h6.1v2.6h2.6v1.9H2.7V0.8z M8.4,8.5H8L7.5,6.8
	v1.8H7.1V6.3h0.7l0.4,1.6l0.4-1.6h0.7v2.3H8.9V6.8L8.4,8.5z M5,6.7V6.3h1.8v0.4H6.1v1.9H5.6V6.7H5z M3.3,7.5v1H2.8V6.3h0.5v0.9h0.9
	V6.3h0.5v2.3H4.2v-1H3.3z M11.3,13.2H2.7V9.5h8.6V13.2z M11.4,8.5L11.4,8.5H9.8V6.3h0.5v1.9h1.1h0.1V8.5z M10.7,11.7l-1.5,0.8v-0.5
	l1-0.5l-1-0.5v-0.4l1.5,0.7V11.7z M8.5,12.6H8.1l0.6-2.4h0.4L8.5,12.6z M7.9,12.5l-1.5-0.8v-0.3l1.5-0.7v0.4l-1,0.5l1,0.5V12.5z"/>
</svg>
