<?xml version="1.0" encoding="utf-8"?>

<!--
 ~   Copyright 2017, WSO2 Inc. (http://www.wso2.com)
 ~
 ~   Licensed under the Apache License, Version 2.0 (the "License");
 ~   you may not use this file except in compliance with the License.
 ~   You may obtain a copy of the License at
 ~
 ~        http://www.apache.org/licenses/LICENSE-2.0
 ~
 ~   Unless required by applicable law or agreed to in writing, software
 ~   distributed under the License is distributed on an "AS IS" BASIS,
 ~   WITHOUT WARRANTIES OR CONDITIONS OF ANY KIND, either express or implied.
 ~   See the License for the specific language governing permissions and
 ~   limitations under the License.
-->

<svg version="1.1" id="java-spring" xmlns="http://www.w3.org/2000/svg" xmlns:xlink="http://www.w3.org/1999/xlink" x="0px"
	 y="0px" viewBox="0 0 14 14" style="enable-background:new 0 0 14 14;" xml:space="preserve">
<path d="M13.4587383,3.1942358c-0.2153969-0.7349074-0.4369068-1.468025-0.6836958-2.2960522
	c-0.2068472,0.3537282-0.3465242,0.6290593-0.5143671,0.8863318c-0.1723642,0.2642045-0.2850895,0.3345001-0.5450878,0.0975417
	c-0.9817123-0.8947155-2.1406603-1.4580562-3.4396677-1.7117547c-1.3710651-0.2677786-2.713593-0.1070338-3.9852157,0.4543563
	C1.9854815,1.6423614,0.5930274,3.4037707,0.1284199,5.889493c0,0-0.158833,0.544157-0.1232142,1.3998737
	c0.0363281,0.8726778,0.2130814,1.2908392,0.2130814,1.2908392c0.676963,2.8343077,2.923671,4.8717194,5.8055944,5.2996054
	c3.7591176,0.5581264,7.3141313-2.0039034,7.8787742-5.8463945C14.1406498,6.4138403,13.9230413,4.7783546,13.4587383,3.1942358z
	 M2.7294931,12.2975435c-0.3447127,0-0.624161-0.2794485-0.624161-0.6241617c0-0.3447123,0.2794483-0.6241608,0.624161-0.6241608
	s0.6241608,0.2794485,0.6241608,0.6241608C3.3536539,12.018095,3.0742056,12.2975435,2.7294931,12.2975435z M13.5001144,8.3208666
	c-0.467001,1.8943653-1.6196213,3.0570641-3.543149,3.2413588c-1.6484518,0.1579409-3.319047,0.0850801-4.9798999,0.1111517
	c-0.0335798,0.0005264-0.0677581-0.0374479-0.1849213-0.1066017c0.3742142-0.1251373,0.6751347-0.2461901,0.9865723-0.3264542
	C7.3414793,10.837553,8.7656622,10.1624517,9.9136,9.0130901c1.0130205-1.014267,1.8116732-2.1769662,2.1258097-3.5875177
	c-1.2047682,2.4279385-3.1635494,3.9645023-5.7677536,4.7052279c-0.7387915,0.2101393-1.4899511,0.3776445-2.2376757,0.5553007
	c-0.7858474,0.1867218-1.1644833,0.0248909-1.5534146-0.6914921C1.9089631,8.9417477,2.0286586,7.8801527,2.5814543,6.8799052
	C3.3304586,5.5246215,4.5986013,5.0157394,6.0741458,4.875885c0.9724641-0.0921721,1.9664721-0.1329002,2.9040275-0.3766794
	c1.4408455-0.3746462,2.6142664-1.2163382,3.4545679-2.4773717c0.0640945-0.0961896,0.1580677-0.2002257,0.313776-0.4383976
	c0.2832546,1.1625218,0.6106071,2.2884884,0.7981043,3.3654764C13.73878,6.0641627,13.7765656,7.1994605,13.5001144,8.3208666z"/>
</svg>
