<?xml version="1.0" encoding="utf-8"?>

<!--
 ~   Copyright 2017, WSO2 Inc. (http://www.wso2.com)
 ~
 ~   Licensed under the Apache License, Version 2.0 (the "License");
 ~   you may not use this file except in compliance with the License.
 ~   You may obtain a copy of the License at
 ~
 ~        http://www.apache.org/licenses/LICENSE-2.0
 ~
 ~   Unless required by applicable law or agreed to in writing, software
 ~   distributed under the License is distributed on an "AS IS" BASIS,
 ~   WITHOUT WARRANTIES OR CONDITIONS OF ANY KIND, either express or implied.
 ~   See the License for the specific language governing permissions and
 ~   limitations under the License.
-->

<svg version="1.1" id="tag" xmlns="http://www.w3.org/2000/svg" xmlns:xlink="http://www.w3.org/1999/xlink" x="0px" y="0px"
	 viewBox="0 0 14 14" style="enable-background:new 0 0 14 14;" xml:space="preserve">
<path d="M9.2000122,2.5999756l-3.9000244-1L4.5999756,2.2999878c-0.1999512-0.0999756-0.5-0.2000122-0.7999878-0.2000122
	c-1-0.2999878-2.8999634,0.3000488-3.5,2C0.0999756,4.5,0,4.9000244,0,5.2999878C0,5.4000244,0,5.4000244,0,5.5v0.7000122
	c0,0-0.2000122,2.3999634,1.5,2.3999634c1.7000122-0.1999512,1.0999756-2.3999634,1.0999756-2.3999634
	c-0.0999756-0.5-0.1999512-1-0.1999512-1.5s0-0.9000244,0.2999878-1.2999878C2.9000244,3.2000122,3.2999878,3,3.5999756,2.9000244
	c0.1000366,0,0.2000122,0,0.4000244,0.0999756L3.0999756,4L4,7.5l5.2999878,5L14,7.5L9.2000122,2.5999756z M1.7000122,5.4000244
	c0,0.2999878,0.0999756,0.5999756,0.2000122,1c0,0.2999878,0.0999756,0.5999756,0,0.8999634
	C1.7999878,7.5,1.7000122,7.7000122,1.4000244,7.7000122c-0.3000488,0-0.6000366-0.4000244-0.6000366-0.6000366
	C0.5999756,6.5,0.5999756,5.7999878,0.7000122,5.2000122c0.0999756-0.2999878,0.3900146-1.2800293,1.2699585-1.9800415
	C1.8599854,3.3900146,1.6099854,4.6500244,1.7000122,5.4000244z M6.1500244,5.6199951
	c-0.5200195,0-0.9500122-0.4199829-0.9500122-0.9500122c0-0.0199585,0-0.0299683,0.0100098-0.0499878
	C5.2000122,4.6099854,5.2000122,4.6099854,5.2000122,4.5999756L5.210022,4.6099854
	c0-0.0999756,0.0199585-0.2000122,0.0599976-0.289978c0.0499878-0.1300049,0.1199951-0.2399902,0.2199707-0.3300171
	C5.6599731,3.9699707,5.8099976,3.9799805,5.9299927,4.039978c0.0499878,0.0100098,0.1000366,0.0400391,0.1400146,0.0700073
	C6.2199707,4.210022,6.3300171,4.4799805,6.2999878,4.6699829C6.25,4.8099976,6.1799927,4.9199829,6.0300293,4.9500122
	C5.8599854,4.9699707,5.6599731,4.8800049,5.4899902,4.7700195C5.6099854,4.9500122,5.75,5.1099854,6,5.1900024
	c0.1300049,0.0299683,0.289978,0.0100098,0.4099731-0.0499878c0.1400146-0.0599976,0.2300415-0.1600342,0.3200073-0.2600098
	l0.0100098-0.0300293c0.1099854-0.2099609,0.1300049-0.4099731,0.1099854-0.6099854
	c-0.0099487-0.0499878-0.0099487-0.1099854-0.039978-0.1599731C6.8200073,4.039978,6.8099976,4,6.789978,3.9699707
	c0.1900024,0.1800537,0.3099976,0.4300537,0.3099976,0.7000122C7.0999756,5.2000122,6.6699829,5.6199951,6.1500244,5.6199951z"/>
</svg>
