<?xml version="1.0" encoding="utf-8"?>

<!--
 ~   Copyright 2017, WSO2 Inc. (http://www.wso2.com)
 ~
 ~   Licensed under the Apache License, Version 2.0 (the "License");
 ~   you may not use this file except in compliance with the License.
 ~   You may obtain a copy of the License at
 ~
 ~        http://www.apache.org/licenses/LICENSE-2.0
 ~
 ~   Unless required by applicable law or agreed to in writing, software
 ~   distributed under the License is distributed on an "AS IS" BASIS,
 ~   WITHOUT WARRANTIES OR CONDITIONS OF ANY KIND, either express or implied.
 ~   See the License for the specific language governing permissions and
 ~   limitations under the License.
-->

<svg version="1.1" id="task" xmlns="http://www.w3.org/2000/svg" xmlns:xlink="http://www.w3.org/1999/xlink" x="0px" y="0px"
	 viewBox="0 0 14 14" style="enable-background:new 0 0 14 14;" xml:space="preserve">
<path d="M3.9012318,4.4509993h1.2120485L4.8919687,4.683125H4.1217928v1.0334191h0.9864116V5.2218819l0.2212672-0.2321258v0.9589133
	H3.9012318V4.4509993z M4.584631,5.2255011l0.7831969-0.8215094L5.524035,4.5681434L4.584631,5.5530987L4.2085695,5.1589842
	L4.3647761,4.994832L4.584631,5.2255011z M10.0987682,5.4263306H6.3355036v-0.5h3.7632647V5.4263306z M3.9012251,8.7513561
	v1.4976807h1.4282632l0.0000405-1.4976807H3.9012251z M5.1082153,10.0169001H4.1218061V8.9834938h0.9864092V10.0169001z
	 M10.0987749,9.7501965H6.3355103v-0.5h3.7632647V9.7501965z M3.9012251,10.9132891v1.4976807h1.4282632l0.0000405-1.4976807
	H3.9012251z M5.1082153,12.178833H4.1218061v-1.0334063h0.9864092V12.178833z M10.0987749,11.9121294H6.3355103v-0.5h3.7632647
	V11.9121294z M3.9012318,6.6129327h1.2120485L4.8919687,6.845058H4.1217928v1.0334191h0.9864116V7.3838148l0.2212672-0.2321253
	v0.9589128H3.9012318V6.6129327z M4.584631,7.387434l0.7831969-0.8215094L5.524035,6.7300768L4.584631,7.7150316
	L4.2085695,7.3209171l0.1562066-0.1641517L4.584631,7.387434z M10.0987682,7.5882635H6.3355036v-0.5h3.7632647V7.5882635z
	 M8.9949951,0H1.9349976v14h10.1300049V2.9699707L8.9949951,0z M11.3150024,13.25H2.6849976V0.75h6.0700073v2.5599976h2.5599976
	V13.25z"/>
</svg>
