<?xml version="1.0" encoding="utf-8"?>

<!--
 ~   Copyright 2017, WSO2 Inc. (http://www.wso2.com)
 ~
 ~   Licensed under the Apache License, Version 2.0 (the "License");
 ~   you may not use this file except in compliance with the License.
 ~   You may obtain a copy of the License at
 ~
 ~        http://www.apache.org/licenses/LICENSE-2.0
 ~
 ~   Unless required by applicable law or agreed to in writing, software
 ~   distributed under the License is distributed on an "AS IS" BASIS,
 ~   WITHOUT WARRANTIES OR CONDITIONS OF ANY KIND, either express or implied.
 ~   See the License for the specific language governing permissions and
 ~   limitations under the License.
-->

<svg version="1.1" id="ternary" xmlns="http://www.w3.org/2000/svg" xmlns:xlink="http://www.w3.org/1999/xlink" x="0px" y="0px"
	 width="14px" height="14px" viewBox="0 0 14 14" style="enable-background:new 0 0 14 14;" xml:space="preserve">
<path d="M3.6,10.1c0-0.9,0.1-1.5,0.3-1.9c0.2-0.4,0.7-0.9,1.3-1.5c0.5-0.5,0.9-0.9,1.2-1.4c0.3-0.4,0.4-0.9,0.4-1.5
	c0-0.6-0.2-1.1-0.5-1.4C6,2.1,5.6,1.9,5,1.9c-0.5,0-1,0.1-1.3,0.4S3.1,3.1,3.1,3.6H0.8l0-0.1c0-1.1,0.4-2,1.1-2.6S3.7,0,5,0
	c1.3,0,2.4,0.3,3.1,1c0.7,0.7,1.1,1.6,1.1,2.8c0,0.8-0.2,1.5-0.7,2.2S7.4,7.4,6.7,7.9C6.4,8.3,6.1,8.6,6,8.8
	c-0.1,0.3-0.1,0.7-0.1,1.3H3.6z M5.9,14H3.6v-2.2h2.4L5.9,14L5.9,14z M13.2,11.1h-1.7V9h1.7V11.1z M13.2,5.9h-1.7V3.8h1.7V5.9z"/>
</svg>
