<?xml version="1.0" encoding="utf-8"?>

<!--
 ~   Copyright 2017, WSO2 Inc. (http://www.wso2.com)
 ~
 ~   Licensed under the Apache License, Version 2.0 (the "License");
 ~   you may not use this file except in compliance with the License.
 ~   You may obtain a copy of the License at
 ~
 ~        http://www.apache.org/licenses/LICENSE-2.0
 ~
 ~   Unless required by applicable law or agreed to in writing, software
 ~   distributed under the License is distributed on an "AS IS" BASIS,
 ~   WITHOUT WARRANTIES OR CONDITIONS OF ANY KIND, either express or implied.
 ~   See the License for the specific language governing permissions and
 ~   limitations under the License.
-->

<svg version="1.1" id="ungroup" xmlns="http://www.w3.org/2000/svg" xmlns:xlink="http://www.w3.org/1999/xlink" x="0px" y="0px"
	 viewBox="0 0 14 14" style="enable-background:new 0 0 14 14;" xml:space="preserve">
<path d="M14,1.8V0h-1.8v0.7H5.8V0H4v1.8h0.6v2.8H1.8V3.9H0v1.8h0.6v6.4H0V14h1.8v-0.6h6.3V14H10v-1.8H9.3V9.4h2.8v0.6H14V8.2h-0.6
	V1.8H14z M4.5,1.3V0.5h0.8v0.1v0.6H4.7H4.5z M1.3,13.4v0.1H0.5v-0.8h0.1h0.6V13.4z M1.3,4.6v0.6H0.6H0.5V4.5h0.8V4.6z M9.5,12.7v0.8
	H8.7v-0.1v-0.7h0.6H9.5z M8.5,12.2H8.2v0.3H1.8v-0.3H1.5V5.8h0.3V5.5h2.8v2.7H4v1.8h1.8V9.4h2.6V12.2z M8.5,5.8v2.8H5.8V8.2H5.5V5.5
	h2.7v0.3H8.5z M5.3,8.8v0.7v0.1H4.5V8.8h0.1H5.3z M12.5,8.2h-0.3v0.3H9.3V5.8H10V3.9H8.2v0.7H5.5V1.8h0.3V1.5h6.3v0.3h0.3V8.2z
	 M8.7,5.2V4.6V4.5h0.8v0.8H9.3H8.7z M13.5,8.8v0.8h-0.8V9.4V8.8h0.6H13.5z M12.7,1.3V0.7V0.5h0.8v0.8h-0.1H12.7z"/>
</svg>
