<?xml version="1.0" encoding="utf-8"?>

<!--
 ~   Copyright 2017, WSO2 Inc. (http://www.wso2.com)
 ~
 ~   Licensed under the Apache License, Version 2.0 (the "License");
 ~   you may not use this file except in compliance with the License.
 ~   You may obtain a copy of the License at
 ~
 ~        http://www.apache.org/licenses/LICENSE-2.0
 ~
 ~   Unless required by applicable law or agreed to in writing, software
 ~   distributed under the License is distributed on an "AS IS" BASIS,
 ~   WITHOUT WARRANTIES OR CONDITIONS OF ANY KIND, either express or implied.
 ~   See the License for the specific language governing permissions and
 ~   limitations under the License.
-->

<svg version="1.1" id="alarm" xmlns="http://www.w3.org/2000/svg" xmlns:xlink="http://www.w3.org/1999/xlink" x="0px" y="0px"
	 viewBox="0 0 14 14" style="enable-background:new 0 0 14 14;" xml:space="preserve">
<path d="M6.6,3.7h0.9v2.9h2.3v0.9H7.5H7H6.6V3.7z M7,2.3c-2.6,0-4.7,2.1-4.7,4.7c0,2.6,2.1,4.7,4.7,4.7c2.6,0,4.7-2.1,4.7-4.7
	C11.8,4.5,9.7,2.3,7,2.3z M7,1.1c3.3,0,6,2.7,6,6c0,2.3-1.3,4.3-3.2,5.3l1.2,1.2H9.1l-0.7-0.7C8,13,7.5,13.1,7,13.1
	c-0.5,0-0.9-0.1-1.3-0.1L5,13.6H3.1l1.2-1.2c-1.9-1-3.3-3-3.3-5.3C1.1,3.8,3.7,1.1,7,1.1z M11.2,0.4c0.6,0,1.3,0.3,1.9,0.9
	C14,2.2,14.3,3.4,13.7,4c-0.1,0.1-0.2,0.2-0.3,0.2c-0.6-1.4-1.7-2.6-3.1-3.3c0-0.1,0.1-0.1,0.1-0.2C10.6,0.5,10.9,0.4,11.2,0.4z
	 M2.8,0.4c0.3,0,0.6,0.1,0.8,0.3c0.1,0.1,0.1,0.1,0.1,0.2C2.3,1.6,1.3,2.8,0.6,4.2C0.5,4.1,0.4,4.1,0.3,4C-0.3,3.4,0,2.2,0.9,1.3
	C1.5,0.7,2.2,0.4,2.8,0.4z"/>
</svg>
