<?xml version="1.0" encoding="utf-8"?>

<!--
 ~   Copyright 2017, WSO2 Inc. (http://www.wso2.com)
 ~
 ~   Licensed under the Apache License, Version 2.0 (the "License");
 ~   you may not use this file except in compliance with the License.
 ~   You may obtain a copy of the License at
 ~
 ~        http://www.apache.org/licenses/LICENSE-2.0
 ~
 ~   Unless required by applicable law or agreed to in writing, software
 ~   distributed under the License is distributed on an "AS IS" BASIS,
 ~   WITHOUT WARRANTIES OR CONDITIONS OF ANY KIND, either express or implied.
 ~   See the License for the specific language governing permissions and
 ~   limitations under the License.
-->

<svg version="1.1" id="fan" xmlns="http://www.w3.org/2000/svg" xmlns:xlink="http://www.w3.org/1999/xlink" x="0px" y="0px"
	 viewBox="0 0 14 14" style="enable-background:new 0 0 14 14;" xml:space="preserve">
<path d="M14.0014601,7.0037799c-0.0286598,3.9147401-3.1605797,7.0100598-7.0264201,6.9961801
	c-3.8703599-0.0138998-6.9801998-3.1237497-6.97649-7.0044599c0.00376-3.9328599,3.1796801-7.0083399,7.0215702-6.99545
	C10.8819304,0.01299,13.98598,3.12043,14.0014601,7.0037799z M6.9952898,0.77695
	c-3.4026799-0.005-6.2184501,2.7424803-6.22894,6.2297201c-0.01033,3.4309998,2.82249,6.2281799,6.2435498,6.2179794
	c3.4106898-0.01017,6.21524-2.7502899,6.2153602-6.2237701C13.2253704,3.4925301,10.38095,0.76613,6.9952898,0.77695z
	 M7.7592301,5.4633198c0.0470901-0.2708898,0.098-0.50421,0.12677-0.7402296
	C7.9772601,3.97437,7.8643999,3.2644,7.4443402,2.6236999C6.8403101,1.7024,5.6256204,1.3839399,4.79634,1.6751199
	C4.1909199,1.8877,3.80374,2.3499899,3.7207601,3.0079501C3.6398499,3.64942,3.92593,4.1354098,4.4316702,4.5028601
	c0.5176301,0.37608,1.1370897,0.6440902,1.3569798,1.3710003C6.33951,5.1687198,7.0100298,5.14361,7.7592301,5.4633198z
	 M6.4572401,8.5063105c-0.56917-0.07586-1.03339-0.5669398-1.1085-1.2544999
	C5.3322201,7.1005201,5.27143,7.0627298,5.1318998,7.10783C4.6737299,7.2559299,4.24331,7.4570103,3.8493199,7.7375102
	c-1.06972,0.76158-1.3727798,2.1031995-0.7508299,3.2590699c0.4138701,0.7691603,1.1791499,0.9983397,1.8083899,0.8768196
	c0.7230501-0.1396399,1.1949902-0.7531004,1.23456-1.5608397C6.15944,9.9451799,6.1974101,9.5742302,6.2767401,9.2160597
	C6.32655,8.9911594,6.4700003,8.7870092,6.5785003,8.5586996C6.54774,8.54492,6.50423,8.5125799,6.4572401,8.5063105z
	 M7.9033899,8.38447c0.2317305,0.1891403,0.4269705,0.3705797,0.6435699,0.5213299
	c0.7793999,0.54245,1.61973,0.8009996,2.5658197,0.5032101C11.95436,9.1441202,12.7236595,8.1822701,12.69102,7.4335299
	c-0.0279503-0.6409202-0.2709799-1.1578798-0.8572798-1.4615002c-0.5205803-0.2695999-1.0369196-0.17873-1.5461702,0.0620098
	c-0.5384398,0.25454-1.0520601,0.6103001-1.7617502,0.4277401C8.8856001,7.3072701,8.5471601,7.8920498,7.9033899,8.38447z
	 M7.96877,6.97684C7.9769602,6.4576602,7.5241699,5.9977598,7.00103,5.9938998
	c-0.5303302-0.0039096-0.9809599,0.43397-0.9893599,0.96138C6.0034099,7.4738102,6.4577799,7.9353199,6.9794598,7.9382801
	C7.5102201,7.9412799,7.9604602,7.5037298,7.96877,6.97684z"/>
</svg>
