<?xml version="1.0" encoding="utf-8"?>

<!--
	~   Copyright (c) 2017, WSO2 Inc. (http://www.wso2.org) All Rights Reserved.
	~
	~   WSO2 Inc. licenses this file to you under the Apache License,
	~   Version 2.0 (the "License"); you may not use this file except
	~   in compliance with the License.
	~   You may obtain a copy of the License at
  	~
    ~   http://www.apache.org/licenses/LICENSE-2.0
    ~
    ~   Unless required by applicable law or agreed to in writing,
    ~   software distributed under the License is distributed on an
    ~   "AS IS" BASIS, WITHOUT WARRANTIES OR CONDITIONS OF ANY
    ~   KIND, either express or implied.  See the License for the
    ~   specific language governing permissions and limitations
    ~   under the License.
-->

<svg version="1.1" id="file" xmlns="http://www.w3.org/2000/svg" xmlns:xlink="http://www.w3.org/1999/xlink" x="0px" y="0px"
	 viewBox="0 0 14 14" style="enable-background:new 0 0 14 14;" xml:space="preserve">
<path d="M14,12.289978v-0.5H9.5499878v-0.3800049H7.8699951L7.883667,9.7091064
	c1.1989136,0.0001831,2.3978271-0.0002441,3.5967407,0.0008545c0.0977173,0.000061,0.1287231-0.0325928,0.1539307-0.1204224
	c0.53302-1.8543091,1.069397-3.7077026,1.6051025-5.5613403c0.0752563-0.260437,0.1502686-0.5209961,0.2268066-0.7863159
	c-3.6012573,0-7.1895142,0-10.7826538,0C2.3256836,4.4938354,1.6063232,7.0098267,1.6063232,7.0098267L1.3253174,6.5383301
	c0,0,0.4419556-1.949646,0.6627197-2.9244995c0.0684814-0.3024902,0.1383667-0.6046753,0.2091675-0.9138794
	c3.2199707,0,6.4302368,0,9.6452637,0c0-0.364502,0-0.7194824,0-1.0802002c-0.050354,0-0.0923462,0-0.1343384,0
	c-2.0679932,0-4.1359253-0.0006714-6.2038574,0.0023193c-0.0932617,0.0001221-0.1436157-0.029541-0.1896973-0.1085205
	c-0.2752075-0.4717407-0.557373-0.9394531-0.8322754-1.4113159C4.4379883,0.026123,4.390564-0.0002441,4.302002,0
	C3.0889893,0.0033569,1.8759766,0.0022583,0.6629028,0.0022583c-0.0412598,0-0.0825195,0-0.1291504,0
	c0,3.2371216,0,6.4627075,0,9.7050781c0.0462036,0,0.0839844,0,0.1217651,0c1.8247681,0,3.6497192,0.0009766,5.4744873,0.0013428
	v1.7012939H4.4500122v0.3800049H0v0.5h4.4500122v0.7399902H0v0.5h4.4500122v0.1900024h5.0999756v-0.1900024H14v-0.5H9.5499878
	V12.289978H14z M7.3699951,11.4099731H6.6300049l0.0145264-1.7000122h0.7254639V11.4099731z"/>
</svg>
