<?xml version="1.0" encoding="utf-8"?>

<!--
 ~   Copyright 2017, WSO2 Inc. (http://www.wso2.com)
 ~
 ~   Licensed under the Apache License, Version 2.0 (the "License");
 ~   you may not use this file except in compliance with the License.
 ~   You may obtain a copy of the License at
 ~
 ~        http://www.apache.org/licenses/LICENSE-2.0
 ~
 ~   Unless required by applicable law or agreed to in writing, software
 ~   distributed under the License is distributed on an "AS IS" BASIS,
 ~   WITHOUT WARRANTIES OR CONDITIONS OF ANY KIND, either express or implied.
 ~   See the License for the specific language governing permissions and
 ~   limitations under the License.
-->

<svg version="1.1" id="google-slides" xmlns="http://www.w3.org/2000/svg" xmlns:xlink="http://www.w3.org/1999/xlink" x="0px"
	 y="0px" viewBox="0 0 14 14" style="enable-background:new 0 0 14 14;" xml:space="preserve">
<path d="M4.2,6.9h5.7v3.9H4.2V6.9z M2.3,14C2.1,14,2,13.9,2,13.7V0.3C2,0.1,2.1,0,2.3,0h5.3v3.3c0,0.5,0.4,0.9,0.9,0.9H12v9.5
	c0,0.2-0.1,0.3-0.3,0.3L2.3,14L2.3,14z M3.6,11.6h6.8v-0.3v-5V6.1H3.6v0.3v5V11.6z M8.5,3.5h2.8l-3-2.8v2.6C8.2,3.4,8.4,3.5,8.5,3.5
	z"/>
</svg>
