<?xml version="1.0" encoding="utf-8"?>

<!--
 ~   Copyright 2017, WSO2 Inc. (http://www.wso2.com)
 ~
 ~   Licensed under the Apache License, Version 2.0 (the "License");
 ~   you may not use this file except in compliance with the License.
 ~   You may obtain a copy of the License at
 ~
 ~        http://www.apache.org/licenses/LICENSE-2.0
 ~
 ~   Unless required by applicable law or agreed to in writing, software
 ~   distributed under the License is distributed on an "AS IS" BASIS,
 ~   WITHOUT WARRANTIES OR CONDITIONS OF ANY KIND, either express or implied.
 ~   See the License for the specific language governing permissions and
 ~   limitations under the License.
-->

<svg version="1.1" id="instagram" xmlns="http://www.w3.org/2000/svg" xmlns:xlink="http://www.w3.org/1999/xlink" x="0px" y="0px"
	 viewBox="0 0 14 14" style="enable-background:new 0 0 14 14;" xml:space="preserve">
<path d="M12.6,0H1.4C0.6,0,0,0.6,0,1.4v11.2C0,13.4,0.6,14,1.4,14h11.2c0.8,0,1.4-0.6,1.4-1.4V1.4C14,0.6,13.4,0,12.6,0z M7,4.2
	c1.5,0,2.8,1.3,2.8,2.8S8.5,9.8,7,9.8S4.2,8.5,4.2,7S5.5,4.2,7,4.2z M1.8,12.6c-0.2,0-0.4-0.1-0.4-0.4V6.3h1.5
	C2.8,6.5,2.8,6.8,2.8,7c0,2.3,1.9,4.2,4.2,4.2s4.2-1.9,4.2-4.2c0-0.2,0-0.5-0.1-0.7h1.5v5.9c0,0.2-0.1,0.4-0.4,0.4H1.8z M12.6,3.2
	c0,0.2-0.1,0.3-0.4,0.3h-1.4c-0.2,0-0.4-0.1-0.4-0.3V1.8c0-0.2,0.1-0.4,0.4-0.4h1.4c0.2,0,0.4,0.1,0.4,0.4V3.2z"/>
</svg>
