<?xml version="1.0" encoding="utf-8"?>

<!--
 ~   Copyright 2017, WSO2 Inc. (http://www.wso2.com)
 ~
 ~   Licensed under the Apache License, Version 2.0 (the "License");
 ~   you may not use this file except in compliance with the License.
 ~   You may obtain a copy of the License at
 ~
 ~        http://www.apache.org/licenses/LICENSE-2.0
 ~
 ~   Unless required by applicable law or agreed to in writing, software
 ~   distributed under the License is distributed on an "AS IS" BASIS,
 ~   WITHOUT WARRANTIES OR CONDITIONS OF ANY KIND, either express or implied.
 ~   See the License for the specific language governing permissions and
 ~   limitations under the License.
-->

<svg version="1.1" id="ldap" xmlns="http://www.w3.org/2000/svg" xmlns:xlink="http://www.w3.org/1999/xlink" x="0px" y="0px"
	 viewBox="0 0 14 14" style="enable-background:new 0 0 14 14;" xml:space="preserve">
<path d="M4.8296509,12.0222826c0,0.2683105,0,0.5366211,0,0.8049316
	c-0.02771,0.104187-0.065918,0.2028809-0.1340942,0.2889404c-0.1210938,0.1530151-0.2770996,0.2608032-0.4481201,0.3482056
	c-0.434082,0.2218628-0.9023438,0.3164673-1.3827515,0.3571777c-0.4208984,0.0357056-0.8413696,0.0238037-1.2593384-0.0432129
	c-0.3575439-0.057373-0.7047119-0.1489868-1.0283203-0.3162231c-0.1467285-0.0758057-0.2821655-0.1677246-0.395813-0.2893066
	C0.0890503,13.0741625,0.0310669,12.9577684,0,12.8272142c0-0.2683105,0-0.5366211,0-0.8049316
	c0.0269165,0.1009521,0.0675049,0.1949463,0.133606,0.2774048c0.1622314,0.2022705,0.3796387,0.3256226,0.6124268,0.4244995
	c0.3464966,0.1471558,0.7106323,0.2249756,1.0838013,0.2658691c0.5274047,0.0577393,1.0520018,0.0415039,1.5725707-0.0613403
	c0.3478394-0.0686646,0.6842041-0.1724854,0.9873657-0.3629761C4.5975342,12.4351854,4.7693481,12.2731981,4.8296509,12.0222826z
	 M4.3902588,10.3327684c-0.3032837,0.1901855-0.6395264,0.2946777-0.9876099,0.3632812
	c-0.5247192,0.1033936-1.0529785,0.1195068-1.5842285,0.0600586c-0.3693848-0.0413208-0.7299805-0.1185913-1.072937-0.2647095
	c-0.232666-0.0991821-0.4504395-0.2220459-0.6123657-0.4248047C0.0671997,9.9840136,0.0263672,9.8900194,0,9.7888231
	c0,0.2683105,0,0.5366211,0,0.8049316c0.0407715,0.1917725,0.1514282,0.3381348,0.3007202,0.4581299
	c0.1333618,0.1071167,0.2824097,0.1882324,0.4394531,0.2549438c0.361145,0.1534424,0.7403564,0.2321777,1.1289062,0.2730103
	c0.3335571,0.0350342,0.6677856,0.0383911,1.0014038,0.0088501c0.4784546-0.0423584,0.9450073-0.1358643,1.3774414-0.3571167
	c0.1711426-0.0875244,0.3267822-0.1957397,0.4480591-0.3485107c0.0683594-0.0860596,0.1064453-0.1848755,0.133667-0.2893066
	c0-0.2683105,0-0.5366211,0-0.8049316C4.7701416,10.040349,4.5980835,10.2024584,4.3902588,10.3327684z M4.2526855,11.5274706
	c-0.3712769,0.1936646-0.7727051,0.2862549-1.1852417,0.338562c-0.317627,0.0402222-0.6362915,0.0509644-0.9556885,0.0320435
	c-0.4738159-0.0280762-0.937439-0.1069946-1.376709-0.2949829c-0.2255859-0.0964966-0.43573-0.2173462-0.5950317-0.411377
	C0.0717163,11.1085253,0.0296631,11.0131884,0,10.9111986c0,0.2645264,0,0.5290527,0,0.7936401
	c0.0291748,0.1445312,0.0977783,0.2681885,0.2008057,0.3725586c0.111145,0.1126099,0.241272,0.1995239,0.3814087,0.2713013
	c0.3328247,0.1703491,0.6895142,0.2626343,1.0568237,0.3184814c0.4961548,0.0754395,0.9934692,0.0776978,1.4901123,0.0094604
	c0.3884888-0.0532837,0.7668457-0.1467285,1.1181641-0.328125c0.1671143-0.0863037,0.3206177-0.1911011,0.440979-0.3394775
	c0.0730591-0.0900269,0.1157837-0.1928101,0.1413574-0.3041992c0-0.2645874,0-0.5291138,0-0.7936401
	C4.7469482,11.219121,4.515625,11.3902636,4.2526855,11.5274706z M14,9.357976c0,0.0415649,0,0.0831909,0,0.1247559
	c-0.0296631,0.1032104-0.0678101,0.2018433-0.1360474,0.2875366c-0.1203613,0.1509399-0.2751465,0.257019-0.4438477,0.3443604
	c-0.3509521,0.1817627-0.7290039,0.2754517-1.1173706,0.3288574c-0.5001831,0.0687866-1.0009766,0.0663452-1.5006104-0.0100708
	c-0.3652344-0.0558472-0.7197266-0.1482544-1.0505371-0.3179321c-0.1384277-0.0709229-0.2668457-0.1566772-0.3771362-0.267334
	c-0.1049805-0.1052856-0.1744385-0.2304077-0.2041016-0.37677c0-0.0339966,0-0.0680542,0-0.1020508
	c0.0250244-0.109436,0.0656738-0.2110596,0.1368408-0.3001709c0.1204834-0.1508789,0.2750244-0.2573853,0.4440918-0.3441162
	c0.4108887-0.2106934,0.8540039-0.3049927,1.3088379-0.3509521c0.0339966-0.003418,0.0678711-0.0010986,0.1018677-0.0039062
	V6.8412523H2.8309937v1.5328979C2.9539185,8.384038,3.0769653,8.3880663,3.199585,8.4069262
	c0.3652954,0.0561523,0.7202148,0.1479492,1.0505371,0.3187256C4.4188843,8.812871,4.5735474,8.9191942,4.6939697,9.0701952
	C4.7623291,9.1559496,4.800354,9.2545824,4.8296509,9.357976c0,0.0415649,0,0.0831909,0,0.1247559
	c-0.0296631,0.1032104-0.067749,0.2018433-0.1360474,0.2875366c-0.1203613,0.1509399-0.2751465,0.257019-0.4437866,0.3443604
	c-0.3510132,0.1817627-0.7290649,0.2754517-1.1174316,0.3288574c-0.5001831,0.0687866-1.0009766,0.0663452-1.5006104-0.0100708
	c-0.3651733-0.0558472-0.7197266-0.1482544-1.0505371-0.3179321c-0.1383667-0.0709229-0.2668457-0.1566772-0.3771362-0.267334
	C0.0991211,9.7428637,0.0296631,9.6177416,0,9.4713793c0-0.0339966,0-0.0680542,0-0.1020508
	c0.0250244-0.109436,0.0656738-0.2110596,0.1368408-0.3001709c0.1204834-0.1508789,0.2750244-0.2573853,0.4441529-0.3441162
	C0.9918213,8.514348,1.4349365,8.4200487,1.8897705,8.3740892c0.0237427-0.0023804,0.0474854-0.0006714,0.071228-0.0027466
	V6.4072313h0.0050049V5.9722338h4.632019V3.6632736H1.4862745l0.0014123-3.5045166h10.3152914l-0.0094099,3.5045166h-4.325551
	v2.3079836h4.5679932v0.8699951H12.03302v1.5357666c0.1123047,0.0097656,0.2248535,0.0126343,0.3369141,0.0299072
	c0.3652954,0.0561523,0.7202148,0.1479492,1.0505371,0.3187256c0.1687622,0.0872192,0.3234253,0.1935425,0.4437866,0.3445435
	C13.9326172,9.1559496,13.9706421,9.2545824,14,9.357976z M5.6920166,2.4619796h-3.19104v0.4720459h3.19104V2.4619796z
	 M5.6920166,1.6749924h-3.19104v0.4719847h3.19104V1.6749924z M5.6920166,0.8880051h-3.19104V1.35999h3.19104V0.8880051z
	 M13.5601196,12.5657396c-0.3031616,0.1904907-0.6395874,0.2943115-0.9873657,0.3629761
	c-0.5206299,0.1028442-1.045166,0.1190796-1.5725708,0.0613403c-0.37323-0.0408936-0.7373047-0.1187134-1.0838013-0.2658691
	c-0.2327881-0.098877-0.4502563-0.222229-0.6124268-0.4244995c-0.0661011-0.0824585-0.1066895-0.1764526-0.133606-0.2774048
	c0,0.2683105,0,0.5366211,0,0.8049316c0.0310059,0.1305542,0.0890503,0.2469482,0.1812134,0.3455811
	c0.1135864,0.121582,0.2490845,0.213501,0.395752,0.2893066c0.3236694,0.1672363,0.6708374,0.2588501,1.0283813,0.3162231
	c0.4179077,0.0670166,0.8383789,0.0789185,1.2593384,0.0432129c0.4804077-0.0407104,0.9486084-0.1353149,1.3827515-0.3571777
	c0.1710205-0.0874023,0.3269653-0.1951904,0.4481201-0.3482056C13.934082,13.0300951,13.97229,12.9314013,14,12.8272142
	c0-0.2683105,0-0.5366211,0-0.8049316C13.9396362,12.2731981,13.7678833,12.4351854,13.5601196,12.5657396z M13.5605469,10.3327684
	c-0.3032227,0.1901855-0.6394653,0.2946777-0.9876099,0.3632812c-0.5246582,0.1033936-1.0529175,0.1195068-1.5841675,0.0600586
	c-0.3694458-0.0413208-0.7299805-0.1185913-1.072937-0.2647095c-0.2327271-0.0991821-0.4505005-0.2220459-0.6123657-0.4248047
	c-0.065979-0.0825806-0.1067505-0.1765747-0.1331177-0.277771c0,0.2683105,0,0.5366211,0,0.8049316
	c0.0407104,0.1917725,0.1513672,0.3381348,0.3007202,0.4581299c0.1333618,0.1071167,0.2824097,0.1882324,0.4393921,0.2549438
	c0.3612061,0.1534424,0.7404175,0.2321777,1.1289062,0.2730103c0.3336182,0.0350342,0.6677856,0.0383911,1.0014038,0.0088501
	c0.4785156-0.0423584,0.9450073-0.1358643,1.3775024-0.3571167c0.1711426-0.0875244,0.3267822-0.1957397,0.4480591-0.3485107
	C13.9346924,10.7970018,13.9727783,10.6981859,14,10.5937548c0-0.2683105,0-0.5366211,0-0.8049316
	C13.9404907,10.040349,13.7683716,10.2024584,13.5605469,10.3327684z M13.4230347,11.5274706
	c-0.3712769,0.1936646-0.7727661,0.2862549-1.1852417,0.338562c-0.317688,0.0402222-0.6362915,0.0509644-0.9557495,0.0320435
	c-0.4738159-0.0280762-0.9373779-0.1069946-1.376709-0.2949829c-0.2255249-0.0964966-0.4356689-0.2173462-0.5949707-0.411377
	c-0.0683594-0.0831909-0.1104126-0.1785278-0.1400146-0.2805176c0,0.2645264,0,0.5290527,0,0.7936401
	c0.0291748,0.1445312,0.0977783,0.2681885,0.2008057,0.3725586c0.111145,0.1126099,0.2412109,0.1995239,0.3814087,0.2713013
	c0.3328247,0.1703491,0.6895142,0.2626343,1.0568237,0.3184814c0.4960938,0.0754395,0.9934692,0.0776978,1.4900513,0.0094604
	c0.3884888-0.0532837,0.7669067-0.1467285,1.1182251-0.328125c0.1670532-0.0863037,0.3206177-0.1911011,0.440979-0.3394775
	C13.9317017,11.9190111,13.9744263,11.8162279,14,11.7048388c0-0.2645874,0-0.5291138,0-0.7936401
	C13.9172363,11.219121,13.6859131,11.3902636,13.4230347,11.5274706z"/>
</svg>
