<?xml version="1.0" encoding="utf-8"?>

<!--
 ~   Copyright 2017, WSO2 Inc. (http://www.wso2.com)
 ~
 ~   Licensed under the Apache License, Version 2.0 (the "License");
 ~   you may not use this file except in compliance with the License.
 ~   You may obtain a copy of the License at
 ~
 ~        http://www.apache.org/licenses/LICENSE-2.0
 ~
 ~   Unless required by applicable law or agreed to in writing, software
 ~   distributed under the License is distributed on an "AS IS" BASIS,
 ~   WITHOUT WARRANTIES OR CONDITIONS OF ANY KIND, either express or implied.
 ~   See the License for the specific language governing permissions and
 ~   limitations under the License.
-->

<svg version="1.1" id="retire" xmlns="http://www.w3.org/2000/svg" xmlns:xlink="http://www.w3.org/1999/xlink" x="0px" y="0px"
	 viewBox="0 0 14 14" style="enable-background:new 0 0 14 14;" xml:space="preserve">
<path d="M7.7287807,6.1352515C7.4058852,5.946187,7.0466666,5.7288761,6.6805458,5.5238934
	C6.4294877,5.3833323,6.1891055,5.2390456,6.0974441,4.9013896C6.0418701,4.9786468,6.0053883,5.0196061,5.9797421,5.066493
	c-0.3251343,0.5944242-0.6263227,1.20046-0.7473459,1.8739576C5.2044892,7.0957518,5.2156763,7.2778082,5.270154,7.4248481
	c0.2699881,0.7287135,0.5636578,1.4486184,0.8407974,2.1747518c0.0480762,0.1259642,0.0823517,0.2674313,0.07974,0.4008923
	c-0.0213571,1.0912104-0.0517459,2.1822529-0.0821013,3.2732725c-0.0118322,0.4252443-0.2799354,0.7128477-0.6619158,0.7194538
	c-0.3939109,0.0068111-0.6865482-0.2800875-0.6788092-0.690217c0.018394-0.9748268,0.0304241-1.9502974,0.0794978-2.9237709
	c0.0205359-0.4073849-0.2130814-0.6867914-0.3632517-1.055728C4.4710412,9.3838854,4.4623952,9.3994484,4.4657826,9.4116783
	c0.1586766,0.5728407,0.0011282,1.0939894-0.2184849,1.6234589c-0.3421597,0.8249245-0.6393194,1.668416-0.9627302,2.5012512
	c-0.1770966,0.4560528-0.6824794,0.6032476-1.052191,0.3169746c-0.2430764-0.1882191-0.3145841-0.4944267-0.1882098-0.8269043
	c0.3380947-0.889492,0.6691208-1.781847,1.0227137-2.6651564c0.0996499-0.2489328,0.1113942-0.4864712,0.0777295-0.7413378
	c-0.1408439-1.0663185-0.2868035-2.132092-0.4125602-3.2002225C2.6581664,5.7922029,2.7151027,5.172339,2.9320369,4.5713172
	c0.3584039-0.9929659,0.9202161-1.8496103,1.7412186-2.514487C4.907752,1.8669263,5.2053289,1.7135493,5.4977489,1.6453879
	c0.5601029-0.1305567,0.996562,0.1938095,1.1397042,0.8102655c0.1099248,0.4734051,0.1786866,0.9563937,0.2648492,1.4352827
	c0.0611882,0.3400886,0.2216325,0.5890081,0.5464525,0.7573726C7.9515553,4.908927,8.4293041,5.2175012,8.9237347,5.4949441
	C9.0323009,5.5558643,9.1643496,5.5932984,9.288887,5.6043596c0.7061138,0.0627146,1.2921209,0.3373475,1.5994606,1.0013514
	c0.1302891,0.2814851,0.1547441,0.6161766,0.2037535,0.9303589c0.2744236,1.7592134,0.5417175,3.5195398,0.8112755,5.2795115
	C11.9407835,13.0598173,12.0745096,14,12.0745096,14h-0.2901955h-0.2705889l-0.2745094-1.7843142
	c0,0-0.0359869,0.0046501-0.1841068,0.0053253c-1.2152319,0.0055456-3.645752,0.0014019-3.645752,0.0014019l-0.2077947,0.0025873
	c0,0-0.1122026,0.9175854-0.1692486,1.2911549C7.0235457,13.5735683,6.9558825,14,6.9558825,14H6.6558824H6.385294
	c0,0,0.2559128-1.6750679,0.3498769-2.3003197c0.2386904-1.5882978,0.4704728-3.1776886,0.7224698-4.7638707
	C7.4995918,6.6717391,7.6292849,6.421608,7.7287807,6.1352515z M7.3145308,11.6441317c1.2969766,0,2.5532746,0,3.8262353,0
	c-0.0054035-0.0688562-0.0061903-0.1253643-0.0147142-0.1806793c-0.2236042-1.4508591-0.4489641-2.9014473-0.6716995-4.3524384
	c-0.0675955-0.4403424-0.4067945-0.7857742-0.8654718-0.8643403c-0.0090809,0.0248132-0.0191498,0.0508733-0.0282021,0.077281
	C9.4105101,6.761992,9.0531731,6.8955731,8.6462622,6.6650581c-0.1184464-0.0671-0.2358427-0.136054-0.3531675-0.2038383
	C8.084692,6.6455922,8.03158,6.8750081,7.9957333,7.1165013c-0.1515112,1.0207496-0.3075471,2.0408273-0.4615064,3.0612149
	C7.4617987,10.6577501,7.390337,11.1379299,7.3145308,11.6441317z M6.6461935,1.3932037
	c-0.0016327,0.7605848,0.6250749,1.3904667,1.3838739,1.390882c0.7713957,0.000422,1.4003181-0.6277373,1.4020348-1.4003309
	c0.001687-0.7595614-0.6263275-1.3851279-1.3891697-1.3837526C7.2574964,0.0014182,6.6478753,0.6094958,6.6461935,1.3932037z"/>
</svg>
