<?xml version="1.0" encoding="utf-8"?>

<!--
 ~   Copyright 2017, WSO2 Inc. (http://www.wso2.com)
 ~
 ~   Licensed under the Apache License, Version 2.0 (the "License");
 ~   you may not use this file except in compliance with the License.
 ~   You may obtain a copy of the License at
 ~
 ~        http://www.apache.org/licenses/LICENSE-2.0
 ~
 ~   Unless required by applicable law or agreed to in writing, software
 ~   distributed under the License is distributed on an "AS IS" BASIS,
 ~   WITHOUT WARRANTIES OR CONDITIONS OF ANY KIND, either express or implied.
 ~   See the License for the specific language governing permissions and
 ~   limitations under the License.
-->

<svg version="1.1" id="settings" xmlns="http://www.w3.org/2000/svg" xmlns:xlink="http://www.w3.org/1999/xlink" x="0px" y="0px"
	 viewBox="0 0 14 14" style="enable-background:new 0 0 14 14;" xml:space="preserve">
<path d="M13.9937134,5.637085l-1.4437256-0.1658936c-0.121521-0.461792-0.303833-0.9026489-0.5353394-1.3167114l0.9111328-1.1466675
	l-1.8659668-1.8752441L9.9202881,2.0237427C9.4850464,1.7684326,9.0200195,1.5739136,8.5321655,1.4420166L8.3671875,0H5.7296877
	l-0.186902,1.4415283c-0.5003662,0.133606-0.9765625,0.3369141-1.4223633,0.600708L2.9393916,1.1343994l-1.8449703,1.895874
	l0.9383541,1.1682739c-0.2309567,0.4174194-0.4061276,0.8615112-0.523193,1.3242798L0,5.703125l0.0054931,2.6454468
	l1.5512695,0.1919556C1.680786,8.9665527,1.8527831,9.3765259,2.0717769,9.7615356l-0.9791867,1.2440186l1.8744503,1.8666382
	l1.2307744-0.9716187c0.3984375,0.2290649,0.8228149,0.4083252,1.2639771,0.5352173l0.1869507,1.5697632L8.2941284,14
	l0.1866455-1.5294189c0.4766235-0.1239014,0.9313354-0.3078613,1.3599854-0.5495605l1.2177734,0.9533691l1.8616943-1.8794556
	L11.9777832,9.805542c0.242981-0.4209595,0.4329834-0.8690186,0.559021-1.3389893l1.4569092-0.1882915V5.637085z
	 M7.0062866,9.7576799c-1.5199413,0-2.7521257-1.2321844-2.7521257-2.7521257s1.2321844-2.7521257,2.7521257-2.7521257
	s2.7521257,1.2321844,2.7521257,2.7521257S8.526228,9.7576799,7.0062866,9.7576799z"/>
</svg>
