<?xml version="1.0" encoding="utf-8"?>

<!--
 ~   Copyright 2017, WSO2 Inc. (http://www.wso2.com)
 ~
 ~   Licensed under the Apache License, Version 2.0 (the "License");
 ~   you may not use this file except in compliance with the License.
 ~   You may obtain a copy of the License at
 ~
 ~        http://www.apache.org/licenses/LICENSE-2.0
 ~
 ~   Unless required by applicable law or agreed to in writing, software
 ~   distributed under the License is distributed on an "AS IS" BASIS,
 ~   WITHOUT WARRANTIES OR CONDITIONS OF ANY KIND, either express or implied.
 ~   See the License for the specific language governing permissions and
 ~   limitations under the License.
-->

<svg version="1.1" id="usb-drive" xmlns="http://www.w3.org/2000/svg" xmlns:xlink="http://www.w3.org/1999/xlink" x="0px" y="0px"
	 viewBox="0 0 14 14" style="enable-background:new 0 0 14 14;" xml:space="preserve">
<path d="M10.7000122,5.2000122V9H14V5.2000122H10.7000122z M13.5,8.2999878h-0.7000122v-0.5H13.5V8.2999878z M13.5,6.4000244
	h-0.7000122v-0.5H13.5V6.4000244z M0,9.7000122h10.0999756V4.2999878H0V9.7000122z M1.8499756,6.2800293
	c0.3600464,0,0.6600342,0.25,0.7300415,0.5899658H2.960022c0.0700073-0.0299683,0.1599731-0.0700073,0.1999512-0.0999756
	c0.1600342-0.1100464,0.3200073-0.2200317,0.460022-0.3500366c0.2700195-0.2699585,0.4899902-0.6799927,0.8900146-0.7699585
	h0.0100098h0.7600098c0.0599976-0.2200317,0.25-0.3699951,0.4799805-0.3699951c0.2700195,0,0.4799805,0.2199707,0.4799805,0.4899902
	C6.2399902,6.039978,6.0300293,6.25,5.7600098,6.25c-0.2200317,0-0.4100342-0.1400146-0.4700317-0.3400269H4.5599976
	C4.5300293,5.9199829,4.5,5.9299927,4.4699707,5.9500122c-0.0699463,0.039978-0.1699829,0.1099854-0.2799683,0.2199707
	C4.1099854,6.2700195,3.9899902,6.4099731,3.8499756,6.5599976C3.75,6.6699829,3.6500244,6.7800293,3.539978,6.8699951h4.4700317
	v-0.289978L8.5,6.7999878L9,7.0200195L8.5,7.2399902L8.0100098,7.460022V7.1699829H4.6799927
	C4.7299805,7.210022,4.7800293,7.25,4.8300171,7.3099976C5,7.5,5.1500244,7.7000122,5.2299805,7.7999878
	c0.1100464,0.1500244,0.3500366,0.3300171,0.4400024,0.3900146h0.710022V7.7999878h1v1.0100098h-1V8.460022
	c0-0.0100098-0.6099854,0.0099487-0.6600342,0c-0.3099976-0.0100098-0.5199585-0.2700195-0.6999512-0.5
	C4.8499756,7.75,4.7000122,7.5300293,4.4699707,7.3699951C4.3599854,7.2999878,4.1500244,7.1699829,4.0100098,7.1699829H2.5800171
	C2.5100098,7.5,2.210022,7.7600098,1.8499756,7.7600098c-0.3999634,0-0.7399902-0.3300171-0.7399902-0.7399902
	C1.1099854,6.6099854,1.4500122,6.2800293,1.8499756,6.2800293z"/>
</svg>
