<?xml version="1.0" encoding="utf-8"?>

<!--
 ~   Copyright 2017, WSO2 Inc. (http://www.wso2.com)
 ~
 ~   Licensed under the Apache License, Version 2.0 (the "License");
 ~   you may not use this file except in compliance with the License.
 ~   You may obtain a copy of the License at
 ~
 ~        http://www.apache.org/licenses/LICENSE-2.0
 ~
 ~   Unless required by applicable law or agreed to in writing, software
 ~   distributed under the License is distributed on an "AS IS" BASIS,
 ~   WITHOUT WARRANTIES OR CONDITIONS OF ANY KIND, either express or implied.
 ~   See the License for the specific language governing permissions and
 ~   limitations under the License.
-->

<svg version="1.1" id="wsdl" xmlns="http://www.w3.org/2000/svg" xmlns:xlink="http://www.w3.org/1999/xlink" x="0px" y="0px"
	 viewBox="0 0 14 14" style="enable-background:new 0 0 14 14;" xml:space="preserve">
<path d="M12.0700073,5.2000122V2.9699707L8.9899902,0H1.9299927v5.2000122H0.9500122V9.5h0.9799805V14h10.1400146V9.5h0.9799805
	V5.2000122H12.0700073z M11.6400146,8.5499878h-1.6099854V6.2800293h0.4599609v1.8899536h1.1500244V8.5499878z M2.6799927,0.75
	h6.0800171v2.5599976h2.5599976v1.8900146H2.6799927V0.75z M9.6199951,7.4299927
	c0,0.1900024-0.0200195,0.3500366-0.0700073,0.4899902C9.5,8.0800171,9.4199829,8.2199707,9.3099976,8.3200073
	C9.2299805,8.4000244,9.1199951,8.460022,8.9799805,8.5C8.8800049,8.539978,8.75,8.5499878,8.5800171,8.5499878H7.710022v-2.289978
	h0.8399658c0.1900024,0,0.3400269,0.0200195,0.4400024,0.0499878c0.1300049,0.039978,0.25,0.1099854,0.3400269,0.210022
	C9.4299927,6.6199951,9.5,6.7399902,9.5499878,6.8900146C9.5999756,7.0300293,9.6199951,7.210022,9.6199951,7.4299927z
	 M6.8099976,7.75C6.7800293,7.710022,6.7199707,7.6799927,6.6400146,7.6500244
	C6.5900269,7.6300049,6.460022,7.5999756,6.2700195,7.5499878C6.0200195,7.4899902,5.8499756,7.4099731,5.75,7.3200073
	C5.6099854,7.2000122,5.539978,7.039978,5.539978,6.8599854c0-0.1099854,0.0300293-0.2199707,0.1000366-0.3299561
	c0.0599976-0.1000366,0.1599731-0.1700439,0.2799683-0.2300415C6.0499878,6.25,6.2000122,6.2199707,6.3699951,6.2199707
	c0.289978,0,0.5100098,0.0700073,0.6500244,0.1900024C7.1699829,6.539978,7.25,6.710022,7.25,6.9199829L6.789978,6.9400024
	c-0.0199585-0.1199951-0.0599976-0.210022-0.1300049-0.2600098C6.5999756,6.6300049,6.5,6.6099854,6.3699951,6.6099854
	c-0.1400146,0-0.2399902,0.0200195-0.3200073,0.0800171C6,6.7199707,5.9799805,6.7700195,5.9799805,6.8300171
	c0,0.0499878,0.0200195,0.0999756,0.0700073,0.1399536C6.1099854,7.0200195,6.25,7.0700073,6.4699707,7.1199951
	c0.2300415,0.0599976,0.3900146,0.1099854,0.5,0.1699829c0.1100464,0.0500488,0.2000122,0.1300049,0.2600098,0.2300415
	C7.289978,7.6199951,7.3200073,7.7399902,7.3200073,7.8800049S7.2800293,8.1400146,7.210022,8.25
	C7.1400146,8.3699951,7.0300293,8.4500122,6.9000244,8.5100098c-0.1300049,0.0499878-0.3000488,0.0800171-0.5,0.0800171
	c-0.2900391,0-0.5100098-0.0599976-0.6700439-0.2000122c-0.1499634-0.1300049-0.25-0.3300171-0.2799683-0.5800171
	l0.4500122-0.0499878c0.0299683,0.1499634,0.0899658,0.2700195,0.1699829,0.3399658
	c0.0800171,0.0700073,0.1900024,0.1000366,0.3300171,0.1000366c0.1499634,0,0.2699585-0.0300293,0.3399658-0.0900269
	C6.8200073,8.039978,6.8499756,7.9699707,6.8499756,7.8900146C6.8499756,7.8300171,6.8400269,7.789978,6.8099976,7.75z
	 M5.3400269,6.2600098l-0.5599976,2.289978H4.289978L3.8300171,6.8400269L3.3800049,8.5499878h-0.5L2.6799927,7.7199707
	L2.3300171,6.2600098h0.4699707l0.3500366,1.5700073l0.4199829-1.5700073h0.5499878l0.4000244,1.5999756l0.3499756-1.5999756
	H5.3400269z M11.3200073,13.25H2.6799927V9.5h8.6400146V13.25z M10.7399902,11.710022l-1.5,0.7999878v-0.4500122l1-0.5l-1-0.4500122
	V10.710022l1.5,0.6999512V11.710022z M8.539978,12.6099854H8.1400146l0.5999756-2.3999634h0.4000244L8.539978,12.6099854z
	 M9.0999756,7c0.0300293,0.0999756,0.0500488,0.2299805,0.0500488,0.4099731c0,0.1700439-0.0200195,0.3200073-0.0500488,0.4200439
	C9.0700073,7.9299927,9.0300293,8,8.9799805,8.0499878C8.9299927,8.0900269,8.8699951,8.1199951,8.789978,8.1400146
	C8.7399902,8.1599731,8.6400146,8.1699829,8.5100098,8.1699829H8.1699829V6.6500244h0.210022
	c0.1799927,0,0.3099976,0.0099487,0.3699951,0.0199585c0.0900269,0.0200195,0.1599731,0.0599976,0.2199707,0.1100464
	C9.0300293,6.8300171,9.0700073,6.9099731,9.0999756,7z M7.9400024,12.5100098l-1.5-0.7999878v-0.3000488l1.5-0.6999512v0.3999634
	l-1,0.4500122l1,0.5V12.5100098z"/>
</svg>
