<?xml version="1.0" encoding="utf-8"?>

<!--
 ~   Copyright 2017, WSO2 Inc. (http://www.wso2.com)
 ~
 ~   Licensed under the Apache License, Version 2.0 (the "License");
 ~   you may not use this file except in compliance with the License.
 ~   You may obtain a copy of the License at
 ~
 ~        http://www.apache.org/licenses/LICENSE-2.0
 ~
 ~   Unless required by applicable law or agreed to in writing, software
 ~   distributed under the License is distributed on an "AS IS" BASIS,
 ~   WITHOUT WARRANTIES OR CONDITIONS OF ANY KIND, either express or implied.
 ~   See the License for the specific language governing permissions and
 ~   limitations under the License.
-->

<svg version="1.1" id="xslt" xmlns="http://www.w3.org/2000/svg" xmlns:xlink="http://www.w3.org/1999/xlink" x="0px" y="0px"
	 viewBox="0 0 14 14" style="enable-background:new 0 0 14 14;" xml:space="preserve">
<path d="M10.7399902,11.710022l-1.5,0.7999878v-0.4500122l1-0.5l-1-0.4500122V10.710022l1.5,0.6999512V11.710022z
	 M9.1400146,10.210022H8.7399902l-0.5999756,2.3999634H8.539978L9.1400146,10.210022z M7.9400024,12.0599976l-1-0.5l1-0.4500122
	V10.710022l-1.5,0.6999512v0.3000488l1.5,0.7999878V12.0599976z M13.0499878,5.2000122V9.5h-0.9799805V14H1.9299927V9.5H1.8499756
	H0.9500122V5.2000122h0.8999634h0.0800171V0h7.0599976l3.0800171,2.9699707v2.2300415H13.0499878z M11.3200073,9.5H2.6799927v3.75
	h8.6400146V9.5z M3.8099976,7.3599854L3.0300293,8.5499878h0.5499878l0.5100098-0.789978l0.5099487,0.789978h0.5599976
	L4.3800049,7.3699951l0.710022-1.1099854H4.5499878L4.0999756,7L3.6400146,6.2600098H3.0999756L3.8099976,7.3599854z
	 M6.6799927,7.8900146c0,0.0799561-0.039978,0.1499634-0.1099854,0.2199707
	C6.4899902,8.1699829,6.3800049,8.2000122,6.2299805,8.2000122c-0.1399536,0-0.25-0.0300293-0.3299561-0.1000366
	C5.8099976,8.0300293,5.7600098,7.9099731,5.7299805,7.7600098L5.2800293,7.8099976
	c0.0299683,0.25,0.1199951,0.4500122,0.2799683,0.5800171C5.710022,8.5300293,5.9400024,8.5900269,6.2299805,8.5900269
	c0.1900024,0,0.3600464-0.0300293,0.4899902-0.0800171C6.8599854,8.4500122,6.960022,8.3699951,7.0300293,8.25
	c0.0799561-0.1099854,0.1099854-0.2299805,0.1099854-0.3699951S7.1099854,7.6199951,7.0499878,7.5200195
	c-0.0599976-0.1000366-0.1400146-0.1799927-0.25-0.2300415c-0.1099854-0.0599976-0.2799683-0.1099854-0.5-0.1699829
	C6.0700073,7.0700073,5.9299927,7.0200195,5.8699951,6.9699707c-0.039978-0.039978-0.0599976-0.0899658-0.0599976-0.1399536
	c0-0.0599976,0.0200195-0.1100464,0.0700073-0.1400146c0.0700073-0.0599976,0.1799927-0.0800171,0.3099976-0.0800171
	s0.2299805,0.0200195,0.2999878,0.0700073c0.0599976,0.0499878,0.1099854,0.1400146,0.1199951,0.2600098l0.4700317-0.0200195
	C7.0700073,6.710022,6.9899902,6.539978,6.8499756,6.4099731C6.7000122,6.289978,6.4899902,6.2199707,6.2000122,6.2199707
	C6.0200195,6.2199707,5.8699951,6.25,5.75,6.2999878C5.6199951,6.3599854,5.5300293,6.4299927,5.460022,6.5300293
	C5.4000244,6.6400146,5.3599854,6.75,5.3599854,6.8599854c0,0.1799927,0.0700073,0.3400269,0.210022,0.460022
	c0.0999756,0.0899658,0.2799683,0.1699829,0.5299683,0.2299805C6.289978,7.5999756,6.4099731,7.6300049,6.4699707,7.6500244
	C6.5499878,7.6799927,6.5999756,7.710022,6.6300049,7.75C6.6599731,7.789978,6.6799927,7.8300171,6.6799927,7.8900146z
	 M8.0100098,8.1699829V6.2800293H7.539978v2.2699585h1.6199951V8.1699829H8.0100098z M9.7600098,6.6500244v1.8999634h0.4699707
	V6.6500244h0.6700439V6.2600098H9.0800171v0.3900146H9.7600098z M11.3200073,3.3099976H8.7600098V0.75H2.6799927v4.4500122
	h8.6400146V3.3099976z"/>
</svg>
