<?xml version="1.0" encoding="utf-8"?>

<!--
 ~   Copyright (c) WSO2 Inc. (http://wso2.com) All Rights Reserved.
 ~
 ~   Licensed under the Apache License, Version 2.0 (the "License");
 ~   you may not use this file except in compliance with the License.
 ~   You may obtain a copy of the License at
 ~
 ~        http://www.apache.org/licenses/LICENSE-2.0
 ~
 ~   Unless required by applicable law or agreed to in writing, software
 ~   distributed under the License is distributed on an "AS IS" BASIS,
 ~   WITHOUT WARRANTIES OR CONDITIONS OF ANY KIND, either express or implied.
 ~   See the License for the specific language governing permissions and
 ~   limitations under the License.
-->

<svg version="1.1" id="break" xmlns="http://www.w3.org/2000/svg" xmlns:xlink="http://www.w3.org/1999/xlink" x="0px" y="0px"
	 viewBox="0 0 14 14" style="enable-background:new 0 0 14 14;" xml:space="preserve">
<path d="M9.0782499,2.6171265C9.5791044,2.6187134,9.7277403,2.6209717,10.1729307,2.62323
	c0.7333984,0.0045776,1.1763306,0.4528198,1.1786499,1.1625977c0.0053101,1.8701172,0.0022583,3.2606812,0.0022583,3.3521118
	h1.2075806l-1.9143066,1.7938843L8.6573668,7.1379395h1.2159424V3.9200439H8.5606108L9.0782499,2.6171265z M9.8367491,9.3030396
	v0.8279419H7.4680667l-0.5922852,1.3051758c1.2875972,0.0007935,2.1383967-0.0022583,3.2377009-0.0083618
	c0.5892944-0.0030518,1.0909424-0.3781738,1.1442871-0.869873c0.0450439-0.4108887,0.0098877-0.8294678,0.0098877-1.2548828
	H9.8367491z M6.9046817,6.630249L9.5394468,0L4.8044009,8.9714355l2.2390747-1.3554688L4.9919009,14l3.8858027-8.5636597
	L6.9046817,6.630249z M4.0237002,4.7487183V3.9200439h2.8520813l0.6884155-1.3043823
	C6.1393313,2.6140747,4.9735904,2.6171265,3.7461734,2.62323C3.15694,2.6270142,2.655292,3.0021362,2.6019473,3.4938965
	C2.5569034,3.9047852,2.592792,4.3233032,2.592792,4.7487183H4.0237002z M5.6407046,10.1309814H3.9863467V7.0327759h1.2350464
	L3.212543,5.1199951L1.4385561,7.0327759h1.0680543c0,1.7297974-0.0037842,1.4057617,0.0023193,3.2331543
	c0.0022583,0.7097778,0.4451904,1.15802,1.1777954,1.1625977c0.5809326,0.0031128,0.8683472,0.0053711,1.534668,0.0061035
	L5.6407046,10.1309814z"/>
</svg>
