<?xml version="1.0" encoding="utf-8"?>

<!--
 ~   Copyright (c) WSO2 Inc. (http://wso2.com) All Rights Reserved.
 ~
 ~   Licensed under the Apache License, Version 2.0 (the "License");
 ~   you may not use this file except in compliance with the License.
 ~   You may obtain a copy of the License at
 ~
 ~        http://www.apache.org/licenses/LICENSE-2.0
 ~
 ~   Unless required by applicable law or agreed to in writing, software
 ~   distributed under the License is distributed on an "AS IS" BASIS,
 ~   WITHOUT WARRANTIES OR CONDITIONS OF ANY KIND, either express or implied.
 ~   See the License for the specific language governing permissions and
 ~   limitations under the License.
-->

<svg version="1.1" id="code-view" xmlns="http://www.w3.org/2000/svg" xmlns:xlink="http://www.w3.org/1999/xlink" x="0px" y="0px"
	 viewBox="0 0 14 14" style="enable-background:new 0 0 14 14;" xml:space="preserve">
<path d="M0.936825,3.1430085c0,0.4081316,0.0548458,0.7890873,0.1180913,1.2327945
	c0.0583044,0.4056611,0.1131502,0.7890873,0.1131502,1.174984c0,0.4120846-0.0706571,0.8142867-0.9150844,0.8142867H0v1.2416887
	h0.2529823c0.8063811,0,0.9150845,0.4115901,0.9150845,0.8142867c0,0.3695908-0.0548458,0.7372055-0.1126561,1.1295261
	C1.0025411,9.906332,0.936825,10.3480625,0.936825,10.7710171c0,1.4368601,0.8325686,2.2284184,2.344039,2.2284184h0.5563633
	v-1.2994986h-0.512882c-0.6294911,0-0.8864262-0.289547-0.8864262-1.0010595c0-0.3201799,0.0390344-0.6304789,0.0978329-0.9961176
	c0.0726337-0.4348135,0.1047506-0.7856283,0.1047506-1.1344671c0.0113642-0.7337475-0.232724-1.2812171-0.698172-1.5920095
	c0.3893555-0.2584176,0.7115127-0.72683,0.698172-1.5697751c0-0.4259191-0.0503988-0.7974868-0.1047506-1.1369376
	c-0.0667043-0.4002261-0.0978329-0.712501-0.0978329-0.9827771c0-0.7194183,0.2401354-0.9872239,0.8864262-0.9872239h0.512882
	V1.0005647H3.280864C1.7911344,1.0005647,0.936825,1.7812523,0.936825,3.1430085z M13.7470179,6.3650737
	c-0.8439331,0-0.9150848-0.4022021-0.9150848-0.8142867c0-0.3789792,0.0533638-0.7559819,0.1106796-1.15522l0.0108709-0.0780687
	c0.0563278-0.3972611,0.1096916-0.7722876,0.1096916-1.1744897c0-1.3617562-0.859745-2.1424437-2.3588619-2.1424437h-0.5415411
	v1.2990048h0.5089293c0.6403618,0.0108705,0.8893909,0.2875698,0.8893909,0.9872239
	c0,0.2450767-0.0335989,0.5010235-0.0691748,0.7717936l-0.0306339,0.2337117
	c-0.0573168,0.3503213-0.1156216,0.712501-0.1156216,1.1142092c0,0.8434391,0.3221579,1.3113575,0.7065716,1.5697751
	c-0.4595184,0.3102984-0.7065716,0.8567796-0.7065716,1.5880566c0,0.3972616,0.0563288,0.7658644,0.1175976,1.1265621
	l0.0326109,0.2579231c0.0335989,0.2589111,0.0652218,0.5039883,0.0652218,0.7500525
	c0,0.6996546-0.2618761,0.9901886-0.8992729,1.0010595h-0.4990473v1.2994986h0.5563641
	c1.5119638,0,2.344039-0.7915583,2.344039-2.2284184c0-0.4160376-0.0632458-0.8429451-0.1215506-1.2421827
	c-0.0563278-0.3824377-0.1096916-0.7441235-0.1096916-1.1077852c0-0.4026966,0.1087036-0.8142867,0.9150848-0.8142867H14V6.3650737
	H13.7470179z M3.8372273,5.0503302h6.3255448V5.466898H3.8372273V5.0503302z M3.8372273,3.3796608h6.3255448v0.4165678H3.8372273
	V3.3796608z M3.8372273,6.7209992h6.3255448V7.137567H3.8372273V6.7209992z M3.8372273,10.0623379h6.3255448v0.4165678H3.8372273
	V10.0623379z M3.8372273,8.3916683h6.3255448v0.4165678H3.8372273V8.3916683z"/>
</svg>
