<?xml version="1.0" encoding="utf-8"?>

<!--
 ~   Copyright (c) WSO2 Inc. (http://wso2.com) All Rights Reserved.
 ~
 ~   Licensed under the Apache License, Version 2.0 (the "License");
 ~   you may not use this file except in compliance with the License.
 ~   You may obtain a copy of the License at
 ~
 ~        http://www.apache.org/licenses/LICENSE-2.0
 ~
 ~   Unless required by applicable law or agreed to in writing, software
 ~   distributed under the License is distributed on an "AS IS" BASIS,
 ~   WITHOUT WARRANTIES OR CONDITIONS OF ANY KIND, either express or implied.
 ~   See the License for the specific language governing permissions and
 ~   limitations under the License.
-->

<svg version="1.1" id="endpoint" xmlns="http://www.w3.org/2000/svg" xmlns:xlink="http://www.w3.org/1999/xlink" x="0px" y="0px"
	 viewBox="0 0 14 14" style="enable-background:new 0 0 14 14;" xml:space="preserve">
<style type="text/css">
	.st0{fill:#16A085;}
</style>
<path class="st0" d="M14,7.0008035C14,10.8662701,10.8662701,14,7.0008035,14S0.001617,10.8662701,0.001617,7.0008035
	c0-1.4295568,0.4280546-2.7573571,1.1630245-3.8654661c0.0678506,0.0646169,1.0111939,0.9288106,1.3342582,1.2228003
	C2.4859743,4.379138,2.4730489,4.4001379,2.4617503,4.4211378C2.4310589,4.4728293,2.4019842,4.5245209,2.3745167,4.5778193
	C2.2711337,4.7765107,2.1790688,4.9816499,2.1015365,5.1932569c-0.208383,0.563746-0.3230646,1.1727262-0.3230646,1.8075466
	v0.0258503c0.0145324,2.8688054,2.3502827,5.1964908,5.2223315,5.1964908c2.8801236,0,5.2223411-2.3422174,5.2223411-5.2223411
	c0-2.7718897-2.1693773-5.0462666-4.8992763-5.2142568c-0.106607-0.0064677-0.2148414-0.0096915-0.3230648-0.0096915
	c-0.407064,0-0.8044276,0.0468408-1.1856513,0.1356816C5.4694805,1.9933027,5.1367245,2.1079943,4.820118,2.2533772
	C4.7587347,2.2824519,4.6973515,2.3115265,4.6375856,2.3438349c-0.001617,0-0.001617,0-0.0032339,0.0016072L3.3227103,1.0434922
	C4.3920531,0.3812138,5.6520128,0,7.0008035,0C10.8662701,0,14,3.1337204,14,7.0008035z M2.8623474,7.0266538
	c-0.001617,0.0210004-0.001617,0.0403829-0.001617,0.0613832c0,2.2856765,1.8543875,4.1384463,4.1400728,4.1384463
	s4.1400733-1.8527699,4.1400733-4.1384463c0-2.1790786-1.6815567-3.9623914-3.8170085-4.1271577V4.747426
	c1.1501088,0.1566911,2.040153,1.1468854,2.040153,2.3406105c0,1.3019505-1.0596514,2.3616009-2.3632178,2.3616009
	S4.6375856,8.389987,4.6375856,7.0880365c0-0.0210004,0-0.0403829,0.001617-0.0613832
	C4.6392026,7.0266533,2.8623474,7.0266533,2.8623474,7.0266538z M7.3238683,7.0266538H5.8506947
	c0.0452237,0.6622782,0.5960541,1.1856418,1.2696409,1.1856418c0.7042785,0,1.2744923-0.5702038,1.2744923-1.2744823
	c0-0.6332135-0.4635968-1.1598105-1.0709596-1.2567258V7.0266538z M4.6182022,5.0543413L2.5861235,5.0624161v0.9950442h3.7685509
	V2.3971336H5.3047147v1.9642379L1.0031091,0H0v0.5296875L4.6182022,5.0543413z"/>
</svg>
