<?xml version="1.0" encoding="utf-8"?>
<!--
 ~   Copyright (c) WSO2 Inc. (http://wso2.com) All Rights Reserved.
 ~
 ~   Licensed under the Apache License, Version 2.0 (the "License");
 ~   you may not use this file except in compliance with the License.
 ~   You may obtain a copy of the License at
 ~
 ~        http://www.apache.org/licenses/LICENSE-2.0
 ~
 ~   Unless required by applicable law or agreed to in writing, software
 ~   distributed under the License is distributed on an "AS IS" BASIS,
 ~   WITHOUT WARRANTIES OR CONDITIONS OF ANY KIND, either express or implied.
 ~   See the License for the specific language governing permissions and
 ~   limitations under the License.
-->
<svg version="1.1" id="http-connector" xmlns="http://www.w3.org/2000/svg" xmlns:xlink="http://www.w3.org/1999/xlink" x="0px"
	 y="0px" viewBox="0 0 14 14" style="enable-background:new 0 0 14 14;" xml:space="preserve">
<path d="M13.6149902,3.1179199H0.3850098C0.1723633,3.1179199,0,3.2903442,0,3.5029907v6.9940186
	c0,0.2126465,0.1723633,0.3850098,0.3850098,0.3850098h13.2299805C13.8276367,10.882019,14,10.7096558,14,10.4970093V3.5029907
	C14,3.2903442,13.8276367,3.1179199,13.6149902,3.1179199z M13.5,10.382019h-13V3.6179199h13V10.382019z M1.8442383,8.6690674
	H1.2587891l0.9516602-4.6286621h0.5854492L2.3725586,6.074585h0.0141602
	c0.2890625-0.3847046,0.7050781-0.6326294,1.2197266-0.6326294c0.3876953,0,0.8457031,0.2216797,0.8457031,0.8475342
	c0,0.1697998-0.0209961,0.3716431-0.0561523,0.5346069L4.0151367,8.6690674H3.4301758l0.3808594-1.8187866
	c0.0209961-0.1173706,0.0419922-0.2609863,0.0419922-0.4366455c0-0.293457-0.1479492-0.5214844-0.5288086-0.5214844
	c-0.4511719,0-1.0219727,0.4885254-1.1630859,1.1992798L1.8442383,8.6690674z M5.7163086,5.9377441H5.2226562l0.0917969-0.4240112
	h0.4863281l0.1484375-0.7102661l0.605957-0.1372681L6.3789062,5.5137329h0.8178711L7.1049805,5.9377441H6.2875977
	L5.9702148,7.4697876C5.9350586,7.6459351,5.9067383,7.8084717,5.9067383,7.9782104
	c0,0.1887817,0.0986328,0.2998657,0.3242188,0.2998657c0.0986328,0,0.1972656-0.0063477,0.2749023-0.0198975L6.4775391,8.6817017
	C6.3720703,8.7214966,6.1958008,8.7404175,6.0263672,8.7404175c-0.5214844,0-0.71875-0.2926025-0.71875-0.6122437
	c0-0.1824341,0.0209961-0.3648682,0.0703125-0.5933228L5.7163086,5.9377441z M7.9243164,5.9377441H7.4306641l0.0917969-0.4240112
	h0.4863281l0.1484375-0.7102661l0.6064453-0.1372681L8.5869141,5.5137329h0.8183594L9.3134766,5.9377441H8.4951172
	L8.1782227,7.4697876C8.1430664,7.6459351,8.1147461,7.8084717,8.1147461,7.9782104
	c0,0.1887817,0.0986328,0.2998657,0.324707,0.2998657c0.0986328,0,0.1972656-0.0063477,0.2744141-0.0198975L8.6855469,8.6817017
	C8.5800781,8.7214966,8.4033203,8.7404175,8.234375,8.7404175c-0.5214844,0-0.71875-0.2926025-0.71875-0.6122437
	c0-0.1824341,0.0209961-0.3648682,0.0703125-0.5933228L7.9243164,5.9377441z M9.7167969,9.9595947l0.2744141-1.3618774h0.0146484
	c0.1337891,0.0713501,0.3730469,0.1427002,0.7402344,0.1427002c1.1347656,0,1.9951172-1.0493774,1.9951172-2.1574097
	c0-0.5802612-0.3105469-1.1410522-1.0507812-1.1410522c-0.4658203,0-0.9169922,0.2542114-1.2265625,0.6651001h-0.0146484
	l0.0986328-0.5933228h-0.5351562C9.9628906,5.8334351,9.8925781,6.256958,9.8222656,6.635376L9.1386719,9.9595947H9.7167969z
	 M10.2666016,7.2611694c0.1757812-0.8804932,0.7539062-1.3690186,1.2119141-1.3690186
	c0.4941406,0,0.65625,0.3973389,0.65625,0.7301025c0,0.8276978-0.6347656,1.6946411-1.3886719,1.6946411
	c-0.2753906,0-0.5009766-0.0650024-0.6494141-0.1760864L10.2666016,7.2611694z"/>
</svg>
