<?xml version="1.0" encoding="utf-8"?>

<!--
 ~   Copyright (c) WSO2 Inc. (http://wso2.com) All Rights Reserved.
 ~
 ~   Licensed under the Apache License, Version 2.0 (the "License");
 ~   you may not use this file except in compliance with the License.
 ~   You may obtain a copy of the License at
 ~
 ~        http://www.apache.org/licenses/LICENSE-2.0
 ~
 ~   Unless required by applicable law or agreed to in writing, software
 ~   distributed under the License is distributed on an "AS IS" BASIS,
 ~   WITHOUT WARRANTIES OR CONDITIONS OF ANY KIND, either express or implied.
 ~   See the License for the specific language governing permissions and
 ~   limitations under the License.
-->

<svg version="1.1" id="logical" xmlns="http://www.w3.org/2000/svg" xmlns:xlink="http://www.w3.org/1999/xlink" x="0px" y="0px"
	 viewBox="0 0 14 14" style="enable-background:new 0 0 14 14;" xml:space="preserve">
<path d="M13.8886347,10.7181044c-0.0486555-0.1126766-0.1574907-0.188221-0.2804108-0.1959028
	c-0.1113958,0.0076818-0.2394371,0.0563383-0.3021774,0.162612l-0.0627394,0.1075544
	c-0.1754169,0.3060188-0.3265057,0.571064-0.6005135,0.7195921c-0.2804108,0.1498079-0.6235609,0.2266331-1.0204887,0.2266331
	c-0.2829714,0-0.6107569-0.1216393-0.9743948-0.3610764c-0.3380289-0.2215109-0.7003851-0.5172863-1.0793877-0.8809233
	c0.1830997-0.2394381,0.3508329-0.4711924,0.5044832-0.6914234c0.1997442-0.2868118,0.3841238-0.5979528,0.5492964-0.9257383
	c0.4161339-0.8252258,0.6979866-1.7598796,0.8554773-2.6305599c0.1319427-0.8840938,0.0715418-1.1088843-0.0283308-1.2177196
	c-0.0665817-0.074904-0.162612-0.1081948-0.2676058-0.1056342c-0.1984644,0.0153651-0.382844,0.1338034-0.5070438,0.3284259
	c-0.0793858,0.1286817-0.1165171,0.2612042-0.1510887,0.3802824c-0.2355957,0.8201046-0.5326509,1.5589023-0.8834848,2.1959076
	C9.4827347,8.1163063,9.2957945,8.4120817,9.0858068,8.7078571c-0.1562099,0.2202301-0.3341875,0.448144-0.5300903,0.6798983
	C8.1331806,8.9178448,7.7330513,8.4287271,7.364933,7.933207C7.0025759,7.4447298,6.6805525,6.9536915,6.4046235,6.4696956
	c0.2912936-0.139565,0.5819473-0.2816906,0.8687596-0.4257369c0.4090919-0.2035856,0.7797718-0.4347,1.1005144-0.6856613
	c0.3329077-0.2580028,0.6081963-0.5588999,0.8181839-0.8924475c0.2227917-0.3521132,0.3354683-0.7650464,0.3354683-1.2285557
	c0-0.4430227-0.0857878-0.8489134-0.2535219-1.2055082C9.1062937,1.6764714,8.8732586,1.3704528,8.5826054,1.1214125
	C8.2957926,0.877494,7.9539227,0.6886331,7.5665979,0.5612321c-0.8969293-0.2912939-1.9718356-0.2304743-2.7324004,0.108835
	c-0.4366207,0.1965433-0.8073001,0.4635094-1.101795,0.7932155C3.4398282,1.7910683,3.2183168,2.1694303,3.0729899,2.588125
	C2.9308643,2.9997778,2.858521,3.4299963,2.858521,3.8672571c0,0.346992,0.0781052,0.7535229,0.2394371,1.2426405
	C3.2227983,5.4908204,3.3866911,5.905674,3.5857952,6.346776C3.2106345,6.5381975,2.8405952,6.7437038,2.4833601,6.9607339
	C2.0217714,7.2392235,1.6043569,7.5625277,1.2426404,7.9210434c-0.3687589,0.3655577-0.6696558,0.785533-0.8943682,1.2490425
	C0.1171577,9.6425581,0,10.1905746,0,10.79877c0,0.4289389,0.0672217,0.8271465,0.1991041,1.1831017
	c0.1370042,0.3725996,0.3559547,0.6965446,0.6510898,0.9641504c0.2893732,0.2637653,0.6626135,0.4711924,1.1120384,0.6171589
	c0.7452,0.2394371,1.8527569,0.2829714,2.8137064,0.0921898c0.4033303-0.0806656,0.7823324-0.1920614,1.1600537-0.3405895
	c0.3655581-0.1434069,0.7253537-0.3175421,1.0710654-0.5211277c0.2592835-0.1523695,0.5108843-0.3188229,0.7509618-0.4955196
	c0.467351,0.4058905,0.9436636,0.7426386,1.4199772,1.0025625c0.5723448,0.3149815,1.1472502,0.473753,1.7093506,0.473753
	c0.4225368,0,0.8220253-0.0601797,1.1882229-0.1766968c0.7746496-0.2484007,1.2957783-0.6235609,1.5928335-1.1472502
	c0.1306019-0.2317543,0.3085794-0.5505772,0.3277855-0.9180555C14.0077133,11.2994118,13.9987497,10.9690657,13.8886347,10.7181044z
	 M6.0672345,10.4953127c0.18502,0.2432785,0.3783622,0.480155,0.5761857,0.7042265
	c-0.2906537,0.207427-0.5953918,0.389246-0.9097328,0.5416145C5.0608306,12.07022,4.224081,12.1150341,3.6587787,11.8730364
	c-0.2381566-0.0998716-0.4449432-0.2419977-0.6145978-0.4212561c-0.1690145-0.1779766-0.2996166-0.3930864-0.3892455-0.6389256
	c-0.0915494-0.2496805-0.1376443-0.5262489-0.1376443-0.8181839c0-0.2458391,0.0454545-0.4788742,0.1389246-0.7144699
	c0.0953908-0.2407169,0.2298341-0.473752,0.4001291-0.6927032C3.2285602,8.364706,3.4385478,8.1515179,3.6805458,7.9543338
	C3.8463593,7.8205309,4.023056,7.6918492,4.2093563,7.57021C4.3527622,7.8288536,4.5012903,8.0894175,4.65558,8.3506212
	c0.214469,0.3661985,0.4398217,0.7285547,0.6734967,1.0883512C5.5633926,9.8013287,5.8085914,10.1534424,6.0672345,10.4953127z
	 M7.234971,2.0087385c0.1081948,0.1350834,0.1933422,0.298336,0.2548022,0.4891174
	c0.0653009,0.1959033,0.0985913,0.4270177,0.0985913,0.6875815c0,0.2496805-0.0473752,0.4711919-0.145967,0.6786187
	C7.3431659,4.0772448,7.2042413,4.2757087,7.027544,4.4562469C6.8495669,4.6406264,6.6286955,4.8166833,6.3706927,4.9792953
	c-0.181819,0.1152372-0.3719602,0.2279139-0.571064,0.3380289C5.645339,4.9985018,5.519218,4.6771183,5.4225469,4.3563747
	C5.298347,3.9498439,5.2349668,3.5734026,5.2349668,3.2372942c0-0.179898,0.0339308-0.3726001,0.0998721-0.5704238
	c0.0672216-0.1946225,0.161972-0.3751607,0.27913-0.533932C5.7324071,1.9767281,5.8649297,1.8544487,6.018579,1.7596982
	c0.1382847-0.0851474,0.2842517-0.1261206,0.4455838-0.1261206c0.1485276,0,0.2906532,0.0320103,0.4218955,0.0947505
	C7.0192213,1.7923487,7.1370196,1.886459,7.234971,2.0087385z"/>
</svg>
