<?xml version="1.0" encoding="utf-8"?>

<!--
 ~   Copyright (c) WSO2 Inc. (http://wso2.com) All Rights Reserved.
 ~
 ~   Licensed under the Apache License, Version 2.0 (the "License");
 ~   you may not use this file except in compliance with the License.
 ~   You may obtain a copy of the License at
 ~
 ~        http://www.apache.org/licenses/LICENSE-2.0
 ~
 ~   Unless required by applicable law or agreed to in writing, software
 ~   distributed under the License is distributed on an "AS IS" BASIS,
 ~   WITHOUT WARRANTIES OR CONDITIONS OF ANY KIND, either express or implied.
 ~   See the License for the specific language governing permissions and
 ~   limitations under the License.
-->

<svg version="1.1" id="main-function" xmlns="http://www.w3.org/2000/svg" xmlns:xlink="http://www.w3.org/1999/xlink" x="0px"
	 y="0px" viewBox="0 0 14 14" style="enable-background:new 0 0 14 14;" xml:space="preserve">
<path d="M7.5999756,5.9500122L7.2199707,7.4299927c-0.1799927,0.7000122-0.3599854,1.25-0.539978,1.6400146
  	c-0.2600098,0.5499878-0.539978,0.9400024-0.8499756,1.1599731c-0.2399902,0.1700439-0.4899902,0.25-0.7300415,0.25
  	c-0.1799927,0-0.3299561-0.0499878-0.4499512-0.1599731C4.5499878,10.2399902,4.5,10.1300049,4.5,10
  	c0-0.1099854,0.039978-0.210022,0.1300049-0.289978c0.1500244-0.1400146,0.4000244-0.1600342,0.5499878-0.0200195
  	C5.25,9.75,5.2800293,9.8300171,5.2800293,9.9099731c0,0.0500488-0.0100098,0.1100464-0.0500488,0.1800537
  	c0.0599976-0.0100098,0.1199951-0.0400391,0.1900024-0.0800171c0.1000366-0.0499878,0.1900024-0.1400146,0.2700195-0.25
  	C5.7700195,9.6400146,5.8499756,9.460022,5.9299927,9.2299805C5.960022,9.1300049,6.0499878,8.8099976,6.1900024,8.2399902
  	l0.5900269-2.289978H6.1599731l0.1000366-0.4800415h0.0999756c0.2300415,0,0.3300171-0.0199585,0.3800049-0.039978
  	c0.0599976-0.0200195,0.1099854-0.0599976,0.1699829-0.1199951c0.0400391-0.0499878,0.1100464-0.1599731,0.2400513-0.4099731
  	c0.1399536-0.3000488,0.289978-0.5300293,0.4199829-0.7000122C7.7600098,3.9799805,7.960022,3.8099976,8.1699829,3.6900024
  	C8.6099854,3.4500122,9.039978,3.4699707,9.2999878,3.6799927C9.4299927,3.7999878,9.5,3.9299927,9.5,4.0800171
  	c0,0.1099854-0.0300293,0.2099609-0.1099854,0.289978C9.2399902,4.5300293,8.9699707,4.539978,8.8200073,4.4000244
  	C8.75,4.3300171,8.7199707,4.25,8.7199707,4.1599731c0-0.0599976,0.0200195-0.1299438,0.0600586-0.1999512
  	C8.789978,3.9400024,8.7999878,3.9199829,8.7999878,3.9099731c-0.0100098,0-0.0199585,0-0.039978,0
  	c-0.1199951,0-0.2299805,0.0400391-0.3300171,0.1200562C8.2800293,4.1400146,8.1500244,4.3300171,8.0300293,4.5800171
  	C7.9699707,4.710022,7.8699951,5,7.7299805,5.4699707H8.25L8.1199951,5.9500122H7.5999756z M14,6.6500244v0.539978h-0.6300049
  	c-0.0999756,3.4099731-2.7399902,6.1599731-6.0499878,6.2999878V14H6.7700195v-0.5100098
  	c-3.3400269-0.1400146-5.9800415-2.9099731-6.0500488-6.3499756H0V6.5999756h0.7299805
  	C0.9299927,3.25,3.5100098,0.6500244,6.7700195,0.5100098V0h0.5499878v0.5100098
  	c3.289978,0.1400146,5.8599854,2.7600098,6.039978,6.1400146H14z M7.3200073,1.1500244V1.685791
  	c2.6149902,0.1574097,4.7617798,2.30896,4.9354248,4.9642334h0.4545898
  	C12.539978,3.6900024,10.1900024,1.289978,7.3200073,1.1500244z M7.3200073,11.3706055v0.619873
  	c2.5077515-0.1574707,4.4355469-2.1900635,4.5206909-4.8001099h-0.5235596V6.6763306h0.0004883V6.6500244h0.5
  	c-0.1727295-2.5113525-2.0741577-4.4647217-4.4976196-4.6213989v0.6184082H7.2713013v0.0025635L7.2697754,2.6470337H6.7700195
  	V2.0216064L6.7477417,2.0213013c-2.4179688,0.12323-4.3518677,2.0797729-4.5457153,4.5786743H2.711792v0.5400391H2.7114258
  	v0.0028076H2.1688232c0.0666504,2.6083374,2.0657349,4.7216797,4.5789185,4.8549194l0.0222778,0.0003052v-0.6274414H7.270874
  	l0.0004272-0.0011597v0.0011597H7.3200073z M1.3800049,6.5999756h0.3842163
  	c0.2042236-2.6518555,2.3658447-4.7886353,4.9835205-4.9213867l0.0222778-0.0019531V1.1500244
  	C3.9199829,1.289978,1.5800171,3.6599731,1.3800049,6.5999756z M6.7700195,12.8499756v-0.5081787l-0.0222778-0.0013428
  	C3.996582,12.2072144,1.8165894,9.9415283,1.7404785,7.1428223L1.7403564,7.1400146H1.3599854
  	C1.4400024,10.2199707,3.789978,12.7000122,6.7700195,12.8499756z M12.7199707,7.1900024h-0.4506226L12.269043,7.1903687
  	c-0.085083,2.7532349-2.2404175,4.9849243-4.9490356,5.1429443v0.5166626
  	C10.2700195,12.7000122,12.6300049,10.2399902,12.7199707,7.1900024z"/>
</svg>
