<?xml version="1.0" encoding="utf-8"?>

<!--
 ~   Copyright (c) WSO2 Inc. (http://wso2.com) All Rights Reserved.
 ~
 ~   Licensed under the Apache License, Version 2.0 (the "License");
 ~   you may not use this file except in compliance with the License.
 ~   You may obtain a copy of the License at
 ~
 ~        http://www.apache.org/licenses/LICENSE-2.0
 ~
 ~   Unless required by applicable law or agreed to in writing, software
 ~   distributed under the License is distributed on an "AS IS" BASIS,
 ~   WITHOUT WARRANTIES OR CONDITIONS OF ANY KIND, either express or implied.
 ~   See the License for the specific language governing permissions and
 ~   limitations under the License.
-->

<svg version="1.1" id="worker" xmlns="http://www.w3.org/2000/svg" xmlns:xlink="http://www.w3.org/1999/xlink" x="0px" y="0px"
	 viewBox="0 0 14 14" style="enable-background:new 0 0 14 14;" xml:space="preserve">
<path d="M0.8959455,14l-0.0655652-0.0000086c-0.0443746-0.2265959-0.0110937-0.3652668,0.033281-0.5704994
	c0.080509-0.3723545,0.3598369-0.8130245,0.6933535-1.1038189c0.8655084-0.7546396,1.8324765-1.2689104,2.9010344-1.686677
	C5.6272302,10.1818857,5.769536,9.310771,4.9794459,8.5332832C4.1821733,7.7487187,3.9876552,6.6921048,4.0398192,5.5553193
	c2.0283923,0,4.0343423,0,6.0561204,0c0.0252619,1.2241158-0.3032417,2.2811685-1.1189833,3.188766
	C8.8514547,8.8837166,8.7567139,9.020359,8.6914845,9.1528816C8.6262636,9.2854042,8.5905447,9.4137993,8.5831022,9.5369616
	c-0.0024786,0.041049-0.0018196,0.081521,0.0019341,0.1213665c0.0150232,0.1593847,0.0795622,0.3087835,0.19065,0.4455395
	c0.1388683,0.1709385,0.350482,0.3221169,0.6290722,0.4483347c0.9420481,0.4268026,1.8811388,0.8853016,2.7459326,1.446454
	c0.1027517,0.0666761,0.2033253,0.1475306,0.298667,0.2386065c0.286025,0.273243,0.5248985,0.6385298,0.633606,0.9890928
	c0.0194597,0.0627594,0.0362797,0.1243,0.0504494,0.184597c0.0286179,0.1217403,0.0463219,0.2383699,0.0534649,0.3499622
	c0.0034771,0.054244,0.0045662,0.1073427,0.0029898,0.1591568c-0.0006094,0.0201426-0.0034304,0.0734539-0.0039501,0.0772324
	L0.8959455,14z M11.4826908,4.8341393c0.0237417-0.4334893-0.2135229-0.792316-0.4363499-0.9273899
	c-0.0142927-0.0104573-0.0291367-0.019712-0.0448351-0.0271385c-0.4390793-0.2077215-0.4518766-0.5399706-0.5270519-0.8949461
	c-0.2526379-1.1929635-1.0167351-1.8952439-2.2147846-2.33954C8.0700426,1.3610721,7.9007936,2.0000732,7.731545,2.6390824
	C7.6481314,1.9391826,7.6327581,1.2537377,7.6535668,0.5693896C7.6673312,0.1166595,7.4402876,0.001013,7.0406804,0.0000055
	C6.6289582-0.0010264,6.4287362,0.143359,6.4428415,0.5848356c0.0218163,0.6826174,0.005753,1.3664373,0.005753,2.0497537
	C6.4201155,2.6389768,6.3916445,2.6433563,6.3631654,2.6477439c-0.1702642-0.6449325-0.3405285-1.2898651-0.52775-1.9990358
	c-1.2369699,0.4560776-1.9893506,1.193898-2.2387791,2.4153974c-0.0484834,0.2374356-0.1310682,0.573853-0.3015602,0.6603622
	C2.8057094,3.9727669,2.7454364,4.3541331,2.750531,4.8341393C5.6314392,4.8341393,8.4823332,4.8341393,11.4826908,4.8341393z"/>
</svg>
