<?xml version="1.0" encoding="utf-8"?>

<!--
 ~   Copyright 2017, WSO2 Inc. (http://www.wso2.com)
 ~
 ~   Licensed under the Apache License, Version 2.0 (the "License");
 ~   you may not use this file except in compliance with the License.
 ~   You may obtain a copy of the License at
 ~
 ~        http://www.apache.org/licenses/LICENSE-2.0
 ~
 ~   Unless required by applicable law or agreed to in writing, software
 ~   distributed under the License is distributed on an "AS IS" BASIS,
 ~   WITHOUT WARRANTIES OR CONDITIONS OF ANY KIND, either express or implied.
 ~   See the License for the specific language governing permissions and
 ~   limitations under the License.
-->

<svg version="1.1" id="medium" xmlns="http://www.w3.org/2000/svg" xmlns:xlink="http://www.w3.org/1999/xlink" x="0px" y="0px"
	 viewBox="0 0 14 14" style="enable-background:new 0 0 14 14;" xml:space="preserve">
<path d="M14,14H0V0h14V14z M9.9888163,8.8927631V5.2638159c0,0-0.0092106-0.2026315,0.202631-0.2026315h0.4052629V4.1401315
	H7.8796053l-0.930263,3.3250003L6.0467105,4.1401315H3.4032896v0.9394736h0.4421053c0,0,0.1473682-0.0092106,0.1473682,0.1473684
	v3.5828953c0,0.202631-0.2072368,0.2072363-0.2072368,0.2072363H3.4032896V9.859868h2.1552632V9.030921H5.0519738V5.5401316
	L6.249342,9.859868h0.9118423L8.5888157,5.31564v3.715281h-0.617105L7.9625001,9.859868h2.6342101V9.0493422h-0.4144735
	C10.1822367,9.0493422,9.9883823,9.0608282,9.9888163,8.8927631z"/>
</svg>
