<?xml version="1.0" encoding="utf-8"?>

<!--
 ~   Copyright 2017, WSO2 Inc. (http://www.wso2.com)
 ~
 ~   Licensed under the Apache License, Version 2.0 (the "License");
 ~   you may not use this file except in compliance with the License.
 ~   You may obtain a copy of the License at
 ~
 ~        http://www.apache.org/licenses/LICENSE-2.0
 ~
 ~   Unless required by applicable law or agreed to in writing, software
 ~   distributed under the License is distributed on an "AS IS" BASIS,
 ~   WITHOUT WARRANTIES OR CONDITIONS OF ANY KIND, either express or implied.
 ~   See the License for the specific language governing permissions and
 ~   limitations under the License.
-->

<svg version="1.1" id="amazon-web-services" xmlns="http://www.w3.org/2000/svg" xmlns:xlink="http://www.w3.org/1999/xlink"
	 x="0px" y="0px" viewBox="0 0 14 14" style="enable-background:new 0 0 14 14;" xml:space="preserve">
<path d="M7.8161821,5.3636365L6.181818,4.818182V2.4545455L7.818182,2.939394L7.8161821,5.3636365 M8.242424,2.939394
	l1.636364-0.4848485l-0.0056963,2.362L8.242424,5.3636365V2.939394 M9.545455,2.1986063L8.0203638,1.7272727L6.5151515,2.1986063
	l1.5073934,0.4040608L9.545455,2.1986063 M11.9373941,5.3636365L10.30303,4.818182V2.4545455l1.636364,0.4848485
	L11.9373941,5.3636365 M12.363636,2.939394L14,2.4545455l-0.0056963,2.362l-1.6306677,0.547091V2.939394 M13.666667,2.1986063
	l-1.5250912-0.4713335L10.636364,2.1986063l1.5073938,0.4040608L13.666667,2.1986063 M1.6363636,6.3939395L0,5.909091v2.363636
	l1.6343757,0.545455L1.6363636,6.3939395 M2.060606,6.3939395L3.6969697,5.909091L3.6912909,8.2711391L2.060606,8.818182V6.3939395
	 M3.3636363,5.6531515L1.8385395,5.181818L0.3333333,5.6531515l1.5074121,0.4040604L3.3636363,5.6531515 M5.7555881,8.818182
	L4.121212,8.272727V5.909091l1.636364,0.4848485L5.7555881,8.818182 M6.181818,6.3939395L7.818182,5.909091L7.8124852,8.2711391
	L6.181818,8.818182V6.3939395 M7.4848485,5.6531515L5.9597516,5.181818L4.4545455,5.6531515l1.5074124,0.4040604
	L7.4848485,5.6531515 M3.6949818,12.272727L2.060606,11.727273V9.363636l1.6363637,0.484849L3.6949818,12.272727 M4.121212,9.848485
	l1.636364-0.484849l-0.0056791,2.362051l-1.6306849,0.54704V9.848485 M5.4242425,9.1076975L3.8991456,8.636364L2.3939395,9.1076975
	l1.5074122,0.4040661L5.4242425,9.1076975"/>
</svg>
