<?xml version="1.0" encoding="utf-8"?>

<!--
 ~   Copyright 2017, WSO2 Inc. (http://www.wso2.com)
 ~
 ~   Licensed under the Apache License, Version 2.0 (the "License");
 ~   you may not use this file except in compliance with the License.
 ~   You may obtain a copy of the License at
 ~
 ~        http://www.apache.org/licenses/LICENSE-2.0
 ~
 ~   Unless required by applicable law or agreed to in writing, software
 ~   distributed under the License is distributed on an "AS IS" BASIS,
 ~   WITHOUT WARRANTIES OR CONDITIONS OF ANY KIND, either express or implied.
 ~   See the License for the specific language governing permissions and
 ~   limitations under the License.
-->

<svg version="1.1" id="ballerina" xmlns="http://www.w3.org/2000/svg" xmlns:xlink="http://www.w3.org/1999/xlink" x="0px" y="0px"
	 viewBox="0 0 14 14" style="enable-background:new 0 0 14 14;" xml:space="preserve">
<path d="M12.3,8c-0.5-0.6-1.2-1-2-1.3c0.8-0.5,1.4-0.9,1.7-1.4c0.3-0.5,0.5-1,0.5-1.7c0-0.5-0.1-1-0.4-1.5
	c-0.3-0.4-0.6-0.8-1.1-1.1c-0.5-0.3-1.1-0.6-1.7-0.7C8.5,0.1,7.7,0,6.9,0h-6v14h6.9c0.8,0,1.5-0.1,2.2-0.3c0.7-0.2,1.2-0.5,1.7-0.8
	c0.5-0.4,0.8-0.8,1.1-1.2c0.2-0.5,0.4-1,0.4-1.5C13.1,9.3,12.8,8.6,12.3,8z M4.4,1.3h1.3c1.1,0,2,0.2,2.5,0.7c0.5,0.5,0.8,1,0.8,1.8
	c0,0.7-0.2,1.2-0.6,1.7c-0.4,0.4-1,0.6-1.7,0.6H4.4V1.3z M8.7,11.9c-0.5,0.5-1.3,0.7-2.5,0.7H4.4V7.4h1.8c0.6,0,1.1,0.1,1.6,0.2
	c0.4,0.1,0.8,0.3,1,0.6C9,8.5,9.2,8.7,9.3,9.1c0.1,0.3,0.2,0.7,0.2,1.1C9.5,10.9,9.2,11.4,8.7,11.9z"/>
</svg>
