<?xml version="1.0" encoding="utf-8"?>

<!--
 ~   Copyright 2017, WSO2 Inc. (http://www.wso2.com)
 ~
 ~   Licensed under the Apache License, Version 2.0 (the "License");
 ~   you may not use this file except in compliance with the License.
 ~   You may obtain a copy of the License at
 ~
 ~        http://www.apache.org/licenses/LICENSE-2.0
 ~
 ~   Unless required by applicable law or agreed to in writing, software
 ~   distributed under the License is distributed on an "AS IS" BASIS,
 ~   WITHOUT WARRANTIES OR CONDITIONS OF ANY KIND, either express or implied.
 ~   See the License for the specific language governing permissions and
 ~   limitations under the License.
-->

<svg version="1.1" id="jira" xmlns="http://www.w3.org/2000/svg" xmlns:xlink="http://www.w3.org/1999/xlink" x="0px" y="0px"
	 viewBox="0 0 14 14" style="enable-background:new 0 0 14 14;" xml:space="preserve">
<path d="M7.0833383,7.7541771c2.3552909-2.2047243,2.6779332-3.7641637,2.6994433-3.8071826
	c1.3658533-0.1183023,1.957365-0.6345305,1.957365-0.6345305c0.7528324-0.5054734,0.4194355,0.7528327,0.3764162,0.9249089
	c-0.4947186,2.3768005-3.2750521,4.9246516-3.4256182,5.0537086c1.6941032,1.7540503,1.7371216,4.6040602,1.7371216,4.6040602
	s-2.2262335,0-2.2800074,0c0.3979263-1.7315159-2.6456695-4.5062418-2.7317071-4.6352987
	C1.8887926,6.0334167,1.781245,3.6673708,1.781245,3.6404839C1.695207,2.8930285,2.308228,3.2909546,2.3512471,3.3339734
	c0.7420778,0.526983,1.9251006,0.6130211,1.9251006,0.6130211C4.5559711,5.4741693,7.0403194,7.7434225,7.0833383,7.7541771z
	 M5.9030042,14c0,0-0.2984443-0.8792009,0.7259459-2.2584982c-0.4194355-0.5081625-1.6616096-1.8471289-1.6616096-1.8471289
	S3.6203079,11.4188595,3.6041758,14C4.1204038,14,5.9030042,14,5.9030042,14z M8.1615028,4.1190705H5.9036503
	c0,0-0.4899879,0,0,0.7259459c0.04881,0.0723166,0.5239711,0.741755,1.1289258,1.2741151
	c0.6049552-0.5323601,1.0801597-1.2017689,1.1289268-1.2741151C8.6508436,4.1190705,8.1615028,4.1190705,8.1615028,4.1190705z
	 M4.1472907,0.7635875c-0.5523908,0-1.0001919,0.4478012-1.0001919,1.000192s0.4478011,1.000192,1.0001919,1.000192
	s1.0001922-0.4478011,1.0001922-1.000192S4.6996818,0.7635875,4.1472907,0.7635875z M7.1263576,0
	C6.5739665,0,6.1261654,0.4478012,6.1261654,1.000192s0.4478011,1.000192,1.0001922,1.000192
	s1.0001922-0.4478012,1.0001922-1.000192S7.6787481,0,7.1263576,0z M10.0301409,0.7635875
	c-0.5523911,0-1.0001917,0.4478012-1.0001917,1.000192s0.4478006,1.000192,1.0001917,1.000192
	s1.0001917-0.4478011,1.0001917-1.000192S10.5825319,0.7635875,10.0301409,0.7635875z"/>
</svg>
