<?xml version="1.0" encoding="utf-8"?>

<!--
 ~   Copyright 2017, WSO2 Inc. (http://www.wso2.com)
 ~
 ~   Licensed under the Apache License, Version 2.0 (the "License");
 ~   you may not use this file except in compliance with the License.
 ~   You may obtain a copy of the License at
 ~
 ~        http://www.apache.org/licenses/LICENSE-2.0
 ~
 ~   Unless required by applicable law or agreed to in writing, software
 ~   distributed under the License is distributed on an "AS IS" BASIS,
 ~   WITHOUT WARRANTIES OR CONDITIONS OF ANY KIND, either express or implied.
 ~   See the License for the specific language governing permissions and
 ~   limitations under the License.
-->

<svg version="1.1" id="salesforce" xmlns="http://www.w3.org/2000/svg" xmlns:xlink="http://www.w3.org/1999/xlink" x="0px" y="0px"
	 viewBox="0 0 14 14" style="enable-background:new 0 0 14 14;" xml:space="preserve">
<path d="M5.825954,3.1691453c0.45151-0.4704559,1.0801144-0.7622223,1.7753282-0.7622223
	c0.924159,0,1.7304554,0.5153277,2.1598291,1.2803419c0.3731337-0.1667235,0.7861538-0.2594585,1.2207127-0.2594585
	C12.6486607,3.4278064,14,4.7909117,14,6.4723077c0,1.6815953-1.3513393,3.0447011-3.0181761,3.0447011
	c-0.2034197,0-0.4022512-0.0203419-0.5945015-0.0592308c-0.3781195,0.6744728-1.0986614,1.1301708-1.9256983,1.1301708
	c-0.3462105,0-0.6736755-0.0799723-0.9652424-0.2221651c-0.3833046,0.9016237-1.2763534,1.5338182-2.3171797,1.5338182
	c-1.0839033,0-2.007664-0.6858406-2.3622508-1.6476927c-0.1549573,0.0329056-0.3154986,0.0500565-0.4802277,0.0500565
	C1.0462105,10.3019657,0,9.2449856,0,7.9409113c0-0.8739028,0.4700571-1.6369228,1.1684618-2.0451565
	C1.0246725,5.5648999,0.9447012,5.1997433,0.9447012,4.8158402c0-1.4997153,1.2175214-2.7154419,2.7192309-2.7154419
	C4.5456123,2.1003988,5.3291736,2.5196011,5.825954,3.1691453 M2.6077323,6.5869222L2.5831962,6.5789266
	C2.4408011,6.5326619,2.3179374,6.4927449,2.3179374,6.399056V6.3940511c0-0.0801392,0.0717773-0.1392212,0.1831055-0.1392212
	c0.1235962,0,0.2703857,0.0410767,0.3649292,0.0933838c0,0,0.02771,0.0179443,0.0379028-0.0089722
	C2.9094291,6.3248372,2.9572806,6.195992,2.9622855,6.182076c0.0053711-0.0151978-0.0041504-0.0263672-0.0139771-0.0323486
	c-0.1078491-0.0656128-0.257019-0.1104736-0.411377-0.1104736L2.508184,6.0394979
	c-0.2628174,0-0.4462891,0.1586914-0.4462891,0.3862915v0.0047607c0,0.2399292,0.2023926,0.317688,0.3920288,0.3719482
	l0.0305176,0.0093384c0.1382446,0.0424805,0.2572632,0.0789795,0.2572632,0.1763306V6.992928
	c0,0.0889893-0.0773315,0.1551514-0.2022095,0.1551514c-0.0484619,0-0.2030029-0.0009766-0.3699341-0.1064453
	C2.1494193,7.0298543,2.1376395,7.0212483,2.1220756,7.01191C2.1138968,7.006722,2.093389,6.9977498,2.0844169,7.0248494
	L2.0277762,7.1820149c-0.0087891,0.0229492,0.0031738,0.02771,0.0059814,0.0316772
	c0.0263062,0.019165,0.0530396,0.0328979,0.0799561,0.0482788C2.256536,7.3377767,2.3913016,7.3598714,2.5323539,7.3598714
	c0.2871704,0,0.4654541-0.15271,0.4654541-0.3986206V6.956429C2.997808,6.729073,2.7965751,6.6465535,2.6077323,6.5869222z
	 M7.2019706,6.9612508V6.956429c0-0.227356-0.2012329-0.3098755-0.3900757-0.3695068L6.7873588,6.5789266
	C6.6449637,6.5326619,6.5221,6.4927449,6.5221,6.399056V6.3940511c0-0.0801392,0.0718384-0.1392212,0.1831055-0.1392212
	c0.1236572,0,0.2704468,0.0410767,0.3649292,0.0933838c0,0,0.027771,0.0179443,0.0379028-0.0089722
	C7.1136527,6.3248372,7.1615043,6.195992,7.1665092,6.182076c0.0053711-0.0151978-0.0042114-0.0263672-0.0139771-0.0323486
	C7.0446219,6.0841146,6.895452,6.0392537,6.7410941,6.0392537L6.7124076,6.0394979
	c-0.2628784,0-0.4463501,0.1586914-0.4463501,0.3862915v0.0047607c0,0.2399292,0.2023926,0.317688,0.3920898,0.3719482
	l0.0305176,0.0093384c0.1381836,0.0424805,0.2574463,0.0789795,0.2574463,0.1763306V6.992928
	c0,0.0889893-0.0775757,0.1551514-0.2023926,0.1551514c-0.0484619,0-0.203064-0.0009766-0.3699951-0.1064453
	C6.3535819,7.0298543,6.341619,7.0216756,6.3264823,7.01191c-0.005188-0.003418-0.029541-0.0127563-0.0379028,0.0129395
	L6.2319388,7.1820149c-0.0087891,0.0229492,0.0032349,0.02771,0.0059814,0.0316772
	c0.0263672,0.019165,0.0530396,0.0328979,0.0800171,0.0482788c0.1427612,0.0758057,0.2775879,0.0979004,0.4185791,0.0979004
	C7.0236869,7.3598714,7.2019706,7.2071614,7.2019706,6.9612508z M9.2326708,6.2344441
	C9.1837816,6.1758504,9.121953,6.1287923,9.0485888,6.0944905c-0.0731812-0.0341187-0.159729-0.0514526-0.256897-0.0514526
	c-0.09729,0-0.1838379,0.017334-0.257019,0.0514526C8.4612474,6.1287923,8.3994188,6.1758504,8.3504076,6.2344441
	c-0.0487061,0.0586548-0.0853882,0.1288452-0.1091309,0.208252C8.2179613,6.5218587,8.2061815,6.6084065,8.2061815,6.7003255
	c0,0.09198,0.0117798,0.1787109,0.0350952,0.2576904c0.0237427,0.0793457,0.0602417,0.1495361,0.109314,0.2081909
	c0.0488281,0.0586548,0.1109009,0.1055298,0.184082,0.1387939c0.0733643,0.0333252,0.159729,0.050293,0.257019,0.050293
	c0.097168,0,0.1835327-0.0169678,0.256897-0.050293c0.0731812-0.0332642,0.1351929-0.0801392,0.184082-0.1387939
	c0.0488281-0.0584106,0.0855713-0.1286011,0.1090698-0.2081909c0.0235596-0.0791626,0.0352783-0.1659546,0.0352783-0.2576904
	S9.3653002,6.5218587,9.3417406,6.4426961C9.3182421,6.3631063,9.2814989,6.2929158,9.2326708,6.2344441z M9.0250292,7.0261922
	c-0.050415,0.0765991-0.1268311,0.1138916-0.2333374,0.1138916c-0.1066895,0-0.1826782-0.0371094-0.2322998-0.1138916
	C8.509099,6.9490438,8.4835863,6.8393636,8.4835863,6.7003255c0-0.1387939,0.0255127-0.2480469,0.0758057-0.324646
	c0.0496216-0.0758057,0.1256104-0.1126709,0.2322998-0.1126709c0.1065063,0,0.1829224,0.0368652,0.2335815,0.1126709
	c0.0508423,0.0765991,0.0767822,0.1858521,0.0767822,0.324646C9.1020555,6.8393636,9.0761156,6.9488606,9.0250292,7.0261922z
	 M11.2797289,7.088387c-0.0348511,0.0133667-0.0719604,0.0257568-0.1114502,0.0319214
	c-0.0401001,0.0061646-0.0841675,0.0093994-0.1314087,0.0093994c-0.1160889,0-0.208252-0.0344849-0.274231-0.1027222
	c-0.0662231-0.0681763-0.1033325-0.1784668-0.1029053-0.3276367c0.0003662-0.1358643,0.0330811-0.237915,0.0919189-0.3157349
	c0.0584717-0.0773926,0.1473999-0.1170654,0.2660522-0.1170654c0.098938,0,0.1743164,0.0113525,0.2532959,0.0363159
	c0,0,0.0189209,0.0081787,0.0278931-0.0165405c0.0209351-0.0582275,0.036499-0.0999146,0.0588379-0.1639404
	c0.0064087-0.0181885-0.0091553-0.0259399-0.0147705-0.0281372c-0.0311279-0.012146-0.1044922-0.0319214-0.1599121-0.0402832
	c-0.0518799-0.0079956-0.1124878-0.012146-0.1799316-0.012146c-0.100708,0-0.1904297,0.0171509-0.2672119,0.0514526
	c-0.0765991,0.0340576-0.1416016,0.0811768-0.1930542,0.1397705c-0.0514526,0.0586548-0.0905151,0.1288452-0.1166382,0.2081909
	c-0.0259399,0.0792236-0.0391235,0.1661377-0.0391235,0.2581177c0,0.1987915,0.0536499,0.3595581,0.1595459,0.4772339
	c0.1060791,0.118042,0.2654419,0.1780396,0.4732666,0.1780396c0.1228638,0,0.2489014-0.0249023,0.3394165-0.0606079
	c0,0,0.017334-0.0083618,0.0097656-0.0285034l-0.0588379-0.1625366C11.3023119,7.079659,11.2797289,7.088387,11.2797289,7.088387z
	 M12.536809,6.397469c-0.0203857-0.0767822-0.0708008-0.1543579-0.1039429-0.1898804
	c-0.0522461-0.0562134-0.1032715-0.09552-0.1539307-0.1174316c-0.0662231-0.0283203-0.1456299-0.0470581-0.2325439-0.0470581
	c-0.1013184,0-0.1932373,0.0169067-0.2678223,0.052002c-0.0748291,0.0351562-0.1376343,0.0830078-0.1868896,0.1426392
	c-0.0492554,0.0593872-0.0863647,0.130188-0.1098633,0.2105713c-0.0237427,0.0799561-0.0357056,0.1671143-0.0357056,0.2590942
	c0,0.0935059,0.0123291,0.1806641,0.0368652,0.2590332c0.0247192,0.0789795,0.064209,0.1485596,0.1176758,0.2062378
	c0.0532227,0.0579834,0.1218262,0.1034546,0.2040405,0.1351929c0.081543,0.0314941,0.1806641,0.0478516,0.2945557,0.0476685
	c0.234314-0.0007935,0.3577881-0.0530396,0.4086304-0.0811768c0.0089722-0.0050049,0.0175171-0.0137329,0.0067749-0.0388794
	l-0.0530396-0.1485596c-0.0079956-0.0221558-0.0305176-0.0139771-0.0305176-0.0139771
	c-0.0580444,0.0215454-0.140625,0.0602417-0.3330688,0.0598145c-0.1258545-0.0001831-0.2191772-0.0372925-0.2775879-0.0953369
	c-0.0600586-0.0593872-0.0893555-0.1467896-0.0945435-0.2700195l0.8114624,0.0007935c0,0,0.0213623-0.0003662,0.0235596-0.0211182
	C12.5617113,6.7382894,12.5888109,6.5803304,12.536809,6.397469z M11.7296801,6.5672078
	c0.0113525-0.0772095,0.0327148-0.1414185,0.0656128-0.1914673c0.0496826-0.0759888,0.1254272-0.1176758,0.2319336-0.1176758
	s0.1768799,0.0418701,0.227356,0.1176758c0.0335083,0.0500488,0.0480957,0.1170654,0.053833,0.1914673H11.7296801z
	 M5.9340873,6.2075887c-0.0522461-0.0562134-0.1033325-0.09552-0.1539917-0.1174316
	C5.7139335,6.0618367,5.6345267,6.0430989,5.5476127,6.0430989c-0.1011353,0-0.1932983,0.0169067-0.2678833,0.052002
	C5.2049613,6.1302571,5.1421561,6.1781087,5.0929008,6.23774C5.0436454,6.2971272,5.006536,6.367928,4.9829764,6.4483113
	C4.9594779,6.5282674,4.9473319,6.6154256,4.9473319,6.7074056c0,0.0935059,0.0123291,0.1806641,0.0368652,0.2590332
	c0.0247192,0.0789795,0.064209,0.1485596,0.1176758,0.2062378C5.1550956,7.23066,5.2236991,7.2761312,5.3058524,7.3078694
	c0.081604,0.0314941,0.1807251,0.0478516,0.2946167,0.0476685c0.234314-0.0007935,0.3577271-0.0530396,0.4086304-0.0811768
	c0.0089722-0.0050049,0.0175171-0.0137329,0.0067749-0.0388794L5.9630179,7.0869222
	C5.9548392,7.0647664,5.9323173,7.0729451,5.9323173,7.0729451c-0.0580444,0.0215454-0.1404419,0.0602417-0.333252,0.0598145
	C5.4733939,7.1325765,5.3800712,7.0954671,5.3216605,7.0374227C5.2616019,6.9780354,5.232305,6.8906331,5.2271171,6.7674031
	l0.8114624,0.0007935c0,0,0.0213623-0.0003662,0.0235596-0.0211182c0.0007935-0.0087891,0.0278931-0.166748-0.024353-0.3496094
	C6.0174613,6.3206868,5.9671683,6.2431111,5.9340873,6.2075887z M5.2309012,6.5672078
	C5.2424369,6.4899983,5.2636161,6.4257894,5.296514,6.3757405c0.0496216-0.0759888,0.1254272-0.1176758,0.2319336-0.1176758
	s0.1768799,0.0418701,0.2275391,0.1176758C5.7893119,6.4257894,5.8038383,6.492806,5.8096366,6.5672078H5.2309012z
	 M4.0628104,6.1539998c-0.085144-0.074585-0.2105713-0.1122437-0.3727417-0.1122437
	c-0.060791,0-0.1587524,0.0083618-0.2173462,0.0201416c0,0-0.1773071,0.0343018-0.2503052,0.0913086
	c0,0-0.0159302,0.0100098-0.0072021,0.0323486l0.0574341,0.1543579c0.0072021,0.0198975,0.0265503,0.0131226,0.0265503,0.0131226
	s0.0061646-0.0023804,0.0133667-0.0065918c0.1561279-0.0848999,0.3535767-0.0823364,0.3535767-0.0823364
	c0.0877686,0,0.1551514,0.0175781,0.2006226,0.0524292C3.911016,6.350472,3.933599,6.4017415,3.933599,6.5098348v0.0343018
	C3.8637748,6.5341268,3.7997489,6.5283284,3.7997489,6.5283284C3.7668509,6.525948,3.7241874,6.5245442,3.6731009,6.5245442
	c-0.0695801,0-0.1367798,0.0087891-0.1998291,0.0257568c-0.0634155,0.0169678-0.1204224,0.043457-0.1694946,0.0785522
	C3.2545218,6.6641927,3.214849,6.7092366,3.1861014,6.7627034C3.1574149,6.8161092,3.1428275,6.8791585,3.1428275,6.9497762
	c0,0.0717773,0.0123901,0.1342163,0.0371094,0.1852417c0.0247192,0.0512695,0.0604248,0.0939331,0.105896,0.1268311
	c0.0450439,0.0328979,0.100708,0.0570679,0.1653442,0.0715942c0.0635986,0.0145874,0.1358032,0.0219727,0.2147827,0.0219727
	c0.0831299,0,0.1661377-0.0068359,0.24646-0.0205688c0.0795898-0.0135498,0.1773071-0.0333252,0.2044678-0.0394897
	c0.0269165-0.0063477,0.0568237-0.0145264,0.0568237-0.0145264C4.1938529,7.275826,4.192266,7.2542806,4.192266,7.2542806
	L4.1918387,6.5122151C4.1918387,6.3494344,4.1483817,6.2288289,4.0628104,6.1539998z M3.714788,7.1460042
	c-0.1651001,0.0099487-0.2385254-0.0476685-0.237915-0.0474854c-0.0316772-0.0253296-0.0360718-0.0316772-0.046875-0.0480347
	C3.4140677,7.0255208,3.405889,6.9900594,3.405889,6.9449544c0-0.0714111,0.0235596-0.1226196,0.0723877-0.1571655
	C3.4776664,6.788033,3.5481009,6.7269979,3.7136283,6.7291951c0.116272,0.0015869,0.2201538,0.0187378,0.2201538,0.0187378
	v0.3689575h0.0001831C3.9339652,7.1168904,3.8308768,7.1389852,3.714788,7.1460042z M10.196538,6.0577474
	c-0.1019287-0.0061646-0.1585693,0.0109863-0.2092285,0.0337524C9.9370775,6.1142049,9.8812304,6.150887,9.8501024,6.192574
	V6.0938802c0-0.0137939-0.0097656-0.0247192-0.0233154-0.0247192H9.6187792c-0.0135498,0-0.0233154,0.0109253-0.0233154,0.0247192
	v1.2103271c0,0.0135498,0.0111694,0.0247192,0.0247192,0.0247192h0.2131958c0.0135498,0,0.0245361-0.0111694,0.0245361-0.0247192
	V6.699532c0-0.0811768,0.0089722-0.1621094,0.0269165-0.2129517c0.0175171-0.050293,0.0414429-0.0905762,0.0709839-0.1195068
	c0.0297241-0.0286865,0.0634155-0.0488281,0.1003418-0.0601807c0.0376587-0.0115967,0.0793457-0.0153809,0.1088867-0.0153809
	c0.0424805,0,0.0891113,0.0109863,0.0891113,0.0109863c0.015564,0.00177,0.024353-0.0078125,0.029541-0.0219727
	c0.013916-0.0371094,0.0534058-0.1481323,0.0610352-0.1702881c0.0061646-0.0183716-0.0068359-0.0271606-0.012207-0.0291138
	C10.3187914,6.0757527,10.2497606,6.0611653,10.196538,6.0577474z M7.8982596,6.0680013
	c0.0014038-0.0057983,0.0131836-0.0971069,0.0428467-0.1831055c0.0128174-0.036499,0.0367432-0.0662231,0.0568848-0.0865479
	c0.019897-0.0199585,0.0428462-0.0341187,0.0679927-0.0422974C8.0916796,5.7476888,8.1210375,5.7437215,8.153142,5.7437215
	c0.024292,0,0.0484619,0.0028076,0.0665894,0.0065918C8.2448778,5.7556844,8.2546434,5.758492,8.2612352,5.7604451
	c0.0264893,0.0079956,0.0300903,0.0002441,0.0352783-0.0125122l0.0620117-0.1703491
	c0.0064087-0.0183716-0.0093384-0.026123-0.0149536-0.0283203c-0.0259399-0.0079956-0.0494385-0.0133667-0.0801392-0.019165
	C8.2323046,5.5245442,8.1951952,5.5217366,8.153142,5.5217366c-0.1467896,0-0.2624507,0.0415039-0.3436275,0.12323
	C7.728765,5.7263875,7.6738944,5.8502278,7.6463675,6.0131307L7.6364188,6.0680013H7.4521537
	c0,0-0.0223389-0.0007935-0.0271606,0.0234985L7.3949027,6.2604451c-0.0021973,0.0159302,0.0047607,0.026123,0.0263062,0.026123
	h0.1793213L7.4186454,7.3020711C7.4044852,7.3838582,7.3881278,7.4510579,7.3699393,7.5020833
	C7.3522391,7.5523763,7.3348441,7.590035,7.3132987,7.6175618C7.2926078,7.643868,7.2730155,7.6634603,7.239141,7.6748128
	c-0.0279541,0.0093384-0.0602417,0.0137329-0.09552,0.0137329c-0.0195312,0-0.0456543-0.0031738-0.0650024-0.0071411
	C7.0594535,7.6775594,7.0492606,7.673409,7.0347342,7.6672444c0,0-0.0209351-0.0079956-0.0293579,0.0129395
	c-0.0065308,0.017334-0.0544434,0.1488037-0.0601807,0.164917C6.9395804,7.8612752,6.947576,7.8738484,6.9577689,7.8776326
	c0.0239258,0.0083618,0.041626,0.013916,0.0741577,0.0217285c0.0450439,0.0105591,0.0831909,0.0111694,0.1188354,0.0111694
	c0.074585,0,0.1428223-0.0105591,0.1992798-0.0309448C7.4066825,7.8590779,7.456121,7.8233724,7.5000052,7.7750936
	C7.5472465,7.7228475,7.5769706,7.668221,7.6052909,7.5934529C7.6334281,7.5196614,7.657537,7.4279256,7.676702,7.320992
	l0.1828613-1.0344238h0.2672114c0,0,0.022583,0.0007935,0.0271606-0.0237427l0.0302734-0.1687012
	C8.186223,6.07795,8.1794481,6.0680013,8.1577196,6.0680013H7.8982596z M4.4799247,5.5479207
	c-0.0135498,0-0.0231323,0.0109253-0.0231323,0.0244751v1.7318726c0,0.0135498,0.0095825,0.0245361,0.0231323,0.0245361h0.21521
	c0.0135498,0,0.0233154-0.0109863,0.0233154-0.0245361V5.5723958c0-0.0135498-0.0097656-0.0244751-0.0233154-0.0244751H4.4799247z"
	/>
</svg>
