<svg xmlns="http://www.w3.org/2000/svg" viewBox="0 0 512 512"><defs><style>.cls-1{fill:#e7eaeb;}.cls-2{fill:#20b6b0;}</style></defs><title>electron-icon</title><g id="Layer_2" data-name="Layer 2"><rect class="cls-1" width="512" height="512"/></g><g id="Layer_1" data-name="Layer 1"><polygon class="cls-2" points="143.86 163.38 143.86 45 242.96 45 242.96 201.29 143.86 163.38"/><polygon class="cls-2" points="143.86 200.43 211.69 226.39 143.86 252.33 143.86 200.43"/><polygon class="cls-2" points="242.98 251.49 242.98 308.83 194.78 466.77 143.86 466.77 143.86 289.4 242.98 251.49"/><polygon class="cls-2" points="376.44 163.38 376.44 45 277.32 45 277.32 201.29 376.44 163.38"/><polygon class="cls-2" points="376.44 200.43 308.6 226.39 376.44 252.33 376.44 200.43"/><polygon class="cls-2" points="277.32 251.49 277.32 308.83 325.49 466.77 376.44 466.77 376.44 289.4 277.32 251.49"/></g></svg>