<?xml version="1.0" encoding="utf-8"?>


<!--
 ~   Copyright (c) WSO2 Inc. (http://wso2.com) All Rights Reserved.
 ~
 ~   Licensed under the Apache License, Version 2.0 (the "License");
 ~   you may not use this file except in compliance with the License.
 ~   You may obtain a copy of the License at
 ~
 ~        http://www.apache.org/licenses/LICENSE-2.0
 ~
 ~   Unless required by applicable law or agreed to in writing, software
 ~   distributed under the License is distributed on an "AS IS" BASIS,
 ~   WITHOUT WARRANTIES OR CONDITIONS OF ANY KIND, either express or implied.
 ~   See the License for the specific language governing permissions and
 ~   limitations under the License.
-->

<svg version="1.1" id="abort" xmlns="http://www.w3.org/2000/svg" xmlns:xlink="http://www.w3.org/1999/xlink" x="0px" y="0px"
	 viewBox="0 0 14 14" style="enable-background:new 0 0 14 14;" xml:space="preserve">
<path d="M10.9830265,6.7349854c0.0800171,0.1300049,0.2200317,0.2200317,0.3800049,0.2399902
	c0.0200195,0.0100098,0.039978,0.0100098,0.0599976,0.0100098c0.1400146,0,0.289978-0.0599976,0.4000244-0.1699829l1.9899902-2
	c0.1199951-0.1199951,0.1900024-0.2600098,0.1900024-0.4000244c0-0.1399536-0.0700073-0.2799683-0.1900024-0.3999634
	l-2.0300293-2.0200195c-0.1599731-0.1500244-0.3900146-0.1900024-0.5899658-0.0899658
	c-0.210022,0.1099854-0.3200073,0.3399658-0.2700195,0.5699463c0.0200195,0.1000366,0.0800171,0.210022,0.1599731,0.2900391
	c0.3800049,0.3699951,0.75,0.75,1.1300049,1.1300049h-0.6399536c-0.4900513,0-1.2900391,0-2.2400513,0
	C8.6830387,3.4050293,7.8730412,3.1149902,7.003046,3.1149902c-0.8800049,0-1.6799927,0.2900391-2.3300171,0.7800293
	c-1.5300293,0-2.8300171,0-3.3499756,0c-0.1199951,0-0.5400391-0.0100098-0.6000367,0.4899902v0.0200195v0.0299683
	c0.0100098,0.2000122,0.1000366,0.3200073,0.1699829,0.3800049c0.1600342,0.1400146,0.3800049,0.1300049,0.4500123,0.1199951
	h2.3600464C3.3130436,5.5349731,3.0930119,6.2550049,3.0930119,7.0150146c0,0.75,0.210022,1.4400024,0.5800171,2.039978H1.7930241
	L2.9230289,7.914978c0.1900024-0.1799927,0.2199707-0.4400024,0.0900269-0.6499634
	C2.9330387,7.1350098,2.7930241,7.0349731,2.6429996,7.0250244c-0.0199585-0.0100098-0.039978-0.0100098-0.0699463-0.0100098
	c-0.1400146,0-0.2800293,0.0599976-0.3900146,0.1699829l-2,2C0.0630436,9.3049927,0.003046,9.4450073,0.003046,9.585022
	c0,0.1399536,0.0599976,0.2799683,0.1799927,0.3999634l2.0299683,2.0200195
	c0.1600342,0.1500244,0.3900146,0.1900024,0.5900269,0.0899658c0.2199707-0.1099854,0.3300171-0.3399658,0.2799683-0.5699463
	c-0.0299683-0.1000366-0.0899658-0.210022-0.1699829-0.2900391c-0.3699951-0.3699951-0.75-0.75-1.1300049-1.1300049h0.6500244
	c0.4799805,0,1.2600098,0,2.1799927,0c0.6599731,0.5100098,1.4899902,0.8200073,2.3900146,0.8200073
	c0.8999634,0,1.7199707-0.2999878,2.3800049-0.8200073c1.5,0,2.7799683,0,3.289978,0
	c0.1300049,0,0.5499878,0.0100098,0.5999756-0.4899902V9.5949707V9.5650024
	c-0.0099487-0.2000122-0.0999756-0.3200073-0.1699829-0.3800049c-0.1599731-0.1500244-0.3699951-0.1300049-0.4500122-0.1199951
	h-2.3299561c0.3699951-0.5999756,0.5799561-1.2999878,0.5799561-2.0499878c0-0.7600098-0.2199707-1.4700317-0.5999756-2.0700073
	h1.9099731l-1.1399536,1.1300049C10.8929996,6.2650146,10.8530216,6.5250244,10.9830265,6.7349854z M7.6830387,10.1049805
	c-0.2200317,0.0400391-0.4500122,0.0700073-0.6799927,0.0700073c-0.2300415,0-0.460022-0.0299683-0.6799927-0.0700073
	C5.6429996,9.9550171,5.0330143,9.5750122,4.6030216,9.0549927c-0.4799805-0.5499878-0.7600098-1.2600098-0.7600098-2.039978
	c0-0.7999878,0.2999878-1.5200195,0.7900391-2.0800171C5.1230412,4.375,5.8230534,3.9849854,6.6030216,3.8950195
	C6.7330265,3.875,6.8630314,3.8649902,7.003046,3.8649902c0.1399536,0,0.2699585,0.0100098,0.3999634,0.0300293
	C8.1930485,3.9949951,8.8830509,4.375,9.3730412,4.9450073c0.4899902,0.5599976,0.7799683,1.2799683,0.7799683,2.0700073
	c0,0.7799683-0.2799683,1.5-0.75,2.0499878C8.963007,9.5750122,8.3630314,9.9550171,7.6830387,10.1049805z M8.9030094,5.835022
	L7.5930119,7.1550293l1.2999878,1.2999878c0.1200562,0.1199951,0.1200562,0.2999878,0,0.4199829L8.7030582,9.0650024
	L8.6429996,9.1149902L8.5130558,9.1350098H8.503046c-0.0599976,0-0.1300049-0.0200195-0.1900024-0.0700073
	C8.3030338,9.0549927,8.3030338,9.0549927,8.2930241,9.0449829l-1.289978-1.289978L5.713007,9.0449829
	C5.7030582,9.0549927,5.7030582,9.0549927,5.6930485,9.0549927c-0.1199951,0.1099854-0.2900391,0.1000366-0.3900146,0
	L5.1130314,8.875C4.9830265,8.7449951,4.9830265,8.5650024,5.1030216,8.4450073l1.3099976-1.289978L5.0330143,5.7650146
	L5.0130558,5.625c0-0.0800171,0.0299683-0.1599731,0.0899658-0.210022l0.2600098-0.2399902l0.1300049-0.0199585
	c0.0800171,0,0.1599731,0.0299683,0.210022,0.0899658L7.003046,6.5549927l1.3699951-1.3800049l0.1400146-0.0199585
	c0.0799561,0,0.1599731,0.0299683,0.2099609,0.0899658l0.1699829,0.1799927
	C9.0130558,5.5349731,9.0130558,5.7249756,8.9030094,5.835022z"/>
</svg>
