<?xml version="1.0" encoding="utf-8"?>

<!--
 ~   Copyright (c) WSO2 Inc. (http://wso2.com) All Rights Reserved.
 ~
 ~   Licensed under the Apache License, Version 2.0 (the "License");
 ~   you may not use this file except in compliance with the License.
 ~   You may obtain a copy of the License at
 ~
 ~        http://www.apache.org/licenses/LICENSE-2.0
 ~
 ~   Unless required by applicable law or agreed to in writing, software
 ~   distributed under the License is distributed on an "AS IS" BASIS,
 ~   WITHOUT WARRANTIES OR CONDITIONS OF ANY KIND, either express or implied.
 ~   See the License for the specific language governing permissions and
 ~   limitations under the License.
-->

<svg version="1.1" id="abort" xmlns="http://www.w3.org/2000/svg" xmlns:xlink="http://www.w3.org/1999/xlink" x="0px" y="0px"
	 viewBox="0 0 14 14" style="enable-background:new 0 0 14 14;" xml:space="preserve">
<path d="M13.8427353,4.5053101L11.3651962,2.204834c-0.0393066-0.0393677-0.0786743-0.0786743-0.117981-0.1082153
	c-0.1278076-0.1081543-0.2949219-0.1375732-0.4522705-0.05896c-0.1671143,0.0786133-0.2654419,0.2457886-0.2162476,0.4129639
	c0.0195923,0.0884399,0.0687866,0.1671143,0.1376343,0.2359009c0.4817505,0.4424438,0.9536133,0.8848267,1.4353638,1.3370972
	l0.4423828,0.4129028h-1.0617676c-0.7078247,0-1.5337524,0-2.3890381,0c-0.5800171-0.4817505-1.327271-0.7766724-2.14325-0.7766724
	c-0.81604,0-1.5632324,0.2949219-2.1432495,0.7669067c-0.6095581,0.0097656-1.1601562,0-1.5927124,0
	c-0.1868286-0.0098877-0.4620972,0-0.5014038,0.3833618v0.0098267v0.0098267c0,0.1278076,0.0393066,0.2261353,0.117981,0.2850952
	c0.1080933,0.0983887,0.2654419,0.1082153,0.4129028,0.0983887h0.8946533
	c-0.3342896,0.5209961-0.5210571,1.1305542-0.5210571,1.77948c0,0.6586914,0.1867676,1.2682495,0.5210571,1.7893066H1.415733
	l1.1699218-1.0913086c0.2359619-0.2162476,0.4719238-0.4423828,0.7078857-0.6586914
	c0.1572876-0.1474609,0.1867676-0.3342285,0.0786743-0.5014038C3.3033671,6.432312,3.2050395,6.3635254,3.0871196,6.3536377
	c-0.1376953-0.0196533-0.2655029,0.029541-0.3735962,0.1278076L0.1572491,8.8606567
	C0.0491558,8.9688721,0.0000225,9.0671387,0.0000225,9.175293s0.0491333,0.2163086,0.1572266,0.3146362l2.4382935,2.2710571
	l0.0491333,0.0393677c0.02948,0.0393066,0.0688477,0.0687256,0.1080933,0.0982666
	c0.0786743,0.0688477,0.177002,0.1081543,0.2753296,0.1081543c0.059021,0,0.117981-0.0098877,0.1769409-0.0393066
	c0.1671753-0.0786743,0.2556763-0.2556763,0.2163086-0.4227905c-0.0196533-0.0786133-0.0688477-0.1671753-0.1376953-0.2359009
	c-0.5898438-0.5407715-1.1698608-1.0913696-1.7597655-1.6320801L1.415733,9.5685425h1.5828246c0.5801392,0,1.2191162,0,1.8778687,0
	c0.5800171,0.4719238,1.3173828,0.7570801,2.1235962,0.7570801c0.8061523,0,1.5435185-0.2851562,2.1235356-0.7570801
	c0.6193848,0,1.1798096,0,1.6123657,0c0.1966553,0,0.4621582,0,0.5014648-0.3834229V9.1654663
	c0-0.117981-0.0393066-0.2163086-0.117981-0.2850952c-0.1081543-0.0983276-0.2655029-0.1081543-0.4129028-0.0983276H9.8117905
	c0.3342896-0.5210571,0.5211182-1.1306152,0.5211182-1.7893066c0-0.6489258-0.1868286-1.2584839-0.5211182-1.77948h2.7822876
	l-1.8875732,1.7597656c-0.1573486,0.1376953-0.1868286,0.3343506-0.0786743,0.4915771
	c0.0687866,0.0983276,0.1671143,0.1671143,0.2850952,0.1868286c0.0196533,0,0.02948,0,0.0491943,0
	c0.117981,0,0.2260742-0.0491333,0.3244019-0.1376343c0.8553467-0.7865601,1.7008667-1.5828857,2.5562134-2.3792114
	c0.1080933-0.0983276,0.1572876-0.2064819,0.1572876-0.3146362S13.9508286,4.6134644,13.8427353,4.5053101z M9.8413315,6.9927368
	c0,0.6783447-0.2359619,1.2977295-0.6390991,1.7893066c-0.02948,0.0393066-0.0688477,0.0884399-0.1081543,0.1278076
	C9.0548325,8.9491577,9.0154648,8.9884644,8.9761581,9.027832C8.8680038,9.1359863,8.7401962,9.2342529,8.6123886,9.3227539
	c-0.059021,0.0491943-0.117981,0.088501-0.177002,0.117981C8.3567734,9.4899292,8.2780991,9.5291748,8.1896591,9.5685425
	c-0.36377,0.1671143-0.7669072,0.2655029-1.1896367,0.2655029c-0.4227905,0-0.8258667-0.0983887-1.1896362-0.2655029
	C5.7219462,9.5291748,5.6432719,9.4899292,5.5645976,9.4407349c-0.059021-0.02948-0.117981-0.0687866-0.177002-0.117981
	C5.259788,9.2342529,5.1319804,9.1359863,5.0238872,9.027832c-0.0393066-0.0393677-0.0786743-0.0786743-0.117981-0.117981
	c-0.0393066-0.0393677-0.0688477-0.088501-0.1081543-0.1278076C4.3946147,8.2904663,4.1587138,7.6710815,4.1587138,6.9927368
	c0-0.6685181,0.2359009-1.2879028,0.6292114-1.77948c0.0393066-0.0393677,0.0688477-0.088501,0.117981-0.1278076
	c0.02948-0.0393677,0.0687866-0.0786743,0.1080933-0.117981C5.1222148,4.8592529,5.2401958,4.7609863,5.3680034,4.682312
	c0.05896-0.0491333,0.117981-0.0983276,0.1868286-0.1278076c0.0687256-0.0491943,0.1473999-0.0884399,0.2260742-0.117981
	c0.3735962-0.1868286,0.786499-0.2850952,1.2191162-0.2850952c0.4423828,0,0.8552856,0.0982666,1.2288823,0.2850952
	c0.0786743,0.029541,0.147522,0.0687866,0.2163086,0.117981C8.5139999,4.5938721,8.5828476,4.6331787,8.6418686,4.682312
	c0.1278076,0.088501,0.2359009,0.1769409,0.3441162,0.2851562c0.0393066,0.0393066,0.0786133,0.0786133,0.117981,0.117981
	C9.1432724,5.1247559,9.1727524,5.1738892,9.212059,5.2132568C9.6053696,5.704834,9.8413315,6.3242188,9.8413315,6.9927368z
	 M8.6241684,8.1191406c0.0986328,0.0996094,0.0986328,0.2597656,0,0.359375L8.4093246,8.6865234L8.2921371,8.703125
	c-0.0009766,0-0.0019531,0-0.0029297,0c-0.0664062,0-0.1318359-0.0263672-0.1796875-0.0742188L7.0020976,7.5175781
	L5.9024882,8.6259766C5.7999492,8.7246094,5.6456523,8.7246094,5.5470195,8.6298828L5.3819804,8.4765625
	C5.2774882,8.3720703,5.2774882,8.2119141,5.376121,8.1123047l1.1191406-1.1074219L5.3175273,5.8188477l-0.015625-0.1206055
	c0-0.0678711,0.0273438-0.1337891,0.0761719-0.1811523l0.2177734-0.2050781l0.1171875-0.015625
	c0.0673828,0,0.1328125,0.027832,0.1806641,0.0761719l1.1083984,1.1176758l1.1718755-1.1767578l0.1201172-0.015625
	c0.0683594,0,0.1337891,0.027832,0.1816406,0.0761719l0.1484375,0.1499023
	c0.0976562,0.0996094,0.0976562,0.2587891,0.0019531,0.3569336l-1.1152349,1.125L8.6241684,8.1191406z"/>
</svg>
