<?xml version="1.0" encoding="utf-8"?>

<!--
 ~   Copyright (c) WSO2 Inc. (http://wso2.com) All Rights Reserved.
 ~
 ~   Licensed under the Apache License, Version 2.0 (the "License");
 ~   you may not use this file except in compliance with the License.
 ~   You may obtain a copy of the License at
 ~
 ~        http://www.apache.org/licenses/LICENSE-2.0
 ~
 ~   Unless required by applicable law or agreed to in writing, software
 ~   distributed under the License is distributed on an "AS IS" BASIS,
 ~   WITHOUT WARRANTIES OR CONDITIONS OF ANY KIND, either express or implied.
 ~   See the License for the specific language governing permissions and
 ~   limitations under the License.
-->

<svg version="1.1" id="comment" xmlns="http://www.w3.org/2000/svg" xmlns:xlink="http://www.w3.org/1999/xlink" x="0px" y="0px"
	 viewBox="0 0 14 14" style="enable-background:new 0 0 14 14;" xml:space="preserve">
<path d="M11.7630005,0.3773193C9.1708374,0.3762207,6.5786133,0.3765259,3.9863892,0.3771973
	C3.3349609,0.3773193,0.651001,0.3504028,0,0.3684692v1.9277344c0,1.9505615,0,5.8185425,0,7.769043
	c0.4850464,0,0.8676758,0,1.0752563,0c0.0003052,0.0078125,0.0004272,0.0083008,0.0004272,0
	c1.144104,0,0.1046753,0.0194092,1.0145874-0.0076294c0.3866577-0.0114746,0.774231,0.0078735,1.1613159,0.0023193
	c0.1100464-0.0015869,0.1660156,0.0272827,0.2088623,0.1367798c0.2671509,0.6831055,1.0633545,2.6315918,1.3902588,3.44104
	c0.2851562-0.7062378,0.8955078-2.2199707,1.0507202-2.6075439c0.1115723-0.2785034,0.2268677-0.5556641,0.3311157-0.8369141
	c0.0375977-0.1014404,0.0883789-0.1339722,0.197937-0.133728c1.7900391,0.0039673,3.5800781,0.006958,5.3700562,0.0010376
	C12.7329712,10.0574951,13.5146484,10.0652466,14,10.0652466c0-1.9501343,0-7.7441406,0-9.6956787
	C13.3726807,0.3719482,12.5092773,0.3776245,11.7630005,0.3773193z M12.9130859,9.0090942
	c-1.9001465,0.0018311-5.4621582,0.0045166-7.3623047,0.0045776c-0.168396,0.4221802-0.520813,1.2999268-0.7041626,1.7589722
	c-0.1129761-0.2810059-0.2110596-0.5245972-0.3087769-0.7683716C4.4549561,9.7974243,4.2259521,9.1990356,4.1425781,8.9923096
	c-0.5012207,0.0032959-1.4337769,0.0039673-1.9349365-0.000061C1.6479492,8.987793,2.0734253,8.9851685,1.0751953,9
	C1.0750122,6.7727661,1.0778809,2.9223022,1.0800781,1.4553833c0.1129761-0.029541,1.031311-0.0063477,1.1484985-0.0064697
	c3.180603-0.0021362,7.5039062,0.0054932,10.6845093,0.0064697C12.9204102,3.218811,12.9210815,7.2456665,12.9130859,9.0090942z
	 M2.6660156,2.4329224h8.6679688v0.4921875H2.6660156V2.4329224z M2.6660156,4.0735474h8.6679688v0.4921875H2.6660156V4.0735474z
	 M2.6660156,5.7141724h8.6679688v0.4921875H2.6660156V5.7141724z M2.6660156,7.3547974h8.6679688v0.4921875H2.6660156V7.3547974z"/>
</svg>
