<!DOCTYPE svg PUBLIC "-//W3C//DTD SVG 20010904//EN" "http://www.w3.org/TR/2001/REC-SVG-20010904/DTD/svg10.dtd">
<svg version="1.0" xmlns="http://www.w3.org/2000/svg" width="780px" height="780px" viewBox="0 0 7800 7800" preserveAspectRatio="xMidYMid meet">
<g id="layer1" fill="#ffffff" stroke="none">
 <path d="M5030 6480 l-55 -5 -3 -2569 c-1 -1414 1 -2573 5 -2577 5 -4 175 -9 378 -11 l370 -3 3 498 2 497 1035 0 1035 0 0 489 0 489 -947 6 c-522 3 -981 9 -1020 12 l-73 6 0 594 0 594 563 0 c309 0 768 3 1020 7 l457 6 0 489 0 488 -1035 0 -1035 0 0 490 c0 384 -3 491 -12 495 -21 6 -629 11 -688 5z"/>
 <path d="M4260 6134 c-14 -2 -65 -9 -115 -15 -187 -22 -454 -90 -680 -173 -173 -64 -470 -217 -636 -328 -202 -135 -287 -204 -445 -362 -198 -199 -305 -351 -431 -616 -67 -141 -118 -197 -198 -220 -34 -9 -235 -13 -827 -15 -431 -1 -816 -3 -855 -4 l-73 -1 0 -506 0 -505 103 5 c56 3 233 8 392 11 160 3 491 10 737 15 472 11 545 7 618 -30 66 -34 118 -109 185 -266 165 -388 434 -706 815 -966 496 -339 1162 -536 1738 -515 97 3 158 10 167 17 13 11 15 304 15 2236 0 1767 -3 2224 -12 2231 -13 8 -452 14 -498 7z"/>
 </g>

</svg>