<?xml version="1.0" encoding="utf-8"?>

<!--
 ~   Copyright (c) WSO2 Inc. (http://wso2.com) All Rights Reserved.
 ~
 ~   Licensed under the Apache License, Version 2.0 (the "License");
 ~   you may not use this file except in compliance with the License.
 ~   You may obtain a copy of the License at
 ~
 ~        http://www.apache.org/licenses/LICENSE-2.0
 ~
 ~   Unless required by applicable law or agreed to in writing, software
 ~   distributed under the License is distributed on an "AS IS" BASIS,
 ~   WITHOUT WARRANTIES OR CONDITIONS OF ANY KIND, either express or implied.
 ~   See the License for the specific language governing permissions and
 ~   limitations under the License.
-->

<svg version="1.1" id="function" xmlns="http://www.w3.org/2000/svg" xmlns:xlink="http://www.w3.org/1999/xlink" x="0px" y="0px"
	 viewBox="0 0 14 14" style="enable-background:new 0 0 14 14;" xml:space="preserve">
<path d="M9.275712,4.0632877L9.1405096,4.5590587h-1.096549L7.2178168,7.841157
	c-0.3655729,1.4471092-0.7336054,2.5662203-1.1040978,3.3573332c-0.5257125,1.1164818-1.0916295,1.8876629-1.697412,2.3132877
	C3.9556515,13.8372307,3.4950805,14,3.0343399,14c-0.3004315,0-0.5558236-0.0901632-0.7660916-0.2704048
	c-0.1551352-0.1251945-0.23283-0.2879629-0.23283-0.4882221c0-0.1603098,0.0638692-0.2992439,0.1915228-0.4168043
	c0.1276536-0.1177301,0.2842309-0.1765099,0.4693923-0.1765099c0.1352026,0,0.2492003,0.0424948,0.3417385,0.1276531
	c0.0927079,0.0850744,0.1389346,0.1827021,0.1389346,0.2929678c0,0.1100111-0.0525033,0.2127275-0.1576798,0.3078957
	c-0.0800698,0.0700607-0.1201894,0.1226492-0.1201894,0.1577644c0,0.0450392,0.0176425,0.0799847,0.0525882,0.1050911
	c0.0450392,0.0350313,0.1152699,0.0525885,0.210268,0.0525885c0.2153573,0,0.4419954-0.0676012,0.679745-0.2028036
	c0.2379196-0.1352024,0.4494598-0.3368187,0.6346209-0.6045952c0.1853313-0.2679453,0.3605685-0.6547232,0.5257974-1.1604176
	c0.0700612-0.210268,0.2578521-0.9038391,0.5632877-2.0804577l1.3069019-5.0846868H5.5654445l0.1051764-0.4957709
	c0.4155316,0,0.7059541-0.0287542,0.8711829-0.0863466c0.1652288-0.0575078,0.3166323-0.1676886,0.454464-0.3304574
	C7.1339302,3.4837995,7.3129001,3.179636,7.5332613,2.7339084c0.2953424-0.6008627,0.5783005-1.0665228,0.8487062-1.3969803
	c0.370492-0.445558,0.7597294-0.7798324,1.167882-1.0026537C9.9579172,0.1115379,10.3422356,0,10.7028036,0
	c0.3804169,0,0.6859369,0.0965248,0.9163074,0.2891504c0.2302008,0.19288,0.3454704,0.4018757,0.3454704,0.6271569
	c0,0.1753223-0.0576773,0.3229934-0.1727772,0.4431829c-0.1152706,0.1201047-0.2628565,0.1802418-0.4430981,0.1802418
	c-0.1553049,0-0.2816868-0.0450393-0.3793144-0.1352026c-0.0976267-0.0901634-0.1464834-0.1977147-0.1464834-0.3229934
	c0-0.0799849,0.0325708-0.1789696,0.0976276-0.2966145s0.0977125-0.1964424,0.0977125-0.236647
	c0-0.0700611-0.022562-0.1225645-0.0676012-0.1576798c-0.0651417-0.0500436-0.1603098-0.0751503-0.2854185-0.0751503
	c-0.3154449,0-0.598403,0.1002569-0.8487062,0.3004314C9.4809761,0.8813615,9.1805449,1.2968931,8.9152288,1.8626405
	C8.7800264,2.1581523,8.5321827,2.8916731,8.1716995,4.0632877H9.275712z"/>
</svg>
