<?xml version="1.0" encoding="utf-8"?>

<!--
 ~   Copyright (c) WSO2 Inc. (http://wso2.com) All Rights Reserved.
 ~
 ~   Licensed under the Apache License, Version 2.0 (the "License");
 ~   you may not use this file except in compliance with the License.
 ~   You may obtain a copy of the License at
 ~
 ~        http://www.apache.org/licenses/LICENSE-2.0
 ~
 ~   Unless required by applicable law or agreed to in writing, software
 ~   distributed under the License is distributed on an "AS IS" BASIS,
 ~   WITHOUT WARRANTIES OR CONDITIONS OF ANY KIND, either express or implied.
 ~   See the License for the specific language governing permissions and
 ~   limitations under the License.
-->

<svg version="1.1" id="function" xmlns="http://www.w3.org/2000/svg" xmlns:xlink="http://www.w3.org/1999/xlink" x="0px" y="0px"
	 viewBox="0 0 14 14" style="enable-background:new 0 0 14 14;" xml:space="preserve">
<path d="M8.2061958,4.8929124L7.4422312,7.868278c-0.3618588,1.407311-0.7237177,2.5130105-1.0855765,3.2970996
	c-0.5227261,1.1057005-1.0855765,1.8897896-1.7087984,2.3320198C4.1653776,13.8392553,3.6627755,14,3.1801744,14
 	c-0.3618588,0-0.6633465-0.1004963-0.9045858-0.3216114c-0.2011144-0.1608667-0.3016104-0.3819828-0.3016104-0.6433458
 	c0-0.2211151,0.0803722-0.4222298,0.2613629-0.5829744c0.3016105-0.2814865,0.8042126-0.3217335,1.1057003-0.040247
 	c0.1407435,0.1206198,0.2011147,0.2814865,0.2011147,0.4422312c0,0.1006184-0.0201237,0.2212381-0.1006186,0.3619814
 	c0.1206195-0.0201235,0.2412391-0.0804949,0.3819826-0.1608667c0.2011144-0.1004963,0.3819826-0.2814875,0.5428493-0.5026026
 	c0.1608672-0.2412395,0.3216114-0.6030979,0.4824786-1.0655756c0.0603714-0.2009916,0.2412391-0.8443375,0.5227261-1.9902849
 	l1.1861949-4.6037917H5.3112025l0.2011147-0.9650798h0.2009916c0.4624777,0,0.6634693-0.0401247,0.7639651-0.0803721
 	C6.5978937,3.8072131,6.6983895,3.726841,6.8190093,3.6062212c0.0804949-0.1004958,0.2212381-0.3216114,0.4826012-0.8242135
 	c0.281364-0.6032207,0.5829744-1.0655755,0.844337-1.4073106C8.5279303,0.9323433,8.9300365,0.5906082,9.3521442,0.349369
 	c0.8845844-0.4824784,1.7490454-0.4423537,2.2717714-0.0201237c0.261363,0.2412392,0.4021063,0.5026022,0.4021063,0.8042126
 	c0,0.2211156-0.0603714,0.4221073-0.2211161,0.5829744c-0.30161,0.3217341-0.8444595,0.341735-1.1459475,0.0603712
 	c-0.1407433-0.1407434-0.2011147-0.3016105-0.2011147-0.4826012c0-0.1206197,0.0402479-0.2612402,0.1207428-0.4019836
 	C10.598587,0.8519711,10.6187115,0.8117237,10.6187115,0.7916c-0.0201244,0-0.0401249,0-0.0803728,0
 	c-0.2412386,0-0.4623547,0.0804949-0.6634693,0.241362c-0.301487,0.2211155-0.56285,0.603098-0.8040895,1.1057001
 	C8.950038,2.4000251,8.7490454,2.9829996,8.4675589,3.9278326H9.513011l-0.261363,0.9650798H8.2061958z"/>
  </svg>
