<?xml version="1.0" encoding="utf-8"?>

<!--
 ~   Copyright (c) WSO2 Inc. (http://wso2.com) All Rights Reserved.
 ~
 ~   Licensed under the Apache License, Version 2.0 (the "License");
 ~   you may not use this file except in compliance with the License.
 ~   You may obtain a copy of the License at
 ~
 ~        http://www.apache.org/licenses/LICENSE-2.0
 ~
 ~   Unless required by applicable law or agreed to in writing, software
 ~   distributed under the License is distributed on an "AS IS" BASIS,
 ~   WITHOUT WARRANTIES OR CONDITIONS OF ANY KIND, either express or implied.
 ~   See the License for the specific language governing permissions and
 ~   limitations under the License.
-->

<svg version="1.1" id="transaction" xmlns="http://www.w3.org/2000/svg" xmlns:xlink="http://www.w3.org/1999/xlink" x="0px"
	 y="0px" viewBox="0 0 14 14" style="enable-background:new 0 0 14 14;" xml:space="preserve">
<path d="M13.8427229,4.5053539l-2.4775486-2.3005297c-0.0393047-0.0393643-0.0786686-0.0786686-0.1179733-0.1081917
	c-0.1278133-0.1081318-0.2949314-0.1375949-0.4522686-0.0589864c-0.1671181,0.0786686-0.2654095,0.2457867-0.2162638,0.4129648
	c0.0196218,0.0884497,0.0688276,0.1671181,0.1376553,0.2359457c0.4817324,0.4424279,0.9536228,0.8847959,1.4353552,1.337065
	l0.4424286,0.4129047h-1.0618153c-0.7078371,0-1.5337067,0-2.38904,0C8.5632296,3.9547942,7.8160286,3.6598623,7,3.6598623
	S5.4367704,3.9547942,4.8567472,4.4267454c-0.6095462,0.0097809-1.1601057,0-1.5926929,0
	c-0.1868002-0.009841-0.46211,0-0.5014143,0.3833818v0.009841v0.009841c0,0.1278138,0.0393043,0.2261047,0.1179729,0.2850909
	c0.1081316,0.0983505,0.2654688,0.108192,0.4129047,0.0983505h0.8946972
	C3.8539183,5.7342873,3.6671181,6.3438334,3.6671181,6.992744c0,0.6586914,0.1868002,1.2682376,0.5210967,1.7893348h-2.772481
	l1.169947-1.0913391c0.2359457-0.2162633,0.4718912-0.442368,0.7078369-0.6586914
	c0.1573372-0.1474361,0.1868002-0.3342361,0.0786686-0.5014143C3.3033586,6.432343,3.2050679,6.3635159,3.0870953,6.3536749
	c-0.137655-0.0196824-0.2654688,0.0295229-0.3736007,0.1278138L0.1572771,8.8606873C0.0491453,8.9688787,0,9.0671692,0,9.1753006
	C0,9.283433,0.0491453,9.3916245,0.1572771,9.4899149l2.4382446,2.2710667l0.0491455,0.0393648
	c0.0294633,0.0393038,0.0688274,0.0687675,0.1081316,0.0982904c0.0786686,0.0688276,0.1769593,0.1081314,0.27531,0.1081314
	c0.0589864,0,0.1179729-0.009841,0.176959-0.0393038c0.1671183-0.0786686,0.2556279-0.2556276,0.2162635-0.4227467
	c-0.0196221-0.0786676-0.0688274-0.1671782-0.1376548-0.2359447c-0.5898643-0.5407791-1.1698871-1.0913391-1.7598112-1.6320572
	L1.4157337,9.5685835h1.5828518c0.5800831,0,1.2190926,0,1.8778441,0C5.4564524,10.0404749,6.1938124,10.3256254,7,10.3256254
	s1.5435476-0.2851505,2.1235704-0.7570419c0.6193876,0,1.1797886,0,1.6123753,0c0.196641,0,0.4621105,0,0.5014143-0.383441
	V9.1654596c0-0.1179724-0.0393038-0.2162628-0.1179724-0.2850904c-0.1081324-0.0982904-0.2654696-0.1081324-0.4129047-0.0982904
	H9.8117857c0.3342962-0.5210972,0.5210962-1.1306434,0.5210962-1.7893348c0-0.6489105-0.1868-1.2584567-0.5210962-1.7794933
	h2.7823219L10.7064829,6.973062c-0.1573372,0.1376548-0.186801,0.3342962-0.0786686,0.4915733
	c0.0688267,0.0982904,0.1671181,0.1671181,0.2850904,0.1868c0.0196819,0,0.0295229,0,0.0492058,0
	c0.1179724,0,0.2261038-0.0491452,0.3243952-0.1376548c0.8553324-0.7865052,1.7008848-1.5828519,2.5562172-2.3791981
	C13.9508543,5.0362916,14,4.9281001,14,4.8199682S13.9508543,4.6134858,13.8427229,4.5053539z M9.0941076,8.9098921
	C9.0548029,8.9491968,9.015439,8.9885006,8.9761343,9.0278654c-0.1081314,0.1081314-0.2359457,0.2064219-0.363759,0.2949314
	c-0.0589867,0.0491457-0.1179733,0.0884495-0.176959,0.1179733C8.3567476,9.4899149,8.278079,9.5292196,8.1896296,9.5685835
	C7.8258696,9.7357016,7.4227457,9.8340521,7,9.8340521S6.1741304,9.7357016,5.8103709,9.5685835
	C5.7219214,9.5292196,5.6432528,9.4899149,5.5645843,9.4407701C5.5055976,9.4112463,5.4466114,9.3719425,5.3876247,9.3227968
	c-0.1278138-0.0885096-0.2556276-0.1868-0.3637595-0.2949314C4.984561,8.9885006,4.9451971,8.9491968,4.9058928,8.9098921
	C4.8665886,8.8705282,4.8370652,8.8213825,4.797761,8.7820787C4.3946371,8.2905054,4.1586914,7.6711178,4.1586914,6.992744
	c0-0.6685324,0.2359457-1.28792,0.6292286-1.7794933c0.0393043-0.0393639,0.0688272-0.0885096,0.1179729-0.1278138
	C4.9354157,5.0460725,4.97472,5.0067682,5.0140243,4.967464c0.108192-0.1081915,0.2261648-0.2064824,0.3539786-0.285151
	c0.0589862-0.0491452,0.1179729-0.0982904,0.1868-0.1278138C5.6235704,4.5053539,5.702239,4.4660497,5.7809076,4.4365263
	C6.1545081,4.2497263,6.5674129,4.1514354,7,4.1514354c0.4424281,0,0.8553329,0.0982909,1.2289333,0.2850909
	c0.0786686,0.0295234,0.1474962,0.0688276,0.2162638,0.1179729c0.0688276,0.0393643,0.1376543,0.0786686,0.196641,0.1278138
	c0.1278143,0.08851,0.2359457,0.1769595,0.3441372,0.285151C9.02528,5.0067682,9.0645838,5.0460725,9.1039486,5.0854368
	c0.0393038,0.0393043,0.0688276,0.08845,0.1081314,0.1278138C9.6053629,5.704824,9.8413086,6.3242116,9.8413086,6.992744
	c0,0.6783738-0.2359457,1.2977614-0.6390696,1.7893348C9.1727762,8.8213825,9.1334114,8.8705282,9.0941076,8.9098921z
	 M9.0645838,5.6556787C9.1039486,5.704824,9.1235704,5.7539697,9.1235704,5.8129559
	c0.009841,0.0589867-0.0196218,0.1179729-0.0589867,0.1572771l-2.664289,2.6643496
	C6.3609304,8.6738863,6.3117852,8.6935682,6.26264,8.6935682S6.1643491,8.6738863,6.1249852,8.6345825L4.9354157,7.4351721
	c-0.0786686-0.0688276-0.0786686-0.1966414,0-0.27531l0.27525-0.2949319c0.0688276-0.0688276,0.1868005-0.0688276,0.2556276,0
	l0.7570424,0.7570424l2.290689-2.2809076c0.0393639-0.0295234,0.0786686-0.0393643,0.1179724-0.0393643
	c0.0393648,0,0.0786686,0.009841,0.1081915,0.0393643L9.0645838,5.6556787z"/>
</svg>
