<?xml version="1.0" encoding="utf-8"?>

<!--
 ~   Copyright (c) WSO2 Inc. (http://wso2.com) All Rights Reserved.
 ~
 ~   Licensed under the Apache License, Version 2.0 (the "License");
 ~   you may not use this file except in compliance with the License.
 ~   You may obtain a copy of the License at
 ~
 ~        http://www.apache.org/licenses/LICENSE-2.0
 ~
 ~   Unless required by applicable law or agreed to in writing, software
 ~   distributed under the License is distributed on an "AS IS" BASIS,
 ~   WITHOUT WARRANTIES OR CONDITIONS OF ANY KIND, either express or implied.
 ~   See the License for the specific language governing permissions and
 ~   limitations under the License.
-->

<svg version="1.1" id="transaction" xmlns="http://www.w3.org/2000/svg" xmlns:xlink="http://www.w3.org/1999/xlink" x="0px"
	 y="0px" viewBox="0 0 14 14" style="enable-background:new 0 0 14 14;" xml:space="preserve">
<path d="M10.9799805,6.7349854c0.0800171,0.1300049,0.2200317,0.2200317,0.3800049,0.2399902
	c0.0200195,0.0100098,0.039978,0.0100098,0.0599976,0.0100098c0.1400146,0,0.289978-0.0599976,0.4000244-0.1699829l1.9899902-2
	C13.9299927,4.6950073,14,4.5549927,14,4.414978c0-0.1399536-0.0700073-0.2799683-0.1900024-0.3999634l-2.0300293-2.0200195
	c-0.1599731-0.1500244-0.3900146-0.1900024-0.5899658-0.0899658c-0.210022,0.1099854-0.3200073,0.3399658-0.2700195,0.5699463
	C10.9400024,2.5750122,11,2.6849976,11.0799561,2.7650146c0.3800049,0.3699951,0.75,0.75,1.1300049,1.1300049h-0.6399536
	c-0.4900513,0-1.2900391,0-2.2400513,0C8.6799927,3.4050293,7.8699951,3.1149902,7,3.1149902
	c-0.8800049,0-1.6799927,0.2900391-2.3300171,0.7800293c-1.5300293,0-2.8300171,0-3.3499756,0
	c-0.1199951,0-0.5400391-0.0100098-0.6000366,0.4899902v0.0200195v0.0299683
	c0.0100098,0.2000122,0.1000366,0.3200073,0.1699829,0.3800049c0.1600342,0.1400146,0.3800049,0.1300049,0.4500122,0.1199951
	h2.3600464C3.3099976,5.5349731,3.0899658,6.2550049,3.0899658,7.0150146c0,0.75,0.210022,1.4400024,0.5800171,2.039978H1.789978
	L2.9199829,7.914978c0.1900024-0.1799927,0.2199707-0.4400024,0.0900269-0.6499634
	C2.9299927,7.1350098,2.789978,7.0349731,2.6399536,7.0250244c-0.0199585-0.0100098-0.039978-0.0100098-0.0699463-0.0100098
	c-0.1400146,0-0.2800293,0.0599976-0.3900146,0.1699829l-2,2C0.0599976,9.3049927,0,9.4450073,0,9.585022
	c0,0.1399536,0.0599976,0.2799683,0.1799927,0.3999634l2.0299683,2.0200195
	c0.1600342,0.1500244,0.3900146,0.1900024,0.5900269,0.0899658c0.2199707-0.1099854,0.3300171-0.3399658,0.2799683-0.5699463
	c-0.0299683-0.1000366-0.0899658-0.210022-0.1699829-0.2900391c-0.3699951-0.3699951-0.75-0.75-1.1300049-1.1300049h0.6500244
	c0.4799805,0,1.2600098,0,2.1799927,0C5.2699585,10.6149902,6.0999756,10.9249878,7,10.9249878
	c0.8999634,0,1.7199707-0.2999878,2.3800049-0.8200073c1.5,0,2.7799683,0,3.289978,0
	c0.1300049,0,0.5499878,0.0100098,0.5999756-0.4899902V9.5949707V9.5650024
	c-0.0099487-0.2000122-0.0999756-0.3200073-0.1699829-0.3800049c-0.1599731-0.1500244-0.3699951-0.1300049-0.4500122-0.1199951
	h-2.3299561c0.3699951-0.5999756,0.5799561-1.2999878,0.5799561-2.0499878c0-0.7600098-0.2199707-1.4700317-0.5999756-2.0700073
	h1.9099731l-1.1399536,1.1300049C10.8899536,6.2650146,10.8499756,6.5250244,10.9799805,6.7349854z M9.3999634,9.0650024
	c-0.4400024,0.5100098-1.039978,0.8900146-1.7199707,1.039978C7.4599609,10.1450195,7.2299805,10.1749878,7,10.1749878
	c-0.2300415,0-0.460022-0.0299683-0.6799927-0.0700073C5.6399536,9.9550171,5.0299683,9.5750122,4.5999756,9.0549927
	c-0.4799805-0.5499878-0.7600098-1.2600098-0.7600098-2.039978c0-0.7999878,0.2999878-1.5200195,0.7900391-2.0800171
	C5.1199951,4.375,5.8200073,3.9849854,6.5999756,3.8950195C6.7299805,3.875,6.8599854,3.8649902,7,3.8649902
	c0.1399536,0,0.2699585,0.0100098,0.3999634,0.0300293C8.1900024,3.9949951,8.8800049,4.375,9.3699951,4.9450073
	c0.4899902,0.5599976,0.7799683,1.2799683,0.7799683,2.0700073C10.1499634,7.7949829,9.8699951,8.5150146,9.3999634,9.0650024z
	 M9.1211548,5.5386353C9.1807251,5.6138306,9.210022,5.6929321,9.210022,5.7808228
	C9.2246704,5.8540649,9.1885376,5.956604,9.1123657,6.0337524L6.3223267,8.8233032
	C6.2608032,8.8867798,6.1777954,8.921936,6.0899048,8.921936c-0.0869141,0-0.1699219-0.0351562-0.2333984-0.1005859
	L4.6123657,7.5674438C4.553772,7.5176392,4.5166626,7.437561,4.5137329,7.3496704
	C4.5108032,7.2578735,4.546936,7.1680298,4.6133423,7.1026001L4.897522,6.796936
	c0.0595703-0.0610352,0.140625-0.0795898,0.2255859-0.09375c0.0830078,0,0.1640625,0.0332031,0.2226562,0.0908203
	l0.703125,0.7041016L8.359436,5.1987915c0.1484375-0.1181641,0.3173828-0.097168,0.4140625,0.0014648L9.1211548,5.5386353z"/>
</svg>
