<!DOCTYPE svg PUBLIC "-//W3C//DTD SVG 20010904//EN" "http://www.w3.org/TR/2001/REC-SVG-20010904/DTD/svg10.dtd">
<svg version="1.0" xmlns="http://www.w3.org/2000/svg" width="780px" height="780px" viewBox="0 0 7800 7800" preserveAspectRatio="xMidYMid meet">
<g id="layer1" fill="#ffffff" stroke="none">
 <path d="M447 7793 c-14 -13 -6 -184 12 -275 55 -267 204 -496 465 -717 365 -308 818 -578 1344 -800 105 -45 193 -81 197 -81 24 0 246 -119 311 -168 103 -76 155 -137 207 -242 l42 -85 0 -125 c0 -117 -2 -130 -32 -202 -49 -118 -106 -199 -246 -352 -357 -390 -496 -770 -514 -1406 -3 -137 -2 -214 6 -233 l11 -27 1692 2 1693 3 -1 165 c-3 616 -204 1149 -610 1617 -158 182 -224 323 -224 475 0 214 152 390 455 529 690 315 1287 635 1573 841 146 104 318 310 406 485 76 152 126 356 126 513 l0 90 -3453 0 c-1900 0 -3457 -3 -3460 -7z"/>
 <path d="M1527 2703 c-13 -12 -7 -184 8 -261 32 -155 100 -254 241 -348 130 -87 152 -127 214 -392 47 -203 84 -312 159 -459 78 -157 168 -280 296 -408 119 -118 230 -201 401 -301 119 -69 388 -189 407 -181 7 3 75 243 151 533 76 291 143 539 147 552 26 70 30 -7 29 -611 -1 -405 2 -634 9 -656 15 -48 58 -108 95 -130 53 -32 131 -43 271 -38 72 2 147 10 168 16 54 17 101 63 128 123 23 52 23 59 26 433 2 439 25 846 44 785 4 -14 65 -241 134 -505 70 -264 133 -487 141 -495 12 -12 24 -10 96 19 204 83 420 204 563 316 303 237 501 557 589 950 15 66 34 149 42 185 33 144 96 231 218 302 108 63 190 147 237 243 49 101 71 187 67 267 l-3 63 -2436 3 c-1340 1 -2439 -1 -2442 -5z"/>
 </g>

</svg>