<?xml version="1.0" encoding="utf-8"?>
<!-- Generator: Adobe Illustrator 19.2.1, SVG Export Plug-In . SVG Version: 6.00 Build 0)  -->
<svg version="1.1" id="annotation" xmlns="http://www.w3.org/2000/svg" xmlns:xlink="http://www.w3.org/1999/xlink" x="0px" y="0px"
	 viewBox="0 0 14 14" style="enable-background:new 0 0 14 14;" xml:space="preserve">
<style type="text/css">
	.st0{fill:#FFFFFF;}
</style>
<path class="st0" d="M13.4,6.3c-0.1-0.1-0.2-0.1-0.3-0.1c0.2-0.7,0.4-1.4,0.4-2c0-1-0.3-2-1-2.7C11.7,0.5,10.4,0,8.8,0.1
	C4.3,0.1,0,4.4,0,9c0,2.3,1.5,4.9,5.6,5c0,0,0,0,0.1,0c2.1,0,5.4-1.1,7-2.9c0.9-1,1.4-2.1,1.4-3.2C14,7.2,13.8,6.6,13.4,6.3z
	 M11.7,10.3c-1.3,1.5-4.1,2.9-6,2.9c0,0,0,0,0,0c-2.8,0-4.4-1.5-4.4-4.1c0-4.1,3.6-8,7.4-8.1c0,0,0,0,0.1,0c1.3,0,2.4,0.4,3,1.1
	c0.5,0.5,0.7,1.2,0.7,2c0,1.4-0.5,2.9-1.4,4.1C10.6,9,9.7,9.8,9.3,9.5C9.2,9.4,9.1,9.1,9.1,8.6c0.1-0.7,0.5-2,1.2-3.2
	c0.1-0.1,0.1-0.3,0-0.4c-0.2-0.3-0.8-0.4-0.9-0.4C9.2,4.6,9,4.8,7.6,6.6C7.5,6.7,7.4,6.8,7.3,6.9C6.8,7.5,5.9,8.3,5.4,8.8
	C5.1,9.1,4.5,9.5,4.2,9.5c-0.1,0-0.1,0-0.1-0.1C3.7,8.7,5.1,6.7,5.7,6C6.8,4.9,8.1,4.2,9,4.2c0.4,0,0.7,0.1,0.8,0.3l0,0
	c0.1,0.1,0.2,0.1,0.3,0.1c0.1,0,0.1-0.1,0.1-0.3c0-0.2-0.1-0.5-0.4-0.7C9.3,3.1,8.3,3.2,7.8,3.3C6.6,3.7,3.6,5.8,3,7.8
	C2.8,8.4,2.9,9,3.2,9.4c0.3,0.5,0.9,0.8,1.4,0.8c1.2,0,2.6-1.7,3.3-2.7c0,0,0.1-0.1,0.1-0.1C7.8,8.2,7.7,9.1,7.9,9.5
	c0.2,0.6,0.6,1,1.2,1c0,0,0,0,0,0c1,0,1.9-0.7,2.8-2c0.3-0.4,0.7-1.1,1-1.9c0,0,0,0,0.1,0.1c0.1,0.1,0.2,0.3,0.2,0.6
	C13.2,8,12.7,9.2,11.7,10.3z"/>
</svg>
