<?xml version="1.0" encoding="utf-8"?>

<!--
 ~   Copyright (c) WSO2 Inc. (http://wso2.com) All Rights Reserved.
 ~
 ~   Licensed under the Apache License, Version 2.0 (the "License");
 ~   you may not use this file except in compliance with the License.
 ~   You may obtain a copy of the License at
 ~
 ~        http://www.apache.org/licenses/LICENSE-2.0
 ~
 ~   Unless required by applicable law or agreed to in writing, software
 ~   distributed under the License is distributed on an "AS IS" BASIS,
 ~   WITHOUT WARRANTIES OR CONDITIONS OF ANY KIND, either express or implied.
 ~   See the License for the specific language governing permissions and
 ~   limitations under the License.
-->

<svg version="1.1" id="import" xmlns="http://www.w3.org/2000/svg" xmlns:xlink="http://www.w3.org/1999/xlink" x="0px" y="0px"
	 viewBox="0 0 14 14" style="enable-background:new 0 0 14 14;" xml:space="preserve">
<path d="M3.7,7.5c0-0.2,0-0.4,0-0.7c0-0.3,0.1-0.6,0.2-0.9C3.7,5.9,3.7,5.8,3.6,5.8C3.5,5.7,3.4,5.7,3.3,5.6c0,0,0,0,0,0
	C2.7,7.1,3,8.9,4.2,10.1c1.6,1.7,4.3,1.8,6,0.1c1.7-1.7,1.7-4.4,0.1-6.2C8.8,2.5,6.4,2.3,4.7,3.6C5,3.7,5.2,3.8,5.5,3.9
	c1.4-0.8,3.1-0.6,4.3,0.6c1.4,1.4,1.3,3.8-0.1,5.2c-1.4,1.4-3.7,1.4-5-0.1C4.1,9,3.8,8.3,3.7,7.5z M2.4,4.7c-0.1,0-0.1,0.1-0.2,0.1
	c0,0-0.1,0.1-0.1,0.1c0.1,0,0.2,0,0.2,0C2.6,5,2.9,5,3.1,5c0.2,0,0.3,0.1,0.5,0.1c0,0,0,0,0.1,0c0.1,0,0.3,0.1,0.4,0.2
	c0.1,0,0.1,0.1,0.2,0.1c0.1,0,0.1,0.1,0.2,0.1c0.1,0.1,0.2,0.2,0.3,0.2c0,0,0.1,0.1,0.1,0.1C4.9,5.9,5,6,5.1,6.1
	c0.1,0.1,0.2,0.2,0.3,0.3C5.1,6.6,4.8,7,4.8,7.1c0.1,0,2.6,0.2,2.8,0.3c0-0.2-0.5-2.8-0.5-3C7,4.5,6.6,4.8,6.5,5
	C6.4,5,6.3,4.9,6.2,4.9C6.1,4.8,5.9,4.8,5.8,4.7C5.6,4.6,5.5,4.6,5.3,4.5C5.2,4.5,5,4.4,4.8,4.4C4.5,4.3,4.3,4.3,4,4.3
	c-0.2,0-0.3,0-0.5,0C3.3,4.3,3,4.4,2.8,4.5c-0.1,0-0.1,0.1-0.2,0.1C2.5,4.6,2.5,4.7,2.4,4.7z M0.4,7c0-3.9,3-7,6.6-7s6.6,3.1,6.6,7
	s-3,7-6.6,7S0.4,10.9,0.4,7z"/>
</svg>
