<?xml version="1.0" encoding="utf-8"?>
<!-- Generator: Adobe Illustrator 21.0.0, SVG Export Plug-In . SVG Version: 6.00 Build 0)  -->
<svg version="1.1" id="Layer_1" xmlns="http://www.w3.org/2000/svg" xmlns:xlink="http://www.w3.org/1999/xlink" x="0px" y="0px"
	 viewBox="0 0 14 14" style="enable-background:new 0 0 14 14;" xml:space="preserve">
<style type="text/css">
	.st0{fill:#FFFFFF;}
</style>
<ellipse cx="7" cy="7" rx="6.6136446" ry="7"/>
<path class="st0" d="M2.2598617,4.8208876C2.3122249,4.7737412,2.360482,4.7320604,2.4182928,4.689086
	c0.0632586-0.0387187,0.1168818-0.0760603,0.1855476-0.1104813c0.0495579-0.0317926,0.1003356-0.0537806,0.1552193-0.0813589
	c0.2443748-0.108562,0.49932-0.1734824,0.7593062-0.1991C3.6771221,4.281373,3.8371387,4.2744889,3.9943094,4.2830005
	C4.2581983,4.286839,4.5204611,4.3160448,4.7811384,4.370409C4.9709144,4.4044547,5.1632109,4.4581933,5.3417659,4.518858
	c0.1472917,0.0448518,0.2862082,0.1009269,0.4252062,0.15696C5.92768,4.7489161,6.0800533,4.8330703,6.2407613,4.9061685
	c0.025856,0.0114317,0.1401768,0.0658798,0.2382765,0.1075191C6.637794,4.8467555,6.9677467,4.4962859,7.0587726,4.408752
	c0.0712676,0.1353483,0.5450563,2.8032131,0.539649,2.9490752c-0.1872549-0.0143943-2.733819-0.2460799-2.834805-0.2723231
	c0.058136-0.078021,0.3749576-0.4917836,0.5685549-0.7285175C5.2768807,6.2694526,5.1998811,6.1649375,5.073689,6.057085
	C4.9813218,5.9846129,4.9014764,5.8954515,4.8187442,5.8217282c-0.033906-0.0353808-0.0773659-0.0694685-0.1153779-0.0993414
	C4.6001849,5.6414447,4.4833031,5.5673876,4.3663397,5.49333C4.3078375,5.4562383,4.2548242,5.4234862,4.1976638,5.3962831
	C4.1392021,5.3592753,4.0765944,5.3277745,4.0152464,5.3061209C3.8912907,5.2530913,3.7577403,5.2013135,3.6254907,5.1593823
	C3.605082,5.152123,3.5845921,5.1449466,3.5642242,5.1377287C3.411485,5.0885792,3.2613473,5.0590816,3.1111693,5.0296254
	c-0.2347806-0.0429325-0.4807816-0.0592875-0.7225952-0.081192C2.3094196,4.9392543,2.2205486,4.9314103,2.1413536,4.9222317
	C2.1716819,4.8930674,2.2336395,4.844461,2.2598617,4.8208876z M3.2386215,5.5952997
	C2.6907599,7.110496,3.0047762,8.8813677,4.177011,10.1188583c1.6344376,1.7255192,4.3219104,1.7644882,6.003263,0.0871172
	c1.6813126-1.6774139,1.7192831-4.435441,0.0848465-6.1609607c-1.501009-1.5846224-3.8966632-1.7483833-5.577569-0.4530232
	c0.2744594,0.0784383,0.5389991,0.176528,0.8032947,0.294436c1.374126-0.7837999,3.1404462-0.5597081,4.284101,0.6476171
	c1.3676214,1.443809,1.3356266,3.7653356-0.0711861,5.1688399C8.2969494,11.106473,6.0348048,11.073596,4.6671839,9.6298285
	C4.1001334,9.0311937,3.7720912,8.2821903,3.6907821,7.511992C3.6600471,7.2882757,3.658299,7.0650182,3.6710646,6.8369627
	c0.018579-0.2924333,0.0709016-0.5794845,0.1618459-0.8659096C3.7420881,5.8952847,3.6606569,5.8395433,3.5887797,5.7938576
	C3.4784837,5.7277269,3.3729849,5.666687,3.2578104,5.6054382C3.2530131,5.6004314,3.2433374,5.6002645,3.2386215,5.5952997z"/>
</svg>
