<?xml version="1.0" encoding="utf-8"?>
<!-- Generator: Adobe Illustrator 21.0.0, SVG Export Plug-In . SVG Version: 6.00 Build 0)  -->
<svg version="1.1" id="Layer_1" xmlns="http://www.w3.org/2000/svg" xmlns:xlink="http://www.w3.org/1999/xlink" x="0px" y="0px"
	 viewBox="0 0 14 14" style="enable-background:new 0 0 14 14;" xml:space="preserve">
<style type="text/css">
	.st0{fill:#010101;}
	.st1{fill:#FFFFFF;}
</style>
<ellipse class="st0" cx="7" cy="7" rx="6.6136446" ry="7"/>
<path class="st1" d="M12.0239382,4.9222317c-0.079195,0.0091786-0.168066,0.0170226-0.247221,0.0262017
	c-0.2418137,0.0219045-0.4878139,0.0382595-0.7225943,0.081192c-0.1501789,0.0294561-0.3003159,0.0589538-0.4530554,0.1081033
	c-0.0203676,0.0072179-0.0408583,0.0143943-0.0612669,0.0216537c-0.1322489,0.0419312-0.2657995,0.093709-0.3897552,0.1467385
	c-0.061348,0.0216537-0.1239557,0.0531545-0.1824169,0.0901623C9.9104681,5.4234862,9.8574543,5.4562383,9.7989521,5.49333
	C9.6819887,5.5673876,9.5651064,5.6414447,9.4619255,5.7223868C9.423913,5.7522597,9.3804531,5.7863474,9.3465471,5.8217282
	C9.2638159,5.8954515,9.1839695,5.9846129,9.0916023,6.057085c-0.1261921,0.1078525-0.2031918,0.2123675-0.258482,0.2999015
	C9.0267181,6.5937204,9.3435392,7.007483,9.4016752,7.0855041C9.3006887,7.1117473,6.7541251,7.3434329,6.5668697,7.3578272
	C6.5614629,7.2119651,7.0352516,4.5441003,7.1065192,4.408752c0.0910258,0.087534,0.4209785,0.4380035,0.5797348,0.6049356
	c0.0980997-0.0416393,0.2124205-0.0960875,0.2382765-0.1075191c0.160708-0.0730982,0.3130813-0.1572523,0.4737887-0.2303505
	c0.138998-0.0560331,0.277915-0.1121082,0.4252071-0.15696c0.1785545-0.0606647,0.3708506-0.1144032,0.560627-0.1484489
	c0.2606773-0.0543642,0.5229397-0.08357,0.786829-0.0874085c0.1571703-0.0085115,0.3171873-0.0016274,0.4759436,0.0151453
	c0.2599859,0.0256176,0.5149317,0.090538,0.759306,0.1991c0.054884,0.0275784,0.1056614,0.0495663,0.1552191,0.0813589
	c0.0686665,0.034421,0.1222897,0.0717626,0.1855478,0.1104813c0.0578108,0.0429745,0.1060677,0.0846553,0.1584311,0.1318016
	C11.9316521,4.844461,11.9936094,4.8930674,12.0239382,4.9222317z M10.9074812,5.6054382
	c-0.1151743,0.0612488-0.2206736,0.1222887-0.3309689,0.1884193c-0.0718775,0.0456858-0.1533089,0.1014271-0.2441311,0.1771955
	c0.0909443,0.2864251,0.1432667,0.5734763,0.1618462,0.8659096c0.0127649,0.2280555,0.0110168,0.451313-0.0197172,0.6750293
	c-0.0813093,0.7701983-0.4093513,1.5192018-0.9764023,2.1178365C8.1304865,11.073596,5.8683424,11.106473,4.4615302,9.7028847
	C3.0547183,8.2993803,3.022723,5.9778538,4.3903441,4.5340447c1.1436548-1.2073252,2.9099755-1.431417,4.284101-0.6476171
	c0.2642956-0.117908,0.5288353-0.2159977,0.8032951-0.294436c-1.6809058-1.2953601-4.07656-1.1315992-5.577569,0.4530232
	c-1.6344373,1.7255197-1.5964658,4.4835467,0.084846,6.1609607c1.6813529,1.677371,4.3688259,1.638402,6.0032625-0.0871172
	c1.1722355-1.2374907,1.4862518-3.0083623,0.9383898-4.5235586C10.9219542,5.6002645,10.9122782,5.6004314,10.9074812,5.6054382z"/>
</svg>
