<?xml version="1.0" encoding="utf-8"?>
<!-- Generator: Adobe Illustrator 19.2.1, SVG Export Plug-In . SVG Version: 6.00 Build 0)  -->
<svg version="1.1" id="dmg-resource" xmlns="http://www.w3.org/2000/svg" xmlns:xlink="http://www.w3.org/1999/xlink" x="0px"
	 y="0px" viewBox="0 0 14 14" style="enable-background:new 0 0 14 14;" xml:space="preserve">
<style type="text/css">
	.st0{fill:#FFFFFF;}
</style>
<path class="st0" d="M4.4,13.2C4.3,13.7,3.9,14,3.5,14c-0.5,0-0.8-0.4-0.8-0.9c0-0.3,1.1-6.8,1.1-8.2c0-1.8-0.4-2.4-0.9-3
	C2.7,1.8,2.7,1.6,2.7,1.4c0-0.5,0.4-0.9,0.8-0.9c0.8,0,1.9,1.4,1.8,3.4c0.9-2.6,3-3.8,5-3.8c0.5,0,1,0.4,1,0.9
	c0,0.5-0.4,0.8-0.8,0.8c-4.2,0.2-5,5.1-5.9,10.2L4.4,13.2z"/>
</svg>
