<?xml version="1.0" encoding="utf-8"?>

<!--
 ~   Copyright (c) WSO2 Inc. (http://wso2.com) All Rights Reserved.
 ~
 ~   Licensed under the Apache License, Version 2.0 (the "License");
 ~   you may not use this file except in compliance with the License.
 ~   You may obtain a copy of the License at
 ~
 ~        http://www.apache.org/licenses/LICENSE-2.0
 ~
 ~   Unless required by applicable law or agreed to in writing, software
 ~   distributed under the License is distributed on an "AS IS" BASIS,
 ~   WITHOUT WARRANTIES OR CONDITIONS OF ANY KIND, either express or implied.
 ~   See the License for the specific language governing permissions and
 ~   limitations under the License.
-->

<svg version="1.1" id="edit" xmlns="http://www.w3.org/2000/svg" xmlns:xlink="http://www.w3.org/1999/xlink" x="0px" y="0px"
	 viewBox="0 0 14 14" style="enable-background:new 0 0 14 14;" xml:space="preserve">
<path d="M4.4044056,12.8034487c-1.100646-1.0980396-2.2012923-2.1960783-3.2018797-3.1942959
	c2.5014684-2.495544,4.9807644-5.0068727,7.482233-7.5024166c1.100646,1.0980392,2.223464,2.2118635,3.2240515,3.2100811
	C9.407342,7.9121828,6.9058743,10.3079052,4.4044056,12.8034487z M12.3509569,4.8605561
	C11.2503099,3.7625167,10.229187,2.747021,9.128541,1.6489818l1.5969906-1.6406168l3.2681103,3.1730371
	C13.9936419,3.1814022,12.3701859,4.841372,12.3509569,4.8605561z M3.8580439,13.3564196
	c-1.100646-1.0980396-2.101922-2.0969439-3.2025681-3.1949825C0.4553584,11.3592978,0.2001175,12.7023182,0,14
	C-0.0000001,14.000001,2.6573389,13.5560637,3.8580439,13.3564196z"/>
</svg>
