<?xml version="1.0" encoding="UTF-8" standalone="no"?>
<!-- Generator: Adobe Illustrator 21.0.0, SVG Export Plug-In . SVG Version: 6.00 Build 0)  -->

<svg
   xmlns:dc="http://purl.org/dc/elements/1.1/"
   xmlns:cc="http://creativecommons.org/ns#"
   xmlns:rdf="http://www.w3.org/1999/02/22-rdf-syntax-ns#"
   xmlns:svg="http://www.w3.org/2000/svg"
   xmlns="http://www.w3.org/2000/svg"
   xmlns:sodipodi="http://sodipodi.sourceforge.net/DTD/sodipodi-0.dtd"
   xmlns:inkscape="http://www.inkscape.org/namespaces/inkscape"
   version="1.1"
   id="Layer_1"
   x="0px"
   y="0px"
   viewBox="0 0 14 14"
   style="enable-background:new 0 0 14 14;"
   xml:space="preserve"
   inkscape:version="0.91 r13725"
   sodipodi:docname="resource.svg"><metadata
     id="metadata13"><rdf:RDF><cc:Work
         rdf:about=""><dc:format>image/svg+xml</dc:format><dc:type
           rdf:resource="http://purl.org/dc/dcmitype/StillImage" /></cc:Work></rdf:RDF></metadata><defs
     id="defs11" /><sodipodi:namedview
     pagecolor="#ffffff"
     bordercolor="#666666"
     borderopacity="1"
     objecttolerance="10"
     gridtolerance="10"
     guidetolerance="10"
     inkscape:pageopacity="0"
     inkscape:pageshadow="2"
     inkscape:window-width="1859"
     inkscape:window-height="1056"
     id="namedview9"
     showgrid="false"
     inkscape:zoom="16.857143"
     inkscape:cx="-1.779661"
     inkscape:cy="7"
     inkscape:window-x="61"
     inkscape:window-y="24"
     inkscape:window-maximized="1"
     inkscape:current-layer="Layer_1" /><style
     type="text/css"
     id="style3">
	.st0{fill:#010101;}
	.st1{stroke:#000000;stroke-width:0.25;}
</style><path
     class="st0"
     d="M 0,7.8653646 0,6.6141009 C 0.2132496,6.6001983 0.3739171,6.561965 0.4820025,6.499402 0.5900879,6.4368386 0.6835672,6.3316979 0.7624403,6.1839795 0.8413134,6.0362606 0.8953561,5.8511782 0.9245684,5.6287312 c 0.02337,-0.1668353 0.035055,-0.4570589 0.035055,-0.8706708 0,-0.6742916 0.026291,-1.1443846 0.078873,-1.4102781 C 1.0910785,3.0818888 1.1860183,2.8681313 1.323316,2.7065098 1.4606136,2.5448885 1.6607177,2.4171552 1.9236281,2.3233106 2.1018231,2.2607474 2.3822608,2.2294657 2.7649415,2.2294657 l 0.2322375,0 0,1.2460499 c -0.3242562,0 -0.5323935,0.021723 -0.6244123,0.06517 -0.092019,0.043447 -0.1599371,0.1094856 -0.2037556,0.1981168 -0.043818,0.088631 -0.065727,0.2406943 -0.065727,0.4561899 0,0.2189708 -0.013146,0.6343207 -0.039437,1.2460494 -0.014606,0.3440976 -0.052582,0.6230249 -0.1139278,0.8367824 -0.061346,0.2137575 -0.1394887,0.390151 -0.2344285,0.52918 -0.09494,0.1390295 -0.240271,0.2832723 -0.4359932,0.4327288 0.1723524,0.118175 0.3133017,0.2563353 0.4228476,0.4144812 0.1095461,0.1581454 0.1935313,0.3501797 0.2519559,0.5761023 0.058425,0.2259226 0.096401,0.5283117 0.113928,0.9071655 0.020448,0.576972 0.030673,0.9453991 0.030673,1.1052831 0,0.229398 0.02337,0.389282 0.070109,0.479651 0.04674,0.09037 0.1175795,0.159015 0.2125194,0.205936 0.09494,0.04692 0.3001561,0.07038 0.6156485,0.07038 l 0,1.251264 -0.2322376,0 C 2.370576,12.25 2.068229,12.212636 1.8579004,12.137907 1.6475721,12.063179 1.4701076,11.938922 1.3255067,11.765135 1.180906,11.591349 1.0837752,11.376722 1.0341144,11.121256 0.9844534,10.865789 0.959623,10.463473 0.959623,9.9143086 c 0,-0.639535 -0.02337,-1.0548849 -0.07011,-1.2460499 C 0.8252465,8.3901997 0.7281157,8.1912136 0.5981211,8.0713015 0.4681265,7.9513888 0.2687529,7.8827429 0,7.8653646 Z m 14,0 c -0.213784,0.013903 -0.374854,0.052136 -0.48321,0.1146989 -0.108356,0.062564 -0.201337,0.1677046 -0.278944,0.315423 -0.07761,0.1477184 -0.132516,0.3328009 -0.164731,0.5552483 -0.02343,0.1668348 -0.03514,0.4553204 -0.03514,0.8654566 0,0.6742916 -0.02562,1.1452546 -0.07687,1.4128846 -0.05125,0.267632 -0.145696,0.482258 -0.283337,0.64388 -0.137642,0.161621 -0.339711,0.289354 -0.606209,0.383199 -0.178641,0.06256 -0.459781,0.09384 -0.843421,0.09384 l -0.232819,0 0,-1.251264 c 0.313354,0 0.518352,-0.02346 0.614994,-0.07038 0.09664,-0.04692 0.167659,-0.114698 0.213051,-0.20333 0.04539,-0.08863 0.06882,-0.238956 0.07029,-0.450976 0.0015,-0.212019 0.01391,-0.6169415 0.03734,-1.2147675 0.01464,-0.3614759 0.05418,-0.6508312 0.118607,-0.8680649 0.06443,-0.2172327 0.150087,-0.4014463 0.25698,-0.5526404 C 12.41346,7.4873786 12.55037,7.3544321 12.717297,7.2397328 12.500584,7.0728975 12.342443,6.9095383 12.242873,6.7496548 12.105231,6.5202565 12.011517,6.2282949 11.961733,5.8737703 c -0.03222,-0.2433014 -0.05564,-0.778564 -0.07029,-1.6057878 -0.0029,-0.2606802 -0.0227,-0.4344666 -0.0593,-0.5213599 -0.03661,-0.086893 -0.1025,-0.1538012 -0.197678,-0.2007234 -0.09518,-0.046922 -0.308229,-0.070384 -0.639154,-0.070384 l 0,-1.24605 0.232819,0 c 0.395353,0 0.698458,0.036495 0.909313,0.1094856 0.210855,0.07299 0.388032,0.1972477 0.531531,0.3727722 0.143499,0.1755245 0.240873,0.3910198 0.292123,0.646486 0.05125,0.2554662 0.07687,0.6577821 0.07687,1.2069478 0,0.6360588 0.02196,1.0514088 0.06589,1.2460499 0.06443,0.2780585 0.162534,0.4770441 0.294319,0.5969567 0.131784,0.1199126 0.33239,0.1885587 0.601816,0.205937 l 0,1.2512637 z"
     id="path5"
     style="fill:#ffffff"
     inkscape:connector-curvature="0" /><path
     class="st1"
     d="M7.1210938,7.4047852c0.8564453,0,1.5117188-0.1767578,1.9658203-0.53125  s0.6806641-0.8276367,0.6806641-1.4194336c0-0.3120117-0.0693359-0.5961914-0.2089844-0.8535156  C9.4199219,4.34375,9.2294922,4.1342773,8.9882812,3.9716797C8.7460938,3.809082,8.4609375,3.6938477,8.1318359,3.6254883  c-0.3300781-0.0683594-0.9335938-0.1025391-1.8125-0.1025391H4.6723633v7.1401367h0.9443359V7.4047852h0.3295898  l2.8330078,3.2583008h1.1855469L7.1210938,7.4047852z M5.6166992,6.5854492V4.3422852h1.3178711  c0.6367188,0,1.1054688,0.0893555,1.4052734,0.2680664C8.640625,4.7895508,8.7900391,5.0756836,8.7900391,5.46875  c0,0.3935547-0.1533203,0.6796875-0.4609375,0.8583984C8.0214844,6.5063477,7.5458984,6.5922852,6.9013672,6.5854492H5.6166992z"
     id="path7"
     style="fill:#ffffff;stroke-width:0;stroke-miterlimit:4;stroke-dasharray:none" /></svg>