<?xml version="1.0" encoding="utf-8"?>

<!--
 ~   Copyright (c) WSO2 Inc. (http://wso2.com) All Rights Reserved.
 ~
 ~   Licensed under the Apache License, Version 2.0 (the "License");
 ~   you may not use this file except in compliance with the License.
 ~   You may obtain a copy of the License at
 ~
 ~        http://www.apache.org/licenses/LICENSE-2.0
 ~
 ~   Unless required by applicable law or agreed to in writing, software
 ~   distributed under the License is distributed on an "AS IS" BASIS,
 ~   WITHOUT WARRANTIES OR CONDITIONS OF ANY KIND, either express or implied.
 ~   See the License for the specific language governing permissions and
 ~   limitations under the License.
-->

<svg version="1.1" id="action" xmlns="http://www.w3.org/2000/svg" xmlns:xlink="http://www.w3.org/1999/xlink" x="0px" y="0px"
	 viewBox="0 0 14 14" style="enable-background:new 0 0 14 14;" xml:space="preserve">
<path d="M7.9,0.5L8,1.6v0.3L8.4,2c0.4,0.1,0.8,0.3,1.2,0.5l0.3,0.2l0.3-0.2L11,1.8L12.2,3l-0.7,0.9l-0.2,0.3l0.2,0.3
	c0.2,0.3,0.4,0.7,0.5,1.1l0.1,0.3h0.3L13.5,6v1.8L12.4,8h-0.3L12,8.4c-0.1,0.4-0.3,0.8-0.5,1.2l-0.2,0.3l0.2,0.3l0.7,0.8L11,12.2
	l-0.8-0.6l-0.3-0.2l-0.3,0.2c-0.4,0.2-0.8,0.4-1.3,0.5L8,12.2v0.3l-0.1,1H6.1l-0.1-1v-0.3l-0.3-0.1c-0.4-0.1-0.9-0.3-1.3-0.5L4,11.4
	l-0.3,0.2L3,12.2L1.7,11l0.6-0.8l0.2-0.3L2.4,9.6C2.2,9.2,2,8.8,1.9,8.4V8.1L1.5,8l-1-0.1V6.2l1-0.1h0.3L2,5.7
	c0.1-0.4,0.3-0.8,0.5-1.2l0.2-0.3L2.4,3.9L1.8,3L3,1.8l0.9,0.7l0.3,0.2l0.3-0.2C4.8,2.3,5.2,2.1,5.6,2L6,1.9V1.6l0.1-1.1L7.9,0.5
	 M7,10.2c1.8,0,3.3-1.5,3.3-3.3S8.8,3.6,7,3.6C5.2,3.7,3.7,5.2,3.7,7S5.2,10.2,7,10.2 M8.4,0H5.7L5.5,1.5C5,1.7,4.6,1.8,4.2,2.1
	L3,1.1L1.1,3L2,4.2C1.8,4.6,1.6,5.1,1.5,5.5L0,5.7v2.6l1.4,0.2C1.6,9,1.8,9.4,2,9.8L1.1,11L3,12.9L4.1,12c0.4,0.3,0.9,0.4,1.4,0.6
	L5.6,14h2.6l0.2-1.4c0.5-0.1,1-0.3,1.4-0.6l1.2,0.9l1.8-1.9L12,9.8c0.2-0.4,0.4-0.9,0.5-1.3L14,8.3V5.7l-1.6-0.2
	c-0.1-0.4-0.3-0.8-0.5-1.2l1-1.2l-1.9-2l-1.2,1C9.4,1.9,9,1.7,8.5,1.6L8.4,0L8.4,0z M7,9.7C5.5,9.7,4.2,8.5,4.2,7S5.5,4.2,7,4.2
	S9.7,5.5,9.7,7S8.5,9.7,7,9.7L7,9.7z"/>
</svg>
