<?xml version="1.0" encoding="utf-8"?>
<!--
 ~   Copyright (c) WSO2 Inc. (http://wso2.com) All Rights Reserved.
 ~
 ~   Licensed under the Apache License, Version 2.0 (the "License");
 ~   you may not use this file except in compliance with the License.
 ~   You may obtain a copy of the License at
 ~
 ~        http://www.apache.org/licenses/LICENSE-2.0
 ~
 ~   Unless required by applicable law or agreed to in writing, software
 ~   distributed under the License is distributed on an "AS IS" BASIS,
 ~   WITHOUT WARRANTIES OR CONDITIONS OF ANY KIND, either express or implied.
 ~   See the License for the specific language governing permissions and
 ~   limitations under the License.
-->
<svg version="1.1" id="function" xmlns="http://www.w3.org/2000/svg" xmlns:xlink="http://www.w3.org/1999/xlink" x="0px" y="0px"
	 viewBox="0 0 14 14" style="enable-background:new 0 0 14 14;" xml:space="preserve">
<path d="M8.2,4.9l-0.8,3c-0.4,1.4-0.7,2.5-1.1,3.3c-0.5,1.1-1.1,1.9-1.7,2.3c-0.5,0.3-1,0.5-1.5,0.5c-0.4,0-0.7-0.1-0.9-0.3
	C2.1,13.5,2,13.3,2,13c0-0.2,0.1-0.4,0.3-0.6c0.3-0.3,0.8-0.3,1.1,0c0.1,0.1,0.2,0.3,0.2,0.4c0,0.1,0,0.2-0.1,0.4
	c0.1,0,0.2-0.1,0.4-0.2C4,13,4.2,12.8,4.4,12.6c0.2-0.2,0.3-0.6,0.5-1.1c0.1-0.2,0.2-0.8,0.5-2l1.2-4.6H5.3l0.2-1h0.2
	c0.5,0,0.7,0,0.8-0.1c0.1,0,0.2-0.1,0.3-0.2C6.9,3.5,7,3.3,7.3,2.8c0.3-0.6,0.6-1.1,0.8-1.4c0.4-0.4,0.8-0.8,1.2-1
	c0.9-0.5,1.7-0.4,2.3,0C11.9,0.6,12,0.8,12,1.1c0,0.2-0.1,0.4-0.2,0.6C11.5,2,11,2.1,10.7,1.8c-0.1-0.1-0.2-0.3-0.2-0.5
	c0-0.1,0-0.3,0.1-0.4c0,0,0-0.1,0-0.1c0,0,0,0-0.1,0c-0.2,0-0.5,0.1-0.7,0.2C9.6,1.3,9.3,1.6,9.1,2.1C9,2.4,8.7,3,8.5,3.9h1l-0.3,1
	H8.2z"/>
</svg>
