<?xml version="1.0" encoding="utf-8"?>

<!--
 ~   Copyright (c) WSO2 Inc. (http://wso2.com) All Rights Reserved.
 ~
 ~   Licensed under the Apache License, Version 2.0 (the "License");
 ~   you may not use this file except in compliance with the License.
 ~   You may obtain a copy of the License at
 ~
 ~        http://www.apache.org/licenses/LICENSE-2.0
 ~
 ~   Unless required by applicable law or agreed to in writing, software
 ~   distributed under the License is distributed on an "AS IS" BASIS,
 ~   WITHOUT WARRANTIES OR CONDITIONS OF ANY KIND, either express or implied.
 ~   See the License for the specific language governing permissions and
 ~   limitations under the License.
-->

<svg version="1.1" id="worker" xmlns="http://www.w3.org/2000/svg" xmlns:xlink="http://www.w3.org/1999/xlink" x="0px" y="0px"
	 viewBox="0 0 14 14" style="enable-background:new 0 0 14 14;" xml:space="preserve">
<style type="text/css">
	.st0{fill:#1B79B4;}
</style>
<path class="st0" d="M7,2.2984221c-0.5629997,0-1.107481,0.0795832-1.6228838,0.2280874l1.234508-1.8295958L5.5859199,0
	L2.9465656,3.8844733l3.7729545,2.5635462l0.7353787-1.0822797L5.5550051,4.052465
	C5.7058048,3.9991548,5.8512993,3.9338045,6.008986,3.8969722C6.3276243,3.8226943,6.6597824,3.783566,7,3.783566
	c0.0904493,0,0.1809497,0.0027037,0.2700214,0.008111c2.2817402,0.140393,4.0949602,2.0413589,4.0949602,4.3581977
	c0,2.4072876-1.9576941,4.3649826-4.3649817,4.3649826c-2.4005027,0-4.3527889-1.9455538-4.3649817-4.3434038V8.1498747
	c0-0.5306058,0.0958569-1.0396318,0.2700725-1.5108051c0.0647886-0.176868,0.1417189-0.3483286,0.228138-0.5143819
	C3.1561854,6.0801005,3.1804683,6.036942,3.2061291,5.9937325c0.0094376-0.017549,0.1359971-0.1996617,0.1468122-0.2172618
	C3.0829194,5.5307832,2.1786904,4.9730277,2.1219618,4.919003C1.5076923,5.8451772,1.1498742,6.9550047,1.1498742,8.1498747
	C1.1498742,11.3807459,3.7691286,14,7,14s5.8501253-2.6192541,5.8501253-5.8501253
	C12.8501253,4.9176764,10.2308712,2.2984221,7,2.2984221z"/>
</svg>
