<?xml version="1.0" encoding="utf-8"?>

<!--
 ~   Copyright (c) WSO2 Inc. (http://wso2.com) All Rights Reserved.
 ~
 ~   Licensed under the Apache License, Version 2.0 (the "License");
 ~   you may not use this file except in compliance with the License.
 ~   You may obtain a copy of the License at
 ~
 ~        http://www.apache.org/licenses/LICENSE-2.0
 ~
 ~   Unless required by applicable law or agreed to in writing, software
 ~   distributed under the License is distributed on an "AS IS" BASIS,
 ~   WITHOUT WARRANTIES OR CONDITIONS OF ANY KIND, either express or implied.
 ~   See the License for the specific language governing permissions and
 ~   limitations under the License.
-->

<svg version="1.1" id="variable" xmlns="http://www.w3.org/2000/svg" xmlns:xlink="http://www.w3.org/1999/xlink" x="0px" y="0px"
	 viewBox="0 0 14 14" style="enable-background:new 0 0 14 14;" xml:space="preserve">
<path d="M7,0c3.8699999,0,7,3.1300001,7,7s-3.1300001,7-7,7s-7-3.1300001-7-7S3.1300001,0,7,0z M10.9200001,7.2199998V6.77
	h-0.0600004c-0.4200001,0-0.4799995-0.21-0.4799995-0.4299998c0-0.1800003,0.0299997-0.3600001,0.0599995-0.54v-0.02
	C10.46,5.5999999,10.4899998,5.4200001,10.4899998,5.2399998c0-0.5799999-0.3699999-0.9099998-1.0199995-0.9099998H9.2799997
	v0.4700003H9.46c0.3199997,0.0099998,0.46,0.1599998,0.46,0.5099998c0,0.1100001-0.0100002,0.23-0.0299997,0.3600001
	L9.8699999,5.7800002C9.8500004,5.9400001,9.8199997,6.0999999,9.8199997,6.27c0,0.3600001,0.1300001,0.5999999,0.3800001,0.7199998
	C10.0100002,7.0799999,9.8199997,7.2800002,9.8199997,7.71c0,0.1799998,0.0300007,0.3400002,0.0600004,0.5100002
	c0,0.04,0.0100002,0.0799999,0.0100002,0.1099997c0.0199995,0.1199999,0.0299997,0.2399998,0.0299997,0.3500004
	c0,0.3499994-0.1400003,0.5099993-0.4700003,0.5199995H9.2799997v0.4700003h0.1999998
	c0.6500006,0,1.0100002-0.3400002,1.0100002-0.9499998c0-0.1900005-0.0299997-0.3900003-0.0500002-0.5500002
	C10.4099998,8,10.3800001,7.8200002,10.3800001,7.6500001c0-0.1900001,0.0500002-0.4300003,0.4799995-0.4300003H10.9200001z
	 M7.25,8.9099998l1.3699999-3.8199997H7.98L7.3400002,6.96C7.21,7.3299999,7.0700002,7.75,6.9699998,8.1499996
	C6.8800001,7.79,6.7600002,7.4000001,6.6199999,6.96L6.02,5.0900002H5.3899999l1.25,3.8199997H7.25z M4.7199998,9.6700001V9.1999998
	H4.54c-0.3200002,0-0.46-0.1599998-0.46-0.5199995c0-0.1500006,0.02-0.29,0.04-0.46
	c0.04-0.1900005,0.0500002-0.3500004,0.0500002-0.5100002C4.1799998,7.2800002,3.99,7.0799999,3.79,6.9899998
	C4.0500002,6.8699999,4.1799998,6.6300001,4.1700001,6.27c0-0.1900001-0.02-0.3499999-0.0500002-0.5
	c-0.0299997-0.1900001-0.04-0.3299999-0.04-0.46c0-0.3600001,0.1399999-0.5099998,0.46-0.5099998h0.1799998V4.3299999H4.52
	c-0.6399999,0-1.01,0.3299999-1.01,0.9099998c0,0.1900001,0.03,0.3600001,0.05,0.5400004v0.02
	c0.03,0.1799998,0.0599999,0.3599997,0.0599999,0.54C3.6199999,6.5599999,3.5599999,6.77,3.1400001,6.77H3.0799999v0.4499998
	h0.0600002c0.4299998,0,0.4799998,0.2400002,0.4799998,0.4300003c0,0.1700001-0.03,0.3499999-0.0599999,0.52
	C3.54,8.3699999,3.51,8.54,3.51,8.7200003c0,0.6199999,0.3499999,0.9499998,1.01,0.9499998H4.7199998z"/>
</svg>
