<?xml version="1.0" encoding="utf-8"?>

<!--
 ~   Copyright 2017, WSO2 Inc. (http://www.wso2.com)
 ~
 ~   Licensed under the Apache License, Version 2.0 (the "License");
 ~   you may not use this file except in compliance with the License.
 ~   You may obtain a copy of the License at
 ~
 ~        http://www.apache.org/licenses/LICENSE-2.0
 ~
 ~   Unless required by applicable law or agreed to in writing, software
 ~   distributed under the License is distributed on an "AS IS" BASIS,
 ~   WITHOUT WARRANTIES OR CONDITIONS OF ANY KIND, either express or implied.
 ~   See the License for the specific language governing permissions and
 ~   limitations under the License.
-->

<svg version="1.1" id="etcd" xmlns="http://www.w3.org/2000/svg" xmlns:xlink="http://www.w3.org/1999/xlink" x="0px" y="0px"
	 viewBox="0 0 14 14" style="enable-background:new 0 0 14 14;" xml:space="preserve">
<path d="M9.4140015,6.2510376c0,0.5049438-0.4086914,0.913269-0.9127197,0.913269
	c-0.5042114,0-0.9133301-0.4083862-0.9133301-0.913269c0-0.5029297,0.4091187-0.9129028,0.9133301-0.9129028
	C9.0053101,5.3381348,9.4140015,5.7481079,9.4140015,6.2510376z M5.4946289,5.3383179
	c-0.5045166,0-0.9125366,0.4099731-0.9125366,0.9127197c0,0.5049438,0.407959,0.913269,0.9125366,0.913269
	c0.5041504,0,0.913208-0.4083862,0.913208-0.913269C6.4078369,5.748291,5.9987793,5.3383179,5.4946289,5.3383179z M14,7.225708
	l-0.0188599,0.2004395c-0.0970459,1.0143433-0.4124146,1.9805908-0.9375,2.8717651l-0.1018066,0.1732788l-0.1535645-0.130188
	c-0.3582153-0.3027954-0.7907715-0.5028687-1.2495117-0.5829468c-0.302002,0.6172485-0.659668,1.1968384-1.0654297,1.7350464
	c-0.6444702,0.2255249-1.315918,0.394043-2.0091553,0.4946289c-0.0667114,0.4603271-0.0135498,0.9369507,0.1675415,1.3771362
	l0.0767212,0.1869507l-0.1970825,0.043335l-1.5106201,0.1673584c-0.4981079,0-1.0068359-0.0564575-1.5110474-0.1673584
	l-0.1969604-0.043335l0.0765991-0.1865234c0.1815796-0.4402466,0.2347412-0.9163208,0.1679688-1.3765869
	c-0.6959839-0.1005249-1.3699341-0.2693481-2.0167236-0.4956055c-0.4053955-0.5377808-0.7627563-1.1169434-1.06427-1.7333984
	c-0.4573364,0.0805664-0.8874512,0.2805176-1.2434082,0.5824585l-0.1536255,0.1303711l-0.1022949-0.1737061
	C0.4328613,9.4086914,0.1174316,8.4424438,0.0188599,7.4264526L0,7.225647l0.2011108,0.0153198
	C0.265686,7.2463989,0.3320923,7.2489624,0.4031372,7.2489624c0.40448,0,0.7973633-0.0944214,1.1519775-0.2677002
	C1.4359131,6.2911377,1.3880005,5.6004028,1.4030762,4.9174194c0.3860474-0.5563354,0.8272095-1.0820312,1.3242188-1.565979
	c-0.2159424-0.4033203-0.53479-0.7501221-0.9326172-0.996582l-0.1712036-0.105957l0.1339111-0.1509399
	c0.6767578-0.7631836,1.5205078-1.378418,2.4398193-1.7789917l0.1849365-0.0803833l0.0474854,0.196167
	c0.1105957,0.4560547,0.342041,0.8676147,0.6593628,1.1983032c0.6120605-0.3249512,1.2506104-0.5872803,1.9087524-0.7860718
	c0.659668,0.1992188,1.2993164,0.4622803,1.9116821,0.7877808C9.2279663,1.3036499,9.460022,0.8910522,9.5710449,0.4337158
	l0.0471802-0.196228L9.803894,0.3182373c0.9309692,0.4064331,1.7521362,1.0054321,2.4401245,1.7802124l0.133606,0.1505737
	l-0.1713867,0.105957c-0.3991089,0.2473755-0.7188721,0.5962524-0.9351196,1.00177
	c0.4984741,0.4858398,0.9401245,1.0131836,1.3265381,1.5721436c0.0131836,0.6832275-0.0372925,1.3690186-0.1559448,2.0497437
	c0.3564453,0.1748657,0.7514648,0.2703857,1.1586914,0.2703857c0.0701904,0,0.1362305-0.0025635,0.2019653-0.0081177L14,7.225708z
	 M10.4806519,5.612854C10.0164795,5.038147,9.4888306,4.5339355,8.906189,4.1105347
	C8.3178101,3.6833496,7.6773682,3.3353271,6.9977417,3.0731201C6.3169556,3.3352661,5.675293,3.6838379,5.0855103,4.112793
	C4.505127,4.5339355,3.9798584,5.0342407,3.5179443,5.6054077C3.5556641,6.343811,3.685791,7.0609741,3.9081421,7.7454834
	C4.1314697,8.4332275,4.4417114,9.0864258,4.8341064,9.696167c0.715271,0.194458,1.4401855,0.2924805,2.1636353,0.2924805
	c0.7214355,0,1.4472046-0.0980835,2.1618652-0.2924805c0.3930664-0.6098022,0.7043457-1.2650757,0.927063-1.9526978
	C10.3093872,7.0601196,10.44104,6.3471069,10.4806519,5.612854z"/>
</svg>
