<?xml version="1.0" encoding="utf-8"?>

<!--
 ~   Copyright (c) WSO2 Inc. (http://wso2.com) All Rights Reserved.
 ~
 ~   Licensed under the Apache License, Version 2.0 (the "License");
 ~   you may not use this file except in compliance with the License.
 ~   You may obtain a copy of the License at
 ~
 ~        http://www.apache.org/licenses/LICENSE-2.0
 ~
 ~   Unless required by applicable law or agreed to in writing, software
 ~   distributed under the License is distributed on an "AS IS" BASIS,
 ~   WITHOUT WARRANTIES OR CONDITIONS OF ANY KIND, either express or implied.
 ~   See the License for the specific language governing permissions and
 ~   limitations under the License.
-->

<svg version="1.1" id="action-invoke" xmlns="http://www.w3.org/2000/svg" xmlns:xlink="http://www.w3.org/1999/xlink" x="0px"
	 y="0px" viewBox="0 0 14 14" style="enable-background:new 0 0 14 14;" xml:space="preserve">
<path d="M11.3746691,7.9197798l1.1958466,1.2417297l-1.2059231,1.1971064l-0.3116465-0.3138065l0.6651735-0.6599779
	L8.1977406,9.4252939L8.1927023,8.9830141l3.5527-0.0408449l-0.6895781-0.7157803L11.3746691,7.9197798z M8.9261169,11.7555532
	L8.2365389,11.039773l3.5527-0.0408459l-0.0050383-0.4422798l-3.5203791,0.0404634l0.6651745-0.6599789L8.6173487,9.6233263
	l-1.2059231,1.1971054l1.1958466,1.2417307L8.9261169,11.7555532z M9.9909706,6.4646997
	c1.947506,0,3.5262709,1.5787649,3.5262709,3.5262709s-1.5787649,3.5262709-3.5262709,3.5262709
	s-3.5262713-1.5787649-3.5262713-3.5262709S8.0434647,6.4646997,9.9909706,6.4646997 M9.9909706,5.9819412
	c-2.2105904,0-4.0090299,1.7984395-4.0090299,4.0090294S7.7803802,14,9.9909706,14S14,12.201561,14,9.9909706
	S12.201561,5.9819412,9.9909706,5.9819412L9.9909706,5.9819412z M3.9075758,2.2033002
	c-0.9924083,0-1.7996697,0.8077743-1.7996697,1.8001826s0.8072615,1.8001823,1.7996697,1.8001823
	s1.8001826-0.8077741,1.8001826-1.8001823S4.8999839,2.2033002,3.9075758,2.2033002z M3.9075758,2.7284818
	c0.7031481,0,1.2750008,0.5718527,1.2750008,1.275001s-0.5718527,1.275001-1.2750008,1.275001
	c-0.7026353,0-1.2744882-0.5718527-1.2744882-1.275001S3.2049406,2.7284818,3.9075758,2.7284818z M7.9315734,4.8517737V3.150063
	L7.0996943,3.0541558C7.0396881,2.8505454,6.9581413,2.6500123,6.8560801,2.4561465l0.5256944-0.6616056L6.1790881,0.5857003
	L5.5220985,1.0995986C5.3195138,0.9877924,5.1051331,0.8980397,4.8825464,0.8313664L4.7871523,0H3.0874927L2.9797895,0.8303406
	C2.7525868,0.8975268,2.5310259,0.9913825,2.3181839,1.109856L1.6376021,0.5867261L0.4492764,1.8089013L0.989844,2.4817901
	C0.8903466,2.6736042,0.8103386,2.8756762,0.7518711,3.0839024L0,3.173655l0.0155144,0.1313596l0.0030132,1.4698286
	l-0.016476,0.1307821l0.7790533,0.0969329c0.0600061,0.1887374,0.136937,0.3718328,0.2297668,0.5462093L0.4477379,6.264225
	l1.2078147,1.2031989l0.7077641-0.5585184c0.1810439,0.097446,0.3723454,0.1784797,0.5703142,0.2410502l0.1077032,0.9041939
	l1.7047882-0.0030766L4.8527999,7.172009c0.2169452-0.0625701,0.4261971-0.147707,0.624166-0.2523332L6.178575,7.4689622
	l1.1996093-1.2114048L6.8360777,5.5733857C6.9437809,5.3754168,7.0299435,5.169755,7.092514,4.95999L7.9315734,4.8517737z
	 M6.6652913,4.4701967L6.5945148,4.735352c-0.0589805,0.2205348-0.1502714,0.437993-0.2702837,0.6462193L6.1852427,5.6226215
	l0.4713297,0.5949321L6.1324167,6.746325L5.5267143,6.2719178L5.2887416,6.4062905
	C5.0820537,6.5232253,4.8604927,6.612978,4.6302133,6.6724715l-0.269258,0.0702634L4.2670994,7.5105052L3.52087,7.5125566
	L3.42804,6.7309389L3.1669879,6.6560593C2.9520943,6.5940018,2.7459195,6.5068135,2.555131,6.3965459L2.3145938,6.2585831
	L1.6976081,6.7458119L1.1703752,6.2206306l0.4897932-0.6221142L1.5237443,5.359005
	c-0.1046259-0.1836085-0.1882242-0.3826032-0.249256-0.591342L1.1985832,4.5086622L0.4272229,4.4137807L0.4251714,3.6670384
	L1.183197,3.5767729l0.0687249-0.2728484c0.0569289-0.2241251,0.1420658-0.4390187,0.2523333-0.6385262l0.132834-0.2405372
	L1.1698623,1.8427509l0.5200528-0.5339004l0.587752,0.4513278l0.2389984-0.1405271
	c0.2184837-0.1297567,0.4497893-0.2277154,0.687762-0.2913115l0.2651551-0.0702636l0.0928299-0.7175087h0.7426393
	l0.0820599,0.7154571l0.2677193,0.072315c0.2379727,0.064622,0.4636369,0.1595035,0.6723762,0.2820799l0.2400241,0.1405271
	l0.5667243-0.4431219l0.5251813,0.5272329L6.208322,2.4028077l0.1333466,0.2395115
	c0.1153965,0.2061746,0.2025847,0.4205554,0.2595139,0.6364746l0.0712891,0.2707968L7.391006,3.632163v0.7446909
	L6.6652913,4.4701967z"/>
</svg>
