<?xml version="1.0" encoding="utf-8"?>

<!--
 ~   Copyright (c) WSO2 Inc. (http://wso2.com) All Rights Reserved.
 ~
 ~   Licensed under the Apache License, Version 2.0 (the "License");
 ~   you may not use this file except in compliance with the License.
 ~   You may obtain a copy of the License at
 ~
 ~        http://www.apache.org/licenses/LICENSE-2.0
 ~
 ~   Unless required by applicable law or agreed to in writing, software
 ~   distributed under the License is distributed on an "AS IS" BASIS,
 ~   WITHOUT WARRANTIES OR CONDITIONS OF ANY KIND, either express or implied.
 ~   See the License for the specific language governing permissions and
 ~   limitations under the License.
-->

<svg version="1.1" id="dgm-try-catch" xmlns="http://www.w3.org/2000/svg" xmlns:xlink="http://www.w3.org/1999/xlink" x="0px" y="0px"
	 viewBox="0 0 14 14" style="enable-background:new 0 0 14 14;" xml:space="preserve">
<path d="M0,6.7260942c0.734763,0,0.838487-0.4037161,0.838487-0.7658181c0-0.2894335-0.0416138-0.5794878-0.0832276-0.8689208
	C0.7142667,4.8019218,0.6726529,4.5224261,0.6726529,4.2323718c0-0.9515274,0.6204804-1.3552434,1.4999599-1.3552434h0.2173855
	v0.56955H2.2036681c-0.6105429,0-0.8173696,0.3310471-0.8173696,0.8894174c0,0.2378817,0.031055,0.4863224,0.0726688,0.7347631
	c0.0416138,0.258378,0.0720478,0.5068188,0.0720478,0.7856932c0.0105587,0.6620941-0.2788746,0.9931412-0.7447007,1.1173615
	v0.0211177c0.465826,0.1136613,0.7552594,0.4652047,0.7447007,1.1272993c0,0.2794952-0.030434,0.5378733-0.0720478,0.786314
	c-0.0416138,0.258378-0.0726688,0.4962606-0.0726688,0.7447004c0,0.5801096,0.2378818,0.9005976,0.8173696,0.9005976h0.1863303
	v0.5689287H2.1726129c-0.8583622,0-1.4999599-0.3726606-1.4999599-1.4173536c0-0.2794952,0.0416138-0.5689287,0.0826065-0.848424
	C0.7968732,8.5775976,0.838487,8.2981024,0.838487,8.019228C0.838487,7.6981182,0.734763,7.2534094,0,7.2534094V6.7260942z
	 M3.9211936,4.366056v1.0607886h0.961812v0.5113778h-0.961812v1.9923577c0,0.4577656,0.1301355,0.7171202,0.5040464,0.7171202
	c0.1754994,0,0.3051767-0.0229111,0.3890319-0.0458221l0.0307012,0.5035877
	c-0.1296773,0.0540705-0.3358784,0.0916452-0.595233,0.0916452c-0.3129671,0-0.56499-0.0989771-0.7253685-0.2822666
	C3.3337505,8.7168922,3.2650168,8.3883457,3.2650168,7.9534912V5.9382224H2.6926951V5.4268446h0.5723217V4.5415559
	L3.9211936,4.366056z M5.6377001,6.5792775c0-0.4348545-0.0077896-0.8087649-0.0307007-1.1524329h0.5879011l0.0229111,0.7253685
	h0.0302429c0.1681681-0.4962568,0.5727801-0.8092237,1.0227556-0.8092237c0.0765238,0,0.1296778,0.0077896,0.1910796,0.0229111
	v0.6337237C7.3931561,5.9840446,7.3244224,5.9767132,7.2327776,5.9767132c-0.4733453,0-0.8092232,0.3583312-0.9004097,0.8623772
	c-0.0155797,0.0916448-0.0307012,0.198411-0.0307012,0.3129673v1.9689884H5.6377001V6.5792775z M8.5671253,5.4268446
	l0.8092241,2.1829786C9.4606628,7.8540564,9.5523071,8.1441126,9.612793,8.3654346h0.0155792
	c0.0687342-0.2213221,0.1447992-0.5035882,0.2364435-0.7707329l0.7331581-2.1678572h0.7093306L10.3001289,8.060257
	c-0.4811354,1.2669897-0.8092241,1.9158344-1.2674475,2.3126564c-0.3280888,0.2895975-0.6561766,0.4041538-0.8238869,0.4353123
	l-0.1677103-0.5654478c0.1677103-0.053154,0.3894911-0.1603785,0.5874434-0.3280888
	c0.1832895-0.1447983,0.4124012-0.4041529,0.5645323-0.7478209C9.2242193,9.098134,9.2471304,9.04498,9.2471304,9.0064898
	c0-0.0384912-0.0155802-0.0916452-0.0458231-0.1750412l-1.3664231-3.404604H8.5671253z M14,7.2534094
	c-0.7341423,0-0.8384867,0.4447088-0.8384867,0.7658186c0,0.2788744,0.0422344,0.5583696,0.0832272,0.8378658
	c0.0409927,0.2794952,0.0832281,0.5689287,0.0832281,0.848424c0,1.044693-0.6521568,1.4173536-1.5005817,1.4173536h-0.2173853
	v-0.5689287h0.1763926c0.578867-0.0111799,0.8273077-0.320488,0.8273077-0.9005976
	c0-0.2484398-0.0409927-0.4863224-0.0720482-0.7447004c-0.0422344-0.2484407-0.0832272-0.5068188-0.0832272-0.786314
	c0-0.6620946,0.2894325-1.013638,0.7453213-1.1272993V6.9739137c-0.4558887-0.1242204-0.7453213-0.4552674-0.7453213-1.1173615
	c0-0.2788744,0.0409927-0.5273151,0.0832272-0.7856932c0.0310555-0.2484407,0.0720482-0.4968815,0.0720482-0.7347631
	c0-0.5583704-0.2173862-0.8794796-0.8173695-0.8894174h-0.1863308v-0.56955h0.207448
	c0.8794794,0,1.510519,0.4037161,1.510519,1.3552434c0,0.2900543-0.0422354,0.56955-0.0832281,0.8589835
	c-0.0409927,0.289433-0.0832272,0.5794873-0.0832272,0.8689208c0,0.362102,0.1043444,0.7658181,0.8384867,0.7658181V7.2534094z"/>
</svg>
