<?xml version="1.0" encoding="utf-8"?>

<!--
 ~   Copyright 2017, WSO2 Inc. (http://www.wso2.com)
 ~
 ~   Licensed under the Apache License, Version 2.0 (the "License");
 ~   you may not use this file except in compliance with the License.
 ~   You may obtain a copy of the License at
 ~
 ~        http://www.apache.org/licenses/LICENSE-2.0
 ~
 ~   Unless required by applicable law or agreed to in writing, software
 ~   distributed under the License is distributed on an "AS IS" BASIS,
 ~   WITHOUT WARRANTIES OR CONDITIONS OF ANY KIND, either express or implied.
 ~   See the License for the specific language governing permissions and
 ~   limitations under the License.
-->

<svg version="1.1" id="and" xmlns="http://www.w3.org/2000/svg" xmlns:xlink="http://www.w3.org/1999/xlink" x="0px" y="0px"
	 viewBox="0 0 14 14" style="enable-background:new 0 0 14 14;" xml:space="preserve">
<path d="M5.5563865,11.009161c-0.2246652-0.2265215-0.4400468-0.4511871-0.7482653-0.7854004
	c-0.6907067,0.6424313-1.4631095,0.9153719-2.3432033,0.9153719c-1.5596597,0-2.4620342-1.0453434-2.4620342-2.2466526
	c0-1.0945468,0.6535717-1.8446689,1.5689434-2.3441315V6.5130706c-0.4159092-0.5236001-0.6665688-1.106616-0.6665688-1.6775627
	c0-0.9747872,0.7018469-1.9746406,2.0349846-1.9746406c0.998925,0,1.771328,0.666569,1.771328,1.7017004
	c0,0.8438869-0.4864655,1.5104561-1.7601874,2.1408186v0.0352778c0.6777091,0.7853999,1.4389718,1.6654935,1.9514315,2.2373691
	c0.3694906-0.5607347,0.6182933-1.333138,0.7724028-2.3441315h0.9525065
	C6.4141994,7.8935552,6.0688462,8.8924799,5.4728332,9.594327c0.4289064,0.4511871,0.8448157,0.9042311,1.3219972,1.414834
	H5.5563865z M4.2956614,9.6296053c-0.4753249-0.5236006-1.366559-1.4983873-2.25965-2.5214505
	C1.6071051,7.3810954,1.0018086,7.8935552,1.0018086,8.7365141c0,0.9172287,0.6777092,1.6190748,1.6413562,1.6190748
	C3.3320146,10.3555889,3.9150302,10.0455141,4.2956614,9.6296053z M1.8577647,4.7408142
	c0,0.5709472,0.2618001,1.010994,0.6071532,1.438972C3.272599,5.7156014,3.7961988,5.2876234,3.7961988,4.6099143
	c0-0.4873939-0.2729404-1.0351312-0.9283688-1.0351312C2.2031178,3.5747831,1.8577647,4.1225204,1.8577647,4.7408142z
	 M12.7586718,11.009161c-0.2246647-0.2265215-0.4400463-0.4511871-0.7482653-0.7854004
	c-0.6907063,0.6424313-1.463109,0.9153719-2.3432026,0.9153719c-1.55966,0-2.4620342-1.0453434-2.4620342-2.2466526
	c0-1.0945468,0.6535716-1.8446689,1.568943-2.3441315V6.5130706c-0.4159088-0.5236001-0.6665688-1.106616-0.6665688-1.6775627
	c0-0.9747872,0.7018471-1.9746406,2.0349846-1.9746406c0.9989252,0,1.771328,0.666569,1.771328,1.7017004
	c0,0.8438869-0.4864655,1.5104561-1.7601871,2.1408186v0.0352778c0.6795654,0.7853999,1.4408283,1.6654935,1.9514313,2.2373691
	c0.3694906-0.5607347,0.6182938-1.333138,0.7724028-2.3441315h0.9525061
	c-0.2135248,1.2616534-0.5588779,2.2605782-1.1548901,2.9624252c0.4289064,0.4511871,0.8448153,0.9042311,1.3219967,1.414834
	H12.7586718z M11.4979477,9.6296053c-0.4753256-0.5236006-1.366559-1.4983873-2.2596502-2.5214505
	C8.809391,7.3810954,8.2040949,7.8935552,8.2040949,8.7365141c0,0.9172287,0.6777086,1.6190748,1.6413555,1.6190748
	C10.5343008,10.3555889,11.1173162,10.0455141,11.4979477,9.6296053z M9.060051,4.7408142
	c0,0.5709472,0.2617998,1.010994,0.6071529,1.438972c0.8076811-0.4641848,1.3312807-0.8921628,1.3312807-1.5698719
	c0-0.4873939-0.2729406-1.0351312-0.9265118-1.0351312C9.4054041,3.5747831,9.060051,4.1225204,9.060051,4.7408142z"/>
</svg>
