<?xml version="1.0" encoding="utf-8"?>

<!--
 ~   Copyright 2017, WSO2 Inc. (http://www.wso2.com)
 ~
 ~   Licensed under the Apache License, Version 2.0 (the "License");
 ~   you may not use this file except in compliance with the License.
 ~   You may obtain a copy of the License at
 ~
 ~        http://www.apache.org/licenses/LICENSE-2.0
 ~
 ~   Unless required by applicable law or agreed to in writing, software
 ~   distributed under the License is distributed on an "AS IS" BASIS,
 ~   WITHOUT WARRANTIES OR CONDITIONS OF ANY KIND, either express or implied.
 ~   See the License for the specific language governing permissions and
 ~   limitations under the License.
-->

<svg version="1.1" id="android" xmlns="http://www.w3.org/2000/svg" xmlns:xlink="http://www.w3.org/1999/xlink" x="0px" y="0px"
	 viewBox="0 0 14 14" style="enable-background:new 0 0 14 14;" xml:space="preserve">
<path d="M9.4395018,0C9.5510416,0.0897822,9.5385351,0.179988,9.460887,0.2917765
	C9.2609167,0.579672,9.0709696,0.8745298,8.8728771,1.1728412c1.1041012,0.5756381,1.8538456,1.3912207,1.9253435,2.7053027
	c-2.5331221,0-5.0516319,0-7.582303,0c-0.0001428-0.6094999,0.2022729-1.1399221,0.558336-1.6166902
	c0.3540671-0.4740955,0.8140223-0.8192408,1.361532-1.0812905C4.9575849,0.9112902,4.7874384,0.6545402,4.61725,0.3978177
	c-0.0257401-0.0388283-0.0477715-0.0809574-0.0782523-0.115642C4.4498658,0.1807509,4.4676838,0.088888,4.5564952,0
	c0.0311022,0,0.0622039,0,0.0933061,0c0.045341,0.0550366,0.0953712,0.1068941,0.1352124,0.1656595
	C4.9590006,0.4222879,5.1352158,0.6776796,5.2994933,0.940477C5.3622451,1.0408623,5.4161749,1.0649371,5.532733,1.0249578
	c0.9820886-0.3368547,1.966979-0.3340614,2.9487848,0.0024583c0.1010084,0.0346209,0.1514931,0.0219641,0.211668-0.0698783
	C8.9048777,0.6344416,9.127636,0.3185966,9.3461952,0.0000001C9.3772974,0,9.4083996,0,9.4395018,0z M9.0326881,2.3963535
	C9.030077,2.1763797,8.8422689,1.9928544,8.6225424,1.9955618C8.3988562,1.998318,8.2224712,2.179656,8.2242966,2.4049914
	c0.001832,0.2262294,0.179122,0.3991473,0.4071693,0.3971312C8.8564377,2.8001332,9.0353336,2.619211,9.0326881,2.3963535z
	 M5.7786846,2.3981926C5.7775073,2.1738517,5.5964637,1.9934927,5.3743377,1.9953742
	C5.1542382,1.9972388,4.969357,2.1840341,4.9708285,2.4030609c0.001493,0.2221622,0.1835237,0.4002764,0.4081573,0.3993771
	C5.6058974,2.8015296,5.7798777,2.6255703,5.7786846,2.3981926z M1.0419747,8.8640556
	C1.0606622,8.911396,1.0798328,8.9585533,1.0979602,9.0061064c0.1396285,0.3662834,0.4986069,0.572094,0.8948284,0.5128012
	C2.362618,9.4635639,2.6598876,9.1396112,2.66202,8.7540874c0.0065353-1.1815138,0.0065649-2.3631096,0.0000095-3.5446229
	C2.659884,4.8227367,2.3641431,4.5012631,1.9923828,4.4458232C1.5904365,4.3858814,1.2272912,4.5984621,1.0915433,4.9728084
	C1.0759586,5.0157857,1.058542,5.0580993,1.0419748,5.1007199C1.0419747,6.355165,1.0419747,7.609611,1.0419747,8.8640556z
	 M7.7373862,13.2936726c0.0141296,0.4098244,0.4010301,0.712738,0.8256965,0.7041283
	c0.4064875-0.0082426,0.7701969-0.3366976,0.7786942-0.7412672c0.0139055-0.661953,0.0037613-1.3244123,0.0037613-2.0079813
	c0.156456,0,0.3258867,0.0001926,0.4953165-0.0000343c0.6045923-0.0008125,0.9528923-0.3482552,0.9531994-0.9561739
	c0.0009556-1.8968439,0.0004368-3.7936883-0.0000229-5.6905322c-0.0000134-0.0544147-0.0057745-0.108829-0.0088253-0.1627059
	c-2.5317669,0-5.043735,0-7.571744,0c0,0.0596218,0,0.1102543,0.0000002,0.1608872
	c0.0000079,1.9072094-0.000556,3.8144183,0.0003691,5.7216277c0.0002794,0.5767927,0.3525152,0.925354,0.9316406,0.9268589
	c0.1747308,0.0004539,0.3494635,0.0000706,0.5077052,0.0000706c0,0.6607733-0.0047317,1.3021078,0.0016937,1.9433298
	c0.0041556,0.4147062,0.3131948,0.7569313,0.7053995,0.8022003c0.4119263,0.0475445,0.7822909-0.1950846,0.8866029-0.5919409
	c0.0271592-0.1033268,0.0294981-0.2151861,0.0299759-0.323185c0.0026765-0.6045408,0.0012875-1.2090998,0.0012875-1.8220263
	c0.4844995,0,0.9690747,0,1.4529705,0C7.7311072,11.9472141,7.7141991,12.6211348,7.7373862,13.2936726z M12.9565725,5.305624
	c-0.0002565-0.0822244-0.0027428-0.1668091-0.0215063-0.2462106c-0.0977793-0.4137559-0.4686403-0.6668973-0.8950443-0.6168532
	c-0.3983002,0.0467467-0.7014008,0.3842869-0.70259,0.7990065c-0.0032797,1.1441588-0.0019913,2.2883344-0.0009556,3.4325027
	C11.3369236,9.1681767,11.680337,9.52913,12.1463966,9.530057c0.4664145,0.000927,0.8088388-0.3578272,0.810607-0.8540583
	c0.0019894-0.5591335,0.0004578-1.1182809,0.0004749-1.6774225C12.9574947,6.434258,12.9583302,5.8699369,12.9565725,5.305624z"/>
</svg>
