<?xml version="1.0" encoding="utf-8"?>

<!--
 ~   Copyright 2017, WSO2 Inc. (http://www.wso2.com)
 ~
 ~   Licensed under the Apache License, Version 2.0 (the "License");
 ~   you may not use this file except in compliance with the License.
 ~   You may obtain a copy of the License at
 ~
 ~        http://www.apache.org/licenses/LICENSE-2.0
 ~
 ~   Unless required by applicable law or agreed to in writing, software
 ~   distributed under the License is distributed on an "AS IS" BASIS,
 ~   WITHOUT WARRANTIES OR CONDITIONS OF ANY KIND, either express or implied.
 ~   See the License for the specific language governing permissions and
 ~   limitations under the License.
-->

<svg version="1.1" id="annotation" xmlns="http://www.w3.org/2000/svg" xmlns:xlink="http://www.w3.org/1999/xlink" x="0px" y="0px"
	 viewBox="0 0 14 14" style="enable-background:new 0 0 14 14;" xml:space="preserve">
<path d="M13.4371653,6.261806c-0.0882368-0.0975032-0.2071123-0.1401606-0.3100557-0.1259413
	c0.2389755-0.6500182,0.4117737-1.3521733,0.4117737-2.0272441c0-1.0420606-0.3357916-1.9622426-0.9718342-2.6603351
	c-0.8431549-0.9255988-2.1360731-1.4239461-3.739048-1.396862C4.289917,0.073768,0,4.4099312,0,8.9736004
	c0,2.2662611,1.4706186,4.928628,5.6165376,4.9760246c0.018383,0,0.0367656,0,0.0557613,0
	c2.1238184,0,5.3640819-1.1131563,6.9523492-2.9332066c0.9019794-1.0075283,1.3897352-2.1389666,1.3750286-3.1857667
	C13.9910984,7.1907902,13.7901134,6.6328578,13.4371653,6.261806z M11.6993847,10.3176489
	c-1.2953701,1.5316048-4.1361156,2.9101849-5.9860311,2.9101849c-0.0128679,0-0.0257359,0-0.0386038,0
	c-2.7825332-0.0365629-4.378767-1.5261879-4.378767-4.0869894c0-4.1073022,3.6066923-8.0317869,7.4217219-8.0744448
	c0.0171576,0,0.0349274,0,0.0520849,0c1.2800503,0,2.3511515,0.4015217,3.0190573,1.1348234
	c0.4840784,0.529494,0.738986,1.218107,0.738986,1.9906807c0,1.3731632-0.5232954,2.9007063-1.4007645,4.0856352
	c-0.5343246,0.6994467-1.4485598,1.5404081-1.8168268,1.2181072C9.1723709,9.3981438,9.068202,9.0541754,9.1374435,8.5707245
	c0.0569868-0.707572,0.4834661-2.045526,1.1722059-3.1525884c0.0588245-0.1266179,0.0551481-0.2600069-0.0085783-0.3744373
	C10.120307,4.7186894,9.4867163,4.6455626,9.3776445,4.6455626c-0.1421595,0-0.3664284,0.1916199-1.8064094,1.939898
	C7.457262,6.7235894,7.3677993,6.832603,7.3169408,6.8921881C6.8132539,7.4893923,5.9425249,8.3459263,5.4198427,8.8016167
	C5.0950809,9.1110525,4.4988675,9.5281467,4.2359943,9.4942923C4.1783953,9.486167,4.1538849,9.4590826,4.141017,9.4387693
	C3.6575511,8.6641645,5.0638304,6.6714525,5.7029366,6.0112782c1.1262488-1.1266985,2.4271331-1.8545833,3.3150191-1.8545833
	c0.3878765,0,0.6770973,0.0568767,0.830287,0.3344884l0.0361528,0.0453658
	c0.1256151,0.1103678,0.2230434,0.0832834,0.271452,0.0582309c0.0612755-0.0325007,0.1341934-0.1110449,0.1341934-0.297925
	c0-0.2484965-0.1366444-0.4908991-0.4252539-0.7475209c-0.6121445-0.4760029-1.6078758-0.3602185-2.099308-0.2132874
	c-1.1360526,0.3541245-4.2035179,2.449079-4.7960548,4.4282489C2.7813075,8.3933239,2.8548384,8.9553185,3.187566,9.4333525
	c0.3143446,0.4550133,0.9044302,0.7976265,1.3719647,0.7976265c1.2359324,0,2.5551996-1.6677027,3.3438191-2.6637201
	c0.037991-0.0487514,0.0772076-0.0981798,0.1164236-0.1476083C7.8494272,8.1597233,7.7440329,9.0595922,7.8874183,9.5498142
	c0.1862779,0.6242886,0.5968261,0.9533606,1.1850734,0.9533606c0.0140934,0,0.0281868,0,0.0422802,0
	c1.0275946,0,1.9412165-0.6527271,2.7880478-1.9920349c0.2549076-0.3859482,0.6850634-1.0860724,1.039237-1.9134912
	c0.0147066,0.0209899,0.0306377,0.0413032,0.0502462,0.0602622c0.1151991,0.1178155,0.1813765,0.3107896,0.1899548,0.5572548
	C13.209219,8.0243034,12.6552868,9.1841793,11.6993847,10.3176489z"/>
</svg>
