<?xml version="1.0" encoding="utf-8"?>
<!-- Generator: Adobe Illustrator 22.0.1, SVG Export Plug-In . SVG Version: 6.00 Build 0)  -->
<svg version="1.1" id="ballerina-project-fill" xmlns="http://www.w3.org/2000/svg" xmlns:xlink="http://www.w3.org/1999/xlink"
	 x="0px" y="0px" viewBox="0 0 14 14" style="enable-background:new 0 0 14 14;" xml:space="preserve">
<path d="M11.8900146,3.3499756L12.1599731,1.5H0.9000244l0.2599487,2.7999878H0L1.210022,12.5h11.3999634L14,3.3499756H11.8900146z
	 M4.7600098,5.5599976h1.9099731L6.710022,8.2600098L4.9799805,7.6699829L4.7600098,5.5599976z M5.0499878,8.2600098
	l1.0700073,0.3699951l-1,0.3499756L5.0499878,8.2600098z M6.0700073,11.460022H5.3800049L5.1799927,9.5300293l1.539978-0.5400391
	l0.0100098,0.7000122L6.0700073,11.460022z M8.6099854,11.460022H7.9199829L7.2700195,9.6900024l0.0100098-0.7000122
	l1.539978,0.5400391L8.6099854,11.460022z M8.8800049,8.9799805l-1-0.3499756l1.0700073-0.3699951L8.8800049,8.9799805z
	 M9.0200195,7.6699829L7.289978,8.2600098l0.0400391-2.7000122h1.9099731L9.0200195,7.6699829z M11.3400269,3.3499756H8.4699707
	L7.8499756,4.2999878H1.7000122L1.4899902,2.039978H11.539978L11.3400269,3.3499756z"/>
</svg>
