<?xml version="1.0" encoding="utf-8"?>

<!--
 ~   Copyright 2017, WSO2 Inc. (http://www.wso2.com)
 ~
 ~   Licensed under the Apache License, Version 2.0 (the "License");
 ~   you may not use this file except in compliance with the License.
 ~   You may obtain a copy of the License at
 ~
 ~        http://www.apache.org/licenses/LICENSE-2.0
 ~
 ~   Unless required by applicable law or agreed to in writing, software
 ~   distributed under the License is distributed on an "AS IS" BASIS,
 ~   WITHOUT WARRANTIES OR CONDITIONS OF ANY KIND, either express or implied.
 ~   See the License for the specific language governing permissions and
 ~   limitations under the License.
-->


<svg version="1.1" id="ballerina-service" xmlns="http://www.w3.org/2000/svg" xmlns:xlink="http://www.w3.org/1999/xlink" x="0px"
	 y="0px" viewBox="0 0 14 14" style="enable-background:new 0 0 14 14;" xml:space="preserve">
<path d="M12.4,8.1l-0.3,0.2c-0.1,0-0.1,0-0.2-0.1l-0.1-0.7C12,7.7,12.2,7.8,12.3,8C12.3,8,12.4,8.1,12.4,8.1z M9.4,13.8
	c0.2,0,0.4-0.1,0.6-0.1l0-0.1c-0.1,0-0.1-0.1-0.2-0.1L9.4,13.8z M9,13.9C8.7,14,8.2,14,7.8,14H0.9V0h6c0.8,0,1.5,0.1,2.2,0.3
	c0.7,0.2,1.2,0.4,1.7,0.7c0.5,0.3,0.9,0.7,1.1,1.1c0.3,0.4,0.4,0.9,0.4,1.5c0,0.7-0.2,1.2-0.5,1.7c-0.3,0.5-0.9,0.9-1.7,1.4
	c0.6,0.2,1.1,0.5,1.5,0.8l-1.8,0L10,8.3c-0.1,0-0.1,0.1-0.2,0.1L9.1,7.9L8.8,8.3c0,0,0,0,0-0.1C8.5,8,8.1,7.8,7.7,7.6
	c-0.4-0.1-1-0.2-1.6-0.2H4.4v5.2h1.9c0.9,0,1.6-0.1,2.1-0.4c0,0,0,0,0,0l-0.5,0.6L9,13.9z M4.4,6.1h2.3c0.7,0,1.3-0.2,1.7-0.6
	c0.4-0.4,0.6-1,0.6-1.7C8.9,3,8.7,2.5,8.1,2C7.6,1.5,6.8,1.3,5.6,1.3H4.4V6.1z M7.9,10.4l0.6-0.1c0.1-0.2,0.1-0.4,0.2-0.6L8.4,9.2
	l0.8-0.8l0.5,0.4c0.2-0.1,0.4-0.2,0.6-0.2l0.1-0.7l1.2,0l0.1,0.7c0.2,0.1,0.4,0.1,0.6,0.2l0.5-0.4l0.8,0.8l-0.4,0.5
	c0.1,0.2,0.2,0.3,0.2,0.5l0.7,0.1l0,1.2l-0.7,0.1c-0.1,0.2-0.1,0.4-0.2,0.6l0.4,0.5l-0.8,0.8l-0.5-0.4c-0.2,0.1-0.4,0.2-0.6,0.3
	L11.5,14h-1.1l-0.1-0.6c-0.2-0.1-0.4-0.1-0.6-0.3l-0.5,0.4l-0.8-0.8l0.4-0.5c-0.1-0.2-0.2-0.4-0.2-0.6l-0.6-0.1V10.4z M9.7,10.9
	c0,0.7,0.5,1.2,1.2,1.2c0.7,0,1.2-0.5,1.2-1.2s-0.5-1.2-1.2-1.2S9.7,10.3,9.7,10.9z"/>
</svg>
