<?xml version="1.0" encoding="utf-8"?>

<!--
 ~   Copyright 2018, WSO2 Inc. (http://www.wso2.com)
 ~
 ~   Licensed under the Apache License, Version 2.0 (the "License");
 ~   you may not use this file except in compliance with the License.
 ~   You may obtain a copy of the License at
 ~
 ~        http://www.apache.org/licenses/LICENSE-2.0
 ~
 ~   Unless required by applicable law or agreed to in writing, software
 ~   distributed under the License is distributed on an "AS IS" BASIS,
 ~   WITHOUT WARRANTIES OR CONDITIONS OF ANY KIND, either express or implied.
 ~   See the License for the specific language governing permissions and
 ~   limitations under the License.
-->

<svg version="1.1" id="ballerina-package" xmlns="http://www.w3.org/2000/svg" xmlns:xlink="http://www.w3.org/1999/xlink" x="0px"
	 y="0px" viewBox="0 0 14 14" style="enable-background:new 0 0 14 14;" xml:space="preserve">
<path d="M13.696393,14c-4.4648924,0-8.9208889,0-13.4006529,0c0-0.0588942-0.0000005-0.1168871-0.0000005-0.17488
	C0.2957392,10.5118942,0.2950039,7.1986666,0.2996992,3.885448c0.0001255-0.0888293,0.0386997-0.1934168,0.0936113-0.2639966
	c0.9014081-1.1586239,1.8095411-2.3120136,2.7120593-3.46978C3.1907492,0.0421456,3.279355-0.0002953,3.4210899,0.0000015
	c2.3886015,0.0050063,4.7772188,0.004845,7.165823,0.0002606c0.135169-0.0002591,0.2203102,0.0391901,0.3025475,0.1445684
	c0.9132786,1.1702752,1.8314438,2.3367364,2.7455339,3.5063815c0.037262,0.0476792,0.0670471,0.1166615,0.0670977,0.1757479
	c0.002903,3.3737714,0.0022821,6.7475452,0.0017977,10.1213188C13.7038879,13.9591208,13.7008619,13.9699631,13.696393,14z
	 M12.9408293,4.2412028c-3.9689188,0-7.9237475,0-11.8812647,0c0,2.9974027,0,5.9840608,0,8.9806347
	c3.9633512,0,7.9176812,0,11.8812647,0C12.9408293,10.2258768,12.9408293,7.239181,12.9408293,4.2412028z M6.5952277,3.4693582
	c0-0.9050131,0-1.7925509,0-2.68963c-0.9826031,0-1.9508843-0.0014984-2.9191253,0.0040089
	C3.6223748,0.7840425,3.5537541,0.8302297,3.5176849,0.8754814C2.8562987,1.7052308,2.198693,2.5379961,1.5411497,3.3708026
	C1.5200092,3.397578,1.5079976,3.4315603,1.4879185,3.4693582C3.1981924,3.4693582,4.8921313,3.4693582,6.5952277,3.4693582z
	 M7.3991227,3.4635875c1.7131934,0,3.4091878,0,5.1222081,0c-0.0240717-0.0380955-0.0361757-0.0617385-0.0523357-0.082175
	c-0.6615248-0.8366673-1.3216047-1.6745003-1.9893093-2.5062108c-0.0447845-0.0557835-0.147418-0.0912983-0.2234545-0.0918275
	C9.3592415,0.777132,8.4621944,0.7791929,7.5651622,0.7798083C7.5121384,0.7798446,7.4591179,0.786191,7.3991227,0.7900493
	C7.3991227,1.6861591,7.3991227,2.5698414,7.3991227,3.4635875z M6.7777791,7.7410736V4.8421173H4.891593v2.183322
	L6.7777791,7.7410736z M4.891593,8.7039537l1.2806439-0.4894829L4.891593,7.7247548V8.7039537z M4.891593,9.4032698v3.2972937
	h0.9664793l0.9197068-2.9303656V8.6886053L4.891593,9.4032698z M9.2920647,7.0254393v-2.183322H7.4058781v2.8989563
	L9.2920647,7.0254393z M9.2920647,7.7247548L8.0116549,8.2144709l1.2804098,0.4894829V7.7247548z M7.4058781,8.6886053v1.0815926
	l0.9192295,2.9303656h0.9669571V9.4032698L7.4058781,8.6886053z"/>
</svg>
