<?xml version="1.0" encoding="utf-8"?>

<!--
 ~   Copyright 2017, WSO2 Inc. (http://www.wso2.com)
 ~
 ~   Licensed under the Apache License, Version 2.0 (the "License");
 ~   you may not use this file except in compliance with the License.
 ~   You may obtain a copy of the License at
 ~
 ~        http://www.apache.org/licenses/LICENSE-2.0
 ~
 ~   Unless required by applicable law or agreed to in writing, software
 ~   distributed under the License is distributed on an "AS IS" BASIS,
 ~   WITHOUT WARRANTIES OR CONDITIONS OF ANY KIND, either express or implied.
 ~   See the License for the specific language governing permissions and
 ~   limitations under the License.
-->

<svg version="1.1" id="block" xmlns="http://www.w3.org/2000/svg" xmlns:xlink="http://www.w3.org/1999/xlink" x="0px" y="0px"
	 viewBox="0 0 14 14" style="enable-background:new 0 0 14 14;" xml:space="preserve">
<path d="M7,0C3.1000061,0,0,3.1000061,0,7s3.1000061,7,7,7s7-3.1000061,7-7S10.8999939,0,7,0z M2,7c0-2.7999878,2.2000122-5,5-5
	c1,0,2,0.2999878,2.7999878,0.7999878l-6.8999939,7C2.2999878,9,2,8.1000061,2,7z M7,12c-1,0-2-0.2999878-2.7999878-0.7999878
	l6.8999939-7C11.7000122,5,12,6,12,7.1000061C12,9.7000122,9.7999878,12,7,12z"/>
</svg>
