<?xml version="1.0" encoding="utf-8"?>

<!--
 ~   Copyright 2017, WSO2 Inc. (http://www.wso2.com)
 ~
 ~   Licensed under the Apache License, Version 2.0 (the "License");
 ~   you may not use this file except in compliance with the License.
 ~   You may obtain a copy of the License at
 ~
 ~        http://www.apache.org/licenses/LICENSE-2.0
 ~
 ~   Unless required by applicable law or agreed to in writing, software
 ~   distributed under the License is distributed on an "AS IS" BASIS,
 ~   WITHOUT WARRANTIES OR CONDITIONS OF ANY KIND, either express or implied.
 ~   See the License for the specific language governing permissions and
 ~   limitations under the License.
-->

<svg version="1.1" id="checklist" xmlns="http://www.w3.org/2000/svg" xmlns:xlink="http://www.w3.org/1999/xlink" x="0px" y="0px"
	 viewBox="0 0 14 14" style="enable-background:new 0 0 14 14;" xml:space="preserve">
<path d="M3.6544616,9.915494H0v3.6544619h3.6544616V9.915494z M0.9529333,10.8684273h1.7485952v1.7485952H0.9529333V10.8684273z
	 M14,11.0958748H6.3301954v1.2937012H14V11.0958748z M4.6202888,6.1059661L3.9212182,5.2858214L1.7229356,7.1593099
	L0.8254088,6.0907001L0,6.7845068l1.5955447,1.8992825L4.6202888,6.1059661z M14,6.3379545H6.3301954v1.2937021H14V6.3379545z
	 M3.9212182,0.5279016l0.6990707,0.8201448l-3.024744,2.5778236L0,2.0265872l0.8254088-0.6938068l0.8975266,1.0686098
	L3.9212182,0.5279016 M14,1.5800349H6.3301954v1.2937018H14V1.5800349z"/>
</svg>
