<?xml version="1.0" encoding="utf-8"?>

<!--
 ~   Copyright 2018, WSO2 Inc. (http://www.wso2.com)
 ~
 ~   Licensed under the Apache License, Version 2.0 (the "License");
 ~   you may not use this file except in compliance with the License.
 ~   You may obtain a copy of the License at
 ~
 ~        http://www.apache.org/licenses/LICENSE-2.0
 ~
 ~   Unless required by applicable law or agreed to in writing, software
 ~   distributed under the License is distributed on an "AS IS" BASIS,
 ~   WITHOUT WARRANTIES OR CONDITIONS OF ANY KIND, either express or implied.
 ~   See the License for the specific language governing permissions and
 ~   limitations under the License.
-->

<svg version="1.1" id="collapse" xmlns="http://www.w3.org/2000/svg" xmlns:xlink="http://www.w3.org/1999/xlink" x="0px" y="0px"
	 viewBox="0 0 14 14" style="enable-background:new 0 0 14 14;" xml:space="preserve">
<path d="M14,0v14c-1.7,0-5.3,0-7,0l0-1.3c0,0,4.3,0,5.7,0l0-11.3c-3.7,0-7.5,0-11.3,0c0,0.4,0,5.4,0,5.4L0,6.8V0H14z M7.1,3.2
	l-1.2,0l0,4.6l4.7,0.1l0-1.2L8,6.6l3.6-3.5l-0.8-0.9L7.1,5.8L7.1,3.2z M0,8.4h5.6V14H0V8.4z M1,13h3.6V9.4H1V13z"/>
</svg>
