<?xml version="1.0" encoding="utf-8"?>

<!--
 ~   Copyright 2017, WSO2 Inc. (http://www.wso2.com)
 ~
 ~   Licensed under the Apache License, Version 2.0 (the "License");
 ~   you may not use this file except in compliance with the License.
 ~   You may obtain a copy of the License at
 ~
 ~        http://www.apache.org/licenses/LICENSE-2.0
 ~
 ~   Unless required by applicable law or agreed to in writing, software
 ~   distributed under the License is distributed on an "AS IS" BASIS,
 ~   WITHOUT WARRANTIES OR CONDITIONS OF ANY KIND, either express or implied.
 ~   See the License for the specific language governing permissions and
 ~   limitations under the License.
-->

<svg version="1.1" id="constant" xmlns="http://www.w3.org/2000/svg" xmlns:xlink="http://www.w3.org/1999/xlink" x="0px" y="0px"
	 viewBox="0 0 14 14" style="enable-background:new 0 0 14 14;" xml:space="preserve">
<path d="M13.9924564,6.8886032c-0.0254574-0.5605469-0.1357756-1.0574489-0.3366108-1.5185213
	c-0.2894659-0.6623788-0.7354527-1.1847386-1.3256998-1.5519934c-0.4403286-0.2753234-0.9070587-0.4285426-1.3851023-0.4558864
	c-0.4516439-0.0301723-0.879715,0.0598733-1.3285294,0.2611799C9.2280445,3.7982879,8.8565464,4.0443816,8.4473333,4.3989077
	c-0.4987879,0.4332566-0.929688,0.9141297-1.3200436,1.3681302L6.9589844,5.9641013L6.9075971,5.8943276
	C6.5629716,5.425241,6.2805767,5.0801439,5.9906383,4.7741771c-0.330482-0.34934-0.6312633-0.6105204-0.9457164-0.821727
	C4.5946927,3.6483686,4.1458783,3.4616768,3.6725485,3.3810599C2.9526536,3.258956,2.285089,3.3688023,1.6854122,3.7063563
	C1.2978852,3.923692,0.96316,4.2381449,0.690194,4.6398153C0.4195851,5.037714,0.2262931,5.4950147,0.1145609,6.0004025
	C0.0513874,6.2860975,0.0155577,6.5741501,0.0070717,6.8508878L0,6.8890743l0.0165005,0.4252424
	C0.0429014,7.6914721,0.1202182,8.057313,0.2456223,8.4024096C0.4375,8.9294844,0.7312096,9.3867846,1.1187365,9.7629967
	c0.416285,0.4026136,0.9004581,0.6722794,1.4393184,0.8023977c0.4921875,0.1178608,0.993804,0.1122036,1.4892917-0.0169716
	c0.4030843-0.1065464,0.7976832-0.2885237,1.205482-0.5572472c0.4360857-0.2885237,0.8566136-0.6439924,1.2851562-1.089035
	C6.7284484,8.704134,6.9132543,8.499527,7.0980601,8.2958632l0.0867457-0.095232
	C7.4129848,8.5108414,7.6609645,8.8295374,7.9334593,9.12749c0.3969555,0.432786,0.7373381,0.72791,1.1022358,0.9570312
	c0.4667292,0.2951241,0.9334593,0.4714441,1.4256468,0.5393324c0.0754309,0.0113144,0.1518049,0.0179148,0.228179,0.0245152
	l0.1178608,0.0103712l0.0678873,0.0084867l0.323411-0.0169725c0.6317348-0.0518589,1.1918106-0.3130388,1.6660833-0.7769394
	c0.4365568-0.4271278,0.7486525-0.9532595,0.9532595-1.6076241c0.099946-0.3196387,0.1584053-0.6581359,0.1744337-0.9956894
	L14,7.2360573L13.9924564,6.8886032z M12.7431307,6.6524096c0.004714,0.4705009-0.1018324,0.9362879-0.309268,1.3483295
	c-0.2168636,0.4337292-0.5082159,0.7458248-0.8900862,0.9551458c-0.2451506,0.1338902-0.5157595,0.2159214-0.8287983,0.2489223
	c-0.5138741,0.0622301-0.9862604-0.0848598-1.4463902-0.4308996C8.982893,8.5598717,8.7047415,8.2854919,8.4199896,7.9347372
	C8.2898703,7.7753892,8.1644669,7.610384,8.0400057,7.4463215L7.9428878,7.3190312
	c0.3752694-0.4426856,0.7618537-0.8952718,1.1757817-1.3153286c0.4082699-0.416285,0.7505388-0.7000942,1.1097784-0.9193158
	c0.3149252-0.1932917,0.6128778-0.3050241,0.9108305-0.3417969c0.5110445-0.0622306,0.9014006,0.1032462,1.2002964,0.5072737
	c0.1621761,0.2178073,0.2743797,0.4841733,0.3450966,0.8146553C12.7214441,6.2361245,12.7384157,6.411973,12.7431307,6.6524096z
	 M6.2174029,6.8424015c-0.0848598,0.099946-0.1683054,0.197535-0.2545795,0.2927666L5.9213362,7.1813698
	C5.6978717,7.4284062,5.4748788,7.6745,5.2448139,7.9139938C4.9775052,8.1902599,4.6889815,8.4410677,4.386786,8.6588755
	C4.0171742,8.9257126,3.6617053,9.0982609,3.2996364,9.1840639C2.9554822,9.2670374,2.6499865,9.2679806,2.3633485,9.1859493
	c-0.3488684-0.099946-0.61382-0.3064384-0.8099406-0.6317348C1.3836881,8.2751198,1.2865705,7.9554806,1.2559267,7.5773826
	C1.2186826,7.1106534,1.2889278,6.6580667,1.4647764,6.2309389C1.6514682,5.7759953,1.9211341,5.4323125,2.2888606,5.18009
	c0.2621226-0.1796198,0.5662041-0.2889948,0.903758-0.3252959c0.0858028-0.009429,0.1706626-0.0141435,0.2541082-0.0141435
	c0.5317888,0,1.0253906,0.1885777,1.5010777,0.5718613C5.2561288,5.6614347,5.5488954,5.969759,5.8694773,6.3822722
	c0.1060748,0.1371903,0.2097926,0.2757945,0.3144531,0.4158134L6.2174029,6.8424015z M0.2413793,7.1012244L0.2413793,7.1012244
	L0.2413793,7.1012244L0.2413793,7.1012244z"/>
</svg>
