<?xml version="1.0" encoding="utf-8"?>

<!--
 ~   Copyright 2017, WSO2 Inc. (http://www.wso2.com)
 ~
 ~   Licensed under the Apache License, Version 2.0 (the "License");
 ~   you may not use this file except in compliance with the License.
 ~   You may obtain a copy of the License at
 ~
 ~        http://www.apache.org/licenses/LICENSE-2.0
 ~
 ~   Unless required by applicable law or agreed to in writing, software
 ~   distributed under the License is distributed on an "AS IS" BASIS,
 ~   WITHOUT WARRANTIES OR CONDITIONS OF ANY KIND, either express or implied.
 ~   See the License for the specific language governing permissions and
 ~   limitations under the License.
-->

<svg version="1.1" id="contact" xmlns="http://www.w3.org/2000/svg" xmlns:xlink="http://www.w3.org/1999/xlink" x="0px" y="0px"
	 viewBox="0 0 14 14" style="enable-background:new 0 0 14 14;" xml:space="preserve">
<path d="M13,3.2634201v7.4731598H1V3.2634201H13 M14,2.2634201H0v9.4731598h14V2.2634201L14,2.2634201z M6.8852105,8.9621687
	c-0.0765262-0.229579-0.1913157-0.4208956-0.3826313-0.5356846c-0.3826318-0.229579-0.8035259-0.3826313-1.1861577-0.4974208
	C5.201632,7.8908,5.1251059,7.8525367,5.0103164,7.7760105C4.9337902,7.7377472,4.9337902,7.661221,4.8955269,7.5464315
	c0-0.0382628,0-0.0765262,0-0.1530523C5.201632,6.9724846,5.3929477,6.322011,5.3929477,5.7863269
	c0-0.8417892-0.4974208-1.0713677-1.0713682-1.0713677s-1.071368,0.2295785-1.071368,1.0713677
	c0,0.5739474,0.229579,1.2626839,0.5356841,1.6453156c0,0.0382628,0,0.0765262,0,0.0765262
	c0,0.0765262-0.0382631,0.1913157-0.1147895,0.229579C3.5180535,7.8525367,3.4415271,7.8908,3.3267379,7.9290628
	C2.9058433,8.0821152,2.4849486,8.1969051,2.1405804,8.4264841c-0.1913158,0.114789-0.3061053,0.344368-0.3826315,0.573947
	C1.6814225,9.1917467,1.6431594,9.459589,1.6431594,9.689168h2.6784201H7C7,9.459589,6.9617367,9.1917467,6.8852105,8.9621687z
	 M12.4225788,6.15238L7.9988122,6.1442623L7.9969201,6.8361568l4.4237056,0.0081177L12.4225788,6.15238z M12.4485188,7.5481319
	L7.9729333,7.5400143L7.9709802,8.2319088l4.4755855,0.0081177L12.4485188,7.5481319z M7.9709802,9.6276608l4.4755855,0.0081177
	l0.0019531-0.6918945L7.9729333,8.9357662L7.9709802,9.6276608z"/>
</svg>
