<?xml version="1.0" encoding="utf-8"?>

<!--
	~   Copyright (c) 2017, WSO2 Inc. (http://www.wso2.org) All Rights Reserved.
	~
	~   WSO2 Inc. licenses this file to you under the Apache License,
	~   Version 2.0 (the "License"); you may not use this file except
	~   in compliance with the License.
	~   You may obtain a copy of the License at
  	~
    ~   http://www.apache.org/licenses/LICENSE-2.0
    ~
    ~   Unless required by applicable law or agreed to in writing,
    ~   software distributed under the License is distributed on an
    ~   "AS IS" BASIS, WITHOUT WARRANTIES OR CONDITIONS OF ANY
    ~   KIND, either express or implied.  See the License for the
    ~   specific language governing permissions and limitations
    ~   under the License.
-->

<svg version="1.1" id="copy-link" xmlns="http://www.w3.org/2000/svg" xmlns:xlink="http://www.w3.org/1999/xlink" x="0px" y="0px"
	 viewBox="0 0 14 14" style="enable-background:new 0 0 14 14;" xml:space="preserve">
<path d="M11.3576498,1.8600941V0.0089477H0v11.4382706h1.9675754v2.5438347H14V1.8600941H11.3576498z M1.9675754,10.5515041
	H0.8957143V0.904662h9.5662212v0.9554321H1.9675754V10.5515041z M13.1042862,13.0953379H2.8632896v-1.6481199v-0.8957138V2.7558084
	h7.5986462h0.8957138h1.7466364V13.0953379z M11.5190535,4.603343c-0.2409058-0.2408848-0.542881-0.3800063-0.8550253-0.4173236
	c-0.0610704-0.0101681-0.1255369-0.0135646-0.1900034-0.0135646c-0.3800058,0-0.7566156,0.1424975-1.0450277,0.4308882
	L7.9632497,6.0690908c-0.4904881,0.4904876-0.5578742,1.247601-0.2092419,1.8177557L7.607017,8.0340242
	c-0.2362876-0.1453552-0.5033689-0.220963-0.7735977-0.220963c-0.3766308,0-0.7566371,0.1424971-1.0450277,0.4309087
	L4.3226438,9.7063208C4.017272,10.011672,3.8747745,10.422224,3.8951313,10.822587
	c0.0135849,0.3562536,0.1560819,0.7023392,0.4275124,0.9737692c0.0169601,0.0169601,0.0305452,0.0305452,0.0475059,0.0441093
	c0.2816191,0.2578659,0.6412687,0.3867989,0.9975219,0.3867989c0.3596497,0,0.7192993-0.128933,0.9975219-0.3867989
	c0.0169606-0.0135641,0.0339212-0.0271492,0.0475059-0.0441093l0.9771447-0.9737692l0.4885826-0.4885826
	c0.4939871-0.4939871,0.5614977-1.252799,0.2093658-1.8211107l0.1458931-0.146059
	C8.4711332,8.5125837,8.739871,8.5900345,9.0082779,8.5900345c0.3800058,0,0.7566156-0.1458941,1.0450277-0.4308882
	l0.6107225-0.6107435l0.8550253-0.8550043c0.0610695-0.06107,0.1153479-0.128933,0.1628532-0.1967955
	c0.3562536-0.5089393,0.3562536-1.1909213,0-1.6964645C11.6344013,4.732276,11.5801229,4.664413,11.5190535,4.603343z
	 M7.6307492,9.2889767c0,0.2137566-0.0814271,0.4139481-0.2307167,0.5632381L6.4296598,10.822587l-0.4953752,0.4953756
	c-0.1492896,0.1492891-0.3494606,0.2307167-0.5666132,0.2307167c-0.2137561,0-0.4139481-0.0814276-0.5632377-0.2307167
	c-0.1323085-0.1323299-0.2137561-0.3053722-0.2307167-0.4953756c-0.0033965-0.0237532-0.0033965-0.0475054-0.0033965-0.0712585
	c0-0.2137566,0.0848236-0.413928,0.2341132-0.5632172l1.4657478-1.4657478
	c0.1492896-0.1492901,0.3494816-0.2307167,0.5632377-0.2307167c0.0930238,0,0.1831279,0.0181618,0.2686758,0.0478792
	L6.2507982,9.3918371c-0.1325364,0.1325369-0.1325364,0.3472452,0,0.4797812
	c0.066268,0.0662689,0.153079,0.0994024,0.2398906,0.0994024c0.0868111,0,0.1736226-0.0331335,0.2398906-0.0994024
	l0.8521461-0.8530979C7.6125669,9.1039228,7.6307492,9.1942959,7.6307492,9.2889767z M11.0406389,6.2115879l-0.3766108,0.3766308
	L9.5748911,7.6773357C9.425601,7.8266253,9.2220335,7.9114485,9.0082779,7.9114485
	c-0.093915,0-0.184226-0.0190105-0.2697325-0.0500326L9.540514,7.0585361C9.672719,6.9256687,9.6723881,6.710794,9.5395203,6.578589
	C9.4068184,6.446384,9.1917782,6.4465499,9.0597391,6.5795832L8.2590952,7.3811584
	C8.2291508,7.2963972,8.210947,7.2070594,8.210947,7.1141186c0-0.2171526,0.0814276-0.4173236,0.2341137-0.5666132
	l1.4623508-1.4657478c0.1526861-0.1492896,0.3528576-0.2307167,0.5666132-0.2307167
	c0.0644665,0,0.128933,0.0067716,0.1900034,0.0237532c0.1424971,0.0305247,0.27143,0.1017838,0.3766108,0.2069635
	c0.1492891,0.1492896,0.2307167,0.3528571,0.2307167,0.5666132S11.1899281,6.0623188,11.0406389,6.2115879z"/>
</svg>
