<?xml version="1.0" encoding="utf-8"?>

<!--
 ~   Copyright 2017, WSO2 Inc. (http://www.wso2.com)
 ~
 ~   Licensed under the Apache License, Version 2.0 (the "License");
 ~   you may not use this file except in compliance with the License.
 ~   You may obtain a copy of the License at
 ~
 ~        http://www.apache.org/licenses/LICENSE-2.0
 ~
 ~   Unless required by applicable law or agreed to in writing, software
 ~   distributed under the License is distributed on an "AS IS" BASIS,
 ~   WITHOUT WARRANTIES OR CONDITIONS OF ANY KIND, either express or implied.
 ~   See the License for the specific language governing permissions and
 ~   limitations under the License.
-->

<svg version="1.1" id="cut" xmlns="http://www.w3.org/2000/svg" xmlns:xlink="http://www.w3.org/1999/xlink" x="0px" y="0px"
	 viewBox="0 0 14 14" style="enable-background:new 0 0 14 14;" xml:space="preserve">
<path d="M7.9995241,6.597187L5.3168616,3.8259332C5.4522481,3.5,5.5274649,3.142309,5.5274649,2.7662344
	C5.5274649,1.2402071,4.2872477,0,2.7628934,0C1.2368661,0-0.003341,1.2402071-0.003341,2.7662344
	c0,1.5243545,1.2402072,2.7645717,2.7662344,2.7645717c0.4078324,0,0.795608-0.0885911,1.1432707-0.2473803L5.5308008,6.959887
	L3.8008626,8.671442c-0.320914-0.1303673-0.6719229-0.2022486-1.0379691-0.2022486
	c-1.5260273,0-2.7662344,1.2402182-2.7662344,2.7645721C-0.003341,12.7597933,1.2368661,14,2.7628934,14
	c1.5243542,0,2.7645714-1.2402067,2.7645714-2.7662344c0-0.399477-0.0852451-0.7788982-0.2390146-1.121541L6.961555,8.4357729
	l4.8120885,4.9641752h2.2296972v-0.5983696L7.9995241,6.597187z M2.7628934,3.859364
	c-0.6033881,0-1.0947925-0.4897313-1.0947925-1.0931296c0-0.6033881,0.4914044-1.0947924,1.0947925-1.0947924
	c0.6033983,0,1.0931296,0.4914043,1.0931296,1.0947924C3.8560231,3.3696327,3.3662918,3.859364,2.7628934,3.859364z
	 M2.7628934,12.328558c-0.6033881,0-1.0947925-0.4914045-1.0947925-1.0947924s0.4914044-1.0931301,1.0947925-1.0931301
	c0.6033983,0,1.0931296,0.4897423,1.0931296,1.0931301S3.3662918,12.328558,2.7628934,12.328558z M6.807785,7.3342886
	c-0.1754994,0-0.3192406-0.1437416-0.3192406-0.3209143c0-0.1754994,0.1437411-0.3192511,0.3192406-0.3192511
	c0.1771727,0,0.3209143,0.1437516,0.3209143,0.3192511C7.1286993,7.190547,6.9849577,7.3342886,6.807785,7.3342886z
	 M8.9890146,6.3247409L7.5950379,4.8755937l4.5113349-4.2373586L14,0.6363505v1.0028653L8.9890146,6.3247409z"/>
</svg>
