<?xml version="1.0" encoding="utf-8"?>

<!--
 ~   Copyright 2017, WSO2 Inc. (http://www.wso2.com)
 ~
 ~   Licensed under the Apache License, Version 2.0 (the "License");
 ~   you may not use this file except in compliance with the License.
 ~   You may obtain a copy of the License at
 ~
 ~        http://www.apache.org/licenses/LICENSE-2.0
 ~
 ~   Unless required by applicable law or agreed to in writing, software
 ~   distributed under the License is distributed on an "AS IS" BASIS,
 ~   WITHOUT WARRANTIES OR CONDITIONS OF ANY KIND, either express or implied.
 ~   See the License for the specific language governing permissions and
 ~   limitations under the License.
-->

<svg version="1.1" id="deploy" xmlns="http://www.w3.org/2000/svg" xmlns:xlink="http://www.w3.org/1999/xlink" x="0px" y="0px"
	 viewBox="0 0 14 14" style="enable-background:new 0 0 14 14;" xml:space="preserve">
<path d="M13.7293224,0c-1.0910263,0-2.1821127,0.199743-3.1739988,0.5993509
	C9.365097,1.0988302,8.3732109,1.698181,7.5797267,2.5972683C6.3894391,3.796031,5.397614,5.0946651,4.3065271,6.3932991
	C4.2652493,6.4755502,4.1869006,6.4892688,4.1081257,6.4932318c-0.7925091,0.0393877-1.4877682,0-2.1821129,0
	c-0.1983405,0-0.1983405,0-0.2975414,0.0998716C1.2317291,7.0925827,0.834987,7.592062,0.4382448,8.0915413
	C0.3390439,8.1914129,0.3390439,8.2913456,0.5373846,8.2913456c0.738793-0.0117683,2.2842402,0.5288677,2.2842402,0.5288677
	L2.2236152,9.6898508c-0.0992007,0.1998043-0.0992007,0.3996077,0,0.4994793l0.3818653,0.3619881l1.3108892,1.3139992
	c0.1023715,0.0966406,0.3021142,0.0915184,0.4992964-0.012743l0.8541512-0.6200809c0,0,0.5799007,1.5311794,0.5870347,2.2699728
	c0.0050607,0.1983404,0.1049318,0.1957798,0.2022429,0.094079c0.4891748-0.4093637,0.9783502-0.8187876,1.4675255-1.2281513
	c0.0973716-0.1016998,0.0973716-0.1016998,0.0923109-0.2999802c-0.0177426-0.6941004-0.074934-1.3881397-0.055789-2.1814413
	c0.0019512-0.0787754,0.0136576-0.1574287,0.094811-0.200841c1.2650995-1.119256,2.5214806-2.1734548,3.6853676-3.3875823
	c0.0017681-0.0017681,0.0037193-0.0033531,0.0054874-0.0051212c0.0014629-0.0014634,0.0026217-0.0029268,0.0040846-0.0043902
	c0.001646-0.0017071,0.0034151-0.0033531,0.0050611-0.0050607l-0.0006714,0.0003052
	c0.7890949-0.7961063,1.3816776-1.5930052,1.7768955-2.5881836c0.4959431-0.9989588,0.6943445-2.097789,0.7935457-3.2965517
	c0-0.0998715,0-0.1998039,0-0.3995469C13.8285227,0,13.7293224,0,13.7293224,0z M9.6626387,3.196619
	c0.5951433,0,1.0910864,0.4994795,1.0910864,1.0988913c0,0.5993509-0.4959431,1.0988302-1.0910864,1.0988302
	c-0.5951443,0-1.0910263-0.4994793-1.0910263-1.0988302C8.5716124,3.6960986,9.0674944,3.196619,9.6626387,3.196619z
	 M3.9504282,12.6249456c-1.0388901,1.2574806-2.3431029,1.4149494-3.8408372,1.3679676l0.0090763-0.010334l-0.0123303,0.0117989
	c-0.1109326-1.4943266-0.009277-2.804081,1.202657-3.8957567c0.2126491,0.1845675,0.2126491,0.1845675,0.1285124,0.3911667
	c-0.69236,1.5653925-0.4160211,2.4349451-0.4160211,2.4349451c0.0027508,0.0065823,0.0064901,0.0124798,0.0091329,0.0192537
	c0,0,0.0223013,0.0385132,0.0380048,0.0523872c0.0142821,0.0120239,0.0511956,0.0282984,0.0511956,0.0282984
	c0.0067745,0.0023088,0.012779,0.0057764,0.0193801,0.0082207c0,0,0.8805356,0.238924,2.4149473-0.5196381
	C3.7569587,12.4203682,3.7569587,12.4203682,3.9504282,12.6249456z"/>
</svg>
