<?xml version="1.0" encoding="utf-8"?>

<!--
 ~   Copyright 2017, WSO2 Inc. (http://www.wso2.com)
 ~
 ~   Licensed under the Apache License, Version 2.0 (the "License");
 ~   you may not use this file except in compliance with the License.
 ~   You may obtain a copy of the License at
 ~
 ~        http://www.apache.org/licenses/LICENSE-2.0
 ~
 ~   Unless required by applicable law or agreed to in writing, software
 ~   distributed under the License is distributed on an "AS IS" BASIS,
 ~   WITHOUT WARRANTIES OR CONDITIONS OF ANY KIND, either express or implied.
 ~   See the License for the specific language governing permissions and
 ~   limitations under the License.
-->

<svg version="1.1" id="deprecate" xmlns="http://www.w3.org/2000/svg" xmlns:xlink="http://www.w3.org/1999/xlink" x="0px" y="0px"
	 viewBox="0 0 14 14" style="enable-background:new 0 0 14 14;" xml:space="preserve">
<path d="M0,6.4847603C0,4.3187819,0,2.1639898,0,0.001522c0.03113,0,0.0586952,0,0.0862602,0
	c0.8103436,0,1.6206895,0.0007358,2.4310265-0.0015209c0.0591609-0.0001647,0.0908155,0.0174531,0.1204288,0.0682871
	C2.821363,0.3835385,3.0098677,0.6959574,3.1936901,1.0111074c0.0307746,0.0527612,0.0644367,0.0725616,0.1267405,0.0724723
	C4.7018714,1.0815953,6.0833144,1.0820619,7.464757,1.0820619c0.0280557,0,0.0561113,0,0.0897408,0
	c0,0.2409551,0,0.4780732,0,0.7215971c-2.1477265,0-4.2922549,0-6.4432683,0
	c-0.0473121,0.206538-0.4571315,2.7134924-0.4571315,2.7134924L0.7164845,4.682765c0,0,0.4805395-1.6807339,0.7196596-2.5170786
	c2.4002907,0,4.79737,0,7.2030764,0C8.5881014,2.3429301,8.5379896,2.5169709,8.4877071,2.6909633
	c-0.3578424,1.238256-0.7161565,2.476378-1.0722342,3.7151408C7.3986177,6.4647408,7.3779178,6.4865756,7.3126469,6.4865208
	C4.9022012,6.4844294,2.4917529,6.4847589,0.0813049,6.4847589C0.0560666,6.4847589,0.0308281,6.4847603,0,6.4847603z
	 M5.2397857,13.9981985c2.4674287,0,4.9348559-0.0003386,7.4022813,0.0018015
	c0.0668144,0.0000572,0.0880032-0.0222931,0.105257-0.0823174c0.3644953-1.2680454,0.7312794-2.5354347,1.0975809-3.8029613
	C13.8963757,9.9366159,13.9476719,9.758461,14,9.5770273c-2.462575,0-4.9163179,0-7.3733487,0
	c-0.2447724,0.8561153-0.7366705,2.57658-0.7366705,2.57658l-0.0638618-0.169529c0,0,0.4195061-2.5662155,0.4679379-2.7776356
	c2.2018604,0,4.3970833,0,6.5955791,0c0-0.2492809,0-0.4920044,0-0.738656c-0.0344257,0-0.0631437,0-0.0918627,0
	c-1.4140978,0-2.8281965-0.0004768-4.2422924,0.0015545C8.491703,8.4694328,8.4572449,8.4491644,8.4257431,8.3951559
	C8.2375755,8.0725565,8.0446157,7.7527518,7.8566265,7.4300504c-0.030313-0.0520363-0.062716-0.0700707-0.1232748-0.0699024
	C6.9038601,7.3624582,6.0743575,7.3617048,5.2448578,7.3617048c-0.0282164,0-0.0564327,0-0.0882993,0
	c0,2.2135859,0,4.4193144,0,6.6364937C5.1881166,13.9981985,5.2139511,13.9981985,5.2397857,13.9981985z M10.0752726,11.5232878
	v1.6167498h0.3931332v-1.6167498H10.0752726z M9.0581837,11.5232878v1.6167498h0.3931322v-1.6167498H9.0581837z
	 M8.4835501,11.2441111h2.5594893v2.2093639H8.4835501V11.2441111z M9.1181984,10.051836h1.2875195v0.410141h0.8489523v0.4400263
	H8.2690029V10.461977h0.8491955V10.051836L9.1181984,10.051836z M11.0057096,6.3248057
	C11.0057049,6.3247995,10.03125,5.21875,10.03125,5.21875L9.5929947,4.7861242l1.5489616,2.8054442L14,6.1659646
	c0,0-1.8520451,0.3767509-1.8592129,0.3782086l0.1713133-0.3622417c0.0791788-0.204041,0.1509142-0.4108338,0.2139168-0.6204505
	c0.23806-0.7920628,0.4107351-1.6748946,0.2460327-2.4986095c-0.1145744-0.5728354-0.4742279-1.0786185-0.996604-1.3466312
	c-0.5945158-0.3050245-1.2894735-0.2369934-1.9288998-0.1568232C9.0225916,1.7028384,8.5135946,1.9142797,8.5134077,1.9143569
	c0.2319603-0.0963663,0.544529-0.1036711,0.7897749-0.1294754c0.5600491-0.0589268,1.1643581-0.075114,1.711441,0.0766444
	c0.7223101,0.200366,1.1348734,0.7385173,1.1127853,1.4862716c-0.0179577,0.6079304-0.2285566,1.1894095-0.4656506,1.7475059
	C11.4784317,5.5268383,11.0057096,6.3248057,11.0057096,6.3248057z"/>
</svg>
