<?xml version="1.0" encoding="utf-8"?>

<!--
 ~   Copyright 2017, WSO2 Inc. (http://www.wso2.com)
 ~
 ~   Licensed under the Apache License, Version 2.0 (the "License");
 ~   you may not use this file except in compliance with the License.
 ~   You may obtain a copy of the License at
 ~
 ~        http://www.apache.org/licenses/LICENSE-2.0
 ~
 ~   Unless required by applicable law or agreed to in writing, software
 ~   distributed under the License is distributed on an "AS IS" BASIS,
 ~   WITHOUT WARRANTIES OR CONDITIONS OF ANY KIND, either express or implied.
 ~   See the License for the specific language governing permissions and
 ~   limitations under the License.
-->

<svg version="1.1" id="dss" xmlns="http://www.w3.org/2000/svg" xmlns:xlink="http://www.w3.org/1999/xlink" x="0px" y="0px"
	 viewBox="0 0 14 14" style="enable-background:new 0 0 14 14;" xml:space="preserve">
<path d="M12.4572067,10.9244289c-0.0399208-0.1697416-0.1098289-0.3295479-0.1897316-0.4792976l0.3295469-0.4094505
	l-0.6690903-0.6690292L11.5185423,9.686204c-0.1597452-0.0898991-0.3295469-0.1598072-0.4992876-0.2097235l-0.0599127-0.509284
	L10.0106831,8.957201L9.9507704,9.4764805C9.7710342,9.5263968,9.6012926,9.5963049,9.4414864,9.686204L9.0121059,9.3666515
	l-0.6590338,0.6790247l0.0099955,0.0099955l0.3294868,0.4093895c-0.089838,0.1498108-0.1497498,0.309556-0.1897316,0.4693632
	l-0.3794641,0.0499163l0.0499773,0.2995605l0.2895651-0.2196569l0.6890202,0.6990156l-0.2296524,0.2795696l0.3594723,0.0399208
	v0.9786463l-0.3395424,0.0399208c0,0-0.0199299,0.0099955-0.0299263,0.0199919l0.2695751,0.3294859l0.2796297-0.2296534
	c0.1498117,0.0898991,0.2995615,0.1498108,0.4593678,0.199728l0.0099344,0.0998325l0.0499773,0.4593678h0.2096624h0.5392704
	h0.0099344h0.1897316l0.0299864-0.1897326v-0.0099955l0.0399218-0.3494768
	c0.1698017-0.0499172,0.3295469-0.1098289,0.4892921-0.199728l0.0499783,0.0399218l0.2196569,0.1797361h0.0099955
	l0.1597452,0.1198854l0.6590948-0.6690903l-0.2396488-0.309556l-0.0898981-0.1198244
	c0.0799026-0.1497498,0.1498108-0.309556,0.1997271-0.4792976l0.3195524-0.0399818c0.0099955,0,0.0099955,0,0.0199299,0
	l0.1797972-0.0199299v-0.199728v-0.5492048c0,0,0-0.0099955,0-0.0199909v-0.1797361L12.4572067,10.9244289z M9.4814692,11.4736338
	c0-0.1797371,0.0499163-0.3594732,0.1397543-0.4992886c0.1698017-0.2995605,0.4893532-0.4892931,0.8488264-0.4892931
	c0.1697407,0,0.3294859,0.0399218,0.4693012,0.1198244c0.309557,0.1697407,0.5192795,0.4892931,0.5192795,0.8687572
	c0,0.5392694-0.4393759,0.9785852-0.9885807,0.9785852C9.9307795,12.452219,9.4814692,12.0129032,9.4814692,11.4736338z
	 M8.6226463,13.1512346c0.0499783-0.089838,0.0898991-0.1797371,0.10989-0.2695742l0.2995605-0.0399818v-0.5292139
	l-0.2896261-0.0399828c-0.0299253-0.0898371-0.0698462-0.1797361-0.1098289-0.2595787l0.1797371-0.2297134l-0.3694687-0.3794641
	l-0.2296534,0.1797361c-0.0799026-0.0499163-0.1598063-0.0798416-0.2496438-0.109828
	c-0.0099955,0-0.0299864-0.0099964-0.0399208-0.0099964l-0.0299869-0.2895651H7.3644915l-0.0399818,0.2895651
	c-0.0998335,0.0299873-0.1997275,0.0699081-0.2895651,0.1198244l-0.2297144-0.1797361l-0.3794026,0.3794641l0.1897316,0.2396488
	c-0.0399818,0.0799026-0.0799031,0.1698017-0.099894,0.2596388l-0.309556,0.0399828v0.5292139l0.3195515,0.0399208
	c0.0199909,0.0898991,0.0599122,0.1698017,0.0998335,0.2496443l-0.1996665,0.2496443l0.3794026,0.3794632l0.2496443-0.199666
	c0.0799031,0.0499163,0.1698017,0.0798416,0.2496443,0.1098289L7.3445005,14l0.5392094-0.0099344l0.0299864-0.2995605
	c0.0998335-0.0299873,0.1897326-0.0699081,0.2795696-0.1198244l0.2396488,0.199666l0.3794641-0.3794632L8.6226463,13.1512346z
	 M7.6240702,13.1412392c-0.309556,0-0.5592003-0.2496443-0.5592003-0.5592003c0-0.2995615,0.2496443-0.5492048,0.5592003-0.5492048
	c0.0299869,0,0.0599122,0,0.0898991,0.0099955c0.1198239,0.0199909,0.2296529,0.0799026,0.309556,0.1697407h0.0099955
	c0.089838,0.0998945,0.1398153,0.2297144,0.1398153,0.3694687c0,0.0599117-0.0099955,0.109889-0.0199909,0.1598063
	c0,0.0099955,0,0.0099955,0,0.0099955l-0.0099955,0.0099955c-0.0199909,0.0698462-0.0599127,0.1397543-0.0998335,0.1896706
	C7.9336267,13.0713921,7.7838769,13.1412392,7.6240702,13.1412392z M6.6554804,13.9700747
	C5.3473477,14,2.5712759,13.8901711,1.0634159,12.6419506c-0.0299256-0.2496443,0-2.4165382,0-2.4165382
	s1.2382859,0.9885817,5.2026048,1.0784798c0.0998945,0,0.1897321,0,0.2895656-0.0099955l-0.4593062,0.4693632L6.325933,12.052825
	l-0.3694682,0.0499163l0.0099955,0.9785852l0.3594728,0.0399828l-0.2296529,0.2895651L6.6554804,13.9700747z M1.942168,0.7888534
	c1.9273062-0.8088444,3.96438-0.7988489,4.4037561-0.7788579c0,0,0.1298194-0.0099955,0.3494773-0.0099955
	c0.729002,0,2.4665151,0.0799032,4.1341205,0.7789189c0.0799036,0.0399211,1.7275181,0.6690291,0.4093895,1.3280627
	c-0.2396479,0.1198244-1.6676054,0.8987432-4.4536114,0.9586554c0,0.0099955,0,0.0099955,0,0.0099955
	C3.4700191,3.1554747,1.7924181,2.2467968,1.5327785,2.1069815C0.2146503,1.4579436,1.8623258,0.81884,1.942168,0.7888534z
	 M8.0135298,10.0256853l0.0499163,0.0699081c-0.2795691,0.0299864-0.5492043,0.0599117-0.7988486,0.0699072
	c-0.6590338,0.0399208-4.3737698,0.1997271-6.2011814-1.3181286c-0.0299256-0.2396479,0-2.4065418,0-2.4065418
	s1.2382859,0.9885807,5.2026048,1.0684838c4.1541119-0.0399818,5.4522495-1.0784793,5.4522495-1.0784793
	s0.0199299,2.166894,0,2.4165373c-0.1498108,0.1198244-0.309556,0.2396488-0.4793587,0.3395433l-0.0599117-0.4693623
	L9.7910252,8.7075567L9.721117,9.2867489c-0.0898981,0.0299864-0.1797361,0.0699072-0.2596397,0.109828L8.992115,9.0371046
	L8.0135298,10.0256853z M11.7182703,5.3024383c-1.148387,0.9586554-3.0357113,1.2482204-4.4536729,1.3181281
	c-0.6590338,0.0399213-4.3737698,0.209723-6.2011814-1.3081326c-0.0299256-0.2496438,0-2.4165378,0-2.4165378
	s1.2382859,0.9885809,5.2026048,1.0684233c4.1541119-0.0399213,5.4522495-1.0684233,5.4522495-1.0684233
	S11.7382002,5.0627899,11.7182703,5.3024383z"/>
</svg>
