<?xml version="1.0" encoding="utf-8"?>

<!--
 ~   Copyright 2017, WSO2 Inc. (http://www.wso2.com)
 ~
 ~   Licensed under the Apache License, Version 2.0 (the "License");
 ~   you may not use this file except in compliance with the License.
 ~   You may obtain a copy of the License at
 ~
 ~        http://www.apache.org/licenses/LICENSE-2.0
 ~
 ~   Unless required by applicable law or agreed to in writing, software
 ~   distributed under the License is distributed on an "AS IS" BASIS,
 ~   WITHOUT WARRANTIES OR CONDITIONS OF ANY KIND, either express or implied.
 ~   See the License for the specific language governing permissions and
 ~   limitations under the License.
-->

<svg version="1.1" id="endpoint" xmlns="http://www.w3.org/2000/svg" xmlns:xlink="http://www.w3.org/1999/xlink" x="0px" y="0px"
	 viewBox="0 0 14 14" style="enable-background:new 0 0 14 14;" xml:space="preserve">
<path d="M14,7.0008035C14,10.8662701,10.8662701,14,7.0008035,14s-6.9991865-3.1337299-6.9991865-6.9991965
	c0-1.4295568,0.4280546-2.7573571,1.1630244-3.8654664C1.2324921,3.199954,2.1758351,4.0641479,2.4988997,4.3581376
	C2.4859743,4.379138,2.4730489,4.4001379,2.4617503,4.4211378C2.4310589,4.4728293,2.4019842,4.5245209,2.3745167,4.5778193
	C2.2711337,4.7765107,2.1790688,4.9816499,2.1015365,5.1932569c-0.208383,0.563746-0.3230646,1.1727262-0.3230646,1.8075466
	v0.0258508c0.0145324,2.8688049,2.3502827,5.1964903,5.2223315,5.1964903c2.8801236,0,5.2223411-2.3422174,5.2223411-5.2223411
	c0-2.7718897-2.1693773-5.0462666-4.8992763-5.2142568C7.2172613,1.780079,7.1090274,1.7768551,7.0008035,1.7768551
	c-0.4070644,0-0.8044276,0.0468408-1.1856513,0.1356816C5.4694805,1.9933028,5.1367245,2.1079943,4.820118,2.2533772
	C4.7587347,2.2824519,4.6973515,2.3115265,4.6375856,2.3438349c-0.001617,0-0.001617,0-0.0032339,0.0016072L3.3227103,1.0434922
	C4.3920531,0.3812138,5.6520128,0,7.0008035,0C10.8662701,0,14,3.1337204,14,7.0008035z M2.8623474,7.0266542
	c-0.001617,0.0209999-0.001617,0.0403829-0.001617,0.0613832c0,2.285676,1.8543875,4.1384459,4.1400728,4.1384459
	s4.1400733-1.8527699,4.1400733-4.1384459c0-2.1790791-1.6815567-3.9623919-3.8170085-4.1271582V4.747426
	c1.1501088,0.1566916,2.040153,1.1468854,2.040153,2.3406115c0,1.3019495-1.0596514,2.3616009-2.3632178,2.3616009
	S4.6375856,8.389987,4.6375856,7.0880375c0-0.0210004,0-0.0403833,0.001617-0.0613832H2.8623474z M7.3238683,7.0266542H5.8506947
	c0.0452237,0.6622782,0.5960546,1.1856413,1.2696414,1.1856413c0.704278,0,1.2744918-0.5702038,1.2744918-1.2744823
	c0-0.6332135-0.4635968-1.1598105-1.0709596-1.2567258V7.0266542z M4.6182022,5.0543413L2.5861235,5.0624161v0.9950442h3.7685509
	V2.3971336H5.3047147v1.9642379L1.0031091,0H0v0.5296875L4.6182022,5.0543413z"/>
</svg>
