<?xml version="1.0" encoding="utf-8"?>

<!--
 ~   Copyright 2017, WSO2 Inc. (http://www.wso2.com)
 ~
 ~   Licensed under the Apache License, Version 2.0 (the "License");
 ~   you may not use this file except in compliance with the License.
 ~   You may obtain a copy of the License at
 ~
 ~        http://www.apache.org/licenses/LICENSE-2.0
 ~
 ~   Unless required by applicable law or agreed to in writing, software
 ~   distributed under the License is distributed on an "AS IS" BASIS,
 ~   WITHOUT WARRANTIES OR CONDITIONS OF ANY KIND, either express or implied.
 ~   See the License for the specific language governing permissions and
 ~   limitations under the License.
-->

<svg version="1.1" id="endpoint" xmlns="http://www.w3.org/2000/svg" xmlns:xlink="http://www.w3.org/1999/xlink" x="0px" y="0px"
	 viewBox="0 0 14 14" style="enable-background:new 0 0 14 14;" xml:space="preserve">
<path d="M13,10.5C11.8,12.7,9.5,14,7,14c-1.2,0-2.4-0.3-3.5-0.9C0.1,11.1-1,6.8,0.9,3.5l0.2-0.4l5,2.9L6.3,6l0.1-0.1
	C6.6,5.8,6.8,5.8,7,5.8c0.2,0,0.4,0.1,0.6,0.2C8.2,6.3,8.3,7,8,7.6C7.8,7.9,7.4,8.1,7,8.1C6.8,8.1,6.6,8.1,6.4,8
	C6,7.8,5.8,7.4,5.8,7V6.8L5.7,6.7L4.3,6L4,5.8L4,6.1C3.6,7.5,4.2,9,5.4,9.7c0.5,0.3,1,0.4,1.6,0.4c1.1,0,2.2-0.6,2.7-1.6
	C10.1,7.8,10.3,7,10,6.1C9.8,5.3,9.3,4.7,8.6,4.2C8.1,4,7.5,3.8,7,3.8c-0.2,0-0.4,0-0.6,0.1L6.2,3C6.4,2.9,6.7,2.9,7,2.9
	c0.5,0,1,0.1,1.4,0.3c2.1,0.8,3.2,3.1,2.4,5.3C10.2,10,8.7,11.1,7,11.1c-0.5,0-1-0.1-1.4-0.3c-1-0.4-1.8-1.1-2.3-2.1
	c-0.5-1-0.5-2.1-0.1-3.1l0.1-0.2L3,5.2L1.8,4.5L1.5,4.4L1.4,4.6C0.9,5.9,0.8,7.2,1.1,8.5C1.8,11.2,4.2,13,7,13
	c0.5,0,1.1-0.1,1.6-0.2c3.2-0.9,5.1-4.2,4.3-7.4C12.1,2.8,9.7,0.9,7,0.9c-0.4,0-0.9,0-1.3,0.1L5.4,0.2C5.9,0,6.5,0,7,0
	c1.2,0,2.4,0.3,3.5,0.9C13.8,2.9,15,7.2,13,10.5z"/>
</svg>
