<?xml version="1.0" encoding="utf-8"?>

<!--
 ~   Copyright 2017, WSO2 Inc. (http://www.wso2.com)
 ~
 ~   Licensed under the Apache License, Version 2.0 (the "License");
 ~   you may not use this file except in compliance with the License.
 ~   You may obtain a copy of the License at
 ~
 ~        http://www.apache.org/licenses/LICENSE-2.0
 ~
 ~   Unless required by applicable law or agreed to in writing, software
 ~   distributed under the License is distributed on an "AS IS" BASIS,
 ~   WITHOUT WARRANTIES OR CONDITIONS OF ANY KIND, either express or implied.
 ~   See the License for the specific language governing permissions and
 ~   limitations under the License.
-->

<svg version="1.1" id="endpoint" xmlns="http://www.w3.org/2000/svg" xmlns:xlink="http://www.w3.org/1999/xlink" x="0px" y="0px"
	 viewBox="0 0 14 14" style="enable-background:new 0 0 14 14;" xml:space="preserve">
<path d="M5.4,2.4v2l-4-4.1c0,0,0,0,0,0L1.2,0.2c0,0,0,0,0,0C1.1,0.2,1,0.1,0.9,0.1c-0.3,0-0.6,0.2-0.6,0.6c0,0.1,0,0.2,0.1,0.3
	l0.1,0.2c0,0,0,0,0,0l4.1,4l-2.1,0v1h3.8V2.4H5.4z M7.1,0.2c-1.2,0-2.3,0.3-3.3,0.9l1,1c0,0,0,0,0,0c0.3-0.2,0.7-0.3,1.1-0.4
	c0.4-0.1,0.8-0.2,1.3-0.2c0.1,0,0.2,0,0.4,0c2.9,0.2,5.2,2.6,5.2,5.5c0,3.1-2.5,5.6-5.6,5.6c-3,0-5.5-2.5-5.6-5.5
	c0-0.7,0.1-1.3,0.4-2C2,5,2.1,4.8,2.2,4.5c0,0,0,0,0-0.1c-0.3-0.2-0.7-0.7-1-0.9c-0.6,1.1-1,2.3-1,3.5c0,3.8,3.1,6.9,6.9,6.9
	c3.8,0,6.9-3.1,6.9-6.9C14,3.3,10.9,0.2,7.1,0.2z M7.7,3.3v1.3C8.9,4.9,9.8,6,9.8,7.2c0,1.5-1.2,2.6-2.7,2.6c-1.4,0-2.5-1.1-2.6-2.5
	H3.2c0.1,2.1,1.8,3.8,3.9,3.8c2.2,0,4-1.8,4-4C11.1,5.2,9.6,3.6,7.7,3.3z M7.7,6.1v1.3H6.2c0.2,0.4,0.5,0.7,1,0.7c0.6,0,1-0.5,1-1
	C8.3,6.6,8,6.3,7.7,6.1z"/>
</svg>
