<?xml version="1.0" encoding="utf-8"?>

<!--
 ~   Copyright 2017, WSO2 Inc. (http://www.wso2.com)
 ~
 ~   Licensed under the Apache License, Version 2.0 (the "License");
 ~   you may not use this file except in compliance with the License.
 ~   You may obtain a copy of the License at
 ~
 ~        http://www.apache.org/licenses/LICENSE-2.0
 ~
 ~   Unless required by applicable law or agreed to in writing, software
 ~   distributed under the License is distributed on an "AS IS" BASIS,
 ~   WITHOUT WARRANTIES OR CONDITIONS OF ANY KIND, either express or implied.
 ~   See the License for the specific language governing permissions and
 ~   limitations under the License.
-->

<svg version="1.1" id="enterprise-app" xmlns="http://www.w3.org/2000/svg" xmlns:xlink="http://www.w3.org/1999/xlink" x="0px"
	 y="0px" viewBox="0 0 14 14" style="enable-background:new 0 0 14 14;" xml:space="preserve">
<path d="M11.5874023,13.2353516l-0.0006104-0.3068848c0-4.3178711,0-8.6186523,0-12.9284668C8.5245361,0,5.4775391,0,2.4110107,0
	c0,4.3143921,0,8.6184082,0,12.9379883l0.0003662,0.2973633H1.3104858V14h1.1018677c0.0022583,0,0.0042725,0,0.0065308,0
	c4.1246338,0,5.0394287,0,9.1680908,0c0.0007324,0,0.0012817,0,0.0020142,0h1.1063843v-0.7646484H11.5874023z M9.1689453,1.0817871
	c0.4379883,0,0.8742065,0,1.3236084,0c0,0.4359741,0,0.8757935,0,1.3276978c-0.446167,0-0.8792114,0-1.3236084,0
	C9.1689453,1.9664917,9.1689453,1.5306396,9.1689453,1.0817871z M9.1685181,4.8560791c0.4386597,0,0.8747559,0,1.3240356,0
	c0,0.4361572,0,0.8757935,0,1.3253174c-0.4402466,0-0.8766479,0-1.3240356,0
	C9.1685181,5.7404175,9.1685181,5.3045654,9.1685181,4.8560791z M10.4919434,6.7439575c0,0.4359131,0,0.8751831,0,1.3269043
	c-0.4454346,0-0.8779907,0-1.3224487,0c0-0.4428101,0-0.8781738,0-1.3269043
	C9.6066895,6.7439575,10.0423584,6.7439575,10.4919434,6.7439575z M7.2791138,4.8532104c0.4454956,0,0.8821411,0,1.3291016,0
	c0,0.4400024,0,0.8764648,0,1.3255005c-0.4407349,0-0.8804932,0-1.3291016,0
	C7.2791138,5.7354736,7.2791138,5.2991943,7.2791138,4.8532104z M7.2813721,4.2966309c0-0.4432373,0-0.8792114,0-1.3278198
	c0.4387817,0,0.8751221,0,1.3242798,0c0,0.4364624,0,0.8764648,0,1.3278198
	C8.1584473,4.2966309,7.7254028,4.2966309,7.2813721,4.2966309z M8.6054688,6.737793c0,0.4418945,0,0.8815308,0,1.3310547
	c-0.4360352,0-0.8678589,0-1.3174438,0c0-0.4371948,0-0.8751221,0-1.3310547
	C7.7268066,6.737793,8.159668,6.737793,8.6054688,6.737793z M7.2786865,8.6329956c0.4417725,0,0.8808594,0,1.329895,0
	c0,0.4375,0,0.8734741,0,1.321106c-0.4430542,0-0.8822632,0-1.329895,0
	C7.2786865,9.5112915,7.2786865,9.0796509,7.2786865,8.6329956z M5.3925781,1.079895c0.4436035,0,0.880127,0,1.3322144,0
	c0,0.4448853,0,0.8773193,0,1.3233032c-0.4430542,0-0.8827515,0-1.3322144,0
	C5.3925781,1.9631348,5.3925781,1.5270386,5.3925781,1.079895z M5.3956299,4.2972412c0-0.4420166,0-0.8775635,0-1.3270874
	c0.4387207,0,0.8782959,0,1.3267822,0c0,0.4395752,0,0.8760376,0,1.3270874
	C6.2744141,4.2972412,5.8413086,4.2972412,5.3956299,4.2972412z M6.7180786,4.8563232c0,0.4359131,0,0.8757324,0,1.3276978
	c-0.446228,0-0.8792725,0-1.3236694,0c0-0.4429932,0-0.8789062,0-1.3276978
	C5.8324585,4.8563232,6.2686157,4.8563232,6.7180786,4.8563232z M3.505188,1.0790405c0.4456177,0,0.8818359,0,1.3283691,0
	c0,0.4407349,0,0.87677,0,1.3252563c-0.4406738,0-0.8800049,0-1.3283691,0
	C3.505188,1.9606323,3.505188,1.5248413,3.505188,1.0790405z M4.8345337,2.9674072c0,0.4481812,0,0.8845825,0,1.328064
	c-0.4459839,0-0.8826904,0-1.3290405,0c0-0.4445801,0-0.8807373,0-1.328064
	C3.9485474,2.9674072,4.3851318,2.9674072,4.8345337,2.9674072z M4.8308105,9.9585571c-0.446167,0-0.8792114,0-1.3236694,0
	c0-0.4429932,0-0.8788452,0-1.3276978c0.4380493,0,0.8742676,0,1.3236694,0
	C4.8308105,9.0667725,4.8308105,9.5066528,4.8308105,9.9585571z M4.8344116,8.0669556c-0.4430542,0-0.8826904,0-1.3291016,0
	c0-0.4464111,0-0.8826294,0-1.3275146c0.446228,0,0.8829346,0,1.3291016,0
	C4.8344116,7.1824341,4.8344116,7.6188965,4.8344116,8.0669556z M4.8347778,6.1801147c-0.4403687,0-0.8765259,0-1.3311768,0
	c0-0.4434814,0-0.8756104,0-1.3222046c0.442749,0,0.8823242,0,1.3311768,0
	C4.8347778,5.2960205,4.8347778,5.7324829,4.8347778,6.1801147z M6.7203979,12.918457c-0.4406128,0-0.880127,0-1.3285522,0
	c0-0.8019409,0-1.597168,0-2.402832c0.4450684,0,0.8814087,0,1.3285522,0
	C6.7203979,11.3147583,6.7203979,12.1101074,6.7203979,12.918457z M6.7226562,9.9584961c-0.4504395,0-0.8833008,0-1.3278809,0
	c0-0.442688,0-0.8782959,0-1.3272095c0.4404297,0,0.8798218,0,1.3278809,0
	C6.7226562,9.0723877,6.7226562,9.508606,6.7226562,9.9584961z M6.7254028,8.0661011c-0.4453735,0-0.8851318,0-1.3334351,0
	c0-0.4436646,0-0.8798828,0-1.3257446c0.4455566,0,0.8822632,0,1.3334351,0
	C6.7254028,7.1886597,6.7254028,7.6212158,6.7254028,8.0661011z M8.6090698,12.9193726c-0.4436646,0-0.8829956,0-1.3305664,0
	c0-0.8018799,0-1.5928345,0-2.3989258c0.4424438,0,0.8817139,0,1.3305664,0
	C8.6090698,11.3167114,8.6090698,12.1119995,8.6090698,12.9193726z M8.6119385,2.4031372c-0.4428101,0-0.8826294,0-1.3320923,0
	c0-0.4400024,0-0.8762207,0-1.3233643c0.4430542,0,0.8796997,0,1.3320923,0
	C8.6119385,1.5244751,8.6119385,1.9569702,8.6119385,2.4031372z M10.4963379,9.9572144c-0.4458618,0-0.8823242,0-1.3287964,0
	c0-0.444458,0-0.8803711,0-1.3278198c0.4430542,0,0.8793945,0,1.3287964,0
	C10.4963379,9.0776367,10.4963379,9.513855,10.4963379,9.9572144z M10.4974365,4.296936c-0.4501343,0-0.8832397,0-1.328064,0
	c0-0.442627,0-0.8783569,0-1.3274536c0.4406128,0,0.880188,0,1.328064,0
	C10.4974365,3.4111938,10.4974365,3.8476562,10.4974365,4.296936z"/>
</svg>
