<?xml version="1.0" encoding="utf-8"?>

<!--
 ~   Copyright 2017, WSO2 Inc. (http://www.wso2.com)
 ~
 ~   Licensed under the Apache License, Version 2.0 (the "License");
 ~   you may not use this file except in compliance with the License.
 ~   You may obtain a copy of the License at
 ~
 ~        http://www.apache.org/licenses/LICENSE-2.0
 ~
 ~   Unless required by applicable law or agreed to in writing, software
 ~   distributed under the License is distributed on an "AS IS" BASIS,
 ~   WITHOUT WARRANTIES OR CONDITIONS OF ANY KIND, either express or implied.
 ~   See the License for the specific language governing permissions and
 ~   limitations under the License.
-->

<svg version="1.1" id="enum" xmlns="http://www.w3.org/2000/svg" xmlns:xlink="http://www.w3.org/1999/xlink" x="0px" y="0px"
	 viewBox="0 0 14 14" style="enable-background:new 0 0 14 14;" xml:space="preserve">
<path d="M13.7822914,6.881494c0,0-5.5933971-5.0729122-7.1095285-6.4284101
	C6.4950438,0.2941935,6.2023764,0.23118,5.9525003,0.1928046c-0.4520111-0.0694175-4.733674-0.1289931-4.733674-0.1289931
	c-0.0404938,0-0.0809022,0.0054302-0.119586,0.0174018C1.0703833,0.0901409,1.0414596,0.098511,1.0119487,0.1022352
	c-0.6386879,0.0805826-0.928166,0.3920377-0.9431928,1.0399209C0.0546509,1.7501994,0,3.3615205,0,3.3802083v1.7112381
	c0,0.0177512,0.0009218,0.0354648,0.0031927,0.053071C0.0212672,5.284605,0.0563234,5.4259491,0.046147,5.5639586
	c-0.0637012,0.8640003,0.3269354,1.5166073,0.9314442,2.081202c1.2878754,1.202837,6.6209707,6.1291723,6.6209707,6.1291723
	c0.2536488,0.2309465,0.6464963,0.2125444,0.8774438-0.0411072l5.3503809-5.9105425
	C14.074111,7.5506072,14.0543709,7.1292219,13.7822914,6.881494z M2.5635974,3.6547227
	C2.0405746,3.6520541,1.588136,3.1989317,1.5919234,2.6815732c0.0037799-0.5167456,0.4637336-0.9718081,0.9790815-0.9686786
	c0.5245619,0.003189,0.9615571,0.4474431,0.9600408,0.9759892C3.5295329,3.2165453,3.0879474,3.6573951,2.5635974,3.6547227z
	 M9.7012796,5.1406074c0,1.092186-1.1490965,2.5484037-3.3448553,2.7418523
	c0.0568509,1.0352755,0.4892116,1.877161,1.4335008,1.877161c0.6371379,0,1.1945891-0.352644,1.7065473-1.5130987h0.0909863
	C9.0300074,9.6686344,8.0857182,10.20331,6.8229194,10.20331c-3.3221095,0-2.434731-6.2686501,1.5472331-6.2686501
	C9.2689486,3.93466,9.7012796,4.4693947,9.7012796,5.1406074z M6.3450065,7.780056
	c2.1502662-0.1933889,3.2424521-1.6382785,3.2424521-2.6621947c0-0.5915856-0.3640623-1.0466633-1.092186-1.0466633
	C7.1755633,4.071198,6.2995133,6.1417775,6.3450065,7.780056z"/>
</svg>
