<?xml version="1.0" encoding="utf-8"?>

<!--
 ~   Copyright 2017, WSO2 Inc. (http://www.wso2.com)
 ~
 ~   Licensed under the Apache License, Version 2.0 (the "License");
 ~   you may not use this file except in compliance with the License.
 ~   You may obtain a copy of the License at
 ~
 ~        http://www.apache.org/licenses/LICENSE-2.0
 ~
 ~   Unless required by applicable law or agreed to in writing, software
 ~   distributed under the License is distributed on an "AS IS" BASIS,
 ~   WITHOUT WARRANTIES OR CONDITIONS OF ANY KIND, either express or implied.
 ~   See the License for the specific language governing permissions and
 ~   limitations under the License.
-->

<svg version="1.1" id="globe" xmlns="http://www.w3.org/2000/svg" xmlns:xlink="http://www.w3.org/1999/xlink" x="0px" y="0px"
	 viewBox="0 0 14 14" style="enable-background:new 0 0 14 14;" xml:space="preserve">
<path d="M13.9992676,7c0-0.0112305,0.0007935-0.0223389,0.0007324-0.0335693
	c-0.0004883-0.072998-0.003418-0.1455078-0.0061035-0.2180786c-0.0010376-0.0301514-0.0004883-0.0606079-0.0019531-0.0906982
	H13.991333c0-0.0001221,0-0.0003052,0-0.0004272c-0.0864258-1.7419434-0.8045654-3.3666992-2.0435791-4.6068115
	c-1.3131104-1.3120117-3.0576782-2.0388184-4.914856-2.0499878H6.9638062
	C3.2297363,0.0198364,0.184082,2.9732056,0.0079346,6.6581421c-0.0013428,0.027771-0.0007935,0.0559692-0.00177,0.0838013
	C0.0032959,6.8162842,0.0003662,6.890625,0,6.9655762C-0.000061,6.9771118,0.0007324,6.9884644,0.0007324,7
	S-0.000061,7.0228882,0,7.0344238c0.0003662,0.0749512,0.0032959,0.149292,0.0061646,0.2236328
	c0.0009766,0.027832,0.0004272,0.0560303,0.00177,0.0838013c0.1761475,3.6849365,3.2218018,6.6383057,6.9558716,6.6577148h0.0690918
	c1.8571777-0.0111694,3.6017456-0.7379761,4.914856-2.0500488c1.2390137-1.2400513,1.9571533-2.8648071,2.0435791-4.6067505
	c0-0.0001221,0-0.0003052,0-0.0004272h0.0006104c0.0014648-0.0300903,0.0009155-0.0605469,0.0019531-0.0906982
	C13.996582,7.1790771,13.9995117,7.1065063,14,7.0335693C14.000061,7.0223389,13.9992676,7.0112305,13.9992676,7z
	 M3.809082,6.6576538c0.0044556-0.1036987,0.0111084-0.2073364,0.0200806-0.3132324
	C3.8826294,5.697876,4.0119629,5.0668945,4.2103882,4.4627075c0.7970581,0.2519531,1.6208496,0.395752,2.4468384,0.423645v1.7713013
	H3.809082z M12.1328125,3.3323975c0.6799927,0.9497681,1.1080933,2.0912476,1.1727295,3.3252563h-2.4312744
	c-0.0345459-0.831604-0.1828003-1.6464844-0.4425049-2.4268188C11.0203247,3.9967651,11.5921631,3.6958008,12.1328125,3.3323975z
	 M11.7036743,2.7984009c-0.4827271,0.3199463-0.9887695,0.5830078-1.5126953,0.7937012
	c-0.3467407-0.8170776-0.81604-1.5874023-1.4057007-2.2863159c-0.137146-0.1638794-0.2797852-0.3210449-0.4325562-0.4760132
	C9.6681519,1.1218262,10.8330688,1.8241577,11.7036743,2.7984009z M7.3405762,0.6937866
	c0.0066528,0,0.0122681,0,0.0178223,0.0010986L7.3405762,0.7149658V0.6937866z M7.3405762,0.8164062
	c0.3310547,0.2854004,0.6431885,0.5986328,0.9229736,0.9307861C8.798645,2.3815308,9.2300415,3.0804443,9.5466309,3.822876
	C8.8265381,4.0491333,8.0852051,4.1740112,7.3405762,4.2041016V0.8164062z M7.3405762,4.8863525
	c0.8259888-0.0278931,1.6497803-0.1716919,2.447937-0.423645c0.2329712,0.7056274,0.3690186,1.4425049,0.4013062,2.1949463
	H7.3405762V4.8863525z M6.6572266,0.692688v0.0222778L6.6394043,0.692688C6.6438599,0.692688,6.6505127,0.692688,6.6572266,0.692688
	z M6.6572266,0.8164062v3.3887939C5.9125977,4.1751099,5.1712646,4.0491333,4.4511719,3.822876
	C4.9382935,2.6757812,5.6851807,1.6491089,6.6572266,0.8164062z M5.6450195,0.8297729
	C4.855835,1.6335449,4.2360229,2.5698853,3.8079834,3.5932007C3.2807007,3.3792114,2.7745972,3.1149902,2.2896729,2.795105
	C3.1602783,1.8241577,4.3240967,1.1196289,5.6450195,0.8297729z M1.8627319,3.3290405
	c0.541748,0.3656006,1.1136475,0.666626,1.7055664,0.9040527C3.3486938,4.8896484,3.2093506,5.5797119,3.1491699,6.2897949
	C3.1380005,6.4124146,3.1324463,6.5372314,3.1257324,6.6576538H0.6922607
	C0.756897,5.4213867,1.1816406,4.2788086,1.8627319,3.3290405z M1.8627319,10.6709595
	C1.1816406,9.7211914,0.756897,8.5785522,0.6922607,7.3423462h2.4334717
	c0.0067139,0.1203613,0.0122681,0.2452393,0.0234375,0.3678589c0.0601807,0.710083,0.1995239,1.4000854,0.4191284,2.0567017
	C2.9763794,10.0043335,2.40448,10.3052979,1.8627319,10.6709595z M2.2896729,11.204895
	c0.4849243-0.3199463,0.9910278-0.5841064,1.5183105-0.7981567c0.4280396,1.0233154,1.0478516,1.9597168,1.8370361,2.7634277
	C4.3240967,12.8803711,3.1602783,12.1758423,2.2896729,11.204895z M6.6572266,13.307312c-0.0067139,0-0.0133667,0-0.0178223,0
	l0.0178223-0.0222778V13.307312z M6.6572266,13.1835938c-0.9720459-0.8327637-1.7189331-1.859436-2.2060547-3.0064697
	c0.7200928-0.2263184,1.4614258-0.3522949,2.2060547-0.3823853V13.1835938z M6.6572266,9.1136475
	c-0.8259888,0.0278931-1.6497803,0.1716919-2.4468384,0.423584C4.0119629,8.9330444,3.8826294,8.302124,3.8291626,7.6555786
	c-0.0089722-0.105896-0.015625-0.2095947-0.0200806-0.3132324h2.8481445V9.1136475z M7.3405762,13.3062134v-0.0211792
	l0.0178223,0.0200195C7.3528442,13.3062134,7.347229,13.3062134,7.3405762,13.3062134z M7.3405762,13.1835938V9.7958984
	c0.7446289,0.0300903,1.4859619,0.1549072,2.2060547,0.3812256c-0.3165894,0.7424316-0.7479858,1.4413452-1.2830811,2.0756226
	C7.9837646,12.5849609,7.6716309,12.8981934,7.3405762,13.1835938z M7.3405762,9.1136475V7.3423462h2.8492432
	c-0.0322876,0.7524414-0.168335,1.4892578-0.4013062,2.1948853C8.9903564,9.2853394,8.1665649,9.1415405,7.3405762,9.1136475z
	 M8.3527222,13.170166c0.152771-0.1549072,0.2954102-0.3121338,0.4325562-0.4759521
	c0.5896606-0.6989746,1.05896-1.4692383,1.4057007-2.286377c0.5239258,0.2106934,1.0299683,0.4738159,1.5126953,0.7937012
	C10.8330688,12.1758423,9.6681519,12.8781128,8.3527222,13.170166z M12.1328125,10.6676025
	c-0.5406494-0.3634033-1.1124878-0.6643677-1.7010498-0.8984985c0.2597046-0.7802734,0.407959-1.5951538,0.4425049-2.4267578
	h2.4312744C13.2409058,8.576355,12.8128052,9.7178345,12.1328125,10.6676025z"/>
</svg>
