<?xml version="1.0" encoding="utf-8"?>

<!--
 ~   Copyright 2017, WSO2 Inc. (http://www.wso2.com)
 ~
 ~   Licensed under the Apache License, Version 2.0 (the "License");
 ~   you may not use this file except in compliance with the License.
 ~   You may obtain a copy of the License at
 ~
 ~        http://www.apache.org/licenses/LICENSE-2.0
 ~
 ~   Unless required by applicable law or agreed to in writing, software
 ~   distributed under the License is distributed on an "AS IS" BASIS,
 ~   WITHOUT WARRANTIES OR CONDITIONS OF ANY KIND, either express or implied.
 ~   See the License for the specific language governing permissions and
 ~   limitations under the License.
-->

<svg version="1.1" id="google-glass" xmlns="http://www.w3.org/2000/svg" xmlns:xlink="http://www.w3.org/1999/xlink" x="0px"
	 y="0px" viewBox="0 0 14 14" style="enable-background:new 0 0 14 14;" xml:space="preserve">
<path d="M10.4101563,0.9301758h-0.2402344v0.5996094h0.2402344c1.1357422,0,2.0595703,0.9243164,2.0595703,2.0600586v3.1103516
	H1.5297852V3.5898438c0-1.1357422,0.9243164-2.0600586,2.0600586-2.0600586h0.4301758V0.9301758H3.5898438
	c-1.4667969,0-2.659668,1.1928711-2.659668,2.659668v4.3901367H0.2700195v1.2600098h0.9599609h2.5700073
	c0.1199951,0,0.2200317-0.0999756,0.2200317-0.2200317V8.2000122c0-0.1200562-0.1000366-0.2200317-0.2200317-0.2200317H1.5297852
	V7.2998047h10.9399414v3.1005859c0,1.140625-0.9238281,2.0693359-2.0615234,2.0693359
	c0-0.0009766-1.6152344,0.0107422-2.0751953,0.0019531c-0.1464844-0.0791016-0.2744141-0.7822266-0.3427734-1.1601563
	C7.8398438,10.484375,7.6845703,9.6279297,7.0400391,9.6201172c-0.6391602,0-0.8569336,0.8828125-1.0874023,1.8183594
	c-0.0878906,0.3574219-0.2182617,0.8867188-0.3266602,1.03125H3.5898438c-1.1357422,0-2.0600586-0.9287109-2.0600586-2.0693359
	V9.2402344H0.9301758v1.1601563c0,1.4716797,1.1928711,2.6689453,2.659668,2.6689453h2.090332
	c0.4887695,0,0.6503906-0.65625,0.8554688-1.4873047c0.1035156-0.421875,0.3198242-1.2998047,0.5009766-1.3623047
	c0.1567383,0.0625,0.2963867,0.8300781,0.3632813,1.1992188c0.152832,0.8447266,0.2978516,1.6425781,0.9135742,1.6503906
	c0.1582031,0.0039063,0.4453125,0.0048828,0.7578125,0.0048828c0.6210938,0,1.3398438-0.0048828,1.3388672-0.0048828
	c1.4667969,0,2.6591797-1.1972656,2.6591797-2.6689453V3.5898438C13.0693359,2.1230469,11.8769531,0.9301758,10.4101563,0.9301758z"
	/>
</svg>
