<?xml version="1.0" encoding="utf-8"?>

<!--
 ~   Copyright 2017, WSO2 Inc. (http://www.wso2.com)
 ~
 ~   Licensed under the Apache License, Version 2.0 (the "License");
 ~   you may not use this file except in compliance with the License.
 ~   You may obtain a copy of the License at
 ~
 ~        http://www.apache.org/licenses/LICENSE-2.0
 ~
 ~   Unless required by applicable law or agreed to in writing, software
 ~   distributed under the License is distributed on an "AS IS" BASIS,
 ~   WITHOUT WARRANTIES OR CONDITIONS OF ANY KIND, either express or implied.
 ~   See the License for the specific language governing permissions and
 ~   limitations under the License.
-->

<svg version="1.1" id="hardware" xmlns="http://www.w3.org/2000/svg" xmlns:xlink="http://www.w3.org/1999/xlink" x="0px" y="0px"
	 viewBox="0 0 14 14" style="enable-background:new 0 0 14 14;" xml:space="preserve">
<path d="M1.6360474,4.7374268h1.0858765v1.5372314H1.6360474v-0.354187c-0.4473877,0.0003662-0.8862915,0.005127-1.324585-0.0028076
	c-0.177124-0.0032349-0.298584-0.1123657-0.3065796-0.2468872C-0.0015869,5.5611572-0.00177,5.4510498,0.0054321,5.3414917
	c0.0090942-0.1384888,0.1260986-0.2440186,0.3049927-0.2471924c0.4384155-0.0077515,0.8775024-0.0030518,1.3256226-0.0027466
	V4.7374268z M13.6895752,7.8088989c-0.4384155-0.0077515-0.8775024-0.0030518-1.3256226-0.0027466v-0.354126h-1.1160889v1.5372314
	h1.1160889v-0.354187c0.4473267,0.0003662,0.8862915,0.005127,1.324585-0.0028076
	c0.177124-0.0032349,0.2985229-0.1123657,0.3065796-0.2468872c0.0065308-0.1096191,0.0067139-0.2197266-0.0005493-0.3292847
	C13.9854736,7.9176025,13.8684692,7.8120728,13.6895752,7.8088989z M1.6360474,10.7029419
	c-0.4481201-0.0003052-0.887207-0.0050049-1.3256226,0.0028076c-0.178894,0.0031128-0.2958984,0.1086426-0.3049927,0.2471313
	c-0.0072021,0.1095581-0.007019,0.2197266-0.0005493,0.3292847c0.0080566,0.1345215,0.1294556,0.2437134,0.3065796,0.2468872
	c0.4382935,0.0079346,0.8772583,0.0031738,1.324585,0.0028076v0.354187h1.0858765v-1.5372314H1.6360474V10.7029419z
	 M1.6360474,2.2858276c-0.4481201-0.0003052-0.887207-0.0050049-1.3256226,0.0027466
	C0.1315308,2.291748,0.0145264,2.3972778,0.0054321,2.5357666C-0.00177,2.6452637-0.0015869,2.7554321,0.0048828,2.8650513
	c0.0079956,0.1345215,0.1294556,0.2436523,0.3065796,0.2468872c0.4382935,0.0078735,0.8771973,0.0031128,1.324585,0.0028076
	v0.354187h1.0858765V1.9317017H1.6360474V2.2858276z M12.3639526,3.0236206
	c0.4473267,0.0003662,0.8862915,0.005127,1.324585-0.0028076c0.177124-0.0032349,0.2985229-0.1123657,0.3065796-0.2468872
	c0.0065308-0.1096191,0.0067139-0.2197266-0.0005493-0.3292847c-0.0090942-0.1384888-0.1260986-0.2440186-0.3049927-0.2471924
	c-0.4384155-0.0077515-0.8775024-0.0030518-1.3256226-0.0027466v-0.354126h-1.1160889v1.5372314h1.1160889V3.0236206z
	 M1.6360474,7.8972778c-0.4481201-0.0003052-0.887207-0.0050049-1.3256226,0.0027466
	C0.1315308,7.9031982,0.0145264,8.008728,0.0054321,8.1471558C-0.00177,8.2567139-0.0015869,8.3668823,0.0048828,8.4764404
	c0.0079956,0.1345825,0.1294556,0.2437134,0.3065796,0.2468872c0.4382935,0.0079346,0.8771973,0.0031738,1.324585,0.0028687
	v0.354187h1.0858765V7.5430908H1.6360474V7.8972778z M13.6895752,10.614624
	c-0.4384155-0.0077515-0.8775024-0.0031128-1.3256226-0.0027466v-0.354187h-1.1160889v1.5372925h1.1160889v-0.354187
	c0.4473267,0.0003052,0.8862915,0.0050659,1.324585-0.0028687c0.177124-0.0031738,0.2985229-0.1123657,0.3065796-0.2468872
	c0.0065308-0.1095581,0.0067139-0.2197266-0.0005493-0.3292847C13.9854736,10.7232666,13.8684692,10.6177368,13.6895752,10.614624z
	 M9.2886963,1.2077026c-0.6442261-0.0006104-1.380188-0.0001831-2.0244141-0.0001831
	c-0.6500854,0-1.9223633-0.0007324-2.5725098,0.0003662C4.4642334,1.208313,4.3800659,1.2910767,4.3798828,1.5164185
	c-0.0009155,1.300354-0.0007935,9.6572876-0.000061,10.9576416c0.0001221,0.2346191,0.0839844,0.3175049,0.3220215,0.317688
	c1.2883911,0.0009155,3.2907104,0.0009766,4.5791626,0.0003662c0.2600098-0.0001831,0.3397217-0.0789185,0.3399048-0.3365479
	C9.6216431,11.1670532,9.62146,2.8218994,9.6206055,1.5333862C9.6204834,1.2871704,9.5387573,1.2079468,9.2886963,1.2077026z
	 M10.8272705,1.2010498c0.0015259,1.9985352,0.0018311,9.6338501,0.0001221,11.6323242
	c-0.0007324,0.8518677-0.3131714,1.1645508-1.164856,1.1652832c-2.0042114,0.001709-3.3026733,0.0019531-5.3069458-0.0004272
	c-0.8795166-0.0010986-1.1811523-0.3040771-1.1830444-1.1818848c-0.0021362-0.9992676-0.0004883-4.8164673-0.0004883-5.8157349
	c0.0002441,0,0.0004272,0,0.0006714,0c0-0.9755859-0.0006104-4.7700195,0.0001221-5.7456055
	C3.173584,0.2800293,3.4519043,0.0012817,4.4265747,0.0008545C6.3953247,0,7.6583252-0.0002441,9.6271362,0.0002441
	C10.5270386,0.0004272,10.8265381,0.2989502,10.8272705,1.2010498z M10.2029419,1.2391968
	c-0.0003662-0.3847046-0.2337646-0.6141357-0.6207886-0.614624c-0.7391357-0.0010376-1.5700684-0.0003052-2.3092041,0
	c-0.7332153,0-2.088623-0.0009766-2.8218384,0.0003662C4.0123291,0.6257935,3.7973022,0.8397217,3.7969971,1.2774048
	C3.7958374,2.749939,3.7959595,11.2789917,3.7965698,12.7515259c0.0001221,0.3883667,0.2288818,0.6221924,0.612915,0.6226196
	c1.4901123,0.0015869,3.6940918,0.0016479,5.1842041,0.0007324c0.3735962-0.0001831,0.6097412-0.2355347,0.6099854-0.6083374
	C10.2045898,11.2763062,10.2044678,2.7294922,10.2029419,1.2391968z M13.6895752,5.0031738
	c-0.4384155-0.0076904-0.8775024-0.0030518-1.3256226-0.0027466v-0.354126h-1.1160889v1.5372314h1.1160889v-0.354187
	c0.4473267,0.0003662,0.8862915,0.005127,1.324585-0.0028076c0.177124-0.0032349,0.2985229-0.1123657,0.3065796-0.2468872
	c0.0065308-0.1095581,0.0067139-0.2197266-0.0005493-0.3292847C13.9854736,5.1118774,13.8684692,5.0063477,13.6895752,5.0031738z"/>
</svg>
