<?xml version="1.0" encoding="utf-8"?>

<!--
 ~   Copyright 2017, WSO2 Inc. (http://www.wso2.com)
 ~
 ~   Licensed under the Apache License, Version 2.0 (the "License");
 ~   you may not use this file except in compliance with the License.
 ~   You may obtain a copy of the License at
 ~
 ~        http://www.apache.org/licenses/LICENSE-2.0
 ~
 ~   Unless required by applicable law or agreed to in writing, software
 ~   distributed under the License is distributed on an "AS IS" BASIS,
 ~   WITHOUT WARRANTIES OR CONDITIONS OF ANY KIND, either express or implied.
 ~   See the License for the specific language governing permissions and
 ~   limitations under the License.
-->

<svg version="1.1" id="hour-glass" xmlns="http://www.w3.org/2000/svg" xmlns:xlink="http://www.w3.org/1999/xlink" x="0px" y="0px"
	 viewBox="0 0 14 14" style="enable-background:new 0 0 14 14;" xml:space="preserve">
<path d="M8.7735596,5.7194824c0.9063721-0.7964478,1.4512939-1.5793457,1.7157593-2.4641113
	c0.1831665-0.6133423,0.2571411-1.2175903,0.2264404-1.8476562l-0.0098267-0.1992188h-0.1995239H3.241333L3.2241821,1.4923096
	C3.2102661,2.2451782,3.3449707,2.9522095,3.588501,3.576355c0.2536621,0.6503296,0.652771,1.2385254,1.1854858,1.74823
	C4.9222412,5.4662476,5.074707,5.6068115,5.22229,5.7428589c0.2421265,0.2236328,0.4926147,0.4545898,0.7249756,0.6914673
	c0.1800537,0.1835327,0.2648315,0.3834229,0.2515259,0.593811C6.1949463,7.0899048,6.1824341,7.1519775,6.1621704,7.2130737
	C6.1171875,7.3477173,6.0327759,7.4788818,5.9127197,7.5996094c-0.2536011,0.2550049-0.5323486,0.4985352-0.802063,0.7340088
	c-0.7828979,0.6838379-1.2758179,1.3659058-1.5552979,2.1494751c-0.234436,0.6558838-0.3377075,1.3623657-0.307373,2.0995483
	l0.0084229,0.2009277h0.2009277h7.09198h0.1801147c0.024292,0-0.0076904-0.6040649-0.0119629-0.6516724
	c-0.0278931-0.3119507-0.0544434-0.6063843-0.1067505-0.9060669c-0.1901245-1.0874634-0.7622681-2.0318604-1.7485962-2.8876343
	C8.583374,8.0963745,8.3186035,7.8431396,8.0063477,7.5371704c-0.1947021-0.1908569-0.2738647-0.4151611-0.237915-0.6387939
	c0.0244141-0.1517944,0.1018677-0.3031616,0.232666-0.4437866C8.2572021,6.1796875,8.5352173,5.928833,8.7735596,5.7194824z
	 M7.5720215,6.2072144C7.1742554,6.7242432,7.1634521,7.2810669,7.5758057,7.7834473
	C7.8043213,8.0615234,8.0799561,8.3040161,8.3513794,8.543335c0.5424805,0.4776001,1.0581665,0.9743652,1.3944702,1.6281738
	c0.3387451,0.6583252,0.4776001,1.3613281,0.4940186,2.112793c-0.0083618,0-0.0164185,0-0.0247803,0
	c-2.1431274,0-4.2761841,0-6.4549561,0c0.0328369-0.2961426,0.0527344-0.5947876,0.1011963-0.8885498
	c0.1719971-1.0407104,0.708252-1.8728027,1.4830933-2.5691528C5.711792,8.496582,6.0826416,8.1668701,6.4185791,7.8061523
	c0.4120483-0.4423828,0.4354248-1.0476685,0.064209-1.5357666C6.2811279,6.0048828,6.0341187,5.7697144,5.7850342,5.5454102
	C5.274292,5.0855713,4.7614136,4.6303101,4.4006958,4.0333862C3.9733276,3.3265381,3.7940063,2.553772,3.7748413,1.7122803
	h6.4642944c-0.0093994,0.5219116-0.083374,1.0183716-0.2445068,1.5022583
	C9.7507324,3.9468384,9.3128662,4.5490112,8.7529297,5.0681763C8.4871216,5.3151245,8.2114868,5.5516968,7.9473877,5.800415
	C7.8130493,5.9267578,7.68396,6.0614014,7.5720215,6.2072144z M9.3248901,4.0427856
	C9.0374756,4.4346924,8.7156982,4.8014526,8.364502,5.1373901c-0.3640137,0.3482056-0.7677002,0.673584-1.0078125,1.116394
	c-0.4076538,0.75177-0.2619019,1.6652832-0.270752,2.5204468C7.0825195,9.0996704,7.0562744,9.434082,7.159729,9.7426147
	c0.1275635,0.3803711,0.4338379,0.6689453,0.7289429,0.9407349c0.5146484,0.473938,1.0293579,0.947876,1.5440063,1.421875
	c-1.6156006-0.0003052-3.2312622-0.0005493-4.8468628-0.0008545c0.4976196-0.4661865,0.9953003-0.932312,1.4929199-1.3984985
	c0.2620239-0.2454224,0.5302124-0.4992676,0.6814575-0.8248901C6.9611816,9.4482422,6.9296265,8.9494629,6.932373,8.472229
	c0.0037231-0.6586914,0.076416-1.3435059-0.1703491-1.9542847C6.7052002,6.3771973,6.6323853,6.2432861,6.5483398,6.1170044
	c-0.1013794-0.1523438-0.218689-0.293457-0.3434448-0.427002C6.0776978,5.553772,5.942627,5.4251099,5.8059692,5.2984619
	c-0.1379395-0.1278687-0.27771-0.2537842-0.4138794-0.383606C5.257019,4.7861938,5.1253662,4.6535645,5.0038452,4.5119019
	c-0.0601196-0.0700684-0.1177368-0.142395-0.1717529-0.2172852C4.8051147,4.2572021,4.7790527,4.2191772,4.7539673,4.180481
	C4.7414551,4.1610718,4.729187,4.1415405,4.7171631,4.1218262c-0.010376-0.0170288-0.0266724-0.0595703-0.0309448-0.0790405
	C4.6797485,4.0131836,9.3190918,4.0507812,9.3248901,4.0427856z M11.9232178,0.0014038V0.859314H2.0977783V0.0014038H11.9232178z
	 M2.0977783,13.1420898h9.8254395V14H2.0977783V13.1420898z"/>
</svg>
