<?xml version="1.0" encoding="utf-8"?>

<!--
 ~   Copyright 2017, WSO2 Inc. (http://www.wso2.com)
 ~
 ~   Licensed under the Apache License, Version 2.0 (the "License");
 ~   you may not use this file except in compliance with the License.
 ~   You may obtain a copy of the License at
 ~
 ~        http://www.apache.org/licenses/LICENSE-2.0
 ~
 ~   Unless required by applicable law or agreed to in writing, software
 ~   distributed under the License is distributed on an "AS IS" BASIS,
 ~   WITHOUT WARRANTIES OR CONDITIONS OF ANY KIND, either express or implied.
 ~   See the License for the specific language governing permissions and
 ~   limitations under the License.
-->

<svg version="1.1" id="http" xmlns="http://www.w3.org/2000/svg" xmlns:xlink="http://www.w3.org/1999/xlink" x="0px" y="0px"
	 viewBox="0 0 14 14" style="enable-background:new 0 0 14 14;" xml:space="preserve">

<path class="st0" d="M12.6611328,10.430542c-0.279541,0.4884033-0.5975342,0.9556885-0.9957886,1.3671875
	c-1.2336426,1.2723999-2.8725586,1.9772339-4.6173096,1.9880371H6.9830933
	c-2.4613037-0.0131836-4.5878906-1.4371338-5.7042847-3.5140381c0.0955811-0.0036011,0.1915894-0.0093384,0.2879028-0.0238037
	c0.1373901-0.0206299,0.2781982-0.0233154,0.4170532-0.036377c0.0664673,0.1173096,0.1306152,0.2362061,0.2070923,0.3462524
	c0.1817017-0.1265869,0.3710327-0.2356567,0.5595093-0.3463135c0.4094849,0.0475464,0.8208618,0.0827026,1.2339478,0.1063843
	c-0.4827881,0.2049561-0.9474487,0.4547119-1.392334,0.7577515c0.8178711,0.9415894,1.9112549,1.6248169,3.1522217,1.9058228
	c-0.7368164-0.7745361-1.3155518-1.6765747-1.7174072-2.6616211c0.2419434,0.0134277,0.4840698,0.0258179,0.7269897,0.0330811
	c0.4564819,0.9998779,1.1052246,1.9021606,1.9413452,2.6415405v-2.628418
	c0.2139893-0.0022583,0.4277954-0.00354,0.6419678-0.0068359v2.6352539c0.3109741-0.2767334,0.604248-0.5805054,0.8670654-0.9026489
	c0.4402466-0.5386963,0.7909546-1.132019,1.0747681-1.7531128c0.2391357-0.0006714,0.4780884-0.0004272,0.7167358,0.0025024
	c-0.3240967,0.7776489-0.7566528,1.512207-1.3013306,2.1787109c-0.1288452,0.1588745-0.2628784,0.3113403-0.4063721,0.4615479
	c1.2357788-0.2832031,2.3301392-0.9642334,3.1480713-1.9091187c-0.4264526-0.291687-0.8738403-0.5306396-1.3347168-0.7285156
	c0.5,0.0073853,0.998291,0.0284424,1.4949341,0.0608521c0.0802612,0.0518188,0.1640625,0.0951538,0.2429199,0.1499023
	c0.0281982-0.0407104,0.0492554-0.0866089,0.0765381-0.1279907c0.118103,0.0093994,0.2369995,0.0130615,0.3548584,0.0244141
	C12.4088745,10.4642944,12.5380249,10.4542236,12.6611328,10.430542z M6.4699707,5.6300049l0.1300049-0.6900024l0.0200195-0.0900269
	L6.3200073,4.9299927l-0.210022,0.0499878L5.9799805,5.6300049H5.5700073L5.4899902,6.0199585h0.4199829L5.7800293,6.6699829
	L5.6500244,7.3299561L5.6199951,7.4899902c-0.039978,0.210022-0.0599976,0.3800049-0.0599976,0.5499878
	c0,0.289978,0.1699829,0.5599976,0.6099854,0.5599976c0.1500244,0,0.2999878-0.0200195,0.3900146-0.0499878l0.0200195-0.3900146
	C6.5100098,8.1699829,6.4299927,8.1799927,6.3499756,8.1799927c-0.1999512,0-0.2799683-0.1099854-0.2799683-0.2800293
	c0-0.1599731,0.0200195-0.3099976,0.0499878-0.4699707l0.0200195-0.1000366l0.1300049-0.6599731l0.1199951-0.6500244h0.289978
	h0.4100342l0.0799561-0.3899536H6.6799927H6.4699707z M7.9500122,7.8999634c0-0.1599731,0.0199585-0.3099976,0.0499878-0.4699707
	l0.0200195-0.1000366l0.1300049-0.6599731l0.1199951-0.6500244h0.6999512l0.0800171-0.3899536H8.3499756L8.5,4.8499756
	L7.9799805,4.9799805L7.8599854,5.6300049H7.4400024L7.3699951,6.0199585H7.789978L7.6599731,6.6699829L7.5300293,7.3299561
	L7.5,7.4899902C7.460022,7.7000122,7.4400024,7.8699951,7.4400024,8.039978c0,0.289978,0.1699829,0.5599976,0.6099854,0.5599976
	c0.1400146,0,0.2900391-0.0200195,0.3800049-0.0499878L8.460022,8.1599731
	C8.3900146,8.1699829,8.3099976,8.1799927,8.2199707,8.1799927C8.0300293,8.1799927,7.9500122,8.0700073,7.9500122,7.8999634z
	 M11.8800049,6.6199951c0,0.0200195,0,0.0299683,0,0.0499878c-0.0100098,0.2299805-0.0499878,0.4500122-0.1199951,0.6599731
	C11.5499878,7.9400024,11.0900269,8.4400024,10.5,8.5700073c-0.0999756,0.0199585-0.2000122,0.0299683-0.3099976,0.0299683
	c-0.1300049,0-0.25-0.0100098-0.3400269-0.0299683c-0.1300049-0.0200195-0.2299805-0.0599976-0.289978-0.1000366H9.539978
	L9.3699951,9.3900146L9.3099976,9.7199707H8.8200073l0.0899658-0.4500122l0.3600464-1.9400024l0.1300049-0.6599731V6.6599731
	C9.460022,6.3200073,9.5200195,5.9299927,9.5599976,5.6300049h0.3300171h0.1300049L9.9500122,6.039978
	c0,0.0100098,0,0.0200195,0,0.0200195L9.9299927,6.1799927h0.0200195c0-0.0100098,0.0100098-0.0100098,0.0100098-0.0200195
	c0.1599731-0.2199707,0.3599854-0.3900146,0.5799561-0.4899902c0.1500244-0.0700073,0.3000488-0.0999756,0.4500122-0.0999756
	C11.6199951,5.5700073,11.8800049,6.0799561,11.8800049,6.6199951z M11.3699951,6.6699829c0-0.0100098,0-0.0100098,0-0.0200195
	c0-0.2999878-0.1400146-0.6699829-0.5599976-0.6699829c-0.0700073,0-0.1500244,0.0200195-0.2199707,0.0499878
	C10.3699951,6.1099854,10.1500244,6.3099976,10,6.6199951C9.9799805,6.6400146,9.9699707,6.6499634,9.9699707,6.6699829
	C9.8800049,6.8299561,9.8200073,7.0199585,9.7800293,7.2399902L9.7600098,7.3299561L9.6300049,8.0499878
	c0.0700073,0.0599976,0.1699829,0.0999756,0.2799683,0.1300049c0.0800171,0.0200195,0.1800537,0.0299683,0.2800293,0.0299683
	c0.1300049,0,0.2600098-0.0299683,0.3800049-0.1099854c0.2799683-0.1300049,0.5200195-0.4199829,0.6599731-0.7700195
	C11.3200073,7.1199951,11.3699951,6.8999634,11.3699951,6.6699829z M14,3.539978v6.9199829h-1.3499756
	c-0.2700195,0.4800415-0.6100464,0.9300537-1,1.3400269c-1.2400513,1.2700195-2.8699951,1.9799805-4.6199951,1.9899902H6.9699707
	c-2.3899536-0.0100098-4.4799805-1.3499756-5.6199951-3.3300171H0V3.539978h1.3499756
	c1.1400146-1.9799805,3.2300415-3.3200073,5.6199951-3.3300171h0.0131226h0.046936h0.0180054
	c1.744751,0.0108643,3.383667,0.7156982,4.6173096,1.9880371c0.359436,0.3713379,0.6452026,0.7930298,0.9019775,1.2311401
	l0.0827026,0.1108398H14z M10.3499756,3.539978c0.0164185-0.0075073,0.0320435-0.0170898,0.0484009-0.0247192
	c-0.0014038-0.0007324-0.0027466-0.0020142-0.0041504-0.0027466c0.2759399-0.132019,0.5455322-0.2816772,0.8095093-0.4457397
	c0.0718384-0.0462036,0.1460571-0.0872192,0.2162476-0.1367798c-0.8127441-0.9416504-1.8917236-1.6155396-3.1181641-1.9000244
	C8.4398193,1.175293,8.5698853,1.3223877,8.6943359,1.4758911C8.9500122,1.7886963,9.1705322,2.1213379,9.3726196,2.463623
	c0.0117188,0.0192871,0.0202637,0.0402832,0.0317993,0.0596313C9.553894,2.7808228,9.697876,3.0413818,9.8237915,3.3101196
	C9.819458,3.3091431,9.8148193,3.3097534,9.8104858,3.3088379C9.8473511,3.3875122,9.8954468,3.460144,9.9299927,3.539978
	H10.3499756z M2.1298218,3.539978h0.2001953c-0.0546265-0.0272827-0.1000977-0.0561523-0.145752-0.0910645
	C2.1644897,3.4780884,2.147644,3.5093994,2.1298218,3.539978z M4.0700073,3.539978
	c0.3999634-0.9400024,0.960022-1.7799683,1.6599731-2.5200195C5.4337769,1.086853,5.1469116,1.1796265,4.8685913,1.2902222
	C3.9891357,1.6445312,3.2111816,2.2073364,2.59198,2.920166c0.3555908,0.2421265,0.7271118,0.4416504,1.1072388,0.619812H4.0700073z
	 M4.8063354,3.539978h1.8736572V1.0162354C5.8808594,1.7268677,5.257019,2.5881348,4.8063354,3.539978z M7.3200073,3.539978
	h1.8999634C9.1040649,3.2908936,8.9666138,3.0505981,8.8227539,2.8141479
	C8.7940674,2.765625,8.7675781,2.7160034,8.7380371,2.6679688C8.5703125,2.4055176,8.3879395,2.1513672,8.1900024,1.9099731
	C7.925293,1.5864258,7.6401978,1.2932129,7.3370972,1.0178833v2.361145C7.3314819,3.3795776,7.3256226,3.380188,7.3200073,3.3807373
	V3.539978z M11.6746826,3.539978h0.215332c-0.0182495-0.0272827-0.0441284-0.0622559-0.0637817-0.0910645
	C11.7771606,3.4827881,11.7243652,3.5074463,11.6746826,3.539978z M2.3300171,10.4599609H2.0999756
	c0.0200195,0.0300293,0.0500488,0.0700073,0.0700073,0.1000366C2.2199707,10.5199585,2.2700195,10.4899902,2.3300171,10.4599609z
	 M5.7299805,12.9799805c-0.6999512-0.7399902-1.2600098-1.5800171-1.6599731-2.5200195H3.6699829
	c-0.3800049,0.1700439-0.7399902,0.3800049-1.0999756,0.6199951C3.3900146,12.0199585,4.4899902,12.7000122,5.7299805,12.9799805z
	 M6.6799927,13.0899658l-0.0200195,0.0300293c0.0100098,0,0.0100098,0,0.0200195,0V13.0899658z M6.6799927,10.4599609H4.7800293
	C5.2299805,11.4199829,5.8699951,12.2799683,6.6799927,13V10.4599609z M7.3300171,13.1099854l-0.0100098-0.0200195v0.0300293
	L7.3300171,13.1099854z M8.1900024,12.0899658c0.4099731-0.5,0.7600098-1.0499878,1.0299683-1.6300049H7.3200073V13
	C7.6300049,12.7199707,7.9199829,12.4199829,8.1900024,12.0899658z M11.4199829,11.0700073
	c-0.3399658-0.2400513-0.7000122-0.4400024-1.0700073-0.6100464H9.9299927c-0.3200073,0.7400513-0.7399902,1.4300537-1.25,2.0599976
	c-0.1300049,0.1600342-0.2700195,0.3099976-0.4099731,0.460022C9.5100098,12.7000122,10.5999756,12.0199585,11.4199829,11.0700073z
	 M11.8900146,10.4599609h-0.2200317c0.0499878,0.0300293,0.1000366,0.0700073,0.1500244,0.1000366
	C11.8400269,10.5299683,11.8699951,10.4899902,11.8900146,10.4599609z M13.3499756,8.75v-3.5V4.1900024h-0.3599854h-0.7299805
	h-1.7700195H8.289978H7.3200073H6.6799927H5.710022H3.4899902H1.7299805H1.0100098H0.6500244v1.0799561v3.460022v1.0800171
	h0.3599854h0.7199707h1.7600098H5.710022h0.9699707h0.6400146H8.289978h2.2000122h1.7700195h0.7299805h0.3599854V8.75z
	 M4.1300049,5.5700073c-0.0100098,0-0.0100098,0-0.0200195,0c-0.25,0-0.4799805,0.0700073-0.6699829,0.2099609
	C3.2999878,5.8699951,3.1799927,6,3.0800171,6.1499634H3.0599976l0.3599854-1.8699951H2.9299927L2.4799805,6.6699829
	L2.3499756,7.3299561L2.1199951,8.539978h0.4899902l0.2200317-1.210022l0.0499878-0.25
	c0.0299683-0.1499634,0.0700073-0.289978,0.1300049-0.4099731c0.0999756-0.2000122,0.2299805-0.3699951,0.3800049-0.4899902
	c0.1599731-0.1300049,0.3299561-0.2000122,0.4799805-0.2000122c0.0700073,0,0.1400146,0.0100098,0.1900024,0.039978
	C4.25,6.0799561,4.3200073,6.25,4.3200073,6.4599609c0,0.0800171,0,0.1500244-0.0100098,0.210022
	c0,0.0700073-0.0100098,0.1300049-0.0200195,0.1900024L4.2000122,7.3299561L4.0599976,8.0199585L3.960022,8.539978h0.1900024
	H4.460022l0.2299805-1.210022l0.0900269-0.4899902C4.789978,6.789978,4.7999878,6.7299805,4.8099976,6.6699829
	c0.0100098-0.1099854,0.0200195-0.2199707,0.0200195-0.3200073C4.8300171,5.7799683,4.4500122,5.5799561,4.1300049,5.5700073z
	 M6.6950994,13.0928602l-0.0167432,0.0216045c0.0041862,0,0.0104361,0,0.0167432,0V13.0928602z M7.3538198,13.1122742
	l-0.0167437-0.0194139v0.0205383C7.3433266,13.1133986,7.3486018,13.1133986,7.3538198,13.1122742z"/>
</svg>
