<?xml version="1.0" encoding="utf-8"?>

<!--
 ~   Copyright 2017, WSO2 Inc. (http://www.wso2.com)
 ~
 ~   Licensed under the Apache License, Version 2.0 (the "License");
 ~   you may not use this file except in compliance with the License.
 ~   You may obtain a copy of the License at
 ~
 ~        http://www.apache.org/licenses/LICENSE-2.0
 ~
 ~   Unless required by applicable law or agreed to in writing, software
 ~   distributed under the License is distributed on an "AS IS" BASIS,
 ~   WITHOUT WARRANTIES OR CONDITIONS OF ANY KIND, either express or implied.
 ~   See the License for the specific language governing permissions and
 ~   limitations under the License.
-->

<svg version="1.1" id="integration" xmlns="http://www.w3.org/2000/svg" xmlns:xlink="http://www.w3.org/1999/xlink" x="0px"
	 y="0px" viewBox="0 0 14 14" style="enable-background:new 0 0 14 14;" xml:space="preserve">
<path d="M13.6212597,7.5963182c0,0.6532574-0.5286245,1.1818876-1.1818886,1.1818876
	c-0.5511904,0-1.0142746-0.3771305-1.1442852-0.8874912l-0.7725248,0.0182638
	c0.0053768-0.0676904,0.0075216-0.1353807,0.0075216-0.2041469c0-0.1128154-0.0064468-0.2234797-0.0204144-0.333075
	l0.7725248-0.0182638c0.1117468-0.5361462,0.5866489-0.9390626,1.1571779-0.9390626
	C13.0926352,6.4144301,13.6212597,6.9441299,13.6212597,7.5963182z M10.7062931,12.3614731
	c-0.0472755,0-0.094552,0.0042953-0.1396761,0.0128927L9.2848063,10.064312
	c-0.1471987,0.1009979-0.3040695,0.1891031-0.4695311,0.2610893l1.2818098,2.3089781
	c-0.1310854,0.1439791-0.2095175,0.3352261-0.2095175,0.5458193C9.8875675,13.6325417,10.2539501,14,10.7062931,14
	c0.4534187,0,0.8198013-0.3674583,0.8198013-0.8198013S11.1597118,12.3614731,10.7062931,12.3614731z M10.0906391,7.9186511
	c0.0064459-0.0709167,0.0096664-0.1418271,0.0096664-0.2138195c0-0.1095891-0.0075226-0.2181087-0.0225592-0.3234019
	c-0.138608-1.054029-0.9551821-1.8963962-1.9984694-2.0726061C7.9460468,5.2851887,7.8085213,5.2733717,7.6688385,5.2733717
	c-0.0418983,0-0.0848784,0.0010753-0.1257081,0.0032196C6.7383733,5.317421,6.0367651,5.7504249,5.6263266,6.3886447
	c-0.0977778,0.1493425-0.17943,0.3105092-0.2406745,0.4802732C5.2900252,7.1300068,5.2373786,7.4115105,5.2373786,7.7048316
	c0,0.4630847,0.1300035,0.8960891,0.3545651,1.2646222C5.6854196,9.1230984,5.7960906,9.264926,5.920723,9.3938608
	c0.4415951,0.4577141,1.0615511,0.7424374,1.7481155,0.7424374c0.3320065,0,0.6489687-0.0666151,0.937994-0.1880274
	c0.1665373-0.0687599,0.3244772-0.1568651,0.4695311-0.2610893C9.6415224,9.2864161,10.0272436,8.6481962,10.0906391,7.9186511z
	 M7.6699142,3.1180377L7.5689163,4.8457384c0.0333071-0.0010691,0.0666146-0.0021443,0.0999222-0.0021443
	c0.1482739,0,0.2944031,0.0118175,0.436224,0.0333076l0.1009979-1.7287829
	c0.7886448-0.0870297,1.402154-0.7564061,1.402154-1.5686852C9.6082144,0.7069858,8.9012289,0,8.0287809,0
	S6.4493475,0.7069858,6.4493475,1.5794336C6.4493475,2.3283176,6.9704504,2.9557958,7.6699142,3.1180377z M5.2513466,9.2316179
	L4.0350757,10.170681C3.753572,9.9128189,3.3785923,9.7559471,2.9660029,9.7559471
	c-0.8724477,0-1.5794334,0.7069864-1.5794334,1.5794334c0,0.872448,0.7069857,1.5794344,1.5794334,1.5794344
	s1.5794334-0.7069864,1.5794334-1.5794344c0-0.2675352-0.0655394-0.5189581-0.1826568-0.7392178l1.2173467-0.9401379
	C5.4565625,9.5249395,5.3458986,9.383112,5.2513466,9.2316179z M2.1354601,5.2518811l2.864464,1.4247136
	C5.0643883,6.5079064,5.1439023,6.347815,5.2395229,6.1963148l-2.864464-1.4247131
	c0.0118175-0.0623131,0.0182638-0.1267838,0.0182638-0.1923232c0-0.5554857-0.4512677-1.0067532-1.0067532-1.0067532
	c-0.5565611,0-1.0078287,0.4512675-1.0078287,1.0067532c0,0.556561,0.4512676,1.0078287,1.0078287,1.0078287
	C1.6841924,5.5871072,1.9517279,5.4570971,2.1354601,5.2518811z"/>
</svg>
