<?xml version="1.0" encoding="utf-8"?>

<!--
	~   Copyright (c) 2018, WSO2 Inc. (http://www.wso2.org) All Rights Reserved.
	~
	~   WSO2 Inc. licenses this file to you under the Apache License,
	~   Version 2.0 (the "License"); you may not use this file except
	~   in compliance with the License.
	~   You may obtain a copy of the License at
  	~
    ~   http://www.apache.org/licenses/LICENSE-2.0
    ~
    ~   Unless required by applicable law or agreed to in writing,
    ~   software distributed under the License is distributed on an
    ~   "AS IS" BASIS, WITHOUT WARRANTIES OR CONDITIONS OF ANY
    ~   KIND, either express or implied.  See the License for the
    ~   specific language governing permissions and limitations
    ~   under the License.
-->

<svg version="1.1" id="iterable-operations" xmlns="http://www.w3.org/2000/svg" xmlns:xlink="http://www.w3.org/1999/xlink" x="0px" y="0px"
	 viewBox="0 0 14 14" style="enable-background:new 0 0 14 14;" xml:space="preserve">
<path d="M6.265923,3.9746938c0,0,1.3535461-0.4751811,1.8863244,0.3023877
	c0.0575981,0.1007962,0.1295948,0.201592,0.4031839,0.8639655C8.627429,5.2850413,9.9521751,8.8848972,9.9521751,8.8848972
	s0.1007967,0.3023872,0.4031839,0.2015915c0.0674696-0.0268593,0.1007967-0.0607195,0.1007967-0.0607195v0.939085
	c0,0-0.9791613,0.4463816-1.4543419-0.4463825l-0.863966-2.3183074l-1.1663527,2.793488H5.7331448L7.5906701,5.760222
	l-0.2159915-0.647974c0,0-0.1211395-0.3943362-0.5615773-0.2879882C6.7833695,4.8326421,6.2539778,5.0659475,6.2539778,5.0659475
	L6.265923,3.9746938z M10.0499878,1.3200073C6.9199829,0.1499634,3.4199829,1.75,2.2600098,4.8800049
	C2.0499878,5.4099731,1.9299927,5.9699707,1.8900146,6.539978L1.8300171,7.2799683L1.4000244,6.6799927L0.6699829,5.6599731
	L0,6.1099854l2.1400146,3.0100098L4.960022,7.1099854l-0.5-0.7199707L3.3900146,7.1300049L2.9500122,7.4500122L2.960022,6.9099731
	V6.7600098c0-0.1300049,0-0.2700195,0.0099487-0.4000244C3.0300293,5.9799805,3.1199951,5.6099854,3.25,5.25
	c0.0300293-0.0900269,0.0800171-0.1900024,0.1199951-0.2800293C4.4500122,2.5599976,7.210022,1.3900146,9.6799927,2.3200073
	C12.2700195,3.2799683,13.5800171,6.1599731,12.6199951,8.75c-0.960022,2.5599976-3.8300171,3.8900146-6.4000244,2.9400024
	c-0.289978-0.1100464-0.5699463-0.2399902-0.8299561-0.3900146l-0.6500244,0.8499756
	c0.3400269,0.210022,0.6900024,0.3900146,1.0700073,0.5300293C8.9500122,13.8499756,12.4400024,12.25,13.6199951,9.1199951
	C14.789978,5.9799805,13.1900024,2.4899902,10.0499878,1.3200073z"/>
</svg>
