<?xml version="1.0" encoding="utf-8"?>

<!--
 ~   Copyright 2017, WSO2 Inc. (http://www.wso2.com)
 ~
 ~   Licensed under the Apache License, Version 2.0 (the "License");
 ~   you may not use this file except in compliance with the License.
 ~   You may obtain a copy of the License at
 ~
 ~        http://www.apache.org/licenses/LICENSE-2.0
 ~
 ~   Unless required by applicable law or agreed to in writing, software
 ~   distributed under the License is distributed on an "AS IS" BASIS,
 ~   WITHOUT WARRANTIES OR CONDITIONS OF ANY KIND, either express or implied.
 ~   See the License for the specific language governing permissions and
 ~   limitations under the License.
-->


<svg version="1.1" id="jaxws" xmlns="http://www.w3.org/2000/svg" xmlns:xlink="http://www.w3.org/1999/xlink" x="0px"
	 y="0px" viewBox="0 0 14 14" style="enable-background:new 0 0 14 14;" xml:space="preserve">
<path d="M12.5797663,11.6812954l0.4969559,0.7176943l-1.0490284,1.0489378l-0.6623964-0.5520725
	c-0.2761269,0.1104145-0.4969559,0.220829-0.7729015,0.2760363L10.4818907,14h-1.435298l-0.0552073-0.883316
	c-0.2761269-0.0552073-0.4968653-0.1656218-0.7176943-0.2760363l-0.6624875,0.5520725l-1.0489378-1.0489378l0.5520725-0.662487
	c-0.1656218-0.220829-0.220829-0.441658-0.3313336-0.7176943l-0.8280187-0.1104145V9.417798l0.8280187-0.1104145
	c0.0552974-0.220829,0.1657119-0.4967747,0.2761264-0.7176037L6.5622659,7.9272022l0.9936404-1.0488477l0.6625776,0.4967752
	c0.2760363-0.1103244,0.4967747-0.220829,0.7729015-0.3311534l0.1103239-0.7729015h1.4906864l0.0551167,0.7729015
	c0.2761269,0.1103244,0.5521631,0.220829,0.7729015,0.3311534l0.6072798-0.4967752l1.0490284,1.0488477L12.5797663,8.534482
	c0.1105051,0.2761269,0.220829,0.4968653,0.3313341,0.7176943l0.7729015,0.1104145v1.4905958l-0.7729015,0.1104145
	C12.8005953,11.1844301,12.6902714,11.4604664,12.5797663,11.6812954z M12.2776604,10.1354923
	c0-1.3790083-1.0792484-2.458076-2.4581661-2.458076c-1.3790092,0-2.4581666,1.0790677-2.4581666,2.458076
	s1.0791574,2.4581661,2.4581666,2.4581661C11.1984119,12.5936584,12.2776604,11.5145006,12.2776604,10.1354923z
	 M11.5497723,9.2179871l-0.309864,0.5066986l-0.3162689-0.5066986h-0.3722887l0.4882956,0.7544088l-0.5389023,0.8229675h0.3817606
	l0.3509989-0.5453968l0.349556,0.5453968h0.3841953l-0.5389023-0.8111496l0.4903708-0.7662268H11.5497723z M8.4136934,10.2370663
	c0,0.1274643-0.014884,0.2117186-0.0442019,0.2524023c-0.0294981,0.0401421-0.0795631,0.0604391-0.1507378,0.0604391
	c-0.0703621,0-0.1226826-0.0282354-0.1571417-0.0847054c-0.0228224-0.0372562-0.0361738-0.1012135-0.0396919-0.1914215
	L7.7217989,10.30797c0.0006313,0.1685982,0.0431194,0.2965136,0.1269226,0.3837442
	c0.0839834,0.0867805,0.2036896,0.1303501,0.3593884,0.1303501c0.1326056,0,0.239502-0.0276937,0.320509-0.0831709
	c0.0810966-0.0555687,0.1371155-0.1294489,0.1678762-0.2211905c0.0230932-0.0703621,0.0343695-0.1705828,0.0343695-0.3014746
	V9.2179871H8.4136934V10.2370663z M9.8611698,9.2179871l0.6311855,1.5773764h-0.3466692l-0.1377478-0.3584862H9.3777456
	l-0.1301699,0.3584862H8.9097471l0.6142254-1.5773764H9.8611698z M9.9057331,10.1715755L9.6886024,9.5861263l-0.2129812,0.5854492
	H9.9057331z M6.2913718,12.5752563l0.6812501,0.6670876H6.9158812c-3.5341663-0.0142536-6.4154077-2.8102484-6.5857201-6.301836
	c0-0.0284157,0-0.0424881,0-0.0709033c0-0.0709939-0.0141627-0.1418972-0.0141627-0.2129812c0-0.0141625,0-0.0283251,0-0.0424876
	c0,0,0-0.0142531,0-0.0284157c0-0.0709934,0.0141627-0.1418972,0.0141627-0.2128906c0-0.0284157,0-0.0425782,0-0.0709939
	C0.5004736,2.8103378,3.3817148,0.0142529,6.9158812,0h0.0567408c1.760047,0.0142529,3.4064322,0.6955934,4.6553602,1.9445221
	c1.1638632,1.1637726,1.8451138,2.7109287,1.9302692,4.3573132c0,0.0284157,0,0.0568314,0,0.0851564
	c0,0.0709939,0.0142536,0.1277347,0.0142536,0.1987281c0,0.0141625,0,0.0284157,0,0.0284157c0,0.0141625,0,0.0283251,0,0.0424876
	c0,0.071084-0.0142536,0.1278248-0.0142536,0.1987281c0,0.0284157,0,0.0567408,0,0.0851564
	c-0.0141621,0.2981372-0.0424871,0.5820217-0.0993185,0.8658156L13.302783,7.6501737l-0.4257812-0.4257812
	c0.0142527-0.099319,0.0284157-0.1844754,0.0284157-0.2838845h-0.3123007L12.252492,6.5998826l-0.2271433-0.2270532
	l-0.2412167,0.198638l-0.4399433,0.3548779c-0.1135721-0.0425782-0.2413063-0.0994091-0.3832941-0.1561499l-0.0424881-0.4683599
	h1.987011c-0.0568314-1.1780252-0.4541969-2.2567315-1.1071224-3.1508725
	c-0.5108471,0.340625-1.0502005,0.6245093-1.6038065,0.8515627c0.1987276,0.6102567,0.3264618,1.234766,0.3832932,1.887691
	H10.563529H9.9390192c-0.0567408-0.5677686-0.1844749-1.135447-0.3547878-1.6748004
	C8.8318977,4.4567227,8.0513287,4.5987101,7.270669,4.6270351v1.6748004h1.4477472L8.6475124,6.7701955
	c-0.071084,0.0284152-0.1419868,0.0567408-0.2129812,0.085156C8.3777905,6.8837671,8.32096,6.9120922,8.2642193,6.9405079h-0.014163
	L7.7532811,6.5714674l-0.255559-0.198638L7.270669,6.6141357L6.617744,7.2953858V6.9405079H3.921068
	C3.9353209,7.039917,3.9353209,7.139236,3.9493933,7.2386451c0.0426683,0.6102567,0.170403,1.2063508,0.3548779,1.7883725
	c0.752244-0.2413969,1.5329037-0.3832941,2.3134727-0.4117088C6.5752559,8.7431326,6.5325875,8.842452,6.4900999,8.9559336
	L5.8797526,9.04109L5.581706,9.0837584v0.2980471C5.2268276,9.4385462,4.8720403,9.5095396,4.531415,9.6231117
	c0.397366,0.9367189,0.9792972,1.7882814,1.7173786,2.4979477L6.0643182,12.33395L6.2913718,12.5752563z M8.2216406,0.7807496
	c0.1419878,0.1418971,0.283885,0.2979568,0.4116192,0.4541067c0.5535154,0.652925,1.0077124,1.3909161,1.3341751,2.1573226
	c0.4967747-0.1987281,0.9651346-0.439944,1.4334946-0.7521536C10.5777817,1.7174687,9.4706602,1.0645437,8.2216406,0.7807496z
	 M7.270669,0.6671779L7.2849216,0.652925H7.270669V0.6671779z M7.270669,3.9742005
	C7.9661722,3.945785,8.6758375,3.8322132,9.3571787,3.6193225C9.059041,2.9096568,8.6475124,2.2568219,8.1364841,1.6464751
	C7.8810158,1.3341752,7.5829687,1.0362185,7.270669,0.7664968V3.9742005z M6.617744,4.6270351
	C5.8371749,4.5987101,5.0565152,4.4567227,4.3042712,4.2154164C4.1197963,4.797348,3.9920616,5.3935323,3.9493933,6.0037889
	C3.9353209,6.1031981,3.9353209,6.2024264,3.921068,6.3018355h2.696676V4.6270351z M6.6036716,0.652925L6.617744,0.6671779V0.652925
	H6.6036716z M4.531415,3.6193225C5.2126651,3.8322132,5.9223309,3.945785,6.617744,3.9742005V0.7664968
	C5.6952777,1.5613189,4.9997745,2.5264535,4.531415,3.6193225z M2.4875739,2.6400254
	C2.9417708,2.9379821,3.424293,3.1934509,3.921068,3.392179C4.3326869,2.4271345,4.914618,1.5471562,5.666862,0.7807496
	C4.4178433,1.0503812,3.3108115,1.7174687,2.4875739,2.6400254z M0.9689234,6.3018355h2.3134725
	c0-0.1134815,0.0141628-0.2413058,0.0141628-0.3548779c0.0567408-0.6669974,0.1987281-1.3199224,0.3973658-1.9444318
	C3.1404989,3.7754724,2.6011457,3.4915881,2.0901177,3.1509631C1.4372829,4.045104,1.0398268,5.1238103,0.9689234,6.3018355z
	 M3.6939244,9.2398176c-0.1986377-0.6245089-0.340625-1.2773442-0.3973658-1.9444318
	c0-0.1135716-0.0141628-0.2413063-0.0141628-0.3548779H0.9689234c0.0709034,1.1781158,0.4683595,2.2568216,1.1211944,3.1509628
	C2.6011457,9.7507553,3.1404989,9.4669609,3.6939244,9.2398176z M5.666862,12.4616842
	c-0.752244-0.766407-1.3341751-1.6463852-1.7457941-2.6115198c-0.4967749,0.1987286-0.9792972,0.4399443-1.4334941,0.752244
	C3.3108115,11.5248747,4.4178433,12.1920528,5.666862,12.4616842z"/>
</svg>
