<?xml version="1.0" encoding="utf-8"?>

<!--
	~   Copyright (c) 2017, WSO2 Inc. (http://www.wso2.org) All Rights Reserved.
	~
	~   WSO2 Inc. licenses this file to you under the Apache License,
	~   Version 2.0 (the "License"); you may not use this file except
	~   in compliance with the License.
	~   You may obtain a copy of the License at
  	~
    ~   http://www.apache.org/licenses/LICENSE-2.0
    ~
    ~   Unless required by applicable law or agreed to in writing,
    ~   software distributed under the License is distributed on an
    ~   "AS IS" BASIS, WITHOUT WARRANTIES OR CONDITIONS OF ANY
    ~   KIND, either express or implied.  See the License for the
    ~   specific language governing permissions and limitations
    ~   under the License.
-->

<svg version="1.1" id="jms" xmlns="http://www.w3.org/2000/svg" xmlns:xlink="http://www.w3.org/1999/xlink" x="0px" y="0px"
	 viewBox="0 0 14 14" style="enable-background:new 0 0 14 14;" xml:space="preserve">
<path d="M14,10.1332102c-0.0021362,0.0253248-0.0021362,0.0632095-0.0028687,0.1153688
	c-0.0168457,1.3218279-0.3695679,2.2643347-1.0482788,2.8008213l-0.0084839,0.0063143c0,0-2.1436768,0.0015783-2.1647949,0.000823
	c0,0,0.0639648-0.045845,0.0934448-0.0695915c0.00354-0.0031567,0.0063477-0.0054903,0.0084229-0.0078926
	c0.0007324,0,0.0007324,0,0.0007324,0c0-0.0007544,0.0006714-0.0007544,0.0006714-0.0007544
	c0.9851074-0.7869205,1.0040894-2.2493734,1.010437-2.7312994c0.0006714-0.054492,0.0014038-0.0940237,0.0028076-0.1177015
	c0.0056152-2.1355834-1.1235352-2.8837962-1.1361694-2.8924437c-0.0400391-0.0276585-0.0639648-0.04111-0.0674438-0.0426884
	l-0.007019-0.0039806h2.1668701l0.0070801,0.0039806c0.0119019,0.0063138,0.2943726,0.1572332,0.5782471,0.5972934
	C13.6936035,8.1952143,14.003479,8.9291525,14,10.1332102z M11.5407715,10.1332102
	c0.003479-1.2040577-0.3063354-1.9379959-0.5663452-2.3417506c-0.1560059-0.241786-0.3119507-0.3966169-0.4223022-0.487484
	c-0.0154419-0.0126281-0.0442505-0.0347276-0.0442505-0.0347276c-0.0084229-0.0063825-0.1082153-0.0727487-0.1116943-0.0750818
	l-0.007019-0.0039806H9.7666016H8.0001831H7.9882202H7.8687744l0.007019,0.0039806
	c0.0028076,0.0015783,0.0274048,0.0150299,0.0675049,0.0426884C7.956604,7.245502,7.9713745,7.2565513,7.9875488,7.269248h-0.00354
	c0.0014038,0.0007553,0.0028076,0.0015788,0.0042114,0.0023336c0.114563,0.068768,1.098938,0.7221332,1.0933228,2.8577166
	c-0.0014038,0.0236778-0.0021362,0.0632095-0.0028076,0.1177015c-0.0063477,0.481926-0.0253296,1.9435549-1.0097046,2.7312994
	H8.0683594c-0.0007324,0.0007544-0.0014038,0.0007544-0.0021362,0.0015783
	c-0.0020752,0.0023336-0.0048828,0.003912-0.0076904,0.0070686c-0.0231934,0.0181875-0.0611572,0.046669-0.081543,0.0608759
	c-0.007019,0.0054903-0.0119629,0.0087156-0.0119629,0.0087156c0.0211182,0.0007553,0.0534058,0.0015793,0.0935059,0.0015793
	v0.0007544c0.3765869,0.0024023,1.0096436,0.0063143,1.5380249,0.0063143c0.0400391,0,0.3323364-0.0007553,0.4265137-0.0007553
	c0.206543-0.0015783,0.4581299-0.0087156,0.4581299-0.0087156h0.0006714v-0.000824l0.0077515-0.0054903
	c0.0154419-0.0126276,0.0842896-0.0695229,0.085022-0.0711012c0.62323-0.5467129,0.9471436-1.4647865,0.9633179-2.7297201
	C11.5386353,10.1964197,11.5386353,10.158535,11.5407715,10.1332102z M8.7302246,10.1332102
	c0.003479-1.2040577-0.3063354-1.9379959-0.5663452-2.3417506C8.0001831,7.537869,7.8371582,7.3798122,7.7254639,7.2913475
	C7.7163086,7.2834549,7.7072144,7.2763171,7.6980591,7.2700033V7.269248H7.6973267
	C7.6889038,7.2628655,7.6812134,7.2573752,7.6741333,7.2518158c-0.0519409-0.0387077-0.0849609-0.0553164-0.088501-0.0576496
	l-0.007019-0.0039806H7.5181885H7.307373H5.1896362H5.1777344H5.0582275l0.0070801,0.0039806
	c0.0028076,0.0015783,0.0274048,0.0150299,0.0674438,0.0426884C5.1453857,7.245502,5.1601562,7.2565513,5.1763306,7.269248
	H5.1734619c0.0007324,0.0007553,0.0014648,0.0007553,0.0028687,0.0015788
	c0.1074829,0.0639639,1.1010132,0.7125931,1.0946655,2.8584714c-0.0014038,0.0236778-0.0020752,0.0632095-0.0028076,0.1177015
	c-0.0063477,0.481926-0.0252686,1.9435549-1.0097046,2.7312994H5.2578125
	c-0.0007324,0.0007544-0.0014038,0.0007544-0.0021362,0.0015783c-0.0020752,0.0023336-0.0048828,0.003912-0.0076904,0.0070686
	c-0.0231934,0.0181875-0.0611572,0.046669-0.081543,0.0608759c-0.007019,0.0054903-0.0119019,0.0087156-0.0119019,0.0087156
	c0.0210571,0.0007553,0.0534058,0.0015793,0.0934448,0.0015793v-0.000824c0.0028076,0,0.0056152,0,0.0076904,0
	c0.0028076,0,0.0056152,0,0.0084839,0c0.2767944,0.0024023,0.932373,0.0063143,1.5218506,0.0078926
	c0.0401001,0,0.0794067,0,0.1187744,0c0.328125-0.0007553,0.6021729-0.0023336,0.7265015-0.0078926
	c0.0021362,0,0.00354,0,0.0049438,0s0.0028076,0,0.0042114,0c0.0076904,0,0.0140381-0.0007553,0.0203857-0.0007553
	l0.0098267-0.000823l0.0084229-0.0063143c0.0168457-0.0134516,0.0337524-0.0268345,0.0498657-0.04111
	c0.0105591-0.008647,0.0211182-0.0173635,0.0316162-0.0268345c0.0014038-0.000823,0.0021362-0.0015783,0.0028076-0.0024023
	c0.0007324-0.0007544,0.0014648-0.0007544,0.0014648-0.0015783c0.6224976-0.5467129,0.9464111-1.4639626,0.9625854-2.7288961
	C8.7280884,10.1964197,8.7280884,10.158535,8.7302246,10.1332102z M5.8466187,10.248579
	c-0.0161743,1.2641096-0.3400879,2.1814289-0.9619141,2.7288961H4.8840332c0,0.000824-0.0007324,0.000824-0.0014648,0.0015783
	c-0.0006714,0.000824-0.0013428,0.0015793-0.0028076,0.0024023c-0.010498,0.0094709-0.0210571,0.0181875-0.0316162,0.0268345
	c-0.0161133,0.0142756-0.03302,0.0276585-0.0498657,0.04111L4.789856,13.0557146l-0.0105591,0.000823
	c-0.0062866,0-0.0126343,0.0007553-0.0203857,0.0007553c-0.0014038,0-0.0028076,0-0.0042114,0
	c-0.1356201,0.005559-0.4616089,0.0078926-0.8438721,0.0078926c-0.6625977,0-1.6818237-0.0074806-2.0321045-0.0100889
	c-0.0046387,0.000206-0.0093384,0.0002747-0.0139771,0.000412c-0.0054932,0.0003433-0.0106201,0.0031567-0.0161133,0.0034313
	c-0.0186157,0.000824-0.0379639,0.001647-0.057312,0.001647C0.8032227,13.0605869,0,11.743494,0,10.1257982
	c0-0.0003433,0.000061-0.0006866,0.000061-0.001029C0.000061,10.1244259,0,10.1240826,0,10.1237392
	c0-0.0344524,0.0056152-0.0665035,0.0063477-0.1006813C0.0402222,8.4529228,0.824707,7.1901855,1.7913208,7.1901855h0.0007324
	c0.0058594,0,0.0112915,0.0028138,0.0171509,0.0028825c0.0060425-0.0000687,0.0115967-0.0028825,0.0176392-0.0028825h0.0007324
	h0.210083h2.388916h0.2108154h0.0604248l0.007019,0.0039806c0.00354,0.0023332,0.0365601,0.0189419,0.088562,0.0576496
	c0.007019,0.0055594,0.0147095,0.0110497,0.0231323,0.0173635h0.0007324v0.000824c0.0006714,0,0.0014038,0,0.0014038,0.0008235
	c0.1110229,0.0844846,0.2873535,0.2464528,0.4644165,0.5206327c0.2600098,0.4037547,0.5698853,1.1376929,0.5663452,2.3417506
	C5.84729,10.158535,5.84729,10.1964197,5.8466187,10.248579z M0.2000122,10.1257982
	c0,1.4942293,0.7138672,2.7098856,1.5913086,2.7098856c0.8990479-0.0452957,1.5913086-1.260335,1.5913086-2.7098856
	c0-1.4939547-0.713623-2.7099547-1.5907593-2.7107096C0.9141235,7.415226,0.2000122,8.6312256,0.2000122,10.1257982z
	 M2.7270508,4.0673828c0,0.234375-0.0307617,0.4003906-0.0927734,0.4990234
	c-0.0620117,0.0996094-0.159668,0.1484375-0.2924805,0.1484375c-0.0839844,0-0.1489258-0.0166016-0.1943359-0.0498047
	C2.0810547,4.6142578,2.0336914,4.5478516,2.0058594,4.4658203S1.9628906,4.2578125,1.9614258,4.0878906L0.8256836,4.2431641
	c0.0209961,0.296875,0.0893555,0.546875,0.2060547,0.7480469C1.1479492,5.1933594,1.3125,5.3466797,1.5258789,5.4521484
	C1.7392578,5.5566406,2.0400391,5.609375,2.4282227,5.609375c0.3671875,0,0.668457-0.0800781,0.9033203-0.2382812
	c0.2353516-0.1591797,0.3920898-0.3535156,0.4697266-0.5820312c0.0776367-0.2294922,0.1166992-0.5625,0.1166992-1.0009766V1.6982422
	h-1.190918V4.0673828z M4.6967773,5.5439453h0.9731445V2.6113281l0.7480469,2.9326172h0.8808594l0.75-2.9326172v2.9326172h0.9726562
	V1.6982422H7.4599609L6.8618164,4.0380859L6.2592773,1.6982422h-1.5625V5.5439453z M10,5.2314453
	c0.2519531,0.2519531,0.7050781,0.3779297,1.359375,0.3779297c0.3710938,0,0.6796875-0.0537109,0.9257812-0.1611328
	c0.2441406-0.1074219,0.4355469-0.265625,0.5703125-0.4736328c0.1367188-0.2080078,0.2050781-0.4355469,0.2050781-0.6816406
	c0-0.2099609-0.0507812-0.3994141-0.1523438-0.5693359c-0.1035156-0.1699219-0.2675781-0.3115234-0.4921875-0.4267578
	c-0.2246094-0.1142578-0.5957031-0.2275391-1.1152344-0.3388672c-0.2089844-0.0439453-0.3417969-0.0908203-0.3984375-0.1416016
	c-0.0585938-0.0498047-0.0859375-0.1044922-0.0859375-0.1660156c0-0.0839844,0.0351562-0.1552734,0.1035156-0.2138672
	c0.0703125-0.0585938,0.1738281-0.0878906,0.3125-0.0878906c0.1679688,0,0.2988281,0.0400391,0.3945312,0.1181641
	c0.0957031,0.0791016,0.1582031,0.2050781,0.1875,0.3779297l1.1210938-0.0654297
	c-0.0488281-0.3984375-0.203125-0.6894531-0.4609375-0.8720703s-0.6328125-0.2744141-1.1230469-0.2744141
	c-0.4003906,0-0.7167969,0.0507812-0.9472656,0.1513672c-0.2285156,0.1005859-0.4003906,0.2382812-0.515625,0.4140625
	s-0.171875,0.3623047-0.171875,0.5595703c0,0.3007812,0.1113281,0.5488281,0.3359375,0.7431641
	c0.2226562,0.1933594,0.59375,0.3496094,1.1152344,0.4667969C11.484375,4.0371094,11.6875,4.1113281,11.7753906,4.1904297
	c0.0878906,0.078125,0.1308594,0.1679688,0.1308594,0.2675781c0,0.1044922-0.0449219,0.1972656-0.1367188,0.2763672
	c-0.0917969,0.0800781-0.2226562,0.1191406-0.3925781,0.1191406c-0.2265625,0-0.4023438-0.0771484-0.5253906-0.2333984
	c-0.0742188-0.0957031-0.125-0.2353516-0.1484375-0.4189453L9.5722656,4.2714844
	C9.6054688,4.6601562,9.7480469,4.9794922,10,5.2314453z"/>
</svg>
