<?xml version="1.0" encoding="utf-8"?>

<!--
 ~   Copyright 2017, WSO2 Inc. (http://www.wso2.com)
 ~
 ~   Licensed under the Apache License, Version 2.0 (the "License");
 ~   you may not use this file except in compliance with the License.
 ~   You may obtain a copy of the License at
 ~
 ~        http://www.apache.org/licenses/LICENSE-2.0
 ~
 ~   Unless required by applicable law or agreed to in writing, software
 ~   distributed under the License is distributed on an "AS IS" BASIS,
 ~   WITHOUT WARRANTIES OR CONDITIONS OF ANY KIND, either express or implied.
 ~   See the License for the specific language governing permissions and
 ~   limitations under the License.
-->

<svg version="1.1" id="loader3" xmlns="http://www.w3.org/2000/svg" xmlns:xlink="http://www.w3.org/1999/xlink" x="0px" y="0px"
	 viewBox="0 0 14 14" style="enable-background:new 0 0 14 14;" xml:space="preserve">
<path d="M3.2,9.9c1,1.1,2.6,1.8,4.2,1.7c1.3-0.1,2.5-0.7,3.4-1.5l1.6,1.8c-1.3,1.2-3,2-4.9,2.2c-2.3,0.1-4.4-0.8-5.9-2.3L3.2,9.9z
	 M7.1,0c0.1,0,0.3,0,0.4,0c1.9,0.1,3.6,0.9,4.9,2.2L10.8,4C9.9,3.1,8.7,2.5,7.4,2.4C5.7,2.3,4.2,3,3.2,4.1L1.6,2.3C3,0.9,5,0,7.1,0z
	"/>
</svg>
