<?xml version="1.0" encoding="utf-8"?>

<!--
 ~   Copyright 2017, WSO2 Inc. (http://www.wso2.com)
 ~
 ~   Licensed under the Apache License, Version 2.0 (the "License");
 ~   you may not use this file except in compliance with the License.
 ~   You may obtain a copy of the License at
 ~
 ~        http://www.apache.org/licenses/LICENSE-2.0
 ~
 ~   Unless required by applicable law or agreed to in writing, software
 ~   distributed under the License is distributed on an "AS IS" BASIS,
 ~   WITHOUT WARRANTIES OR CONDITIONS OF ANY KIND, either express or implied.
 ~   See the License for the specific language governing permissions and
 ~   limitations under the License.
-->

<svg version="1.1" id="loader4" xmlns="http://www.w3.org/2000/svg" xmlns:xlink="http://www.w3.org/1999/xlink" x="0px" y="0px"
	 viewBox="0 0 14 14" style="enable-background:new 0 0 14 14;" xml:space="preserve">
<path d="M7.1,0c3.5,0,6.3,2.5,6.9,5.8h-1.4C12,3.3,9.8,1.3,7.1,1.3C3.9,1.3,1.4,3.9,1.4,7s2.5,5.7,5.6,5.7c2.7,0,4.8-1.7,6.2-4.4
	c-0.5,3.3-2.7,5.7-6.1,5.8l-0.1,0v0h0h0h0H6.3v0l-0.2,0C2.7,13.5,0.1,10.6,0.1,7C0.1,3.1,3.2,0,7.1,0z"/>
</svg>
