<?xml version="1.0" encoding="utf-8"?>

<!--
 ~   Copyright 2017, WSO2 Inc. (http://www.wso2.com)
 ~
 ~   Licensed under the Apache License, Version 2.0 (the "License");
 ~   you may not use this file except in compliance with the License.
 ~   You may obtain a copy of the License at
 ~
 ~        http://www.apache.org/licenses/LICENSE-2.0
 ~
 ~   Unless required by applicable law or agreed to in writing, software
 ~   distributed under the License is distributed on an "AS IS" BASIS,
 ~   WITHOUT WARRANTIES OR CONDITIONS OF ANY KIND, either express or implied.
 ~   See the License for the specific language governing permissions and
 ~   limitations under the License.
-->

<svg version="1.1" id="main-function" xmlns="http://www.w3.org/2000/svg" xmlns:xlink="http://www.w3.org/1999/xlink" x="0px"
	 y="0px" viewBox="0 0 14 14" style="enable-background:new 0 0 14 14;" xml:space="preserve">
<path d="M13.3571129,6.6463766c-0.1735697-3.3763282-2.7519045-5.9971013-6.0390635-6.1386471V0H6.7716441v0.5077295
	C3.5096967,0.6483092,0.9313617,3.2483091,0.73452,6.5971012H0v0.5449276h0.7194902
	c0.0707854,3.4367151,2.7102091,6.2057972,6.0521541,6.3497591V14h0.5464053v-0.5082121
	c3.315279-0.1439619,5.9537334-2.8917875,6.0497303-6.3014498H14V6.6463766H13.3571129z M7.3180494,12.6009665
	c2.8682642-0.1439619,5.1576395-2.5004835,5.2546062-5.4106283h0.1493282
	c-0.0959969,3.0483093-2.4493704,5.5120773-5.4039345,5.6579714V12.6009665z M1.3648012,7.1420288h0.1493282
	c0.0722399,2.9352655,2.3620999,5.3140097,5.257515,5.4589376v0.2473431
	C3.7913837,12.7024155,1.4360715,10.217391,1.3648012,7.1420288z M6.7716441,1.3985507
	C4.0119824,1.5386473,1.7293947,3.8024154,1.5306137,6.5971012H1.3808007
	c0.1968416-2.9338162,2.543427-5.3038645,5.3908434-5.4454103V1.3985507z M6.7716441,11.5758457v0.6685991
	c-2.6457262-0.1439619-4.7377748-2.3632851-4.807591-5.102416h0.5682228V6.5971012H1.9926583
	c0.1919934-2.6405795,2.2273169-4.702898,4.778986-4.8415456v0.668599h0.5464053v-0.668599
	c2.5773659,0.1405797,4.6155977,2.2236714,4.7843189,4.890821h-0.5352535v0.5439615h0.5536776
	c-0.0930882,2.7565222-2.1400471,4.9101448-4.802743,5.0541067v-0.6685991H6.7716441z M12.5629587,6.6463766
	c-0.1764784-2.8212559-2.4600363-5.1067629-5.2449093-5.2478256V1.1516908
	c2.8721428,0.1425121,5.2206678,2.5342994,5.3932676,5.4946856H12.5629587z M9.7872162,2.9775259
	c0.1648026,0.1380529,0.247983,0.2949989,0.247983,0.4670348c0,0.1371799-0.0462046,0.2552168-0.1377401,0.3509932
	C9.7237396,3.9772549,9.4045467,3.9892271,9.2286453,3.8272302c-0.0843658-0.0776315-0.129199-0.1775231-0.129199-0.2885766
	c0-0.0710216,0.0239439-0.1486528,0.0735159-0.2380068c0.0125332-0.0228217,0.0211382-0.039782,0.0272493-0.0526271
	C9.1888008,3.2460866,9.1729622,3.2444031,9.1520739,3.2444031c-0.1477804,0-0.2769165,0.0459552-0.3947039,0.140048
	C8.5840244,3.521631,8.4247713,3.7434881,8.2834139,4.0446601C8.2171307,4.1893849,8.0963507,4.542872,7.9240651,5.0958939
	h0.6226096L8.3919725,5.663444H7.769052L7.3253999,7.4266405c-0.2101965,0.8305616-0.4250698,1.482976-0.6385093,1.9394722
	c-0.3092155,0.6562815-0.6504817,1.118577-1.0145693,1.3746662c-0.2858329,0.2017794-0.578649,0.3042278-0.8700314,0.3042278
	c-0.2051463,0-0.3832932-0.0634766-0.5293894-0.1884356c-0.1182866-0.0954647-0.1823244-0.2299004-0.1823244-0.3865976
	c0-0.1311312,0.0537496-0.2494173,0.1553249-0.3426371c0.1783962-0.1642418,0.4762011-0.1920519,0.655158-0.0275612
	c0.0818715,0.0751371,0.1252704,0.1692305,0.1252704,0.2719278c0,0.0539989-0.0133438,0.1280136-0.0687146,0.2051458
	c0.074264-0.0128441,0.1527681-0.0428991,0.2346396-0.0893536c0.1157298-0.0659714,0.2217946-0.1675463,0.3150148-0.3019829
	c0.0974598-0.1408587,0.1920514-0.3509932,0.2811561-0.6246042C5.827085,9.4454279,5.9312172,9.0604515,6.1071191,8.3832827
	L6.8065486,5.663444H6.0692697l0.1202197-0.5675502h0.1155424c0.2735491,0,0.3957639-0.0225101,0.4500122-0.0414658
	c0.0690265-0.0239444,0.1353092-0.073204,0.1967907-0.1458473c0.0486989-0.0576153,0.1380525-0.1895576,0.2872667-0.4912281
	C7.411387,4.0669208,7.5800557,3.789942,7.7403688,3.5940244c0.2229171-0.2680616,0.4606123-0.4715242,0.7077856-0.6062098
	C8.9767332,2.6991758,9.4863558,2.7261753,9.7872162,2.9775259z"/>
</svg>
