<?xml version="1.0" encoding="utf-8"?>

<!--
 ~   Copyright 2017, WSO2 Inc. (http://www.wso2.com)
 ~
 ~   Licensed under the Apache License, Version 2.0 (the "License");
 ~   you may not use this file except in compliance with the License.
 ~   You may obtain a copy of the License at
 ~
 ~        http://www.apache.org/licenses/LICENSE-2.0
 ~
 ~   Unless required by applicable law or agreed to in writing, software
 ~   distributed under the License is distributed on an "AS IS" BASIS,
 ~   WITHOUT WARRANTIES OR CONDITIONS OF ANY KIND, either express or implied.
 ~   See the License for the specific language governing permissions and
 ~   limitations under the License.
-->

<svg version="1.1" id="map-location" xmlns="http://www.w3.org/2000/svg" xmlns:xlink="http://www.w3.org/1999/xlink" x="0px"
	 y="0px" viewBox="0 0 14 14" style="enable-background:new 0 0 14 14;" xml:space="preserve">
<path d="M0.6509804,10.1274118c1.7244968,0,3.3819132,1.1104794,4.0250778,1.5777931l-0.1748786,2.104372L0,11.9393473
	l0.4673144-1.8119354C0.5235294,10.1274118,0.5926875,10.1274118,0.6509804,10.1274118z M9.6154051,9.7475367
	c2.5716867,1.9586391,4.0037479,2.1335182,4.1213055,2.1626644L14,13.6055517l-4.2961836-1.402915v-0.1457319L9.6154051,9.7475367z
	 M8.8265095,9.6309509l0.1165857,2.4551001v0.1457319L5.2308116,13.809576l0.1748786-2.104372L8.8265095,9.6309509z
	 M7.1311588,8.1988897v1.5777931l-1.6079111,1.0230398L5.6981263,8.753644L7.1311588,8.1988897z M13.0935459,7.8773079
	l0.49646,3.1274118c-0.5848713-0.0291462-1.6370573-0.6431646-2.5716867-1.2571821
	C11.6323385,7.9356008,13.0643997,7.8773079,13.0935459,7.8773079z M3.6821649,5.2172103l1.5195005,0.5557251v0.0874395
	L5.0267868,7.7597504C2.8641219,6.6784177,3.5947258,5.3347678,3.6821649,5.2172103z M1.9285216,4.5740461L2.922415,4.9247746
	C2.0159609,6.8834143,4.0911865,8.2280359,4.9684939,8.6662045l-0.2049966,2.1918106
	C1.3727964,8.7244978,0.6140178,9.6018047,0.6140178,9.6018047l0,0L1.9285216,4.5740461z M8.6215124,4.5448995l0.1748791,4.1795983
	L7.9200554,9.2802219l-0.0291467-1.753643C7.8901958,6.9764705,7.3643303,7.2049966,7.3643303,7.2049966L5.7573905,7.819015
	l0.1748781-1.8993754L5.9614153,5.744761L8.6215124,4.5448995z M9.3812628,4.5157533l0.7306042,0.2341433l0.4381685,1.6079111
	l0.2341423,0.8763361L11.3399038,6.50354l0.7888966-1.0813322l0.6431646,0.2049961l0.2049971,1.402915
	c-2.0169334,0.2632895-2.6892433,2.1918116-2.6892433,2.1918116l-0.0447674-0.037137
	C9.9213686,8.9506502,9.7967939,8.864171,9.5862608,8.6953526L9.3812628,4.5157533z M11.7489243,1.1551701
	c-0.4381685,0-0.8471899,0.3215823-0.9356012,0.7888966c-0.0874395,0.5256072,0.2341433,1.0230395,0.7597504,1.110479
	c0.5256062,0.0874393,1.0230389-0.234143,1.1104784-0.7597504s-0.2341433-1.0230396-0.7597504-1.1104789
	C11.86551,1.1551701,11.8072176,1.1551701,11.7489243,1.1551701z M11.7780714,0.1904234
	c0.1165848,0,0.2049971,0,0.3215818,0.0291464c0.9938936,0.1748786,1.6662045,1.1687716,1.4903545,2.1626649
	c-0.0582933,0.3507288-0.2341433,0.6723108-0.4673138,0.9064538L12.070507,4.749896l-1.0813322,1.4903536l-0.4673138-1.7827897
	l-0.4673147-1.753643C9.9379606,2.3822346,9.9088144,2.0315061,9.9671068,1.6807773
	C10.111867,0.8044415,10.9017344,0.1904234,11.7780714,0.1904234z"/>
</svg>
