<?xml version="1.0" encoding="utf-8"?>

<!--
 ~   Copyright 2017, WSO2 Inc. (http://www.wso2.com)
 ~
 ~   Licensed under the Apache License, Version 2.0 (the "License");
 ~   you may not use this file except in compliance with the License.
 ~   You may obtain a copy of the License at
 ~
 ~        http://www.apache.org/licenses/LICENSE-2.0
 ~
 ~   Unless required by applicable law or agreed to in writing, software
 ~   distributed under the License is distributed on an "AS IS" BASIS,
 ~   WITHOUT WARRANTIES OR CONDITIONS OF ANY KIND, either express or implied.
 ~   See the License for the specific language governing permissions and
 ~   limitations under the License.
-->

<svg version="1.1" id="mapping" xmlns="http://www.w3.org/2000/svg" xmlns:xlink="http://www.w3.org/1999/xlink" x="0px" y="0px"
	 viewBox="0 0 14 14" style="enable-background:new 0 0 14 14;" xml:space="preserve">
<path d="M12.2700195,5.2699585c-0.960022,0-1.7399902,0.7700195-1.7399902,1.7300415
	c0,0.9599609,0.7799683,1.7299805,1.7399902,1.7299805C13.2199707,8.7299805,14,7.9599609,14,7
	C14,6.039978,13.2199707,5.2699585,12.2700195,5.2699585z M12.2700195,8.2299805
	c-0.6799927,0-1.2399902-0.5499878-1.2399902-1.2299805s0.5599976-1.2300415,1.2399902-1.2300415S13.5,6.3200073,13.5,7
	S12.9500122,8.2299805,12.2700195,8.2299805z M12.2700195,10.5299683c-0.960022,0-1.7399902,0.7800293-1.7399902,1.7399902
	C10.5300293,13.2199707,11.3099976,14,12.2700195,14C13.2199707,14,14,13.2199707,14,12.2699585
	C14,11.3099976,13.2199707,10.5299683,12.2700195,10.5299683z M12.2700195,13.5
	c-0.6799927,0-1.2399902-0.5499878-1.2399902-1.2300415c0-0.6799927,0.5599976-1.2399902,1.2399902-1.2399902
	S13.5,11.5899658,13.5,12.2699585C13.5,12.9500122,12.9500122,13.5,12.2700195,13.5z M12.2700195,3.4699707
	C13.2199707,3.4699707,14,2.6900024,14,1.7299805C14,0.7799683,13.2199707,0,12.2700195,0
	c-0.960022,0-1.7399902,0.7799683-1.7399902,1.7299805C10.5300293,2.6900024,11.3099976,3.4699707,12.2700195,3.4699707z
	 M12.2700195,0.5C12.9500122,0.5,13.5,1.0499878,13.5,1.7299805s-0.5499878,1.2399902-1.2299805,1.2399902
	s-1.2399902-0.5599976-1.2399902-1.2399902S11.5900269,0.5,12.2700195,0.5z M10.5300293,2.0299683l-1.960022,2.0400391
	L8.25,3.7699585l1.5599976-1.6099854H9.3900146V1.9199829V1.9099731V1.7799683h0.3099976L8.2700195,0.289978l0.3200073-0.2999878
	L10.5300293,2.0299683z M8.2600098,2.0999756L8.210022,1.9799805c0.2099609-0.0899658,0.4400024-0.1300049,0.6599731-0.1699829
	l0.0100098,0.1400146l0.0299683,0.2399902C8.7199707,2.2199707,8.5300293,2.25,8.3599854,2.3299561L8.2600098,2.0999756z
	 M7.8300171,2.3599854l0.1599731,0.1900024C7.8499756,2.6699829,7.7199707,2.8099976,7.6400146,2.9799805L7.4199829,2.8399658
	L7.3200073,2.7799683c0.0999756-0.2000122,0.25-0.3800049,0.4299927-0.5199585L7.8300171,2.3599854z M7.210022,3.3099976
	l0.2299805,0.0899658C7.3900146,3.5899658,7.3200073,3.7799683,7.2999878,3.9799805l-0.25-0.0499878L6.9299927,3.9099731
	c0.0200195-0.2099609,0.1000366-0.4199829,0.1600342-0.6400146L7.210022,3.3099976z M6.8099976,5.5599976L7.039978,5.6400146
	C6.9799805,5.8699951,6.8599854,6.0700073,6.7399902,6.2799683L6.539978,6.1400146L6.4299927,6.0700073
	c0.0900269-0.1799927,0.2000122-0.3500366,0.25-0.5500488L6.8099976,5.5599976z M7.0100098,4.4500122l0.2199707,0.0199585
	C7.210022,4.6699829,7.2000122,4.8699951,7.1599731,5.1099854L6.9299927,5.0799561L6.789978,5.0599976
	c0.0300293-0.1500244,0.0400391-0.3200073,0.0599976-0.4800415c0-0.0499878,0.0100098-0.0999756,0.0100098-0.1499634
	l0.1199951,0.0100098L7.0100098,4.4500122z M6.2000122,6.539978l0.1699829,0.1699829
	C6.2000122,6.8800049,6.0100098,7.0100098,5.8099976,7.1300049L5.6900024,6.9099731L5.6300049,6.7999878
	c0.1699829-0.1099854,0.3399658-0.2200317,0.4799805-0.3599854L6.2000122,6.539978z M5.2299805,7.1300049l0.0800171,0.2199707
	c-0.210022,0.0800171-0.4299927,0.1400146-0.6500244,0.1799927l-0.039978-0.2299805L4.5900269,7.1699829
	C4.789978,7.1199951,4.9899902,7.0700073,5.1799927,7L5.2299805,7.1300049z M4.0999756,7.2399902
	C3.9099731,7.2600098,3.6699829,7.2600098,3.4699707,7.2600098V7.1900024V5.2699585H0v3.460022h3.4699707V7.6300049
	c0.2300415,0.0100098,0.4500122,0,0.6700439-0.0200195L4.1099854,7.3800049L4.0999756,7.2399902z M2.9699707,8.2299805H0.5
	v-2.460022h2.4699707V8.2299805z M3.4699707,0H0v3.4699707h3.4699707V0z M2.9699707,2.9699707H0.5V0.5h2.4699707V2.9699707z M0,14
	h3.4699707v-3.4700317H0V14z M0.5,11.0299683h2.4699707V13.5H0.5V11.0299683z"/>
</svg>
