<?xml version="1.0" encoding="utf-8"?>

<!--
 ~   Copyright 2017, WSO2 Inc. (http://www.wso2.com)
 ~
 ~   Licensed under the Apache License, Version 2.0 (the "License");
 ~   you may not use this file except in compliance with the License.
 ~   You may obtain a copy of the License at
 ~
 ~        http://www.apache.org/licenses/LICENSE-2.0
 ~
 ~   Unless required by applicable law or agreed to in writing, software
 ~   distributed under the License is distributed on an "AS IS" BASIS,
 ~   WITHOUT WARRANTIES OR CONDITIONS OF ANY KIND, either express or implied.
 ~   See the License for the specific language governing permissions and
 ~   limitations under the License.
-->

<svg version="1.1" id="mobile" xmlns="http://www.w3.org/2000/svg" xmlns:xlink="http://www.w3.org/1999/xlink" x="0px" y="0px"
	 viewBox="0 0 14 14" style="enable-background:new 0 0 14 14;" xml:space="preserve">
<path d="M7.79,12.9099998V12.71c0-0.1999998-0.0900002-0.3999996-0.29-0.3999996H6.5999999
	c-0.1999998,0-0.2999997,0.1999998-0.2999997,0.3999996v0.1999998c0,0.1999998,0.0999999,0.3900003,0.2999997,0.3900003H7.5
	C7.6999998,13.3000002,7.79,13.1099997,7.79,12.9099998z M8.3400002,1.04c0.1399994,0,0.25-0.11,0.25-0.2399999
	c0-0.14-0.1100006-0.25-0.25-0.25h-2.5c-0.1400003,0-0.25,0.11-0.25,0.25c0,0.13,0.1099997,0.2399999,0.25,0.2399999H8.3400002z
	 M9.8800001,14H4.1199999c-0.3999999-0.1000004-0.79-0.5-0.79-0.9899998V0.89c0-0.49,0.3900001-0.89,0.79-0.89h5.7600002
	c0.3999996,0,0.79,0.4,0.79,0.89v12.2199993C10.6700001,13.6000004,10.2799997,14,9.8800001,14z M9.9799995,1.6900001H3.9200001
	v9.9300003h6.0599995V1.6900001z"/>
</svg>
