<?xml version="1.0" encoding="utf-8"?>

<!--
 ~   Copyright 2017, WSO2 Inc. (http://www.wso2.com)
 ~
 ~   Licensed under the Apache License, Version 2.0 (the "License");
 ~   you may not use this file except in compliance with the License.
 ~   You may obtain a copy of the License at
 ~
 ~        http://www.apache.org/licenses/LICENSE-2.0
 ~
 ~   Unless required by applicable law or agreed to in writing, software
 ~   distributed under the License is distributed on an "AS IS" BASIS,
 ~   WITHOUT WARRANTIES OR CONDITIONS OF ANY KIND, either express or implied.
 ~   See the License for the specific language governing permissions and
 ~   limitations under the License.
-->

<svg version="1.1" id="object" xmlns="http://www.w3.org/2000/svg" xmlns:xlink="http://www.w3.org/1999/xlink" x="0px" y="0px"
	 viewBox="0 0 14 14" style="enable-background:new 0 0 14 14;" xml:space="preserve">
<path d="M14,9.047205l-0.5501537-2.0334034c-0.4276886-1.596766-0.8553772-3.1935318-1.2802391-4.7902975
	c-0.0499287-0.1865249-0.1563797-0.3023964-0.3372517-0.3650424C10.132906,1.2677996,8.4325161,0.6752535,6.736835,0.0714028
	C6.5371218,0.0012205,6.2775884-0.0463528,6.0293598,0.2070573C5.9813151,0.2560436,5.9238505,0.2946674,5.8668571,0.3347043
	l-0.50211,0.3777599C3.6417472,2.0223775,1.9187474,3.3318195,0.1948056,4.6389065
	c-0.1097482,0.0829-0.2468157,0.2237358-0.1747493,0.4931607c0.5967853,2.2185154,1.1893314,4.4379725,1.7809355,6.6593137
	C1.84621,11.9581232,1.9465379,12.0674,2.1090405,12.1248646l2.2703278,0.7922602
	c1.0028067,0.350441,2.0056133,0.700881,3.0079489,1.0484953c0.0390949,0.0131893,0.0800738,0.0188408,0.1210527,0.0188408
	c0.1116323,0,0.2232647-0.0442753,0.2962728-0.0979719c0.8916454-0.6679096,1.7809353-1.3377037,2.6711683-2.0074978
	c0,0,3.3734617-2.568243,3.4488258-2.6283045C14,9.1906252,14,9.047205,14,9.047205z M2.5753527,11.3938379L1.0322834,5.6346478
	l1.7394856,0.590662c0.8525505,0.2901497,1.705101,0.5802999,2.5585933,0.8666811l0.0541677,0.0541677
	c0.1215239,0.484211,0.5143561,1.9509749,0.5143561,1.9509749l1.0216479,3.8086863L2.5753527,11.3938379z M5.6737375,6.3181014
	c-1.161541-0.3980141-2.3244951-0.7927308-3.4874494-1.1874475L1.3233752,4.837678l5.1925507-3.9429281
	c0.7475123,0.2609464,1.5378881,0.5449729,2.3273215,0.8289994c0.67733,0.2435185,1.35466,0.4870371,2.0037289,0.7154828
	L5.6737375,6.3181014z M8.1941786,5.493341l3.3009243-2.5001864l1.5779247,5.8741198l-5.276392,4.0149946
	c-0.3254766-1.2095852-1.3796248-5.1247234-1.578867-5.8868375C6.6977406,6.6280341,8.1951208,5.4928703,8.1941786,5.493341z"/>
</svg>
