<?xml version="1.0" encoding="utf-8"?>

<!--
 ~   Copyright 2017, WSO2 Inc. (http://www.wso2.com)
 ~
 ~   Licensed under the Apache License, Version 2.0 (the "License");
 ~   you may not use this file except in compliance with the License.
 ~   You may obtain a copy of the License at
 ~
 ~        http://www.apache.org/licenses/LICENSE-2.0
 ~
 ~   Unless required by applicable law or agreed to in writing, software
 ~   distributed under the License is distributed on an "AS IS" BASIS,
 ~   WITHOUT WARRANTIES OR CONDITIONS OF ANY KIND, either express or implied.
 ~   See the License for the specific language governing permissions and
 ~   limitations under the License.
-->

<svg version="1.1" id="operator" xmlns="http://www.w3.org/2000/svg" xmlns:xlink="http://www.w3.org/1999/xlink" x="0px" y="0px"
	 viewBox="0 0 14 14" style="enable-background:new 0 0 14 14;" xml:space="preserve">
<path d="M3.4451294,3.2612305h1.4755859V3.652832H3.4451294v1.5478516H3.0271606V3.652832H1.5510864V3.2612305h1.4760742v-1.534668
	h0.4179688V3.2612305z M11.5094604,3.8359375V3.230957H9.2106323v0.6049805H11.5094604z M4.0025635,9.1364136l-1.723877,3.0315552
	h0.2529297L4.255127,9.1364136H4.0025635z M4.918396,11.2253418c0,0.6176758-0.3249512,0.9244995-0.6994629,0.9244995
	c-0.3654785,0-0.6813965-0.293457-0.68573-0.8796387c0-0.5908813,0.3202515-0.9205322,0.7081299-0.9205322
	C4.6520386,10.3496704,4.918396,10.6659546,4.918396,11.2253418z M4.6068115,11.2434692
	c0-0.3564453-0.1034546-0.6546021-0.3788452-0.6546021c-0.24823,0-0.3835449,0.293457-0.3835449,0.663269
	c-0.0043335,0.3745117,0.1400146,0.6585083,0.3835449,0.6585083C4.489563,11.9106445,4.6068115,11.6313477,4.6068115,11.2434692z
	 M2.3057861,10.9365845c-0.3654175,0-0.6809692-0.293457-0.6856689-0.8843384c0-0.5869751,0.3202515-0.9158325,0.7084961-0.9158325
	c0.4103394,0,0.6809692,0.3154907,0.6809692,0.874939C3.0095825,10.6297607,2.6850586,10.9365845,2.3057861,10.9365845z
	 M2.3148804,10.6974487c0.2615967,0,0.3792114-0.2801514,0.3792114-0.6680298c0-0.3563843-0.1038818-0.6538086-0.3792114-0.6538086
	c-0.24823,0-0.3788452,0.2926636-0.3788452,0.6624756C1.9269409,10.4125977,2.0666504,10.6974487,2.3148804,10.6974487z
	 M8.3676147,9.9396362h3.9052734V9.4855347H8.3676147V9.9396362z M8.3676147,11.4230347h3.9052734v-0.4541016H8.3676147V11.4230347z
	 M14,0v14H7.2374878H6.5111084H0V7.3563843V6.6563721V0h6.5111084h0.7263794H14z M7.2374878,0.75v5.9063721H13.25V0.75H7.2374878z
	 M0.75,6.6563721h5.7611084V0.75H0.75V6.6563721z M6.5111084,13.25V7.3563843H0.75V13.25H6.5111084z M13.25,13.25V7.3563843
	H7.2374878V13.25H13.25z"/>
</svg>
