<?xml version="1.0" encoding="utf-8"?>

<!--
 ~   Copyright 2017, WSO2 Inc. (http://www.wso2.com)
 ~
 ~   Licensed under the Apache License, Version 2.0 (the "License");
 ~   you may not use this file except in compliance with the License.
 ~   You may obtain a copy of the License at
 ~
 ~        http://www.apache.org/licenses/LICENSE-2.0
 ~
 ~   Unless required by applicable law or agreed to in writing, software
 ~   distributed under the License is distributed on an "AS IS" BASIS,
 ~   WITHOUT WARRANTIES OR CONDITIONS OF ANY KIND, either express or implied.
 ~   See the License for the specific language governing permissions and
 ~   limitations under the License.
-->

<svg version="1.1" id="prototype" xmlns="http://www.w3.org/2000/svg" xmlns:xlink="http://www.w3.org/1999/xlink" x="0px" y="0px"
	 viewBox="0 0 14 14" style="enable-background:new 0 0 14 14;" xml:space="preserve">
<path d="M14,4.6477289c0,0-0.8752365,0.8931775-0.9948349,1.0144081c-0.0076113,0.0081525-0.0125027,0.0130467-0.0130463,0.0135908
	c-0.1331892-0.1331892-1.8988857-1.8929064-1.9684715-1.9619479l0.9687424-1.0073373L14,4.6477289z M10.7523785,3.9932044
	c-0.0815439,0.0815442-3.7559137,3.7700455-4.571353,4.5833111C6.3169322,8.7118778,6.4555593,8.850502,6.5969009,8.9913025
	c0.4941573,0.4930696,1.0176663,1.0149488,1.540638,1.536829c0.5180731-0.5169859,1.0361509-1.0269079,1.554225-1.536829
	c0.3772764-0.3712978,2.9730911-2.9774408,3.0301704-3.0366945C12.679534,5.9122038,10.775754,4.0165801,10.7523785,3.9932044z
	 M10.5077467,4.0683918V3.890625H9.7167711v0.4077196h0.5604792C10.3544436,4.2211504,10.431097,4.1444974,10.5077467,4.0683918z
	 M9.0894251,3.890625H8.2984495v0.4077196h0.7909756V3.890625z M7.6759973,3.890625H6.8850222v0.4077196h0.7909751V3.890625z
	 M5.8472419,8.9141054c-0.0043502,0.0244637-0.3827152,2.3441181-0.3827152,2.3441181s2.2968202-0.3848877,2.3392248-0.3919554
	C7.3759179,10.4395227,6.9725451,10.0366945,6.562108,9.627346C6.3528132,9.4185915,5.8733349,8.9402018,5.8472419,8.9141054z
	 M6.2473497,3.890625h-0.790431v0.4077196h0.790431V3.890625z M4.0385966,4.2983446h0.790431V3.890625h-0.790431V4.2983446z
	 M4.0353351,11.046875h0.790431v-0.4077196h-0.790431V11.046875z M2.624625,4.2983446h0.7909751V3.890625H2.624625V4.2983446z
	 M2.6170132,11.046875h0.7904346v-0.4077196H2.6170132V11.046875z M1.3422129,11.046875h0.6800733v-0.4093523H1.3422129V11.046875z
	 M1.9934758,3.890625H1.3139433v0.4077196h0.6795325V3.890625z M0.4077196,10.367342H0v0.679533h0.6795326v-0.4093523h-0.271813
	V10.367342z M0.4093487,4.2983446h0.2701839V3.890625H0v0.6795325h0.4093487V4.2983446z M0,9.7515316h0.4077196v-0.679533H0
	V9.7515316z M0.4093487,5.1859684H0v0.6795325h0.4093487V5.1859684z M0.4093487,6.4813118H0v0.6795325h0.4093487V6.4813118z
	 M0.4093487,7.7766557H0v0.6795325h0.4093487V7.7766557z"/>
</svg>
