<?xml version="1.0" encoding="utf-8"?>

<!--
 ~   Copyright 2017, WSO2 Inc. (http://www.wso2.com)
 ~
 ~   Licensed under the Apache License, Version 2.0 (the "License");
 ~   you may not use this file except in compliance with the License.
 ~   You may obtain a copy of the License at
 ~
 ~        http://www.apache.org/licenses/LICENSE-2.0
 ~
 ~   Unless required by applicable law or agreed to in writing, software
 ~   distributed under the License is distributed on an "AS IS" BASIS,
 ~   WITHOUT WARRANTIES OR CONDITIONS OF ANY KIND, either express or implied.
 ~   See the License for the specific language governing permissions and
 ~   limitations under the License.
-->

<svg version="1.1" id="proxy" xmlns="http://www.w3.org/2000/svg" xmlns:xlink="http://www.w3.org/1999/xlink" x="0px" y="0px"
	 viewBox="0 0 14 14" style="enable-background:new 0 0 14 14;" xml:space="preserve">
<path d="M3.8900146,9.8200073V8.9500122c0-0.1300049-0.0300293-0.25-0.0800171-0.3599854
	C3.7000122,8.3200073,3.4699707,8.1099854,3.1799927,8.039978C3.0999756,8.0100098,3.0200195,8,2.9299927,8
	C2.4099731,8,1.9799805,8.4299927,1.9799805,8.9500122v0.8699951H1.3499756H1.3300171V9.7700195V8.9500122
	c0-0.7800293,0.5100098-1.4400024,1.2399902-1.6099854c0.1099854-0.0300293,0.2299805-0.0400391,0.3599854-0.0400391
	c0.3400269,0,0.6500244,0.1000366,0.9000244,0.2700195C4.2600098,7.8699951,4.539978,8.3599854,4.539978,8.9099731v0.5300293
	v0.3800049H3.8900146z M4.6400146,10.1199951h0.5899658v1.539978v1.1100464v0.2999878v0.2999878H4.0999756H0.6400146
	l-0.0100098-3.25h0.1099854h0.7700195h1.289978H4.6400146z M3.1500244,12.0100098v-0.460022
	c0.0899658-0.0800171,0.1699829-0.2099609,0.1699829-0.3399658c0-0.2200317-0.1699829-0.3900146-0.3900146-0.3900146
	c-0.1400146,0-0.2700195,0.0800171-0.3200073,0.1900024C2.5599976,11.0700073,2.539978,11.1400146,2.539978,11.210022
	c0,0.1300049,0.0900269,0.2599487,0.1799927,0.3399658v0.0900269v0.8200073h0.4300537V12.0100098z M14,6.9699707
	c0.0100098,1.8600464-0.710022,3.6200562-2.0300293,4.9500122C10.6599731,13.25,8.9099731,13.9899902,7.039978,14
	C7.0300293,14,7.0100098,14,7,14c-0.2600098,0-0.5200195-0.0200195-0.7700195-0.0499878
	c-0.1300049-0.0100098-0.25-0.0300293-0.3800049-0.0499878v-0.5200195v-0.9299927
	c0.1400146,0.1699829,0.3000488,0.3200073,0.4500122,0.4699707c0.0100098,0.0100098,0.0200195,0.0200195,0.0300293,0.0300293
	c0.0999756,0.0999756,0.2099609,0.2000122,0.3200073,0.289978L6.6599731,13.25V9.789978
	c-0.0699463,0-0.1299438,0.0100098-0.1999512,0.0200195v0.0100098c-0.1600342,0.0100098-0.3200073,0.0200195-0.4800415,0.039978
	c-0.039978,0-0.0799561,0.0100098-0.1199951,0.0100098V9.5H5.2299805H5.1599731V9.2999878
	C5.3900146,9.25,5.6099854,9.2199707,5.8400269,9.1900024c0.2699585-0.039978,0.5499878-0.0700073,0.8199463-0.0800171V7.3400269
	H4.5200195C4.1099854,6.9299927,3.5499878,6.6799927,2.9299927,6.6799927c-0.6300049,0-1.1799927,0.25-1.5800171,0.6600342
	H0.6900024C0.7000122,7.5,0.710022,7.6599731,0.7399902,7.8099976H0.75c0.0200195,0.1300049,0.039978,0.2600098,0.0599976,0.3900146
	c0,0,0.0100098,0.0100098,0.0100098,0.0199585L0.8099976,8.2299805c-0.039978,0.1199951-0.0700073,0.2399902-0.0800171,0.3699951
	C0.710022,8.710022,0.7000122,8.8300171,0.7000122,8.9500122V9.5H0.6300049H0.4699707
	C0.4009399,9.3353271,0.3627319,9.1604004,0.3106079,8.9901123C0.3076172,8.9938354,0.3029785,8.9962769,0.2999878,9
	C0.25,8.8499756,0.210022,8.6900024,0.1699829,8.539978c0-0.0099487,0-0.0099487,0-0.0199585
	C0.1400146,8.3599854,0.1099854,8.210022,0.0800171,8.0499878C0.0599976,7.9199829,0.039978,7.789978,0.0300293,7.6599731
	C0.0100098,7.4500122,0,7.2399902,0,7.0300293C-0.0199585,3.1799927,3.0999756,0.0200195,6.960022,0h0.0700073
	c1.8599854,0.0100098,3.5999756,0.7399902,4.9199829,2.0499878C13.2600098,3.3599854,13.9899902,5.1099854,14,6.9699707z
	 M6.6400146,0.6900024L6.6599731,0.710022V0.6900024C6.6500244,0.6900024,6.6400146,0.6900024,6.6400146,0.6900024z
	 M4.4500122,3.8200073c0.7199707,0.2299805,1.4599609,0.3499756,2.2099609,0.3800049V0.8200073
	C5.6900024,1.6500244,4.9400024,2.6799927,4.4500122,3.8200073z M2.289978,2.789978
	c0.4800415,0.3200073,0.9900513,0.5900269,1.5200195,0.8000488c0.4299927-1.0200195,1.0499878-1.960022,1.8400269-2.7600098
	C4.3200073,1.1199951,3.1599731,1.8200073,2.289978,2.789978z M3.5700073,4.2299805
	C2.9799805,4,2.4000244,3.6900024,1.8599854,3.3300171C1.1799927,4.2800293,0.7600098,5.4199829,0.6900024,6.6599731h2.4400024
	c0-0.1199951,0.0100098-0.25,0.0200195-0.3699951C3.210022,5.5800171,3.3499756,4.8900146,3.5700073,4.2299805z
	 M6.6599731,6.6599731V4.8900146C5.8300171,4.8599854,5.0100098,4.710022,4.210022,4.460022
	C4.0100098,5.0700073,3.8800049,5.7000122,3.8300171,6.3400269C3.8200073,6.4500122,3.8099976,6.5499878,3.8099976,6.6599731
	H6.6599731z M10.4299927,4.2299805c0.2600098,0.7800293,0.4100342,1.6000366,0.4400024,2.4299927h2.4400024
	c-0.0700073-1.2399902-0.5-2.3799438-1.1799927-3.3299561C11.5900269,3.7000122,11.0200195,4,10.4299927,4.2299805z
	 M8.3499756,0.8300171C8.5100098,0.9799805,8.6500244,1.1400146,8.789978,1.3099976
	C9.3699951,2,9.8400269,2.7700195,10.1900024,3.5900269c0.5200195-0.210022,1.0299683-0.4700317,1.5100098-0.7900391
	C10.8300171,1.8200073,9.6699829,1.1199951,8.3499756,0.8300171z M7.3400269,0.710022l0.0199585-0.0200195
	c-0.0100098,0-0.0100098,0-0.0199585,0V0.710022z M7.3400269,4.2000122c0.75-0.0300293,1.4899902-0.1500244,2.2099609-0.3800049
	c-0.3200073-0.7399902-0.75-1.4400024-1.289978-2.0700073C7.9799805,1.4099731,7.6699829,1.0999756,7.3400269,0.8200073V4.2000122z
	 M7.3400269,6.6599731h2.8499756C10.1599731,5.9000244,10.0200195,5.1699829,9.789978,4.460022
	c-0.7999878,0.25-1.6199951,0.3999634-2.4499512,0.4299927V6.6599731z M7.3400269,9.1099854
	C8.1799927,9.1400146,9,9.289978,9.8099976,9.539978c0.1799927-0.5799561,0.3099976-1.1900024,0.3599854-1.8200073
	c0.0100098-0.1199951,0.0200195-0.25,0.0200195-0.3799438H7.3400269V9.1099854z M9.5700073,10.1799927
	C8.8499756,9.9500122,8.0900269,9.8300171,7.3400269,9.789978V13.25
	C8.3300171,12.4000244,9.0900269,11.3499756,9.5700073,10.1799927z M11.710022,11.210022
	c-0.4800415-0.3200073-0.9800415-0.5800171-1.4900513-0.7900391c-0.4199829,1.0100098-1.0199585,1.9299927-1.7799683,2.7300415
	c1.1500244-0.2600098,2.2000122-0.8500366,3.0499878-1.710022C11.5599976,11.3699951,11.6400146,11.2800293,11.710022,11.210022z
	 M13.3099976,7.3400269h-2.4299927c-0.0100098,0.1499634-0.0200195,0.289978-0.0300293,0.4400024
	c-0.0599976,0.6899414-0.1900024,1.3499756-0.3999634,1.9899902c0.5899658,0.2399902,1.1499634,0.539978,1.6900024,0.8999634
	C12.8400269,9.7000122,13.2399902,8.5499878,13.3099976,7.3400269z"/>
</svg>
