<?xml version="1.0" encoding="utf-8"?>

<!--
 ~   Copyright 2017, WSO2 Inc. (http://www.wso2.com)
 ~
 ~   Licensed under the Apache License, Version 2.0 (the "License");
 ~   you may not use this file except in compliance with the License.
 ~   You may obtain a copy of the License at
 ~
 ~        http://www.apache.org/licenses/LICENSE-2.0
 ~
 ~   Unless required by applicable law or agreed to in writing, software
 ~   distributed under the License is distributed on an "AS IS" BASIS,
 ~   WITHOUT WARRANTIES OR CONDITIONS OF ANY KIND, either express or implied.
 ~   See the License for the specific language governing permissions and
 ~   limitations under the License.
-->

<svg version="1.1" id="public" xmlns="http://www.w3.org/2000/svg" xmlns:xlink="http://www.w3.org/1999/xlink" x="0px" y="0px"
	 viewBox="0 0 14 14" style="enable-background:new 0 0 14 14;" xml:space="preserve">
<path d="M7,0C3.1340332,0,0,3.1339722,0,7c0,3.8659668,3.1340332,7,7,7c3.8660278,0,7-3.1340332,7-7C14,3.1339722,10.8660278,0,7,0z
	 M3.97052,11.5444336c0.0856934-0.2210693,0.1395264-0.4388428,0.1399536-0.6777954
	c0.0004272-0.2116699,0.1613159-0.3254395,0.3327026-0.4152222c0.2896118-0.1517334,0.3261719-0.203125,0.2896118-0.5252686
	C4.7053833,9.6841431,4.7356567,9.4627075,4.8745117,9.2582397c0.0360107-0.0530396,0.0601196-0.116272,0.0796509-0.1779785
	C5.0223389,8.8648682,4.9555664,8.671875,4.7541504,8.5699463C4.5299072,8.4564209,4.2941895,8.3655396,4.0637207,8.2641602
	c-0.102478-0.0450439-0.2041626-0.0917358-0.3063354-0.1375122C3.6627197,8.0842896,3.6173096,8.010376,3.5720825,7.9152222
	C3.5144043,7.7940674,3.4289551,7.6663818,3.3206787,7.5929565C3.0308838,7.3966675,2.7457275,7.1992798,2.484436,6.963501
	C2.2970581,6.7943726,2.0658569,6.7161865,1.8098145,6.8284302C1.6946411,6.8789062,1.6159058,6.8379517,1.5507812,6.7374878
	C1.3668823,6.4536133,1.2203369,6.1560059,1.28125,5.8070068C1.2977905,5.7124023,1.3687134,5.6155396,1.4398193,5.545166
	C1.5247192,5.4611206,1.632019,5.3959961,1.7377319,5.3374023c0.250061-0.1385498,0.3967896-0.3538818,0.5112915-0.6091309
	C2.434082,4.3157959,2.7788086,4.0795898,3.1971436,3.946167c0.102417-0.0325928,0.1630249-0.0820312,0.1849976-0.1830444
	c0.0178833-0.0820312,0.0322876-0.164856,0.0527344-0.2462158c0.0228271-0.0911255,0.0747681-0.0982666,0.1427612-0.0415649
	C3.59198,3.4873047,3.6056519,3.5001221,3.6195068,3.5126343c0.0941162,0.0853271,0.196228,0.1572876,0.3258057,0.0827026
	c0.1413574-0.0813599,0.2770996-0.1842041,0.2469482-0.3706055C4.1665649,3.0653687,4.1119995,2.909729,4.060791,2.7556152
	C3.9940186,2.5546875,4.0266113,2.4564209,4.2110596,2.3500366C4.2191162,2.3453369,4.2280273,2.3422241,4.236084,2.3375244
	c0.0870972-0.0507202,0.1965942-0.0824585,0.1953125-0.2126465c-0.0013428-0.131958-0.1210938-0.1365967-0.2021484-0.182312
	C4.1930542,1.9221191,4.156311,1.9025269,4.117981,1.8815308c0.1482544-0.1234741,0.6973877-0.2382202,0.9475708-0.1964111
	c-0.0386353,0.1153564-0.0773315,0.2288818-0.114502,0.3428955c-0.017395,0.0532227-0.0374756,0.1064453-0.0462646,0.1613159
	C4.887146,2.2995605,4.8570557,2.4200439,4.9607544,2.5029297c0.1056519,0.0844116,0.2169189,0.0288696,0.3141479-0.0256348
	c0.1177368-0.065979,0.2316895-0.1409302,0.3394775-0.22229c0.2547607-0.1923218,0.539978-0.2866821,0.857666-0.3016357
	C6.875,1.9343262,7.2105103,1.7747803,7.4677124,1.4567261c0.0877075-0.1085205,0.1882324-0.206665,0.3164062-0.3459473
	c0.5932617,0.0713501,1.2018433,0.2508545,1.7866211,0.5313721C9.4536743,1.725769,9.3496704,1.8151245,9.2321167,1.8798828
	C9.1107788,1.9466553,8.9758301,1.9884644,8.8475952,2.0429688c-0.2907104,0.1234131-0.3713989,0.3126221-0.246582,0.6043091
	c0.0389404,0.0908813,0.0094604,0.1300049-0.0508423,0.1992798C8.3944702,3.0252686,8.2055054,3.0524292,7.9846802,3.0505371
	C7.4602051,3.0460815,7.1051636,3.5285034,7.2479858,4.0315552c0.0440674,0.1552734,0.0708618,0.1842041,0.3464355,0.3618164
	c-0.225769,0.2410278-0.4472656,0.4776001-0.6688232,0.7141113C6.7183838,5.3287964,6.5830078,5.5819092,6.5630493,5.8913574
	c-0.0114136,0.177002-0.0304565,0.3539429-0.0558472,0.52948c-0.024231,0.1674194-0.0029297,0.3244629,0.0664062,0.4778442
	c0.1953735,0.4324341,0.5098877,0.7525635,0.9477539,0.9250488c0.1379395,0.0543213,0.3214722,0.0280151,0.4755249-0.0033569
	C8.1778564,7.7834473,8.348999,7.6993408,8.5253296,7.6383667C8.694397,7.5799561,8.7363281,7.5964355,8.8217773,7.7451172
	C8.826416,7.7532349,8.8290405,7.7628784,8.835083,7.7697144c0.3161011,0.3592529,0.3314209,0.8503418,0.543396,1.2577515
	c0.0587769,0.112915,0.0199585,0.3092041-0.0353394,0.4415894C9.241272,9.7128296,9.2283325,9.9387817,9.3178711,10.1862183
	c0.1157227,0.3198853,0.2068481,0.6486816,0.3178711,0.9703979c0.0709839,0.2059326,0.2293091,0.2789917,0.4336548,0.1954346
	c0.1189575-0.048645,0.2337036-0.1191406,0.3336792-0.2003174c0.3034668-0.2466431,0.5540161-0.5432129,0.7559814-0.8771362
	c0.1811523-0.2994385,0.3502197-0.6063232,0.5206299-0.9121094c0.0960083-0.1723022,0.131897-0.3608398,0.1001587-0.5551147
	c-0.0325928-0.1988525-0.0028076-0.3845215,0.1025391-0.5519409c0.1340942-0.2131348,0.2685547-0.4280396,0.4251099-0.6244507
	c0.1826782-0.229187,0.2120972-0.4575195,0.074646-0.7133789c-0.0283203-0.0527344-0.0536499-0.1115112-0.0603027-0.1697998
	c-0.0039673-0.0351562,0.0228882-0.1000977,0.0494385-0.1083984c0.2709351-0.0846558,0.3652344-0.2998657,0.4212646-0.546936
	c0.0089111-0.0393066,0.0197754-0.078186,0.0600586-0.1192017c0.0195312,0.1334229,0.0426636,0.2664795,0.0579834,0.4003906
	c0.3479004,3.0426025-1.7834473,5.90802-4.8081055,6.4638062c-1.3416748,0.246521-2.6204224,0.0578613-3.8355713-0.5614624
	C4.0198975,12.1500854,3.8688354,11.8067627,3.97052,11.5444336z M2.4069214,10.770752
	C1.5071411,9.6542358,1.0617676,8.3842773,1.079834,6.9493408c0.1190796,0.2289429,0.3425903,0.3952637,0.3241577,0.7029419
	C1.3619995,8.3533936,1.5657349,8.9820557,2.0496826,9.5019531c0.1581421,0.1699219,0.237793,0.3579712,0.2589722,0.5855713
	C2.3296509,10.3134766,2.3724365,10.5373535,2.4069214,10.770752z M11.1778564,4.7786255
	c-0.012085,0.1166992-0.0866699,0.175415-0.1921387,0.18927c-0.0719604,0.0094604-0.1473389-0.0024414-0.2207642-0.0094604
	c-0.203186-0.0192261-0.4071655-0.0645142-0.6088867-0.055603C9.9168091,4.9133911,9.7731934,4.822876,9.6958618,4.6051025
	C9.680542,4.5618896,9.6600342,4.5205078,9.6352539,4.4627075c0.1784668,0.0507202,0.3012085-0.0210571,0.4083862-0.1609497
	c0.076355,0.1360474,0.1852417,0.1726685,0.31427,0.1808472c0.1720581,0.0109253,0.3438721,0.0283813,0.5150757,0.0489502
	c0.0543823,0.0065308,0.1087646,0.0270996,0.1591797,0.0499878C11.1154175,4.6192627,11.1893311,4.6677856,11.1778564,4.7786255z
	 M9.6040649,4.3354492c-0.0115967,0.0046387-0.0231323,0.0093384-0.034729,0.0139771
	c-0.3792725-0.3538818-0.8052979-0.196228-1.2736816-0.1052246c0.147644-0.1611328,0.2608032-0.3058472,0.3980713-0.4221802
	C8.7377319,3.784729,8.8564453,3.7991333,8.921814,3.8302612C9.1268311,3.9278564,9.3267822,4.038208,9.5192871,4.1586304
	C9.5661011,4.1879272,9.5767822,4.2749634,9.6040649,4.3354492z"/>
</svg>
