<?xml version="1.0" encoding="utf-8"?>

<!--
 ~   Copyright 2017, WSO2 Inc. (http://www.wso2.com)
 ~
 ~   Licensed under the Apache License, Version 2.0 (the "License");
 ~   you may not use this file except in compliance with the License.
 ~   You may obtain a copy of the License at
 ~
 ~        http://www.apache.org/licenses/LICENSE-2.0
 ~
 ~   Unless required by applicable law or agreed to in writing, software
 ~   distributed under the License is distributed on an "AS IS" BASIS,
 ~   WITHOUT WARRANTIES OR CONDITIONS OF ANY KIND, either express or implied.
 ~   See the License for the specific language governing permissions and
 ~   limitations under the License.
-->

<svg version="1.1" id="ringing" xmlns="http://www.w3.org/2000/svg" xmlns:xlink="http://www.w3.org/1999/xlink" x="0px" y="0px"
	 viewBox="0 0 14 14" style="enable-background:new 0 0 14 14;" xml:space="preserve">
<path d="M1.3226318,4.5844116c0.173584-0.1895752,0.3171387-0.369812,0.4846802-0.524353
	C2.12323,3.7687378,2.4090576,3.7363892,2.7852783,3.9457397c0.4501343,0.2506104,0.8265991,0.5899658,1.1246948,1.0098877
	C3.9993896,5.081604,4.0699463,5.2258301,4.1237183,5.3710327C4.2600708,5.7386475,4.2132568,6.0948486,4.0045166,6.423645
	c-0.1036987,0.163269-0.2293701,0.312561-0.3670044,0.4975586C3.1668701,5.8292236,2.4100952,5.0631714,1.3226318,4.5844116z
	 M8.0452271,11.1558228c-0.0385742-0.0067139-0.1022339,0.0119629-0.1229248,0.0410156
	c-0.203186,0.2844849-0.4890137,0.3235474-0.7850342,0.2276611c-0.2950439-0.09552-0.5876465-0.2177124-0.8567505-0.371521
	C5.5650635,10.644104,4.9291382,10.1237793,4.317749,9.574646c-0.4145508-0.3723755-0.81604-0.7601318-1.088623-1.255249
	C3.0595703,8.0111694,2.9835815,7.6990356,3.2528687,7.3954468C3.277832,7.3673096,3.2787476,7.2906494,3.258728,7.2546387
	C3.1160889,6.9989014,2.9776001,6.7397461,2.8144531,6.4971313C2.3646851,5.8273926,1.7478027,5.3526611,1.0269165,4.9985962
	c-0.0166016,0.0203247-0.031189,0.0335693-0.0401611,0.0498657C0.6508179,5.6515503,0.40979,6.2888794,0.3060913,6.9730835
	C0.2955933,7.0422974,0.321106,7.1290283,0.3579712,7.190918c0.1373901,0.2304688,0.2814941,0.4574585,0.432251,0.6795044
	c1.0986328,1.6189575,2.4849854,2.9537354,4.0662842,4.0926514c1.1889038,0.8566284,2.4694214,1.5419312,3.8574829,2.0188599
	c0.0667725,0.0229492,0.156189,0.0250854,0.2209473,0.0002441C9.5420532,13.75,10.09198,13.4192505,10.5964966,13.0090942
	c0.1034546-0.0840454,0.1044922-0.1456299,0.0355225-0.2512207C10.019165,11.819458,9.1199341,11.3456421,8.0452271,11.1558228z
	 M8.192627,5.9013062c0.744751,0.7075806,0.9952393,1.5955811,0.8411255,2.6142578
	c0.2520142-0.0293579,0.482605-0.0562744,0.7191772-0.0838623c0.329895-2.4581299-1.8865356-4.4266968-4.1687622-3.9543457
	C5.56604,4.7089844,5.5476685,4.9440308,5.5279541,5.1958008C6.5464478,4.9863281,7.4463501,5.1922607,8.192627,5.9013062z
	 M10.0305176,9.9246216C9.9525757,9.8977661,9.869812,9.8811035,9.7878418,9.8709717
	C9.1239014,9.788269,8.708313,10.1605835,8.3380737,10.6744385c0.572937,0.1038208,1.086792,0.293457,1.5587769,0.5938721
	c0.4772949,0.3040771,0.8416138,0.7175293,1.1478271,1.1881104c0.2079468-0.187561,0.4613647-0.5526123,0.5477905-0.7731323
	c0.0949707-0.2420654,0.0756226-0.4713135-0.0817871-0.6796265C11.1263428,10.4957886,10.6338501,10.1328735,10.0305176,9.9246216z
	 M5.9385376,0.0132446C5.9205322,0.2414551,5.9024048,0.4709473,5.8840332,0.7039795
	c2.0463867-0.0546265,3.7984009,0.6030273,5.2108154,2.0665283c1.4161377,1.4673462,2.0062866,3.2492676,1.8789062,5.2827148
	c0.2402344-0.0281372,0.4657593-0.0545044,0.7000122-0.0819092C14.026001,3.460022,10.1917725-0.2505493,5.9385376,0.0132446z
	 M5.756897,2.300415C5.7390137,2.5297241,5.7210083,2.7606201,5.7020264,3.0042725
	c1.5429688-0.1187134,2.8759155,0.3106079,3.9765015,1.3662109c1.098938,1.0540161,1.5835571,2.3682861,1.5323486,3.8904419
	c0.2450562-0.0291138,0.4744263-0.0563354,0.7000122-0.0831299C12.065918,4.7802734,9.1306763,1.9812622,5.756897,2.300415z"/>
</svg>
