<?xml version="1.0" encoding="utf-8"?>

<!--
 ~   Copyright 2017, WSO2 Inc. (http://www.wso2.com)
 ~
 ~   Licensed under the Apache License, Version 2.0 (the "License");
 ~   you may not use this file except in compliance with the License.
 ~   You may obtain a copy of the License at
 ~
 ~        http://www.apache.org/licenses/LICENSE-2.0
 ~
 ~   Unless required by applicable law or agreed to in writing, software
 ~   distributed under the License is distributed on an "AS IS" BASIS,
 ~   WITHOUT WARRANTIES OR CONDITIONS OF ANY KIND, either express or implied.
 ~   See the License for the specific language governing permissions and
 ~   limitations under the License.
-->

<svg version="1.1" id="run" xmlns="http://www.w3.org/2000/svg" xmlns:xlink="http://www.w3.org/1999/xlink" x="0px" y="0px"
	 viewBox="0 0 14 14" style="enable-background:new 0 0 14 14;" xml:space="preserve">
<path id="path" d="M6.4,1.8c0.2,0,0.4,0.1,0.6,0.2c0,0,0,0,0.1,0.1l0,0l0,0c0,0,0.1,0,0.1,0.1l3.4,3.5l2.2-2.1
	c0.1-0.1,0.3-0.2,0.5-0.2c0.2,0,0.4,0.1,0.5,0.2c0.3,0.3,0.3,0.8,0,1.1L11,7.4c-0.3,0.3-0.7,0.3-1,0l0,0l-0.1,0
	C9.9,7.3,9.8,7.3,9.7,7.2L8.4,5.9l0,0l-1,1l3,3c0.4,0.4,0.4,0.9,0.1,1.2c-0.1,0.1-0.3,0.2-0.5,0.2l-0.1,0l0,0l-4.1,0
	c-0.4,0-0.8-0.3-0.8-0.8c0-0.4,0.4-0.8,0.8-0.8l2.3,0L6.3,8.1L1.4,13c-0.3,0.3-0.8,0.3-1.1,0c-0.3-0.3-0.3-0.8,0-1.1l7.1-7.1l0,0
	l-1-1.1L4.2,5.8C3.9,6.1,3.4,6,3.1,5.7S2.8,5,3.1,4.7l2.7-2.6l0,0c0,0,0,0,0,0l0,0l0,0C6,1.9,6.2,1.8,6.4,1.8z M10.1,0.8
	c0.8,0,1.5,0.7,1.5,1.5c0,0.8-0.7,1.5-1.5,1.5c-0.8,0-1.5-0.7-1.5-1.5C8.6,1.5,9.3,0.8,10.1,0.8z"/>
</svg>
