<?xml version="1.0" encoding="utf-8"?>

<!--
 ~   Copyright 2017, WSO2 Inc. (http://www.wso2.com)
 ~
 ~   Licensed under the Apache License, Version 2.0 (the "License");
 ~   you may not use this file except in compliance with the License.
 ~   You may obtain a copy of the License at
 ~
 ~        http://www.apache.org/licenses/LICENSE-2.0
 ~
 ~   Unless required by applicable law or agreed to in writing, software
 ~   distributed under the License is distributed on an "AS IS" BASIS,
 ~   WITHOUT WARRANTIES OR CONDITIONS OF ANY KIND, either express or implied.
 ~   See the License for the specific language governing permissions and
 ~   limitations under the License.
-->

<svg version="1.1" id="Service" xmlns="http://www.w3.org/2000/svg" xmlns:xlink="http://www.w3.org/1999/xlink" x="0px" y="0px"
	 viewBox="0 0 14 14" style="enable-background:new 0 0 14 14;" xml:space="preserve">
<path class="st0" d="M4.643157,10.6010475l0.870513,0.100028c0.0732727,0.2784424,0.1831999,0.5442629,0.3227892,0.7939272
	l-0.5493784,0.6913977l1.1251078,1.130702l0.6870914-0.5373449c0.262435,0.1539421,0.5428281,0.2712307,0.8369861,0.3507595
	l0.0994759,0.869482h1.5903139l0.1126957-0.8691883c0.3017015-0.0805588,0.58883-0.203146,0.8576307-0.3622036l0.7121172,0.5473909
	l1.1124487-1.1431408l-0.5657921-0.7044249c0.1392574-0.251689,0.2448797-0.5194597,0.315465-0.7984915l0.9102221-0.1087132
	l-0.0033121-1.5951052l-0.935358-0.1157417c-0.0747814-0.2568779-0.1784887-0.504076-0.3105345-0.7362232l0.590414-0.7500958
	l-1.1302242-1.1255131l-0.7421103,0.5858498c-0.240243-0.1381178-0.4961271-0.2462049-0.7621307-0.3227162L9.6748629,5.5551739
	L8.0797939,5.5585232L7.9672537,6.4807053c-0.2873864,0.074708-0.5615602,0.1856289-0.8200202,0.3313646l-0.734272-0.5748458
	L5.2904291,7.3704653l0.5682583,0.7171583C5.7121792,8.3414469,5.5976152,8.6116095,5.5216188,8.8949842L4.643157,9.0085173
	V10.6010475z M8.8563147,8.1164827c0.9164667,0,1.6594286,0.7429609,1.6594286,1.6594286
	c0,0.9164667-0.7429619,1.6594296-1.6594286,1.6594296c-0.9164677,0-1.6594296-0.7429609-1.6594296-1.6594296
	S7.939846,8.1164827,8.8563147,8.1164827z M0.6315489,3.8518512L1.2960693,3.92821
	c0.0559349,0.2125552,0.1398497,0.4154723,0.2464075,0.6060593L1.1230994,5.0620575L1.98197,5.9251986L2.5064735,5.515008
	C2.7068071,5.6325226,2.9208508,5.7220554,3.1454,5.7827654l0.0759373,0.6637344h1.2139931l0.0860262-0.6635094
	C4.751667,5.7214937,4.9708509,5.6279154,5.1760454,5.5064945l0.5436068,0.417861l0.849206-0.8726358L6.136951,4.5139847
	c0.1063051-0.192131,0.1869335-0.3965378,0.2408166-0.6095421l0.6948328-0.0829878L7.0700727,2.6038034L6.3560514,2.5154502
	c-0.057086-0.1960917-0.1362534-0.3847952-0.237052-0.5620067L6.5697007,1.380844L5.7069254,0.5216635L5.1404228,0.9688833
	C4.9570293,0.863448,4.7616959,0.780937,4.5586376,0.7225311l-0.08605-0.7225323l-1.2176228,0.002555L3.1690559,0.706518
	C2.9496737,0.7635468,2.7403784,0.8482206,2.5430784,0.9594715L1.9825593,0.5206526l-0.8569031,0.865079l0.4337894,0.5474558
	c-0.1118393,0.1937598-0.1992941,0.3999928-0.257308,0.6163119L0.6315489,2.6361663V3.8518512z M3.8477345,1.9552172
	c0.6996012,0,1.2667532,0.5671519,1.2667532,1.2667531c0,0.6996021-0.567152,1.2667544-1.2667532,1.2667544
	c-0.6996021,0-1.2667532-0.5671523-1.2667532-1.2667544C2.5809813,2.5223691,3.1481323,1.9552172,3.8477345,1.9552172z
	 M8.2904749,3.5096138l0.5238924,0.0601988c0.044096,0.167573,0.1102533,0.327549,0.1942616,0.4778025L8.6780014,4.4637127
	l0.6771135,0.680479l0.4135056-0.3233843c0.157939,0.0926456,0.326685,0.1632309,0.5037155,0.2110939l0.0598669,0.5232725h0.9570837
	l0.0678215-0.5230951c0.181571-0.0484819,0.3543711-0.1222582,0.5161409-0.2179823L12.301816,5.143528l0.6694946-0.6879654
	L12.630805,4.0316238c0.0838089-0.1514714,0.1473732-0.3126204,0.1898537-0.4805481l0.5477905-0.0654259L13.366456,2.5256813
	l-0.5629177-0.0696554c-0.0450048-0.1545935-0.107419-0.3033638-0.1868868-0.4430733l0.3553228-0.4514245l-0.680191-0.6773568
	l-0.4466181,0.3525773c-0.1445837-0.0831232-0.2985792-0.1481714-0.4586658-0.1942177l-0.0678396-0.5696297l-0.9599466,0.0020161
	l-0.067728,0.5549889c-0.1729555,0.044961-0.3379593,0.1117144-0.4935055,0.1994228L9.3555794,0.883374L8.6800165,1.5653819
	L9.022006,1.9969825C8.933835,2.1497381,8.8648872,2.3123291,8.8191509,2.4828699l-0.528676,0.068326V3.5096138z
	 M10.8260403,2.0143507c0.551549,0,0.9986782,0.4471312,0.9986782,0.9986792c0,0.551549-0.4471292,0.9986804-0.9986782,0.9986804
	S9.8273611,3.5645788,9.8273611,3.0130298C9.8273611,2.4614818,10.2744904,2.0143507,10.8260403,2.0143507z"/>
</svg>
