<?xml version="1.0" encoding="utf-8"?>

<!--
 ~   Copyright 2017, WSO2 Inc. (http://www.wso2.com)
 ~
 ~   Licensed under the Apache License, Version 2.0 (the "License");
 ~   you may not use this file except in compliance with the License.
 ~   You may obtain a copy of the License at
 ~
 ~        http://www.apache.org/licenses/LICENSE-2.0
 ~
 ~   Unless required by applicable law or agreed to in writing, software
 ~   distributed under the License is distributed on an "AS IS" BASIS,
 ~   WITHOUT WARRANTIES OR CONDITIONS OF ANY KIND, either express or implied.
 ~   See the License for the specific language governing permissions and
 ~   limitations under the License.
-->

<svg version="1.1" id="skype" xmlns="http://www.w3.org/2000/svg" xmlns:xlink="http://www.w3.org/1999/xlink" x="0px" y="0px"
	 viewBox="0 0 14 14" style="enable-background:new 0 0 14 14;" xml:space="preserve">
<path d="M13.4,8c0.1-0.3,0.1-0.7,0.1-1c0-3.6-2.9-6.5-6.5-6.5c-0.3,0-0.7,0-1,0.1C5.4,0.2,4.7,0,3.9,0C1.8,0,0,1.8,0,3.9
	C0,4.7,0.2,5.4,0.6,6C0.5,6.3,0.5,6.7,0.5,7c0,3.6,2.9,6.5,6.5,6.5c0.3,0,0.7,0,1-0.1c0.6,0.4,1.3,0.6,2.1,0.6
	c2.2,0,3.9-1.8,3.9-3.9C14,9.3,13.8,8.6,13.4,8z M10.1,10c-0.3,0.4-0.7,0.7-1.2,0.9c-0.5,0.2-1.2,0.3-1.9,0.3
	c-0.9,0-1.6-0.2-2.1-0.5c-0.4-0.2-0.7-0.5-1-0.9C3.6,9.5,3.5,9.2,3.5,8.8c0-0.2,0.1-0.4,0.2-0.5c0.2-0.1,0.4-0.2,0.6-0.2
	c0.2,0,0.4,0.1,0.5,0.2C5,8.3,5.1,8.5,5.2,8.7C5.3,9,5.4,9.2,5.5,9.4C5.6,9.5,5.8,9.7,6,9.8C6.3,9.9,6.6,10,7,10
	c0.5,0,0.9-0.1,1.3-0.3c0.3-0.2,0.5-0.5,0.5-0.8c0-0.3-0.1-0.5-0.3-0.6C8.3,8,8,7.9,7.8,7.8C7.5,7.7,7.1,7.6,6.6,7.5
	C6,7.4,5.5,7.2,5.1,7C4.6,6.8,4.3,6.6,4,6.3C3.8,5.9,3.7,5.6,3.7,5.1c0-0.5,0.1-0.9,0.4-1.2c0.3-0.4,0.6-0.6,1.2-0.8
	C5.7,2.9,6.3,2.8,7,2.8c0.5,0,1,0.1,1.4,0.2c0.4,0.1,0.7,0.3,1,0.5c0.3,0.2,0.5,0.4,0.6,0.7c0.1,0.2,0.2,0.5,0.2,0.7
	c0,0.2-0.1,0.4-0.2,0.5C9.7,5.5,9.5,5.6,9.3,5.6c-0.2,0-0.4,0-0.5-0.1C8.7,5.3,8.6,5.2,8.5,5C8.3,4.7,8.1,4.4,7.9,4.3
	C7.7,4.1,7.3,4,6.9,4C6.4,4,6,4.1,5.8,4.3C5.5,4.5,5.4,4.7,5.4,4.9c0,0.2,0,0.3,0.1,0.4c0.1,0.1,0.2,0.2,0.4,0.3
	C6,5.7,6.2,5.8,6.4,5.8c0.2,0,0.5,0.1,0.8,0.2c0.5,0.1,0.9,0.2,1.3,0.4c0.4,0.1,0.7,0.3,1,0.5c0.3,0.2,0.5,0.4,0.7,0.7
	c0.2,0.3,0.2,0.6,0.2,1C10.5,9.1,10.4,9.6,10.1,10z"/>
</svg>
