<?xml version="1.0" encoding="utf-8"?>

<!--
 ~   Copyright (c) WSO2 Inc. (http://wso2.com) All Rights Reserved.
 ~
 ~   Licensed under the Apache License, Version 2.0 (the "License");
 ~   you may not use this file except in compliance with the License.
 ~   You may obtain a copy of the License at
 ~
 ~        http://www.apache.org/licenses/LICENSE-2.0
 ~
 ~   Unless required by applicable law or agreed to in writing, software
 ~   distributed under the License is distributed on an "AS IS" BASIS,
 ~   WITHOUT WARRANTIES OR CONDITIONS OF ANY KIND, either express or implied.
 ~   See the License for the specific language governing permissions and
 ~   limitations under the License.
-->

<svg version="1.1" id="type-converter" xmlns="http://www.w3.org/2000/svg" xmlns:xlink="http://www.w3.org/1999/xlink" x="0px"
	 y="0px" viewBox="0 0 14 14" style="enable-background:new 0 0 14 14;" xml:space="preserve">
<path d="M13.9979248,7.0100098v5.460022c0,0.4599609-0.3599854,0.8199463-0.8200073,0.8199463H8.6079102
	c-0.4499512,0-0.8199463-0.3599854-0.8199463-0.8199463v-0.1600342l0.2999878-0.2299805l0.75-0.5700073v0.7299805h4.1099854v-5
	H8.8379517v0.7399902l-0.75-0.5699463L7.7879639,7.1799927V7.0100098c0-0.4500122,0.3699951-0.8200073,0.8199463-0.8200073
	h4.5700073C13.6379395,6.1900024,13.9979248,6.5599976,13.9979248,7.0100098z M2.3079224,4.039978
	c0.2399902-0.0599976,0.460022-0.1099854,0.7000122-0.1399536c-0.0299683-0.1100464-0.039978-0.2300415-0.039978-0.3500366
	c0-0.9899902,0.7999878-1.789978,1.789978-1.789978c0.9799805,0,1.7800293,0.7999878,1.7800293,1.789978
	c0,0.2000122-0.0300293,0.3900146-0.1000366,0.5599976C6.4279175,4.1799927,6.3979492,4.2399902,6.3679199,4.289978
	C6.0879517,4.9100342,5.4779663,5.3400269,4.7579346,5.3400269c-0.3099976,0-0.6099854-0.0800171-0.8599854-0.2300415
	C3.8079224,5.1400146,3.7279663,5.1799927,3.6279297,5.210022c-0.25,0.1099854-0.5100098,0.2600098-0.7799683,0.4500122
	c0.5099487,0.4499512,1.1799927,0.7299805,1.9099731,0.7299805c0.2999878,0,0.5999756-0.0499878,0.8800049-0.1400146
	c0.0900269-0.0299683,0.1699829-0.0599976,0.25-0.0899658c0.0100098-0.0100098,0.0300293-0.0100098,0.039978-0.0200195V6.1199951
	L5.947937,6.1300049c0.0100098,0,0.0200195-0.0100098,0.0300293-0.0200195c0.0899658-0.039978,0.1699829-0.0799561,0.25-0.1300049
	c0.8199463-0.5,1.3699951-1.3999634,1.3699951-2.4299927c0-1.5700073-1.2700195-2.8399658-2.8400269-2.8399658
	S1.907959,1.9799805,1.907959,3.5499878c0,0.2000122,0.0199585,0.3900146,0.0700073,0.5800171
	C2.0879517,4.1099854,2.197937,4.0700073,2.3079224,4.039978z M7.7879639,11.6799927l1.0499878-0.7999878l1.4799805-1.1400146
	L8.8379517,8.6099854L7.7879639,7.7999878L6.1379395,6.539978v2.1300049L6.0179443,8.6600342
	C5.7779541,8.6300049,5.5479126,8.6000366,5.3179321,8.5800171c-0.5299683-0.0599976-1.0200195-0.1099854-1.5100098-0.210022
	C3.2479248,8.25,2.7279663,8.0599976,2.2979126,7.8099976c-0.4400024-0.25-0.7099609-0.6099854-0.75-1.0299683
	c-0.039978-0.4200439,0.1600342-0.8500366,0.5700073-1.1900024c0.1300049-0.1100464,0.2600098-0.210022,0.3900146-0.3000488
	C2.8179321,5.0599976,3.1179199,4.8900146,3.4379272,4.75c0.1199951-0.0499878,0.2300415-0.0899658,0.3500366-0.1300049
	c0.0099487,0,0.0499878-0.0199585,0.0899658-0.0299683c0.2299805-0.0800171,0.4299927-0.1500244,0.6199951-0.210022
	c-0.2000122-0.0299683-0.4500122-0.039978-0.6499634-0.039978c-0.2300415,0-0.460022,0.0100098-0.6799927,0.039978
	C2.9279175,4.4100342,2.6779175,4.460022,2.4379272,4.5200195C2.3279419,4.5499878,2.2179565,4.5800171,2.1179199,4.6199951
	C1.5679321,4.7999878,1.157959,5.0599976,0.6279297,5.539978C0.0779419,6.039978-0.1120605,6.710022,0.0679321,7.5
	c0.2999878,1.210022,1.210022,1.8699951,2.0700073,2.3699951c1.1900024,0.6900024,2.4799805,1.0800171,3.9299927,1.1900024
	l0.1000366,0.0100098v1.8499756L7.7879639,11.6799927z"/>
</svg>
