<?xml version="1.0" encoding="utf-8"?>

<!--
 ~   Copyright 2017, WSO2 Inc. (http://www.wso2.com)
 ~
 ~   Licensed under the Apache License, Version 2.0 (the "License");
 ~   you may not use this file except in compliance with the License.
 ~   You may obtain a copy of the License at
 ~
 ~        http://www.apache.org/licenses/LICENSE-2.0
 ~
 ~   Unless required by applicable law or agreed to in writing, software
 ~   distributed under the License is distributed on an "AS IS" BASIS,
 ~   WITHOUT WARRANTIES OR CONDITIONS OF ANY KIND, either express or implied.
 ~   See the License for the specific language governing permissions and
 ~   limitations under the License.
-->

<svg version="1.1" id="typeof" xmlns="http://www.w3.org/2000/svg" xmlns:xlink="http://www.w3.org/1999/xlink" x="0px" y="0px"
	 viewBox="0 0 14 14" style="enable-background:new 0 0 14 14;" xml:space="preserve">
<path d="M4.3283415,3.6974924h5.3424969l0.0098381,2.2271974H9.4142361C9.3273363,5.2585893,9.0772915,4.8076901,8.6657438,4.572813
	C8.434556,4.442872,8.0885935,4.3723679,7.6286764,4.3600707v4.8643785c0,0.3402243,0.0590267,0.5656738,0.1779003,0.6771688
	c0.1188736,0.1106749,0.3664579,0.1664219,0.7419338,0.1664219v0.2344675H5.4736252v-0.2344675
	c0.3607187,0,0.6001053-0.055747,0.7189779-0.1688814c0.1188736-0.1131353,0.1779003-0.3377647,0.1779003-0.6747093V4.3600707
	C5.9196043,4.3723679,5.5744619,4.442872,5.3342562,4.572813C4.8915558,4.813839,4.6423311,5.2643275,4.5849438,5.9246898H4.3193235
	L4.3283415,3.6974924z M0,6.6030273c1.0649414,0,1.2148438-0.5849609,1.2148438-1.1103516
	c0-0.4199219-0.0600586-0.8398438-0.1196289-1.2597656C1.0351562,3.8129883,0.9750977,3.4077148,0.9750977,2.987793
	c0-1.3798828,0.8999023-1.9648438,2.1748047-1.9648438h0.3149414v0.824707H3.1948242
	c-0.8847656,0-1.1850586,0.4799805-1.1850586,1.2895508c0,0.3457031,0.0454102,0.7050781,0.1049805,1.0654297
	c0.0600586,0.375,0.1049805,0.7353516,0.1049805,1.1396484c0.0151367,0.9599609-0.4047852,1.4404297-1.0795898,1.6201172v0.0302734
	c0.6748047,0.1650391,1.0947266,0.6748047,1.0795898,1.6347656c0,0.4052734-0.0449219,0.7802734-0.1049805,1.1396484
	c-0.0595703,0.375-0.1049805,0.7207031-0.1049805,1.0800781c0,0.8398438,0.3452148,1.3046875,1.1850586,1.3046875h0.2700195
	v0.8251953H3.1499023c-1.2451172,0-2.1748047-0.5400391-2.1748047-2.0546875c0-0.4052734,0.0600586-0.8251953,0.1201172-1.2294922
	c0.0595703-0.4052734,0.1196289-0.8105469,0.1196289-1.2158203c0-0.4648438-0.1499023-1.109375-1.2148438-1.109375V6.6030273z
	 M14,7.3679199c-1.0649414,0-1.2148438,0.6445312-1.2148438,1.109375c0,0.4042969,0.0600586,0.8105469,0.1201172,1.2148438
	c0.0595703,0.4052734,0.1196289,0.8251953,0.1196289,1.2304688c0,1.5146484-0.9448242,2.0546875-2.1748047,2.0546875h-0.3149414
	v-0.8251953h0.2548828c0.8398438-0.0146484,1.2001953-0.4648438,1.2001953-1.3056641
	c0-0.359375-0.0600586-0.7041016-0.1049805-1.0791016c-0.0600586-0.3603516-0.1201172-0.7353516-0.1201172-1.1396484
	c0-0.9609375,0.4199219-1.4707031,1.0800781-1.6347656v-0.03125c-0.6601562-0.1796875-1.0800781-0.6591797-1.0800781-1.6191406
	c0-0.4052734,0.0600586-0.765625,0.1201172-1.140625c0.0449219-0.359375,0.1049805-0.71875,0.1049805-1.0644531
	c0-0.8100586-0.3149414-1.2749023-1.1850586-1.2900391h-0.2700195v-0.824707h0.2998047
	c1.2749023,0,2.1899414,0.5849609,2.1899414,1.9648438c0,0.4194336-0.0600586,0.824707-0.1196289,1.2446289
	c-0.0600586,0.4208984-0.1201172,0.8408203-0.1201172,1.2607422c0,0.5244141,0.1499023,1.109375,1.2148438,1.109375V7.3679199z"/>
</svg>
