<?xml version="1.0" encoding="utf-8"?>

<!--
 ~   Copyright 2017, WSO2 Inc. (http://www.wso2.com)
 ~
 ~   Licensed under the Apache License, Version 2.0 (the "License");
 ~   you may not use this file except in compliance with the License.
 ~   You may obtain a copy of the License at
 ~
 ~        http://www.apache.org/licenses/LICENSE-2.0
 ~
 ~   Unless required by applicable law or agreed to in writing, software
 ~   distributed under the License is distributed on an "AS IS" BASIS,
 ~   WITHOUT WARRANTIES OR CONDITIONS OF ANY KIND, either express or implied.
 ~   See the License for the specific language governing permissions and
 ~   limitations under the License.
-->

<svg version="1.1" id="variable" xmlns="http://www.w3.org/2000/svg" xmlns:xlink="http://www.w3.org/1999/xlink" x="0px" y="0px"
	 viewBox="0 0 14 14" style="enable-background:new 0 0 14 14;" xml:space="preserve">
<path d="M14,7.3928566V6.5892859h-0.1071434c-0.75,0-0.8571424-0.375-0.8571424-0.7678571
	c0-0.3214293,0.0535707-0.6428571,0.1071424-0.9642854V4.8214288C13.1785717,4.5,13.2321424,4.1785717,13.2321424,3.8571424
	c0-1.0357141-0.6607141-1.6249995-1.8214273-1.6249995h-0.3392868V3.071429h0.3214293
	c0.5714273,0.0178566,0.8214283,0.2857139,0.8214283,0.9107139c0,0.1964288-0.0178576,0.4107141-0.0535707,0.6428571
	L12.125,4.8214288c-0.0357141,0.2857141-0.0892868,0.5714283-0.0892868,0.875c0,0.6428571,0.2321434,1.0714283,0.6785717,1.2857137
	C12.375,7.1428571,12.0357132,7.5000005,12.0357132,8.2678576c0,0.3214283,0.0535727,0.6071424,0.1071444,0.9107141
	c0,0.0714283,0.0178576,0.1428576,0.0178576,0.1964283c0.0357132,0.2142849,0.0535707,0.4285707,0.0535707,0.625001
	c0,0.6249981-0.250001,0.9107122-0.8392859,0.9285698h-0.3035717v0.8392868h0.3571424
	c1.1607151,0,1.8035717-0.6071434,1.8035717-1.6964283c0-0.3392868-0.0535707-0.6964293-0.0892859-0.9821434
	c-0.0535717-0.3035717-0.1071424-0.625-0.1071424-0.9285717c0-0.3392854,0.0892859-0.7678576,0.8571424-0.7678576H14z
	 M7.4464288,10.4107141l2.4464278-6.8214283H8.75L7.6071429,6.9285717C7.375,7.5892854,7.1250005,8.3392859,6.9464283,9.0535707
	c-0.1607137-0.6428566-0.3749995-1.3392849-0.625-2.124999L5.25,3.5892861H4.125l2.2321424,6.8214283H7.4464288z
	 M2.9285712,11.7678576v-0.8392868H2.6071429c-0.571429,0-0.8214287-0.2857141-0.8214287-0.9285698
	c0-0.2678585,0.0357143-0.5178576,0.0714285-0.8214293c0.0714284-0.3392868,0.089286-0.625001,0.089286-0.9107141
	c0.0178567-0.7678571-0.3214287-1.1250005-0.6785716-1.2857151c0.4642861-0.2142854,0.6964283-0.6428566,0.6785716-1.2857137
	c0-0.3392859-0.0357143-0.625-0.089286-0.8928576c-0.053571-0.3392854-0.0714285-0.5892854-0.0714285-0.8214283
	c0-0.6428576,0.2499996-0.9107139,0.8214287-0.9107139h0.3214283V2.2321429H2.5714285
	c-1.1428568,0-1.8035712,0.5892854-1.8035712,1.6249995c0,0.3392859,0.0535713,0.6428576,0.0892856,0.9642863v0.0357146
	c0.0535714,0.3214283,0.1071427,0.6428561,0.1071427,0.9642854c0,0.3928571-0.1071427,0.7678571-0.8571424,0.7678571H0v0.8035707
	h0.1071432c0.7678568,0,0.8571424,0.4285722,0.8571424,0.7678576c0,0.3035717-0.0535713,0.625-0.1071427,0.9285717
	C0.8214286,9.4464283,0.7678573,9.75,0.7678573,10.0714293c0,1.1071424,0.6249998,1.6964283,1.8035712,1.6964283H2.9285712z"/>
</svg>
