<?xml version="1.0" encoding="utf-8"?>

<!--
 ~   Copyright 2017, WSO2 Inc. (http://www.wso2.com)
 ~
 ~   Licensed under the Apache License, Version 2.0 (the "License");
 ~   you may not use this file except in compliance with the License.
 ~   You may obtain a copy of the License at
 ~
 ~        http://www.apache.org/licenses/LICENSE-2.0
 ~
 ~   Unless required by applicable law or agreed to in writing, software
 ~   distributed under the License is distributed on an "AS IS" BASIS,
 ~   WITHOUT WARRANTIES OR CONDITIONS OF ANY KIND, either express or implied.
 ~   See the License for the specific language governing permissions and
 ~   limitations under the License.
-->

<svg version="1.1" id="wadl" xmlns="http://www.w3.org/2000/svg" xmlns:xlink="http://www.w3.org/1999/xlink" x="0px" y="0px"
	 viewBox="0 0 14 14" style="enable-background:new 0 0 14 14;" xml:space="preserve">
<path d="M12.0700073,5.2000122V2.9699707L8.9899902,0H1.9299927v5.2000122H0.9500122V9.5h0.8999634h0.0800171V14h10.1400146V9.5
	h0.9799805V5.2000122H12.0700073z M2.6799927,0.75h6.0800171v2.5599976h2.5599976v1.8900146H2.6799927V0.75z M9.6199951,7.4299927
	c0,0.1900024-0.0200195,0.3500366-0.0700073,0.4899902C9.5,8.0800171,9.4199829,8.2199707,9.3099976,8.3200073
	C9.2299805,8.4000244,9.1199951,8.460022,8.9799805,8.5C8.8800049,8.539978,8.75,8.5499878,8.5800171,8.5499878H7.710022v-2.289978
	h0.8399658c0.1900024,0,0.3400269,0.0200195,0.4400024,0.0499878c0.1300049,0.039978,0.25,0.1099854,0.3400269,0.210022
	C9.4299927,6.6199951,9.5,6.7399902,9.5499878,6.8900146C9.5999756,7.0300293,9.6199951,7.210022,9.6199951,7.4299927z
	 M7.460022,8.5499878h-0.5L6.7600098,8.0300293H5.8400269L5.6500244,8.5499878H5.1599731l0.9000244-2.289978H6.539978
	L7.460022,8.5499878z M2.7999878,6.2600098l0.3500366,1.5700073l0.4199829-1.5700073h0.5499878l0.4000244,1.5999756
	l0.3499756-1.5999756h0.4700317l-0.5599976,2.289978H4.289978L3.8300171,6.8400269L3.3800049,8.5499878h-0.5L2.6799927,7.7199707
	L2.3300171,6.2600098H2.7999878z M11.3200073,13.25H2.6799927V9.5h8.6400146V13.25z M11.6400146,8.5499878h-1.6099854V6.2800293
	h0.4599609v1.8899536h1.1500244V8.5499878z M10.7399902,11.710022l-1.5,0.7999878v-0.4500122l1-0.5l-1-0.4500122V10.710022
	l1.5,0.6999512V11.710022z M8.539978,12.6099854H8.1400146l0.5999756-2.3999634h0.4000244L8.539978,12.6099854z M9.0999756,7
	c0.0300293,0.0999756,0.0500488,0.2299805,0.0500488,0.4099731c0,0.1700439-0.0200195,0.3200073-0.0500488,0.4200439
	C9.0700073,7.9299927,9.0300293,8,8.9799805,8.0499878C8.9299927,8.0900269,8.8699951,8.1199951,8.789978,8.1400146
	C8.7399902,8.1599731,8.6400146,8.1699829,8.5100098,8.1699829H8.1699829V6.6500244h0.210022
	c0.1799927,0,0.3099976,0.0099487,0.3699951,0.0199585c0.0900269,0.0200195,0.1599731,0.0599976,0.2199707,0.1100464
	C9.0300293,6.8300171,9.0700073,6.9099731,9.0999756,7z M7.9400024,12.5100098l-1.5-0.7999878v-0.3000488l1.5-0.6999512v0.3999634
	l-1,0.4500122l1,0.5V12.5100098z M5.9799805,7.6500244L6.289978,6.7999878l0.3200073,0.8500366H5.9799805z"/>
</svg>
