<?xml version="1.0" encoding="utf-8"?>

<!--
 ~   Copyright 2017, WSO2 Inc. (http://www.wso2.com)
 ~
 ~   Licensed under the Apache License, Version 2.0 (the "License");
 ~   you may not use this file except in compliance with the License.
 ~   You may obtain a copy of the License at
 ~
 ~        http://www.apache.org/licenses/LICENSE-2.0
 ~
 ~   Unless required by applicable law or agreed to in writing, software
 ~   distributed under the License is distributed on an "AS IS" BASIS,
 ~   WITHOUT WARRANTIES OR CONDITIONS OF ANY KIND, either express or implied.
 ~   See the License for the specific language governing permissions and
 ~   limitations under the License.
-->

<svg version="1.1" id="war" xmlns="http://www.w3.org/2000/svg" xmlns:xlink="http://www.w3.org/1999/xlink" x="0px" y="0px"
	 viewBox="0 0 14 14" style="enable-background:new 0 0 14 14;" xml:space="preserve">
<path d="M9,0H1.9000244v14h10.1999512V3L9,0z M11.2999878,13.2999878H2.7000122v-12.5h2.1837769v0.6353149h-0.463562v0.472229
	h0.463562v0.5289307h-0.463562v0.472229h0.463562v0.5289307h-0.463562v0.472229h0.463562v0.5289917h-0.463562v0.472229h0.463562
	v0.5289307h-0.463562v0.472229h0.463562v0.5289307h-0.463562v0.472229h0.463562v0.4883423
	C4.2830811,7.5010986,3.8166504,7.9996948,3.8166504,8.62854c0,0.6998901,0.5673828,1.2672729,1.2672729,1.2672729
	S6.3511353,9.3284302,6.3511353,8.62854c0-0.5934448-0.4165039-1.0689087-0.9673462-1.206665V6.4193115h0.4615479v-0.472229
	H5.3837891V5.4180908h0.4615479v-0.472229H5.3837891V4.4169312h0.4615479v-0.472229H5.3837891V3.4157715h0.4615479v-0.472229
	H5.3837891V2.4145508h0.4615479v-0.472168H5.3837891V1.4133911h0.4615479v-0.472229H5.3837891V0.7999878h3.4161987v2.5h2.5
	V13.2999878z M5.0839233,7.8933105c0.4060669,0,0.7352295,0.3291626,0.7352295,0.7352295S5.4899902,9.3638306,5.0839233,9.3638306
	S4.3486328,9.0346069,4.3486328,8.62854S4.6778564,7.8933105,5.0839233,7.8933105z M7.1259766,10.3554688L6.2592773,12.90625
	h0.5092773l0.2329102-0.7226562h0.8588867L8.1044922,12.90625h0.5302734l-0.8789062-2.5507812H7.1259766z M7.081543,11.8320312
	l0.2089844-0.6289062c0.0478516-0.1513672,0.0883789-0.3291016,0.128418-0.4765625h0.0078125
	c0.0400391,0.1474609,0.0844727,0.3212891,0.1367188,0.4765625l0.2124023,0.6289062H7.081543z M6.3491211,10.3554688
	L5.6225586,12.90625H5.0927734l-0.2807617-1.1992188c-0.0683594-0.2919922-0.1162109-0.5341797-0.1484375-0.8105469H4.6552734
	c-0.0478516,0.2724609-0.1000977,0.5185547-0.1801758,0.8105469L4.1616211,12.90625H3.6279297l-0.6621094-2.5507812h0.5258789
	l0.2568359,1.1582031c0.0683594,0.3105469,0.1323242,0.6357422,0.1767578,0.8896484h0.0078125
	c0.0439453-0.2685547,0.1206055-0.5712891,0.1967773-0.8935547l0.2929688-1.1542969h0.5175781l0.269043,1.1738281
	c0.0678711,0.3027344,0.1240234,0.5859375,0.1645508,0.8623047h0.0078125
	c0.0483398-0.2802734,0.1123047-0.5712891,0.1845703-0.8818359l0.2807617-1.1542969H6.3491211z M9.5029297,11.8583984h0.2490234
	c0.28125,0.0068359,0.4091797,0.1132812,0.4853516,0.4462891c0.0761719,0.3173828,0.140625,0.5253906,0.1806641,0.6015625h0.5097656
	c-0.0566406-0.0986328-0.1289062-0.3935547-0.2128906-0.7109375c-0.0683594-0.2460938-0.1845703-0.4238281-0.3769531-0.4921875
	v-0.0117188c0.2529297-0.0869141,0.4892578-0.3105469,0.4892578-0.6396484c0-0.2158203-0.0839844-0.3935547-0.2324219-0.5107422
	c-0.1806641-0.1435547-0.4453125-0.2041016-0.8349609-0.2041016c-0.2851562,0-0.5615234,0.0224609-0.7460938,0.0527344V12.90625
	h0.4892578V11.8583984z M9.5029297,10.7109375c0.0478516-0.0107422,0.1484375-0.0224609,0.3046875-0.0224609
	c0.3212891,0,0.5302734,0.1289062,0.5302734,0.4091797c0,0.2529297-0.2089844,0.4199219-0.5419922,0.4199219H9.5029297V10.7109375z"
	/>
</svg>
