<?xml version="1.0" encoding="utf-8"?>

<!--
 ~   Copyright 2017, WSO2 Inc. (http://www.wso2.com)
 ~
 ~   Licensed under the Apache License, Version 2.0 (the "License");
 ~   you may not use this file except in compliance with the License.
 ~   You may obtain a copy of the License at
 ~
 ~        http://www.apache.org/licenses/LICENSE-2.0
 ~
 ~   Unless required by applicable law or agreed to in writing, software
 ~   distributed under the License is distributed on an "AS IS" BASIS,
 ~   WITHOUT WARRANTIES OR CONDITIONS OF ANY KIND, either express or implied.
 ~   See the License for the specific language governing permissions and
 ~   limitations under the License.
-->

<svg version="1.1" id="website" xmlns="http://www.w3.org/2000/svg" xmlns:xlink="http://www.w3.org/1999/xlink" x="0px" y="0px"
	 viewBox="0 0 14 14" style="enable-background:new 0 0 14 14;" xml:space="preserve">
<path d="M11.5200195,5.6900024h0.5999756l-0.25,0.9699707l-0.1799927,0.6799927l-0.25,0.9700317h-0.6400146L10.789978,8.2699585
	l-0.2099609-1.0899658c-0.0499878-0.2600098-0.0900269-0.5100098-0.1199951-0.8099976h-0.0100098
	c-0.0499878,0.2999878-0.0900269,0.5499878-0.1500244,0.8099976l-0.1499634,0.6799927l-0.1000366,0.4500122H9.4000244
	L9.1699829,7.3399658L9.0100098,6.6599731L8.7800293,5.6900024h0.6299438l0.1800537,0.9699707l0.0199585,0.1099854
	C9.6500244,6.9599609,9.6799927,7.1599731,9.710022,7.3399658C9.7299805,7.4699707,9.75,7.5799561,9.7700195,7.6900024
	l0.0599976-0.3500366c0.0899658-0.4299927,0.0999756-0.5100098,0.1199951-0.5799561l0.0199585-0.1000366l0.1500244-0.7399902
	l0.0499878-0.2299805h0.6000366h0.0299683l0.1900024,0.9699707l0.0200195,0.1300049
	c0.0299683,0.1900024,0.0599976,0.3699951,0.0899658,0.5499878c0.0200195,0.1100464,0.0300293,0.2200317,0.0500488,0.3300171
	c0.0099487-0.1099854,0.0299683-0.2199707,0.0499878-0.3300171c0.0800171-0.4099731,0.0899658-0.5,0.1099854-0.5799561
	l0.0200195-0.1000366L11.5200195,5.6900024z M7.8699951,6.6599731L7.8499756,6.7600098
	C7.8200073,6.9599609,7.7800293,7.1499634,7.75,7.3399658C7.7299805,7.4500122,7.710022,7.5599976,7.7000122,7.6699829H7.6900024
	C7.6799927,7.5599976,7.6599731,7.4500122,7.6400146,7.3399658C7.6199951,7.1599731,7.5900269,6.9799805,7.5499878,6.789978
	L7.5300293,6.6599731L7.3400269,5.6900024H6.7199707L6.6599731,5.9699707L6.5100098,6.6599731L6.4899902,6.7600098
	C6.4799805,6.8299561,6.460022,6.9099731,6.3800049,7.3399658L6.3200073,7.6900024
	c-0.0200195-0.1100464-0.039978-0.2200317-0.0599976-0.3500366C6.2299805,7.1599731,6.2000122,6.9599609,6.1599731,6.7699585
	L6.1400146,6.6599731L5.960022,5.6900024H5.3300171l0.2299805,0.9699707l0.1599731,0.6799927l0.2300415,0.9700317h0.6499634
	L6.6599731,8.039978l0.1900024-0.8599854C6.9099731,6.9199829,6.9500122,6.6699829,7,6.3699951h0.0100098
	C7.039978,6.6699829,7.0800171,6.9199829,7.1300049,7.1799927l0.210022,1.0800171l0.0099487,0.0499878h0.6400146l0.25-0.9700317
	l0.1799927-0.6799927l0.25-0.9699707H8.0700073L7.8699951,6.6599731z M4.4199829,6.6599731L4.4000244,6.7600098
	C4.3699951,6.9599609,4.3300171,7.1499634,4.2999878,7.3399658C4.2800293,7.4500122,4.2600098,7.5599976,4.25,7.6699829H4.2399902
	C4.2299805,7.5599976,4.210022,7.4500122,4.1900024,7.3399658C4.1699829,7.1599731,4.1400146,6.9799805,4.0999756,6.789978
	L4.0800171,6.6599731L3.9000244,5.7399902L3.8900146,5.6900024H3.2700195L3.1500244,6.2600098L3.0599976,6.6599731
	L3.039978,6.7600098C3.0300293,6.8299561,3.0100098,6.9099731,2.9299927,7.3399658L2.8699951,7.6900024
	c-0.0200195-0.1100464-0.039978-0.2200317-0.0599976-0.3500366C2.7800293,7.1599731,2.75,6.9599609,2.710022,6.7699585
	L2.6900024,6.6599731L2.5100098,5.6900024H1.8800049l0.2299805,0.9699707l0.1600342,0.6799927L2.5,8.3099976h0.6500244
	l0.039978-0.1699829l0.210022-0.960022C3.460022,6.9199829,3.5,6.6699829,3.5499878,6.3699951h0.0100098
	c0.0300293,0.2999878,0.0700073,0.5499878,0.1199951,0.8099976l0.2200317,1.1300049h0.0199585H4.539978l0.25-0.9700317
	l0.1799927-0.6799927l0.25-0.9699707H4.6199951L4.4199829,6.6599731z M14,6.9699707
	c0,0.2300415-0.0100098,0.4700317-0.0300293,0.7000122c-0.0099487,0.0800171-0.0299683,0.1699829-0.039978,0.25
	c-0.0200195,0.1500244-0.0299683,0.2999878-0.0599976,0.4400024c-0.0200195,0.0700073-0.039978,0.1300049-0.0499878,0.2000122
	C13.7800293,8.7199707,13.75,8.8800049,13.7000122,9.039978c-0.0100098,0.039978-0.0300293,0.0800171-0.0499878,0.1199951
	c-0.0500488,0.1799927-0.1100464,0.3500366-0.1900024,0.5300293c0,0.0100098-0.0100098,0.0299683-0.0200195,0.0499878
	c-0.3400269,0.7999878-0.8300171,1.539978-1.4700317,2.1799927c-0.789978,0.8099976-1.75,1.3900146-2.7999878,1.7299805
	c-0.0199585,0.0100098-0.039978,0.0200195-0.0599976,0.0300293c-0.1699829,0.0499878-0.3399658,0.0899658-0.5199585,0.1300049
	c-0.0500488,0.0100098-0.1000366,0.0299683-0.1600342,0.039978c-0.1400146,0.0300293-0.289978,0.0499878-0.4400024,0.0700073
	c-0.0899658,0.0100098-0.1699829,0.0300293-0.25,0.039978C7.5200195,13.9799805,7.2999878,13.9899902,7.0800171,14
	c-0.0100098,0-0.0300293,0-0.0400391,0C7.0300293,14,7.0100098,14,7,14H6.9699707
	c-0.2599487,0-0.5199585-0.0200195-0.7799683-0.0499878c-1.5700073-0.1800537-3.0100098-0.8700562-4.1400146-2
	C1,10.8999634,0.3300171,9.5700073,0.0999756,8.1300049C0.0900269,8.0700073,0.0800171,8.0100098,0.0700073,7.9500122
	C0.0300293,7.6499634,0,7.3399658,0,7.0299683c0-0.2299805,0.0100098-0.4699707,0.0300293-0.7000122
	c0.0099487-0.0799561,0.0299683-0.1699829,0.039978-0.25c0.0200195-0.1499634,0.0299683-0.2999878,0.0599976-0.4399414
	c0.0200195-0.0700073,0.039978-0.1300049,0.0499878-0.2000122C0.2199707,5.2799683,0.25,5.1199951,0.2999878,4.9599609
	c0.0100098-0.039978,0.0300293-0.0799561,0.0499878-0.1199951C0.4000244,4.6599731,0.460022,4.4799805,0.539978,4.3099976
	c0-0.0100098,0.0100098-0.0300293,0.0200195-0.0499878c0.3400269-0.8000488,0.8300171-1.5400391,1.4700317-2.1800537
	c0.789978-0.8099976,1.75-1.3899536,2.7999878-1.7299805c0.0199585-0.0100098,0.039978-0.0200195,0.0599976-0.0299683
	c0.1699829-0.0500488,0.3399658-0.0900269,0.5199585-0.1300049C5.460022,0.1799927,5.5100098,0.1599731,5.5700073,0.1499634
	c0.1400146-0.0299683,0.289978-0.0499878,0.4400024-0.0700073c0.0899658-0.0099487,0.1699829-0.0299683,0.25-0.039978
	C6.4799805,0.0199585,6.7000122,0.0100098,6.9199829,0C6.9299927,0,6.9500122,0,6.960022,0H7h0.0300293
	C7.289978,0,7.5499878,0.0199585,7.8099976,0.0499878c1.5700073,0.1799927,3.0100098,0.8699951,4.1400146,2
	C13,3.0999756,13.6699829,4.4299927,13.9000244,5.8699951c0.0099487,0.0599976,0.0199585,0.1199951,0.0299683,0.1799927
	C13.9699707,6.3499756,14,6.6599731,14,6.9699707z M8.3499756,0.8299561
	C8.5100098,0.9799805,8.6500244,1.1400146,8.789978,1.3099976C9.3699951,2,9.8400269,2.7699585,10.1900024,3.5899658
	c0.5200195-0.2099609,1.0299683-0.4699707,1.5100098-0.789978C10.8300171,1.8200073,9.6699829,1.1199951,8.3499756,0.8299561z
	 M7.3400269,4.2000122c0.3399658-0.0100098,0.6799927-0.0500488,1.0199585-0.1000366
	C8.4899902,4.0700073,8.6199951,4.039978,8.75,4.0100098c0.2700195-0.0500488,0.539978-0.1100464,0.7999878-0.1900024
	c-0.3200073-0.7400513-0.75-1.4400024-1.289978-2.0700073C7.9799805,1.4199829,7.6699829,1.0999756,7.3400269,0.8200073V4.2000122z
	 M4.4500122,3.8200073C4.8099976,3.9400024,5.1699829,4.0199585,5.539978,4.0899658
	c0.1500244,0.0200195,0.2900391,0.0300293,0.4400024,0.0400391C6.210022,4.1599731,6.4299927,4.2000122,6.6599731,4.2000122
	V0.8200073C5.6900024,1.6499634,4.9400024,2.6799927,4.4500122,3.8200073z M2.2999878,2.789978
	c0.0700073,0.0499878,0.1199951,0.0800171,0.1900024,0.1199951C2.9099731,3.1699829,3.3400269,3.3999634,3.789978,3.5799561
	c0.4100342-1,1-1.9299927,1.7700195-2.7199707C5.2600098,0.9299927,4.9699707,1.0100098,4.7000122,1.1199951
	c-0.0300293,0.0100098-0.0599976,0.0299683-0.0900269,0.039978C4.3400269,1.2699585,4.0900269,1.3900146,3.8400269,1.5299683
	c-0.0700073,0.0499878-0.1400146,0.1000366-0.210022,0.1400146C3.4400024,1.789978,3.25,1.9199829,3.0700073,2.0700073
	c-0.0800171,0.0599976-0.1600342,0.1399536-0.25,0.2099609C2.6400146,2.4400024,2.460022,2.6099854,2.2999878,2.789978z
	 M5.6500244,13.1699829c-0.1600342-0.1500244-0.3000488-0.3099976-0.4400024-0.4799805
	C4.6300049,12,4.1599731,11.2299805,3.8099976,10.4099731c-0.5200195,0.210022-1.0299683,0.4700317-1.5100098,0.7900391
	C3.1699829,12.1799927,4.3300171,12.8800049,5.6500244,13.1699829z M6.6599731,9.7999878
	C6.3200073,9.8099976,5.9799805,9.8499756,5.6400146,9.8999634C5.5100098,9.9299927,5.3800049,9.9599609,5.25,9.9899902
	c-0.2700195,0.0499878-0.539978,0.1099854-0.7999878,0.1900024c0.3200073,0.7399902,0.75,1.4400024,1.289978,2.0700073
	c0.2800293,0.3299561,0.5900269,0.6499634,0.9199829,0.9299927V9.7999878z M9.5499878,10.1799927
	C9.1900024,10.0599976,8.8300171,9.9799805,8.460022,9.9099731c-0.1500244-0.0199585-0.3000488-0.0299683-0.4400024-0.039978
	C7.789978,9.8399658,7.5700073,9.7999878,7.3400269,9.7999878v3.3800049
	C8.3099976,12.3499756,9.0599976,11.3200073,9.5499878,10.1799927z M11.7000122,11.2099609
	C11.6300049,11.1599731,11.5700073,11.1199951,11.5,11.0799561c-0.4099731-0.2599487-0.8400269-0.4799805-1.289978-0.6599731
	c-0.4100342,1-1,1.9299927-1.7700195,2.7200317c0.2999878-0.0700073,0.5900269-0.1500244,0.8599854-0.2600098
	c0.0300293-0.0100098,0.0599976-0.0300293,0.0900269-0.0400391c0.2699585-0.1099854,0.5199585-0.2299805,0.7699585-0.3699951
	c0.0700073-0.0499878,0.1400146-0.0999756,0.210022-0.1400146c0.1900024-0.1199951,0.3800049-0.25,0.5599976-0.3899536
	c0.0800171-0.0700073,0.1600342-0.1500244,0.25-0.2200317C11.3599854,11.5599976,11.539978,11.3999634,11.7000122,11.2099609z
	 M12.5100098,7.3399658V6.6599731h0.7999878c-0.0700073-1.2399902-0.5-2.3800049-1.1799927-3.3300171
	C11.5900269,3.7000122,11.0200195,4,10.4299927,4.2299805c0.1099854,0.3099976,0.1900024,0.6199951,0.25,0.9500122H9.9899902
	C9.9299927,4.9400024,9.8699951,4.7000122,9.789978,4.4599609C9.6699829,4.5,9.5599976,4.5199585,9.4400024,4.5499878v0.0100098
	C9.289978,4.5999756,9.1300049,4.6300049,8.9699707,4.6599731C8.8099976,4.7000122,8.6400146,4.7399902,8.4799805,4.7699585
	C8.0999756,4.8299561,7.7199707,4.8699951,7.3400269,4.8900146v0.289978H6.6599731v-0.289978
	C5.8800049,4.8599854,5.1199951,4.7199707,4.3699951,4.5C4.3200073,4.4899902,4.2600098,4.4799805,4.210022,4.4599609
	C4.1300049,4.7000122,4.0700073,4.9400024,4.0100098,5.1799927h-0.710022c0.0700073-0.3200073,0.1500244-0.6400146,0.25-0.9500122
	C2.960022,3.9899902,2.4000244,3.6900024,1.8599854,3.3299561C1.5800171,3.7299805,1.3499756,4.1599731,1.1599731,4.6199951
	C1.1300049,4.7099609,1.0800171,4.7999878,1.039978,4.8999634C1.0100098,5,0.9799805,5.1199951,0.9500122,5.2299805
	c-0.1300049,0.460022-0.2300415,0.9400024-0.2600098,1.4299927h0.7999878v0.6799927H0.6900024
	C0.710022,7.6199951,0.75,7.8800049,0.7999878,8.1400146c0.0100098,0.0699463,0.0200195,0.1399536,0.0400391,0.1999512
	c0.1799927,0.8500366,0.539978,1.6400146,1.0299683,2.3300171C2.4099731,10.2999878,2.9799805,10,3.5700073,9.7699585
	C3.4699707,9.4699707,3.3900146,9.1599731,3.3300171,8.8499756h0.6900024
	C4.0700073,9.0799561,4.1400146,9.3099976,4.210022,9.539978C4.3300171,9.5,4.4400024,9.4799805,4.5599976,9.4500122V9.4400024
	C4.710022,9.3999634,4.8699951,9.3699951,5.0300293,9.3399658c0.1599731-0.039978,0.3299561-0.0799561,0.4899902-0.1099854
	c0.3800049-0.0599976,0.7600098-0.0999756,1.1399536-0.1199951V8.8499756h0.6800537v0.2600098
	C8.1199951,9.1400146,8.8800049,9.2799683,9.6300049,9.5C9.6799927,9.5100098,9.7399902,9.5199585,9.789978,9.539978
	c0.0700073-0.2299805,0.1400146-0.460022,0.1900024-0.6900024h0.7200317c-0.0700073,0.3099976-0.1500244,0.6199951-0.25,0.9199829
	c0.289978,0.1200562,0.5700073,0.25,0.8499756,0.4000244c0.2900391,0.1500244,0.5700073,0.3200073,0.8400269,0.5
	c0.2799683-0.3900146,0.5100098-0.8300171,0.6900024-1.2799683c0.039978-0.0900269,0.0899658-0.1900024,0.1300049-0.2900391
	C12.9899902,9,13.0200195,8.8900146,13.0499878,8.7799683c0.1300049-0.4699707,0.2300415-0.9400024,0.2600098-1.4400024H12.5100098z
	"/>
</svg>
