<?xml version="1.0" encoding="utf-8"?>

<!--
 ~   Copyright 2017, WSO2 Inc. (http://www.wso2.com)
 ~
 ~   Licensed under the Apache License, Version 2.0 (the "License");
 ~   you may not use this file except in compliance with the License.
 ~   You may obtain a copy of the License at
 ~
 ~        http://www.apache.org/licenses/LICENSE-2.0
 ~
 ~   Unless required by applicable law or agreed to in writing, software
 ~   distributed under the License is distributed on an "AS IS" BASIS,
 ~   WITHOUT WARRANTIES OR CONDITIONS OF ANY KIND, either express or implied.
 ~   See the License for the specific language governing permissions and
 ~   limitations under the License.
-->

<svg version="1.1" id="controller" xmlns="http://www.w3.org/2000/svg" xmlns:xlink="http://www.w3.org/1999/xlink" x="0px" y="0px"
	 viewBox="0 0 14 14" style="enable-background:new 0 0 14 14;" xml:space="preserve">
<path d="M7,2.2984221c-0.5629997,0-1.107481,0.0795832-1.6228838,0.2280874l1.234508-1.8295959L5.5859199,0L2.9465656,3.8844733
	l3.7729549,2.5635462l0.7353787-1.0822797L5.5550051,4.052465c0.1507998-0.0533104,0.2962942-0.1186604,0.4539809-0.155493
	C6.3276243,3.8226943,6.6597819,3.783566,7,3.783566c0.0904493,0,0.1809497,0.0027037,0.2700214,0.0081112
	c2.2817402,0.1403928,4.0949602,2.0413587,4.0949602,4.3581972c0,2.4072876-1.9576941,4.3649817-4.3649817,4.3649817
	c-2.4005027,0-4.3527894-1.9455528-4.3649817-4.3434029V8.1498747c0-0.5306058,0.0958569-1.0396318,0.2700725-1.5108047
	C2.9698794,6.4622016,3.0468097,6.290741,3.1332288,6.1246877C3.1561856,6.0801005,3.1804686,6.036942,3.2061291,5.9937325
	c0.0094378-0.017549,0.1359971-0.1996617,0.1468122-0.2172618C3.0829196,5.5307832,2.1786904,4.9730277,2.1219618,4.919003
	C1.5076923,5.8451772,1.1498743,6.9550047,1.1498743,8.1498747C1.1498743,11.3807459,3.7691288,14,7,14
	s5.8501253-2.6192541,5.8501253-5.8501253C12.8501253,4.9176764,10.2308712,2.2984221,7,2.2984221z"/>
</svg>
