<?xml version="1.0" encoding="utf-8"?>
<!-- Generator: Adobe Illustrator 16.0.0, SVG Export Plug-In . SVG Version: 6.00 Build 0)  -->
<!DOCTYPE svg PUBLIC "-//W3C//DTD SVG 1.1//EN" "http://www.w3.org/Graphics/SVG/1.1/DTD/svg11.dtd">
<svg version="1.1" id="Layer_1" xmlns="http://www.w3.org/2000/svg" xmlns:xlink="http://www.w3.org/1999/xlink" x="0px" y="0px"
	 width="353.556px" height="102.332px" viewBox="0 0 353.556 102.332" enable-background="new 0 0 353.556 102.332"
	 xml:space="preserve">
<g>
	<g>
		<g>
			<path fill="#252525" d="M0.74,7.317h26.044c3.484,0,6.677,0.363,9.582,1.089c2.903,0.727,5.4,1.772,7.491,3.136
				c2.09,1.365,3.715,2.991,4.877,4.877c1.161,1.888,1.742,3.993,1.742,6.315c0,2.904-0.668,5.372-2.003,7.404
				c-1.336,2.033-3.746,4.065-7.229,6.097c3.541,1.162,6.459,3.02,8.754,5.575c2.293,2.556,3.44,5.575,3.44,9.059
				c0,2.382-0.538,4.603-1.611,6.663c-1.075,2.062-2.613,3.863-4.617,5.401c-2.003,1.539-4.414,2.743-7.229,3.614
				c-2.817,0.871-5.938,1.307-9.364,1.307H0.74V7.317z M15.635,33.535h9.842c3.136,0,5.575-0.928,7.317-2.788
				c1.742-1.857,2.613-4.238,2.613-7.143c0-3.136-1.132-5.69-3.397-7.665c-2.265-1.973-5.866-2.961-10.801-2.961h-5.574V33.535z
				 M15.635,61.669h8.188c4.819,0,8.362-0.986,10.627-2.961c2.265-1.974,3.397-4.443,3.397-7.404c0-1.684-0.261-3.251-0.784-4.704
				c-0.522-1.451-1.35-2.714-2.482-3.789c-1.132-1.074-2.628-1.916-4.486-2.526c-1.859-0.61-4.124-0.915-6.794-0.915h-7.665V61.669z
				"/>
			<path fill="#252525" d="M98.035,67.854h-13.85v-3.658c-0.755,0.64-1.511,1.234-2.265,1.785c-0.755,0.553-1.568,1.032-2.439,1.438
				c-0.871,0.407-1.873,0.726-3.005,0.958c-1.132,0.231-2.482,0.349-4.05,0.349c-2.09,0-3.993-0.305-5.705-0.915
				c-1.713-0.609-3.151-1.437-4.312-2.482c-1.163-1.045-2.062-2.293-2.7-3.745c-0.64-1.451-0.958-3.019-0.958-4.704
				c0-2.613,0.726-4.863,2.178-6.75c1.451-1.886,3.324-3.513,5.618-4.878c2.293-1.364,4.848-2.54,7.665-3.528
				c2.816-0.986,5.618-1.916,8.406-2.787l1.568-0.349v-4.529c0-2.961-0.566-5.037-1.699-6.228c-1.132-1.189-2.628-1.786-4.486-1.786
				c-2.208,0-3.717,0.523-4.529,1.568c-0.814,1.045-1.219,2.323-1.219,3.833c0,0.871-0.087,1.714-0.262,2.526
				c-0.174,0.814-0.509,1.524-1.001,2.134c-0.494,0.61-1.147,1.089-1.96,1.438c-0.814,0.348-1.859,0.522-3.136,0.522
				c-1.916,0-3.484-0.551-4.704-1.655c-1.219-1.103-1.829-2.496-1.829-4.181c0-1.568,0.536-3.034,1.611-4.399
				c1.074-1.364,2.526-2.54,4.355-3.527c1.829-0.987,3.948-1.756,6.358-2.309c2.409-0.551,4.95-0.827,7.622-0.827
				c6.562,0,11.324,1.119,14.285,3.354c2.961,2.236,4.442,5.27,4.442,9.102V67.854z M84.186,44.249
				c-1.336,0.581-2.687,1.249-4.05,2.003c-1.365,0.755-2.6,1.568-3.702,2.438c-1.104,0.871-2.003,1.816-2.7,2.831
				c-0.697,1.017-1.045,2.077-1.045,3.179c0,1.742,0.421,3.252,1.263,4.53c0.841,1.277,1.814,1.916,2.918,1.916
				c1.161,0,2.322-0.349,3.484-1.045c1.161-0.697,2.439-1.568,3.833-2.613V44.249z"/>
			<path fill="#252525" d="M122.249,67.854h-13.762V3.833L122.249,0V67.854z"/>
			<path fill="#252525" d="M145.331,67.854h-13.762V3.833L145.331,0V67.854z"/>
			<path fill="#252525" d="M175.555,68.899c-3.253,0-6.301-0.596-9.146-1.785c-2.846-1.189-5.328-2.816-7.447-4.878
				c-2.121-2.061-3.789-4.442-5.008-7.143c-1.22-2.7-1.83-5.56-1.83-8.58c0-3.6,0.566-6.938,1.699-10.017
				c1.132-3.077,2.729-5.749,4.791-8.014c2.061-2.265,4.543-4.035,7.448-5.313c2.903-1.277,6.154-1.917,9.755-1.917
				c3.193,0,6.112,0.509,8.754,1.524c2.641,1.017,4.906,2.395,6.793,4.137s3.354,3.804,4.4,6.185
				c1.045,2.382,1.566,4.936,1.566,7.665h-31.618c0.057,2.556,0.406,4.98,1.045,7.273c0.638,2.294,1.494,4.312,2.569,6.054
				c1.074,1.742,2.337,3.136,3.789,4.181c1.451,1.045,3.049,1.567,4.791,1.567c1.568,0,3.092-0.261,4.572-0.784
				c1.482-0.522,2.832-1.247,4.051-2.177c1.221-0.928,2.293-1.988,3.223-3.179c0.93-1.189,1.598-2.482,2.004-3.876l7.143,1.045
				c-0.697,2.498-1.828,4.834-3.396,7.012c-1.568,2.178-3.412,4.08-5.531,5.705c-2.121,1.627-4.43,2.918-6.926,3.877
				C180.549,68.42,178.051,68.899,175.555,68.899z M181.479,36.061c-0.293-2.729-1.191-4.921-2.701-6.576
				c-1.511-1.655-3.368-2.482-5.575-2.482c-1.742,0-3.34,0.813-4.791,2.439c-1.452,1.626-2.323,3.833-2.613,6.62H181.479z"/>
			<path fill="#252525" d="M219.019,67.854h-13.85V22.211h13.85v3.397c1.509-1.568,3.192-2.831,5.052-3.789
				c1.857-0.958,3.803-1.438,5.836-1.438c1.22,0,2.381,0.161,3.484,0.479c1.103,0.32,2.061,0.771,2.874,1.35
				c0.812,0.581,1.451,1.234,1.917,1.96c0.464,0.727,0.696,1.524,0.696,2.396c0,1.626-0.581,2.948-1.742,3.963
				c-1.162,1.017-2.584,1.524-4.268,1.524c-1.104,0-2.004-0.174-2.7-0.522c-0.697-0.349-1.337-0.726-1.917-1.132
				c-0.581-0.406-1.176-0.784-1.785-1.132c-0.609-0.349-1.351-0.523-2.222-0.523s-1.771,0.64-2.7,1.917
				c-0.929,1.278-1.771,2.73-2.525,4.355V67.854z"/>
			<path fill="#252525" d="M242.45,7.665c0-1.857,0.726-3.454,2.178-4.791c1.45-1.335,3.192-2.003,5.226-2.003
				c2.091,0,3.861,0.668,5.313,2.003c1.451,1.336,2.178,2.933,2.178,4.791c0,1.859-0.727,3.441-2.178,4.748
				c-1.452,1.306-3.223,1.959-5.313,1.959c-2.033,0-3.775-0.653-5.226-1.959C243.175,11.106,242.45,9.524,242.45,7.665z
				 M243.059,24.65l13.763-3.833v47.036h-13.763V24.65z"/>
			<path fill="#252525" d="M294.364,36.583c0-2.38-0.466-4.181-1.394-5.4c-0.93-1.219-1.976-1.829-3.136-1.829
				c-1.22,0-2.73,0.465-4.53,1.394c-1.8,0.93-3.514,2.149-5.139,3.659v33.448h-13.937V22.211h13.937v3.571
				c2.091-1.568,4.355-2.714,6.794-3.44c2.439-0.726,4.878-1.089,7.316-1.089c1.858,0,3.629,0.363,5.313,1.089
				c1.684,0.727,3.165,1.713,4.442,2.961c1.276,1.25,2.294,2.73,3.049,4.442c0.754,1.713,1.133,3.528,1.133,5.444v32.664h-13.85
				V36.583z"/>
			<path fill="#252525" d="M353.157,67.854h-13.85v-3.658c-0.755,0.64-1.511,1.234-2.265,1.785
				c-0.755,0.553-1.567,1.032-2.438,1.438c-0.871,0.407-1.873,0.726-3.005,0.958c-1.133,0.231-2.482,0.349-4.051,0.349
				c-2.091,0-3.993-0.305-5.705-0.915c-1.714-0.609-3.15-1.437-4.312-2.482c-1.162-1.045-2.062-2.293-2.7-3.745
				c-0.64-1.451-0.958-3.019-0.958-4.704c0-2.613,0.725-4.863,2.177-6.75c1.451-1.886,3.324-3.513,5.619-4.878
				c2.293-1.364,4.848-2.54,7.665-3.528c2.815-0.986,5.618-1.916,8.405-2.787l1.567-0.349v-4.529c0-2.961-0.565-5.037-1.698-6.228
				c-1.132-1.189-2.628-1.786-4.485-1.786c-2.208,0-3.717,0.523-4.53,1.568c-0.813,1.045-1.219,2.323-1.219,3.833
				c0,0.871-0.087,1.714-0.262,2.526c-0.174,0.814-0.509,1.524-1.002,2.134c-0.493,0.61-1.146,1.089-1.959,1.438
				c-0.814,0.348-1.859,0.522-3.136,0.522c-1.917,0-3.484-0.551-4.704-1.655c-1.22-1.103-1.829-2.496-1.829-4.181
				c0-1.568,0.536-3.034,1.611-4.399c1.074-1.364,2.526-2.54,4.355-3.527c1.829-0.987,3.948-1.756,6.358-2.309
				c2.409-0.551,4.95-0.827,7.622-0.827c6.561,0,11.323,1.119,14.284,3.354c2.962,2.236,4.442,5.27,4.442,9.102V67.854z
				 M339.307,44.249c-1.336,0.581-2.687,1.249-4.05,2.003c-1.365,0.755-2.6,1.568-3.702,2.438c-1.104,0.871-2.003,1.816-2.7,2.831
				c-0.696,1.017-1.045,2.077-1.045,3.179c0,1.742,0.42,3.252,1.263,4.53c0.841,1.277,1.814,1.916,2.918,1.916
				c1.161,0,2.322-0.349,3.484-1.045c1.161-0.697,2.438-1.568,3.832-2.613V44.249z"/>
		</g>
	</g>
	<g>
		<g>
			<g>
				<path fill="#5F5F5F" d="M0,102.235V88.5h9.073v1.547H1.741v4.585h6.171v1.451H1.741v6.151H0z"/>
				<path fill="#5F5F5F" d="M11.761,102.235V88.5h1.741v12.187h7.661v1.548H11.761z"/>
				<path fill="#5F5F5F" d="M32.866,100.687v1.548h-9.324V88.5h9.15v1.547h-7.409v4.449h6.442v1.451h-6.442v4.739H32.866z"/>
				<path fill="#5F5F5F" d="M36.078,88.5l4.178,5.726l4.178-5.726h1.916l-5.165,6.964l5.01,6.771h-1.916l-4.023-5.532l-4.023,5.532
					h-1.935l5.01-6.771L34.143,88.5H36.078z"/>
				<path fill="#5F5F5F" d="M48.535,102.235V88.5h1.741v13.734H48.535z"/>
				<path fill="#5F5F5F" d="M64.591,98.695c0,0.529-0.106,1.013-0.319,1.451c-0.212,0.438-0.503,0.812-0.87,1.122
					c-0.368,0.31-0.793,0.548-1.277,0.715c-0.484,0.168-1.003,0.252-1.557,0.252h-6.52V88.5h6.829c0.477,0,0.91,0.104,1.296,0.31
					s0.716,0.474,0.986,0.803c0.271,0.329,0.48,0.703,0.629,1.122c0.148,0.419,0.223,0.841,0.223,1.267
					c0,0.684-0.171,1.315-0.513,1.896c-0.342,0.581-0.829,1.013-1.46,1.297c0.786,0.231,1.409,0.661,1.867,1.286
					C64.362,97.106,64.591,97.843,64.591,98.695z M55.79,90.009v4.585h4.372c0.31,0,0.593-0.062,0.851-0.185
					c0.258-0.122,0.48-0.286,0.667-0.493c0.187-0.206,0.335-0.447,0.445-0.726c0.109-0.276,0.165-0.57,0.165-0.88
					c0-0.322-0.052-0.625-0.155-0.909c-0.104-0.283-0.242-0.528-0.416-0.735c-0.174-0.206-0.387-0.367-0.639-0.483
					c-0.251-0.116-0.519-0.174-0.803-0.174H55.79z M62.831,98.385c0-0.31-0.055-0.609-0.165-0.899
					c-0.11-0.29-0.258-0.545-0.445-0.765c-0.187-0.219-0.41-0.393-0.667-0.521c-0.258-0.129-0.542-0.193-0.851-0.193H55.79v4.72
					h4.778c0.322,0,0.619-0.064,0.89-0.193s0.509-0.3,0.716-0.513c0.206-0.213,0.368-0.461,0.483-0.745
					C62.773,98.992,62.831,98.695,62.831,98.385z"/>
				<path fill="#5F5F5F" d="M67.512,102.235V88.5h1.741v12.187h7.661v1.548H67.512z"/>
				<path fill="#5F5F5F" d="M88.617,100.687v1.548h-9.324V88.5h9.15v1.547h-7.409v4.449h6.442v1.451h-6.442v4.739H88.617z"/>
				<path fill="#5F5F5F" d="M112.99,102.235V88.5h5.726c0.606,0,1.164,0.126,1.673,0.377c0.509,0.252,0.948,0.587,1.315,1.006
					s0.654,0.89,0.861,1.412c0.206,0.522,0.31,1.055,0.31,1.596c0,0.568-0.097,1.116-0.29,1.645c-0.193,0.529-0.468,1-0.822,1.412
					c-0.355,0.413-0.78,0.742-1.277,0.986c-0.497,0.245-1.048,0.368-1.654,0.368h-4.101v4.933H112.99z M114.731,95.754h4.004
					c0.361,0,0.687-0.074,0.977-0.223c0.29-0.147,0.538-0.354,0.745-0.619c0.206-0.264,0.368-0.57,0.483-0.919
					c0.116-0.348,0.174-0.715,0.174-1.103c0-0.399-0.068-0.773-0.203-1.122c-0.135-0.348-0.316-0.65-0.542-0.909
					c-0.226-0.258-0.49-0.457-0.793-0.6c-0.303-0.142-0.622-0.213-0.958-0.213h-3.888V95.754z"/>
				<path fill="#5F5F5F" d="M131.096,102.332c-0.967,0-1.847-0.196-2.64-0.59c-0.793-0.394-1.474-0.916-2.041-1.567
					c-0.568-0.65-1.006-1.396-1.315-2.234c-0.31-0.838-0.464-1.695-0.464-2.572c0-0.916,0.165-1.793,0.493-2.631
					c0.329-0.838,0.784-1.58,1.364-2.225c0.581-0.645,1.267-1.157,2.061-1.538c0.793-0.38,1.654-0.57,2.583-0.57
					c0.967,0,1.844,0.203,2.631,0.609c0.786,0.406,1.463,0.938,2.031,1.596c0.567,0.657,1.006,1.402,1.315,2.234
					c0.31,0.832,0.464,1.68,0.464,2.544c0,0.916-0.165,1.792-0.493,2.631c-0.329,0.838-0.78,1.576-1.354,2.215
					c-0.574,0.638-1.257,1.147-2.051,1.528C132.886,102.141,132.025,102.332,131.096,102.332z M126.396,95.368
					c0,0.696,0.113,1.37,0.339,2.021c0.225,0.651,0.544,1.229,0.958,1.731c0.413,0.503,0.909,0.902,1.489,1.199
					c0.581,0.297,1.225,0.445,1.935,0.445c0.735,0,1.393-0.158,1.973-0.475c0.58-0.315,1.074-0.729,1.48-1.238
					c0.406-0.509,0.716-1.086,0.928-1.73c0.213-0.646,0.319-1.297,0.319-1.954c0-0.696-0.113-1.37-0.338-2.021
					c-0.226-0.651-0.548-1.226-0.967-1.722c-0.419-0.496-0.916-0.893-1.49-1.189s-1.209-0.445-1.905-0.445
					c-0.735,0-1.393,0.155-1.973,0.464c-0.581,0.31-1.074,0.716-1.48,1.219s-0.719,1.077-0.938,1.722
					C126.505,94.04,126.396,94.697,126.396,95.368z"/>
				<path fill="#5F5F5F" d="M144.985,88.578h1.645l1.818,4.778l1.837-4.778h1.645l-2.379,5.978l2.36,5.668l4.643-11.723h1.896
					l-5.746,13.734h-1.509l-2.728-6.48l-2.747,6.48h-1.509L138.486,88.5h1.876l4.662,11.723l2.341-5.668L144.985,88.578z"/>
				<path fill="#5F5F5F" d="M170.056,100.687v1.548h-9.324V88.5h9.15v1.547h-7.409v4.449h6.442v1.451h-6.442v4.739H170.056z"/>
				<path fill="#5F5F5F" d="M172.918,102.235V88.5h5.881c0.606,0,1.164,0.126,1.674,0.377c0.51,0.252,0.947,0.587,1.314,1.006
					s0.654,0.89,0.861,1.412s0.311,1.055,0.311,1.596c0,0.478-0.068,0.938-0.203,1.384c-0.137,0.444-0.33,0.848-0.582,1.209
					c-0.25,0.361-0.555,0.671-0.908,0.929c-0.355,0.258-0.752,0.444-1.189,0.561l3.326,5.262h-1.973l-3.134-4.933h-3.637v4.933
					H172.918z M174.66,95.754h4.159c0.361,0,0.687-0.077,0.977-0.232c0.291-0.154,0.539-0.364,0.744-0.628
					c0.207-0.265,0.369-0.571,0.484-0.919c0.115-0.349,0.174-0.709,0.174-1.084c0-0.387-0.066-0.751-0.203-1.093
					c-0.135-0.342-0.316-0.645-0.541-0.909c-0.227-0.264-0.491-0.471-0.793-0.619c-0.303-0.147-0.622-0.223-0.958-0.223h-4.043
					V95.754z"/>
				<path fill="#5F5F5F" d="M186.112,102.235V88.5h9.072v1.547h-7.331v4.585h6.171v1.451h-6.171v6.151H186.112z"/>
				<path fill="#5F5F5F" d="M203.522,100.765c0.8,0,1.464-0.155,1.992-0.465c0.529-0.31,0.951-0.712,1.268-1.209
					c0.315-0.496,0.538-1.063,0.667-1.702s0.193-1.286,0.193-1.944V88.5h1.741v6.944c0,0.929-0.106,1.809-0.319,2.641
					s-0.551,1.563-1.016,2.195c-0.464,0.633-1.067,1.132-1.809,1.499c-0.741,0.368-1.642,0.552-2.698,0.552
					c-1.097,0-2.019-0.193-2.767-0.58s-1.351-0.899-1.809-1.538s-0.787-1.373-0.986-2.205c-0.2-0.832-0.3-1.687-0.3-2.563V88.5h1.74
					v6.944c0,0.684,0.068,1.345,0.203,1.983c0.136,0.638,0.361,1.202,0.678,1.692c0.315,0.49,0.734,0.887,1.257,1.189
					S202.735,100.765,203.522,100.765z"/>
				<path fill="#5F5F5F" d="M212.961,102.235V88.5h1.741v12.187h7.66v1.548H212.961z"/>
				<path fill="#5F5F5F" d="M256.215,98.695c0,0.529-0.106,1.013-0.319,1.451s-0.503,0.812-0.871,1.122
					c-0.367,0.31-0.793,0.548-1.276,0.715c-0.483,0.168-1.003,0.252-1.558,0.252h-6.519V88.5h6.828c0.478,0,0.909,0.104,1.296,0.31
					c0.388,0.206,0.716,0.474,0.987,0.803c0.271,0.329,0.48,0.703,0.628,1.122c0.148,0.419,0.223,0.841,0.223,1.267
					c0,0.684-0.171,1.315-0.513,1.896c-0.342,0.581-0.828,1.013-1.46,1.297c0.786,0.231,1.408,0.661,1.866,1.286
					C255.986,97.106,256.215,97.843,256.215,98.695z M247.414,90.009v4.585h4.371c0.31,0,0.594-0.062,0.852-0.185
					c0.258-0.122,0.48-0.286,0.667-0.493c0.188-0.206,0.336-0.447,0.445-0.726c0.109-0.276,0.164-0.57,0.164-0.88
					c0-0.322-0.052-0.625-0.154-0.909c-0.104-0.283-0.242-0.528-0.416-0.735c-0.174-0.206-0.387-0.367-0.639-0.483
					c-0.251-0.116-0.52-0.174-0.803-0.174H247.414z M254.455,98.385c0-0.31-0.055-0.609-0.164-0.899
					c-0.11-0.29-0.259-0.545-0.445-0.765c-0.188-0.219-0.409-0.393-0.667-0.521c-0.259-0.129-0.542-0.193-0.852-0.193h-4.913v4.72
					h4.777c0.322,0,0.619-0.064,0.891-0.193c0.271-0.129,0.509-0.3,0.715-0.513c0.207-0.213,0.368-0.461,0.484-0.745
					C254.397,98.992,254.455,98.695,254.455,98.385z"/>
				<path fill="#5F5F5F" d="M268.46,100.687v1.548h-9.324V88.5h9.149v1.547h-7.408v4.449h6.441v1.451h-6.441v4.739H268.46z"/>
				<path fill="#5F5F5F" d="M275.501,88.5h1.471l5.609,13.734h-1.856l-1.625-4.023h-5.765l-1.605,4.023h-1.857L275.501,88.5z
					 M278.713,96.857l-2.477-6.345l-2.554,6.345H278.713z"/>
				<path fill="#5F5F5F" d="M289.991,100.765c0.8,0,1.464-0.155,1.992-0.465c0.529-0.31,0.951-0.712,1.268-1.209
					c0.315-0.496,0.538-1.063,0.667-1.702s0.193-1.286,0.193-1.944V88.5h1.741v6.944c0,0.929-0.106,1.809-0.319,2.641
					s-0.551,1.563-1.016,2.195c-0.464,0.633-1.067,1.132-1.809,1.499c-0.741,0.368-1.642,0.552-2.698,0.552
					c-1.097,0-2.019-0.193-2.767-0.58s-1.351-0.899-1.809-1.538s-0.787-1.373-0.986-2.205c-0.2-0.832-0.3-1.687-0.3-2.563V88.5h1.74
					v6.944c0,0.684,0.068,1.345,0.203,1.983c0.136,0.638,0.361,1.202,0.678,1.692c0.315,0.49,0.734,0.887,1.257,1.189
					S289.204,100.765,289.991,100.765z"/>
				<path fill="#5F5F5F" d="M309.334,90.047h-4.739v12.188h-1.741V90.047h-4.739V88.5h11.22V90.047z"/>
				<path fill="#5F5F5F" d="M311.792,102.235V88.5h1.741v13.734H311.792z"/>
				<path fill="#5F5F5F" d="M317.305,102.235V88.5h9.072v1.547h-7.331v4.585h6.171v1.451h-6.171v6.151H317.305z"/>
				<path fill="#5F5F5F" d="M334.714,100.765c0.8,0,1.464-0.155,1.992-0.465c0.529-0.31,0.951-0.712,1.268-1.209
					c0.315-0.496,0.538-1.063,0.667-1.702s0.193-1.286,0.193-1.944V88.5h1.741v6.944c0,0.929-0.106,1.809-0.319,2.641
					s-0.551,1.563-1.016,2.195c-0.464,0.633-1.067,1.132-1.809,1.499c-0.741,0.368-1.642,0.552-2.698,0.552
					c-1.097,0-2.019-0.193-2.767-0.58s-1.351-0.899-1.809-1.538s-0.787-1.373-0.986-2.205c-0.2-0.832-0.3-1.687-0.3-2.563V88.5h1.74
					v6.944c0,0.684,0.068,1.345,0.203,1.983c0.136,0.638,0.361,1.202,0.678,1.692c0.315,0.49,0.734,0.887,1.257,1.189
					S333.927,100.765,334.714,100.765z"/>
				<path fill="#5F5F5F" d="M344.155,102.235V88.5h1.741v12.187h7.66v1.548H344.155z"/>
			</g>
			<path fill="#5F5F5F" d="M99.387,95.007c0,0.732-0.598,1.33-1.334,1.33c-0.736,0-1.333-0.598-1.333-1.33
				c0-0.74,0.598-1.333,1.333-1.333C98.789,93.674,99.387,94.267,99.387,95.007z"/>
			<path fill="#5F5F5F" d="M233.799,95.003c0,0.736-0.594,1.33-1.338,1.33c-0.736,0-1.329-0.594-1.329-1.33s0.593-1.329,1.329-1.329
				C233.206,93.674,233.799,94.267,233.799,95.003z"/>
		</g>
	</g>
</g>
</svg>
