<?xml version="1.0" encoding="utf-8"?>

<!--
 ~   Copyright 2017, WSO2 Inc. (http://www.wso2.com)
 ~
 ~   Licensed under the Apache License, Version 2.0 (the "License");
 ~   you may not use this file except in compliance with the License.
 ~   You may obtain a copy of the License at
 ~
 ~        http://www.apache.org/licenses/LICENSE-2.0
 ~
 ~   Unless required by applicable law or agreed to in writing, software
 ~   distributed under the License is distributed on an "AS IS" BASIS,
 ~   WITHOUT WARRANTIES OR CONDITIONS OF ANY KIND, either express or implied.
 ~   See the License for the specific language governing permissions and
 ~   limitations under the License.
-->

<svg version="1.1" id="uri" xmlns="http://www.w3.org/2000/svg" xmlns:xlink="http://www.w3.org/1999/xlink" x="0px" y="0px"
	 viewBox="0 0 14 14" style="enable-background:new 0 0 14 14;" xml:space="preserve">
<path d="M6.3800001,5.9899998c-0.2400002-0.79-0.0300002-1.6899996,0.5899997-2.3099997L9.96,0.69
	c0.9200001-0.92,2.4300003-0.93,3.3500004,0c0.9199991,0.92,0.9199991,2.4299998,0,3.3499999l-2.9900007,2.9900002
	C9.6199999,7.73,8.5600004,7.9099998,7.6900001,7.52l0.77-0.77c0.4300003,0.0599999,0.8699999-0.0700002,1.1899996-0.3899999
	l2.9900007-2.9900002c0.5499992-0.55,0.5499992-1.4599999,0-2.0099998c-0.5500002-0.54-1.4500008-0.54-2.0100002,0.01
	l-2.98,2.9800003c-0.2200003,0.2200003-0.3499999,0.48-0.3899999,0.7600002L6.3800001,5.9899998z M5.6500001,8.1400003
	C5.4299998,7.9200001,5.4099998,7.5900002,5.5799999,7.3600001c0.0300002-0.02,0.0500002-0.0500002,0.0700002-0.0700002
	L7.27,5.6599998c0.2400002-0.1999998,0.5999999-0.1900001,0.8300004,0.04c0.2299995,0.23,0.2299995,0.6200004-0.0100002,0.8500004
	L8.04,6.6100001H8.0299997L7.79,6.8600001L7.3400002,7.3099999H7.3299999l-0.0099998,0.02L6.5100002,8.1400003H6.5
	C6.27,8.3800001,5.8899999,8.3800001,5.6500001,8.1400003z M1.36,12.6300001
	C1.92,13.1800003,2.8099999,13.1899996,3.3699999,12.6400003l2.9900002-2.9900007
	C6.6799998,9.3299999,6.8099999,8.8800001,6.75,8.46l0.77-0.77c0.3899999,0.8700004,0.2199998,1.9299998-0.4899998,2.6299996
	L4.04,13.3100004c-0.9200001,0.9299994-2.4299998,0.9199991-3.3499999,0c-0.92-0.9300003-0.92-2.4200001,0-3.3500004l2.99-2.9900002
	c0.6299999-0.6199999,1.51-0.8299999,2.3099997-0.5999999L5.0900002,7.27c-0.27,0.04-0.5300002,0.1700001-0.73,0.3699999
	l-3,3.0000005C0.81,11.1899996,0.82,12.0900002,1.36,12.6300001z"/>
</svg>
