<?xml version="1.0" encoding="utf-8"?>

<!--
 ~   Copyright 2017, WSO2 Inc. (http://www.wso2.com)
 ~
 ~   Licensed under the Apache License, Version 2.0 (the "License");
 ~   you may not use this file except in compliance with the License.
 ~   You may obtain a copy of the License at
 ~
 ~        http://www.apache.org/licenses/LICENSE-2.0
 ~
 ~   Unless required by applicable law or agreed to in writing, software
 ~   distributed under the License is distributed on an "AS IS" BASIS,
 ~   WITHOUT WARRANTIES OR CONDITIONS OF ANY KIND, either express or implied.
 ~   See the License for the specific language governing permissions and
 ~   limitations under the License.
-->

<svg version="1.1" id="gmail" xmlns="http://www.w3.org/2000/svg" xmlns:xlink="http://www.w3.org/1999/xlink" x="0px" y="0px"
	 viewBox="0 0 14 14" style="enable-background:new 0 0 14 14;" xml:space="preserve">
<path d="M0.000009,12.0681925c-0.0000121-3.3787947-0.0000121-6.7575898,0.0000008-10.136385
	c0.0302988,0,13.9678802-0.0010954,13.9999905,0c0,3.3560679,0,6.7803173,0,10.136385
	C13.9678898,12.0692873,0.0303075,12.0681925,0.000009,12.0681925z M12.0193968,11.7195101
	c0.0906553-0.000001,0.1121597-0.0212793,0.1123896-0.1156673c0.0005913-0.2423706,0.002799-0.4847927-0.0020809-0.7270651
	c-0.0008144-0.0403547-0.0237646-0.0920544-0.0540657-0.1179113c-0.1100454-0.0939016-3.8686314-3.0104151-3.9880505-3.1051865
	C8.033124,7.6104565,8.0064192,7.6138377,7.9560018,7.6618061C7.8454995,7.7669415,7.2652426,8.3188162,7.0863414,8.4903746
	C7.0567942,8.5187092,7.0327911,8.5186357,7.0041347,8.4897499c-0.166388-0.1677189-0.7322931-0.7296185-0.847651-0.8440566
	c-0.0234976-0.0233102-0.0448318-0.0303721-0.073936-0.0084424c-0.0856514,0.064539-3.9744632,3.0429411-4.0634918,3.1179895
	c-0.0307755,0.0259428-0.0568137,0.0761995-0.0576434,0.115922c-0.0051404,0.2460499-0.0030876,0.4922667-0.002094,0.7384224
	c0.0003611,0.0894651,0.0228797,0.1099243,0.1122277,0.1099253C3.7304676,11.7195301,10.3623686,11.7195311,12.0193968,11.7195101z
	 M12.1316462,3.5841722c-0.00144-0.0261793,0.004714-0.0529294-0.0194483-0.0777068c0,0-0.0411787-0.0178363-0.0831461,0.0363402
	C11.9120026,3.6550732,8.5381765,7.0013199,8.3942928,7.143662C8.3657551,7.1718926,8.3640795,7.1996675,8.3952761,7.225965
	c0.0302534,0.0255027,3.60252,2.9249959,3.6747437,2.9760661c0.0389786,0.0275621,0.0604696,0.0090113,0.0609789-0.0349236
	C12.1316786,10.1084461,12.1341295,3.6293933,12.1316462,3.5841722z M1.9588333,10.1296358
	c-0.0000018,0.0954504,0.0165677,0.1049547,0.1003927,0.056469c0.0130079-0.0075235,3.5337286-2.7054739,3.7368832-2.8582664
	C5.8342075,7.2991843,5.838213,7.254509,5.8055034,7.2264237C5.6567836,7.0987291,2.0873029,4.0061569,2.0403857,3.9713166
	C2.0244796,3.9595048,1.9939644,3.952002,1.978542,3.959604C1.965427,3.9660687,1.9598256,3.996886,1.9589757,4.0172653
	C1.9570868,4.0625548,1.9588505,9.1127872,1.9588333,10.1296358z M3.5556591,2.3115695
	C3.5381775,2.3125277,3.5121737,2.324847,3.507139,2.3383532C3.502264,2.3514297,3.5145807,2.3780041,3.5274849,2.38957
	C3.7747891,2.6112306,6.949965,5.4434371,7.0111032,5.4962726C7.0355954,5.5174398,7.057879,5.5156102,7.0808482,5.4930439
	c0.0363183-0.0356808,2.9788737-2.9656792,3.1142154-3.102129c0.0125847-0.0126879,0.0253963-0.0379984,0.0207243-0.0513816
	c-0.0047731-0.0136743-0.03053-0.026897-0.0478668-0.0279744C10.1227636,2.3087533,3.6027594,2.3089874,3.5556591,2.3115695z"/>
</svg>
