<?xml version="1.0" encoding="utf-8"?>

<!--
 ~   Copyright 2017, WSO2 Inc. (http://www.wso2.com)
 ~
 ~   Licensed under the Apache License, Version 2.0 (the "License");
 ~   you may not use this file except in compliance with the License.
 ~   You may obtain a copy of the License at
 ~
 ~        http://www.apache.org/licenses/LICENSE-2.0
 ~
 ~   Unless required by applicable law or agreed to in writing, software
 ~   distributed under the License is distributed on an "AS IS" BASIS,
 ~   WITHOUT WARRANTIES OR CONDITIONS OF ANY KIND, either express or implied.
 ~   See the License for the specific language governing permissions and
 ~   limitations under the License.
-->

<svg version="1.1" id="linkedin" xmlns="http://www.w3.org/2000/svg" xmlns:xlink="http://www.w3.org/1999/xlink" x="0px" y="0px"
	 viewBox="0 0 14 14" style="enable-background:new 0 0 14 14;" xml:space="preserve">
<path d="M7.6,6.3L7.6,6.3C7.6,6.3,7.6,6.3,7.6,6.3L7.6,6.3z M0,0v14h14V0H0z M4.4,11.6H2.3V5.4h2.1V11.6z M3.3,4.5L3.3,4.5
	C2.6,4.5,2.2,4,2.2,3.4c0-0.6,0.5-1.1,1.2-1.1c0.7,0,1.1,0.5,1.2,1.1C4.5,4,4,4.5,3.3,4.5z M11.8,11.6H9.8V8.3
	c0-0.8-0.3-1.4-1.1-1.4c-0.6,0-0.9,0.4-1.1,0.8C7.6,7.8,7.6,8,7.6,8.1v3.5H5.5c0,0,0-5.7,0-6.2h2.1v0.9c0.3-0.4,0.8-1,1.9-1
	c1.4,0,2.4,0.9,2.4,2.8V11.6z"/>
</svg>
