<?xml version="1.0" encoding="utf-8"?>
<!-- Generator: Adobe Illustrator 24.1.0, SVG Export Plug-In . SVG Version: 6.00 Build 0)  -->
<svg version="1.1" id="failed" xmlns="http://www.w3.org/2000/svg" xmlns:xlink="http://www.w3.org/1999/xlink" x="0px" y="0px"
	 viewBox="0 0 14 14" style="enable-background:new 0 0 14 14;" xml:space="preserve">
<path d="M12,2.1C9.2-0.7,4.8-0.7,2.1,2C0.7,3.4,0,5.1,0,7c0,1.8,0.7,3.6,2,4.9C3.3,13.2,5.1,14,7,14h0c3.9,0,7-3.2,7-7
	C14,5.1,13.3,3.4,12,2.1z M13,7c0,3.3-2.7,6-6,6h0c-3.3,0-6-2.7-6-6c0-1.6,0.6-3.1,1.8-4.3c2.4-2.3,6.1-2.3,8.5,0
	C12.4,3.9,13,5.4,13,7L13,7z M8.9,6l0.5-0.5l1.1-1.1c0.2-0.2,0.2-0.4,0.2-0.6c-0.1-0.2-0.2-0.4-0.5-0.4c-0.2,0-0.4,0-0.5,0.2
	L8.9,4.3C8.5,4.7,8.1,5.1,7.7,5.5C7.5,5.7,7.3,5.9,7.2,6L7,6.2l0,0C6.7,5.9,6.5,5.6,6.2,5.4L4.3,3.5C4.2,3.4,4,3.3,3.8,3.4
	C3.6,3.4,3.4,3.6,3.4,3.8c0,0.2,0,0.4,0.2,0.6C4.3,5.1,5,5.8,5.7,6.5l0.4,0.4c0,0,0.1,0.1,0.1,0.1l0,0c-0.5,0.5-1,1-1.5,1.5L4.4,8.8
	C4.1,9.1,3.8,9.4,3.5,9.6c-0.1,0.1-0.2,0.3-0.2,0.5c0,0.2,0.1,0.3,0.2,0.4c0.1,0.1,0.2,0.1,0.3,0.1c0.2,0,0.3-0.1,0.5-0.2
	C5.1,9.7,5.9,9,6.6,8.2C6.7,8.1,6.8,8,6.9,7.9L7,7.8c0,0,0,0,0,0c0.6,0.6,1.3,1.3,1.9,1.9L9,9.9c0.2,0.2,0.4,0.4,0.6,0.6
	c0.2,0.2,0.4,0.2,0.7,0.1c0.2-0.1,0.3-0.3,0.3-0.6c0-0.2-0.1-0.3-0.2-0.4c-0.3-0.4-0.7-0.7-1-1.1L9.1,8.3c-0.3-0.3-0.6-0.6-1-1
	L7.8,7l0,0L8.9,6z"/>
</svg>
