<?xml version="1.0" encoding="utf-8"?>
<!-- Generator: Adobe Illustrator 24.1.0, SVG Export Plug-In . SVG Version: 6.00 Build 0)  -->
<svg version="1.1" id="skiped" xmlns="http://www.w3.org/2000/svg" xmlns:xlink="http://www.w3.org/1999/xlink" x="0px" y="0px"
	 viewBox="0 0 14 14" style="enable-background:new 0 0 14 14;" xml:space="preserve">
<path d="M7,13.5H2.5c-0.5,0-1-0.1-1.4-0.3c-0.8-0.4-1.2-1.2-1.1-2c0.1-0.4,0.2-0.8,0.4-1.2C2,7.3,3.5,4.6,5,1.9C5.3,1.4,5.6,1,6,0.8
	c0.7-0.5,1.7-0.3,2.3,0.3C8.6,1.3,8.8,1.6,9,2c1.5,2.7,3,5.4,4.5,8c0.2,0.4,0.4,0.8,0.5,1.3c0.1,0.8-0.3,1.6-1,2
	c-0.5,0.2-1,0.3-1.5,0.3L7,13.5z M7,12.4c1.5,0,3,0,4.5,0c0.2,0,0.4,0,0.7-0.1c0.5-0.1,0.8-0.5,0.8-1c0-0.1,0-0.1,0-0.2
	c-0.1-0.2-0.1-0.4-0.3-0.7c-0.7-1.3-1.4-2.6-2.2-3.8C9.6,5.3,8.8,3.8,8,2.4C7.9,2.2,7.7,2,7.6,1.8c-0.3-0.3-0.7-0.3-1-0.1
	c0,0,0,0,0,0C6.3,1.9,6.2,2.1,6,2.3C4.5,5,2.9,7.8,1.4,10.6c-0.1,0.2-0.2,0.4-0.2,0.6c-0.2,0.5,0.1,1,0.5,1.2c0.1,0,0.1,0,0.2,0.1
	c0.2,0,0.4,0.1,0.6,0.1C4,12.4,5.5,12.4,7,12.4L7,12.4z M7.7,5.4C7.6,6.1,7.6,7,7.5,7.8c0,0.3,0,0.6-0.1,0.8C7.4,9,7.2,9.1,7,9.1
	c-0.2,0-0.4-0.2-0.4-0.4C6.5,7.8,6.4,6.9,6.4,6.1c0-0.2,0-0.5-0.1-0.7c0-0.4,0.2-0.7,0.6-0.8c0.4,0,0.7,0.2,0.8,0.6
	C7.7,5.2,7.7,5.2,7.7,5.4C7.7,5.3,7.7,5.3,7.7,5.4z M7,11.1c-0.4,0-0.7-0.3-0.7-0.7c0,0,0,0,0,0C6.3,10,6.6,9.7,7,9.7
	c0.4,0,0.7,0.3,0.7,0.7C7.7,10.8,7.4,11.1,7,11.1C7,11.1,7,11.1,7,11.1z"/>
</svg>
