<?xml version="1.0" encoding="utf-8"?>
<!-- Generator: Adobe Illustrator 24.1.0, SVG Export Plug-In . SVG Version: 6.00 Build 0)  -->
<svg version="1.1" id="passed" xmlns="http://www.w3.org/2000/svg" xmlns:xlink="http://www.w3.org/1999/xlink" x="0px" y="0px"
	 viewBox="0 0 14 14" style="enable-background:new 0 0 14 14;" xml:space="preserve">
<path d="M7,0c3.9,0,7,3.1,7,7s-3.1,7-7,7c-3.9,0-7-3.1-7-7c0,0,0,0,0,0C0,3.1,3.1,0,7,0z M12.9,7c0-3.3-2.6-5.9-5.9-5.9
	C3.7,1.1,1.1,3.7,1.1,7c0,3.3,2.6,5.9,5.9,5.9c0,0,0,0,0,0C10.3,12.9,12.9,10.3,12.9,7L12.9,7z M5.9,8.1C6,8.1,6,8.1,6,8l3.4-3.4
	c0.2-0.3,0.6-0.3,0.9-0.1c0,0,0,0,0,0c0.2,0.2,0.3,0.5,0.1,0.8c0,0.1-0.1,0.1-0.2,0.2C9.1,6.8,7.7,8.1,6.4,9.4
	C6.3,9.6,6,9.7,5.7,9.6c-0.1,0-0.2-0.1-0.3-0.2C4.8,8.8,4.2,8.2,3.6,7.6C3.4,7.4,3.3,7.1,3.4,6.9c0.1-0.2,0.4-0.4,0.6-0.4
	c0.2,0,0.3,0.1,0.4,0.2C5,7.2,5.4,7.7,5.9,8.1z"/>
</svg>
